%TF.GenerationSoftware,KiCad,Pcbnew,9.0.3*%
%TF.CreationDate,2025-07-23T09:39:23+02:00*%
%TF.ProjectId,LED-driver-Board,4c45442d-6472-4697-9665-722d426f6172,rev?*%
%TF.SameCoordinates,Original*%
%TF.FileFunction,Soldermask,Top*%
%TF.FilePolarity,Negative*%
%FSLAX46Y46*%
G04 Gerber Fmt 4.6, Leading zero omitted, Abs format (unit mm)*
G04 Created by KiCad (PCBNEW 9.0.3) date 2025-07-23 09:39:23*
%MOMM*%
%LPD*%
G01*
G04 APERTURE LIST*
G04 Aperture macros list*
%AMRoundRect*
0 Rectangle with rounded corners*
0 $1 Rounding radius*
0 $2 $3 $4 $5 $6 $7 $8 $9 X,Y pos of 4 corners*
0 Add a 4 corners polygon primitive as box body*
4,1,4,$2,$3,$4,$5,$6,$7,$8,$9,$2,$3,0*
0 Add four circle primitives for the rounded corners*
1,1,$1+$1,$2,$3*
1,1,$1+$1,$4,$5*
1,1,$1+$1,$6,$7*
1,1,$1+$1,$8,$9*
0 Add four rect primitives between the rounded corners*
20,1,$1+$1,$2,$3,$4,$5,0*
20,1,$1+$1,$4,$5,$6,$7,0*
20,1,$1+$1,$6,$7,$8,$9,0*
20,1,$1+$1,$8,$9,$2,$3,0*%
G04 Aperture macros list end*
%ADD10O,1.700000X2.000000*%
%ADD11RoundRect,0.250000X-0.600000X-0.750000X0.600000X-0.750000X0.600000X0.750000X-0.600000X0.750000X0*%
%ADD12RoundRect,0.250000X-0.262500X-0.450000X0.262500X-0.450000X0.262500X0.450000X-0.262500X0.450000X0*%
%ADD13RoundRect,0.250000X0.475000X-0.250000X0.475000X0.250000X-0.475000X0.250000X-0.475000X-0.250000X0*%
%ADD14C,6.400000*%
%ADD15R,2.000000X1.300000*%
%ADD16R,2.000000X2.000000*%
%ADD17RoundRect,0.250000X0.450000X-0.262500X0.450000X0.262500X-0.450000X0.262500X-0.450000X-0.262500X0*%
%ADD18RoundRect,0.150000X0.725000X0.150000X-0.725000X0.150000X-0.725000X-0.150000X0.725000X-0.150000X0*%
%ADD19RoundRect,0.250000X0.725000X-0.600000X0.725000X0.600000X-0.725000X0.600000X-0.725000X-0.600000X0*%
%ADD20O,1.950000X1.700000*%
%ADD21RoundRect,0.250000X0.945000X-0.420000X0.945000X0.420000X-0.945000X0.420000X-0.945000X-0.420000X0*%
%ADD22RoundRect,0.250000X0.262500X0.450000X-0.262500X0.450000X-0.262500X-0.450000X0.262500X-0.450000X0*%
%ADD23RoundRect,0.250000X0.750000X-0.600000X0.750000X0.600000X-0.750000X0.600000X-0.750000X-0.600000X0*%
%ADD24O,2.000000X1.700000*%
G04 APERTURE END LIST*
D10*
%TO.C,J4*%
X84400000Y-102225000D03*
D11*
X81900000Y-102225000D03*
%TD*%
D10*
%TO.C,J3*%
X84400000Y-94950000D03*
D11*
X81900000Y-94950000D03*
%TD*%
D10*
%TO.C,J7*%
X84400000Y-123900000D03*
D11*
X81900000Y-123900000D03*
%TD*%
D10*
%TO.C,J5*%
X84400000Y-109450000D03*
D11*
X81900000Y-109450000D03*
%TD*%
D10*
%TO.C,J8*%
X84400000Y-131175000D03*
D11*
X81900000Y-131175000D03*
%TD*%
D10*
%TO.C,J6*%
X84400000Y-116675000D03*
D11*
X81900000Y-116675000D03*
%TD*%
D10*
%TO.C,J1*%
X84400000Y-80525000D03*
D11*
X81900000Y-80525000D03*
%TD*%
D10*
%TO.C,J2*%
X84400000Y-87650000D03*
D11*
X81900000Y-87650000D03*
%TD*%
D10*
%TO.C,J33*%
X84490000Y-65910000D03*
D11*
X81990000Y-65910000D03*
%TD*%
D12*
%TO.C,R1*%
X90847500Y-115001764D03*
X92672500Y-115001764D03*
%TD*%
D11*
%TO.C,J27*%
X135810000Y-94805000D03*
D10*
X138310000Y-94805000D03*
%TD*%
D11*
%TO.C,J36*%
X135840000Y-65870000D03*
D10*
X138340000Y-65870000D03*
%TD*%
D11*
%TO.C,J32*%
X135735000Y-131105000D03*
D10*
X138235000Y-131105000D03*
%TD*%
D11*
%TO.C,J15*%
X100130000Y-123875000D03*
D10*
X102630000Y-123875000D03*
%TD*%
D13*
%TO.C,C1*%
X89185000Y-132190000D03*
X89185000Y-130290000D03*
%TD*%
D11*
%TO.C,J25*%
X135860000Y-80480000D03*
D10*
X138360000Y-80480000D03*
%TD*%
D14*
%TO.C,H1*%
X73500000Y-64500000D03*
%TD*%
D15*
%TO.C,RV1*%
X85010000Y-73401764D03*
D16*
X81010000Y-74551764D03*
D15*
X85010000Y-75701764D03*
%TD*%
D17*
%TO.C,R7*%
X124360000Y-75352500D03*
X124360000Y-73527500D03*
%TD*%
D14*
%TO.C,H3*%
X73500000Y-137500000D03*
%TD*%
D11*
%TO.C,J30*%
X135785000Y-116530000D03*
D10*
X138285000Y-116530000D03*
%TD*%
D13*
%TO.C,C2*%
X89185000Y-101915000D03*
X89185000Y-100015000D03*
%TD*%
D18*
%TO.C,U3*%
X130140000Y-127571764D03*
X130140000Y-126301764D03*
X130140000Y-125031764D03*
X130140000Y-123761764D03*
X130140000Y-122491764D03*
X130140000Y-121221764D03*
X130140000Y-119951764D03*
X130140000Y-118681764D03*
X124990000Y-118681764D03*
X124990000Y-119951764D03*
X124990000Y-121221764D03*
X124990000Y-122491764D03*
X124990000Y-123761764D03*
X124990000Y-125031764D03*
X124990000Y-126301764D03*
X124990000Y-127571764D03*
%TD*%
D17*
%TO.C,R6*%
X107685000Y-75157500D03*
X107685000Y-73332500D03*
%TD*%
D11*
%TO.C,J29*%
X135810000Y-109380000D03*
D10*
X138310000Y-109380000D03*
%TD*%
D18*
%TO.C,U4*%
X130140000Y-97906764D03*
X130140000Y-96636764D03*
X130140000Y-95366764D03*
X130140000Y-94096764D03*
X130140000Y-92826764D03*
X130140000Y-91556764D03*
X130140000Y-90286764D03*
X130140000Y-89016764D03*
X124990000Y-89016764D03*
X124990000Y-90286764D03*
X124990000Y-91556764D03*
X124990000Y-92826764D03*
X124990000Y-94096764D03*
X124990000Y-95366764D03*
X124990000Y-96636764D03*
X124990000Y-97906764D03*
%TD*%
D13*
%TO.C,C3*%
X124990000Y-131511764D03*
X124990000Y-129611764D03*
%TD*%
D11*
%TO.C,J31*%
X135760000Y-123805000D03*
D10*
X138260000Y-123805000D03*
%TD*%
D11*
%TO.C,J24*%
X117440000Y-131110000D03*
D10*
X119940000Y-131110000D03*
%TD*%
D11*
%TO.C,J35*%
X117470000Y-65840000D03*
D10*
X119970000Y-65840000D03*
%TD*%
D11*
%TO.C,J12*%
X100155000Y-102050000D03*
D10*
X102655000Y-102050000D03*
%TD*%
D11*
%TO.C,J26*%
X135835000Y-87555000D03*
D10*
X138335000Y-87555000D03*
%TD*%
D18*
%TO.C,U2*%
X94410000Y-97461764D03*
X94410000Y-96191764D03*
X94410000Y-94921764D03*
X94410000Y-93651764D03*
X94410000Y-92381764D03*
X94410000Y-91111764D03*
X94410000Y-89841764D03*
X94410000Y-88571764D03*
X89260000Y-88571764D03*
X89260000Y-89841764D03*
X89260000Y-91111764D03*
X89260000Y-92381764D03*
X89260000Y-93651764D03*
X89260000Y-94921764D03*
X89260000Y-96191764D03*
X89260000Y-97461764D03*
%TD*%
D14*
%TO.C,H4*%
X146500000Y-137500000D03*
%TD*%
D11*
%TO.C,J20*%
X117440000Y-102110000D03*
D10*
X119940000Y-102110000D03*
%TD*%
D14*
%TO.C,H2*%
X146500000Y-64500000D03*
%TD*%
D11*
%TO.C,J18*%
X117440000Y-87635000D03*
D10*
X119940000Y-87635000D03*
%TD*%
D19*
%TO.C,J103*%
X73710000Y-91275000D03*
D20*
X73710000Y-88775000D03*
X73710000Y-86275000D03*
X73710000Y-83775000D03*
X73710000Y-81275000D03*
%TD*%
D21*
%TO.C,C5*%
X73405000Y-115055000D03*
X73405000Y-111975000D03*
%TD*%
D17*
%TO.C,R5*%
X88780000Y-75242500D03*
X88780000Y-73417500D03*
%TD*%
D11*
%TO.C,J10*%
X100180000Y-87625000D03*
D10*
X102680000Y-87625000D03*
%TD*%
D11*
%TO.C,J17*%
X117440000Y-80485000D03*
D10*
X119940000Y-80485000D03*
%TD*%
D11*
%TO.C,J21*%
X117440000Y-109360000D03*
D10*
X119940000Y-109360000D03*
%TD*%
D15*
%TO.C,RV2*%
X103570000Y-73401764D03*
D16*
X99570000Y-74551764D03*
D15*
X103570000Y-75701764D03*
%TD*%
D11*
%TO.C,J19*%
X117440000Y-94885000D03*
D10*
X119940000Y-94885000D03*
%TD*%
D11*
%TO.C,J22*%
X117440000Y-116660000D03*
D10*
X119940000Y-116660000D03*
%TD*%
D22*
%TO.C,R2*%
X92747500Y-85426764D03*
X90922500Y-85426764D03*
%TD*%
%TO.C,R4*%
X128552500Y-85411764D03*
X126727500Y-85411764D03*
%TD*%
D15*
%TO.C,RV4*%
X139565000Y-73361764D03*
D16*
X135565000Y-74511764D03*
D15*
X139565000Y-75661764D03*
%TD*%
D11*
%TO.C,J28*%
X135785000Y-102005000D03*
D10*
X138285000Y-102005000D03*
%TD*%
D11*
%TO.C,J13*%
X100130000Y-109350000D03*
D10*
X102630000Y-109350000D03*
%TD*%
D12*
%TO.C,R3*%
X126227500Y-115036764D03*
X128052500Y-115036764D03*
%TD*%
D11*
%TO.C,J34*%
X100160000Y-65890000D03*
D10*
X102660000Y-65890000D03*
%TD*%
D11*
%TO.C,J23*%
X117440000Y-123835000D03*
D10*
X119940000Y-123835000D03*
%TD*%
D11*
%TO.C,J14*%
X100130000Y-116625000D03*
D10*
X102630000Y-116625000D03*
%TD*%
D23*
%TO.C,J102*%
X73430000Y-123515000D03*
D24*
X73430000Y-121015000D03*
%TD*%
D11*
%TO.C,J11*%
X100180000Y-94875000D03*
D10*
X102680000Y-94875000D03*
%TD*%
D13*
%TO.C,C4*%
X125090000Y-102461764D03*
X125090000Y-100561764D03*
%TD*%
D11*
%TO.C,J9*%
X100180000Y-80525000D03*
D10*
X102680000Y-80525000D03*
%TD*%
D15*
%TO.C,RV3*%
X120715000Y-73361764D03*
D16*
X116715000Y-74511764D03*
D15*
X120715000Y-75661764D03*
%TD*%
D18*
%TO.C,U1*%
X94335000Y-127771764D03*
X94335000Y-126501764D03*
X94335000Y-125231764D03*
X94335000Y-123961764D03*
X94335000Y-122691764D03*
X94335000Y-121421764D03*
X94335000Y-120151764D03*
X94335000Y-118881764D03*
X89185000Y-118881764D03*
X89185000Y-120151764D03*
X89185000Y-121421764D03*
X89185000Y-122691764D03*
X89185000Y-123961764D03*
X89185000Y-125231764D03*
X89185000Y-126501764D03*
X89185000Y-127771764D03*
%TD*%
D11*
%TO.C,J16*%
X100155000Y-131125000D03*
D10*
X102655000Y-131125000D03*
%TD*%
D17*
%TO.C,R8*%
X131830000Y-75502500D03*
X131830000Y-73677500D03*
%TD*%
M02*
