%TF.GenerationSoftware,KiCad,Pcbnew,9.0.3*%
%TF.CreationDate,2025-07-24T13:36:42+02:00*%
%TF.ProjectId,LED-driver-Board,4c45442d-6472-4697-9665-722d426f6172,rev?*%
%TF.SameCoordinates,Original*%
%TF.FileFunction,Legend,Top*%
%TF.FilePolarity,Positive*%
%FSLAX46Y46*%
G04 Gerber Fmt 4.6, Leading zero omitted, Abs format (unit mm)*
G04 Created by KiCad (PCBNEW 9.0.3) date 2025-07-24 13:36:42*
%MOMM*%
%LPD*%
G01*
G04 APERTURE LIST*
G04 Aperture macros list*
%AMRoundRect*
0 Rectangle with rounded corners*
0 $1 Rounding radius*
0 $2 $3 $4 $5 $6 $7 $8 $9 X,Y pos of 4 corners*
0 Add a 4 corners polygon primitive as box body*
4,1,4,$2,$3,$4,$5,$6,$7,$8,$9,$2,$3,0*
0 Add four circle primitives for the rounded corners*
1,1,$1+$1,$2,$3*
1,1,$1+$1,$4,$5*
1,1,$1+$1,$6,$7*
1,1,$1+$1,$8,$9*
0 Add four rect primitives between the rounded corners*
20,1,$1+$1,$2,$3,$4,$5,0*
20,1,$1+$1,$4,$5,$6,$7,0*
20,1,$1+$1,$6,$7,$8,$9,0*
20,1,$1+$1,$8,$9,$2,$3,0*%
G04 Aperture macros list end*
%ADD10C,0.250000*%
%ADD11C,0.300000*%
%ADD12C,0.150000*%
%ADD13C,0.120000*%
%ADD14C,0.000000*%
%ADD15C,6.400000*%
%ADD16RoundRect,0.250000X-0.262500X-0.450000X0.262500X-0.450000X0.262500X0.450000X-0.262500X0.450000X0*%
%ADD17RoundRect,0.250000X-0.600000X-0.750000X0.600000X-0.750000X0.600000X0.750000X-0.600000X0.750000X0*%
%ADD18O,1.700000X2.000000*%
%ADD19RoundRect,0.250000X0.475000X-0.250000X0.475000X0.250000X-0.475000X0.250000X-0.475000X-0.250000X0*%
%ADD20R,2.000000X1.300000*%
%ADD21R,2.000000X2.000000*%
%ADD22RoundRect,0.250000X0.450000X-0.262500X0.450000X0.262500X-0.450000X0.262500X-0.450000X-0.262500X0*%
%ADD23RoundRect,0.150000X0.725000X0.150000X-0.725000X0.150000X-0.725000X-0.150000X0.725000X-0.150000X0*%
%ADD24RoundRect,0.250000X0.725000X-0.600000X0.725000X0.600000X-0.725000X0.600000X-0.725000X-0.600000X0*%
%ADD25O,1.950000X1.700000*%
%ADD26RoundRect,0.250000X0.945000X-0.420000X0.945000X0.420000X-0.945000X0.420000X-0.945000X-0.420000X0*%
%ADD27RoundRect,0.250000X0.262500X0.450000X-0.262500X0.450000X-0.262500X-0.450000X0.262500X-0.450000X0*%
%ADD28RoundRect,0.250000X0.750000X-0.600000X0.750000X0.600000X-0.750000X0.600000X-0.750000X-0.600000X0*%
%ADD29O,2.000000X1.700000*%
G04 APERTURE END LIST*
D10*
X114712568Y-71584619D02*
X114712568Y-70584619D01*
X114712568Y-70584619D02*
X114950663Y-70584619D01*
X114950663Y-70584619D02*
X115093520Y-70632238D01*
X115093520Y-70632238D02*
X115188758Y-70727476D01*
X115188758Y-70727476D02*
X115236377Y-70822714D01*
X115236377Y-70822714D02*
X115283996Y-71013190D01*
X115283996Y-71013190D02*
X115283996Y-71156047D01*
X115283996Y-71156047D02*
X115236377Y-71346523D01*
X115236377Y-71346523D02*
X115188758Y-71441761D01*
X115188758Y-71441761D02*
X115093520Y-71537000D01*
X115093520Y-71537000D02*
X114950663Y-71584619D01*
X114950663Y-71584619D02*
X114712568Y-71584619D01*
X115712568Y-71584619D02*
X115712568Y-70917952D01*
X115712568Y-70584619D02*
X115664949Y-70632238D01*
X115664949Y-70632238D02*
X115712568Y-70679857D01*
X115712568Y-70679857D02*
X115760187Y-70632238D01*
X115760187Y-70632238D02*
X115712568Y-70584619D01*
X115712568Y-70584619D02*
X115712568Y-70679857D01*
X116188758Y-71584619D02*
X116188758Y-70917952D01*
X116188758Y-71013190D02*
X116236377Y-70965571D01*
X116236377Y-70965571D02*
X116331615Y-70917952D01*
X116331615Y-70917952D02*
X116474472Y-70917952D01*
X116474472Y-70917952D02*
X116569710Y-70965571D01*
X116569710Y-70965571D02*
X116617329Y-71060809D01*
X116617329Y-71060809D02*
X116617329Y-71584619D01*
X116617329Y-71060809D02*
X116664948Y-70965571D01*
X116664948Y-70965571D02*
X116760186Y-70917952D01*
X116760186Y-70917952D02*
X116903043Y-70917952D01*
X116903043Y-70917952D02*
X116998282Y-70965571D01*
X116998282Y-70965571D02*
X117045901Y-71060809D01*
X117045901Y-71060809D02*
X117045901Y-71584619D01*
X118807805Y-71584619D02*
X118236377Y-71584619D01*
X118522091Y-71584619D02*
X118522091Y-70584619D01*
X118522091Y-70584619D02*
X118426853Y-70727476D01*
X118426853Y-70727476D02*
X118331615Y-70822714D01*
X118331615Y-70822714D02*
X118236377Y-70870333D01*
X119141139Y-70584619D02*
X119807805Y-70584619D01*
X119807805Y-70584619D02*
X119379234Y-71584619D01*
X120188758Y-71203666D02*
X120950663Y-71203666D01*
X121379234Y-70679857D02*
X121426853Y-70632238D01*
X121426853Y-70632238D02*
X121522091Y-70584619D01*
X121522091Y-70584619D02*
X121760186Y-70584619D01*
X121760186Y-70584619D02*
X121855424Y-70632238D01*
X121855424Y-70632238D02*
X121903043Y-70679857D01*
X121903043Y-70679857D02*
X121950662Y-70775095D01*
X121950662Y-70775095D02*
X121950662Y-70870333D01*
X121950662Y-70870333D02*
X121903043Y-71013190D01*
X121903043Y-71013190D02*
X121331615Y-71584619D01*
X121331615Y-71584619D02*
X121950662Y-71584619D01*
X122807805Y-70917952D02*
X122807805Y-71584619D01*
X122569710Y-70537000D02*
X122331615Y-71251285D01*
X122331615Y-71251285D02*
X122950662Y-71251285D01*
X80042568Y-71744619D02*
X80042568Y-70744619D01*
X80042568Y-70744619D02*
X80280663Y-70744619D01*
X80280663Y-70744619D02*
X80423520Y-70792238D01*
X80423520Y-70792238D02*
X80518758Y-70887476D01*
X80518758Y-70887476D02*
X80566377Y-70982714D01*
X80566377Y-70982714D02*
X80613996Y-71173190D01*
X80613996Y-71173190D02*
X80613996Y-71316047D01*
X80613996Y-71316047D02*
X80566377Y-71506523D01*
X80566377Y-71506523D02*
X80518758Y-71601761D01*
X80518758Y-71601761D02*
X80423520Y-71697000D01*
X80423520Y-71697000D02*
X80280663Y-71744619D01*
X80280663Y-71744619D02*
X80042568Y-71744619D01*
X81042568Y-71744619D02*
X81042568Y-71077952D01*
X81042568Y-70744619D02*
X80994949Y-70792238D01*
X80994949Y-70792238D02*
X81042568Y-70839857D01*
X81042568Y-70839857D02*
X81090187Y-70792238D01*
X81090187Y-70792238D02*
X81042568Y-70744619D01*
X81042568Y-70744619D02*
X81042568Y-70839857D01*
X81518758Y-71744619D02*
X81518758Y-71077952D01*
X81518758Y-71173190D02*
X81566377Y-71125571D01*
X81566377Y-71125571D02*
X81661615Y-71077952D01*
X81661615Y-71077952D02*
X81804472Y-71077952D01*
X81804472Y-71077952D02*
X81899710Y-71125571D01*
X81899710Y-71125571D02*
X81947329Y-71220809D01*
X81947329Y-71220809D02*
X81947329Y-71744619D01*
X81947329Y-71220809D02*
X81994948Y-71125571D01*
X81994948Y-71125571D02*
X82090186Y-71077952D01*
X82090186Y-71077952D02*
X82233043Y-71077952D01*
X82233043Y-71077952D02*
X82328282Y-71125571D01*
X82328282Y-71125571D02*
X82375901Y-71220809D01*
X82375901Y-71220809D02*
X82375901Y-71744619D01*
X84137805Y-71744619D02*
X83566377Y-71744619D01*
X83852091Y-71744619D02*
X83852091Y-70744619D01*
X83852091Y-70744619D02*
X83756853Y-70887476D01*
X83756853Y-70887476D02*
X83661615Y-70982714D01*
X83661615Y-70982714D02*
X83566377Y-71030333D01*
X84566377Y-71363666D02*
X85328282Y-71363666D01*
X85947329Y-71173190D02*
X85852091Y-71125571D01*
X85852091Y-71125571D02*
X85804472Y-71077952D01*
X85804472Y-71077952D02*
X85756853Y-70982714D01*
X85756853Y-70982714D02*
X85756853Y-70935095D01*
X85756853Y-70935095D02*
X85804472Y-70839857D01*
X85804472Y-70839857D02*
X85852091Y-70792238D01*
X85852091Y-70792238D02*
X85947329Y-70744619D01*
X85947329Y-70744619D02*
X86137805Y-70744619D01*
X86137805Y-70744619D02*
X86233043Y-70792238D01*
X86233043Y-70792238D02*
X86280662Y-70839857D01*
X86280662Y-70839857D02*
X86328281Y-70935095D01*
X86328281Y-70935095D02*
X86328281Y-70982714D01*
X86328281Y-70982714D02*
X86280662Y-71077952D01*
X86280662Y-71077952D02*
X86233043Y-71125571D01*
X86233043Y-71125571D02*
X86137805Y-71173190D01*
X86137805Y-71173190D02*
X85947329Y-71173190D01*
X85947329Y-71173190D02*
X85852091Y-71220809D01*
X85852091Y-71220809D02*
X85804472Y-71268428D01*
X85804472Y-71268428D02*
X85756853Y-71363666D01*
X85756853Y-71363666D02*
X85756853Y-71554142D01*
X85756853Y-71554142D02*
X85804472Y-71649380D01*
X85804472Y-71649380D02*
X85852091Y-71697000D01*
X85852091Y-71697000D02*
X85947329Y-71744619D01*
X85947329Y-71744619D02*
X86137805Y-71744619D01*
X86137805Y-71744619D02*
X86233043Y-71697000D01*
X86233043Y-71697000D02*
X86280662Y-71649380D01*
X86280662Y-71649380D02*
X86328281Y-71554142D01*
X86328281Y-71554142D02*
X86328281Y-71363666D01*
X86328281Y-71363666D02*
X86280662Y-71268428D01*
X86280662Y-71268428D02*
X86233043Y-71220809D01*
X86233043Y-71220809D02*
X86137805Y-71173190D01*
X132882568Y-62604619D02*
X132882568Y-61604619D01*
X132882568Y-61604619D02*
X133263520Y-61604619D01*
X133263520Y-61604619D02*
X133358758Y-61652238D01*
X133358758Y-61652238D02*
X133406377Y-61699857D01*
X133406377Y-61699857D02*
X133453996Y-61795095D01*
X133453996Y-61795095D02*
X133453996Y-61937952D01*
X133453996Y-61937952D02*
X133406377Y-62033190D01*
X133406377Y-62033190D02*
X133358758Y-62080809D01*
X133358758Y-62080809D02*
X133263520Y-62128428D01*
X133263520Y-62128428D02*
X132882568Y-62128428D01*
X133787330Y-61604619D02*
X134025425Y-62604619D01*
X134025425Y-62604619D02*
X134215901Y-61890333D01*
X134215901Y-61890333D02*
X134406377Y-62604619D01*
X134406377Y-62604619D02*
X134644473Y-61604619D01*
X135025425Y-62604619D02*
X135025425Y-61604619D01*
X135025425Y-61604619D02*
X135358758Y-62318904D01*
X135358758Y-62318904D02*
X135692091Y-61604619D01*
X135692091Y-61604619D02*
X135692091Y-62604619D01*
X136882568Y-61699857D02*
X136930187Y-61652238D01*
X136930187Y-61652238D02*
X137025425Y-61604619D01*
X137025425Y-61604619D02*
X137263520Y-61604619D01*
X137263520Y-61604619D02*
X137358758Y-61652238D01*
X137358758Y-61652238D02*
X137406377Y-61699857D01*
X137406377Y-61699857D02*
X137453996Y-61795095D01*
X137453996Y-61795095D02*
X137453996Y-61890333D01*
X137453996Y-61890333D02*
X137406377Y-62033190D01*
X137406377Y-62033190D02*
X136834949Y-62604619D01*
X136834949Y-62604619D02*
X137453996Y-62604619D01*
X138358758Y-61604619D02*
X137882568Y-61604619D01*
X137882568Y-61604619D02*
X137834949Y-62080809D01*
X137834949Y-62080809D02*
X137882568Y-62033190D01*
X137882568Y-62033190D02*
X137977806Y-61985571D01*
X137977806Y-61985571D02*
X138215901Y-61985571D01*
X138215901Y-61985571D02*
X138311139Y-62033190D01*
X138311139Y-62033190D02*
X138358758Y-62080809D01*
X138358758Y-62080809D02*
X138406377Y-62176047D01*
X138406377Y-62176047D02*
X138406377Y-62414142D01*
X138406377Y-62414142D02*
X138358758Y-62509380D01*
X138358758Y-62509380D02*
X138311139Y-62557000D01*
X138311139Y-62557000D02*
X138215901Y-62604619D01*
X138215901Y-62604619D02*
X137977806Y-62604619D01*
X137977806Y-62604619D02*
X137882568Y-62557000D01*
X137882568Y-62557000D02*
X137834949Y-62509380D01*
X138834949Y-62223666D02*
X139596854Y-62223666D01*
X139977806Y-61604619D02*
X140596853Y-61604619D01*
X140596853Y-61604619D02*
X140263520Y-61985571D01*
X140263520Y-61985571D02*
X140406377Y-61985571D01*
X140406377Y-61985571D02*
X140501615Y-62033190D01*
X140501615Y-62033190D02*
X140549234Y-62080809D01*
X140549234Y-62080809D02*
X140596853Y-62176047D01*
X140596853Y-62176047D02*
X140596853Y-62414142D01*
X140596853Y-62414142D02*
X140549234Y-62509380D01*
X140549234Y-62509380D02*
X140501615Y-62557000D01*
X140501615Y-62557000D02*
X140406377Y-62604619D01*
X140406377Y-62604619D02*
X140120663Y-62604619D01*
X140120663Y-62604619D02*
X140025425Y-62557000D01*
X140025425Y-62557000D02*
X139977806Y-62509380D01*
X140977806Y-61699857D02*
X141025425Y-61652238D01*
X141025425Y-61652238D02*
X141120663Y-61604619D01*
X141120663Y-61604619D02*
X141358758Y-61604619D01*
X141358758Y-61604619D02*
X141453996Y-61652238D01*
X141453996Y-61652238D02*
X141501615Y-61699857D01*
X141501615Y-61699857D02*
X141549234Y-61795095D01*
X141549234Y-61795095D02*
X141549234Y-61890333D01*
X141549234Y-61890333D02*
X141501615Y-62033190D01*
X141501615Y-62033190D02*
X140930187Y-62604619D01*
X140930187Y-62604619D02*
X141549234Y-62604619D01*
D11*
X142638796Y-81800828D02*
X141924510Y-81800828D01*
X141924510Y-81800828D02*
X141924510Y-80300828D01*
X143138796Y-81015114D02*
X143638796Y-81015114D01*
X143853082Y-81800828D02*
X143138796Y-81800828D01*
X143138796Y-81800828D02*
X143138796Y-80300828D01*
X143138796Y-80300828D02*
X143853082Y-80300828D01*
X144495939Y-81800828D02*
X144495939Y-80300828D01*
X144495939Y-80300828D02*
X144853082Y-80300828D01*
X144853082Y-80300828D02*
X145067368Y-80372257D01*
X145067368Y-80372257D02*
X145210225Y-80515114D01*
X145210225Y-80515114D02*
X145281654Y-80657971D01*
X145281654Y-80657971D02*
X145353082Y-80943685D01*
X145353082Y-80943685D02*
X145353082Y-81157971D01*
X145353082Y-81157971D02*
X145281654Y-81443685D01*
X145281654Y-81443685D02*
X145210225Y-81586542D01*
X145210225Y-81586542D02*
X145067368Y-81729400D01*
X145067368Y-81729400D02*
X144853082Y-81800828D01*
X144853082Y-81800828D02*
X144495939Y-81800828D01*
X145924511Y-80443685D02*
X145995939Y-80372257D01*
X145995939Y-80372257D02*
X146138797Y-80300828D01*
X146138797Y-80300828D02*
X146495939Y-80300828D01*
X146495939Y-80300828D02*
X146638797Y-80372257D01*
X146638797Y-80372257D02*
X146710225Y-80443685D01*
X146710225Y-80443685D02*
X146781654Y-80586542D01*
X146781654Y-80586542D02*
X146781654Y-80729400D01*
X146781654Y-80729400D02*
X146710225Y-80943685D01*
X146710225Y-80943685D02*
X145853082Y-81800828D01*
X145853082Y-81800828D02*
X146781654Y-81800828D01*
X148138796Y-80300828D02*
X147424510Y-80300828D01*
X147424510Y-80300828D02*
X147353082Y-81015114D01*
X147353082Y-81015114D02*
X147424510Y-80943685D01*
X147424510Y-80943685D02*
X147567368Y-80872257D01*
X147567368Y-80872257D02*
X147924510Y-80872257D01*
X147924510Y-80872257D02*
X148067368Y-80943685D01*
X148067368Y-80943685D02*
X148138796Y-81015114D01*
X148138796Y-81015114D02*
X148210225Y-81157971D01*
X148210225Y-81157971D02*
X148210225Y-81515114D01*
X148210225Y-81515114D02*
X148138796Y-81657971D01*
X148138796Y-81657971D02*
X148067368Y-81729400D01*
X148067368Y-81729400D02*
X147924510Y-81800828D01*
X147924510Y-81800828D02*
X147567368Y-81800828D01*
X147567368Y-81800828D02*
X147424510Y-81729400D01*
X147424510Y-81729400D02*
X147353082Y-81657971D01*
X81868796Y-137020828D02*
X81154510Y-137020828D01*
X81154510Y-137020828D02*
X81154510Y-135520828D01*
X82368796Y-136235114D02*
X82868796Y-136235114D01*
X83083082Y-137020828D02*
X82368796Y-137020828D01*
X82368796Y-137020828D02*
X82368796Y-135520828D01*
X82368796Y-135520828D02*
X83083082Y-135520828D01*
X83725939Y-137020828D02*
X83725939Y-135520828D01*
X83725939Y-135520828D02*
X84083082Y-135520828D01*
X84083082Y-135520828D02*
X84297368Y-135592257D01*
X84297368Y-135592257D02*
X84440225Y-135735114D01*
X84440225Y-135735114D02*
X84511654Y-135877971D01*
X84511654Y-135877971D02*
X84583082Y-136163685D01*
X84583082Y-136163685D02*
X84583082Y-136377971D01*
X84583082Y-136377971D02*
X84511654Y-136663685D01*
X84511654Y-136663685D02*
X84440225Y-136806542D01*
X84440225Y-136806542D02*
X84297368Y-136949400D01*
X84297368Y-136949400D02*
X84083082Y-137020828D01*
X84083082Y-137020828D02*
X83725939Y-137020828D01*
X85440225Y-136163685D02*
X85297368Y-136092257D01*
X85297368Y-136092257D02*
X85225939Y-136020828D01*
X85225939Y-136020828D02*
X85154511Y-135877971D01*
X85154511Y-135877971D02*
X85154511Y-135806542D01*
X85154511Y-135806542D02*
X85225939Y-135663685D01*
X85225939Y-135663685D02*
X85297368Y-135592257D01*
X85297368Y-135592257D02*
X85440225Y-135520828D01*
X85440225Y-135520828D02*
X85725939Y-135520828D01*
X85725939Y-135520828D02*
X85868797Y-135592257D01*
X85868797Y-135592257D02*
X85940225Y-135663685D01*
X85940225Y-135663685D02*
X86011654Y-135806542D01*
X86011654Y-135806542D02*
X86011654Y-135877971D01*
X86011654Y-135877971D02*
X85940225Y-136020828D01*
X85940225Y-136020828D02*
X85868797Y-136092257D01*
X85868797Y-136092257D02*
X85725939Y-136163685D01*
X85725939Y-136163685D02*
X85440225Y-136163685D01*
X85440225Y-136163685D02*
X85297368Y-136235114D01*
X85297368Y-136235114D02*
X85225939Y-136306542D01*
X85225939Y-136306542D02*
X85154511Y-136449400D01*
X85154511Y-136449400D02*
X85154511Y-136735114D01*
X85154511Y-136735114D02*
X85225939Y-136877971D01*
X85225939Y-136877971D02*
X85297368Y-136949400D01*
X85297368Y-136949400D02*
X85440225Y-137020828D01*
X85440225Y-137020828D02*
X85725939Y-137020828D01*
X85725939Y-137020828D02*
X85868797Y-136949400D01*
X85868797Y-136949400D02*
X85940225Y-136877971D01*
X85940225Y-136877971D02*
X86011654Y-136735114D01*
X86011654Y-136735114D02*
X86011654Y-136449400D01*
X86011654Y-136449400D02*
X85940225Y-136306542D01*
X85940225Y-136306542D02*
X85868797Y-136235114D01*
X85868797Y-136235114D02*
X85725939Y-136163685D01*
X116368796Y-137040828D02*
X115654510Y-137040828D01*
X115654510Y-137040828D02*
X115654510Y-135540828D01*
X116868796Y-136255114D02*
X117368796Y-136255114D01*
X117583082Y-137040828D02*
X116868796Y-137040828D01*
X116868796Y-137040828D02*
X116868796Y-135540828D01*
X116868796Y-135540828D02*
X117583082Y-135540828D01*
X118225939Y-137040828D02*
X118225939Y-135540828D01*
X118225939Y-135540828D02*
X118583082Y-135540828D01*
X118583082Y-135540828D02*
X118797368Y-135612257D01*
X118797368Y-135612257D02*
X118940225Y-135755114D01*
X118940225Y-135755114D02*
X119011654Y-135897971D01*
X119011654Y-135897971D02*
X119083082Y-136183685D01*
X119083082Y-136183685D02*
X119083082Y-136397971D01*
X119083082Y-136397971D02*
X119011654Y-136683685D01*
X119011654Y-136683685D02*
X118940225Y-136826542D01*
X118940225Y-136826542D02*
X118797368Y-136969400D01*
X118797368Y-136969400D02*
X118583082Y-137040828D01*
X118583082Y-137040828D02*
X118225939Y-137040828D01*
X119654511Y-135683685D02*
X119725939Y-135612257D01*
X119725939Y-135612257D02*
X119868797Y-135540828D01*
X119868797Y-135540828D02*
X120225939Y-135540828D01*
X120225939Y-135540828D02*
X120368797Y-135612257D01*
X120368797Y-135612257D02*
X120440225Y-135683685D01*
X120440225Y-135683685D02*
X120511654Y-135826542D01*
X120511654Y-135826542D02*
X120511654Y-135969400D01*
X120511654Y-135969400D02*
X120440225Y-136183685D01*
X120440225Y-136183685D02*
X119583082Y-137040828D01*
X119583082Y-137040828D02*
X120511654Y-137040828D01*
X121797368Y-136040828D02*
X121797368Y-137040828D01*
X121440225Y-135469400D02*
X121083082Y-136540828D01*
X121083082Y-136540828D02*
X122011653Y-136540828D01*
X135078796Y-137150828D02*
X134364510Y-137150828D01*
X134364510Y-137150828D02*
X134364510Y-135650828D01*
X135578796Y-136365114D02*
X136078796Y-136365114D01*
X136293082Y-137150828D02*
X135578796Y-137150828D01*
X135578796Y-137150828D02*
X135578796Y-135650828D01*
X135578796Y-135650828D02*
X136293082Y-135650828D01*
X136935939Y-137150828D02*
X136935939Y-135650828D01*
X136935939Y-135650828D02*
X137293082Y-135650828D01*
X137293082Y-135650828D02*
X137507368Y-135722257D01*
X137507368Y-135722257D02*
X137650225Y-135865114D01*
X137650225Y-135865114D02*
X137721654Y-136007971D01*
X137721654Y-136007971D02*
X137793082Y-136293685D01*
X137793082Y-136293685D02*
X137793082Y-136507971D01*
X137793082Y-136507971D02*
X137721654Y-136793685D01*
X137721654Y-136793685D02*
X137650225Y-136936542D01*
X137650225Y-136936542D02*
X137507368Y-137079400D01*
X137507368Y-137079400D02*
X137293082Y-137150828D01*
X137293082Y-137150828D02*
X136935939Y-137150828D01*
X138293082Y-135650828D02*
X139221654Y-135650828D01*
X139221654Y-135650828D02*
X138721654Y-136222257D01*
X138721654Y-136222257D02*
X138935939Y-136222257D01*
X138935939Y-136222257D02*
X139078797Y-136293685D01*
X139078797Y-136293685D02*
X139150225Y-136365114D01*
X139150225Y-136365114D02*
X139221654Y-136507971D01*
X139221654Y-136507971D02*
X139221654Y-136865114D01*
X139221654Y-136865114D02*
X139150225Y-137007971D01*
X139150225Y-137007971D02*
X139078797Y-137079400D01*
X139078797Y-137079400D02*
X138935939Y-137150828D01*
X138935939Y-137150828D02*
X138507368Y-137150828D01*
X138507368Y-137150828D02*
X138364511Y-137079400D01*
X138364511Y-137079400D02*
X138293082Y-137007971D01*
X139793082Y-135793685D02*
X139864510Y-135722257D01*
X139864510Y-135722257D02*
X140007368Y-135650828D01*
X140007368Y-135650828D02*
X140364510Y-135650828D01*
X140364510Y-135650828D02*
X140507368Y-135722257D01*
X140507368Y-135722257D02*
X140578796Y-135793685D01*
X140578796Y-135793685D02*
X140650225Y-135936542D01*
X140650225Y-135936542D02*
X140650225Y-136079400D01*
X140650225Y-136079400D02*
X140578796Y-136293685D01*
X140578796Y-136293685D02*
X139721653Y-137150828D01*
X139721653Y-137150828D02*
X140650225Y-137150828D01*
D10*
X80152568Y-62604619D02*
X80152568Y-61604619D01*
X80152568Y-61604619D02*
X80533520Y-61604619D01*
X80533520Y-61604619D02*
X80628758Y-61652238D01*
X80628758Y-61652238D02*
X80676377Y-61699857D01*
X80676377Y-61699857D02*
X80723996Y-61795095D01*
X80723996Y-61795095D02*
X80723996Y-61937952D01*
X80723996Y-61937952D02*
X80676377Y-62033190D01*
X80676377Y-62033190D02*
X80628758Y-62080809D01*
X80628758Y-62080809D02*
X80533520Y-62128428D01*
X80533520Y-62128428D02*
X80152568Y-62128428D01*
X81057330Y-61604619D02*
X81295425Y-62604619D01*
X81295425Y-62604619D02*
X81485901Y-61890333D01*
X81485901Y-61890333D02*
X81676377Y-62604619D01*
X81676377Y-62604619D02*
X81914473Y-61604619D01*
X82295425Y-62604619D02*
X82295425Y-61604619D01*
X82295425Y-61604619D02*
X82628758Y-62318904D01*
X82628758Y-62318904D02*
X82962091Y-61604619D01*
X82962091Y-61604619D02*
X82962091Y-62604619D01*
X84723996Y-62604619D02*
X84152568Y-62604619D01*
X84438282Y-62604619D02*
X84438282Y-61604619D01*
X84438282Y-61604619D02*
X84343044Y-61747476D01*
X84343044Y-61747476D02*
X84247806Y-61842714D01*
X84247806Y-61842714D02*
X84152568Y-61890333D01*
X85152568Y-62223666D02*
X85914473Y-62223666D01*
X86533520Y-62033190D02*
X86438282Y-61985571D01*
X86438282Y-61985571D02*
X86390663Y-61937952D01*
X86390663Y-61937952D02*
X86343044Y-61842714D01*
X86343044Y-61842714D02*
X86343044Y-61795095D01*
X86343044Y-61795095D02*
X86390663Y-61699857D01*
X86390663Y-61699857D02*
X86438282Y-61652238D01*
X86438282Y-61652238D02*
X86533520Y-61604619D01*
X86533520Y-61604619D02*
X86723996Y-61604619D01*
X86723996Y-61604619D02*
X86819234Y-61652238D01*
X86819234Y-61652238D02*
X86866853Y-61699857D01*
X86866853Y-61699857D02*
X86914472Y-61795095D01*
X86914472Y-61795095D02*
X86914472Y-61842714D01*
X86914472Y-61842714D02*
X86866853Y-61937952D01*
X86866853Y-61937952D02*
X86819234Y-61985571D01*
X86819234Y-61985571D02*
X86723996Y-62033190D01*
X86723996Y-62033190D02*
X86533520Y-62033190D01*
X86533520Y-62033190D02*
X86438282Y-62080809D01*
X86438282Y-62080809D02*
X86390663Y-62128428D01*
X86390663Y-62128428D02*
X86343044Y-62223666D01*
X86343044Y-62223666D02*
X86343044Y-62414142D01*
X86343044Y-62414142D02*
X86390663Y-62509380D01*
X86390663Y-62509380D02*
X86438282Y-62557000D01*
X86438282Y-62557000D02*
X86533520Y-62604619D01*
X86533520Y-62604619D02*
X86723996Y-62604619D01*
X86723996Y-62604619D02*
X86819234Y-62557000D01*
X86819234Y-62557000D02*
X86866853Y-62509380D01*
X86866853Y-62509380D02*
X86914472Y-62414142D01*
X86914472Y-62414142D02*
X86914472Y-62223666D01*
X86914472Y-62223666D02*
X86866853Y-62128428D01*
X86866853Y-62128428D02*
X86819234Y-62080809D01*
X86819234Y-62080809D02*
X86723996Y-62033190D01*
D12*
X109750152Y-95941903D02*
X109750152Y-95465713D01*
X109750152Y-95465713D02*
X110750152Y-95465713D01*
X110273962Y-96275237D02*
X110273962Y-96608570D01*
X109750152Y-96751427D02*
X109750152Y-96275237D01*
X109750152Y-96275237D02*
X110750152Y-96275237D01*
X110750152Y-96275237D02*
X110750152Y-96751427D01*
X109750152Y-97179999D02*
X110750152Y-97179999D01*
X110750152Y-97179999D02*
X110750152Y-97418094D01*
X110750152Y-97418094D02*
X110702533Y-97560951D01*
X110702533Y-97560951D02*
X110607295Y-97656189D01*
X110607295Y-97656189D02*
X110512057Y-97703808D01*
X110512057Y-97703808D02*
X110321581Y-97751427D01*
X110321581Y-97751427D02*
X110178724Y-97751427D01*
X110178724Y-97751427D02*
X109988248Y-97703808D01*
X109988248Y-97703808D02*
X109893010Y-97656189D01*
X109893010Y-97656189D02*
X109797772Y-97560951D01*
X109797772Y-97560951D02*
X109750152Y-97418094D01*
X109750152Y-97418094D02*
X109750152Y-97179999D01*
X109750152Y-98941904D02*
X110750152Y-98941904D01*
X110750152Y-98941904D02*
X110750152Y-99179999D01*
X110750152Y-99179999D02*
X110702533Y-99322856D01*
X110702533Y-99322856D02*
X110607295Y-99418094D01*
X110607295Y-99418094D02*
X110512057Y-99465713D01*
X110512057Y-99465713D02*
X110321581Y-99513332D01*
X110321581Y-99513332D02*
X110178724Y-99513332D01*
X110178724Y-99513332D02*
X109988248Y-99465713D01*
X109988248Y-99465713D02*
X109893010Y-99418094D01*
X109893010Y-99418094D02*
X109797772Y-99322856D01*
X109797772Y-99322856D02*
X109750152Y-99179999D01*
X109750152Y-99179999D02*
X109750152Y-98941904D01*
X109750152Y-99941904D02*
X110416819Y-99941904D01*
X110226343Y-99941904D02*
X110321581Y-99989523D01*
X110321581Y-99989523D02*
X110369200Y-100037142D01*
X110369200Y-100037142D02*
X110416819Y-100132380D01*
X110416819Y-100132380D02*
X110416819Y-100227618D01*
X109750152Y-100560952D02*
X110416819Y-100560952D01*
X110750152Y-100560952D02*
X110702533Y-100513333D01*
X110702533Y-100513333D02*
X110654914Y-100560952D01*
X110654914Y-100560952D02*
X110702533Y-100608571D01*
X110702533Y-100608571D02*
X110750152Y-100560952D01*
X110750152Y-100560952D02*
X110654914Y-100560952D01*
X110416819Y-100941904D02*
X109750152Y-101179999D01*
X109750152Y-101179999D02*
X110416819Y-101418094D01*
X109797772Y-102179999D02*
X109750152Y-102084761D01*
X109750152Y-102084761D02*
X109750152Y-101894285D01*
X109750152Y-101894285D02*
X109797772Y-101799047D01*
X109797772Y-101799047D02*
X109893010Y-101751428D01*
X109893010Y-101751428D02*
X110273962Y-101751428D01*
X110273962Y-101751428D02*
X110369200Y-101799047D01*
X110369200Y-101799047D02*
X110416819Y-101894285D01*
X110416819Y-101894285D02*
X110416819Y-102084761D01*
X110416819Y-102084761D02*
X110369200Y-102179999D01*
X110369200Y-102179999D02*
X110273962Y-102227618D01*
X110273962Y-102227618D02*
X110178724Y-102227618D01*
X110178724Y-102227618D02*
X110083486Y-101751428D01*
X109750152Y-102656190D02*
X110416819Y-102656190D01*
X110226343Y-102656190D02*
X110321581Y-102703809D01*
X110321581Y-102703809D02*
X110369200Y-102751428D01*
X110369200Y-102751428D02*
X110416819Y-102846666D01*
X110416819Y-102846666D02*
X110416819Y-102941904D01*
X110273962Y-104370476D02*
X110226343Y-104513333D01*
X110226343Y-104513333D02*
X110178724Y-104560952D01*
X110178724Y-104560952D02*
X110083486Y-104608571D01*
X110083486Y-104608571D02*
X109940629Y-104608571D01*
X109940629Y-104608571D02*
X109845391Y-104560952D01*
X109845391Y-104560952D02*
X109797772Y-104513333D01*
X109797772Y-104513333D02*
X109750152Y-104418095D01*
X109750152Y-104418095D02*
X109750152Y-104037143D01*
X109750152Y-104037143D02*
X110750152Y-104037143D01*
X110750152Y-104037143D02*
X110750152Y-104370476D01*
X110750152Y-104370476D02*
X110702533Y-104465714D01*
X110702533Y-104465714D02*
X110654914Y-104513333D01*
X110654914Y-104513333D02*
X110559676Y-104560952D01*
X110559676Y-104560952D02*
X110464438Y-104560952D01*
X110464438Y-104560952D02*
X110369200Y-104513333D01*
X110369200Y-104513333D02*
X110321581Y-104465714D01*
X110321581Y-104465714D02*
X110273962Y-104370476D01*
X110273962Y-104370476D02*
X110273962Y-104037143D01*
X109750152Y-105180000D02*
X109797772Y-105084762D01*
X109797772Y-105084762D02*
X109845391Y-105037143D01*
X109845391Y-105037143D02*
X109940629Y-104989524D01*
X109940629Y-104989524D02*
X110226343Y-104989524D01*
X110226343Y-104989524D02*
X110321581Y-105037143D01*
X110321581Y-105037143D02*
X110369200Y-105084762D01*
X110369200Y-105084762D02*
X110416819Y-105180000D01*
X110416819Y-105180000D02*
X110416819Y-105322857D01*
X110416819Y-105322857D02*
X110369200Y-105418095D01*
X110369200Y-105418095D02*
X110321581Y-105465714D01*
X110321581Y-105465714D02*
X110226343Y-105513333D01*
X110226343Y-105513333D02*
X109940629Y-105513333D01*
X109940629Y-105513333D02*
X109845391Y-105465714D01*
X109845391Y-105465714D02*
X109797772Y-105418095D01*
X109797772Y-105418095D02*
X109750152Y-105322857D01*
X109750152Y-105322857D02*
X109750152Y-105180000D01*
X109750152Y-106370476D02*
X110273962Y-106370476D01*
X110273962Y-106370476D02*
X110369200Y-106322857D01*
X110369200Y-106322857D02*
X110416819Y-106227619D01*
X110416819Y-106227619D02*
X110416819Y-106037143D01*
X110416819Y-106037143D02*
X110369200Y-105941905D01*
X109797772Y-106370476D02*
X109750152Y-106275238D01*
X109750152Y-106275238D02*
X109750152Y-106037143D01*
X109750152Y-106037143D02*
X109797772Y-105941905D01*
X109797772Y-105941905D02*
X109893010Y-105894286D01*
X109893010Y-105894286D02*
X109988248Y-105894286D01*
X109988248Y-105894286D02*
X110083486Y-105941905D01*
X110083486Y-105941905D02*
X110131105Y-106037143D01*
X110131105Y-106037143D02*
X110131105Y-106275238D01*
X110131105Y-106275238D02*
X110178724Y-106370476D01*
X109750152Y-106846667D02*
X110416819Y-106846667D01*
X110226343Y-106846667D02*
X110321581Y-106894286D01*
X110321581Y-106894286D02*
X110369200Y-106941905D01*
X110369200Y-106941905D02*
X110416819Y-107037143D01*
X110416819Y-107037143D02*
X110416819Y-107132381D01*
X109750152Y-107894286D02*
X110750152Y-107894286D01*
X109797772Y-107894286D02*
X109750152Y-107799048D01*
X109750152Y-107799048D02*
X109750152Y-107608572D01*
X109750152Y-107608572D02*
X109797772Y-107513334D01*
X109797772Y-107513334D02*
X109845391Y-107465715D01*
X109845391Y-107465715D02*
X109940629Y-107418096D01*
X109940629Y-107418096D02*
X110226343Y-107418096D01*
X110226343Y-107418096D02*
X110321581Y-107465715D01*
X110321581Y-107465715D02*
X110369200Y-107513334D01*
X110369200Y-107513334D02*
X110416819Y-107608572D01*
X110416819Y-107608572D02*
X110416819Y-107799048D01*
X110416819Y-107799048D02*
X110369200Y-107894286D01*
X108806875Y-100251429D02*
X108140208Y-100489524D01*
X108140208Y-100489524D02*
X108806875Y-100727619D01*
X108140208Y-101632381D02*
X108140208Y-101060953D01*
X108140208Y-101346667D02*
X109140208Y-101346667D01*
X109140208Y-101346667D02*
X108997351Y-101251429D01*
X108997351Y-101251429D02*
X108902113Y-101156191D01*
X108902113Y-101156191D02*
X108854494Y-101060953D01*
X108235447Y-102060953D02*
X108187828Y-102108572D01*
X108187828Y-102108572D02*
X108140208Y-102060953D01*
X108140208Y-102060953D02*
X108187828Y-102013334D01*
X108187828Y-102013334D02*
X108235447Y-102060953D01*
X108235447Y-102060953D02*
X108140208Y-102060953D01*
X108140208Y-103060952D02*
X108140208Y-102489524D01*
X108140208Y-102775238D02*
X109140208Y-102775238D01*
X109140208Y-102775238D02*
X108997351Y-102680000D01*
X108997351Y-102680000D02*
X108902113Y-102584762D01*
X108902113Y-102584762D02*
X108854494Y-102489524D01*
D10*
X114452568Y-62604619D02*
X114452568Y-61604619D01*
X114452568Y-61604619D02*
X114833520Y-61604619D01*
X114833520Y-61604619D02*
X114928758Y-61652238D01*
X114928758Y-61652238D02*
X114976377Y-61699857D01*
X114976377Y-61699857D02*
X115023996Y-61795095D01*
X115023996Y-61795095D02*
X115023996Y-61937952D01*
X115023996Y-61937952D02*
X114976377Y-62033190D01*
X114976377Y-62033190D02*
X114928758Y-62080809D01*
X114928758Y-62080809D02*
X114833520Y-62128428D01*
X114833520Y-62128428D02*
X114452568Y-62128428D01*
X115357330Y-61604619D02*
X115595425Y-62604619D01*
X115595425Y-62604619D02*
X115785901Y-61890333D01*
X115785901Y-61890333D02*
X115976377Y-62604619D01*
X115976377Y-62604619D02*
X116214473Y-61604619D01*
X116595425Y-62604619D02*
X116595425Y-61604619D01*
X116595425Y-61604619D02*
X116928758Y-62318904D01*
X116928758Y-62318904D02*
X117262091Y-61604619D01*
X117262091Y-61604619D02*
X117262091Y-62604619D01*
X119023996Y-62604619D02*
X118452568Y-62604619D01*
X118738282Y-62604619D02*
X118738282Y-61604619D01*
X118738282Y-61604619D02*
X118643044Y-61747476D01*
X118643044Y-61747476D02*
X118547806Y-61842714D01*
X118547806Y-61842714D02*
X118452568Y-61890333D01*
X119357330Y-61604619D02*
X120023996Y-61604619D01*
X120023996Y-61604619D02*
X119595425Y-62604619D01*
X120404949Y-62223666D02*
X121166854Y-62223666D01*
X121595425Y-61699857D02*
X121643044Y-61652238D01*
X121643044Y-61652238D02*
X121738282Y-61604619D01*
X121738282Y-61604619D02*
X121976377Y-61604619D01*
X121976377Y-61604619D02*
X122071615Y-61652238D01*
X122071615Y-61652238D02*
X122119234Y-61699857D01*
X122119234Y-61699857D02*
X122166853Y-61795095D01*
X122166853Y-61795095D02*
X122166853Y-61890333D01*
X122166853Y-61890333D02*
X122119234Y-62033190D01*
X122119234Y-62033190D02*
X121547806Y-62604619D01*
X121547806Y-62604619D02*
X122166853Y-62604619D01*
X123023996Y-61937952D02*
X123023996Y-62604619D01*
X122785901Y-61557000D02*
X122547806Y-62271285D01*
X122547806Y-62271285D02*
X123166853Y-62271285D01*
X98002568Y-71634619D02*
X98002568Y-70634619D01*
X98002568Y-70634619D02*
X98240663Y-70634619D01*
X98240663Y-70634619D02*
X98383520Y-70682238D01*
X98383520Y-70682238D02*
X98478758Y-70777476D01*
X98478758Y-70777476D02*
X98526377Y-70872714D01*
X98526377Y-70872714D02*
X98573996Y-71063190D01*
X98573996Y-71063190D02*
X98573996Y-71206047D01*
X98573996Y-71206047D02*
X98526377Y-71396523D01*
X98526377Y-71396523D02*
X98478758Y-71491761D01*
X98478758Y-71491761D02*
X98383520Y-71587000D01*
X98383520Y-71587000D02*
X98240663Y-71634619D01*
X98240663Y-71634619D02*
X98002568Y-71634619D01*
X99002568Y-71634619D02*
X99002568Y-70967952D01*
X99002568Y-70634619D02*
X98954949Y-70682238D01*
X98954949Y-70682238D02*
X99002568Y-70729857D01*
X99002568Y-70729857D02*
X99050187Y-70682238D01*
X99050187Y-70682238D02*
X99002568Y-70634619D01*
X99002568Y-70634619D02*
X99002568Y-70729857D01*
X99478758Y-71634619D02*
X99478758Y-70967952D01*
X99478758Y-71063190D02*
X99526377Y-71015571D01*
X99526377Y-71015571D02*
X99621615Y-70967952D01*
X99621615Y-70967952D02*
X99764472Y-70967952D01*
X99764472Y-70967952D02*
X99859710Y-71015571D01*
X99859710Y-71015571D02*
X99907329Y-71110809D01*
X99907329Y-71110809D02*
X99907329Y-71634619D01*
X99907329Y-71110809D02*
X99954948Y-71015571D01*
X99954948Y-71015571D02*
X100050186Y-70967952D01*
X100050186Y-70967952D02*
X100193043Y-70967952D01*
X100193043Y-70967952D02*
X100288282Y-71015571D01*
X100288282Y-71015571D02*
X100335901Y-71110809D01*
X100335901Y-71110809D02*
X100335901Y-71634619D01*
X101621615Y-71634619D02*
X101812091Y-71634619D01*
X101812091Y-71634619D02*
X101907329Y-71587000D01*
X101907329Y-71587000D02*
X101954948Y-71539380D01*
X101954948Y-71539380D02*
X102050186Y-71396523D01*
X102050186Y-71396523D02*
X102097805Y-71206047D01*
X102097805Y-71206047D02*
X102097805Y-70825095D01*
X102097805Y-70825095D02*
X102050186Y-70729857D01*
X102050186Y-70729857D02*
X102002567Y-70682238D01*
X102002567Y-70682238D02*
X101907329Y-70634619D01*
X101907329Y-70634619D02*
X101716853Y-70634619D01*
X101716853Y-70634619D02*
X101621615Y-70682238D01*
X101621615Y-70682238D02*
X101573996Y-70729857D01*
X101573996Y-70729857D02*
X101526377Y-70825095D01*
X101526377Y-70825095D02*
X101526377Y-71063190D01*
X101526377Y-71063190D02*
X101573996Y-71158428D01*
X101573996Y-71158428D02*
X101621615Y-71206047D01*
X101621615Y-71206047D02*
X101716853Y-71253666D01*
X101716853Y-71253666D02*
X101907329Y-71253666D01*
X101907329Y-71253666D02*
X102002567Y-71206047D01*
X102002567Y-71206047D02*
X102050186Y-71158428D01*
X102050186Y-71158428D02*
X102097805Y-71063190D01*
X102526377Y-71253666D02*
X103288282Y-71253666D01*
X104288281Y-71634619D02*
X103716853Y-71634619D01*
X104002567Y-71634619D02*
X104002567Y-70634619D01*
X104002567Y-70634619D02*
X103907329Y-70777476D01*
X103907329Y-70777476D02*
X103812091Y-70872714D01*
X103812091Y-70872714D02*
X103716853Y-70920333D01*
X105145424Y-70634619D02*
X104954948Y-70634619D01*
X104954948Y-70634619D02*
X104859710Y-70682238D01*
X104859710Y-70682238D02*
X104812091Y-70729857D01*
X104812091Y-70729857D02*
X104716853Y-70872714D01*
X104716853Y-70872714D02*
X104669234Y-71063190D01*
X104669234Y-71063190D02*
X104669234Y-71444142D01*
X104669234Y-71444142D02*
X104716853Y-71539380D01*
X104716853Y-71539380D02*
X104764472Y-71587000D01*
X104764472Y-71587000D02*
X104859710Y-71634619D01*
X104859710Y-71634619D02*
X105050186Y-71634619D01*
X105050186Y-71634619D02*
X105145424Y-71587000D01*
X105145424Y-71587000D02*
X105193043Y-71539380D01*
X105193043Y-71539380D02*
X105240662Y-71444142D01*
X105240662Y-71444142D02*
X105240662Y-71206047D01*
X105240662Y-71206047D02*
X105193043Y-71110809D01*
X105193043Y-71110809D02*
X105145424Y-71063190D01*
X105145424Y-71063190D02*
X105050186Y-71015571D01*
X105050186Y-71015571D02*
X104859710Y-71015571D01*
X104859710Y-71015571D02*
X104764472Y-71063190D01*
X104764472Y-71063190D02*
X104716853Y-71110809D01*
X104716853Y-71110809D02*
X104669234Y-71206047D01*
D11*
X107303796Y-82615828D02*
X106589510Y-82615828D01*
X106589510Y-82615828D02*
X106589510Y-81115828D01*
X107803796Y-81830114D02*
X108303796Y-81830114D01*
X108518082Y-82615828D02*
X107803796Y-82615828D01*
X107803796Y-82615828D02*
X107803796Y-81115828D01*
X107803796Y-81115828D02*
X108518082Y-81115828D01*
X109160939Y-82615828D02*
X109160939Y-81115828D01*
X109160939Y-81115828D02*
X109518082Y-81115828D01*
X109518082Y-81115828D02*
X109732368Y-81187257D01*
X109732368Y-81187257D02*
X109875225Y-81330114D01*
X109875225Y-81330114D02*
X109946654Y-81472971D01*
X109946654Y-81472971D02*
X110018082Y-81758685D01*
X110018082Y-81758685D02*
X110018082Y-81972971D01*
X110018082Y-81972971D02*
X109946654Y-82258685D01*
X109946654Y-82258685D02*
X109875225Y-82401542D01*
X109875225Y-82401542D02*
X109732368Y-82544400D01*
X109732368Y-82544400D02*
X109518082Y-82615828D01*
X109518082Y-82615828D02*
X109160939Y-82615828D01*
X110732368Y-82615828D02*
X111018082Y-82615828D01*
X111018082Y-82615828D02*
X111160939Y-82544400D01*
X111160939Y-82544400D02*
X111232368Y-82472971D01*
X111232368Y-82472971D02*
X111375225Y-82258685D01*
X111375225Y-82258685D02*
X111446654Y-81972971D01*
X111446654Y-81972971D02*
X111446654Y-81401542D01*
X111446654Y-81401542D02*
X111375225Y-81258685D01*
X111375225Y-81258685D02*
X111303797Y-81187257D01*
X111303797Y-81187257D02*
X111160939Y-81115828D01*
X111160939Y-81115828D02*
X110875225Y-81115828D01*
X110875225Y-81115828D02*
X110732368Y-81187257D01*
X110732368Y-81187257D02*
X110660939Y-81258685D01*
X110660939Y-81258685D02*
X110589511Y-81401542D01*
X110589511Y-81401542D02*
X110589511Y-81758685D01*
X110589511Y-81758685D02*
X110660939Y-81901542D01*
X110660939Y-81901542D02*
X110732368Y-81972971D01*
X110732368Y-81972971D02*
X110875225Y-82044400D01*
X110875225Y-82044400D02*
X111160939Y-82044400D01*
X111160939Y-82044400D02*
X111303797Y-81972971D01*
X111303797Y-81972971D02*
X111375225Y-81901542D01*
X111375225Y-81901542D02*
X111446654Y-81758685D01*
X72152857Y-129590198D02*
X72652857Y-129590198D01*
X72867143Y-130375912D02*
X72152857Y-130375912D01*
X72152857Y-130375912D02*
X72152857Y-128875912D01*
X72152857Y-128875912D02*
X72867143Y-128875912D01*
X73367143Y-128875912D02*
X74367143Y-130375912D01*
X74367143Y-128875912D02*
X73367143Y-130375912D01*
X74724286Y-128875912D02*
X75581429Y-128875912D01*
X75152857Y-130375912D02*
X75152857Y-128875912D01*
X71759999Y-132790828D02*
X71759999Y-131290828D01*
X71759999Y-131290828D02*
X72331428Y-131290828D01*
X72331428Y-131290828D02*
X72474285Y-131362257D01*
X72474285Y-131362257D02*
X72545714Y-131433685D01*
X72545714Y-131433685D02*
X72617142Y-131576542D01*
X72617142Y-131576542D02*
X72617142Y-131790828D01*
X72617142Y-131790828D02*
X72545714Y-131933685D01*
X72545714Y-131933685D02*
X72474285Y-132005114D01*
X72474285Y-132005114D02*
X72331428Y-132076542D01*
X72331428Y-132076542D02*
X71759999Y-132076542D01*
X73117142Y-131290828D02*
X73474285Y-132790828D01*
X73474285Y-132790828D02*
X73759999Y-131719400D01*
X73759999Y-131719400D02*
X74045714Y-132790828D01*
X74045714Y-132790828D02*
X74402857Y-131290828D01*
X75831428Y-132790828D02*
X75331428Y-132076542D01*
X74974285Y-132790828D02*
X74974285Y-131290828D01*
X74974285Y-131290828D02*
X75545714Y-131290828D01*
X75545714Y-131290828D02*
X75688571Y-131362257D01*
X75688571Y-131362257D02*
X75760000Y-131433685D01*
X75760000Y-131433685D02*
X75831428Y-131576542D01*
X75831428Y-131576542D02*
X75831428Y-131790828D01*
X75831428Y-131790828D02*
X75760000Y-131933685D01*
X75760000Y-131933685D02*
X75688571Y-132005114D01*
X75688571Y-132005114D02*
X75545714Y-132076542D01*
X75545714Y-132076542D02*
X74974285Y-132076542D01*
X98548796Y-137180828D02*
X97834510Y-137180828D01*
X97834510Y-137180828D02*
X97834510Y-135680828D01*
X99048796Y-136395114D02*
X99548796Y-136395114D01*
X99763082Y-137180828D02*
X99048796Y-137180828D01*
X99048796Y-137180828D02*
X99048796Y-135680828D01*
X99048796Y-135680828D02*
X99763082Y-135680828D01*
X100405939Y-137180828D02*
X100405939Y-135680828D01*
X100405939Y-135680828D02*
X100763082Y-135680828D01*
X100763082Y-135680828D02*
X100977368Y-135752257D01*
X100977368Y-135752257D02*
X101120225Y-135895114D01*
X101120225Y-135895114D02*
X101191654Y-136037971D01*
X101191654Y-136037971D02*
X101263082Y-136323685D01*
X101263082Y-136323685D02*
X101263082Y-136537971D01*
X101263082Y-136537971D02*
X101191654Y-136823685D01*
X101191654Y-136823685D02*
X101120225Y-136966542D01*
X101120225Y-136966542D02*
X100977368Y-137109400D01*
X100977368Y-137109400D02*
X100763082Y-137180828D01*
X100763082Y-137180828D02*
X100405939Y-137180828D01*
X102691654Y-137180828D02*
X101834511Y-137180828D01*
X102263082Y-137180828D02*
X102263082Y-135680828D01*
X102263082Y-135680828D02*
X102120225Y-135895114D01*
X102120225Y-135895114D02*
X101977368Y-136037971D01*
X101977368Y-136037971D02*
X101834511Y-136109400D01*
X103977368Y-135680828D02*
X103691653Y-135680828D01*
X103691653Y-135680828D02*
X103548796Y-135752257D01*
X103548796Y-135752257D02*
X103477368Y-135823685D01*
X103477368Y-135823685D02*
X103334510Y-136037971D01*
X103334510Y-136037971D02*
X103263082Y-136323685D01*
X103263082Y-136323685D02*
X103263082Y-136895114D01*
X103263082Y-136895114D02*
X103334510Y-137037971D01*
X103334510Y-137037971D02*
X103405939Y-137109400D01*
X103405939Y-137109400D02*
X103548796Y-137180828D01*
X103548796Y-137180828D02*
X103834510Y-137180828D01*
X103834510Y-137180828D02*
X103977368Y-137109400D01*
X103977368Y-137109400D02*
X104048796Y-137037971D01*
X104048796Y-137037971D02*
X104120225Y-136895114D01*
X104120225Y-136895114D02*
X104120225Y-136537971D01*
X104120225Y-136537971D02*
X104048796Y-136395114D01*
X104048796Y-136395114D02*
X103977368Y-136323685D01*
X103977368Y-136323685D02*
X103834510Y-136252257D01*
X103834510Y-136252257D02*
X103548796Y-136252257D01*
X103548796Y-136252257D02*
X103405939Y-136323685D01*
X103405939Y-136323685D02*
X103334510Y-136395114D01*
X103334510Y-136395114D02*
X103263082Y-136537971D01*
D10*
X97742568Y-62604619D02*
X97742568Y-61604619D01*
X97742568Y-61604619D02*
X98123520Y-61604619D01*
X98123520Y-61604619D02*
X98218758Y-61652238D01*
X98218758Y-61652238D02*
X98266377Y-61699857D01*
X98266377Y-61699857D02*
X98313996Y-61795095D01*
X98313996Y-61795095D02*
X98313996Y-61937952D01*
X98313996Y-61937952D02*
X98266377Y-62033190D01*
X98266377Y-62033190D02*
X98218758Y-62080809D01*
X98218758Y-62080809D02*
X98123520Y-62128428D01*
X98123520Y-62128428D02*
X97742568Y-62128428D01*
X98647330Y-61604619D02*
X98885425Y-62604619D01*
X98885425Y-62604619D02*
X99075901Y-61890333D01*
X99075901Y-61890333D02*
X99266377Y-62604619D01*
X99266377Y-62604619D02*
X99504473Y-61604619D01*
X99885425Y-62604619D02*
X99885425Y-61604619D01*
X99885425Y-61604619D02*
X100218758Y-62318904D01*
X100218758Y-62318904D02*
X100552091Y-61604619D01*
X100552091Y-61604619D02*
X100552091Y-62604619D01*
X101837806Y-62604619D02*
X102028282Y-62604619D01*
X102028282Y-62604619D02*
X102123520Y-62557000D01*
X102123520Y-62557000D02*
X102171139Y-62509380D01*
X102171139Y-62509380D02*
X102266377Y-62366523D01*
X102266377Y-62366523D02*
X102313996Y-62176047D01*
X102313996Y-62176047D02*
X102313996Y-61795095D01*
X102313996Y-61795095D02*
X102266377Y-61699857D01*
X102266377Y-61699857D02*
X102218758Y-61652238D01*
X102218758Y-61652238D02*
X102123520Y-61604619D01*
X102123520Y-61604619D02*
X101933044Y-61604619D01*
X101933044Y-61604619D02*
X101837806Y-61652238D01*
X101837806Y-61652238D02*
X101790187Y-61699857D01*
X101790187Y-61699857D02*
X101742568Y-61795095D01*
X101742568Y-61795095D02*
X101742568Y-62033190D01*
X101742568Y-62033190D02*
X101790187Y-62128428D01*
X101790187Y-62128428D02*
X101837806Y-62176047D01*
X101837806Y-62176047D02*
X101933044Y-62223666D01*
X101933044Y-62223666D02*
X102123520Y-62223666D01*
X102123520Y-62223666D02*
X102218758Y-62176047D01*
X102218758Y-62176047D02*
X102266377Y-62128428D01*
X102266377Y-62128428D02*
X102313996Y-62033190D01*
X102742568Y-62223666D02*
X103504473Y-62223666D01*
X104504472Y-62604619D02*
X103933044Y-62604619D01*
X104218758Y-62604619D02*
X104218758Y-61604619D01*
X104218758Y-61604619D02*
X104123520Y-61747476D01*
X104123520Y-61747476D02*
X104028282Y-61842714D01*
X104028282Y-61842714D02*
X103933044Y-61890333D01*
X105361615Y-61604619D02*
X105171139Y-61604619D01*
X105171139Y-61604619D02*
X105075901Y-61652238D01*
X105075901Y-61652238D02*
X105028282Y-61699857D01*
X105028282Y-61699857D02*
X104933044Y-61842714D01*
X104933044Y-61842714D02*
X104885425Y-62033190D01*
X104885425Y-62033190D02*
X104885425Y-62414142D01*
X104885425Y-62414142D02*
X104933044Y-62509380D01*
X104933044Y-62509380D02*
X104980663Y-62557000D01*
X104980663Y-62557000D02*
X105075901Y-62604619D01*
X105075901Y-62604619D02*
X105266377Y-62604619D01*
X105266377Y-62604619D02*
X105361615Y-62557000D01*
X105361615Y-62557000D02*
X105409234Y-62509380D01*
X105409234Y-62509380D02*
X105456853Y-62414142D01*
X105456853Y-62414142D02*
X105456853Y-62176047D01*
X105456853Y-62176047D02*
X105409234Y-62080809D01*
X105409234Y-62080809D02*
X105361615Y-62033190D01*
X105361615Y-62033190D02*
X105266377Y-61985571D01*
X105266377Y-61985571D02*
X105075901Y-61985571D01*
X105075901Y-61985571D02*
X104980663Y-62033190D01*
X104980663Y-62033190D02*
X104933044Y-62080809D01*
X104933044Y-62080809D02*
X104885425Y-62176047D01*
D11*
X124383796Y-81825828D02*
X123669510Y-81825828D01*
X123669510Y-81825828D02*
X123669510Y-80325828D01*
X124883796Y-81040114D02*
X125383796Y-81040114D01*
X125598082Y-81825828D02*
X124883796Y-81825828D01*
X124883796Y-81825828D02*
X124883796Y-80325828D01*
X124883796Y-80325828D02*
X125598082Y-80325828D01*
X126240939Y-81825828D02*
X126240939Y-80325828D01*
X126240939Y-80325828D02*
X126598082Y-80325828D01*
X126598082Y-80325828D02*
X126812368Y-80397257D01*
X126812368Y-80397257D02*
X126955225Y-80540114D01*
X126955225Y-80540114D02*
X127026654Y-80682971D01*
X127026654Y-80682971D02*
X127098082Y-80968685D01*
X127098082Y-80968685D02*
X127098082Y-81182971D01*
X127098082Y-81182971D02*
X127026654Y-81468685D01*
X127026654Y-81468685D02*
X126955225Y-81611542D01*
X126955225Y-81611542D02*
X126812368Y-81754400D01*
X126812368Y-81754400D02*
X126598082Y-81825828D01*
X126598082Y-81825828D02*
X126240939Y-81825828D01*
X128526654Y-81825828D02*
X127669511Y-81825828D01*
X128098082Y-81825828D02*
X128098082Y-80325828D01*
X128098082Y-80325828D02*
X127955225Y-80540114D01*
X127955225Y-80540114D02*
X127812368Y-80682971D01*
X127812368Y-80682971D02*
X127669511Y-80754400D01*
X129026653Y-80325828D02*
X130026653Y-80325828D01*
X130026653Y-80325828D02*
X129383796Y-81825828D01*
D10*
X133602568Y-71294619D02*
X133602568Y-70294619D01*
X133602568Y-70294619D02*
X133840663Y-70294619D01*
X133840663Y-70294619D02*
X133983520Y-70342238D01*
X133983520Y-70342238D02*
X134078758Y-70437476D01*
X134078758Y-70437476D02*
X134126377Y-70532714D01*
X134126377Y-70532714D02*
X134173996Y-70723190D01*
X134173996Y-70723190D02*
X134173996Y-70866047D01*
X134173996Y-70866047D02*
X134126377Y-71056523D01*
X134126377Y-71056523D02*
X134078758Y-71151761D01*
X134078758Y-71151761D02*
X133983520Y-71247000D01*
X133983520Y-71247000D02*
X133840663Y-71294619D01*
X133840663Y-71294619D02*
X133602568Y-71294619D01*
X134602568Y-71294619D02*
X134602568Y-70627952D01*
X134602568Y-70294619D02*
X134554949Y-70342238D01*
X134554949Y-70342238D02*
X134602568Y-70389857D01*
X134602568Y-70389857D02*
X134650187Y-70342238D01*
X134650187Y-70342238D02*
X134602568Y-70294619D01*
X134602568Y-70294619D02*
X134602568Y-70389857D01*
X135078758Y-71294619D02*
X135078758Y-70627952D01*
X135078758Y-70723190D02*
X135126377Y-70675571D01*
X135126377Y-70675571D02*
X135221615Y-70627952D01*
X135221615Y-70627952D02*
X135364472Y-70627952D01*
X135364472Y-70627952D02*
X135459710Y-70675571D01*
X135459710Y-70675571D02*
X135507329Y-70770809D01*
X135507329Y-70770809D02*
X135507329Y-71294619D01*
X135507329Y-70770809D02*
X135554948Y-70675571D01*
X135554948Y-70675571D02*
X135650186Y-70627952D01*
X135650186Y-70627952D02*
X135793043Y-70627952D01*
X135793043Y-70627952D02*
X135888282Y-70675571D01*
X135888282Y-70675571D02*
X135935901Y-70770809D01*
X135935901Y-70770809D02*
X135935901Y-71294619D01*
X137126377Y-70389857D02*
X137173996Y-70342238D01*
X137173996Y-70342238D02*
X137269234Y-70294619D01*
X137269234Y-70294619D02*
X137507329Y-70294619D01*
X137507329Y-70294619D02*
X137602567Y-70342238D01*
X137602567Y-70342238D02*
X137650186Y-70389857D01*
X137650186Y-70389857D02*
X137697805Y-70485095D01*
X137697805Y-70485095D02*
X137697805Y-70580333D01*
X137697805Y-70580333D02*
X137650186Y-70723190D01*
X137650186Y-70723190D02*
X137078758Y-71294619D01*
X137078758Y-71294619D02*
X137697805Y-71294619D01*
X138602567Y-70294619D02*
X138126377Y-70294619D01*
X138126377Y-70294619D02*
X138078758Y-70770809D01*
X138078758Y-70770809D02*
X138126377Y-70723190D01*
X138126377Y-70723190D02*
X138221615Y-70675571D01*
X138221615Y-70675571D02*
X138459710Y-70675571D01*
X138459710Y-70675571D02*
X138554948Y-70723190D01*
X138554948Y-70723190D02*
X138602567Y-70770809D01*
X138602567Y-70770809D02*
X138650186Y-70866047D01*
X138650186Y-70866047D02*
X138650186Y-71104142D01*
X138650186Y-71104142D02*
X138602567Y-71199380D01*
X138602567Y-71199380D02*
X138554948Y-71247000D01*
X138554948Y-71247000D02*
X138459710Y-71294619D01*
X138459710Y-71294619D02*
X138221615Y-71294619D01*
X138221615Y-71294619D02*
X138126377Y-71247000D01*
X138126377Y-71247000D02*
X138078758Y-71199380D01*
X139078758Y-70913666D02*
X139840663Y-70913666D01*
X140221615Y-70294619D02*
X140840662Y-70294619D01*
X140840662Y-70294619D02*
X140507329Y-70675571D01*
X140507329Y-70675571D02*
X140650186Y-70675571D01*
X140650186Y-70675571D02*
X140745424Y-70723190D01*
X140745424Y-70723190D02*
X140793043Y-70770809D01*
X140793043Y-70770809D02*
X140840662Y-70866047D01*
X140840662Y-70866047D02*
X140840662Y-71104142D01*
X140840662Y-71104142D02*
X140793043Y-71199380D01*
X140793043Y-71199380D02*
X140745424Y-71247000D01*
X140745424Y-71247000D02*
X140650186Y-71294619D01*
X140650186Y-71294619D02*
X140364472Y-71294619D01*
X140364472Y-71294619D02*
X140269234Y-71247000D01*
X140269234Y-71247000D02*
X140221615Y-71199380D01*
X141221615Y-70389857D02*
X141269234Y-70342238D01*
X141269234Y-70342238D02*
X141364472Y-70294619D01*
X141364472Y-70294619D02*
X141602567Y-70294619D01*
X141602567Y-70294619D02*
X141697805Y-70342238D01*
X141697805Y-70342238D02*
X141745424Y-70389857D01*
X141745424Y-70389857D02*
X141793043Y-70485095D01*
X141793043Y-70485095D02*
X141793043Y-70580333D01*
X141793043Y-70580333D02*
X141745424Y-70723190D01*
X141745424Y-70723190D02*
X141173996Y-71294619D01*
X141173996Y-71294619D02*
X141793043Y-71294619D01*
D11*
X72884510Y-87260828D02*
X72884510Y-85760828D01*
X73598796Y-87260828D02*
X73598796Y-85760828D01*
X73598796Y-85760828D02*
X74455939Y-87260828D01*
X74455939Y-87260828D02*
X74455939Y-85760828D01*
X88853796Y-81965828D02*
X88139510Y-81965828D01*
X88139510Y-81965828D02*
X88139510Y-80465828D01*
X89353796Y-81180114D02*
X89853796Y-81180114D01*
X90068082Y-81965828D02*
X89353796Y-81965828D01*
X89353796Y-81965828D02*
X89353796Y-80465828D01*
X89353796Y-80465828D02*
X90068082Y-80465828D01*
X90710939Y-81965828D02*
X90710939Y-80465828D01*
X90710939Y-80465828D02*
X91068082Y-80465828D01*
X91068082Y-80465828D02*
X91282368Y-80537257D01*
X91282368Y-80537257D02*
X91425225Y-80680114D01*
X91425225Y-80680114D02*
X91496654Y-80822971D01*
X91496654Y-80822971D02*
X91568082Y-81108685D01*
X91568082Y-81108685D02*
X91568082Y-81322971D01*
X91568082Y-81322971D02*
X91496654Y-81608685D01*
X91496654Y-81608685D02*
X91425225Y-81751542D01*
X91425225Y-81751542D02*
X91282368Y-81894400D01*
X91282368Y-81894400D02*
X91068082Y-81965828D01*
X91068082Y-81965828D02*
X90710939Y-81965828D01*
X92996654Y-81965828D02*
X92139511Y-81965828D01*
X92568082Y-81965828D02*
X92568082Y-80465828D01*
X92568082Y-80465828D02*
X92425225Y-80680114D01*
X92425225Y-80680114D02*
X92282368Y-80822971D01*
X92282368Y-80822971D02*
X92139511Y-80894400D01*
D13*
%TO.C,R1*%
X91532936Y-114266764D02*
X91987064Y-114266764D01*
X91532936Y-115736764D02*
X91987064Y-115736764D01*
%TO.C,J27*%
X132960000Y-92055000D02*
X132960000Y-93305000D01*
X133250000Y-92345000D02*
X133250000Y-98315000D01*
X133250000Y-98315000D02*
X140870000Y-98315000D01*
X133260000Y-92355000D02*
X133260000Y-93105000D01*
X133260000Y-93105000D02*
X135060000Y-93105000D01*
X133260000Y-94605000D02*
X134010000Y-94605000D01*
X134010000Y-94605000D02*
X134010000Y-97555000D01*
X134010000Y-97555000D02*
X137060000Y-97555000D01*
X134210000Y-92055000D02*
X132960000Y-92055000D01*
X135060000Y-92355000D02*
X133260000Y-92355000D01*
X135060000Y-93105000D02*
X135060000Y-92355000D01*
X136560000Y-92355000D02*
X136560000Y-93105000D01*
X136560000Y-93105000D02*
X137560000Y-93105000D01*
X137560000Y-92355000D02*
X136560000Y-92355000D01*
X137560000Y-93105000D02*
X137560000Y-92355000D01*
X139060000Y-92355000D02*
X139060000Y-93105000D01*
X139060000Y-93105000D02*
X140860000Y-93105000D01*
X140110000Y-94605000D02*
X140110000Y-97555000D01*
X140110000Y-97555000D02*
X137060000Y-97555000D01*
X140860000Y-92355000D02*
X139060000Y-92355000D01*
X140860000Y-93105000D02*
X140860000Y-92355000D01*
X140860000Y-94605000D02*
X140110000Y-94605000D01*
X140870000Y-92345000D02*
X133250000Y-92345000D01*
X140870000Y-98315000D02*
X140870000Y-92345000D01*
%TO.C,J36*%
X132990000Y-63120000D02*
X132990000Y-64370000D01*
X133280000Y-63410000D02*
X133280000Y-69380000D01*
X133280000Y-69380000D02*
X140900000Y-69380000D01*
X133290000Y-63420000D02*
X133290000Y-64170000D01*
X133290000Y-64170000D02*
X135090000Y-64170000D01*
X133290000Y-65670000D02*
X134040000Y-65670000D01*
X134040000Y-65670000D02*
X134040000Y-68620000D01*
X134040000Y-68620000D02*
X137090000Y-68620000D01*
X134240000Y-63120000D02*
X132990000Y-63120000D01*
X135090000Y-63420000D02*
X133290000Y-63420000D01*
X135090000Y-64170000D02*
X135090000Y-63420000D01*
X136590000Y-63420000D02*
X136590000Y-64170000D01*
X136590000Y-64170000D02*
X137590000Y-64170000D01*
X137590000Y-63420000D02*
X136590000Y-63420000D01*
X137590000Y-64170000D02*
X137590000Y-63420000D01*
X139090000Y-63420000D02*
X139090000Y-64170000D01*
X139090000Y-64170000D02*
X140890000Y-64170000D01*
X140140000Y-65670000D02*
X140140000Y-68620000D01*
X140140000Y-68620000D02*
X137090000Y-68620000D01*
X140890000Y-63420000D02*
X139090000Y-63420000D01*
X140890000Y-64170000D02*
X140890000Y-63420000D01*
X140890000Y-65670000D02*
X140140000Y-65670000D01*
X140900000Y-63410000D02*
X133280000Y-63410000D01*
X140900000Y-69380000D02*
X140900000Y-63410000D01*
%TO.C,J32*%
X132885000Y-128355000D02*
X132885000Y-129605000D01*
X133175000Y-128645000D02*
X133175000Y-134615000D01*
X133175000Y-134615000D02*
X140795000Y-134615000D01*
X133185000Y-128655000D02*
X133185000Y-129405000D01*
X133185000Y-129405000D02*
X134985000Y-129405000D01*
X133185000Y-130905000D02*
X133935000Y-130905000D01*
X133935000Y-130905000D02*
X133935000Y-133855000D01*
X133935000Y-133855000D02*
X136985000Y-133855000D01*
X134135000Y-128355000D02*
X132885000Y-128355000D01*
X134985000Y-128655000D02*
X133185000Y-128655000D01*
X134985000Y-129405000D02*
X134985000Y-128655000D01*
X136485000Y-128655000D02*
X136485000Y-129405000D01*
X136485000Y-129405000D02*
X137485000Y-129405000D01*
X137485000Y-128655000D02*
X136485000Y-128655000D01*
X137485000Y-129405000D02*
X137485000Y-128655000D01*
X138985000Y-128655000D02*
X138985000Y-129405000D01*
X138985000Y-129405000D02*
X140785000Y-129405000D01*
X140035000Y-130905000D02*
X140035000Y-133855000D01*
X140035000Y-133855000D02*
X136985000Y-133855000D01*
X140785000Y-128655000D02*
X138985000Y-128655000D01*
X140785000Y-129405000D02*
X140785000Y-128655000D01*
X140785000Y-130905000D02*
X140035000Y-130905000D01*
X140795000Y-128645000D02*
X133175000Y-128645000D01*
X140795000Y-134615000D02*
X140795000Y-128645000D01*
%TO.C,J15*%
X97280000Y-121125000D02*
X97280000Y-122375000D01*
X97570000Y-121415000D02*
X97570000Y-127385000D01*
X97570000Y-127385000D02*
X105190000Y-127385000D01*
X97580000Y-121425000D02*
X97580000Y-122175000D01*
X97580000Y-122175000D02*
X99380000Y-122175000D01*
X97580000Y-123675000D02*
X98330000Y-123675000D01*
X98330000Y-123675000D02*
X98330000Y-126625000D01*
X98330000Y-126625000D02*
X101380000Y-126625000D01*
X98530000Y-121125000D02*
X97280000Y-121125000D01*
X99380000Y-121425000D02*
X97580000Y-121425000D01*
X99380000Y-122175000D02*
X99380000Y-121425000D01*
X100880000Y-121425000D02*
X100880000Y-122175000D01*
X100880000Y-122175000D02*
X101880000Y-122175000D01*
X101880000Y-121425000D02*
X100880000Y-121425000D01*
X101880000Y-122175000D02*
X101880000Y-121425000D01*
X103380000Y-121425000D02*
X103380000Y-122175000D01*
X103380000Y-122175000D02*
X105180000Y-122175000D01*
X104430000Y-123675000D02*
X104430000Y-126625000D01*
X104430000Y-126625000D02*
X101380000Y-126625000D01*
X105180000Y-121425000D02*
X103380000Y-121425000D01*
X105180000Y-122175000D02*
X105180000Y-121425000D01*
X105180000Y-123675000D02*
X104430000Y-123675000D01*
X105190000Y-121415000D02*
X97570000Y-121415000D01*
X105190000Y-127385000D02*
X105190000Y-121415000D01*
%TO.C,C1*%
X88450000Y-131501252D02*
X88450000Y-130978748D01*
X89920000Y-131501252D02*
X89920000Y-130978748D01*
%TO.C,J3*%
X79050000Y-92200000D02*
X79050000Y-93450000D01*
X79340000Y-92490000D02*
X79340000Y-98460000D01*
X79340000Y-98460000D02*
X86960000Y-98460000D01*
X79350000Y-92500000D02*
X79350000Y-93250000D01*
X79350000Y-93250000D02*
X81150000Y-93250000D01*
X79350000Y-94750000D02*
X80100000Y-94750000D01*
X80100000Y-94750000D02*
X80100000Y-97700000D01*
X80100000Y-97700000D02*
X83150000Y-97700000D01*
X80300000Y-92200000D02*
X79050000Y-92200000D01*
X81150000Y-92500000D02*
X79350000Y-92500000D01*
X81150000Y-93250000D02*
X81150000Y-92500000D01*
X82650000Y-92500000D02*
X82650000Y-93250000D01*
X82650000Y-93250000D02*
X83650000Y-93250000D01*
X83650000Y-92500000D02*
X82650000Y-92500000D01*
X83650000Y-93250000D02*
X83650000Y-92500000D01*
X85150000Y-92500000D02*
X85150000Y-93250000D01*
X85150000Y-93250000D02*
X86950000Y-93250000D01*
X86200000Y-94750000D02*
X86200000Y-97700000D01*
X86200000Y-97700000D02*
X83150000Y-97700000D01*
X86950000Y-92500000D02*
X85150000Y-92500000D01*
X86950000Y-93250000D02*
X86950000Y-92500000D01*
X86950000Y-94750000D02*
X86200000Y-94750000D01*
X86960000Y-92490000D02*
X79340000Y-92490000D01*
X86960000Y-98460000D02*
X86960000Y-92490000D01*
%TO.C,J25*%
X133010000Y-77730000D02*
X133010000Y-78980000D01*
X133300000Y-78020000D02*
X133300000Y-83990000D01*
X133300000Y-83990000D02*
X140920000Y-83990000D01*
X133310000Y-78030000D02*
X133310000Y-78780000D01*
X133310000Y-78780000D02*
X135110000Y-78780000D01*
X133310000Y-80280000D02*
X134060000Y-80280000D01*
X134060000Y-80280000D02*
X134060000Y-83230000D01*
X134060000Y-83230000D02*
X137110000Y-83230000D01*
X134260000Y-77730000D02*
X133010000Y-77730000D01*
X135110000Y-78030000D02*
X133310000Y-78030000D01*
X135110000Y-78780000D02*
X135110000Y-78030000D01*
X136610000Y-78030000D02*
X136610000Y-78780000D01*
X136610000Y-78780000D02*
X137610000Y-78780000D01*
X137610000Y-78030000D02*
X136610000Y-78030000D01*
X137610000Y-78780000D02*
X137610000Y-78030000D01*
X139110000Y-78030000D02*
X139110000Y-78780000D01*
X139110000Y-78780000D02*
X140910000Y-78780000D01*
X140160000Y-80280000D02*
X140160000Y-83230000D01*
X140160000Y-83230000D02*
X137110000Y-83230000D01*
X140910000Y-78030000D02*
X139110000Y-78030000D01*
X140910000Y-78780000D02*
X140910000Y-78030000D01*
X140910000Y-80280000D02*
X140160000Y-80280000D01*
X140920000Y-78020000D02*
X133300000Y-78020000D01*
X140920000Y-83990000D02*
X140920000Y-78020000D01*
%TO.C,RV1*%
X80590000Y-72031764D02*
X80590000Y-73311764D01*
X80590000Y-72031764D02*
X85430000Y-72031764D01*
X80590000Y-72411764D02*
X80590000Y-72411764D01*
X80590000Y-72411764D02*
X80590000Y-73311764D01*
X80590000Y-72411764D02*
X80590000Y-73311764D01*
X80590000Y-75791764D02*
X80590000Y-77071764D01*
X80590000Y-77071764D02*
X85430000Y-77071764D01*
X85430000Y-72031764D02*
X85430000Y-72511764D01*
X85430000Y-74291764D02*
X85430000Y-74811764D01*
X85430000Y-76591764D02*
X85430000Y-77071764D01*
%TO.C,R7*%
X123625000Y-74667064D02*
X123625000Y-74212936D01*
X125095000Y-74667064D02*
X125095000Y-74212936D01*
%TO.C,J7*%
X79050000Y-121150000D02*
X79050000Y-122400000D01*
X79340000Y-121440000D02*
X79340000Y-127410000D01*
X79340000Y-127410000D02*
X86960000Y-127410000D01*
X79350000Y-121450000D02*
X79350000Y-122200000D01*
X79350000Y-122200000D02*
X81150000Y-122200000D01*
X79350000Y-123700000D02*
X80100000Y-123700000D01*
X80100000Y-123700000D02*
X80100000Y-126650000D01*
X80100000Y-126650000D02*
X83150000Y-126650000D01*
X80300000Y-121150000D02*
X79050000Y-121150000D01*
X81150000Y-121450000D02*
X79350000Y-121450000D01*
X81150000Y-122200000D02*
X81150000Y-121450000D01*
X82650000Y-121450000D02*
X82650000Y-122200000D01*
X82650000Y-122200000D02*
X83650000Y-122200000D01*
X83650000Y-121450000D02*
X82650000Y-121450000D01*
X83650000Y-122200000D02*
X83650000Y-121450000D01*
X85150000Y-121450000D02*
X85150000Y-122200000D01*
X85150000Y-122200000D02*
X86950000Y-122200000D01*
X86200000Y-123700000D02*
X86200000Y-126650000D01*
X86200000Y-126650000D02*
X83150000Y-126650000D01*
X86950000Y-121450000D02*
X85150000Y-121450000D01*
X86950000Y-122200000D02*
X86950000Y-121450000D01*
X86950000Y-123700000D02*
X86200000Y-123700000D01*
X86960000Y-121440000D02*
X79340000Y-121440000D01*
X86960000Y-127410000D02*
X86960000Y-121440000D01*
%TO.C,J5*%
X79050000Y-106700000D02*
X79050000Y-107950000D01*
X79340000Y-106990000D02*
X79340000Y-112960000D01*
X79340000Y-112960000D02*
X86960000Y-112960000D01*
X79350000Y-107000000D02*
X79350000Y-107750000D01*
X79350000Y-107750000D02*
X81150000Y-107750000D01*
X79350000Y-109250000D02*
X80100000Y-109250000D01*
X80100000Y-109250000D02*
X80100000Y-112200000D01*
X80100000Y-112200000D02*
X83150000Y-112200000D01*
X80300000Y-106700000D02*
X79050000Y-106700000D01*
X81150000Y-107000000D02*
X79350000Y-107000000D01*
X81150000Y-107750000D02*
X81150000Y-107000000D01*
X82650000Y-107000000D02*
X82650000Y-107750000D01*
X82650000Y-107750000D02*
X83650000Y-107750000D01*
X83650000Y-107000000D02*
X82650000Y-107000000D01*
X83650000Y-107750000D02*
X83650000Y-107000000D01*
X85150000Y-107000000D02*
X85150000Y-107750000D01*
X85150000Y-107750000D02*
X86950000Y-107750000D01*
X86200000Y-109250000D02*
X86200000Y-112200000D01*
X86200000Y-112200000D02*
X83150000Y-112200000D01*
X86950000Y-107000000D02*
X85150000Y-107000000D01*
X86950000Y-107750000D02*
X86950000Y-107000000D01*
X86950000Y-109250000D02*
X86200000Y-109250000D01*
X86960000Y-106990000D02*
X79340000Y-106990000D01*
X86960000Y-112960000D02*
X86960000Y-106990000D01*
%TO.C,J30*%
X132935000Y-113780000D02*
X132935000Y-115030000D01*
X133225000Y-114070000D02*
X133225000Y-120040000D01*
X133225000Y-120040000D02*
X140845000Y-120040000D01*
X133235000Y-114080000D02*
X133235000Y-114830000D01*
X133235000Y-114830000D02*
X135035000Y-114830000D01*
X133235000Y-116330000D02*
X133985000Y-116330000D01*
X133985000Y-116330000D02*
X133985000Y-119280000D01*
X133985000Y-119280000D02*
X137035000Y-119280000D01*
X134185000Y-113780000D02*
X132935000Y-113780000D01*
X135035000Y-114080000D02*
X133235000Y-114080000D01*
X135035000Y-114830000D02*
X135035000Y-114080000D01*
X136535000Y-114080000D02*
X136535000Y-114830000D01*
X136535000Y-114830000D02*
X137535000Y-114830000D01*
X137535000Y-114080000D02*
X136535000Y-114080000D01*
X137535000Y-114830000D02*
X137535000Y-114080000D01*
X139035000Y-114080000D02*
X139035000Y-114830000D01*
X139035000Y-114830000D02*
X140835000Y-114830000D01*
X140085000Y-116330000D02*
X140085000Y-119280000D01*
X140085000Y-119280000D02*
X137035000Y-119280000D01*
X140835000Y-114080000D02*
X139035000Y-114080000D01*
X140835000Y-114830000D02*
X140835000Y-114080000D01*
X140835000Y-116330000D02*
X140085000Y-116330000D01*
X140845000Y-114070000D02*
X133225000Y-114070000D01*
X140845000Y-120040000D02*
X140845000Y-114070000D01*
%TO.C,C2*%
X88450000Y-101226252D02*
X88450000Y-100703748D01*
X89920000Y-101226252D02*
X89920000Y-100703748D01*
%TO.C,U3*%
X127565000Y-118066764D02*
X125615000Y-118066764D01*
X127565000Y-118066764D02*
X129515000Y-118066764D01*
X127565000Y-128186764D02*
X125615000Y-128186764D01*
X127565000Y-128186764D02*
X129515000Y-128186764D01*
X130505000Y-128461764D02*
X130025000Y-128461764D01*
X130265000Y-128131764D01*
X130505000Y-128461764D01*
G36*
X130505000Y-128461764D02*
G01*
X130025000Y-128461764D01*
X130265000Y-128131764D01*
X130505000Y-128461764D01*
G37*
%TO.C,R6*%
X106950000Y-74472064D02*
X106950000Y-74017936D01*
X108420000Y-74472064D02*
X108420000Y-74017936D01*
%TO.C,J29*%
X132960000Y-106630000D02*
X132960000Y-107880000D01*
X133250000Y-106920000D02*
X133250000Y-112890000D01*
X133250000Y-112890000D02*
X140870000Y-112890000D01*
X133260000Y-106930000D02*
X133260000Y-107680000D01*
X133260000Y-107680000D02*
X135060000Y-107680000D01*
X133260000Y-109180000D02*
X134010000Y-109180000D01*
X134010000Y-109180000D02*
X134010000Y-112130000D01*
X134010000Y-112130000D02*
X137060000Y-112130000D01*
X134210000Y-106630000D02*
X132960000Y-106630000D01*
X135060000Y-106930000D02*
X133260000Y-106930000D01*
X135060000Y-107680000D02*
X135060000Y-106930000D01*
X136560000Y-106930000D02*
X136560000Y-107680000D01*
X136560000Y-107680000D02*
X137560000Y-107680000D01*
X137560000Y-106930000D02*
X136560000Y-106930000D01*
X137560000Y-107680000D02*
X137560000Y-106930000D01*
X139060000Y-106930000D02*
X139060000Y-107680000D01*
X139060000Y-107680000D02*
X140860000Y-107680000D01*
X140110000Y-109180000D02*
X140110000Y-112130000D01*
X140110000Y-112130000D02*
X137060000Y-112130000D01*
X140860000Y-106930000D02*
X139060000Y-106930000D01*
X140860000Y-107680000D02*
X140860000Y-106930000D01*
X140860000Y-109180000D02*
X140110000Y-109180000D01*
X140870000Y-106920000D02*
X133250000Y-106920000D01*
X140870000Y-112890000D02*
X140870000Y-106920000D01*
%TO.C,U4*%
X127565000Y-88401764D02*
X125615000Y-88401764D01*
X127565000Y-88401764D02*
X129515000Y-88401764D01*
X127565000Y-98521764D02*
X125615000Y-98521764D01*
X127565000Y-98521764D02*
X129515000Y-98521764D01*
X130505000Y-98796764D02*
X130025000Y-98796764D01*
X130265000Y-98466764D01*
X130505000Y-98796764D01*
G36*
X130505000Y-98796764D02*
G01*
X130025000Y-98796764D01*
X130265000Y-98466764D01*
X130505000Y-98796764D01*
G37*
%TO.C,C3*%
X124255000Y-130823016D02*
X124255000Y-130300512D01*
X125725000Y-130823016D02*
X125725000Y-130300512D01*
%TO.C,J31*%
X132910000Y-121055000D02*
X132910000Y-122305000D01*
X133200000Y-121345000D02*
X133200000Y-127315000D01*
X133200000Y-127315000D02*
X140820000Y-127315000D01*
X133210000Y-121355000D02*
X133210000Y-122105000D01*
X133210000Y-122105000D02*
X135010000Y-122105000D01*
X133210000Y-123605000D02*
X133960000Y-123605000D01*
X133960000Y-123605000D02*
X133960000Y-126555000D01*
X133960000Y-126555000D02*
X137010000Y-126555000D01*
X134160000Y-121055000D02*
X132910000Y-121055000D01*
X135010000Y-121355000D02*
X133210000Y-121355000D01*
X135010000Y-122105000D02*
X135010000Y-121355000D01*
X136510000Y-121355000D02*
X136510000Y-122105000D01*
X136510000Y-122105000D02*
X137510000Y-122105000D01*
X137510000Y-121355000D02*
X136510000Y-121355000D01*
X137510000Y-122105000D02*
X137510000Y-121355000D01*
X139010000Y-121355000D02*
X139010000Y-122105000D01*
X139010000Y-122105000D02*
X140810000Y-122105000D01*
X140060000Y-123605000D02*
X140060000Y-126555000D01*
X140060000Y-126555000D02*
X137010000Y-126555000D01*
X140810000Y-121355000D02*
X139010000Y-121355000D01*
X140810000Y-122105000D02*
X140810000Y-121355000D01*
X140810000Y-123605000D02*
X140060000Y-123605000D01*
X140820000Y-121345000D02*
X133200000Y-121345000D01*
X140820000Y-127315000D02*
X140820000Y-121345000D01*
%TO.C,J24*%
X114590000Y-128360000D02*
X114590000Y-129610000D01*
X114880000Y-128650000D02*
X114880000Y-134620000D01*
X114880000Y-134620000D02*
X122500000Y-134620000D01*
X114890000Y-128660000D02*
X114890000Y-129410000D01*
X114890000Y-129410000D02*
X116690000Y-129410000D01*
X114890000Y-130910000D02*
X115640000Y-130910000D01*
X115640000Y-130910000D02*
X115640000Y-133860000D01*
X115640000Y-133860000D02*
X118690000Y-133860000D01*
X115840000Y-128360000D02*
X114590000Y-128360000D01*
X116690000Y-128660000D02*
X114890000Y-128660000D01*
X116690000Y-129410000D02*
X116690000Y-128660000D01*
X118190000Y-128660000D02*
X118190000Y-129410000D01*
X118190000Y-129410000D02*
X119190000Y-129410000D01*
X119190000Y-128660000D02*
X118190000Y-128660000D01*
X119190000Y-129410000D02*
X119190000Y-128660000D01*
X120690000Y-128660000D02*
X120690000Y-129410000D01*
X120690000Y-129410000D02*
X122490000Y-129410000D01*
X121740000Y-130910000D02*
X121740000Y-133860000D01*
X121740000Y-133860000D02*
X118690000Y-133860000D01*
X122490000Y-128660000D02*
X120690000Y-128660000D01*
X122490000Y-129410000D02*
X122490000Y-128660000D01*
X122490000Y-130910000D02*
X121740000Y-130910000D01*
X122500000Y-128650000D02*
X114880000Y-128650000D01*
X122500000Y-134620000D02*
X122500000Y-128650000D01*
%TO.C,J35*%
X114620000Y-63090000D02*
X114620000Y-64340000D01*
X114910000Y-63380000D02*
X114910000Y-69350000D01*
X114910000Y-69350000D02*
X122530000Y-69350000D01*
X114920000Y-63390000D02*
X114920000Y-64140000D01*
X114920000Y-64140000D02*
X116720000Y-64140000D01*
X114920000Y-65640000D02*
X115670000Y-65640000D01*
X115670000Y-65640000D02*
X115670000Y-68590000D01*
X115670000Y-68590000D02*
X118720000Y-68590000D01*
X115870000Y-63090000D02*
X114620000Y-63090000D01*
X116720000Y-63390000D02*
X114920000Y-63390000D01*
X116720000Y-64140000D02*
X116720000Y-63390000D01*
X118220000Y-63390000D02*
X118220000Y-64140000D01*
X118220000Y-64140000D02*
X119220000Y-64140000D01*
X119220000Y-63390000D02*
X118220000Y-63390000D01*
X119220000Y-64140000D02*
X119220000Y-63390000D01*
X120720000Y-63390000D02*
X120720000Y-64140000D01*
X120720000Y-64140000D02*
X122520000Y-64140000D01*
X121770000Y-65640000D02*
X121770000Y-68590000D01*
X121770000Y-68590000D02*
X118720000Y-68590000D01*
X122520000Y-63390000D02*
X120720000Y-63390000D01*
X122520000Y-64140000D02*
X122520000Y-63390000D01*
X122520000Y-65640000D02*
X121770000Y-65640000D01*
X122530000Y-63380000D02*
X114910000Y-63380000D01*
X122530000Y-69350000D02*
X122530000Y-63380000D01*
%TO.C,J12*%
X97305000Y-99300000D02*
X97305000Y-100550000D01*
X97595000Y-99590000D02*
X97595000Y-105560000D01*
X97595000Y-105560000D02*
X105215000Y-105560000D01*
X97605000Y-99600000D02*
X97605000Y-100350000D01*
X97605000Y-100350000D02*
X99405000Y-100350000D01*
X97605000Y-101850000D02*
X98355000Y-101850000D01*
X98355000Y-101850000D02*
X98355000Y-104800000D01*
X98355000Y-104800000D02*
X101405000Y-104800000D01*
X98555000Y-99300000D02*
X97305000Y-99300000D01*
X99405000Y-99600000D02*
X97605000Y-99600000D01*
X99405000Y-100350000D02*
X99405000Y-99600000D01*
X100905000Y-99600000D02*
X100905000Y-100350000D01*
X100905000Y-100350000D02*
X101905000Y-100350000D01*
X101905000Y-99600000D02*
X100905000Y-99600000D01*
X101905000Y-100350000D02*
X101905000Y-99600000D01*
X103405000Y-99600000D02*
X103405000Y-100350000D01*
X103405000Y-100350000D02*
X105205000Y-100350000D01*
X104455000Y-101850000D02*
X104455000Y-104800000D01*
X104455000Y-104800000D02*
X101405000Y-104800000D01*
X105205000Y-99600000D02*
X103405000Y-99600000D01*
X105205000Y-100350000D02*
X105205000Y-99600000D01*
X105205000Y-101850000D02*
X104455000Y-101850000D01*
X105215000Y-99590000D02*
X97595000Y-99590000D01*
X105215000Y-105560000D02*
X105215000Y-99590000D01*
%TO.C,J26*%
X132985000Y-84805000D02*
X132985000Y-86055000D01*
X133275000Y-85095000D02*
X133275000Y-91065000D01*
X133275000Y-91065000D02*
X140895000Y-91065000D01*
X133285000Y-85105000D02*
X133285000Y-85855000D01*
X133285000Y-85855000D02*
X135085000Y-85855000D01*
X133285000Y-87355000D02*
X134035000Y-87355000D01*
X134035000Y-87355000D02*
X134035000Y-90305000D01*
X134035000Y-90305000D02*
X137085000Y-90305000D01*
X134235000Y-84805000D02*
X132985000Y-84805000D01*
X135085000Y-85105000D02*
X133285000Y-85105000D01*
X135085000Y-85855000D02*
X135085000Y-85105000D01*
X136585000Y-85105000D02*
X136585000Y-85855000D01*
X136585000Y-85855000D02*
X137585000Y-85855000D01*
X137585000Y-85105000D02*
X136585000Y-85105000D01*
X137585000Y-85855000D02*
X137585000Y-85105000D01*
X139085000Y-85105000D02*
X139085000Y-85855000D01*
X139085000Y-85855000D02*
X140885000Y-85855000D01*
X140135000Y-87355000D02*
X140135000Y-90305000D01*
X140135000Y-90305000D02*
X137085000Y-90305000D01*
X140885000Y-85105000D02*
X139085000Y-85105000D01*
X140885000Y-85855000D02*
X140885000Y-85105000D01*
X140885000Y-87355000D02*
X140135000Y-87355000D01*
X140895000Y-85095000D02*
X133275000Y-85095000D01*
X140895000Y-91065000D02*
X140895000Y-85095000D01*
%TO.C,U2*%
X91835000Y-87956764D02*
X89885000Y-87956764D01*
X91835000Y-87956764D02*
X93785000Y-87956764D01*
X91835000Y-98076764D02*
X89885000Y-98076764D01*
X91835000Y-98076764D02*
X93785000Y-98076764D01*
X94775000Y-98351764D02*
X94295000Y-98351764D01*
X94535000Y-98021764D01*
X94775000Y-98351764D01*
G36*
X94775000Y-98351764D02*
G01*
X94295000Y-98351764D01*
X94535000Y-98021764D01*
X94775000Y-98351764D01*
G37*
%TO.C,J8*%
X79050000Y-128425000D02*
X79050000Y-129675000D01*
X79340000Y-128715000D02*
X79340000Y-134685000D01*
X79340000Y-134685000D02*
X86960000Y-134685000D01*
X79350000Y-128725000D02*
X79350000Y-129475000D01*
X79350000Y-129475000D02*
X81150000Y-129475000D01*
X79350000Y-130975000D02*
X80100000Y-130975000D01*
X80100000Y-130975000D02*
X80100000Y-133925000D01*
X80100000Y-133925000D02*
X83150000Y-133925000D01*
X80300000Y-128425000D02*
X79050000Y-128425000D01*
X81150000Y-128725000D02*
X79350000Y-128725000D01*
X81150000Y-129475000D02*
X81150000Y-128725000D01*
X82650000Y-128725000D02*
X82650000Y-129475000D01*
X82650000Y-129475000D02*
X83650000Y-129475000D01*
X83650000Y-128725000D02*
X82650000Y-128725000D01*
X83650000Y-129475000D02*
X83650000Y-128725000D01*
X85150000Y-128725000D02*
X85150000Y-129475000D01*
X85150000Y-129475000D02*
X86950000Y-129475000D01*
X86200000Y-130975000D02*
X86200000Y-133925000D01*
X86200000Y-133925000D02*
X83150000Y-133925000D01*
X86950000Y-128725000D02*
X85150000Y-128725000D01*
X86950000Y-129475000D02*
X86950000Y-128725000D01*
X86950000Y-130975000D02*
X86200000Y-130975000D01*
X86960000Y-128715000D02*
X79340000Y-128715000D01*
X86960000Y-134685000D02*
X86960000Y-128715000D01*
D14*
%TO.C,G2*%
G36*
X113244591Y-130807736D02*
G01*
X112562776Y-130807736D01*
X112658100Y-130424340D01*
X112753425Y-130040944D01*
X113244591Y-130040944D01*
X113244591Y-130807736D01*
G37*
G36*
X106798579Y-135580221D02*
G01*
X106779392Y-135656101D01*
X106703003Y-135661060D01*
X106626615Y-135666018D01*
X106637382Y-135598684D01*
X106647300Y-135546314D01*
X106661134Y-135518121D01*
X106687124Y-135506626D01*
X106733507Y-135504349D01*
X106741304Y-135504340D01*
X106817766Y-135504340D01*
X106798579Y-135580221D01*
G37*
G36*
X113230435Y-135505698D02*
G01*
X113252372Y-135511520D01*
X113255516Y-135524433D01*
X113252929Y-135532296D01*
X113242421Y-135567853D01*
X113233155Y-135612170D01*
X113225995Y-135643250D01*
X113212013Y-135658528D01*
X113181879Y-135663605D01*
X113146652Y-135664088D01*
X113093013Y-135660130D01*
X113069916Y-135648315D01*
X113068957Y-135644120D01*
X113073067Y-135616505D01*
X113083101Y-135573780D01*
X113085683Y-135564246D01*
X113097079Y-135528908D01*
X113112227Y-135511211D01*
X113141052Y-135505055D01*
X113183152Y-135504340D01*
X113230435Y-135505698D01*
G37*
G36*
X109705563Y-134722343D02*
G01*
X109741426Y-134725630D01*
X109757388Y-134732899D01*
X109759468Y-134745614D01*
X109758598Y-134749529D01*
X109753033Y-134771818D01*
X109740886Y-134820917D01*
X109723198Y-134892604D01*
X109701007Y-134982663D01*
X109675354Y-135086873D01*
X109647280Y-135201017D01*
X109642420Y-135220787D01*
X109533445Y-135664088D01*
X109408138Y-135664088D01*
X109349428Y-135662854D01*
X109305452Y-135659579D01*
X109283843Y-135654904D01*
X109282830Y-135653568D01*
X109286600Y-135633376D01*
X109297096Y-135587127D01*
X109313097Y-135519711D01*
X109333382Y-135436017D01*
X109356731Y-135340933D01*
X109381922Y-135239348D01*
X109407736Y-135136152D01*
X109432951Y-135036234D01*
X109456346Y-134944482D01*
X109476702Y-134865786D01*
X109492796Y-134805034D01*
X109503408Y-134767117D01*
X109506569Y-134757516D01*
X109517147Y-134739179D01*
X109534640Y-134728402D01*
X109566580Y-134723212D01*
X109620497Y-134721636D01*
X109643785Y-134721573D01*
X109705563Y-134722343D01*
G37*
G36*
X111222694Y-134722044D02*
G01*
X111258343Y-134724765D01*
X111274378Y-134731694D01*
X111276967Y-134744793D01*
X111274367Y-134757516D01*
X111268346Y-134782024D01*
X111255752Y-134833190D01*
X111237659Y-134906650D01*
X111215143Y-134998044D01*
X111189278Y-135103006D01*
X111161138Y-135217175D01*
X111158279Y-135228774D01*
X111050973Y-135664088D01*
X110925707Y-135664088D01*
X110867008Y-135662915D01*
X110823043Y-135659803D01*
X110801449Y-135655359D01*
X110800441Y-135654092D01*
X110804207Y-135633930D01*
X110814692Y-135587707D01*
X110830678Y-135520311D01*
X110850945Y-135436628D01*
X110874274Y-135341545D01*
X110899445Y-135239949D01*
X110925240Y-135136728D01*
X110950440Y-135036768D01*
X110973825Y-134944957D01*
X110994176Y-134866181D01*
X111010275Y-134805327D01*
X111020901Y-134767282D01*
X111024109Y-134757516D01*
X111034734Y-134739170D01*
X111052277Y-134728392D01*
X111084275Y-134723205D01*
X111138270Y-134721634D01*
X111161264Y-134721573D01*
X111222694Y-134722044D01*
G37*
G36*
X110293592Y-134725373D02*
G01*
X110353525Y-134727587D01*
X110390890Y-134730981D01*
X110401069Y-134734506D01*
X110398126Y-134756608D01*
X110390521Y-134799444D01*
X110382889Y-134838720D01*
X110364709Y-134929246D01*
X110216096Y-134929246D01*
X110150418Y-134930607D01*
X110097655Y-134934259D01*
X110065352Y-134939552D01*
X110059137Y-134942751D01*
X110051555Y-134965935D01*
X110042766Y-135007423D01*
X110040178Y-135022625D01*
X110029565Y-135088994D01*
X110299705Y-135088994D01*
X110252873Y-135280692D01*
X110111615Y-135280692D01*
X110044199Y-135281023D01*
X110002084Y-135283301D01*
X109978626Y-135289455D01*
X109967175Y-135301416D01*
X109961086Y-135321113D01*
X109960278Y-135324623D01*
X109951999Y-135359715D01*
X109938494Y-135415938D01*
X109922145Y-135483393D01*
X109915092Y-135512327D01*
X109879987Y-135656101D01*
X109751252Y-135660707D01*
X109622517Y-135665312D01*
X109652298Y-135540895D01*
X109665241Y-135487380D01*
X109684214Y-135409671D01*
X109707546Y-135314581D01*
X109733562Y-135208924D01*
X109760592Y-135099514D01*
X109767151Y-135073019D01*
X109852223Y-134729560D01*
X110126646Y-134725189D01*
X110216247Y-134724516D01*
X110293592Y-134725373D01*
G37*
G36*
X113998572Y-135188757D02*
G01*
X114068789Y-135202977D01*
X114112553Y-135232073D01*
X114133033Y-135280053D01*
X114133397Y-135350928D01*
X114132575Y-135358363D01*
X114114919Y-135445477D01*
X114084937Y-135529086D01*
X114047018Y-135598646D01*
X114018203Y-135633236D01*
X113976321Y-135659695D01*
X113916966Y-135672656D01*
X113895689Y-135674343D01*
X113843167Y-135675403D01*
X113801649Y-135672688D01*
X113787736Y-135669590D01*
X113740395Y-135639374D01*
X113714308Y-135593678D01*
X113709089Y-135532296D01*
X113867827Y-135532296D01*
X113873672Y-135563773D01*
X113888805Y-135569224D01*
X113908804Y-135551481D01*
X113929246Y-135513377D01*
X113938390Y-135487111D01*
X113954851Y-135427569D01*
X113968769Y-135370296D01*
X113973031Y-135349754D01*
X113977878Y-135312736D01*
X113971341Y-135298723D01*
X113954490Y-135299128D01*
X113935296Y-135316584D01*
X113913720Y-135356409D01*
X113893130Y-135409545D01*
X113876891Y-135466933D01*
X113868372Y-135519516D01*
X113867827Y-135532296D01*
X113709089Y-135532296D01*
X113708851Y-135529499D01*
X113723402Y-135443833D01*
X113733347Y-135407397D01*
X113767702Y-135312548D01*
X113808501Y-135246442D01*
X113859497Y-135205985D01*
X113924445Y-135188081D01*
X113998572Y-135188757D01*
G37*
G36*
X113227780Y-134722092D02*
G01*
X113283435Y-134725453D01*
X113318075Y-134733292D01*
X113335339Y-134747417D01*
X113338867Y-134769636D01*
X113332298Y-134801756D01*
X113319273Y-134845586D01*
X113315345Y-134858894D01*
X113290249Y-134945221D01*
X113120765Y-134945221D01*
X113046124Y-135244749D01*
X113021751Y-135342374D01*
X112998987Y-135433211D01*
X112979359Y-135511195D01*
X112964395Y-135570258D01*
X112955661Y-135604183D01*
X112939838Y-135664088D01*
X112811578Y-135664088D01*
X112747995Y-135663403D01*
X112710509Y-135660436D01*
X112693279Y-135653823D01*
X112690466Y-135642198D01*
X112691978Y-135636132D01*
X112699026Y-135610437D01*
X112711853Y-135560932D01*
X112729089Y-135493136D01*
X112749362Y-135412570D01*
X112771301Y-135324752D01*
X112793537Y-135235203D01*
X112814697Y-135149441D01*
X112833412Y-135072986D01*
X112848310Y-135011358D01*
X112858021Y-134970075D01*
X112861195Y-134954791D01*
X112846744Y-134949549D01*
X112809469Y-134946072D01*
X112773334Y-134945221D01*
X112725206Y-134943790D01*
X112693292Y-134940100D01*
X112685472Y-134936522D01*
X112689088Y-134917708D01*
X112698553Y-134876897D01*
X112711376Y-134824699D01*
X112737281Y-134721573D01*
X113038861Y-134721573D01*
X113147468Y-134721401D01*
X113227780Y-134722092D01*
G37*
G36*
X113645733Y-135188067D02*
G01*
X113690016Y-135200562D01*
X113713929Y-135226563D01*
X113723061Y-135270304D01*
X113723837Y-135297229D01*
X113723837Y-135376541D01*
X113646178Y-135376541D01*
X113599981Y-135375364D01*
X113578256Y-135369143D01*
X113573538Y-135353842D01*
X113575795Y-135338477D01*
X113574706Y-135301819D01*
X113556230Y-135288346D01*
X113532838Y-135296235D01*
X113518330Y-135317984D01*
X113501402Y-135361230D01*
X113484784Y-135415937D01*
X113471203Y-135472069D01*
X113463390Y-135519590D01*
X113464072Y-135548465D01*
X113464173Y-135548735D01*
X113480483Y-135564880D01*
X113503167Y-135553009D01*
X113528442Y-135515397D01*
X113532139Y-135507853D01*
X113551438Y-135475220D01*
X113576236Y-135460539D01*
X113619139Y-135456799D01*
X113623994Y-135456761D01*
X113667729Y-135459083D01*
X113687694Y-135468915D01*
X113691887Y-135486003D01*
X113680579Y-135525714D01*
X113652190Y-135573174D01*
X113615021Y-135616729D01*
X113579584Y-135643652D01*
X113525540Y-135659812D01*
X113460060Y-135664100D01*
X113396046Y-135657058D01*
X113346401Y-135639227D01*
X113338217Y-135633531D01*
X113310360Y-135591169D01*
X113301583Y-135527709D01*
X113311827Y-135447633D01*
X113341031Y-135355424D01*
X113341945Y-135353147D01*
X113383823Y-135272582D01*
X113435473Y-135220058D01*
X113501803Y-135192039D01*
X113575488Y-135184843D01*
X113645733Y-135188067D01*
G37*
G36*
X110642092Y-134722264D02*
G01*
X110679617Y-134725247D01*
X110696916Y-134731888D01*
X110699843Y-134743550D01*
X110698421Y-134749529D01*
X110689457Y-134782304D01*
X110675159Y-134837677D01*
X110656876Y-134910131D01*
X110635959Y-134994146D01*
X110613758Y-135084205D01*
X110591623Y-135174788D01*
X110570905Y-135260378D01*
X110552953Y-135335454D01*
X110539118Y-135394500D01*
X110530750Y-135431996D01*
X110528868Y-135442513D01*
X110544563Y-135451225D01*
X110591241Y-135455129D01*
X110668293Y-135454176D01*
X110672650Y-135454011D01*
X110735919Y-135452374D01*
X110784969Y-135452666D01*
X110812690Y-135454768D01*
X110816334Y-135456415D01*
X110812668Y-135475745D01*
X110803779Y-135512928D01*
X110801902Y-135520315D01*
X110788940Y-135572486D01*
X110777791Y-135619861D01*
X110777724Y-135620158D01*
X110767882Y-135664088D01*
X110496614Y-135664088D01*
X110389522Y-135663408D01*
X110311612Y-135661238D01*
X110260142Y-135657388D01*
X110232369Y-135651667D01*
X110225346Y-135645183D01*
X110228997Y-135626173D01*
X110239168Y-135580989D01*
X110254691Y-135514464D01*
X110274393Y-135431433D01*
X110297107Y-135336731D01*
X110321660Y-135235192D01*
X110346883Y-135131652D01*
X110371606Y-135030945D01*
X110394658Y-134937905D01*
X110414869Y-134857369D01*
X110431070Y-134794169D01*
X110434400Y-134781478D01*
X110450225Y-134721573D01*
X110578485Y-134721573D01*
X110642092Y-134722264D01*
G37*
G36*
X108478512Y-134721373D02*
G01*
X108542212Y-134737527D01*
X108588548Y-134768689D01*
X108624125Y-134817729D01*
X108624799Y-134818962D01*
X108637947Y-134867276D01*
X108640607Y-134938719D01*
X108634031Y-135026705D01*
X108619468Y-135124646D01*
X108598169Y-135225956D01*
X108571385Y-135324049D01*
X108540365Y-135412337D01*
X108506361Y-135484235D01*
X108494967Y-135502836D01*
X108423570Y-135584036D01*
X108335484Y-135641869D01*
X108236633Y-135674563D01*
X108132944Y-135680350D01*
X108030343Y-135657457D01*
X108008235Y-135648275D01*
X107960497Y-135620665D01*
X107926918Y-135585239D01*
X107907046Y-135538252D01*
X107900424Y-135475960D01*
X107900579Y-135473920D01*
X108153566Y-135473920D01*
X108154547Y-135480778D01*
X108176348Y-135501084D01*
X108210187Y-135500770D01*
X108244185Y-135480395D01*
X108247925Y-135476384D01*
X108272602Y-135434854D01*
X108298630Y-135364841D01*
X108326331Y-135265293D01*
X108356031Y-135135159D01*
X108362609Y-135103568D01*
X108378597Y-135022085D01*
X108387425Y-134966083D01*
X108389546Y-134930014D01*
X108385418Y-134908330D01*
X108379400Y-134899105D01*
X108349467Y-134884172D01*
X108317821Y-134899976D01*
X108286050Y-134945477D01*
X108275739Y-134966990D01*
X108259368Y-135011249D01*
X108240155Y-135074345D01*
X108219678Y-135149590D01*
X108199516Y-135230295D01*
X108181245Y-135309770D01*
X108166445Y-135381325D01*
X108156693Y-135438272D01*
X108153566Y-135473920D01*
X107900579Y-135473920D01*
X107906598Y-135394618D01*
X107925112Y-135290483D01*
X107951069Y-135177759D01*
X107990079Y-135038787D01*
X108032983Y-134928918D01*
X108082478Y-134845329D01*
X108141262Y-134785196D01*
X108212032Y-134745697D01*
X108297484Y-134724006D01*
X108390842Y-134717359D01*
X108478512Y-134721373D01*
G37*
G36*
X114747845Y-135188370D02*
G01*
X114787879Y-135207908D01*
X114808098Y-135245073D01*
X114809359Y-135261286D01*
X114805170Y-135294100D01*
X114794419Y-135349466D01*
X114778832Y-135419079D01*
X114763803Y-135480378D01*
X114719014Y-135656101D01*
X114634671Y-135661002D01*
X114586050Y-135662988D01*
X114562301Y-135659579D01*
X114556438Y-135647775D01*
X114560256Y-135629053D01*
X114591627Y-135509610D01*
X114613418Y-135419565D01*
X114625845Y-135357902D01*
X114629125Y-135323608D01*
X114627014Y-135315947D01*
X114609226Y-135315861D01*
X114587542Y-135340852D01*
X114565419Y-135384906D01*
X114546315Y-135442008D01*
X114540433Y-135466504D01*
X114522643Y-135547960D01*
X114508127Y-135603241D01*
X114493498Y-135637421D01*
X114475365Y-135655573D01*
X114450340Y-135662770D01*
X114415034Y-135664085D01*
X114408440Y-135664088D01*
X114361234Y-135662542D01*
X114339091Y-135656137D01*
X114335201Y-135642223D01*
X114336591Y-135636132D01*
X114354038Y-135570197D01*
X114370913Y-135499746D01*
X114385730Y-135431919D01*
X114397008Y-135373855D01*
X114403265Y-135332694D01*
X114403143Y-135315680D01*
X114385120Y-135315093D01*
X114363882Y-135344099D01*
X114340450Y-135400621D01*
X114315846Y-135482586D01*
X114310249Y-135504340D01*
X114272223Y-135656101D01*
X114188372Y-135660977D01*
X114139875Y-135662614D01*
X114116345Y-135658725D01*
X114110978Y-135647139D01*
X114113208Y-135637014D01*
X114120192Y-135611188D01*
X114133081Y-135561183D01*
X114150130Y-135493841D01*
X114169597Y-135416003D01*
X114172688Y-135403561D01*
X114223481Y-135198945D01*
X114321112Y-135200253D01*
X114385109Y-135199314D01*
X114445588Y-135195507D01*
X114476061Y-135191756D01*
X114525505Y-135189965D01*
X114558352Y-135206944D01*
X114559447Y-135208019D01*
X114580512Y-135224326D01*
X114602990Y-135223365D01*
X114633128Y-135209465D01*
X114694195Y-135188281D01*
X114747845Y-135188370D01*
G37*
G36*
X109155876Y-134726875D02*
G01*
X109224348Y-134737442D01*
X109275119Y-134755304D01*
X109312808Y-134781223D01*
X109317498Y-134785732D01*
X109347601Y-134823186D01*
X109360597Y-134864796D01*
X109362705Y-134905634D01*
X109351329Y-134987672D01*
X109320254Y-135061972D01*
X109274063Y-135120713D01*
X109217334Y-135156076D01*
X109215679Y-135156640D01*
X109214154Y-135170080D01*
X109232320Y-135196311D01*
X109240443Y-135204902D01*
X109273406Y-135259033D01*
X109284020Y-135327570D01*
X109273671Y-135403537D01*
X109243748Y-135479954D01*
X109195636Y-135549843D01*
X109165964Y-135579486D01*
X109125094Y-135610895D01*
X109080891Y-135633675D01*
X109027453Y-135649099D01*
X108958879Y-135658441D01*
X108869266Y-135662975D01*
X108774360Y-135663999D01*
X108561424Y-135664088D01*
X108571482Y-135620158D01*
X108577981Y-135593356D01*
X108591191Y-135540116D01*
X108609977Y-135464969D01*
X108611241Y-135459936D01*
X108871802Y-135459936D01*
X108879255Y-135470188D01*
X108896063Y-135472461D01*
X108912518Y-135472390D01*
X108962557Y-135459208D01*
X108994901Y-135429311D01*
X109021945Y-135372745D01*
X109024016Y-135329468D01*
X109017481Y-135290894D01*
X109000376Y-135273691D01*
X108968198Y-135267764D01*
X108934332Y-135267495D01*
X108915960Y-135280902D01*
X108903165Y-135316261D01*
X108901190Y-135323676D01*
X108883209Y-135392444D01*
X108873267Y-135435943D01*
X108871802Y-135459936D01*
X108611241Y-135459936D01*
X108633204Y-135372450D01*
X108659735Y-135267090D01*
X108688435Y-135153422D01*
X108688569Y-135152893D01*
X108708919Y-135072402D01*
X108966783Y-135072402D01*
X108975545Y-135086551D01*
X108999526Y-135088994D01*
X109040596Y-135077781D01*
X109063450Y-135061038D01*
X109086935Y-135023553D01*
X109099278Y-134990464D01*
X109101426Y-134954567D01*
X109081320Y-134932631D01*
X109077610Y-134930558D01*
X109042218Y-134916230D01*
X109016811Y-134920346D01*
X108997621Y-134946710D01*
X108980885Y-134999120D01*
X108972087Y-135037076D01*
X108966783Y-135072402D01*
X108708919Y-135072402D01*
X108795598Y-134729560D01*
X108947359Y-134724572D01*
X109065086Y-134722839D01*
X109155876Y-134726875D01*
G37*
G36*
X112179602Y-134721225D02*
G01*
X112233291Y-134723177D01*
X112281338Y-134726320D01*
X112314366Y-134730350D01*
X112323540Y-134733554D01*
X112322940Y-134753305D01*
X112315202Y-134796318D01*
X112301792Y-134855088D01*
X112293085Y-134889309D01*
X112272648Y-134967757D01*
X112260708Y-135020244D01*
X112257834Y-135051759D01*
X112264596Y-135067290D01*
X112281564Y-135071827D01*
X112309308Y-135070360D01*
X112313721Y-135069990D01*
X112344747Y-135066313D01*
X112364488Y-135057040D01*
X112378167Y-135035214D01*
X112391005Y-134993880D01*
X112401383Y-134953208D01*
X112418250Y-134887076D01*
X112434691Y-134824268D01*
X112446291Y-134781478D01*
X112463107Y-134721573D01*
X112582277Y-134721573D01*
X112643847Y-134722521D01*
X112679901Y-134726371D01*
X112696841Y-134734629D01*
X112701070Y-134748803D01*
X112701065Y-134749529D01*
X112697254Y-134771831D01*
X112686682Y-134820896D01*
X112670336Y-134892487D01*
X112649199Y-134982371D01*
X112624257Y-135086312D01*
X112596495Y-135200076D01*
X112592378Y-135216793D01*
X112484074Y-135656101D01*
X112354713Y-135660715D01*
X112225352Y-135665330D01*
X112271352Y-135484992D01*
X112289422Y-135413938D01*
X112304218Y-135355357D01*
X112314167Y-135315500D01*
X112317701Y-135300661D01*
X112303787Y-135298116D01*
X112268762Y-135296744D01*
X112256770Y-135296667D01*
X112222408Y-135297942D01*
X112201736Y-135306630D01*
X112187896Y-135330030D01*
X112174032Y-135375437D01*
X112170456Y-135388522D01*
X112151864Y-135460256D01*
X112133053Y-135538195D01*
X112125358Y-135572233D01*
X112105293Y-135664088D01*
X111980037Y-135664088D01*
X111911188Y-135662329D01*
X111870735Y-135656690D01*
X111855301Y-135646634D01*
X111854918Y-135644120D01*
X111858697Y-135624008D01*
X111869307Y-135577009D01*
X111885770Y-135507214D01*
X111907105Y-135418716D01*
X111932334Y-135315607D01*
X111960477Y-135201979D01*
X111966742Y-135176861D01*
X111995270Y-135062474D01*
X112021109Y-134958619D01*
X112043289Y-134869203D01*
X112060845Y-134798135D01*
X112072809Y-134749324D01*
X112078214Y-134726676D01*
X112078428Y-134725572D01*
X112092795Y-134722117D01*
X112129644Y-134720770D01*
X112179602Y-134721225D01*
G37*
G36*
X111761693Y-134723188D02*
G01*
X111808203Y-134729210D01*
X111840920Y-134741401D01*
X111860228Y-134754379D01*
X111899650Y-134804154D01*
X111921703Y-134872991D01*
X111923749Y-134951599D01*
X111921269Y-134969183D01*
X111910240Y-135033082D01*
X111663510Y-135042406D01*
X111673166Y-134971957D01*
X111676060Y-134919407D01*
X111664736Y-134892710D01*
X111636644Y-134887978D01*
X111620295Y-134891324D01*
X111596820Y-134904378D01*
X111574819Y-134932990D01*
X111552794Y-134980720D01*
X111529246Y-135051127D01*
X111502677Y-135147772D01*
X111488321Y-135204894D01*
X111464116Y-135306978D01*
X111448714Y-135382511D01*
X111441803Y-135435563D01*
X111443067Y-135470204D01*
X111452192Y-135490502D01*
X111465568Y-135499396D01*
X111505153Y-135499225D01*
X111542025Y-135468850D01*
X111574584Y-135409997D01*
X111590542Y-135364560D01*
X111593825Y-135338145D01*
X111575994Y-135329214D01*
X111560018Y-135328617D01*
X111539238Y-135328105D01*
X111528084Y-135322425D01*
X111526115Y-135305360D01*
X111532892Y-135270692D01*
X111547974Y-135212204D01*
X111550971Y-135200818D01*
X111557326Y-135182385D01*
X111568907Y-135170479D01*
X111592053Y-135163393D01*
X111633105Y-135159416D01*
X111698405Y-135156841D01*
X111716115Y-135156309D01*
X111795801Y-135155426D01*
X111845959Y-135158535D01*
X111868786Y-135165831D01*
X111870755Y-135169971D01*
X111867137Y-135191170D01*
X111857167Y-135237527D01*
X111842166Y-135303188D01*
X111823459Y-135382298D01*
X111812866Y-135426147D01*
X111754977Y-135664088D01*
X111669092Y-135664088D01*
X111616970Y-135661900D01*
X111590401Y-135654171D01*
X111583208Y-135639802D01*
X111578834Y-135626915D01*
X111561169Y-135628706D01*
X111523396Y-135646034D01*
X111519945Y-135647789D01*
X111463042Y-135667537D01*
X111394890Y-135678142D01*
X111327698Y-135678899D01*
X111273676Y-135669103D01*
X111259717Y-135662809D01*
X111223252Y-135625900D01*
X111196318Y-135568903D01*
X111184087Y-135503382D01*
X111183840Y-135493152D01*
X111188620Y-135428499D01*
X111201716Y-135343065D01*
X111221262Y-135246356D01*
X111245397Y-135147877D01*
X111264633Y-135081007D01*
X111308630Y-134959246D01*
X111358085Y-134866318D01*
X111416645Y-134799156D01*
X111487959Y-134754695D01*
X111575676Y-134729868D01*
X111683445Y-134721610D01*
X111692364Y-134721573D01*
X111761693Y-134723188D01*
G37*
G36*
X107347368Y-134722656D02*
G01*
X107403704Y-134725583D01*
X107440149Y-134729867D01*
X107450173Y-134733554D01*
X107451550Y-134753380D01*
X107450518Y-134798213D01*
X107447337Y-134861222D01*
X107442744Y-134929246D01*
X107435071Y-135037514D01*
X107431387Y-135114459D01*
X107432804Y-135160580D01*
X107440434Y-135176374D01*
X107455388Y-135162337D01*
X107478779Y-135118969D01*
X107511717Y-135046765D01*
X107543254Y-134974224D01*
X107648772Y-134729560D01*
X107818820Y-134725026D01*
X107899718Y-134723927D01*
X107952527Y-134725978D01*
X107980984Y-134731510D01*
X107988868Y-134740048D01*
X107985210Y-134759177D01*
X107975007Y-134804533D01*
X107959417Y-134871333D01*
X107939597Y-134954796D01*
X107916706Y-135050142D01*
X107891901Y-135152590D01*
X107866340Y-135257357D01*
X107841180Y-135359662D01*
X107817578Y-135454725D01*
X107796694Y-135537764D01*
X107779684Y-135603998D01*
X107779636Y-135604183D01*
X107763989Y-135664088D01*
X107652781Y-135664088D01*
X107592020Y-135662626D01*
X107557336Y-135657423D01*
X107542958Y-135647251D01*
X107541573Y-135640463D01*
X107545406Y-135617554D01*
X107555998Y-135569553D01*
X107571980Y-135502269D01*
X107591988Y-135421509D01*
X107605948Y-135366704D01*
X107627334Y-135282274D01*
X107645131Y-135209430D01*
X107658105Y-135153442D01*
X107665020Y-135119582D01*
X107665657Y-135111905D01*
X107658153Y-135124309D01*
X107640061Y-135161619D01*
X107613428Y-135219395D01*
X107580300Y-135293198D01*
X107542720Y-135378587D01*
X107541376Y-135381670D01*
X107421761Y-135656101D01*
X107319970Y-135660908D01*
X107218180Y-135665714D01*
X107227628Y-135565059D01*
X107234360Y-135486498D01*
X107240418Y-135403279D01*
X107245514Y-135321227D01*
X107249357Y-135246165D01*
X107251659Y-135183919D01*
X107252133Y-135140311D01*
X107250488Y-135121167D01*
X107249647Y-135120944D01*
X107243074Y-135138613D01*
X107230813Y-135181392D01*
X107214488Y-135243287D01*
X107195720Y-135318305D01*
X107191272Y-135336604D01*
X107171061Y-135419729D01*
X107152076Y-135496958D01*
X107136319Y-135560198D01*
X107125795Y-135601354D01*
X107125044Y-135604183D01*
X107109020Y-135664088D01*
X106997812Y-135664088D01*
X106934739Y-135661703D01*
X106896608Y-135654943D01*
X106886604Y-135646706D01*
X106890243Y-135628301D01*
X106900378Y-135583704D01*
X106915840Y-135517740D01*
X106935459Y-135435235D01*
X106958064Y-135341012D01*
X106982485Y-135239898D01*
X107007553Y-135136715D01*
X107032097Y-135036290D01*
X107054947Y-134943447D01*
X107074933Y-134863011D01*
X107090885Y-134799806D01*
X107101633Y-134758658D01*
X107104190Y-134749529D01*
X107111703Y-134736819D01*
X107129153Y-134728608D01*
X107162369Y-134723959D01*
X107217180Y-134721933D01*
X107278121Y-134721573D01*
X107347368Y-134722656D01*
G37*
G36*
X106403485Y-135198253D02*
G01*
X106484751Y-135203734D01*
X106478005Y-135258188D01*
X106470998Y-135314425D01*
X106463954Y-135370533D01*
X106461172Y-135407137D01*
X106465895Y-135416000D01*
X106478719Y-135396373D01*
X106500238Y-135347506D01*
X106518228Y-135302142D01*
X106559120Y-135196545D01*
X106635013Y-135194688D01*
X106679079Y-135196613D01*
X106706149Y-135203593D01*
X106710296Y-135208805D01*
X106703630Y-135228241D01*
X106685686Y-135271042D01*
X106658873Y-135331702D01*
X106625598Y-135404715D01*
X106609014Y-135440441D01*
X106508342Y-135656101D01*
X106417913Y-135660892D01*
X106366813Y-135662904D01*
X106339979Y-135659694D01*
X106329777Y-135647847D01*
X106328575Y-135623947D01*
X106328651Y-135620955D01*
X106331629Y-135578514D01*
X106337860Y-135521686D01*
X106341646Y-135493257D01*
X106346686Y-135448196D01*
X106347066Y-135420540D01*
X106344474Y-135415969D01*
X106334839Y-135432497D01*
X106317148Y-135471439D01*
X106294724Y-135525356D01*
X106287547Y-135543400D01*
X106239623Y-135665148D01*
X106151761Y-135660625D01*
X106063900Y-135656101D01*
X106067796Y-135456415D01*
X106068964Y-135374360D01*
X106068438Y-135320699D01*
X106065879Y-135291903D01*
X106060945Y-135284447D01*
X106053297Y-135294803D01*
X106052377Y-135296667D01*
X106037903Y-135327231D01*
X106013704Y-135378993D01*
X105983424Y-135444133D01*
X105957400Y-135500346D01*
X105881738Y-135664088D01*
X105701140Y-135664088D01*
X105710980Y-135532296D01*
X105720819Y-135400504D01*
X105678864Y-135512327D01*
X105656294Y-135569537D01*
X105635900Y-135616129D01*
X105621758Y-135642850D01*
X105620807Y-135644120D01*
X105595633Y-135655997D01*
X105548981Y-135663024D01*
X105519131Y-135664088D01*
X105433558Y-135664088D01*
X105450204Y-135256730D01*
X105418194Y-135320629D01*
X105396989Y-135364296D01*
X105367707Y-135426318D01*
X105335412Y-135495929D01*
X105322409Y-135524309D01*
X105258633Y-135664088D01*
X105078721Y-135664088D01*
X105088208Y-135540283D01*
X105092175Y-135483588D01*
X105092320Y-135451768D01*
X105086822Y-135445772D01*
X105073862Y-135466546D01*
X105051622Y-135515038D01*
X105026868Y-135572233D01*
X104987356Y-135664088D01*
X104805091Y-135664088D01*
X104815470Y-135517861D01*
X104820287Y-135440357D01*
X104823916Y-135363612D01*
X104825744Y-135301205D01*
X104825849Y-135287767D01*
X104825849Y-135203902D01*
X104905733Y-135198366D01*
X104985618Y-135192831D01*
X104984912Y-135248743D01*
X104981195Y-135302370D01*
X104972956Y-135362289D01*
X104971151Y-135372116D01*
X104964582Y-135416261D01*
X104967589Y-135430402D01*
X104979835Y-135414907D01*
X105000981Y-135370146D01*
X105023520Y-135314942D01*
X105067129Y-135203790D01*
X105147514Y-135198310D01*
X105194090Y-135195865D01*
X105224934Y-135195629D01*
X105231683Y-135196623D01*
X105231784Y-135213107D01*
X105228526Y-135253025D01*
X105222598Y-135308120D01*
X105221833Y-135314580D01*
X105216045Y-135371338D01*
X105213516Y-135414356D01*
X105214726Y-135435096D01*
X105215067Y-135435612D01*
X105223116Y-135425345D01*
X105237652Y-135391830D01*
X105255547Y-135342292D01*
X105255773Y-135341618D01*
X105274902Y-135287026D01*
X105291621Y-135243536D01*
X105301644Y-135221829D01*
X105320806Y-135213777D01*
X105361804Y-135207216D01*
X105416510Y-135202426D01*
X105476797Y-135199686D01*
X105534540Y-135199276D01*
X105581609Y-135201474D01*
X105609880Y-135206559D01*
X105614443Y-135211084D01*
X105612049Y-135232872D01*
X105607817Y-135277088D01*
X105602644Y-135334325D01*
X105602443Y-135336604D01*
X105592605Y-135448428D01*
X105634218Y-135336604D01*
X105655679Y-135281076D01*
X105673895Y-135237778D01*
X105685326Y-135215065D01*
X105686155Y-135214033D01*
X105706897Y-135206953D01*
X105748289Y-135200858D01*
X105776249Y-135198598D01*
X105856021Y-135193911D01*
X105851699Y-135257270D01*
X105846611Y-135318745D01*
X105840172Y-135381359D01*
X105839799Y-135384529D01*
X105837266Y-135417812D01*
X105840979Y-135426288D01*
X105851823Y-135408535D01*
X105870682Y-135363133D01*
X105896982Y-135292673D01*
X105930409Y-135200818D01*
X106242545Y-135200818D01*
X106230055Y-135276699D01*
X106222462Y-135331340D01*
X106218108Y-135379205D01*
X106217694Y-135392516D01*
X106217860Y-135411564D01*
X106219722Y-135419817D01*
X106225554Y-135413466D01*
X106237629Y-135388704D01*
X106258217Y-135341724D01*
X106284461Y-135280663D01*
X106322220Y-135192773D01*
X106403485Y-135198253D01*
G37*
G36*
X113244591Y-129130378D02*
G01*
X111824062Y-129130378D01*
X111808127Y-129190283D01*
X111801072Y-129217910D01*
X111787223Y-129273136D01*
X111767429Y-129352541D01*
X111742540Y-129452704D01*
X111713404Y-129570201D01*
X111680873Y-129701613D01*
X111645794Y-129843517D01*
X111616770Y-129961070D01*
X111577982Y-130118190D01*
X111533045Y-130300106D01*
X111483496Y-130500603D01*
X111430872Y-130713465D01*
X111376709Y-130932477D01*
X111322545Y-131151423D01*
X111269916Y-131364087D01*
X111220360Y-131564256D01*
X111209904Y-131606478D01*
X111140536Y-131886600D01*
X111078461Y-132137333D01*
X111023283Y-132360298D01*
X110974605Y-132557118D01*
X110932030Y-132729413D01*
X110895159Y-132878806D01*
X110863597Y-133006916D01*
X110836946Y-133115367D01*
X110814808Y-133205779D01*
X110796787Y-133279773D01*
X110782486Y-133338972D01*
X110771506Y-133384996D01*
X110763451Y-133419467D01*
X110757925Y-133444006D01*
X110754528Y-133460236D01*
X110752865Y-133469776D01*
X110752516Y-133473640D01*
X110763062Y-133478770D01*
X110795810Y-133482954D01*
X110852424Y-133486244D01*
X110934566Y-133488692D01*
X111043901Y-133490350D01*
X111182092Y-133491270D01*
X111324507Y-133491510D01*
X111896498Y-133491510D01*
X112077290Y-132760661D01*
X112115584Y-132606011D01*
X112153010Y-132455145D01*
X112188567Y-132312087D01*
X112221251Y-132180860D01*
X112250060Y-132065485D01*
X112273990Y-131969987D01*
X112292039Y-131898387D01*
X112301297Y-131862076D01*
X112344513Y-131694340D01*
X112794552Y-131690098D01*
X113244591Y-131685855D01*
X113244591Y-134434026D01*
X106982453Y-134434026D01*
X106982453Y-133493104D01*
X107164609Y-133483522D01*
X107338680Y-132780629D01*
X107379960Y-132614154D01*
X107427219Y-132423931D01*
X107478653Y-132217199D01*
X107532459Y-132001196D01*
X107586833Y-131783163D01*
X107639970Y-131570337D01*
X107690067Y-131369959D01*
X107718839Y-131255032D01*
X107924928Y-130432327D01*
X107916624Y-130608051D01*
X107913227Y-130675867D01*
X107908319Y-130768265D01*
X107902305Y-130877934D01*
X107895589Y-130997565D01*
X107888572Y-131119848D01*
X107885344Y-131175158D01*
X107878515Y-131291828D01*
X107872046Y-131403205D01*
X107865681Y-131513809D01*
X107859165Y-131628156D01*
X107852245Y-131750765D01*
X107844664Y-131886154D01*
X107836169Y-132038841D01*
X107826505Y-132213344D01*
X107815417Y-132414181D01*
X107812608Y-132465126D01*
X107805967Y-132584504D01*
X107798543Y-132716207D01*
X107791046Y-132847715D01*
X107784190Y-132966506D01*
X107781045Y-133020252D01*
X107775523Y-133117087D01*
X107770443Y-133211731D01*
X107766248Y-133295544D01*
X107763380Y-133359886D01*
X107762657Y-133379686D01*
X107759318Y-133483522D01*
X108623824Y-133492016D01*
X108755773Y-133192235D01*
X108800195Y-133091357D01*
X108853863Y-132969562D01*
X108913112Y-132835160D01*
X108974279Y-132696458D01*
X109033700Y-132561767D01*
X109069301Y-132481101D01*
X109175014Y-132241609D01*
X109268935Y-132028806D01*
X109352182Y-131840160D01*
X109425873Y-131673133D01*
X109491126Y-131525192D01*
X109549058Y-131393801D01*
X109600787Y-131276425D01*
X109647432Y-131170529D01*
X109690110Y-131073577D01*
X109729938Y-130983036D01*
X109764863Y-130903585D01*
X109829227Y-130757779D01*
X109882475Y-130638571D01*
X109924367Y-130546473D01*
X109954666Y-130481997D01*
X109973133Y-130445656D01*
X109979530Y-130437962D01*
X109977948Y-130445660D01*
X109972460Y-130466988D01*
X109959987Y-130516541D01*
X109941222Y-130591532D01*
X109916856Y-130689172D01*
X109887583Y-130806673D01*
X109854093Y-130941247D01*
X109817079Y-131090106D01*
X109777233Y-131250462D01*
X109735247Y-131419526D01*
X109691812Y-131594510D01*
X109647621Y-131772627D01*
X109603366Y-131951087D01*
X109559739Y-132127104D01*
X109517431Y-132297888D01*
X109477135Y-132460651D01*
X109439542Y-132612606D01*
X109405346Y-132750964D01*
X109375237Y-132872937D01*
X109349908Y-132975736D01*
X109338963Y-133020252D01*
X109311070Y-133133574D01*
X109285457Y-133237194D01*
X109263167Y-133326922D01*
X109245244Y-133398573D01*
X109232732Y-133447960D01*
X109226675Y-133470894D01*
X109226474Y-133471541D01*
X109230991Y-133477217D01*
X109250389Y-133481779D01*
X109287287Y-133485331D01*
X109344302Y-133487972D01*
X109424054Y-133489804D01*
X109529160Y-133490929D01*
X109662237Y-133491447D01*
X109743064Y-133491510D01*
X110266194Y-133491510D01*
X110293491Y-133383680D01*
X110302249Y-133348702D01*
X110317893Y-133285807D01*
X110339656Y-133198098D01*
X110366768Y-133088676D01*
X110398462Y-132960643D01*
X110433971Y-132817102D01*
X110472525Y-132661155D01*
X110513358Y-132495904D01*
X110551536Y-132341321D01*
X110640210Y-131982246D01*
X110725085Y-131638667D01*
X110805771Y-131312163D01*
X110881876Y-131004312D01*
X110953010Y-130716693D01*
X111018783Y-130450883D01*
X111078804Y-130208462D01*
X111132683Y-129991008D01*
X111180028Y-129800099D01*
X111220450Y-129637315D01*
X111248659Y-129523901D01*
X111274852Y-129418462D01*
X111298276Y-129323710D01*
X111317885Y-129243918D01*
X111332631Y-129183359D01*
X111341467Y-129146307D01*
X111343585Y-129136511D01*
X111328115Y-129135310D01*
X111283721Y-129134186D01*
X111213432Y-129133164D01*
X111120272Y-129132266D01*
X111007270Y-129131515D01*
X110877451Y-129130936D01*
X110733843Y-129130551D01*
X110579471Y-129130383D01*
X110545920Y-129130378D01*
X109748254Y-129130378D01*
X109737090Y-129165552D01*
X109726840Y-129192320D01*
X109706238Y-129242043D01*
X109677919Y-129308490D01*
X109644525Y-129385425D01*
X109630594Y-129417156D01*
X109591302Y-129506373D01*
X109551396Y-129597015D01*
X109515111Y-129679460D01*
X109486681Y-129744086D01*
X109482587Y-129753397D01*
X109466646Y-129789751D01*
X109439380Y-129852042D01*
X109402251Y-129936926D01*
X109356719Y-130041060D01*
X109304246Y-130161099D01*
X109246291Y-130293700D01*
X109184317Y-130435520D01*
X109119784Y-130583215D01*
X109054153Y-130733443D01*
X108988884Y-130882858D01*
X108925440Y-131028118D01*
X108865281Y-131165879D01*
X108809867Y-131292797D01*
X108760660Y-131405530D01*
X108735711Y-131462705D01*
X108704379Y-131533602D01*
X108677052Y-131593742D01*
X108656523Y-131637090D01*
X108645589Y-131657612D01*
X108645206Y-131658095D01*
X108641894Y-131648467D01*
X108641264Y-131613157D01*
X108643280Y-131558316D01*
X108646049Y-131514322D01*
X108650732Y-131446095D01*
X108656667Y-131354843D01*
X108663294Y-131249437D01*
X108670053Y-131138750D01*
X108675005Y-131055346D01*
X108683500Y-130911056D01*
X108692034Y-130768081D01*
X108700945Y-130620879D01*
X108710574Y-130463908D01*
X108721260Y-130291628D01*
X108733344Y-130098496D01*
X108747024Y-129881195D01*
X108754553Y-129761000D01*
X108762115Y-129638713D01*
X108769228Y-129522207D01*
X108775414Y-129419355D01*
X108780194Y-129338029D01*
X108781334Y-129318082D01*
X108791953Y-129130378D01*
X107197074Y-129130378D01*
X106984040Y-129985032D01*
X106983246Y-129062485D01*
X106982453Y-128139938D01*
X113244591Y-128139938D01*
X113244591Y-129130378D01*
G37*
D13*
%TO.C,J20*%
X114590000Y-99360000D02*
X114590000Y-100610000D01*
X114880000Y-99650000D02*
X114880000Y-105620000D01*
X114880000Y-105620000D02*
X122500000Y-105620000D01*
X114890000Y-99660000D02*
X114890000Y-100410000D01*
X114890000Y-100410000D02*
X116690000Y-100410000D01*
X114890000Y-101910000D02*
X115640000Y-101910000D01*
X115640000Y-101910000D02*
X115640000Y-104860000D01*
X115640000Y-104860000D02*
X118690000Y-104860000D01*
X115840000Y-99360000D02*
X114590000Y-99360000D01*
X116690000Y-99660000D02*
X114890000Y-99660000D01*
X116690000Y-100410000D02*
X116690000Y-99660000D01*
X118190000Y-99660000D02*
X118190000Y-100410000D01*
X118190000Y-100410000D02*
X119190000Y-100410000D01*
X119190000Y-99660000D02*
X118190000Y-99660000D01*
X119190000Y-100410000D02*
X119190000Y-99660000D01*
X120690000Y-99660000D02*
X120690000Y-100410000D01*
X120690000Y-100410000D02*
X122490000Y-100410000D01*
X121740000Y-101910000D02*
X121740000Y-104860000D01*
X121740000Y-104860000D02*
X118690000Y-104860000D01*
X122490000Y-99660000D02*
X120690000Y-99660000D01*
X122490000Y-100410000D02*
X122490000Y-99660000D01*
X122490000Y-101910000D02*
X121740000Y-101910000D01*
X122500000Y-99650000D02*
X114880000Y-99650000D01*
X122500000Y-105620000D02*
X122500000Y-99650000D01*
%TO.C,J18*%
X114590000Y-84885000D02*
X114590000Y-86135000D01*
X114880000Y-85175000D02*
X114880000Y-91145000D01*
X114880000Y-91145000D02*
X122500000Y-91145000D01*
X114890000Y-85185000D02*
X114890000Y-85935000D01*
X114890000Y-85935000D02*
X116690000Y-85935000D01*
X114890000Y-87435000D02*
X115640000Y-87435000D01*
X115640000Y-87435000D02*
X115640000Y-90385000D01*
X115640000Y-90385000D02*
X118690000Y-90385000D01*
X115840000Y-84885000D02*
X114590000Y-84885000D01*
X116690000Y-85185000D02*
X114890000Y-85185000D01*
X116690000Y-85935000D02*
X116690000Y-85185000D01*
X118190000Y-85185000D02*
X118190000Y-85935000D01*
X118190000Y-85935000D02*
X119190000Y-85935000D01*
X119190000Y-85185000D02*
X118190000Y-85185000D01*
X119190000Y-85935000D02*
X119190000Y-85185000D01*
X120690000Y-85185000D02*
X120690000Y-85935000D01*
X120690000Y-85935000D02*
X122490000Y-85935000D01*
X121740000Y-87435000D02*
X121740000Y-90385000D01*
X121740000Y-90385000D02*
X118690000Y-90385000D01*
X122490000Y-85185000D02*
X120690000Y-85185000D01*
X122490000Y-85935000D02*
X122490000Y-85185000D01*
X122490000Y-87435000D02*
X121740000Y-87435000D01*
X122500000Y-85175000D02*
X114880000Y-85175000D01*
X122500000Y-91145000D02*
X122500000Y-85175000D01*
%TO.C,J1*%
X79050000Y-77775000D02*
X79050000Y-79025000D01*
X79340000Y-78065000D02*
X79340000Y-84035000D01*
X79340000Y-84035000D02*
X86960000Y-84035000D01*
X79350000Y-78075000D02*
X79350000Y-78825000D01*
X79350000Y-78825000D02*
X81150000Y-78825000D01*
X79350000Y-80325000D02*
X80100000Y-80325000D01*
X80100000Y-80325000D02*
X80100000Y-83275000D01*
X80100000Y-83275000D02*
X83150000Y-83275000D01*
X80300000Y-77775000D02*
X79050000Y-77775000D01*
X81150000Y-78075000D02*
X79350000Y-78075000D01*
X81150000Y-78825000D02*
X81150000Y-78075000D01*
X82650000Y-78075000D02*
X82650000Y-78825000D01*
X82650000Y-78825000D02*
X83650000Y-78825000D01*
X83650000Y-78075000D02*
X82650000Y-78075000D01*
X83650000Y-78825000D02*
X83650000Y-78075000D01*
X85150000Y-78075000D02*
X85150000Y-78825000D01*
X85150000Y-78825000D02*
X86950000Y-78825000D01*
X86200000Y-80325000D02*
X86200000Y-83275000D01*
X86200000Y-83275000D02*
X83150000Y-83275000D01*
X86950000Y-78075000D02*
X85150000Y-78075000D01*
X86950000Y-78825000D02*
X86950000Y-78075000D01*
X86950000Y-80325000D02*
X86200000Y-80325000D01*
X86960000Y-78065000D02*
X79340000Y-78065000D01*
X86960000Y-84035000D02*
X86960000Y-78065000D01*
%TO.C,J103*%
X70460000Y-83680000D02*
X70460000Y-84930000D01*
X70460000Y-84930000D02*
X71710000Y-84930000D01*
X70750000Y-69520000D02*
X70750000Y-84640000D01*
X70750000Y-84640000D02*
X76720000Y-84640000D01*
X70760000Y-69530000D02*
X70760000Y-71330000D01*
X70760000Y-71330000D02*
X71510000Y-71330000D01*
X70760000Y-72830000D02*
X70760000Y-81330000D01*
X70760000Y-81330000D02*
X71510000Y-81330000D01*
X70760000Y-82830000D02*
X70760000Y-84630000D01*
X70760000Y-84630000D02*
X71510000Y-84630000D01*
X71510000Y-69530000D02*
X70760000Y-69530000D01*
X71510000Y-71330000D02*
X71510000Y-69530000D01*
X71510000Y-72830000D02*
X70760000Y-72830000D01*
X71510000Y-81330000D02*
X71510000Y-72830000D01*
X71510000Y-82830000D02*
X70760000Y-82830000D01*
X71510000Y-84630000D02*
X71510000Y-82830000D01*
X73010000Y-69530000D02*
X73010000Y-70280000D01*
X73010000Y-70280000D02*
X75960000Y-70280000D01*
X73010000Y-83880000D02*
X75960000Y-83880000D01*
X73010000Y-84630000D02*
X73010000Y-83880000D01*
X75960000Y-70280000D02*
X75960000Y-77080000D01*
X75960000Y-83880000D02*
X75960000Y-77080000D01*
X76720000Y-69520000D02*
X70750000Y-69520000D01*
X76720000Y-84640000D02*
X76720000Y-69520000D01*
%TO.C,C5*%
X72170000Y-114400000D02*
X72170000Y-118620000D01*
X72170000Y-118620000D02*
X75190000Y-118620000D01*
X75190000Y-118620000D02*
X75190000Y-114400000D01*
%TO.C,R5*%
X88045000Y-74557064D02*
X88045000Y-74102936D01*
X89515000Y-74557064D02*
X89515000Y-74102936D01*
%TO.C,J10*%
X97330000Y-84875000D02*
X97330000Y-86125000D01*
X97620000Y-85165000D02*
X97620000Y-91135000D01*
X97620000Y-91135000D02*
X105240000Y-91135000D01*
X97630000Y-85175000D02*
X97630000Y-85925000D01*
X97630000Y-85925000D02*
X99430000Y-85925000D01*
X97630000Y-87425000D02*
X98380000Y-87425000D01*
X98380000Y-87425000D02*
X98380000Y-90375000D01*
X98380000Y-90375000D02*
X101430000Y-90375000D01*
X98580000Y-84875000D02*
X97330000Y-84875000D01*
X99430000Y-85175000D02*
X97630000Y-85175000D01*
X99430000Y-85925000D02*
X99430000Y-85175000D01*
X100930000Y-85175000D02*
X100930000Y-85925000D01*
X100930000Y-85925000D02*
X101930000Y-85925000D01*
X101930000Y-85175000D02*
X100930000Y-85175000D01*
X101930000Y-85925000D02*
X101930000Y-85175000D01*
X103430000Y-85175000D02*
X103430000Y-85925000D01*
X103430000Y-85925000D02*
X105230000Y-85925000D01*
X104480000Y-87425000D02*
X104480000Y-90375000D01*
X104480000Y-90375000D02*
X101430000Y-90375000D01*
X105230000Y-85175000D02*
X103430000Y-85175000D01*
X105230000Y-85925000D02*
X105230000Y-85175000D01*
X105230000Y-87425000D02*
X104480000Y-87425000D01*
X105240000Y-85165000D02*
X97620000Y-85165000D01*
X105240000Y-91135000D02*
X105240000Y-85165000D01*
%TO.C,J17*%
X114590000Y-77735000D02*
X114590000Y-78985000D01*
X114880000Y-78025000D02*
X114880000Y-83995000D01*
X114880000Y-83995000D02*
X122500000Y-83995000D01*
X114890000Y-78035000D02*
X114890000Y-78785000D01*
X114890000Y-78785000D02*
X116690000Y-78785000D01*
X114890000Y-80285000D02*
X115640000Y-80285000D01*
X115640000Y-80285000D02*
X115640000Y-83235000D01*
X115640000Y-83235000D02*
X118690000Y-83235000D01*
X115840000Y-77735000D02*
X114590000Y-77735000D01*
X116690000Y-78035000D02*
X114890000Y-78035000D01*
X116690000Y-78785000D02*
X116690000Y-78035000D01*
X118190000Y-78035000D02*
X118190000Y-78785000D01*
X118190000Y-78785000D02*
X119190000Y-78785000D01*
X119190000Y-78035000D02*
X118190000Y-78035000D01*
X119190000Y-78785000D02*
X119190000Y-78035000D01*
X120690000Y-78035000D02*
X120690000Y-78785000D01*
X120690000Y-78785000D02*
X122490000Y-78785000D01*
X121740000Y-80285000D02*
X121740000Y-83235000D01*
X121740000Y-83235000D02*
X118690000Y-83235000D01*
X122490000Y-78035000D02*
X120690000Y-78035000D01*
X122490000Y-78785000D02*
X122490000Y-78035000D01*
X122490000Y-80285000D02*
X121740000Y-80285000D01*
X122500000Y-78025000D02*
X114880000Y-78025000D01*
X122500000Y-83995000D02*
X122500000Y-78025000D01*
%TO.C,J21*%
X114590000Y-106610000D02*
X114590000Y-107860000D01*
X114880000Y-106900000D02*
X114880000Y-112870000D01*
X114880000Y-112870000D02*
X122500000Y-112870000D01*
X114890000Y-106910000D02*
X114890000Y-107660000D01*
X114890000Y-107660000D02*
X116690000Y-107660000D01*
X114890000Y-109160000D02*
X115640000Y-109160000D01*
X115640000Y-109160000D02*
X115640000Y-112110000D01*
X115640000Y-112110000D02*
X118690000Y-112110000D01*
X115840000Y-106610000D02*
X114590000Y-106610000D01*
X116690000Y-106910000D02*
X114890000Y-106910000D01*
X116690000Y-107660000D02*
X116690000Y-106910000D01*
X118190000Y-106910000D02*
X118190000Y-107660000D01*
X118190000Y-107660000D02*
X119190000Y-107660000D01*
X119190000Y-106910000D02*
X118190000Y-106910000D01*
X119190000Y-107660000D02*
X119190000Y-106910000D01*
X120690000Y-106910000D02*
X120690000Y-107660000D01*
X120690000Y-107660000D02*
X122490000Y-107660000D01*
X121740000Y-109160000D02*
X121740000Y-112110000D01*
X121740000Y-112110000D02*
X118690000Y-112110000D01*
X122490000Y-106910000D02*
X120690000Y-106910000D01*
X122490000Y-107660000D02*
X122490000Y-106910000D01*
X122490000Y-109160000D02*
X121740000Y-109160000D01*
X122500000Y-106900000D02*
X114880000Y-106900000D01*
X122500000Y-112870000D02*
X122500000Y-106900000D01*
%TO.C,RV2*%
X99150000Y-72031764D02*
X99150000Y-73311764D01*
X99150000Y-72031764D02*
X103990000Y-72031764D01*
X99150000Y-72411764D02*
X99150000Y-72411764D01*
X99150000Y-72411764D02*
X99150000Y-73311764D01*
X99150000Y-72411764D02*
X99150000Y-73311764D01*
X99150000Y-75791764D02*
X99150000Y-77071764D01*
X99150000Y-77071764D02*
X103990000Y-77071764D01*
X103990000Y-72031764D02*
X103990000Y-72511764D01*
X103990000Y-74291764D02*
X103990000Y-74811764D01*
X103990000Y-76591764D02*
X103990000Y-77071764D01*
%TO.C,J19*%
X114590000Y-92135000D02*
X114590000Y-93385000D01*
X114880000Y-92425000D02*
X114880000Y-98395000D01*
X114880000Y-98395000D02*
X122500000Y-98395000D01*
X114890000Y-92435000D02*
X114890000Y-93185000D01*
X114890000Y-93185000D02*
X116690000Y-93185000D01*
X114890000Y-94685000D02*
X115640000Y-94685000D01*
X115640000Y-94685000D02*
X115640000Y-97635000D01*
X115640000Y-97635000D02*
X118690000Y-97635000D01*
X115840000Y-92135000D02*
X114590000Y-92135000D01*
X116690000Y-92435000D02*
X114890000Y-92435000D01*
X116690000Y-93185000D02*
X116690000Y-92435000D01*
X118190000Y-92435000D02*
X118190000Y-93185000D01*
X118190000Y-93185000D02*
X119190000Y-93185000D01*
X119190000Y-92435000D02*
X118190000Y-92435000D01*
X119190000Y-93185000D02*
X119190000Y-92435000D01*
X120690000Y-92435000D02*
X120690000Y-93185000D01*
X120690000Y-93185000D02*
X122490000Y-93185000D01*
X121740000Y-94685000D02*
X121740000Y-97635000D01*
X121740000Y-97635000D02*
X118690000Y-97635000D01*
X122490000Y-92435000D02*
X120690000Y-92435000D01*
X122490000Y-93185000D02*
X122490000Y-92435000D01*
X122490000Y-94685000D02*
X121740000Y-94685000D01*
X122500000Y-92425000D02*
X114880000Y-92425000D01*
X122500000Y-98395000D02*
X122500000Y-92425000D01*
%TO.C,J6*%
X79050000Y-113925000D02*
X79050000Y-115175000D01*
X79340000Y-114215000D02*
X79340000Y-120185000D01*
X79340000Y-120185000D02*
X86960000Y-120185000D01*
X79350000Y-114225000D02*
X79350000Y-114975000D01*
X79350000Y-114975000D02*
X81150000Y-114975000D01*
X79350000Y-116475000D02*
X80100000Y-116475000D01*
X80100000Y-116475000D02*
X80100000Y-119425000D01*
X80100000Y-119425000D02*
X83150000Y-119425000D01*
X80300000Y-113925000D02*
X79050000Y-113925000D01*
X81150000Y-114225000D02*
X79350000Y-114225000D01*
X81150000Y-114975000D02*
X81150000Y-114225000D01*
X82650000Y-114225000D02*
X82650000Y-114975000D01*
X82650000Y-114975000D02*
X83650000Y-114975000D01*
X83650000Y-114225000D02*
X82650000Y-114225000D01*
X83650000Y-114975000D02*
X83650000Y-114225000D01*
X85150000Y-114225000D02*
X85150000Y-114975000D01*
X85150000Y-114975000D02*
X86950000Y-114975000D01*
X86200000Y-116475000D02*
X86200000Y-119425000D01*
X86200000Y-119425000D02*
X83150000Y-119425000D01*
X86950000Y-114225000D02*
X85150000Y-114225000D01*
X86950000Y-114975000D02*
X86950000Y-114225000D01*
X86950000Y-116475000D02*
X86200000Y-116475000D01*
X86960000Y-114215000D02*
X79340000Y-114215000D01*
X86960000Y-120185000D02*
X86960000Y-114215000D01*
%TO.C,J22*%
X114590000Y-113910000D02*
X114590000Y-115160000D01*
X114880000Y-114200000D02*
X114880000Y-120170000D01*
X114880000Y-120170000D02*
X122500000Y-120170000D01*
X114890000Y-114210000D02*
X114890000Y-114960000D01*
X114890000Y-114960000D02*
X116690000Y-114960000D01*
X114890000Y-116460000D02*
X115640000Y-116460000D01*
X115640000Y-116460000D02*
X115640000Y-119410000D01*
X115640000Y-119410000D02*
X118690000Y-119410000D01*
X115840000Y-113910000D02*
X114590000Y-113910000D01*
X116690000Y-114210000D02*
X114890000Y-114210000D01*
X116690000Y-114960000D02*
X116690000Y-114210000D01*
X118190000Y-114210000D02*
X118190000Y-114960000D01*
X118190000Y-114960000D02*
X119190000Y-114960000D01*
X119190000Y-114210000D02*
X118190000Y-114210000D01*
X119190000Y-114960000D02*
X119190000Y-114210000D01*
X120690000Y-114210000D02*
X120690000Y-114960000D01*
X120690000Y-114960000D02*
X122490000Y-114960000D01*
X121740000Y-116460000D02*
X121740000Y-119410000D01*
X121740000Y-119410000D02*
X118690000Y-119410000D01*
X122490000Y-114210000D02*
X120690000Y-114210000D01*
X122490000Y-114960000D02*
X122490000Y-114210000D01*
X122490000Y-116460000D02*
X121740000Y-116460000D01*
X122500000Y-114200000D02*
X114880000Y-114200000D01*
X122500000Y-120170000D02*
X122500000Y-114200000D01*
%TO.C,R2*%
X92062064Y-84691764D02*
X91607936Y-84691764D01*
X92062064Y-86161764D02*
X91607936Y-86161764D01*
%TO.C,R4*%
X127867064Y-84676764D02*
X127412936Y-84676764D01*
X127867064Y-86146764D02*
X127412936Y-86146764D01*
%TO.C,RV4*%
X135145000Y-71991764D02*
X135145000Y-73271764D01*
X135145000Y-71991764D02*
X139985000Y-71991764D01*
X135145000Y-72371764D02*
X135145000Y-72371764D01*
X135145000Y-72371764D02*
X135145000Y-73271764D01*
X135145000Y-72371764D02*
X135145000Y-73271764D01*
X135145000Y-75751764D02*
X135145000Y-77031764D01*
X135145000Y-77031764D02*
X139985000Y-77031764D01*
X139985000Y-71991764D02*
X139985000Y-72471764D01*
X139985000Y-74251764D02*
X139985000Y-74771764D01*
X139985000Y-76551764D02*
X139985000Y-77031764D01*
%TO.C,J28*%
X132935000Y-99255000D02*
X132935000Y-100505000D01*
X133225000Y-99545000D02*
X133225000Y-105515000D01*
X133225000Y-105515000D02*
X140845000Y-105515000D01*
X133235000Y-99555000D02*
X133235000Y-100305000D01*
X133235000Y-100305000D02*
X135035000Y-100305000D01*
X133235000Y-101805000D02*
X133985000Y-101805000D01*
X133985000Y-101805000D02*
X133985000Y-104755000D01*
X133985000Y-104755000D02*
X137035000Y-104755000D01*
X134185000Y-99255000D02*
X132935000Y-99255000D01*
X135035000Y-99555000D02*
X133235000Y-99555000D01*
X135035000Y-100305000D02*
X135035000Y-99555000D01*
X136535000Y-99555000D02*
X136535000Y-100305000D01*
X136535000Y-100305000D02*
X137535000Y-100305000D01*
X137535000Y-99555000D02*
X136535000Y-99555000D01*
X137535000Y-100305000D02*
X137535000Y-99555000D01*
X139035000Y-99555000D02*
X139035000Y-100305000D01*
X139035000Y-100305000D02*
X140835000Y-100305000D01*
X140085000Y-101805000D02*
X140085000Y-104755000D01*
X140085000Y-104755000D02*
X137035000Y-104755000D01*
X140835000Y-99555000D02*
X139035000Y-99555000D01*
X140835000Y-100305000D02*
X140835000Y-99555000D01*
X140835000Y-101805000D02*
X140085000Y-101805000D01*
X140845000Y-99545000D02*
X133225000Y-99545000D01*
X140845000Y-105515000D02*
X140845000Y-99545000D01*
%TO.C,J13*%
X97280000Y-106600000D02*
X97280000Y-107850000D01*
X97570000Y-106890000D02*
X97570000Y-112860000D01*
X97570000Y-112860000D02*
X105190000Y-112860000D01*
X97580000Y-106900000D02*
X97580000Y-107650000D01*
X97580000Y-107650000D02*
X99380000Y-107650000D01*
X97580000Y-109150000D02*
X98330000Y-109150000D01*
X98330000Y-109150000D02*
X98330000Y-112100000D01*
X98330000Y-112100000D02*
X101380000Y-112100000D01*
X98530000Y-106600000D02*
X97280000Y-106600000D01*
X99380000Y-106900000D02*
X97580000Y-106900000D01*
X99380000Y-107650000D02*
X99380000Y-106900000D01*
X100880000Y-106900000D02*
X100880000Y-107650000D01*
X100880000Y-107650000D02*
X101880000Y-107650000D01*
X101880000Y-106900000D02*
X100880000Y-106900000D01*
X101880000Y-107650000D02*
X101880000Y-106900000D01*
X103380000Y-106900000D02*
X103380000Y-107650000D01*
X103380000Y-107650000D02*
X105180000Y-107650000D01*
X104430000Y-109150000D02*
X104430000Y-112100000D01*
X104430000Y-112100000D02*
X101380000Y-112100000D01*
X105180000Y-106900000D02*
X103380000Y-106900000D01*
X105180000Y-107650000D02*
X105180000Y-106900000D01*
X105180000Y-109150000D02*
X104430000Y-109150000D01*
X105190000Y-106890000D02*
X97570000Y-106890000D01*
X105190000Y-112860000D02*
X105190000Y-106890000D01*
%TO.C,J33*%
X79140000Y-63160000D02*
X79140000Y-64410000D01*
X79430000Y-63450000D02*
X79430000Y-69420000D01*
X79430000Y-69420000D02*
X87050000Y-69420000D01*
X79440000Y-63460000D02*
X79440000Y-64210000D01*
X79440000Y-64210000D02*
X81240000Y-64210000D01*
X79440000Y-65710000D02*
X80190000Y-65710000D01*
X80190000Y-65710000D02*
X80190000Y-68660000D01*
X80190000Y-68660000D02*
X83240000Y-68660000D01*
X80390000Y-63160000D02*
X79140000Y-63160000D01*
X81240000Y-63460000D02*
X79440000Y-63460000D01*
X81240000Y-64210000D02*
X81240000Y-63460000D01*
X82740000Y-63460000D02*
X82740000Y-64210000D01*
X82740000Y-64210000D02*
X83740000Y-64210000D01*
X83740000Y-63460000D02*
X82740000Y-63460000D01*
X83740000Y-64210000D02*
X83740000Y-63460000D01*
X85240000Y-63460000D02*
X85240000Y-64210000D01*
X85240000Y-64210000D02*
X87040000Y-64210000D01*
X86290000Y-65710000D02*
X86290000Y-68660000D01*
X86290000Y-68660000D02*
X83240000Y-68660000D01*
X87040000Y-63460000D02*
X85240000Y-63460000D01*
X87040000Y-64210000D02*
X87040000Y-63460000D01*
X87040000Y-65710000D02*
X86290000Y-65710000D01*
X87050000Y-63450000D02*
X79430000Y-63450000D01*
X87050000Y-69420000D02*
X87050000Y-63450000D01*
%TO.C,R3*%
X126912936Y-114301764D02*
X127367064Y-114301764D01*
X126912936Y-115771764D02*
X127367064Y-115771764D01*
%TO.C,J2*%
X79050000Y-84900000D02*
X79050000Y-86150000D01*
X79340000Y-85190000D02*
X79340000Y-91160000D01*
X79340000Y-91160000D02*
X86960000Y-91160000D01*
X79350000Y-85200000D02*
X79350000Y-85950000D01*
X79350000Y-85950000D02*
X81150000Y-85950000D01*
X79350000Y-87450000D02*
X80100000Y-87450000D01*
X80100000Y-87450000D02*
X80100000Y-90400000D01*
X80100000Y-90400000D02*
X83150000Y-90400000D01*
X80300000Y-84900000D02*
X79050000Y-84900000D01*
X81150000Y-85200000D02*
X79350000Y-85200000D01*
X81150000Y-85950000D02*
X81150000Y-85200000D01*
X82650000Y-85200000D02*
X82650000Y-85950000D01*
X82650000Y-85950000D02*
X83650000Y-85950000D01*
X83650000Y-85200000D02*
X82650000Y-85200000D01*
X83650000Y-85950000D02*
X83650000Y-85200000D01*
X85150000Y-85200000D02*
X85150000Y-85950000D01*
X85150000Y-85950000D02*
X86950000Y-85950000D01*
X86200000Y-87450000D02*
X86200000Y-90400000D01*
X86200000Y-90400000D02*
X83150000Y-90400000D01*
X86950000Y-85200000D02*
X85150000Y-85200000D01*
X86950000Y-85950000D02*
X86950000Y-85200000D01*
X86950000Y-87450000D02*
X86200000Y-87450000D01*
X86960000Y-85190000D02*
X79340000Y-85190000D01*
X86960000Y-91160000D02*
X86960000Y-85190000D01*
%TO.C,J34*%
X97310000Y-63140000D02*
X97310000Y-64390000D01*
X97600000Y-63430000D02*
X97600000Y-69400000D01*
X97600000Y-69400000D02*
X105220000Y-69400000D01*
X97610000Y-63440000D02*
X97610000Y-64190000D01*
X97610000Y-64190000D02*
X99410000Y-64190000D01*
X97610000Y-65690000D02*
X98360000Y-65690000D01*
X98360000Y-65690000D02*
X98360000Y-68640000D01*
X98360000Y-68640000D02*
X101410000Y-68640000D01*
X98560000Y-63140000D02*
X97310000Y-63140000D01*
X99410000Y-63440000D02*
X97610000Y-63440000D01*
X99410000Y-64190000D02*
X99410000Y-63440000D01*
X100910000Y-63440000D02*
X100910000Y-64190000D01*
X100910000Y-64190000D02*
X101910000Y-64190000D01*
X101910000Y-63440000D02*
X100910000Y-63440000D01*
X101910000Y-64190000D02*
X101910000Y-63440000D01*
X103410000Y-63440000D02*
X103410000Y-64190000D01*
X103410000Y-64190000D02*
X105210000Y-64190000D01*
X104460000Y-65690000D02*
X104460000Y-68640000D01*
X104460000Y-68640000D02*
X101410000Y-68640000D01*
X105210000Y-63440000D02*
X103410000Y-63440000D01*
X105210000Y-64190000D02*
X105210000Y-63440000D01*
X105210000Y-65690000D02*
X104460000Y-65690000D01*
X105220000Y-63430000D02*
X97600000Y-63430000D01*
X105220000Y-69400000D02*
X105220000Y-63430000D01*
%TO.C,J23*%
X114590000Y-121085000D02*
X114590000Y-122335000D01*
X114880000Y-121375000D02*
X114880000Y-127345000D01*
X114880000Y-127345000D02*
X122500000Y-127345000D01*
X114890000Y-121385000D02*
X114890000Y-122135000D01*
X114890000Y-122135000D02*
X116690000Y-122135000D01*
X114890000Y-123635000D02*
X115640000Y-123635000D01*
X115640000Y-123635000D02*
X115640000Y-126585000D01*
X115640000Y-126585000D02*
X118690000Y-126585000D01*
X115840000Y-121085000D02*
X114590000Y-121085000D01*
X116690000Y-121385000D02*
X114890000Y-121385000D01*
X116690000Y-122135000D02*
X116690000Y-121385000D01*
X118190000Y-121385000D02*
X118190000Y-122135000D01*
X118190000Y-122135000D02*
X119190000Y-122135000D01*
X119190000Y-121385000D02*
X118190000Y-121385000D01*
X119190000Y-122135000D02*
X119190000Y-121385000D01*
X120690000Y-121385000D02*
X120690000Y-122135000D01*
X120690000Y-122135000D02*
X122490000Y-122135000D01*
X121740000Y-123635000D02*
X121740000Y-126585000D01*
X121740000Y-126585000D02*
X118690000Y-126585000D01*
X122490000Y-121385000D02*
X120690000Y-121385000D01*
X122490000Y-122135000D02*
X122490000Y-121385000D01*
X122490000Y-123635000D02*
X121740000Y-123635000D01*
X122500000Y-121375000D02*
X114880000Y-121375000D01*
X122500000Y-127345000D02*
X122500000Y-121375000D01*
%TO.C,J14*%
X97280000Y-113875000D02*
X97280000Y-115125000D01*
X97570000Y-114165000D02*
X97570000Y-120135000D01*
X97570000Y-120135000D02*
X105190000Y-120135000D01*
X97580000Y-114175000D02*
X97580000Y-114925000D01*
X97580000Y-114925000D02*
X99380000Y-114925000D01*
X97580000Y-116425000D02*
X98330000Y-116425000D01*
X98330000Y-116425000D02*
X98330000Y-119375000D01*
X98330000Y-119375000D02*
X101380000Y-119375000D01*
X98530000Y-113875000D02*
X97280000Y-113875000D01*
X99380000Y-114175000D02*
X97580000Y-114175000D01*
X99380000Y-114925000D02*
X99380000Y-114175000D01*
X100880000Y-114175000D02*
X100880000Y-114925000D01*
X100880000Y-114925000D02*
X101880000Y-114925000D01*
X101880000Y-114175000D02*
X100880000Y-114175000D01*
X101880000Y-114925000D02*
X101880000Y-114175000D01*
X103380000Y-114175000D02*
X103380000Y-114925000D01*
X103380000Y-114925000D02*
X105180000Y-114925000D01*
X104430000Y-116425000D02*
X104430000Y-119375000D01*
X104430000Y-119375000D02*
X101380000Y-119375000D01*
X105180000Y-114175000D02*
X103380000Y-114175000D01*
X105180000Y-114925000D02*
X105180000Y-114175000D01*
X105180000Y-116425000D02*
X104430000Y-116425000D01*
X105190000Y-114165000D02*
X97570000Y-114165000D01*
X105190000Y-120135000D02*
X105190000Y-114165000D01*
%TO.C,J102*%
X70460000Y-127000000D02*
X70460000Y-128250000D01*
X70460000Y-128250000D02*
X71710000Y-128250000D01*
X70750000Y-120340000D02*
X70750000Y-127960000D01*
X70750000Y-127960000D02*
X76720000Y-127960000D01*
X70760000Y-120350000D02*
X70760000Y-122150000D01*
X70760000Y-122150000D02*
X71510000Y-122150000D01*
X70760000Y-123650000D02*
X70760000Y-124650000D01*
X70760000Y-124650000D02*
X71510000Y-124650000D01*
X70760000Y-126150000D02*
X70760000Y-127950000D01*
X70760000Y-127950000D02*
X71510000Y-127950000D01*
X71510000Y-120350000D02*
X70760000Y-120350000D01*
X71510000Y-122150000D02*
X71510000Y-120350000D01*
X71510000Y-123650000D02*
X70760000Y-123650000D01*
X71510000Y-124650000D02*
X71510000Y-123650000D01*
X71510000Y-126150000D02*
X70760000Y-126150000D01*
X71510000Y-127950000D02*
X71510000Y-126150000D01*
X73010000Y-120350000D02*
X73010000Y-121100000D01*
X73010000Y-121100000D02*
X75960000Y-121100000D01*
X73010000Y-127200000D02*
X75960000Y-127200000D01*
X73010000Y-127950000D02*
X73010000Y-127200000D01*
X75960000Y-121100000D02*
X75960000Y-124150000D01*
X75960000Y-127200000D02*
X75960000Y-124150000D01*
X76720000Y-120340000D02*
X70750000Y-120340000D01*
X76720000Y-127960000D02*
X76720000Y-120340000D01*
%TO.C,J11*%
X97330000Y-92125000D02*
X97330000Y-93375000D01*
X97620000Y-92415000D02*
X97620000Y-98385000D01*
X97620000Y-98385000D02*
X105240000Y-98385000D01*
X97630000Y-92425000D02*
X97630000Y-93175000D01*
X97630000Y-93175000D02*
X99430000Y-93175000D01*
X97630000Y-94675000D02*
X98380000Y-94675000D01*
X98380000Y-94675000D02*
X98380000Y-97625000D01*
X98380000Y-97625000D02*
X101430000Y-97625000D01*
X98580000Y-92125000D02*
X97330000Y-92125000D01*
X99430000Y-92425000D02*
X97630000Y-92425000D01*
X99430000Y-93175000D02*
X99430000Y-92425000D01*
X100930000Y-92425000D02*
X100930000Y-93175000D01*
X100930000Y-93175000D02*
X101930000Y-93175000D01*
X101930000Y-92425000D02*
X100930000Y-92425000D01*
X101930000Y-93175000D02*
X101930000Y-92425000D01*
X103430000Y-92425000D02*
X103430000Y-93175000D01*
X103430000Y-93175000D02*
X105230000Y-93175000D01*
X104480000Y-94675000D02*
X104480000Y-97625000D01*
X104480000Y-97625000D02*
X101430000Y-97625000D01*
X105230000Y-92425000D02*
X103430000Y-92425000D01*
X105230000Y-93175000D02*
X105230000Y-92425000D01*
X105230000Y-94675000D02*
X104480000Y-94675000D01*
X105240000Y-92415000D02*
X97620000Y-92415000D01*
X105240000Y-98385000D02*
X105240000Y-92415000D01*
%TO.C,C4*%
X124355000Y-101773016D02*
X124355000Y-101250512D01*
X125825000Y-101773016D02*
X125825000Y-101250512D01*
%TO.C,J9*%
X97330000Y-77775000D02*
X97330000Y-79025000D01*
X97620000Y-78065000D02*
X97620000Y-84035000D01*
X97620000Y-84035000D02*
X105240000Y-84035000D01*
X97630000Y-78075000D02*
X97630000Y-78825000D01*
X97630000Y-78825000D02*
X99430000Y-78825000D01*
X97630000Y-80325000D02*
X98380000Y-80325000D01*
X98380000Y-80325000D02*
X98380000Y-83275000D01*
X98380000Y-83275000D02*
X101430000Y-83275000D01*
X98580000Y-77775000D02*
X97330000Y-77775000D01*
X99430000Y-78075000D02*
X97630000Y-78075000D01*
X99430000Y-78825000D02*
X99430000Y-78075000D01*
X100930000Y-78075000D02*
X100930000Y-78825000D01*
X100930000Y-78825000D02*
X101930000Y-78825000D01*
X101930000Y-78075000D02*
X100930000Y-78075000D01*
X101930000Y-78825000D02*
X101930000Y-78075000D01*
X103430000Y-78075000D02*
X103430000Y-78825000D01*
X103430000Y-78825000D02*
X105230000Y-78825000D01*
X104480000Y-80325000D02*
X104480000Y-83275000D01*
X104480000Y-83275000D02*
X101430000Y-83275000D01*
X105230000Y-78075000D02*
X103430000Y-78075000D01*
X105230000Y-78825000D02*
X105230000Y-78075000D01*
X105230000Y-80325000D02*
X104480000Y-80325000D01*
X105240000Y-78065000D02*
X97620000Y-78065000D01*
X105240000Y-84035000D02*
X105240000Y-78065000D01*
%TO.C,RV3*%
X116295000Y-71991764D02*
X116295000Y-73271764D01*
X116295000Y-71991764D02*
X121135000Y-71991764D01*
X116295000Y-72371764D02*
X116295000Y-72371764D01*
X116295000Y-72371764D02*
X116295000Y-73271764D01*
X116295000Y-72371764D02*
X116295000Y-73271764D01*
X116295000Y-75751764D02*
X116295000Y-77031764D01*
X116295000Y-77031764D02*
X121135000Y-77031764D01*
X121135000Y-71991764D02*
X121135000Y-72471764D01*
X121135000Y-74251764D02*
X121135000Y-74771764D01*
X121135000Y-76551764D02*
X121135000Y-77031764D01*
%TO.C,U1*%
X91760000Y-118266764D02*
X89810000Y-118266764D01*
X91760000Y-118266764D02*
X93710000Y-118266764D01*
X91760000Y-128386764D02*
X89810000Y-128386764D01*
X91760000Y-128386764D02*
X93710000Y-128386764D01*
X94700000Y-128661764D02*
X94220000Y-128661764D01*
X94460000Y-128331764D01*
X94700000Y-128661764D01*
G36*
X94700000Y-128661764D02*
G01*
X94220000Y-128661764D01*
X94460000Y-128331764D01*
X94700000Y-128661764D01*
G37*
%TO.C,J4*%
X79050000Y-99475000D02*
X79050000Y-100725000D01*
X79340000Y-99765000D02*
X79340000Y-105735000D01*
X79340000Y-105735000D02*
X86960000Y-105735000D01*
X79350000Y-99775000D02*
X79350000Y-100525000D01*
X79350000Y-100525000D02*
X81150000Y-100525000D01*
X79350000Y-102025000D02*
X80100000Y-102025000D01*
X80100000Y-102025000D02*
X80100000Y-104975000D01*
X80100000Y-104975000D02*
X83150000Y-104975000D01*
X80300000Y-99475000D02*
X79050000Y-99475000D01*
X81150000Y-99775000D02*
X79350000Y-99775000D01*
X81150000Y-100525000D02*
X81150000Y-99775000D01*
X82650000Y-99775000D02*
X82650000Y-100525000D01*
X82650000Y-100525000D02*
X83650000Y-100525000D01*
X83650000Y-99775000D02*
X82650000Y-99775000D01*
X83650000Y-100525000D02*
X83650000Y-99775000D01*
X85150000Y-99775000D02*
X85150000Y-100525000D01*
X85150000Y-100525000D02*
X86950000Y-100525000D01*
X86200000Y-102025000D02*
X86200000Y-104975000D01*
X86200000Y-104975000D02*
X83150000Y-104975000D01*
X86950000Y-99775000D02*
X85150000Y-99775000D01*
X86950000Y-100525000D02*
X86950000Y-99775000D01*
X86950000Y-102025000D02*
X86200000Y-102025000D01*
X86960000Y-99765000D02*
X79340000Y-99765000D01*
X86960000Y-105735000D02*
X86960000Y-99765000D01*
%TO.C,J16*%
X97305000Y-128375000D02*
X97305000Y-129625000D01*
X97595000Y-128665000D02*
X97595000Y-134635000D01*
X97595000Y-134635000D02*
X105215000Y-134635000D01*
X97605000Y-128675000D02*
X97605000Y-129425000D01*
X97605000Y-129425000D02*
X99405000Y-129425000D01*
X97605000Y-130925000D02*
X98355000Y-130925000D01*
X98355000Y-130925000D02*
X98355000Y-133875000D01*
X98355000Y-133875000D02*
X101405000Y-133875000D01*
X98555000Y-128375000D02*
X97305000Y-128375000D01*
X99405000Y-128675000D02*
X97605000Y-128675000D01*
X99405000Y-129425000D02*
X99405000Y-128675000D01*
X100905000Y-128675000D02*
X100905000Y-129425000D01*
X100905000Y-129425000D02*
X101905000Y-129425000D01*
X101905000Y-128675000D02*
X100905000Y-128675000D01*
X101905000Y-129425000D02*
X101905000Y-128675000D01*
X103405000Y-128675000D02*
X103405000Y-129425000D01*
X103405000Y-129425000D02*
X105205000Y-129425000D01*
X104455000Y-130925000D02*
X104455000Y-133875000D01*
X104455000Y-133875000D02*
X101405000Y-133875000D01*
X105205000Y-128675000D02*
X103405000Y-128675000D01*
X105205000Y-129425000D02*
X105205000Y-128675000D01*
X105205000Y-130925000D02*
X104455000Y-130925000D01*
X105215000Y-128665000D02*
X97595000Y-128665000D01*
X105215000Y-134635000D02*
X105215000Y-128665000D01*
%TO.C,R8*%
X131095000Y-74817064D02*
X131095000Y-74362936D01*
X132565000Y-74817064D02*
X132565000Y-74362936D01*
%TD*%
%LPC*%
D15*
%TO.C,H1*%
X74000000Y-65000000D03*
%TD*%
D16*
%TO.C,R1*%
X90847500Y-115001764D03*
X92672500Y-115001764D03*
%TD*%
D17*
%TO.C,J27*%
X135810000Y-94805000D03*
D18*
X138310000Y-94805000D03*
%TD*%
D17*
%TO.C,J36*%
X135840000Y-65870000D03*
D18*
X138340000Y-65870000D03*
%TD*%
D17*
%TO.C,J32*%
X135735000Y-131105000D03*
D18*
X138235000Y-131105000D03*
%TD*%
D17*
%TO.C,J15*%
X100130000Y-123875000D03*
D18*
X102630000Y-123875000D03*
%TD*%
D19*
%TO.C,C1*%
X89185000Y-132190000D03*
X89185000Y-130290000D03*
%TD*%
D17*
%TO.C,J3*%
X81900000Y-94950000D03*
D18*
X84400000Y-94950000D03*
%TD*%
D17*
%TO.C,J25*%
X135860000Y-80480000D03*
D18*
X138360000Y-80480000D03*
%TD*%
D20*
%TO.C,RV1*%
X85010000Y-73401764D03*
D21*
X81010000Y-74551764D03*
D20*
X85010000Y-75701764D03*
%TD*%
D22*
%TO.C,R7*%
X124360000Y-75352500D03*
X124360000Y-73527500D03*
%TD*%
D15*
%TO.C,H3*%
X74000000Y-137000000D03*
%TD*%
D17*
%TO.C,J7*%
X81900000Y-123900000D03*
D18*
X84400000Y-123900000D03*
%TD*%
D17*
%TO.C,J5*%
X81900000Y-109450000D03*
D18*
X84400000Y-109450000D03*
%TD*%
D17*
%TO.C,J30*%
X135785000Y-116530000D03*
D18*
X138285000Y-116530000D03*
%TD*%
D19*
%TO.C,C2*%
X89185000Y-101915000D03*
X89185000Y-100015000D03*
%TD*%
D23*
%TO.C,U3*%
X130140000Y-127571764D03*
X130140000Y-126301764D03*
X130140000Y-125031764D03*
X130140000Y-123761764D03*
X130140000Y-122491764D03*
X130140000Y-121221764D03*
X130140000Y-119951764D03*
X130140000Y-118681764D03*
X124990000Y-118681764D03*
X124990000Y-119951764D03*
X124990000Y-121221764D03*
X124990000Y-122491764D03*
X124990000Y-123761764D03*
X124990000Y-125031764D03*
X124990000Y-126301764D03*
X124990000Y-127571764D03*
%TD*%
D22*
%TO.C,R6*%
X107685000Y-75157500D03*
X107685000Y-73332500D03*
%TD*%
D17*
%TO.C,J29*%
X135810000Y-109380000D03*
D18*
X138310000Y-109380000D03*
%TD*%
D23*
%TO.C,U4*%
X130140000Y-97906764D03*
X130140000Y-96636764D03*
X130140000Y-95366764D03*
X130140000Y-94096764D03*
X130140000Y-92826764D03*
X130140000Y-91556764D03*
X130140000Y-90286764D03*
X130140000Y-89016764D03*
X124990000Y-89016764D03*
X124990000Y-90286764D03*
X124990000Y-91556764D03*
X124990000Y-92826764D03*
X124990000Y-94096764D03*
X124990000Y-95366764D03*
X124990000Y-96636764D03*
X124990000Y-97906764D03*
%TD*%
D19*
%TO.C,C3*%
X124990000Y-131511764D03*
X124990000Y-129611764D03*
%TD*%
D17*
%TO.C,J31*%
X135760000Y-123805000D03*
D18*
X138260000Y-123805000D03*
%TD*%
D17*
%TO.C,J24*%
X117440000Y-131110000D03*
D18*
X119940000Y-131110000D03*
%TD*%
D17*
%TO.C,J35*%
X117470000Y-65840000D03*
D18*
X119970000Y-65840000D03*
%TD*%
D17*
%TO.C,J12*%
X100155000Y-102050000D03*
D18*
X102655000Y-102050000D03*
%TD*%
D17*
%TO.C,J26*%
X135835000Y-87555000D03*
D18*
X138335000Y-87555000D03*
%TD*%
D23*
%TO.C,U2*%
X94410000Y-97461764D03*
X94410000Y-96191764D03*
X94410000Y-94921764D03*
X94410000Y-93651764D03*
X94410000Y-92381764D03*
X94410000Y-91111764D03*
X94410000Y-89841764D03*
X94410000Y-88571764D03*
X89260000Y-88571764D03*
X89260000Y-89841764D03*
X89260000Y-91111764D03*
X89260000Y-92381764D03*
X89260000Y-93651764D03*
X89260000Y-94921764D03*
X89260000Y-96191764D03*
X89260000Y-97461764D03*
%TD*%
D17*
%TO.C,J8*%
X81900000Y-131175000D03*
D18*
X84400000Y-131175000D03*
%TD*%
D15*
%TO.C,H4*%
X146000000Y-137000000D03*
%TD*%
D17*
%TO.C,J20*%
X117440000Y-102110000D03*
D18*
X119940000Y-102110000D03*
%TD*%
D15*
%TO.C,H2*%
X146000000Y-65000000D03*
%TD*%
D17*
%TO.C,J18*%
X117440000Y-87635000D03*
D18*
X119940000Y-87635000D03*
%TD*%
D17*
%TO.C,J1*%
X81900000Y-80525000D03*
D18*
X84400000Y-80525000D03*
%TD*%
D24*
%TO.C,J103*%
X73210000Y-82080000D03*
D25*
X73210000Y-79580000D03*
X73210000Y-77080000D03*
X73210000Y-74580000D03*
X73210000Y-72080000D03*
%TD*%
D26*
%TO.C,C5*%
X73680000Y-117690000D03*
X73680000Y-114610000D03*
%TD*%
D22*
%TO.C,R5*%
X88780000Y-75242500D03*
X88780000Y-73417500D03*
%TD*%
D17*
%TO.C,J10*%
X100180000Y-87625000D03*
D18*
X102680000Y-87625000D03*
%TD*%
D17*
%TO.C,J17*%
X117440000Y-80485000D03*
D18*
X119940000Y-80485000D03*
%TD*%
D17*
%TO.C,J21*%
X117440000Y-109360000D03*
D18*
X119940000Y-109360000D03*
%TD*%
D20*
%TO.C,RV2*%
X103570000Y-73401764D03*
D21*
X99570000Y-74551764D03*
D20*
X103570000Y-75701764D03*
%TD*%
D17*
%TO.C,J19*%
X117440000Y-94885000D03*
D18*
X119940000Y-94885000D03*
%TD*%
D17*
%TO.C,J6*%
X81900000Y-116675000D03*
D18*
X84400000Y-116675000D03*
%TD*%
D17*
%TO.C,J22*%
X117440000Y-116660000D03*
D18*
X119940000Y-116660000D03*
%TD*%
D27*
%TO.C,R2*%
X92747500Y-85426764D03*
X90922500Y-85426764D03*
%TD*%
%TO.C,R4*%
X128552500Y-85411764D03*
X126727500Y-85411764D03*
%TD*%
D20*
%TO.C,RV4*%
X139565000Y-73361764D03*
D21*
X135565000Y-74511764D03*
D20*
X139565000Y-75661764D03*
%TD*%
D17*
%TO.C,J28*%
X135785000Y-102005000D03*
D18*
X138285000Y-102005000D03*
%TD*%
D17*
%TO.C,J13*%
X100130000Y-109350000D03*
D18*
X102630000Y-109350000D03*
%TD*%
D17*
%TO.C,J33*%
X81990000Y-65910000D03*
D18*
X84490000Y-65910000D03*
%TD*%
D16*
%TO.C,R3*%
X126227500Y-115036764D03*
X128052500Y-115036764D03*
%TD*%
D17*
%TO.C,J2*%
X81900000Y-87650000D03*
D18*
X84400000Y-87650000D03*
%TD*%
D17*
%TO.C,J34*%
X100160000Y-65890000D03*
D18*
X102660000Y-65890000D03*
%TD*%
D17*
%TO.C,J23*%
X117440000Y-123835000D03*
D18*
X119940000Y-123835000D03*
%TD*%
D17*
%TO.C,J14*%
X100130000Y-116625000D03*
D18*
X102630000Y-116625000D03*
%TD*%
D28*
%TO.C,J102*%
X73210000Y-125400000D03*
D29*
X73210000Y-122900000D03*
%TD*%
D17*
%TO.C,J11*%
X100180000Y-94875000D03*
D18*
X102680000Y-94875000D03*
%TD*%
D19*
%TO.C,C4*%
X125090000Y-102461764D03*
X125090000Y-100561764D03*
%TD*%
D17*
%TO.C,J9*%
X100180000Y-80525000D03*
D18*
X102680000Y-80525000D03*
%TD*%
D20*
%TO.C,RV3*%
X120715000Y-73361764D03*
D21*
X116715000Y-74511764D03*
D20*
X120715000Y-75661764D03*
%TD*%
D23*
%TO.C,U1*%
X94335000Y-127771764D03*
X94335000Y-126501764D03*
X94335000Y-125231764D03*
X94335000Y-123961764D03*
X94335000Y-122691764D03*
X94335000Y-121421764D03*
X94335000Y-120151764D03*
X94335000Y-118881764D03*
X89185000Y-118881764D03*
X89185000Y-120151764D03*
X89185000Y-121421764D03*
X89185000Y-122691764D03*
X89185000Y-123961764D03*
X89185000Y-125231764D03*
X89185000Y-126501764D03*
X89185000Y-127771764D03*
%TD*%
D17*
%TO.C,J4*%
X81900000Y-102225000D03*
D18*
X84400000Y-102225000D03*
%TD*%
D17*
%TO.C,J16*%
X100155000Y-131125000D03*
D18*
X102655000Y-131125000D03*
%TD*%
D22*
%TO.C,R8*%
X131830000Y-75502500D03*
X131830000Y-73677500D03*
%TD*%
%LPD*%
M02*
