%TF.GenerationSoftware,KiCad,Pcbnew,9.0.3*%
%TF.CreationDate,2025-07-24T13:25:29+02:00*%
%TF.ProjectId,LED-driver-Board,4c45442d-6472-4697-9665-722d426f6172,rev?*%
%TF.SameCoordinates,Original*%
%TF.FileFunction,Soldermask,Bot*%
%TF.FilePolarity,Negative*%
%FSLAX46Y46*%
G04 Gerber Fmt 4.6, Leading zero omitted, Abs format (unit mm)*
G04 Created by KiCad (PCBNEW 9.0.3) date 2025-07-24 13:25:29*
%MOMM*%
%LPD*%
G01*
G04 APERTURE LIST*
G04 Aperture macros list*
%AMRoundRect*
0 Rectangle with rounded corners*
0 $1 Rounding radius*
0 $2 $3 $4 $5 $6 $7 $8 $9 X,Y pos of 4 corners*
0 Add a 4 corners polygon primitive as box body*
4,1,4,$2,$3,$4,$5,$6,$7,$8,$9,$2,$3,0*
0 Add four circle primitives for the rounded corners*
1,1,$1+$1,$2,$3*
1,1,$1+$1,$4,$5*
1,1,$1+$1,$6,$7*
1,1,$1+$1,$8,$9*
0 Add four rect primitives between the rounded corners*
20,1,$1+$1,$2,$3,$4,$5,0*
20,1,$1+$1,$4,$5,$6,$7,0*
20,1,$1+$1,$6,$7,$8,$9,0*
20,1,$1+$1,$8,$9,$2,$3,0*%
G04 Aperture macros list end*
%ADD10RoundRect,0.250000X-0.600000X-0.750000X0.600000X-0.750000X0.600000X0.750000X-0.600000X0.750000X0*%
%ADD11O,1.700000X2.000000*%
%ADD12C,6.400000*%
%ADD13O,1.950000X1.700000*%
%ADD14RoundRect,0.250000X0.725000X-0.600000X0.725000X0.600000X-0.725000X0.600000X-0.725000X-0.600000X0*%
%ADD15RoundRect,0.250000X0.750000X-0.600000X0.750000X0.600000X-0.750000X0.600000X-0.750000X-0.600000X0*%
%ADD16O,2.000000X1.700000*%
G04 APERTURE END LIST*
D10*
%TO.C,J27*%
X135810000Y-94805000D03*
D11*
X138310000Y-94805000D03*
%TD*%
D10*
%TO.C,J36*%
X135840000Y-65870000D03*
D11*
X138340000Y-65870000D03*
%TD*%
D10*
%TO.C,J32*%
X135735000Y-131105000D03*
D11*
X138235000Y-131105000D03*
%TD*%
D10*
%TO.C,J15*%
X100130000Y-123875000D03*
D11*
X102630000Y-123875000D03*
%TD*%
D10*
%TO.C,J3*%
X81900000Y-94950000D03*
D11*
X84400000Y-94950000D03*
%TD*%
D10*
%TO.C,J25*%
X135860000Y-80480000D03*
D11*
X138360000Y-80480000D03*
%TD*%
D12*
%TO.C,H1*%
X73500000Y-64500000D03*
%TD*%
%TO.C,H3*%
X73500000Y-137500000D03*
%TD*%
D10*
%TO.C,J7*%
X81900000Y-123900000D03*
D11*
X84400000Y-123900000D03*
%TD*%
D10*
%TO.C,J5*%
X81900000Y-109450000D03*
D11*
X84400000Y-109450000D03*
%TD*%
D10*
%TO.C,J30*%
X135785000Y-116530000D03*
D11*
X138285000Y-116530000D03*
%TD*%
D10*
%TO.C,J29*%
X135810000Y-109380000D03*
D11*
X138310000Y-109380000D03*
%TD*%
D10*
%TO.C,J31*%
X135760000Y-123805000D03*
D11*
X138260000Y-123805000D03*
%TD*%
D10*
%TO.C,J24*%
X117440000Y-131110000D03*
D11*
X119940000Y-131110000D03*
%TD*%
D10*
%TO.C,J35*%
X117470000Y-65840000D03*
D11*
X119970000Y-65840000D03*
%TD*%
D10*
%TO.C,J12*%
X100155000Y-102050000D03*
D11*
X102655000Y-102050000D03*
%TD*%
D10*
%TO.C,J26*%
X135835000Y-87555000D03*
D11*
X138335000Y-87555000D03*
%TD*%
D10*
%TO.C,J8*%
X81900000Y-131175000D03*
D11*
X84400000Y-131175000D03*
%TD*%
D12*
%TO.C,H4*%
X146500000Y-137500000D03*
%TD*%
D10*
%TO.C,J20*%
X117440000Y-102110000D03*
D11*
X119940000Y-102110000D03*
%TD*%
D12*
%TO.C,H2*%
X146500000Y-64500000D03*
%TD*%
D10*
%TO.C,J18*%
X117440000Y-87635000D03*
D11*
X119940000Y-87635000D03*
%TD*%
D10*
%TO.C,J1*%
X81900000Y-80525000D03*
D11*
X84400000Y-80525000D03*
%TD*%
D13*
%TO.C,J103*%
X73210000Y-72080000D03*
X73210000Y-74580000D03*
X73210000Y-77080000D03*
X73210000Y-79580000D03*
D14*
X73210000Y-82080000D03*
%TD*%
D10*
%TO.C,J10*%
X100180000Y-87625000D03*
D11*
X102680000Y-87625000D03*
%TD*%
D10*
%TO.C,J17*%
X117440000Y-80485000D03*
D11*
X119940000Y-80485000D03*
%TD*%
D10*
%TO.C,J21*%
X117440000Y-109360000D03*
D11*
X119940000Y-109360000D03*
%TD*%
D10*
%TO.C,J19*%
X117440000Y-94885000D03*
D11*
X119940000Y-94885000D03*
%TD*%
D10*
%TO.C,J6*%
X81900000Y-116675000D03*
D11*
X84400000Y-116675000D03*
%TD*%
D10*
%TO.C,J22*%
X117440000Y-116660000D03*
D11*
X119940000Y-116660000D03*
%TD*%
D10*
%TO.C,J28*%
X135785000Y-102005000D03*
D11*
X138285000Y-102005000D03*
%TD*%
D10*
%TO.C,J13*%
X100130000Y-109350000D03*
D11*
X102630000Y-109350000D03*
%TD*%
D10*
%TO.C,J33*%
X81990000Y-65910000D03*
D11*
X84490000Y-65910000D03*
%TD*%
D10*
%TO.C,J2*%
X81900000Y-87650000D03*
D11*
X84400000Y-87650000D03*
%TD*%
D10*
%TO.C,J34*%
X100160000Y-65890000D03*
D11*
X102660000Y-65890000D03*
%TD*%
D10*
%TO.C,J23*%
X117440000Y-123835000D03*
D11*
X119940000Y-123835000D03*
%TD*%
D10*
%TO.C,J14*%
X100130000Y-116625000D03*
D11*
X102630000Y-116625000D03*
%TD*%
D15*
%TO.C,J102*%
X73210000Y-125400000D03*
D16*
X73210000Y-122900000D03*
%TD*%
D10*
%TO.C,J11*%
X100180000Y-94875000D03*
D11*
X102680000Y-94875000D03*
%TD*%
D10*
%TO.C,J9*%
X100180000Y-80525000D03*
D11*
X102680000Y-80525000D03*
%TD*%
D10*
%TO.C,J4*%
X81900000Y-102225000D03*
D11*
X84400000Y-102225000D03*
%TD*%
D10*
%TO.C,J16*%
X100155000Y-131125000D03*
D11*
X102655000Y-131125000D03*
%TD*%
M02*
