%TF.GenerationSoftware,KiCad,Pcbnew,9.0.3*%
%TF.CreationDate,2025-07-24T13:25:29+02:00*%
%TF.ProjectId,LED-driver-Board,4c45442d-6472-4697-9665-722d426f6172,rev?*%
%TF.SameCoordinates,Original*%
%TF.FileFunction,Copper,L2,Bot*%
%TF.FilePolarity,Positive*%
%FSLAX46Y46*%
G04 Gerber Fmt 4.6, Leading zero omitted, Abs format (unit mm)*
G04 Created by KiCad (PCBNEW 9.0.3) date 2025-07-24 13:25:29*
%MOMM*%
%LPD*%
G01*
G04 APERTURE LIST*
G04 Aperture macros list*
%AMRoundRect*
0 Rectangle with rounded corners*
0 $1 Rounding radius*
0 $2 $3 $4 $5 $6 $7 $8 $9 X,Y pos of 4 corners*
0 Add a 4 corners polygon primitive as box body*
4,1,4,$2,$3,$4,$5,$6,$7,$8,$9,$2,$3,0*
0 Add four circle primitives for the rounded corners*
1,1,$1+$1,$2,$3*
1,1,$1+$1,$4,$5*
1,1,$1+$1,$6,$7*
1,1,$1+$1,$8,$9*
0 Add four rect primitives between the rounded corners*
20,1,$1+$1,$2,$3,$4,$5,0*
20,1,$1+$1,$4,$5,$6,$7,0*
20,1,$1+$1,$6,$7,$8,$9,0*
20,1,$1+$1,$8,$9,$2,$3,0*%
G04 Aperture macros list end*
%TA.AperFunction,ComponentPad*%
%ADD10RoundRect,0.250000X-0.600000X-0.750000X0.600000X-0.750000X0.600000X0.750000X-0.600000X0.750000X0*%
%TD*%
%TA.AperFunction,ComponentPad*%
%ADD11O,1.700000X2.000000*%
%TD*%
%TA.AperFunction,ComponentPad*%
%ADD12C,6.400000*%
%TD*%
%TA.AperFunction,ComponentPad*%
%ADD13O,1.950000X1.700000*%
%TD*%
%TA.AperFunction,ComponentPad*%
%ADD14RoundRect,0.250000X0.725000X-0.600000X0.725000X0.600000X-0.725000X0.600000X-0.725000X-0.600000X0*%
%TD*%
%TA.AperFunction,ComponentPad*%
%ADD15RoundRect,0.250000X0.750000X-0.600000X0.750000X0.600000X-0.750000X0.600000X-0.750000X-0.600000X0*%
%TD*%
%TA.AperFunction,ComponentPad*%
%ADD16O,2.000000X1.700000*%
%TD*%
%TA.AperFunction,ViaPad*%
%ADD17C,0.800000*%
%TD*%
%TA.AperFunction,Conductor*%
%ADD18C,0.400000*%
%TD*%
%TA.AperFunction,Conductor*%
%ADD19C,1.200000*%
%TD*%
G04 APERTURE END LIST*
D10*
%TO.P,J27,1,Pin_1*%
%TO.N,LED27*%
X135810000Y-94805000D03*
D11*
%TO.P,J27,2,Pin_2*%
%TO.N,VDC*%
X138310000Y-94805000D03*
%TD*%
D10*
%TO.P,J36,1,Pin_1*%
%TO.N,GND*%
X135840000Y-65870000D03*
D11*
%TO.P,J36,2,Pin_2*%
%TO.N,OE4*%
X138340000Y-65870000D03*
%TD*%
D10*
%TO.P,J32,1,Pin_1*%
%TO.N,LED32*%
X135735000Y-131105000D03*
D11*
%TO.P,J32,2,Pin_2*%
%TO.N,VDC*%
X138235000Y-131105000D03*
%TD*%
D10*
%TO.P,J15,1,Pin_1*%
%TO.N,LED15*%
X100130000Y-123875000D03*
D11*
%TO.P,J15,2,Pin_2*%
%TO.N,VDC*%
X102630000Y-123875000D03*
%TD*%
D10*
%TO.P,J3,1,Pin_1*%
%TO.N,LED3*%
X81900000Y-94950000D03*
D11*
%TO.P,J3,2,Pin_2*%
%TO.N,VDC*%
X84400000Y-94950000D03*
%TD*%
D10*
%TO.P,J25,1,Pin_1*%
%TO.N,LED25*%
X135860000Y-80480000D03*
D11*
%TO.P,J25,2,Pin_2*%
%TO.N,VDC*%
X138360000Y-80480000D03*
%TD*%
D12*
%TO.P,H1,1*%
%TO.N,N/C*%
X73500000Y-64500000D03*
%TD*%
%TO.P,H3,1*%
%TO.N,N/C*%
X73500000Y-137500000D03*
%TD*%
D10*
%TO.P,J7,1,Pin_1*%
%TO.N,LED7*%
X81900000Y-123900000D03*
D11*
%TO.P,J7,2,Pin_2*%
%TO.N,VDC*%
X84400000Y-123900000D03*
%TD*%
D10*
%TO.P,J5,1,Pin_1*%
%TO.N,LED5*%
X81900000Y-109450000D03*
D11*
%TO.P,J5,2,Pin_2*%
%TO.N,VDC*%
X84400000Y-109450000D03*
%TD*%
D10*
%TO.P,J30,1,Pin_1*%
%TO.N,LED30*%
X135785000Y-116530000D03*
D11*
%TO.P,J30,2,Pin_2*%
%TO.N,VDC*%
X138285000Y-116530000D03*
%TD*%
D10*
%TO.P,J29,1,Pin_1*%
%TO.N,LED29*%
X135810000Y-109380000D03*
D11*
%TO.P,J29,2,Pin_2*%
%TO.N,VDC*%
X138310000Y-109380000D03*
%TD*%
D10*
%TO.P,J31,1,Pin_1*%
%TO.N,LED31*%
X135760000Y-123805000D03*
D11*
%TO.P,J31,2,Pin_2*%
%TO.N,VDC*%
X138260000Y-123805000D03*
%TD*%
D10*
%TO.P,J24,1,Pin_1*%
%TO.N,LED24*%
X117440000Y-131110000D03*
D11*
%TO.P,J24,2,Pin_2*%
%TO.N,VDC*%
X119940000Y-131110000D03*
%TD*%
D10*
%TO.P,J35,1,Pin_1*%
%TO.N,GND*%
X117470000Y-65840000D03*
D11*
%TO.P,J35,2,Pin_2*%
%TO.N,OE3*%
X119970000Y-65840000D03*
%TD*%
D10*
%TO.P,J12,1,Pin_1*%
%TO.N,LED12*%
X100155000Y-102050000D03*
D11*
%TO.P,J12,2,Pin_2*%
%TO.N,VDC*%
X102655000Y-102050000D03*
%TD*%
D10*
%TO.P,J26,1,Pin_1*%
%TO.N,LED26*%
X135835000Y-87555000D03*
D11*
%TO.P,J26,2,Pin_2*%
%TO.N,VDC*%
X138335000Y-87555000D03*
%TD*%
D10*
%TO.P,J8,1,Pin_1*%
%TO.N,LED8*%
X81900000Y-131175000D03*
D11*
%TO.P,J8,2,Pin_2*%
%TO.N,VDC*%
X84400000Y-131175000D03*
%TD*%
D12*
%TO.P,H4,1*%
%TO.N,N/C*%
X146500000Y-137500000D03*
%TD*%
D10*
%TO.P,J20,1,Pin_1*%
%TO.N,LED20*%
X117440000Y-102110000D03*
D11*
%TO.P,J20,2,Pin_2*%
%TO.N,VDC*%
X119940000Y-102110000D03*
%TD*%
D12*
%TO.P,H2,1*%
%TO.N,N/C*%
X146500000Y-64500000D03*
%TD*%
D10*
%TO.P,J18,1,Pin_1*%
%TO.N,LED18*%
X117440000Y-87635000D03*
D11*
%TO.P,J18,2,Pin_2*%
%TO.N,VDC*%
X119940000Y-87635000D03*
%TD*%
D10*
%TO.P,J1,1,Pin_1*%
%TO.N,LED1*%
X81900000Y-80525000D03*
D11*
%TO.P,J1,2,Pin_2*%
%TO.N,VDC*%
X84400000Y-80525000D03*
%TD*%
D13*
%TO.P,J103,5,Pin_5*%
%TO.N,SDI*%
X73210000Y-72080000D03*
%TO.P,J103,4,Pin_4*%
%TO.N,CLK*%
X73210000Y-74580000D03*
%TO.P,J103,3,Pin_3*%
%TO.N,LATCH*%
X73210000Y-77080000D03*
%TO.P,J103,2,Pin_2*%
%TO.N,+5V*%
X73210000Y-79580000D03*
D14*
%TO.P,J103,1,Pin_1*%
%TO.N,GND*%
X73210000Y-82080000D03*
%TD*%
D10*
%TO.P,J10,1,Pin_1*%
%TO.N,LED10*%
X100180000Y-87625000D03*
D11*
%TO.P,J10,2,Pin_2*%
%TO.N,VDC*%
X102680000Y-87625000D03*
%TD*%
D10*
%TO.P,J17,1,Pin_1*%
%TO.N,LED17*%
X117440000Y-80485000D03*
D11*
%TO.P,J17,2,Pin_2*%
%TO.N,VDC*%
X119940000Y-80485000D03*
%TD*%
D10*
%TO.P,J21,1,Pin_1*%
%TO.N,LED21*%
X117440000Y-109360000D03*
D11*
%TO.P,J21,2,Pin_2*%
%TO.N,VDC*%
X119940000Y-109360000D03*
%TD*%
D10*
%TO.P,J19,1,Pin_1*%
%TO.N,LED19*%
X117440000Y-94885000D03*
D11*
%TO.P,J19,2,Pin_2*%
%TO.N,VDC*%
X119940000Y-94885000D03*
%TD*%
D10*
%TO.P,J6,1,Pin_1*%
%TO.N,LED6*%
X81900000Y-116675000D03*
D11*
%TO.P,J6,2,Pin_2*%
%TO.N,VDC*%
X84400000Y-116675000D03*
%TD*%
D10*
%TO.P,J22,1,Pin_1*%
%TO.N,LED22*%
X117440000Y-116660000D03*
D11*
%TO.P,J22,2,Pin_2*%
%TO.N,VDC*%
X119940000Y-116660000D03*
%TD*%
D10*
%TO.P,J28,1,Pin_1*%
%TO.N,LED28*%
X135785000Y-102005000D03*
D11*
%TO.P,J28,2,Pin_2*%
%TO.N,VDC*%
X138285000Y-102005000D03*
%TD*%
D10*
%TO.P,J13,1,Pin_1*%
%TO.N,LED13*%
X100130000Y-109350000D03*
D11*
%TO.P,J13,2,Pin_2*%
%TO.N,VDC*%
X102630000Y-109350000D03*
%TD*%
D10*
%TO.P,J33,1,Pin_1*%
%TO.N,GND*%
X81990000Y-65910000D03*
D11*
%TO.P,J33,2,Pin_2*%
%TO.N,OE1*%
X84490000Y-65910000D03*
%TD*%
D10*
%TO.P,J2,1,Pin_1*%
%TO.N,LED2*%
X81900000Y-87650000D03*
D11*
%TO.P,J2,2,Pin_2*%
%TO.N,VDC*%
X84400000Y-87650000D03*
%TD*%
D10*
%TO.P,J34,1,Pin_1*%
%TO.N,GND*%
X100160000Y-65890000D03*
D11*
%TO.P,J34,2,Pin_2*%
%TO.N,OE2*%
X102660000Y-65890000D03*
%TD*%
D10*
%TO.P,J23,1,Pin_1*%
%TO.N,LED23*%
X117440000Y-123835000D03*
D11*
%TO.P,J23,2,Pin_2*%
%TO.N,VDC*%
X119940000Y-123835000D03*
%TD*%
D10*
%TO.P,J14,1,Pin_1*%
%TO.N,LED14*%
X100130000Y-116625000D03*
D11*
%TO.P,J14,2,Pin_2*%
%TO.N,VDC*%
X102630000Y-116625000D03*
%TD*%
D15*
%TO.P,J102,1,Pin_1*%
%TO.N,GND*%
X73210000Y-125400000D03*
D16*
%TO.P,J102,2,Pin_2*%
%TO.N,VDC*%
X73210000Y-122900000D03*
%TD*%
D10*
%TO.P,J11,1,Pin_1*%
%TO.N,LED11*%
X100180000Y-94875000D03*
D11*
%TO.P,J11,2,Pin_2*%
%TO.N,VDC*%
X102680000Y-94875000D03*
%TD*%
D10*
%TO.P,J9,1,Pin_1*%
%TO.N,LED9*%
X100180000Y-80525000D03*
D11*
%TO.P,J9,2,Pin_2*%
%TO.N,VDC*%
X102680000Y-80525000D03*
%TD*%
D10*
%TO.P,J4,1,Pin_1*%
%TO.N,LED4*%
X81900000Y-102225000D03*
D11*
%TO.P,J4,2,Pin_2*%
%TO.N,VDC*%
X84400000Y-102225000D03*
%TD*%
D10*
%TO.P,J16,1,Pin_1*%
%TO.N,LED16*%
X100155000Y-131125000D03*
D11*
%TO.P,J16,2,Pin_2*%
%TO.N,VDC*%
X102655000Y-131125000D03*
%TD*%
D17*
%TO.N,LATCH*%
X96260000Y-123626764D03*
X133835000Y-97435000D03*
X96620000Y-93190000D03*
X132710000Y-122729232D03*
%TO.N,SDI*%
X91660000Y-127690000D03*
%TO.N,GND*%
X113265000Y-119175000D03*
X86290000Y-118180000D03*
X144820000Y-85330000D03*
X87360000Y-85590000D03*
X117220000Y-91870000D03*
X113740000Y-85420000D03*
X78110000Y-73000000D03*
X131540000Y-80200000D03*
X100290000Y-119630000D03*
X133190000Y-88336764D03*
X88085000Y-80065000D03*
X90035000Y-136855000D03*
X98310000Y-107240000D03*
X136120000Y-84210000D03*
X124800000Y-104480000D03*
X130000000Y-137080000D03*
X135170000Y-105310000D03*
X135915000Y-70861764D03*
X90790000Y-103930000D03*
X92240000Y-112940000D03*
X85935000Y-128051764D03*
X123780000Y-113100000D03*
X93960000Y-80090000D03*
X121840000Y-71225000D03*
X112690000Y-103300000D03*
X113040000Y-93400000D03*
X112890000Y-71875000D03*
X130340000Y-86636764D03*
X113190000Y-112075000D03*
X135860000Y-127030000D03*
X106020000Y-85860000D03*
X128900000Y-130060000D03*
X136080000Y-119640000D03*
X106040000Y-93630000D03*
X106115000Y-112130000D03*
X129660000Y-102650000D03*
X93620000Y-130120000D03*
X71930000Y-132710000D03*
X92110000Y-88560000D03*
X145320000Y-71820000D03*
X107820000Y-139180000D03*
X106040000Y-103230000D03*
X71880000Y-96870000D03*
X86250000Y-111040000D03*
X117320000Y-83570000D03*
X144860000Y-132270000D03*
X144780000Y-114540000D03*
X117290000Y-98190000D03*
X144750000Y-97580000D03*
X106190000Y-126555000D03*
X113120000Y-80240000D03*
X89750000Y-112130000D03*
X98250000Y-81920000D03*
X128170000Y-66690000D03*
X95100000Y-98910000D03*
X86270000Y-122660000D03*
X106115000Y-119330000D03*
X113265000Y-126700000D03*
X95750000Y-85670000D03*
X92700000Y-106020000D03*
X135250000Y-99770000D03*
X106305000Y-80305000D03*
X129800000Y-82230000D03*
X100770000Y-98200000D03*
X71880000Y-109140000D03*
X71880000Y-103120000D03*
X124240000Y-103850000D03*
%TO.N,CLK*%
X96685000Y-94851764D03*
X132635097Y-97268611D03*
X131770882Y-124655882D03*
X96785000Y-124776764D03*
%TO.N,Net-(U1-SDO)*%
X97360000Y-98669465D03*
X91010000Y-125065000D03*
%TO.N,Net-(U2-SDO)*%
X97710000Y-125640000D03*
X126990000Y-135810000D03*
%TO.N,Net-(U3-SDO)*%
X131860000Y-96636764D03*
X127181814Y-124951814D03*
%TO.N,LED1*%
X82980000Y-90280000D03*
X86750000Y-102380000D03*
%TO.N,LED2*%
X85950000Y-103110000D03*
%TO.N,LED11*%
X99050000Y-89800000D03*
%TO.N,LED12*%
X96910053Y-87950526D03*
%TO.N,LED13*%
X100185000Y-106230000D03*
%TO.N,LED17*%
X122620000Y-96950000D03*
%TO.N,LED18*%
X121770000Y-97790000D03*
%TO.N,LED26*%
X134340000Y-91560000D03*
%TO.N,OE4*%
X123820000Y-82150000D03*
X123820000Y-87360000D03*
%TO.N,Net-(R3-Pad1)*%
X123020000Y-80150000D03*
X125980000Y-112800000D03*
%TO.N,+5V*%
X87470000Y-128350000D03*
X100690000Y-134270000D03*
X123710000Y-99330000D03*
X123080000Y-126870000D03*
X122650000Y-129600000D03*
X87780000Y-98820000D03*
%TD*%
D18*
%TO.N,CLK*%
X73260000Y-74580000D02*
X73210000Y-74580000D01*
X97490000Y-90852786D02*
X90412214Y-83775000D01*
X97490000Y-94046764D02*
X97490000Y-90852786D01*
X82455000Y-83775000D02*
X73260000Y-74580000D01*
X96685000Y-94851764D02*
X97490000Y-94046764D01*
X90412214Y-83775000D02*
X82455000Y-83775000D01*
%TO.N,+5V*%
X80820000Y-85730000D02*
X74670000Y-79580000D01*
X85410000Y-85730000D02*
X80820000Y-85730000D01*
X87770000Y-88090000D02*
X85410000Y-85730000D01*
X74670000Y-79580000D02*
X73210000Y-79580000D01*
X87770000Y-98450000D02*
X87770000Y-88090000D01*
%TO.N,SDI*%
X71670000Y-73620000D02*
X73210000Y-72080000D01*
X71670000Y-77610000D02*
X71670000Y-73620000D01*
X72390000Y-78330000D02*
X71670000Y-77610000D01*
X74770000Y-78330000D02*
X72390000Y-78330000D01*
X81500000Y-85060000D02*
X74770000Y-78330000D01*
X88630000Y-87851364D02*
X85838636Y-85060000D01*
X85838636Y-85060000D02*
X81500000Y-85060000D01*
X88630000Y-126650000D02*
X88630000Y-87851364D01*
X89670000Y-127690000D02*
X88630000Y-126650000D01*
X91660000Y-127690000D02*
X89670000Y-127690000D01*
%TO.N,LATCH*%
X74620000Y-77080000D02*
X73210000Y-77080000D01*
X81916000Y-84376000D02*
X74620000Y-77080000D01*
X90136000Y-84376000D02*
X81916000Y-84376000D01*
X96620000Y-90860000D02*
X90136000Y-84376000D01*
X96620000Y-93190000D02*
X96620000Y-90860000D01*
X95885000Y-95551764D02*
X98160000Y-97826764D01*
X95885000Y-93925000D02*
X95885000Y-95551764D01*
X95984000Y-132813942D02*
X99781058Y-136611000D01*
X133835000Y-97435000D02*
X132740000Y-98530000D01*
X95984000Y-123902764D02*
X95984000Y-132813942D01*
X132740000Y-122699232D02*
X132710000Y-122729232D01*
X96620000Y-93190000D02*
X95885000Y-93925000D01*
X96310000Y-123576764D02*
X96260000Y-123626764D01*
X127321786Y-136611000D02*
X132710000Y-131222786D01*
X99781058Y-136611000D02*
X127321786Y-136611000D01*
X132740000Y-98530000D02*
X132740000Y-122699232D01*
X132710000Y-131222786D02*
X132710000Y-122729232D01*
X96260000Y-123626764D02*
X95984000Y-123902764D01*
X96310000Y-100850836D02*
X96310000Y-123576764D01*
X98160000Y-99000836D02*
X96310000Y-100850836D01*
X98160000Y-97826764D02*
X98160000Y-99000836D01*
%TO.N,CLK*%
X98760000Y-96926764D02*
X96685000Y-94851764D01*
X97979550Y-124776764D02*
X98904000Y-125701214D01*
X126510000Y-135160000D02*
X131770882Y-129899118D01*
X97170000Y-100839364D02*
X98760000Y-99249364D01*
X96785000Y-124776764D02*
X97170000Y-124391764D01*
X131815000Y-124611764D02*
X131770882Y-124655882D01*
X132635097Y-97268611D02*
X132571389Y-97268611D01*
X131770882Y-129899118D02*
X131770882Y-124655882D01*
X98760000Y-99249364D02*
X98760000Y-96926764D01*
X100029942Y-135160000D02*
X126510000Y-135160000D01*
X96785000Y-124776764D02*
X97979550Y-124776764D01*
X98904000Y-134034058D02*
X100029942Y-135160000D01*
X132571389Y-97268611D02*
X131815000Y-98025000D01*
X131815000Y-98025000D02*
X131815000Y-124611764D01*
X97170000Y-124391764D02*
X97170000Y-100839364D01*
X98904000Y-125701214D02*
X98904000Y-134034058D01*
D19*
%TO.N,VDC*%
X120018265Y-78175000D02*
X120003265Y-78160000D01*
X138260000Y-131080000D02*
X138235000Y-131105000D01*
X119940000Y-80485000D02*
X119940000Y-87635000D01*
X119940000Y-116660000D02*
X119940000Y-123835000D01*
X138360000Y-87530000D02*
X138335000Y-87555000D01*
X102685000Y-80576764D02*
X102735000Y-80526764D01*
D18*
X84260000Y-123901764D02*
X84185000Y-123826764D01*
D19*
X102950000Y-123611764D02*
X102685000Y-123876764D01*
X119940000Y-78253265D02*
X120018265Y-78175000D01*
X102655000Y-102050000D02*
X102655000Y-109325000D01*
X84235000Y-94851764D02*
X84210000Y-94876764D01*
X119940000Y-80485000D02*
X119940000Y-78253265D01*
X102630000Y-109350000D02*
X102630000Y-116625000D01*
X138260000Y-123805000D02*
X138260000Y-131080000D01*
X138335000Y-94780000D02*
X138310000Y-94805000D01*
X138285000Y-116530000D02*
X138285000Y-123780000D01*
X138565000Y-87586764D02*
X138540000Y-87611764D01*
X84210000Y-131051764D02*
X84260000Y-131101764D01*
X120018265Y-78175000D02*
X137705000Y-78175000D01*
X84260000Y-87551764D02*
X84235000Y-87576764D01*
X84400000Y-109450000D02*
X84400000Y-116675000D01*
X102655000Y-109325000D02*
X102630000Y-109350000D01*
X102680000Y-80525000D02*
X102680000Y-78485000D01*
X102680000Y-87625000D02*
X102680000Y-94875000D01*
X120003265Y-102048499D02*
X119915000Y-102136764D01*
X138310000Y-94805000D02*
X138310000Y-101980000D01*
X119940000Y-102110000D02*
X119940000Y-94885000D01*
X138360000Y-80480000D02*
X138360000Y-87530000D01*
X138310000Y-116505000D02*
X138285000Y-116530000D01*
X138285000Y-102005000D02*
X138285000Y-109355000D01*
X120013265Y-78180000D02*
X101155000Y-78180000D01*
D18*
X84210000Y-102151764D02*
X84351764Y-102151764D01*
D19*
X138285000Y-123780000D02*
X138260000Y-123805000D01*
X86496764Y-78215000D02*
X84260000Y-80451764D01*
X102630000Y-123875000D02*
X102630000Y-131100000D01*
X138310000Y-101980000D02*
X138285000Y-102005000D01*
X137705000Y-78175000D02*
X138360000Y-78830000D01*
D18*
X138540000Y-87611764D02*
X138540000Y-88210000D01*
D19*
X102630000Y-116625000D02*
X102630000Y-123875000D01*
X84400000Y-102225000D02*
X84400000Y-109450000D01*
X102710000Y-131126764D02*
X102685000Y-131101764D01*
X102680000Y-78485000D02*
X102950000Y-78215000D01*
X120003265Y-78160000D02*
X119988265Y-78175000D01*
X138565000Y-80536764D02*
X138565000Y-80194912D01*
X120018265Y-78175000D02*
X120013265Y-78180000D01*
X119940000Y-123835000D02*
X119940000Y-131110000D01*
X119940000Y-102110000D02*
X119940000Y-109360000D01*
X102680000Y-94875000D02*
X102680000Y-102025000D01*
X84400000Y-123900000D02*
X84400000Y-131175000D01*
X84400000Y-116675000D02*
X84400000Y-123900000D01*
X138335000Y-87555000D02*
X138335000Y-94780000D01*
D18*
X138540000Y-88210000D02*
X138515000Y-88235000D01*
D19*
X138285000Y-109355000D02*
X138310000Y-109380000D01*
X119940000Y-109360000D02*
X119940000Y-116660000D01*
D18*
X84351764Y-102151764D02*
X84460000Y-102260000D01*
D19*
X102950000Y-78215000D02*
X86496764Y-78215000D01*
X138310000Y-109380000D02*
X138310000Y-116505000D01*
X138360000Y-78830000D02*
X138360000Y-80480000D01*
X102680000Y-102025000D02*
X102655000Y-102050000D01*
X102680000Y-80525000D02*
X102680000Y-87625000D01*
X138515000Y-131086764D02*
X138440000Y-131161764D01*
X102630000Y-131100000D02*
X102655000Y-131125000D01*
D18*
%TO.N,Net-(U1-SDO)*%
X95710000Y-100319465D02*
X95710000Y-120365000D01*
X95710000Y-120365000D02*
X91010000Y-125065000D01*
X97360000Y-98669465D02*
X95710000Y-100319465D01*
%TO.N,Net-(U2-SDO)*%
X97710000Y-133690000D02*
X97710000Y-125640000D01*
X126990000Y-135810000D02*
X126930000Y-135870000D01*
X99830000Y-135810000D02*
X97710000Y-133690000D01*
X126990000Y-135810000D02*
X99830000Y-135810000D01*
%TO.N,Net-(U3-SDO)*%
X131190000Y-97306764D02*
X131860000Y-96636764D01*
X130090000Y-124960000D02*
X131190000Y-123860000D01*
X127190000Y-124960000D02*
X130090000Y-124960000D01*
X127181814Y-124951814D02*
X127190000Y-124960000D01*
X131190000Y-123860000D02*
X131190000Y-97306764D01*
%TO.N,LED1*%
X82985000Y-91515000D02*
X82985000Y-90285000D01*
D19*
X81760000Y-80115000D02*
X81760000Y-80451764D01*
D18*
X86750000Y-102380000D02*
X86750000Y-95280000D01*
X82985000Y-90285000D02*
X82980000Y-90280000D01*
X86750000Y-95280000D02*
X82985000Y-91515000D01*
%TO.N,LED2*%
X81735000Y-92265000D02*
X81735000Y-87576764D01*
X85950000Y-103110000D02*
X85950000Y-98892930D01*
X85950000Y-98892930D02*
X83150000Y-96092930D01*
X83150000Y-96092930D02*
X83150000Y-93680000D01*
X81735000Y-87576764D02*
X81760000Y-87551764D01*
X83150000Y-93680000D02*
X81735000Y-92265000D01*
%TO.N,LED3*%
X81735000Y-94851764D02*
X81710000Y-94876764D01*
%TO.N,LED4*%
X81873236Y-102151764D02*
X81710000Y-102151764D01*
%TO.N,LED5*%
X81710000Y-109351764D02*
X81735000Y-109376764D01*
%TO.N,LED6*%
X81735000Y-116576764D02*
X81710000Y-116601764D01*
%TO.N,LED7*%
X81685000Y-124051764D02*
X81760000Y-124126764D01*
X81710000Y-123801764D02*
X81685000Y-123826764D01*
X81685000Y-123826764D02*
X81685000Y-124051764D01*
%TO.N,LED11*%
X98800000Y-90080000D02*
X98800000Y-93441764D01*
X98800000Y-93441764D02*
X100235000Y-94876764D01*
X99050000Y-89800000D02*
X99050000Y-89830000D01*
X100210000Y-94901764D02*
X100235000Y-94876764D01*
X99050000Y-89830000D02*
X98800000Y-90080000D01*
%TO.N,LED12*%
X98090000Y-95408236D02*
X99360000Y-96678236D01*
X99360000Y-101201764D02*
X100210000Y-102051764D01*
X99360000Y-96678236D02*
X99360000Y-101201764D01*
X100185000Y-102076764D02*
X100210000Y-102051764D01*
X97110000Y-88271371D02*
X98090000Y-89251371D01*
X96910053Y-87950526D02*
X97110000Y-88150473D01*
X97110000Y-88150473D02*
X97110000Y-88271371D01*
X98090000Y-89251371D02*
X98090000Y-95408236D01*
%TO.N,LED13*%
X100185000Y-106230000D02*
X100185000Y-109351764D01*
%TO.N,LED15*%
X100210000Y-123901764D02*
X100185000Y-123876764D01*
%TO.N,LED17*%
X118690000Y-81786764D02*
X117415000Y-80511764D01*
X122410000Y-92890000D02*
X118690000Y-89170000D01*
X118690000Y-89170000D02*
X118690000Y-81786764D01*
X122620000Y-96950000D02*
X122410000Y-96740000D01*
X122410000Y-96740000D02*
X122410000Y-92890000D01*
%TO.N,LED18*%
X117390000Y-87586764D02*
X117465000Y-87661764D01*
X117415000Y-88975000D02*
X117415000Y-87661764D01*
X121770000Y-93330000D02*
X117415000Y-88975000D01*
X121770000Y-97790000D02*
X121770000Y-93330000D01*
%TO.N,LED19*%
X117465000Y-94886764D02*
X117490000Y-94911764D01*
%TO.N,LED20*%
X117490000Y-102086764D02*
X117440000Y-102136764D01*
X117415000Y-102352452D02*
X117415000Y-102136764D01*
%TO.N,LED21*%
X117440000Y-109361764D02*
X117415000Y-109386764D01*
%TO.N,LED22*%
X117415000Y-116636764D02*
X117365000Y-116686764D01*
%TO.N,LED24*%
X117365000Y-131086764D02*
X117415000Y-131136764D01*
%TO.N,LED25*%
X136040000Y-80561764D02*
X136065000Y-80536764D01*
D19*
X136040000Y-80561764D02*
X136040000Y-80425000D01*
D18*
%TO.N,LED26*%
X136015000Y-87636764D02*
X136040000Y-87611764D01*
X134340000Y-91560000D02*
X136040000Y-89860000D01*
X136040000Y-89860000D02*
X136040000Y-87611764D01*
%TO.N,LED27*%
X135990000Y-94886764D02*
X136015000Y-94861764D01*
%TO.N,LED28*%
X136015000Y-102086764D02*
X135990000Y-102061764D01*
%TO.N,LED29*%
X135990000Y-109461764D02*
X136015000Y-109436764D01*
%TO.N,LED30*%
X135965000Y-116611764D02*
X135990000Y-116586764D01*
%TO.N,LED31*%
X135940000Y-123886764D02*
X135965000Y-123861764D01*
%TO.N,OE4*%
X123820000Y-82150000D02*
X123690000Y-82280000D01*
X123690000Y-87230000D02*
X123820000Y-87360000D01*
X123690000Y-82280000D02*
X123690000Y-87230000D01*
%TO.N,Net-(R3-Pad1)*%
X125960000Y-83090000D02*
X123020000Y-80150000D01*
X125980000Y-112800000D02*
X125960000Y-112780000D01*
X125960000Y-112780000D02*
X125960000Y-83090000D01*
%TO.N,+5V*%
X123080000Y-100020000D02*
X123710000Y-99390000D01*
X87780000Y-128040000D02*
X87470000Y-128350000D01*
X120670000Y-134270000D02*
X122270000Y-132670000D01*
X122250000Y-132650000D02*
X122250000Y-130000000D01*
X122250000Y-130000000D02*
X122650000Y-129600000D01*
X122270000Y-132670000D02*
X122250000Y-132650000D01*
X123080000Y-126870000D02*
X123080000Y-100020000D01*
X100690000Y-134270000D02*
X120670000Y-134270000D01*
X123710000Y-99390000D02*
X123710000Y-99330000D01*
X87780000Y-98820000D02*
X87780000Y-128040000D01*
%TD*%
%TA.AperFunction,Conductor*%
%TO.N,GND*%
G36*
X116084214Y-79308185D02*
G01*
X116129969Y-79360989D01*
X116139913Y-79430147D01*
X116134881Y-79451503D01*
X116092113Y-79580570D01*
X116092113Y-79580571D01*
X116081500Y-79684447D01*
X116081500Y-81285537D01*
X116081501Y-81285553D01*
X116092113Y-81389427D01*
X116147884Y-81557735D01*
X116147886Y-81557740D01*
X116174995Y-81601690D01*
X116240970Y-81708652D01*
X116366348Y-81834030D01*
X116517262Y-81927115D01*
X116685574Y-81982887D01*
X116789455Y-81993500D01*
X117843402Y-81993499D01*
X117872848Y-82002145D01*
X117902829Y-82008667D01*
X117907842Y-82012419D01*
X117910441Y-82013183D01*
X117931083Y-82029818D01*
X117945181Y-82043916D01*
X117978666Y-82105239D01*
X117981500Y-82131597D01*
X117981500Y-86002500D01*
X117961815Y-86069539D01*
X117909011Y-86115294D01*
X117857500Y-86126500D01*
X116789462Y-86126500D01*
X116789446Y-86126501D01*
X116685572Y-86137113D01*
X116517264Y-86192884D01*
X116517259Y-86192886D01*
X116366346Y-86285971D01*
X116240971Y-86411346D01*
X116147886Y-86562259D01*
X116147884Y-86562264D01*
X116092113Y-86730572D01*
X116081500Y-86834447D01*
X116081500Y-88435537D01*
X116081501Y-88435553D01*
X116092113Y-88539427D01*
X116144190Y-88696587D01*
X116147885Y-88707738D01*
X116240970Y-88858652D01*
X116366348Y-88984030D01*
X116517262Y-89077115D01*
X116611766Y-89108430D01*
X116664122Y-89125779D01*
X116721567Y-89165551D01*
X116739679Y-89196032D01*
X116787136Y-89310604D01*
X116864671Y-89426642D01*
X116864674Y-89426646D01*
X120851192Y-93413163D01*
X120884677Y-93474486D01*
X120879693Y-93544178D01*
X120837821Y-93600111D01*
X120772357Y-93624528D01*
X120704084Y-93609676D01*
X120690626Y-93601162D01*
X120652012Y-93573108D01*
X120652011Y-93573107D01*
X120652009Y-93573106D01*
X120590969Y-93542004D01*
X120461483Y-93476027D01*
X120461480Y-93476026D01*
X120258117Y-93409951D01*
X120113923Y-93387113D01*
X120046916Y-93376500D01*
X119833084Y-93376500D01*
X119766077Y-93387113D01*
X119621882Y-93409951D01*
X119418519Y-93476026D01*
X119418516Y-93476027D01*
X119227990Y-93573106D01*
X119054997Y-93698793D01*
X118922896Y-93830894D01*
X118861573Y-93864378D01*
X118791881Y-93859394D01*
X118735948Y-93817522D01*
X118729684Y-93808320D01*
X118639030Y-93661348D01*
X118513652Y-93535970D01*
X118362738Y-93442885D01*
X118357605Y-93441184D01*
X118194427Y-93387113D01*
X118090545Y-93376500D01*
X116789462Y-93376500D01*
X116789446Y-93376501D01*
X116685572Y-93387113D01*
X116517264Y-93442884D01*
X116517259Y-93442886D01*
X116366346Y-93535971D01*
X116240971Y-93661346D01*
X116147886Y-93812259D01*
X116147884Y-93812264D01*
X116092113Y-93980572D01*
X116081500Y-94084447D01*
X116081500Y-95685537D01*
X116081501Y-95685553D01*
X116092113Y-95789427D01*
X116106108Y-95831662D01*
X116147885Y-95957738D01*
X116240970Y-96108652D01*
X116366348Y-96234030D01*
X116517262Y-96327115D01*
X116685574Y-96382887D01*
X116789455Y-96393500D01*
X118090544Y-96393499D01*
X118194426Y-96382887D01*
X118362738Y-96327115D01*
X118513652Y-96234030D01*
X118619819Y-96127863D01*
X118681142Y-96094378D01*
X118750834Y-96099362D01*
X118806767Y-96141234D01*
X118831184Y-96206698D01*
X118831500Y-96215544D01*
X118831500Y-100779456D01*
X118811815Y-100846495D01*
X118759011Y-100892250D01*
X118689853Y-100902194D01*
X118626297Y-100873169D01*
X118619819Y-100867137D01*
X118513653Y-100760971D01*
X118513652Y-100760970D01*
X118362738Y-100667885D01*
X118309820Y-100650350D01*
X118194427Y-100612113D01*
X118090545Y-100601500D01*
X116789462Y-100601500D01*
X116789446Y-100601501D01*
X116685572Y-100612113D01*
X116517264Y-100667884D01*
X116517259Y-100667886D01*
X116366346Y-100760971D01*
X116240971Y-100886346D01*
X116147886Y-101037259D01*
X116147884Y-101037264D01*
X116092113Y-101205572D01*
X116081500Y-101309447D01*
X116081500Y-102910537D01*
X116081501Y-102910553D01*
X116092113Y-103014427D01*
X116095797Y-103025544D01*
X116147885Y-103182738D01*
X116240970Y-103333652D01*
X116366348Y-103459030D01*
X116517262Y-103552115D01*
X116685574Y-103607887D01*
X116789455Y-103618500D01*
X118090544Y-103618499D01*
X118194426Y-103607887D01*
X118362738Y-103552115D01*
X118513652Y-103459030D01*
X118619819Y-103352863D01*
X118681142Y-103319378D01*
X118750834Y-103324362D01*
X118806767Y-103366234D01*
X118831184Y-103431698D01*
X118831500Y-103440544D01*
X118831500Y-108029456D01*
X118811815Y-108096495D01*
X118759011Y-108142250D01*
X118689853Y-108152194D01*
X118626297Y-108123169D01*
X118619819Y-108117137D01*
X118513653Y-108010971D01*
X118513652Y-108010970D01*
X118418230Y-107952113D01*
X118362740Y-107917886D01*
X118362735Y-107917884D01*
X118194427Y-107862113D01*
X118090545Y-107851500D01*
X116789462Y-107851500D01*
X116789446Y-107851501D01*
X116685572Y-107862113D01*
X116517264Y-107917884D01*
X116517259Y-107917886D01*
X116366346Y-108010971D01*
X116240971Y-108136346D01*
X116147886Y-108287259D01*
X116147884Y-108287264D01*
X116092113Y-108455572D01*
X116081500Y-108559447D01*
X116081500Y-110160537D01*
X116081501Y-110160553D01*
X116092113Y-110264427D01*
X116112446Y-110325789D01*
X116147885Y-110432738D01*
X116240970Y-110583652D01*
X116366348Y-110709030D01*
X116517262Y-110802115D01*
X116685574Y-110857887D01*
X116789455Y-110868500D01*
X118090544Y-110868499D01*
X118194426Y-110857887D01*
X118362738Y-110802115D01*
X118513652Y-110709030D01*
X118619819Y-110602863D01*
X118681142Y-110569378D01*
X118750834Y-110574362D01*
X118806767Y-110616234D01*
X118831184Y-110681698D01*
X118831500Y-110690544D01*
X118831500Y-115329456D01*
X118811815Y-115396495D01*
X118759011Y-115442250D01*
X118689853Y-115452194D01*
X118626297Y-115423169D01*
X118619819Y-115417137D01*
X118513653Y-115310971D01*
X118513652Y-115310970D01*
X118419898Y-115253142D01*
X118362740Y-115217886D01*
X118362735Y-115217884D01*
X118194427Y-115162113D01*
X118090545Y-115151500D01*
X116789462Y-115151500D01*
X116789446Y-115151501D01*
X116685572Y-115162113D01*
X116517264Y-115217884D01*
X116517259Y-115217886D01*
X116366346Y-115310971D01*
X116240971Y-115436346D01*
X116147886Y-115587259D01*
X116147884Y-115587264D01*
X116092113Y-115755572D01*
X116081500Y-115859447D01*
X116081500Y-117460537D01*
X116081501Y-117460553D01*
X116092113Y-117564427D01*
X116147884Y-117732735D01*
X116147886Y-117732740D01*
X116172634Y-117772863D01*
X116240970Y-117883652D01*
X116366348Y-118009030D01*
X116517262Y-118102115D01*
X116685574Y-118157887D01*
X116789455Y-118168500D01*
X118090544Y-118168499D01*
X118194426Y-118157887D01*
X118362738Y-118102115D01*
X118513652Y-118009030D01*
X118619819Y-117902863D01*
X118681142Y-117869378D01*
X118750834Y-117874362D01*
X118806767Y-117916234D01*
X118831184Y-117981698D01*
X118831500Y-117990544D01*
X118831500Y-122504456D01*
X118811815Y-122571495D01*
X118759011Y-122617250D01*
X118689853Y-122627194D01*
X118626297Y-122598169D01*
X118619819Y-122592137D01*
X118513653Y-122485971D01*
X118513652Y-122485970D01*
X118362738Y-122392885D01*
X118358558Y-122391500D01*
X118194427Y-122337113D01*
X118090545Y-122326500D01*
X116789462Y-122326500D01*
X116789446Y-122326501D01*
X116685572Y-122337113D01*
X116517264Y-122392884D01*
X116517259Y-122392886D01*
X116366346Y-122485971D01*
X116240971Y-122611346D01*
X116147886Y-122762259D01*
X116147884Y-122762264D01*
X116092113Y-122930572D01*
X116081500Y-123034447D01*
X116081500Y-124635537D01*
X116081501Y-124635553D01*
X116092113Y-124739427D01*
X116132840Y-124862335D01*
X116147885Y-124907738D01*
X116240970Y-125058652D01*
X116366348Y-125184030D01*
X116517262Y-125277115D01*
X116685574Y-125332887D01*
X116789455Y-125343500D01*
X118090544Y-125343499D01*
X118194426Y-125332887D01*
X118362738Y-125277115D01*
X118513652Y-125184030D01*
X118619819Y-125077863D01*
X118681142Y-125044378D01*
X118750834Y-125049362D01*
X118806767Y-125091234D01*
X118831184Y-125156698D01*
X118831500Y-125165544D01*
X118831500Y-129779456D01*
X118811815Y-129846495D01*
X118759011Y-129892250D01*
X118689853Y-129902194D01*
X118626297Y-129873169D01*
X118619819Y-129867137D01*
X118513653Y-129760971D01*
X118513652Y-129760970D01*
X118397747Y-129689479D01*
X118362740Y-129667886D01*
X118362735Y-129667884D01*
X118194427Y-129612113D01*
X118090545Y-129601500D01*
X116789462Y-129601500D01*
X116789446Y-129601501D01*
X116685572Y-129612113D01*
X116517264Y-129667884D01*
X116517259Y-129667886D01*
X116366346Y-129760971D01*
X116240971Y-129886346D01*
X116147886Y-130037259D01*
X116147884Y-130037264D01*
X116092113Y-130205572D01*
X116081500Y-130309447D01*
X116081500Y-131910537D01*
X116081501Y-131910553D01*
X116092113Y-132014427D01*
X116147884Y-132182735D01*
X116147886Y-132182740D01*
X116154673Y-132193743D01*
X116240970Y-132333652D01*
X116366348Y-132459030D01*
X116517262Y-132552115D01*
X116685574Y-132607887D01*
X116789455Y-132618500D01*
X118090544Y-132618499D01*
X118194426Y-132607887D01*
X118362738Y-132552115D01*
X118513652Y-132459030D01*
X118639030Y-132333652D01*
X118729679Y-132186687D01*
X118781624Y-132139966D01*
X118850587Y-132128743D01*
X118914669Y-132156587D01*
X118922896Y-132164106D01*
X119054996Y-132296206D01*
X119227991Y-132421894D01*
X119320656Y-132469109D01*
X119418516Y-132518972D01*
X119418519Y-132518973D01*
X119505127Y-132547113D01*
X119621884Y-132585049D01*
X119833084Y-132618500D01*
X119833085Y-132618500D01*
X120046915Y-132618500D01*
X120046916Y-132618500D01*
X120258116Y-132585049D01*
X120454146Y-132521355D01*
X120461480Y-132518973D01*
X120461483Y-132518972D01*
X120507614Y-132495467D01*
X120652009Y-132421894D01*
X120825004Y-132296206D01*
X120976206Y-132145004D01*
X121101894Y-131972009D01*
X121198972Y-131781483D01*
X121265049Y-131578116D01*
X121295027Y-131388841D01*
X121324956Y-131325707D01*
X121384268Y-131288776D01*
X121454130Y-131289774D01*
X121512363Y-131328384D01*
X121540477Y-131392347D01*
X121541500Y-131408240D01*
X121541500Y-132345167D01*
X121521815Y-132412206D01*
X121505181Y-132432848D01*
X120412848Y-133525181D01*
X120351525Y-133558666D01*
X120325167Y-133561500D01*
X101302526Y-133561500D01*
X101235487Y-133541815D01*
X101233672Y-133540626D01*
X101165827Y-133495294D01*
X101120335Y-133464897D01*
X100955000Y-133396413D01*
X100954992Y-133396411D01*
X100779483Y-133361500D01*
X100779479Y-133361500D01*
X100600521Y-133361500D01*
X100600516Y-133361500D01*
X100425007Y-133396411D01*
X100424999Y-133396413D01*
X100259667Y-133464896D01*
X100259657Y-133464901D01*
X100110865Y-133564321D01*
X100110861Y-133564324D01*
X99984324Y-133690861D01*
X99984321Y-133690865D01*
X99899418Y-133817932D01*
X99883251Y-133831442D01*
X99870626Y-133848308D01*
X99856981Y-133853397D01*
X99845806Y-133862737D01*
X99824901Y-133865362D01*
X99805162Y-133872725D01*
X99790930Y-133869629D01*
X99776481Y-133871444D01*
X99757475Y-133862351D01*
X99736889Y-133857873D01*
X99717010Y-133842992D01*
X99713453Y-133841290D01*
X99708635Y-133836722D01*
X99648819Y-133776906D01*
X99615334Y-133715583D01*
X99612500Y-133689225D01*
X99612500Y-132757499D01*
X99632185Y-132690460D01*
X99684989Y-132644705D01*
X99736500Y-132633499D01*
X100805537Y-132633499D01*
X100805544Y-132633499D01*
X100909426Y-132622887D01*
X101077738Y-132567115D01*
X101228652Y-132474030D01*
X101354030Y-132348652D01*
X101444679Y-132201687D01*
X101496624Y-132154966D01*
X101565587Y-132143743D01*
X101629669Y-132171587D01*
X101637896Y-132179106D01*
X101769996Y-132311206D01*
X101942991Y-132436894D01*
X102036438Y-132484507D01*
X102133516Y-132533972D01*
X102133519Y-132533973D01*
X102235200Y-132567010D01*
X102336884Y-132600049D01*
X102548084Y-132633500D01*
X102548085Y-132633500D01*
X102761915Y-132633500D01*
X102761916Y-132633500D01*
X102973116Y-132600049D01*
X103176483Y-132533972D01*
X103367009Y-132436894D01*
X103540004Y-132311206D01*
X103691206Y-132160004D01*
X103816894Y-131987009D01*
X103913972Y-131796483D01*
X103980049Y-131593116D01*
X104013500Y-131381916D01*
X104013500Y-130868084D01*
X103980049Y-130656884D01*
X103941559Y-130538422D01*
X103913973Y-130453519D01*
X103913972Y-130453516D01*
X103842368Y-130312987D01*
X103816894Y-130262991D01*
X103775698Y-130206289D01*
X103762182Y-130187685D01*
X103738702Y-130121879D01*
X103738500Y-130114800D01*
X103738500Y-124850789D01*
X103758185Y-124783750D01*
X103762183Y-124777903D01*
X103791891Y-124737013D01*
X103791890Y-124737013D01*
X103791894Y-124737009D01*
X103888972Y-124546483D01*
X103955049Y-124343116D01*
X103988500Y-124131916D01*
X103988500Y-124022411D01*
X103994569Y-123984093D01*
X104007510Y-123944264D01*
X104031205Y-123871338D01*
X104058500Y-123699005D01*
X104058500Y-123524522D01*
X104031205Y-123352190D01*
X104026232Y-123336884D01*
X103977290Y-123186252D01*
X103977286Y-123186241D01*
X103898073Y-123030781D01*
X103795522Y-122889631D01*
X103795518Y-122889626D01*
X103774819Y-122868927D01*
X103741334Y-122807604D01*
X103738500Y-122781246D01*
X103738500Y-117600789D01*
X103758185Y-117533750D01*
X103762183Y-117527903D01*
X103791891Y-117487013D01*
X103791890Y-117487013D01*
X103791894Y-117487009D01*
X103888972Y-117296483D01*
X103955049Y-117093116D01*
X103988500Y-116881916D01*
X103988500Y-116368084D01*
X103955049Y-116156884D01*
X103922010Y-116055200D01*
X103888973Y-115953519D01*
X103888972Y-115953516D01*
X103840566Y-115858516D01*
X103791894Y-115762991D01*
X103762182Y-115722095D01*
X103738702Y-115656289D01*
X103738500Y-115649210D01*
X103738500Y-110325789D01*
X103758185Y-110258750D01*
X103762183Y-110252903D01*
X103791891Y-110212013D01*
X103791890Y-110212013D01*
X103791894Y-110212009D01*
X103888972Y-110021483D01*
X103955049Y-109818116D01*
X103988500Y-109606916D01*
X103988500Y-109093084D01*
X103955049Y-108881884D01*
X103898720Y-108708519D01*
X103888973Y-108678519D01*
X103888972Y-108678516D01*
X103864239Y-108629977D01*
X103791894Y-108487991D01*
X103787179Y-108481502D01*
X103763702Y-108415696D01*
X103763500Y-108408620D01*
X103763500Y-103025789D01*
X103783185Y-102958750D01*
X103787183Y-102952903D01*
X103816891Y-102912013D01*
X103816890Y-102912013D01*
X103816894Y-102912009D01*
X103913972Y-102721483D01*
X103980049Y-102518116D01*
X104013500Y-102306916D01*
X104013500Y-101793084D01*
X103980049Y-101581884D01*
X103928898Y-101424455D01*
X103913973Y-101378519D01*
X103913972Y-101378516D01*
X103889239Y-101329977D01*
X103816894Y-101187991D01*
X103812179Y-101181502D01*
X103788702Y-101115696D01*
X103788500Y-101108620D01*
X103788500Y-95850789D01*
X103808185Y-95783750D01*
X103812183Y-95777903D01*
X103841891Y-95737013D01*
X103841890Y-95737013D01*
X103841894Y-95737009D01*
X103938972Y-95546483D01*
X104005049Y-95343116D01*
X104038500Y-95131916D01*
X104038500Y-94618084D01*
X104005049Y-94406884D01*
X103938972Y-94203517D01*
X103938972Y-94203516D01*
X103903305Y-94133516D01*
X103841894Y-94012991D01*
X103818342Y-93980574D01*
X103812182Y-93972095D01*
X103788702Y-93906289D01*
X103788500Y-93899210D01*
X103788500Y-88600789D01*
X103808185Y-88533750D01*
X103812183Y-88527903D01*
X103841891Y-88487013D01*
X103841890Y-88487013D01*
X103841894Y-88487009D01*
X103938972Y-88296483D01*
X104005049Y-88093116D01*
X104038500Y-87881916D01*
X104038500Y-87368084D01*
X104005049Y-87156884D01*
X103964823Y-87033079D01*
X103938973Y-86953519D01*
X103938972Y-86953516D01*
X103903305Y-86883516D01*
X103841894Y-86762991D01*
X103818342Y-86730574D01*
X103812182Y-86722095D01*
X103788702Y-86656289D01*
X103788500Y-86649210D01*
X103788500Y-81500789D01*
X103808185Y-81433750D01*
X103812183Y-81427903D01*
X103841891Y-81387013D01*
X103841890Y-81387013D01*
X103841894Y-81387009D01*
X103938972Y-81196483D01*
X104005049Y-80993116D01*
X104038500Y-80781916D01*
X104038500Y-80268084D01*
X104005049Y-80056884D01*
X103949204Y-79885007D01*
X103938973Y-79853519D01*
X103938972Y-79853516D01*
X103905354Y-79787539D01*
X103841894Y-79662991D01*
X103829520Y-79645959D01*
X103812182Y-79622095D01*
X103805029Y-79602050D01*
X103793523Y-79584145D01*
X103790068Y-79560118D01*
X103788702Y-79556289D01*
X103788500Y-79549210D01*
X103788500Y-79412500D01*
X103808185Y-79345461D01*
X103860989Y-79299706D01*
X103912500Y-79288500D01*
X116017175Y-79288500D01*
X116084214Y-79308185D01*
G37*
%TD.AperFunction*%
%TA.AperFunction,Conductor*%
G36*
X98570834Y-100543014D02*
G01*
X98626767Y-100584886D01*
X98651184Y-100650350D01*
X98651500Y-100659196D01*
X98651500Y-101271549D01*
X98678724Y-101408418D01*
X98678727Y-101408427D01*
X98691191Y-101438517D01*
X98732131Y-101537358D01*
X98732138Y-101537370D01*
X98775602Y-101602418D01*
X98796480Y-101669095D01*
X98796500Y-101671309D01*
X98796500Y-102850537D01*
X98796501Y-102850553D01*
X98807113Y-102954427D01*
X98856690Y-103104041D01*
X98862885Y-103122738D01*
X98955970Y-103273652D01*
X99081348Y-103399030D01*
X99232262Y-103492115D01*
X99400574Y-103547887D01*
X99504455Y-103558500D01*
X100805544Y-103558499D01*
X100909426Y-103547887D01*
X101077738Y-103492115D01*
X101228652Y-103399030D01*
X101334819Y-103292863D01*
X101396142Y-103259378D01*
X101465834Y-103264362D01*
X101521767Y-103306234D01*
X101546184Y-103371698D01*
X101546500Y-103380544D01*
X101546500Y-108044636D01*
X101526815Y-108111675D01*
X101474011Y-108157430D01*
X101404853Y-108167374D01*
X101341297Y-108138349D01*
X101334426Y-108131165D01*
X101334137Y-108131455D01*
X101203653Y-108000971D01*
X101203652Y-108000970D01*
X101101377Y-107937886D01*
X101052740Y-107907886D01*
X101052735Y-107907884D01*
X101051002Y-107907309D01*
X100978495Y-107883283D01*
X100921051Y-107843511D01*
X100894228Y-107778995D01*
X100893500Y-107765578D01*
X100893500Y-106842526D01*
X100913185Y-106775487D01*
X100914398Y-106773635D01*
X100990098Y-106660342D01*
X100990098Y-106660341D01*
X100990102Y-106660336D01*
X101058587Y-106495000D01*
X101093500Y-106319479D01*
X101093500Y-106140521D01*
X101058587Y-105965000D01*
X100990102Y-105799664D01*
X100990100Y-105799661D01*
X100990098Y-105799657D01*
X100890678Y-105650865D01*
X100890675Y-105650861D01*
X100764138Y-105524324D01*
X100764134Y-105524321D01*
X100615342Y-105424901D01*
X100615332Y-105424896D01*
X100450000Y-105356413D01*
X100449992Y-105356411D01*
X100274483Y-105321500D01*
X100274479Y-105321500D01*
X100095521Y-105321500D01*
X100095516Y-105321500D01*
X99920007Y-105356411D01*
X99919999Y-105356413D01*
X99754667Y-105424896D01*
X99754657Y-105424901D01*
X99605865Y-105524321D01*
X99605861Y-105524324D01*
X99479324Y-105650861D01*
X99479321Y-105650865D01*
X99379901Y-105799657D01*
X99379896Y-105799667D01*
X99311413Y-105964999D01*
X99311411Y-105965007D01*
X99276500Y-106140516D01*
X99276500Y-106319483D01*
X99311411Y-106494992D01*
X99311413Y-106495000D01*
X99379896Y-106660332D01*
X99379901Y-106660342D01*
X99455602Y-106773635D01*
X99476480Y-106840312D01*
X99476500Y-106842526D01*
X99476500Y-107730242D01*
X99456815Y-107797281D01*
X99404011Y-107843036D01*
X99378465Y-107851493D01*
X99375579Y-107852110D01*
X99207264Y-107907884D01*
X99207259Y-107907886D01*
X99056346Y-108000971D01*
X98930971Y-108126346D01*
X98837886Y-108277259D01*
X98837884Y-108277264D01*
X98782113Y-108445572D01*
X98771500Y-108549447D01*
X98771500Y-110150537D01*
X98771501Y-110150553D01*
X98782113Y-110254427D01*
X98814744Y-110352903D01*
X98837885Y-110422738D01*
X98930970Y-110573652D01*
X99056348Y-110699030D01*
X99207262Y-110792115D01*
X99375574Y-110847887D01*
X99479455Y-110858500D01*
X100780544Y-110858499D01*
X100884426Y-110847887D01*
X101052738Y-110792115D01*
X101203652Y-110699030D01*
X101309819Y-110592863D01*
X101371142Y-110559378D01*
X101440834Y-110564362D01*
X101496767Y-110606234D01*
X101521184Y-110671698D01*
X101521500Y-110680544D01*
X101521500Y-115294456D01*
X101501815Y-115361495D01*
X101449011Y-115407250D01*
X101379853Y-115417194D01*
X101316297Y-115388169D01*
X101309819Y-115382137D01*
X101203653Y-115275971D01*
X101203652Y-115275970D01*
X101052738Y-115182885D01*
X101035319Y-115177113D01*
X100884427Y-115127113D01*
X100780545Y-115116500D01*
X99479462Y-115116500D01*
X99479446Y-115116501D01*
X99375572Y-115127113D01*
X99207264Y-115182884D01*
X99207259Y-115182886D01*
X99056346Y-115275971D01*
X98930971Y-115401346D01*
X98837886Y-115552259D01*
X98837884Y-115552264D01*
X98782113Y-115720572D01*
X98771500Y-115824447D01*
X98771500Y-117425537D01*
X98771501Y-117425553D01*
X98782113Y-117529427D01*
X98837884Y-117697735D01*
X98837886Y-117697740D01*
X98863569Y-117739378D01*
X98930970Y-117848652D01*
X99056348Y-117974030D01*
X99207262Y-118067115D01*
X99375574Y-118122887D01*
X99479455Y-118133500D01*
X100780544Y-118133499D01*
X100884426Y-118122887D01*
X101052738Y-118067115D01*
X101203652Y-117974030D01*
X101309819Y-117867863D01*
X101371142Y-117834378D01*
X101440834Y-117839362D01*
X101496767Y-117881234D01*
X101521184Y-117946698D01*
X101521500Y-117955544D01*
X101521500Y-122544456D01*
X101501815Y-122611495D01*
X101449011Y-122657250D01*
X101379853Y-122667194D01*
X101316297Y-122638169D01*
X101309819Y-122632137D01*
X101203653Y-122525971D01*
X101203652Y-122525970D01*
X101052738Y-122432885D01*
X101052735Y-122432884D01*
X100884427Y-122377113D01*
X100780545Y-122366500D01*
X99479462Y-122366500D01*
X99479446Y-122366501D01*
X99375572Y-122377113D01*
X99207264Y-122432884D01*
X99207259Y-122432886D01*
X99056346Y-122525971D01*
X98930971Y-122651346D01*
X98837886Y-122802259D01*
X98837884Y-122802264D01*
X98782113Y-122970572D01*
X98771500Y-123074447D01*
X98771500Y-124267380D01*
X98751815Y-124334419D01*
X98699011Y-124380174D01*
X98629853Y-124390118D01*
X98566297Y-124361093D01*
X98559819Y-124355061D01*
X98431196Y-124226438D01*
X98431192Y-124226435D01*
X98315157Y-124148902D01*
X98315145Y-124148895D01*
X98204363Y-124103009D01*
X98204359Y-124103008D01*
X98195091Y-124099169D01*
X98186212Y-124095491D01*
X98099419Y-124078227D01*
X98097308Y-124077807D01*
X98049333Y-124068264D01*
X98049332Y-124068264D01*
X98049331Y-124068264D01*
X98002500Y-124068264D01*
X97935461Y-124048579D01*
X97889706Y-123995775D01*
X97878500Y-123944264D01*
X97878500Y-101184196D01*
X97898185Y-101117157D01*
X97914819Y-101096515D01*
X98439819Y-100571515D01*
X98501142Y-100538030D01*
X98570834Y-100543014D01*
G37*
%TD.AperFunction*%
%TA.AperFunction,Conductor*%
G36*
X101490834Y-96089362D02*
G01*
X101546767Y-96131234D01*
X101571184Y-96196698D01*
X101571500Y-96205544D01*
X101571500Y-100744636D01*
X101551815Y-100811675D01*
X101499011Y-100857430D01*
X101429853Y-100867374D01*
X101366297Y-100838349D01*
X101359426Y-100831165D01*
X101359137Y-100831455D01*
X101228653Y-100700971D01*
X101228652Y-100700970D01*
X101077738Y-100607885D01*
X101058469Y-100601500D01*
X100909427Y-100552113D01*
X100805552Y-100541500D01*
X100805545Y-100541500D01*
X100192500Y-100541500D01*
X100125461Y-100521815D01*
X100079706Y-100469011D01*
X100068500Y-100417500D01*
X100068500Y-96608454D01*
X100068499Y-96608451D01*
X100068384Y-96607875D01*
X100059143Y-96561413D01*
X100053231Y-96531690D01*
X100059458Y-96462099D01*
X100102321Y-96406921D01*
X100168211Y-96383677D01*
X100174848Y-96383499D01*
X100830537Y-96383499D01*
X100830544Y-96383499D01*
X100934426Y-96372887D01*
X101102738Y-96317115D01*
X101253652Y-96224030D01*
X101359819Y-96117863D01*
X101421142Y-96084378D01*
X101490834Y-96089362D01*
G37*
%TD.AperFunction*%
%TA.AperFunction,Conductor*%
G36*
X98825871Y-79343185D02*
G01*
X98871626Y-79395989D01*
X98881570Y-79465147D01*
X98876538Y-79486503D01*
X98832113Y-79620570D01*
X98832113Y-79620571D01*
X98821500Y-79724447D01*
X98821500Y-81325537D01*
X98821501Y-81325553D01*
X98832113Y-81429427D01*
X98887884Y-81597735D01*
X98887886Y-81597740D01*
X98892364Y-81605000D01*
X98980970Y-81748652D01*
X99106348Y-81874030D01*
X99257262Y-81967115D01*
X99425574Y-82022887D01*
X99529455Y-82033500D01*
X100830544Y-82033499D01*
X100934426Y-82022887D01*
X101102738Y-81967115D01*
X101253652Y-81874030D01*
X101359819Y-81767863D01*
X101421142Y-81734378D01*
X101490834Y-81739362D01*
X101546767Y-81781234D01*
X101571184Y-81846698D01*
X101571500Y-81855544D01*
X101571500Y-86294456D01*
X101551815Y-86361495D01*
X101499011Y-86407250D01*
X101429853Y-86417194D01*
X101366297Y-86388169D01*
X101359819Y-86382137D01*
X101253653Y-86275971D01*
X101253652Y-86275970D01*
X101118952Y-86192886D01*
X101102740Y-86182886D01*
X101102735Y-86182884D01*
X100934427Y-86127113D01*
X100830545Y-86116500D01*
X99529462Y-86116500D01*
X99529446Y-86116501D01*
X99425572Y-86127113D01*
X99257264Y-86182884D01*
X99257259Y-86182886D01*
X99106346Y-86275971D01*
X98980971Y-86401346D01*
X98887886Y-86552259D01*
X98887884Y-86552264D01*
X98832113Y-86720572D01*
X98821500Y-86824447D01*
X98821500Y-88425537D01*
X98821501Y-88425553D01*
X98832113Y-88529427D01*
X98887884Y-88697735D01*
X98887889Y-88697746D01*
X98908584Y-88731297D01*
X98916672Y-88760857D01*
X98926868Y-88789759D01*
X98925808Y-88794242D01*
X98927025Y-88798689D01*
X98917846Y-88827936D01*
X98910799Y-88857756D01*
X98907483Y-88860955D01*
X98906103Y-88865353D01*
X98882567Y-88884995D01*
X98860519Y-88906270D01*
X98854557Y-88908373D01*
X98852461Y-88910123D01*
X98827235Y-88918012D01*
X98813278Y-88920788D01*
X98743687Y-88914559D01*
X98688510Y-88871695D01*
X98685987Y-88868061D01*
X98640328Y-88799728D01*
X98640325Y-88799724D01*
X97854872Y-88014271D01*
X97821387Y-87952948D01*
X97818553Y-87926590D01*
X97818553Y-87861046D01*
X97818552Y-87861042D01*
X97802747Y-87781583D01*
X97783640Y-87685526D01*
X97715155Y-87520190D01*
X97715153Y-87520187D01*
X97715151Y-87520183D01*
X97615731Y-87371391D01*
X97615728Y-87371387D01*
X97489191Y-87244850D01*
X97489187Y-87244847D01*
X97340395Y-87145427D01*
X97340385Y-87145422D01*
X97175053Y-87076939D01*
X97175045Y-87076937D01*
X96999536Y-87042026D01*
X96999532Y-87042026D01*
X96820574Y-87042026D01*
X96820569Y-87042026D01*
X96645060Y-87076937D01*
X96645052Y-87076939D01*
X96479720Y-87145422D01*
X96479710Y-87145427D01*
X96330918Y-87244847D01*
X96330914Y-87244850D01*
X96204377Y-87371387D01*
X96204374Y-87371391D01*
X96104954Y-87520183D01*
X96104949Y-87520193D01*
X96036466Y-87685525D01*
X96036464Y-87685533D01*
X96001553Y-87861042D01*
X96001553Y-88040006D01*
X96001850Y-88041500D01*
X96001778Y-88042297D01*
X96002150Y-88046068D01*
X96001434Y-88046138D01*
X95995618Y-88111092D01*
X95952752Y-88166266D01*
X95886860Y-88189507D01*
X95818864Y-88173434D01*
X95792550Y-88153365D01*
X90863860Y-83224674D01*
X90863852Y-83224668D01*
X90747817Y-83147136D01*
X90747813Y-83147134D01*
X90721110Y-83136073D01*
X90656641Y-83109369D01*
X90656640Y-83109368D01*
X90618878Y-83093727D01*
X90618872Y-83093725D01*
X90550435Y-83080113D01*
X90481999Y-83066500D01*
X90481996Y-83066500D01*
X90481995Y-83066500D01*
X82799832Y-83066500D01*
X82732793Y-83046815D01*
X82712151Y-83030181D01*
X81927150Y-82245180D01*
X81893665Y-82183857D01*
X81898649Y-82114165D01*
X81940521Y-82058232D01*
X82005985Y-82033815D01*
X82014831Y-82033499D01*
X82550537Y-82033499D01*
X82550544Y-82033499D01*
X82654426Y-82022887D01*
X82822738Y-81967115D01*
X82973652Y-81874030D01*
X83099030Y-81748652D01*
X83189679Y-81601687D01*
X83241624Y-81554966D01*
X83310587Y-81543743D01*
X83374669Y-81571587D01*
X83382896Y-81579106D01*
X83514996Y-81711206D01*
X83687991Y-81836894D01*
X83781438Y-81884507D01*
X83878516Y-81933972D01*
X83878519Y-81933973D01*
X83980200Y-81967010D01*
X84081884Y-82000049D01*
X84293084Y-82033500D01*
X84293085Y-82033500D01*
X84506915Y-82033500D01*
X84506916Y-82033500D01*
X84718116Y-82000049D01*
X84921483Y-81933972D01*
X85112009Y-81836894D01*
X85285004Y-81711206D01*
X85436206Y-81560004D01*
X85561894Y-81387009D01*
X85658972Y-81196483D01*
X85725049Y-80993116D01*
X85758500Y-80781916D01*
X85758500Y-80572282D01*
X85778185Y-80505243D01*
X85794819Y-80484601D01*
X86919601Y-79359819D01*
X86980924Y-79326334D01*
X87007282Y-79323500D01*
X98758832Y-79323500D01*
X98825871Y-79343185D01*
G37*
%TD.AperFunction*%
%TA.AperFunction,Conductor*%
G36*
X144386655Y-61210043D02*
G01*
X144419322Y-61219005D01*
X144420091Y-61219861D01*
X144421194Y-61220185D01*
X144443362Y-61245769D01*
X144466012Y-61270984D01*
X144466196Y-61272120D01*
X144466949Y-61272989D01*
X144471770Y-61306520D01*
X144477188Y-61339954D01*
X144476729Y-61341007D01*
X144476893Y-61342147D01*
X144462812Y-61372978D01*
X144449302Y-61404017D01*
X144448176Y-61405028D01*
X144447868Y-61405703D01*
X144423046Y-61427602D01*
X144288193Y-61517707D01*
X144288179Y-61517717D01*
X144006514Y-61748873D01*
X143748873Y-62006514D01*
X143517717Y-62288179D01*
X143517707Y-62288193D01*
X143315282Y-62591144D01*
X143315271Y-62591162D01*
X143143516Y-62912492D01*
X143143514Y-62912497D01*
X143004074Y-63249131D01*
X142898298Y-63597830D01*
X142898295Y-63597841D01*
X142827216Y-63955187D01*
X142827213Y-63955204D01*
X142799551Y-64236062D01*
X142791500Y-64317813D01*
X142791500Y-64682187D01*
X142795598Y-64723793D01*
X142827213Y-65044795D01*
X142827216Y-65044812D01*
X142898295Y-65402158D01*
X142898298Y-65402169D01*
X143004074Y-65750868D01*
X143143514Y-66087502D01*
X143143516Y-66087507D01*
X143315271Y-66408837D01*
X143315275Y-66408844D01*
X143315278Y-66408849D01*
X143469718Y-66639986D01*
X143517707Y-66711806D01*
X143517717Y-66711820D01*
X143748873Y-66993485D01*
X144006514Y-67251126D01*
X144006519Y-67251130D01*
X144006520Y-67251131D01*
X144288185Y-67482287D01*
X144591151Y-67684722D01*
X144591160Y-67684727D01*
X144591162Y-67684728D01*
X144912492Y-67856483D01*
X144912494Y-67856483D01*
X144912500Y-67856487D01*
X145117665Y-67941469D01*
X145249131Y-67995925D01*
X145249135Y-67995926D01*
X145249137Y-67995927D01*
X145597821Y-68101699D01*
X145597827Y-68101700D01*
X145597830Y-68101701D01*
X145597841Y-68101704D01*
X145821927Y-68146276D01*
X145955194Y-68172785D01*
X146317813Y-68208500D01*
X146317816Y-68208500D01*
X146682184Y-68208500D01*
X146682187Y-68208500D01*
X147044806Y-68172785D01*
X147221696Y-68137599D01*
X147402158Y-68101704D01*
X147402169Y-68101701D01*
X147402169Y-68101700D01*
X147402179Y-68101699D01*
X147750863Y-67995927D01*
X148087500Y-67856487D01*
X148408849Y-67684722D01*
X148711815Y-67482287D01*
X148993480Y-67251131D01*
X149251131Y-66993480D01*
X149482287Y-66711815D01*
X149572398Y-66576953D01*
X149626010Y-66532149D01*
X149695335Y-66523442D01*
X149758362Y-66553596D01*
X149795082Y-66613039D01*
X149799500Y-66645845D01*
X149799500Y-135354154D01*
X149779815Y-135421193D01*
X149727011Y-135466948D01*
X149657853Y-135476892D01*
X149594297Y-135447867D01*
X149572398Y-135423045D01*
X149482292Y-135288193D01*
X149482287Y-135288185D01*
X149251131Y-135006520D01*
X149251130Y-135006519D01*
X149251126Y-135006514D01*
X148993485Y-134748873D01*
X148711820Y-134517717D01*
X148711819Y-134517716D01*
X148711815Y-134517713D01*
X148408849Y-134315278D01*
X148408844Y-134315275D01*
X148408837Y-134315271D01*
X148087507Y-134143516D01*
X148087502Y-134143514D01*
X147750868Y-134004074D01*
X147402169Y-133898298D01*
X147402158Y-133898295D01*
X147044812Y-133827216D01*
X147044795Y-133827213D01*
X146770580Y-133800206D01*
X146682187Y-133791500D01*
X146317813Y-133791500D01*
X146236062Y-133799551D01*
X145955204Y-133827213D01*
X145955187Y-133827216D01*
X145597841Y-133898295D01*
X145597830Y-133898298D01*
X145249131Y-134004074D01*
X144912497Y-134143514D01*
X144912492Y-134143516D01*
X144591162Y-134315271D01*
X144591144Y-134315282D01*
X144288193Y-134517707D01*
X144288179Y-134517717D01*
X144006514Y-134748873D01*
X143748873Y-135006514D01*
X143517717Y-135288179D01*
X143517707Y-135288193D01*
X143315282Y-135591144D01*
X143315271Y-135591162D01*
X143143516Y-135912492D01*
X143143514Y-135912497D01*
X143004074Y-136249131D01*
X142898298Y-136597830D01*
X142898295Y-136597841D01*
X142827216Y-136955187D01*
X142827213Y-136955204D01*
X142806913Y-137161325D01*
X142794016Y-137292273D01*
X142791500Y-137317816D01*
X142791500Y-137682183D01*
X142827213Y-138044795D01*
X142827216Y-138044812D01*
X142898295Y-138402158D01*
X142898298Y-138402169D01*
X143004074Y-138750868D01*
X143143514Y-139087502D01*
X143143516Y-139087507D01*
X143315271Y-139408837D01*
X143315282Y-139408855D01*
X143517707Y-139711806D01*
X143517717Y-139711820D01*
X143748873Y-139993485D01*
X144006514Y-140251126D01*
X144006519Y-140251130D01*
X144006520Y-140251131D01*
X144288185Y-140482287D01*
X144423046Y-140572398D01*
X144467851Y-140626010D01*
X144476558Y-140695335D01*
X144446404Y-140758362D01*
X144386961Y-140795082D01*
X144354155Y-140799500D01*
X75645845Y-140799500D01*
X75578806Y-140779815D01*
X75533051Y-140727011D01*
X75523107Y-140657853D01*
X75552132Y-140594297D01*
X75576954Y-140572398D01*
X75711815Y-140482287D01*
X75993480Y-140251131D01*
X76251131Y-139993480D01*
X76482287Y-139711815D01*
X76684722Y-139408849D01*
X76856487Y-139087500D01*
X76995927Y-138750863D01*
X77101699Y-138402179D01*
X77101701Y-138402169D01*
X77101704Y-138402158D01*
X77137599Y-138221696D01*
X77172785Y-138044806D01*
X77208500Y-137682187D01*
X77208500Y-137317813D01*
X77172785Y-136955194D01*
X77146276Y-136821927D01*
X77101704Y-136597841D01*
X77101701Y-136597830D01*
X77101700Y-136597827D01*
X77101699Y-136597821D01*
X76995927Y-136249137D01*
X76856487Y-135912500D01*
X76684722Y-135591151D01*
X76482287Y-135288185D01*
X76251131Y-135006520D01*
X76251130Y-135006519D01*
X76251126Y-135006514D01*
X75993485Y-134748873D01*
X75711820Y-134517717D01*
X75711819Y-134517716D01*
X75711815Y-134517713D01*
X75408849Y-134315278D01*
X75408844Y-134315275D01*
X75408837Y-134315271D01*
X75087507Y-134143516D01*
X75087502Y-134143514D01*
X74750868Y-134004074D01*
X74402169Y-133898298D01*
X74402158Y-133898295D01*
X74044812Y-133827216D01*
X74044795Y-133827213D01*
X73770580Y-133800206D01*
X73682187Y-133791500D01*
X73317813Y-133791500D01*
X73236062Y-133799551D01*
X72955204Y-133827213D01*
X72955187Y-133827216D01*
X72597841Y-133898295D01*
X72597830Y-133898298D01*
X72249131Y-134004074D01*
X71912497Y-134143514D01*
X71912492Y-134143516D01*
X71591162Y-134315271D01*
X71591144Y-134315282D01*
X71288193Y-134517707D01*
X71288179Y-134517717D01*
X71006514Y-134748873D01*
X70748873Y-135006514D01*
X70517717Y-135288179D01*
X70517707Y-135288193D01*
X70427602Y-135423045D01*
X70373990Y-135467850D01*
X70304665Y-135476557D01*
X70241637Y-135446403D01*
X70204918Y-135386959D01*
X70200500Y-135354154D01*
X70200500Y-122793084D01*
X71701500Y-122793084D01*
X71701500Y-123006915D01*
X71734951Y-123218117D01*
X71801026Y-123421480D01*
X71801027Y-123421483D01*
X71893438Y-123602848D01*
X71898106Y-123612009D01*
X72023794Y-123785004D01*
X72023796Y-123785006D01*
X72162070Y-123923280D01*
X72195555Y-123984603D01*
X72190571Y-124054295D01*
X72148699Y-124110228D01*
X72139486Y-124116499D01*
X71991659Y-124207680D01*
X71991655Y-124207683D01*
X71867684Y-124331654D01*
X71775643Y-124480875D01*
X71775641Y-124480880D01*
X71720494Y-124647302D01*
X71720493Y-124647309D01*
X71710000Y-124750013D01*
X71710000Y-125150000D01*
X72776988Y-125150000D01*
X72744075Y-125207007D01*
X72710000Y-125334174D01*
X72710000Y-125465826D01*
X72744075Y-125592993D01*
X72776988Y-125650000D01*
X71710001Y-125650000D01*
X71710001Y-126049986D01*
X71720494Y-126152697D01*
X71775641Y-126319119D01*
X71775643Y-126319124D01*
X71867684Y-126468345D01*
X71991654Y-126592315D01*
X72140875Y-126684356D01*
X72140880Y-126684358D01*
X72307302Y-126739505D01*
X72307309Y-126739506D01*
X72410019Y-126749999D01*
X72959999Y-126749999D01*
X72960000Y-126749998D01*
X72960000Y-125833012D01*
X73017007Y-125865925D01*
X73144174Y-125900000D01*
X73275826Y-125900000D01*
X73402993Y-125865925D01*
X73460000Y-125833012D01*
X73460000Y-126749999D01*
X74009972Y-126749999D01*
X74009986Y-126749998D01*
X74112697Y-126739505D01*
X74279119Y-126684358D01*
X74279124Y-126684356D01*
X74428345Y-126592315D01*
X74552315Y-126468345D01*
X74644356Y-126319124D01*
X74644358Y-126319119D01*
X74699505Y-126152697D01*
X74699506Y-126152690D01*
X74709999Y-126049986D01*
X74710000Y-126049973D01*
X74710000Y-125650000D01*
X73643012Y-125650000D01*
X73675925Y-125592993D01*
X73710000Y-125465826D01*
X73710000Y-125334174D01*
X73675925Y-125207007D01*
X73643012Y-125150000D01*
X74709999Y-125150000D01*
X74709999Y-124750028D01*
X74709998Y-124750013D01*
X74699505Y-124647302D01*
X74644358Y-124480880D01*
X74644356Y-124480875D01*
X74552315Y-124331654D01*
X74428344Y-124207683D01*
X74428340Y-124207680D01*
X74280513Y-124116499D01*
X74233788Y-124064551D01*
X74222567Y-123995589D01*
X74250410Y-123931507D01*
X74257907Y-123923302D01*
X74396206Y-123785004D01*
X74521894Y-123612009D01*
X74618972Y-123421483D01*
X74685049Y-123218116D01*
X74718500Y-123006916D01*
X74718500Y-122793084D01*
X74685049Y-122581884D01*
X74623641Y-122392886D01*
X74618973Y-122378519D01*
X74618972Y-122378516D01*
X74521893Y-122187990D01*
X74502722Y-122161603D01*
X74396206Y-122014996D01*
X74245004Y-121863794D01*
X74072009Y-121738106D01*
X73881483Y-121641027D01*
X73881480Y-121641026D01*
X73678117Y-121574951D01*
X73572516Y-121558225D01*
X73466916Y-121541500D01*
X72953084Y-121541500D01*
X72882684Y-121552650D01*
X72741882Y-121574951D01*
X72538519Y-121641026D01*
X72538516Y-121641027D01*
X72347990Y-121738106D01*
X72174993Y-121863796D01*
X72023796Y-122014993D01*
X71898106Y-122187990D01*
X71801027Y-122378516D01*
X71801026Y-122378519D01*
X71734951Y-122581882D01*
X71701500Y-122793084D01*
X70200500Y-122793084D01*
X70200500Y-73550214D01*
X70961500Y-73550214D01*
X70961500Y-73550219D01*
X70961500Y-77540218D01*
X70961500Y-77679782D01*
X70966903Y-77706945D01*
X70988727Y-77816662D01*
X71000024Y-77843935D01*
X71003520Y-77852375D01*
X71003521Y-77852379D01*
X71042131Y-77945594D01*
X71042138Y-77945607D01*
X71119671Y-78061642D01*
X71119674Y-78061646D01*
X71860385Y-78802355D01*
X71893870Y-78863678D01*
X71888886Y-78933369D01*
X71883189Y-78946330D01*
X71826030Y-79058511D01*
X71826026Y-79058519D01*
X71759951Y-79261882D01*
X71726500Y-79473084D01*
X71726500Y-79686915D01*
X71759951Y-79898117D01*
X71826026Y-80101480D01*
X71826027Y-80101483D01*
X71923106Y-80292009D01*
X72048794Y-80465004D01*
X72048796Y-80465006D01*
X72187070Y-80603280D01*
X72220555Y-80664603D01*
X72215571Y-80734295D01*
X72173699Y-80790228D01*
X72164486Y-80796499D01*
X72016659Y-80887680D01*
X72016655Y-80887683D01*
X71892684Y-81011654D01*
X71800643Y-81160875D01*
X71800641Y-81160880D01*
X71745494Y-81327302D01*
X71745493Y-81327309D01*
X71735000Y-81430013D01*
X71735000Y-81830000D01*
X72805854Y-81830000D01*
X72767370Y-81896657D01*
X72735000Y-82017465D01*
X72735000Y-82142535D01*
X72767370Y-82263343D01*
X72805854Y-82330000D01*
X71735001Y-82330000D01*
X71735001Y-82729986D01*
X71745494Y-82832697D01*
X71800641Y-82999119D01*
X71800643Y-82999124D01*
X71892684Y-83148345D01*
X72016654Y-83272315D01*
X72165875Y-83364356D01*
X72165880Y-83364358D01*
X72332302Y-83419505D01*
X72332309Y-83419506D01*
X72435019Y-83429999D01*
X72959999Y-83429999D01*
X72960000Y-83429998D01*
X72960000Y-82484145D01*
X73026657Y-82522630D01*
X73147465Y-82555000D01*
X73272535Y-82555000D01*
X73393343Y-82522630D01*
X73460000Y-82484145D01*
X73460000Y-83429999D01*
X73984972Y-83429999D01*
X73984986Y-83429998D01*
X74087697Y-83419505D01*
X74254119Y-83364358D01*
X74254124Y-83364356D01*
X74403345Y-83272315D01*
X74527315Y-83148345D01*
X74619356Y-82999124D01*
X74619358Y-82999119D01*
X74674505Y-82832697D01*
X74674506Y-82832690D01*
X74684999Y-82729986D01*
X74685000Y-82729973D01*
X74685000Y-82330000D01*
X73614146Y-82330000D01*
X73652630Y-82263343D01*
X73685000Y-82142535D01*
X73685000Y-82017465D01*
X73652630Y-81896657D01*
X73614146Y-81830000D01*
X74684999Y-81830000D01*
X74684999Y-81430028D01*
X74684998Y-81430013D01*
X74674505Y-81327302D01*
X74619358Y-81160880D01*
X74619356Y-81160875D01*
X74527315Y-81011654D01*
X74403344Y-80887683D01*
X74403340Y-80887680D01*
X74255513Y-80796499D01*
X74208788Y-80744551D01*
X74197567Y-80675589D01*
X74225410Y-80611507D01*
X74232918Y-80603291D01*
X74371206Y-80465004D01*
X74371208Y-80465000D01*
X74374438Y-80461771D01*
X74435761Y-80428286D01*
X74505453Y-80433270D01*
X74549800Y-80461771D01*
X80368350Y-86280321D01*
X80368353Y-86280323D01*
X80368357Y-86280327D01*
X80417925Y-86313448D01*
X80484394Y-86357863D01*
X80484399Y-86357865D01*
X80537807Y-86379986D01*
X80553762Y-86386595D01*
X80556019Y-86387530D01*
X80577945Y-86405201D01*
X80610417Y-86431369D01*
X80610418Y-86431372D01*
X80610420Y-86431374D01*
X80619262Y-86457945D01*
X80632482Y-86497663D01*
X80632481Y-86497666D01*
X80632482Y-86497669D01*
X80627212Y-86518312D01*
X80615203Y-86565362D01*
X80614101Y-86567184D01*
X80607883Y-86577265D01*
X80552113Y-86745570D01*
X80552113Y-86745571D01*
X80541500Y-86849447D01*
X80541500Y-88450537D01*
X80541501Y-88450553D01*
X80552113Y-88554427D01*
X80607884Y-88722735D01*
X80607886Y-88722740D01*
X80613164Y-88731297D01*
X80700970Y-88873652D01*
X80826348Y-88999030D01*
X80967598Y-89086154D01*
X81014322Y-89138101D01*
X81026500Y-89191692D01*
X81026500Y-92334786D01*
X81053724Y-92471653D01*
X81053727Y-92471662D01*
X81107134Y-92600600D01*
X81107136Y-92600604D01*
X81184671Y-92716642D01*
X81184674Y-92716646D01*
X81697848Y-93229819D01*
X81731333Y-93291142D01*
X81726349Y-93360833D01*
X81684478Y-93416767D01*
X81619013Y-93441184D01*
X81610167Y-93441500D01*
X81249462Y-93441500D01*
X81249446Y-93441501D01*
X81145572Y-93452113D01*
X80977264Y-93507884D01*
X80977259Y-93507886D01*
X80826346Y-93600971D01*
X80700971Y-93726346D01*
X80607886Y-93877259D01*
X80607884Y-93877264D01*
X80552113Y-94045572D01*
X80541500Y-94149447D01*
X80541500Y-95750537D01*
X80541501Y-95750553D01*
X80552113Y-95854427D01*
X80607884Y-96022735D01*
X80607886Y-96022740D01*
X80629406Y-96057629D01*
X80700970Y-96173652D01*
X80826348Y-96299030D01*
X80977262Y-96392115D01*
X81145574Y-96447887D01*
X81249455Y-96458500D01*
X82475879Y-96458499D01*
X82542918Y-96478184D01*
X82578981Y-96513607D01*
X82599674Y-96544576D01*
X85205181Y-99150082D01*
X85238666Y-99211405D01*
X85241500Y-99237763D01*
X85241500Y-100776735D01*
X85221815Y-100843774D01*
X85169011Y-100889529D01*
X85099853Y-100899473D01*
X85061205Y-100887220D01*
X84921483Y-100816027D01*
X84921480Y-100816026D01*
X84718117Y-100749951D01*
X84573923Y-100727113D01*
X84506916Y-100716500D01*
X84293084Y-100716500D01*
X84226077Y-100727113D01*
X84081882Y-100749951D01*
X83878519Y-100816026D01*
X83878516Y-100816027D01*
X83687990Y-100913106D01*
X83514997Y-101038793D01*
X83382896Y-101170894D01*
X83321573Y-101204378D01*
X83251881Y-101199394D01*
X83195948Y-101157522D01*
X83189684Y-101148320D01*
X83099030Y-101001348D01*
X82973652Y-100875970D01*
X82822738Y-100782885D01*
X82723348Y-100749951D01*
X82654427Y-100727113D01*
X82550545Y-100716500D01*
X81249462Y-100716500D01*
X81249446Y-100716501D01*
X81145572Y-100727113D01*
X80977264Y-100782884D01*
X80977259Y-100782886D01*
X80826346Y-100875971D01*
X80700971Y-101001346D01*
X80607886Y-101152259D01*
X80607884Y-101152264D01*
X80552113Y-101320572D01*
X80541500Y-101424447D01*
X80541500Y-103025537D01*
X80541501Y-103025553D01*
X80552113Y-103129427D01*
X80599300Y-103271831D01*
X80607885Y-103297738D01*
X80700970Y-103448652D01*
X80826348Y-103574030D01*
X80977262Y-103667115D01*
X81145574Y-103722887D01*
X81249455Y-103733500D01*
X82550544Y-103733499D01*
X82654426Y-103722887D01*
X82822738Y-103667115D01*
X82973652Y-103574030D01*
X83079819Y-103467863D01*
X83141142Y-103434378D01*
X83210834Y-103439362D01*
X83266767Y-103481234D01*
X83291184Y-103546698D01*
X83291500Y-103555544D01*
X83291500Y-108119456D01*
X83271815Y-108186495D01*
X83219011Y-108232250D01*
X83149853Y-108242194D01*
X83086297Y-108213169D01*
X83079819Y-108207137D01*
X82973653Y-108100971D01*
X82973652Y-108100970D01*
X82849604Y-108024456D01*
X82822740Y-108007886D01*
X82822735Y-108007884D01*
X82654427Y-107952113D01*
X82550545Y-107941500D01*
X81249462Y-107941500D01*
X81249446Y-107941501D01*
X81145572Y-107952113D01*
X80977264Y-108007884D01*
X80977259Y-108007886D01*
X80826346Y-108100971D01*
X80700971Y-108226346D01*
X80607886Y-108377259D01*
X80607884Y-108377264D01*
X80552113Y-108545572D01*
X80541500Y-108649447D01*
X80541500Y-110250537D01*
X80541501Y-110250553D01*
X80552113Y-110354427D01*
X80578063Y-110432740D01*
X80607885Y-110522738D01*
X80700970Y-110673652D01*
X80826348Y-110799030D01*
X80977262Y-110892115D01*
X81145574Y-110947887D01*
X81249455Y-110958500D01*
X82550544Y-110958499D01*
X82654426Y-110947887D01*
X82822738Y-110892115D01*
X82973652Y-110799030D01*
X83079819Y-110692863D01*
X83141142Y-110659378D01*
X83210834Y-110664362D01*
X83266767Y-110706234D01*
X83291184Y-110771698D01*
X83291500Y-110780544D01*
X83291500Y-115344456D01*
X83271815Y-115411495D01*
X83219011Y-115457250D01*
X83149853Y-115467194D01*
X83086297Y-115438169D01*
X83079819Y-115432137D01*
X82973653Y-115325971D01*
X82973652Y-115325970D01*
X82822738Y-115232885D01*
X82777467Y-115217884D01*
X82654427Y-115177113D01*
X82550545Y-115166500D01*
X81249462Y-115166500D01*
X81249446Y-115166501D01*
X81145572Y-115177113D01*
X80977264Y-115232884D01*
X80977259Y-115232886D01*
X80826346Y-115325971D01*
X80700971Y-115451346D01*
X80607886Y-115602259D01*
X80607884Y-115602264D01*
X80552113Y-115770572D01*
X80541500Y-115874447D01*
X80541500Y-117475537D01*
X80541501Y-117475553D01*
X80552113Y-117579427D01*
X80559838Y-117602740D01*
X80607885Y-117747738D01*
X80700970Y-117898652D01*
X80826348Y-118024030D01*
X80977262Y-118117115D01*
X81145574Y-118172887D01*
X81249455Y-118183500D01*
X82550544Y-118183499D01*
X82654426Y-118172887D01*
X82822738Y-118117115D01*
X82973652Y-118024030D01*
X83079819Y-117917863D01*
X83141142Y-117884378D01*
X83210834Y-117889362D01*
X83266767Y-117931234D01*
X83291184Y-117996698D01*
X83291500Y-118005544D01*
X83291500Y-122569456D01*
X83271815Y-122636495D01*
X83219011Y-122682250D01*
X83149853Y-122692194D01*
X83086297Y-122663169D01*
X83079819Y-122657137D01*
X82973653Y-122550971D01*
X82973652Y-122550970D01*
X82868271Y-122485970D01*
X82822740Y-122457886D01*
X82822735Y-122457884D01*
X82654427Y-122402113D01*
X82550545Y-122391500D01*
X81249462Y-122391500D01*
X81249446Y-122391501D01*
X81145572Y-122402113D01*
X80977264Y-122457884D01*
X80977259Y-122457886D01*
X80826346Y-122550971D01*
X80700971Y-122676346D01*
X80607886Y-122827259D01*
X80607884Y-122827264D01*
X80552113Y-122995572D01*
X80541500Y-123099447D01*
X80541500Y-124700537D01*
X80541501Y-124700553D01*
X80552113Y-124804427D01*
X80607884Y-124972735D01*
X80607886Y-124972740D01*
X80624639Y-124999901D01*
X80700970Y-125123652D01*
X80826348Y-125249030D01*
X80977262Y-125342115D01*
X81145574Y-125397887D01*
X81249455Y-125408500D01*
X82550544Y-125408499D01*
X82654426Y-125397887D01*
X82822738Y-125342115D01*
X82973652Y-125249030D01*
X83079819Y-125142863D01*
X83141142Y-125109378D01*
X83210834Y-125114362D01*
X83266767Y-125156234D01*
X83291184Y-125221698D01*
X83291500Y-125230544D01*
X83291500Y-129844456D01*
X83271815Y-129911495D01*
X83219011Y-129957250D01*
X83149853Y-129967194D01*
X83086297Y-129938169D01*
X83079819Y-129932137D01*
X82973653Y-129825971D01*
X82973652Y-129825970D01*
X82822738Y-129732885D01*
X82771866Y-129716028D01*
X82654427Y-129677113D01*
X82550545Y-129666500D01*
X81249462Y-129666500D01*
X81249446Y-129666501D01*
X81145572Y-129677113D01*
X80977264Y-129732884D01*
X80977259Y-129732886D01*
X80826346Y-129825971D01*
X80700971Y-129951346D01*
X80607886Y-130102259D01*
X80607884Y-130102264D01*
X80552113Y-130270572D01*
X80541500Y-130374447D01*
X80541500Y-131975537D01*
X80541501Y-131975553D01*
X80552113Y-132079427D01*
X80607884Y-132247735D01*
X80607886Y-132247740D01*
X80634695Y-132291203D01*
X80700970Y-132398652D01*
X80826348Y-132524030D01*
X80977262Y-132617115D01*
X81145574Y-132672887D01*
X81249455Y-132683500D01*
X82550544Y-132683499D01*
X82654426Y-132672887D01*
X82822738Y-132617115D01*
X82973652Y-132524030D01*
X83099030Y-132398652D01*
X83189679Y-132251687D01*
X83241624Y-132204966D01*
X83310587Y-132193743D01*
X83374669Y-132221587D01*
X83382896Y-132229106D01*
X83514996Y-132361206D01*
X83687991Y-132486894D01*
X83772805Y-132530109D01*
X83878516Y-132583972D01*
X83878519Y-132583973D01*
X83952121Y-132607887D01*
X84081884Y-132650049D01*
X84293084Y-132683500D01*
X84293085Y-132683500D01*
X84506915Y-132683500D01*
X84506916Y-132683500D01*
X84718116Y-132650049D01*
X84921483Y-132583972D01*
X85112009Y-132486894D01*
X85285004Y-132361206D01*
X85436206Y-132210004D01*
X85561894Y-132037009D01*
X85658972Y-131846483D01*
X85725049Y-131643116D01*
X85758500Y-131431916D01*
X85758500Y-130918084D01*
X85725049Y-130706884D01*
X85658972Y-130503517D01*
X85658972Y-130503516D01*
X85623305Y-130433516D01*
X85561894Y-130312991D01*
X85532182Y-130272095D01*
X85508702Y-130206289D01*
X85508500Y-130199210D01*
X85508500Y-124875789D01*
X85528185Y-124808750D01*
X85532183Y-124802903D01*
X85561891Y-124762013D01*
X85561890Y-124762013D01*
X85561894Y-124762009D01*
X85658972Y-124571483D01*
X85725049Y-124368116D01*
X85758500Y-124156916D01*
X85758500Y-123643084D01*
X85725049Y-123431884D01*
X85658972Y-123228517D01*
X85658972Y-123228516D01*
X85610566Y-123133516D01*
X85561894Y-123037991D01*
X85532182Y-122997095D01*
X85508702Y-122931289D01*
X85508500Y-122924210D01*
X85508500Y-117650789D01*
X85528185Y-117583750D01*
X85532183Y-117577903D01*
X85561891Y-117537013D01*
X85561890Y-117537013D01*
X85561894Y-117537009D01*
X85658972Y-117346483D01*
X85725049Y-117143116D01*
X85758500Y-116931916D01*
X85758500Y-116418084D01*
X85725049Y-116206884D01*
X85658972Y-116003517D01*
X85658972Y-116003516D01*
X85625354Y-115937539D01*
X85561894Y-115812991D01*
X85532182Y-115772095D01*
X85508702Y-115706289D01*
X85508500Y-115699210D01*
X85508500Y-110425789D01*
X85528185Y-110358750D01*
X85532183Y-110352903D01*
X85561891Y-110312013D01*
X85561890Y-110312013D01*
X85561894Y-110312009D01*
X85658972Y-110121483D01*
X85725049Y-109918116D01*
X85758500Y-109706916D01*
X85758500Y-109193084D01*
X85725049Y-108981884D01*
X85658972Y-108778517D01*
X85658972Y-108778516D01*
X85623305Y-108708516D01*
X85561894Y-108587991D01*
X85541156Y-108559447D01*
X85532182Y-108547095D01*
X85508702Y-108481289D01*
X85508500Y-108474210D01*
X85508500Y-104096057D01*
X85528185Y-104029018D01*
X85580989Y-103983263D01*
X85650147Y-103973319D01*
X85679953Y-103981496D01*
X85685000Y-103983587D01*
X85860516Y-104018499D01*
X85860520Y-104018500D01*
X85860521Y-104018500D01*
X86039480Y-104018500D01*
X86039481Y-104018499D01*
X86215000Y-103983587D01*
X86380336Y-103915102D01*
X86529135Y-103815678D01*
X86655678Y-103689135D01*
X86755102Y-103540336D01*
X86823587Y-103375000D01*
X86824682Y-103369491D01*
X86833941Y-103351790D01*
X86838531Y-103332347D01*
X86849803Y-103321464D01*
X86857065Y-103307581D01*
X86874424Y-103297694D01*
X86888798Y-103283819D01*
X86915088Y-103274537D01*
X86917780Y-103273005D01*
X86922079Y-103272070D01*
X86923279Y-103271831D01*
X86992872Y-103278041D01*
X87048060Y-103320891D01*
X87071321Y-103386775D01*
X87071500Y-103393442D01*
X87071500Y-127457346D01*
X87051815Y-127524385D01*
X87016391Y-127560448D01*
X86890864Y-127644321D01*
X86764324Y-127770861D01*
X86764321Y-127770865D01*
X86664901Y-127919657D01*
X86664896Y-127919667D01*
X86596413Y-128084999D01*
X86596411Y-128085007D01*
X86561500Y-128260516D01*
X86561500Y-128439483D01*
X86596411Y-128614992D01*
X86596413Y-128615000D01*
X86664896Y-128780332D01*
X86664901Y-128780342D01*
X86764321Y-128929134D01*
X86764324Y-128929138D01*
X86890861Y-129055675D01*
X86890865Y-129055678D01*
X87039657Y-129155098D01*
X87039661Y-129155100D01*
X87039664Y-129155102D01*
X87205000Y-129223587D01*
X87380516Y-129258499D01*
X87380520Y-129258500D01*
X87380521Y-129258500D01*
X87559480Y-129258500D01*
X87559481Y-129258499D01*
X87735000Y-129223587D01*
X87900336Y-129155102D01*
X88049135Y-129055678D01*
X88175678Y-128929135D01*
X88275102Y-128780336D01*
X88343587Y-128615000D01*
X88378500Y-128439479D01*
X88378500Y-128439478D01*
X88379333Y-128435291D01*
X88389250Y-128405639D01*
X88393020Y-128397817D01*
X88407865Y-128375601D01*
X88431780Y-128317864D01*
X88461273Y-128246662D01*
X88488500Y-128109781D01*
X88488500Y-127809833D01*
X88508185Y-127742794D01*
X88560989Y-127697039D01*
X88630147Y-127687095D01*
X88693703Y-127716120D01*
X88700181Y-127722152D01*
X89218353Y-128240325D01*
X89218357Y-128240328D01*
X89334392Y-128317861D01*
X89334405Y-128317868D01*
X89425572Y-128355630D01*
X89463338Y-128371273D01*
X89463342Y-128371273D01*
X89463343Y-128371274D01*
X89485070Y-128375596D01*
X89485083Y-128375598D01*
X89485097Y-128375601D01*
X89531145Y-128384760D01*
X89600215Y-128398500D01*
X89600218Y-128398500D01*
X89600219Y-128398500D01*
X91047474Y-128398500D01*
X91114513Y-128418185D01*
X91116327Y-128419373D01*
X91229664Y-128495102D01*
X91395000Y-128563587D01*
X91570516Y-128598499D01*
X91570520Y-128598500D01*
X91570521Y-128598500D01*
X91749480Y-128598500D01*
X91749481Y-128598499D01*
X91925000Y-128563587D01*
X92090336Y-128495102D01*
X92239135Y-128395678D01*
X92365678Y-128269135D01*
X92465102Y-128120336D01*
X92533587Y-127955000D01*
X92568500Y-127779479D01*
X92568500Y-127600521D01*
X92533587Y-127425000D01*
X92465102Y-127259664D01*
X92465100Y-127259661D01*
X92465098Y-127259657D01*
X92365678Y-127110865D01*
X92365675Y-127110861D01*
X92239138Y-126984324D01*
X92239134Y-126984321D01*
X92090342Y-126884901D01*
X92090332Y-126884896D01*
X91925000Y-126816413D01*
X91924992Y-126816411D01*
X91749483Y-126781500D01*
X91749479Y-126781500D01*
X91570521Y-126781500D01*
X91570516Y-126781500D01*
X91395007Y-126816411D01*
X91394999Y-126816413D01*
X91229664Y-126884897D01*
X91153857Y-126935549D01*
X91116363Y-126960602D01*
X91049687Y-126981480D01*
X91047474Y-126981500D01*
X90014833Y-126981500D01*
X89947794Y-126961815D01*
X89927152Y-126945181D01*
X89374819Y-126392848D01*
X89341334Y-126331525D01*
X89338500Y-126305167D01*
X89338500Y-87781582D01*
X89338499Y-87781578D01*
X89311273Y-87644702D01*
X89289436Y-87591983D01*
X89257865Y-87515763D01*
X89180328Y-87399722D01*
X89180325Y-87399718D01*
X87076788Y-85296181D01*
X87043303Y-85234858D01*
X87048287Y-85165166D01*
X87090159Y-85109233D01*
X87155623Y-85084816D01*
X87164469Y-85084500D01*
X89791167Y-85084500D01*
X89858206Y-85104185D01*
X89878848Y-85120819D01*
X95875181Y-91117151D01*
X95908666Y-91178474D01*
X95911500Y-91204832D01*
X95911500Y-92577474D01*
X95891815Y-92644513D01*
X95890602Y-92646365D01*
X95814897Y-92759664D01*
X95746413Y-92924999D01*
X95746411Y-92925007D01*
X95719829Y-93058644D01*
X95687444Y-93120555D01*
X95685893Y-93122134D01*
X95334674Y-93473353D01*
X95334671Y-93473357D01*
X95257138Y-93589392D01*
X95257131Y-93589405D01*
X95227333Y-93661347D01*
X95203728Y-93718333D01*
X95203725Y-93718345D01*
X95176500Y-93855214D01*
X95176500Y-95621549D01*
X95203725Y-95758419D01*
X95203726Y-95758423D01*
X95203727Y-95758426D01*
X95210486Y-95774744D01*
X95257131Y-95887358D01*
X95257138Y-95887371D01*
X95334671Y-96003406D01*
X95334674Y-96003410D01*
X96986504Y-97655239D01*
X97019989Y-97716562D01*
X97015005Y-97786254D01*
X96973133Y-97842187D01*
X96946280Y-97857479D01*
X96929671Y-97864359D01*
X96929657Y-97864366D01*
X96780865Y-97963786D01*
X96780861Y-97963789D01*
X96654324Y-98090326D01*
X96654321Y-98090330D01*
X96554901Y-98239122D01*
X96554896Y-98239132D01*
X96486413Y-98404464D01*
X96486411Y-98404472D01*
X96459829Y-98538109D01*
X96427444Y-98600020D01*
X96425893Y-98601599D01*
X95159674Y-99867818D01*
X95159668Y-99867826D01*
X95082137Y-99983859D01*
X95082135Y-99983864D01*
X95044369Y-100075037D01*
X95044368Y-100075038D01*
X95028727Y-100112801D01*
X95028727Y-100112802D01*
X95028727Y-100112803D01*
X95024293Y-100135098D01*
X95024292Y-100135103D01*
X95003725Y-100238493D01*
X95003726Y-100238494D01*
X95003725Y-100238500D01*
X95001595Y-100249209D01*
X95001500Y-100249685D01*
X95001500Y-120020166D01*
X94981815Y-120087205D01*
X94965181Y-120107847D01*
X90942134Y-124130893D01*
X90880811Y-124164378D01*
X90878644Y-124164829D01*
X90745007Y-124191411D01*
X90744999Y-124191413D01*
X90579667Y-124259896D01*
X90579657Y-124259901D01*
X90430865Y-124359321D01*
X90430861Y-124359324D01*
X90304324Y-124485861D01*
X90304321Y-124485865D01*
X90204901Y-124634657D01*
X90204896Y-124634667D01*
X90136413Y-124799999D01*
X90136411Y-124800007D01*
X90101500Y-124975516D01*
X90101500Y-125154483D01*
X90136411Y-125329992D01*
X90136413Y-125330000D01*
X90204896Y-125495332D01*
X90204901Y-125495342D01*
X90304321Y-125644134D01*
X90304324Y-125644138D01*
X90430861Y-125770675D01*
X90430865Y-125770678D01*
X90579657Y-125870098D01*
X90579661Y-125870100D01*
X90579664Y-125870102D01*
X90745000Y-125938587D01*
X90920516Y-125973499D01*
X90920520Y-125973500D01*
X90920521Y-125973500D01*
X91099480Y-125973500D01*
X91099481Y-125973499D01*
X91275000Y-125938587D01*
X91440336Y-125870102D01*
X91589135Y-125770678D01*
X91715678Y-125644135D01*
X91815102Y-125495336D01*
X91883587Y-125330000D01*
X91910170Y-125196351D01*
X91942554Y-125134443D01*
X91944050Y-125132919D01*
X95389819Y-121687151D01*
X95451142Y-121653666D01*
X95520834Y-121658650D01*
X95576767Y-121700522D01*
X95601184Y-121765986D01*
X95601500Y-121774832D01*
X95601500Y-122949088D01*
X95581815Y-123016127D01*
X95565181Y-123036769D01*
X95554324Y-123047625D01*
X95554321Y-123047629D01*
X95454901Y-123196421D01*
X95454896Y-123196431D01*
X95386413Y-123361763D01*
X95386411Y-123361771D01*
X95351500Y-123537280D01*
X95351500Y-123553689D01*
X95351337Y-123554769D01*
X95351489Y-123555312D01*
X95350620Y-123559531D01*
X95346010Y-123590178D01*
X95344295Y-123595747D01*
X95334207Y-123620103D01*
X95302727Y-123696102D01*
X95289113Y-123764542D01*
X95284496Y-123787759D01*
X95283256Y-123793989D01*
X95283254Y-123793998D01*
X95275500Y-123832980D01*
X95275500Y-132883728D01*
X95302724Y-133020595D01*
X95302727Y-133020604D01*
X95356135Y-133149543D01*
X95356136Y-133149546D01*
X95433671Y-133265584D01*
X95433674Y-133265588D01*
X99329412Y-137161325D01*
X99329416Y-137161328D01*
X99445457Y-137238865D01*
X99445458Y-137238865D01*
X99445459Y-137238866D01*
X99445461Y-137238867D01*
X99529786Y-137273795D01*
X99536630Y-137276630D01*
X99574396Y-137292273D01*
X99574398Y-137292273D01*
X99574403Y-137292275D01*
X99711272Y-137319499D01*
X99711276Y-137319500D01*
X99711277Y-137319500D01*
X127391568Y-137319500D01*
X127460007Y-137305886D01*
X127528448Y-137292273D01*
X127566213Y-137276630D01*
X127657387Y-137238865D01*
X127773429Y-137161328D01*
X133260328Y-131674429D01*
X133337865Y-131558387D01*
X133359986Y-131504978D01*
X133391273Y-131429448D01*
X133414766Y-131311338D01*
X133418500Y-131292568D01*
X133418500Y-131153005D01*
X133418500Y-123341758D01*
X133438185Y-123274719D01*
X133439398Y-123272867D01*
X133515098Y-123159574D01*
X133515098Y-123159573D01*
X133515102Y-123159568D01*
X133583587Y-122994232D01*
X133618500Y-122818711D01*
X133618500Y-122639753D01*
X133583587Y-122464232D01*
X133515102Y-122298896D01*
X133469396Y-122230492D01*
X133448520Y-122163815D01*
X133448500Y-122161603D01*
X133448500Y-98874831D01*
X133468185Y-98807792D01*
X133484815Y-98787154D01*
X133902864Y-98369104D01*
X133964185Y-98335621D01*
X133966247Y-98335190D01*
X134100000Y-98308587D01*
X134265336Y-98240102D01*
X134414135Y-98140678D01*
X134540678Y-98014135D01*
X134640102Y-97865336D01*
X134708587Y-97700000D01*
X134743500Y-97524479D01*
X134743500Y-97345521D01*
X134708587Y-97170000D01*
X134640102Y-97004664D01*
X134640100Y-97004661D01*
X134640098Y-97004657D01*
X134540678Y-96855865D01*
X134540675Y-96855861D01*
X134414138Y-96729324D01*
X134414134Y-96729321D01*
X134265342Y-96629901D01*
X134265332Y-96629896D01*
X134100000Y-96561413D01*
X134099992Y-96561411D01*
X133924483Y-96526500D01*
X133924479Y-96526500D01*
X133745521Y-96526500D01*
X133745516Y-96526500D01*
X133570007Y-96561411D01*
X133569999Y-96561413D01*
X133399036Y-96632229D01*
X133398514Y-96630969D01*
X133336894Y-96643793D01*
X133271652Y-96618786D01*
X133259175Y-96607875D01*
X133214235Y-96562935D01*
X133214231Y-96562932D01*
X133065439Y-96463512D01*
X133065429Y-96463507D01*
X132900097Y-96395024D01*
X132900091Y-96395022D01*
X132794140Y-96373947D01*
X132732229Y-96341562D01*
X132703771Y-96299783D01*
X132665103Y-96206430D01*
X132665098Y-96206421D01*
X132565678Y-96057629D01*
X132565675Y-96057625D01*
X132439138Y-95931088D01*
X132439134Y-95931085D01*
X132290342Y-95831665D01*
X132290332Y-95831660D01*
X132125000Y-95763177D01*
X132124992Y-95763175D01*
X131949483Y-95728264D01*
X131949479Y-95728264D01*
X131770521Y-95728264D01*
X131770516Y-95728264D01*
X131595007Y-95763175D01*
X131594999Y-95763177D01*
X131429667Y-95831660D01*
X131429657Y-95831665D01*
X131280865Y-95931085D01*
X131280861Y-95931088D01*
X131154324Y-96057625D01*
X131154321Y-96057629D01*
X131054901Y-96206421D01*
X131054896Y-96206431D01*
X130986413Y-96371763D01*
X130986411Y-96371771D01*
X130959829Y-96505408D01*
X130927444Y-96567319D01*
X130925893Y-96568898D01*
X130639674Y-96855117D01*
X130639671Y-96855121D01*
X130562136Y-96971159D01*
X130541997Y-97019781D01*
X130508728Y-97100097D01*
X130508727Y-97100101D01*
X130508727Y-97100102D01*
X130502804Y-97129878D01*
X130483174Y-97228563D01*
X130483175Y-97228564D01*
X130481986Y-97234544D01*
X130481500Y-97236985D01*
X130481500Y-123515167D01*
X130461815Y-123582206D01*
X130445181Y-123602848D01*
X129832848Y-124215181D01*
X129771525Y-124248666D01*
X129745167Y-124251500D01*
X127806592Y-124251500D01*
X127739553Y-124231815D01*
X127737701Y-124230602D01*
X127612156Y-124146715D01*
X127612146Y-124146710D01*
X127446814Y-124078227D01*
X127446806Y-124078225D01*
X127271297Y-124043314D01*
X127271293Y-124043314D01*
X127092335Y-124043314D01*
X127092330Y-124043314D01*
X126916821Y-124078225D01*
X126916813Y-124078227D01*
X126751481Y-124146710D01*
X126751471Y-124146715D01*
X126602679Y-124246135D01*
X126602675Y-124246138D01*
X126476138Y-124372675D01*
X126476135Y-124372679D01*
X126376715Y-124521471D01*
X126376710Y-124521481D01*
X126308227Y-124686813D01*
X126308225Y-124686821D01*
X126273314Y-124862330D01*
X126273314Y-125041297D01*
X126308225Y-125216806D01*
X126308227Y-125216814D01*
X126376710Y-125382146D01*
X126376715Y-125382156D01*
X126476135Y-125530948D01*
X126476138Y-125530952D01*
X126602675Y-125657489D01*
X126602679Y-125657492D01*
X126751471Y-125756912D01*
X126751475Y-125756914D01*
X126751478Y-125756916D01*
X126916814Y-125825401D01*
X127092330Y-125860313D01*
X127092334Y-125860314D01*
X127092335Y-125860314D01*
X127271294Y-125860314D01*
X127271295Y-125860313D01*
X127446814Y-125825401D01*
X127612150Y-125756916D01*
X127713198Y-125689398D01*
X127779875Y-125668520D01*
X127782089Y-125668500D01*
X130159784Y-125668500D01*
X130192868Y-125661918D01*
X130251023Y-125650351D01*
X130296662Y-125641273D01*
X130334427Y-125625630D01*
X130425601Y-125587865D01*
X130541643Y-125510328D01*
X130850703Y-125201266D01*
X130912023Y-125167783D01*
X130981715Y-125172767D01*
X131037649Y-125214638D01*
X131062066Y-125280102D01*
X131062382Y-125288949D01*
X131062382Y-129554285D01*
X131042697Y-129621324D01*
X131026063Y-129641966D01*
X126252848Y-134415181D01*
X126191525Y-134448666D01*
X126165167Y-134451500D01*
X121789833Y-134451500D01*
X121722794Y-134431815D01*
X121677039Y-134379011D01*
X121667095Y-134309853D01*
X121696120Y-134246297D01*
X121702152Y-134239819D01*
X122820325Y-133121645D01*
X122820324Y-133121645D01*
X122820328Y-133121642D01*
X122897865Y-133005600D01*
X122951273Y-132876661D01*
X122978500Y-132739781D01*
X122978500Y-132600218D01*
X122965323Y-132533972D01*
X122960883Y-132511650D01*
X122958500Y-132487459D01*
X122958500Y-130538422D01*
X122978185Y-130471383D01*
X123030989Y-130425628D01*
X123035048Y-130423861D01*
X123041679Y-130421113D01*
X123080336Y-130405102D01*
X123229135Y-130305678D01*
X123355678Y-130179135D01*
X123455102Y-130030336D01*
X123523587Y-129865000D01*
X123558500Y-129689479D01*
X123558500Y-129510521D01*
X123523587Y-129335000D01*
X123455102Y-129169664D01*
X123455100Y-129169661D01*
X123455098Y-129169657D01*
X123355678Y-129020865D01*
X123355675Y-129020861D01*
X123229138Y-128894324D01*
X123229134Y-128894321D01*
X123080342Y-128794901D01*
X123080332Y-128794896D01*
X122915000Y-128726413D01*
X122914992Y-128726411D01*
X122739483Y-128691500D01*
X122739479Y-128691500D01*
X122560521Y-128691500D01*
X122560516Y-128691500D01*
X122385007Y-128726411D01*
X122384999Y-128726413D01*
X122219667Y-128794896D01*
X122219657Y-128794901D01*
X122070865Y-128894321D01*
X122070861Y-128894324D01*
X121944324Y-129020861D01*
X121944321Y-129020865D01*
X121844901Y-129169657D01*
X121844896Y-129169667D01*
X121776413Y-129334999D01*
X121776411Y-129335007D01*
X121749829Y-129468645D01*
X121717444Y-129530556D01*
X121715895Y-129532133D01*
X121699674Y-129548354D01*
X121699669Y-129548360D01*
X121622138Y-129664393D01*
X121622136Y-129664396D01*
X121622135Y-129664399D01*
X121600750Y-129716028D01*
X121568824Y-129793106D01*
X121568821Y-129793114D01*
X121568727Y-129793339D01*
X121568725Y-129793344D01*
X121543773Y-129918786D01*
X121543774Y-129918787D01*
X121541500Y-129930220D01*
X121541500Y-130811759D01*
X121521815Y-130878798D01*
X121469011Y-130924553D01*
X121399853Y-130934497D01*
X121336297Y-130905472D01*
X121298523Y-130846694D01*
X121295027Y-130831157D01*
X121275344Y-130706884D01*
X121265049Y-130641884D01*
X121220092Y-130503519D01*
X121198973Y-130438519D01*
X121198972Y-130438516D01*
X121135011Y-130312987D01*
X121101894Y-130247991D01*
X121072182Y-130207095D01*
X121048702Y-130141289D01*
X121048500Y-130134210D01*
X121048500Y-126780516D01*
X122171500Y-126780516D01*
X122171500Y-126959483D01*
X122206411Y-127134992D01*
X122206413Y-127135000D01*
X122274896Y-127300332D01*
X122274901Y-127300342D01*
X122374321Y-127449134D01*
X122374324Y-127449138D01*
X122500861Y-127575675D01*
X122500865Y-127575678D01*
X122649657Y-127675098D01*
X122649661Y-127675100D01*
X122649664Y-127675102D01*
X122815000Y-127743587D01*
X122952117Y-127770861D01*
X122990516Y-127778499D01*
X122990520Y-127778500D01*
X122990521Y-127778500D01*
X123169480Y-127778500D01*
X123169481Y-127778499D01*
X123345000Y-127743587D01*
X123510336Y-127675102D01*
X123659135Y-127575678D01*
X123785678Y-127449135D01*
X123885102Y-127300336D01*
X123953587Y-127135000D01*
X123988500Y-126959479D01*
X123988500Y-126780521D01*
X123953587Y-126605000D01*
X123885102Y-126439664D01*
X123809397Y-126326363D01*
X123788520Y-126259687D01*
X123788500Y-126257474D01*
X123788500Y-100364832D01*
X123797144Y-100335392D01*
X123803667Y-100305407D01*
X123807422Y-100300389D01*
X123808185Y-100297793D01*
X123824814Y-100277155D01*
X123852761Y-100249207D01*
X123914082Y-100215723D01*
X123916168Y-100215288D01*
X123975000Y-100203587D01*
X124140336Y-100135102D01*
X124289135Y-100035678D01*
X124415678Y-99909135D01*
X124515102Y-99760336D01*
X124583587Y-99595000D01*
X124618500Y-99419479D01*
X124618500Y-99240521D01*
X124583587Y-99065000D01*
X124515102Y-98899664D01*
X124515100Y-98899661D01*
X124515098Y-98899657D01*
X124415678Y-98750865D01*
X124415675Y-98750861D01*
X124289138Y-98624324D01*
X124289134Y-98624321D01*
X124140342Y-98524901D01*
X124140332Y-98524896D01*
X123975000Y-98456413D01*
X123974992Y-98456411D01*
X123799483Y-98421500D01*
X123799479Y-98421500D01*
X123620521Y-98421500D01*
X123620516Y-98421500D01*
X123445007Y-98456411D01*
X123444999Y-98456413D01*
X123279667Y-98524896D01*
X123279657Y-98524901D01*
X123130865Y-98624321D01*
X123130861Y-98624324D01*
X123004324Y-98750861D01*
X123004321Y-98750865D01*
X122904901Y-98899657D01*
X122904896Y-98899667D01*
X122836413Y-99064999D01*
X122836411Y-99065007D01*
X122801500Y-99240516D01*
X122801500Y-99245166D01*
X122781815Y-99312205D01*
X122765181Y-99332847D01*
X122529674Y-99568353D01*
X122529671Y-99568357D01*
X122452138Y-99684392D01*
X122452131Y-99684405D01*
X122420681Y-99760333D01*
X122420682Y-99760334D01*
X122398726Y-99813341D01*
X122398724Y-99813345D01*
X122371500Y-99950214D01*
X122371500Y-126257474D01*
X122351815Y-126324513D01*
X122350602Y-126326365D01*
X122274897Y-126439664D01*
X122206413Y-126604999D01*
X122206411Y-126605007D01*
X122171500Y-126780516D01*
X121048500Y-126780516D01*
X121048500Y-124810789D01*
X121068185Y-124743750D01*
X121072183Y-124737903D01*
X121101891Y-124697013D01*
X121101890Y-124697013D01*
X121101894Y-124697009D01*
X121198972Y-124506483D01*
X121265049Y-124303116D01*
X121298500Y-124091916D01*
X121298500Y-123578084D01*
X121265049Y-123366884D01*
X121220092Y-123228519D01*
X121198973Y-123163519D01*
X121198972Y-123163516D01*
X121165354Y-123097539D01*
X121101894Y-122972991D01*
X121077562Y-122939500D01*
X121072182Y-122932095D01*
X121048702Y-122866289D01*
X121048500Y-122859210D01*
X121048500Y-117635789D01*
X121068185Y-117568750D01*
X121072183Y-117562903D01*
X121101891Y-117522013D01*
X121101890Y-117522013D01*
X121101894Y-117522009D01*
X121198972Y-117331483D01*
X121265049Y-117128116D01*
X121298500Y-116916916D01*
X121298500Y-116403084D01*
X121265049Y-116191884D01*
X121222809Y-116061882D01*
X121198973Y-115988519D01*
X121198972Y-115988516D01*
X121140850Y-115874447D01*
X121101894Y-115797991D01*
X121081973Y-115770572D01*
X121072182Y-115757095D01*
X121048702Y-115691289D01*
X121048500Y-115684210D01*
X121048500Y-110335789D01*
X121068185Y-110268750D01*
X121072183Y-110262903D01*
X121101891Y-110222013D01*
X121101890Y-110222013D01*
X121101894Y-110222009D01*
X121198972Y-110031483D01*
X121265049Y-109828116D01*
X121298500Y-109616916D01*
X121298500Y-109103084D01*
X121265049Y-108891884D01*
X121205471Y-108708519D01*
X121198973Y-108688519D01*
X121198972Y-108688516D01*
X121139073Y-108570959D01*
X121101894Y-108497991D01*
X121089915Y-108481503D01*
X121072182Y-108457095D01*
X121048702Y-108391289D01*
X121048500Y-108384210D01*
X121048500Y-103085789D01*
X121068185Y-103018750D01*
X121072183Y-103012903D01*
X121101891Y-102972013D01*
X121101890Y-102972013D01*
X121101894Y-102972009D01*
X121198972Y-102781483D01*
X121265049Y-102578116D01*
X121298500Y-102366916D01*
X121298500Y-101853084D01*
X121265049Y-101641884D01*
X121198972Y-101438517D01*
X121198972Y-101438516D01*
X121151811Y-101345959D01*
X121101894Y-101247991D01*
X121072182Y-101207095D01*
X121048702Y-101141289D01*
X121048500Y-101134210D01*
X121048500Y-98632540D01*
X121068185Y-98565501D01*
X121120989Y-98519746D01*
X121190147Y-98509802D01*
X121241389Y-98529437D01*
X121339664Y-98595102D01*
X121505000Y-98663587D01*
X121680516Y-98698499D01*
X121680520Y-98698500D01*
X121680521Y-98698500D01*
X121859480Y-98698500D01*
X121859481Y-98698499D01*
X122035000Y-98663587D01*
X122200336Y-98595102D01*
X122349135Y-98495678D01*
X122475678Y-98369135D01*
X122575102Y-98220336D01*
X122643587Y-98055000D01*
X122661730Y-97963787D01*
X122665405Y-97945314D01*
X122697789Y-97883403D01*
X122758505Y-97848829D01*
X122762831Y-97847888D01*
X122802293Y-97840038D01*
X122885000Y-97823587D01*
X123050336Y-97755102D01*
X123199135Y-97655678D01*
X123325678Y-97529135D01*
X123425102Y-97380336D01*
X123493587Y-97215000D01*
X123528500Y-97039479D01*
X123528500Y-96860521D01*
X123493587Y-96685000D01*
X123425102Y-96519664D01*
X123425100Y-96519661D01*
X123425098Y-96519657D01*
X123325678Y-96370865D01*
X123325675Y-96370861D01*
X123199138Y-96244324D01*
X123199131Y-96244319D01*
X123173608Y-96227264D01*
X123128803Y-96173651D01*
X123118500Y-96124163D01*
X123118500Y-92820218D01*
X123118499Y-92820214D01*
X123097898Y-92716646D01*
X123091273Y-92683338D01*
X123057002Y-92600601D01*
X123037865Y-92554399D01*
X122960327Y-92438357D01*
X122960323Y-92438353D01*
X122960321Y-92438350D01*
X119877152Y-89355181D01*
X119843667Y-89293858D01*
X119848651Y-89224166D01*
X119890523Y-89168233D01*
X119955987Y-89143816D01*
X119964833Y-89143500D01*
X120046915Y-89143500D01*
X120046916Y-89143500D01*
X120258116Y-89110049D01*
X120461483Y-89043972D01*
X120652009Y-88946894D01*
X120825004Y-88821206D01*
X120976206Y-88670004D01*
X121101894Y-88497009D01*
X121198972Y-88306483D01*
X121265049Y-88103116D01*
X121298500Y-87891916D01*
X121298500Y-87378084D01*
X121265049Y-87166884D01*
X121198972Y-86963517D01*
X121198972Y-86963516D01*
X121140850Y-86849447D01*
X121101894Y-86772991D01*
X121088421Y-86754447D01*
X121072182Y-86732095D01*
X121048702Y-86666289D01*
X121048500Y-86659210D01*
X121048500Y-81460789D01*
X121068185Y-81393750D01*
X121072183Y-81387903D01*
X121101891Y-81347013D01*
X121101890Y-81347013D01*
X121101894Y-81347009D01*
X121198972Y-81156483D01*
X121265049Y-80953116D01*
X121298500Y-80741916D01*
X121298500Y-80228084D01*
X121265049Y-80016884D01*
X121226460Y-79898117D01*
X121198973Y-79813519D01*
X121198972Y-79813516D01*
X121165354Y-79747539D01*
X121101894Y-79622991D01*
X121072182Y-79582095D01*
X121065029Y-79562050D01*
X121053523Y-79544145D01*
X121050068Y-79520118D01*
X121048702Y-79516289D01*
X121048500Y-79509210D01*
X121048500Y-79407500D01*
X121068185Y-79340461D01*
X121120989Y-79294706D01*
X121172500Y-79283500D01*
X122302324Y-79283500D01*
X122369363Y-79303185D01*
X122415118Y-79355989D01*
X122425062Y-79425147D01*
X122396037Y-79488703D01*
X122390005Y-79495181D01*
X122314324Y-79570861D01*
X122314321Y-79570865D01*
X122214901Y-79719657D01*
X122214896Y-79719667D01*
X122146413Y-79884999D01*
X122146411Y-79885007D01*
X122111500Y-80060516D01*
X122111500Y-80239483D01*
X122146411Y-80414992D01*
X122146413Y-80415000D01*
X122214896Y-80580332D01*
X122214901Y-80580342D01*
X122314321Y-80729134D01*
X122314324Y-80729138D01*
X122440861Y-80855675D01*
X122440865Y-80855678D01*
X122589657Y-80955098D01*
X122589661Y-80955100D01*
X122589664Y-80955102D01*
X122755000Y-81023587D01*
X122796298Y-81031801D01*
X122888646Y-81050171D01*
X122950557Y-81082556D01*
X122952136Y-81084107D01*
X123188926Y-81320897D01*
X123222411Y-81382220D01*
X123217427Y-81451912D01*
X123188927Y-81496259D01*
X123114321Y-81570865D01*
X123014901Y-81719657D01*
X123014896Y-81719667D01*
X122946413Y-81884999D01*
X122946411Y-81885007D01*
X122911500Y-82060516D01*
X122911500Y-82239483D01*
X122946411Y-82414992D01*
X122946413Y-82415000D01*
X122972061Y-82476920D01*
X122981500Y-82524371D01*
X122981500Y-86985627D01*
X122972061Y-87033079D01*
X122946414Y-87094995D01*
X122946411Y-87095007D01*
X122911500Y-87270516D01*
X122911500Y-87449483D01*
X122946411Y-87624992D01*
X122946413Y-87625000D01*
X123014896Y-87790332D01*
X123014901Y-87790342D01*
X123114321Y-87939134D01*
X123114324Y-87939138D01*
X123240861Y-88065675D01*
X123240865Y-88065678D01*
X123389657Y-88165098D01*
X123389661Y-88165100D01*
X123389664Y-88165102D01*
X123555000Y-88233587D01*
X123730516Y-88268499D01*
X123730520Y-88268500D01*
X123730521Y-88268500D01*
X123909480Y-88268500D01*
X123909481Y-88268499D01*
X124085000Y-88233587D01*
X124250336Y-88165102D01*
X124399135Y-88065678D01*
X124525678Y-87939135D01*
X124625102Y-87790336D01*
X124693587Y-87625000D01*
X124728500Y-87449479D01*
X124728500Y-87270521D01*
X124693587Y-87095000D01*
X124625102Y-86929664D01*
X124625100Y-86929661D01*
X124625098Y-86929657D01*
X124525678Y-86780865D01*
X124525675Y-86780861D01*
X124434819Y-86690005D01*
X124401334Y-86628682D01*
X124398500Y-86602324D01*
X124398500Y-82907675D01*
X124407144Y-82878235D01*
X124413667Y-82848250D01*
X124417422Y-82843233D01*
X124418185Y-82840636D01*
X124434818Y-82819995D01*
X124473741Y-82781071D01*
X124535061Y-82747587D01*
X124604753Y-82752571D01*
X124649102Y-82781072D01*
X125215181Y-83347151D01*
X125248666Y-83408474D01*
X125251500Y-83434832D01*
X125251500Y-112217404D01*
X125231815Y-112284443D01*
X125230603Y-112286294D01*
X125174897Y-112369665D01*
X125106413Y-112534999D01*
X125106411Y-112535007D01*
X125071500Y-112710516D01*
X125071500Y-112889483D01*
X125106411Y-113064992D01*
X125106413Y-113065000D01*
X125174896Y-113230332D01*
X125174901Y-113230342D01*
X125274321Y-113379134D01*
X125274324Y-113379138D01*
X125400861Y-113505675D01*
X125400865Y-113505678D01*
X125549657Y-113605098D01*
X125549661Y-113605100D01*
X125549664Y-113605102D01*
X125715000Y-113673587D01*
X125890516Y-113708499D01*
X125890520Y-113708500D01*
X125890521Y-113708500D01*
X126069480Y-113708500D01*
X126069481Y-113708499D01*
X126245000Y-113673587D01*
X126410336Y-113605102D01*
X126559135Y-113505678D01*
X126685678Y-113379135D01*
X126785102Y-113230336D01*
X126853587Y-113065000D01*
X126888500Y-112889479D01*
X126888500Y-112710521D01*
X126853587Y-112535000D01*
X126785102Y-112369664D01*
X126785099Y-112369659D01*
X126785095Y-112369652D01*
X126689398Y-112226430D01*
X126668520Y-112159753D01*
X126668500Y-112157540D01*
X126668500Y-83020218D01*
X126668499Y-83020214D01*
X126641274Y-82883345D01*
X126641273Y-82883338D01*
X126597584Y-82777864D01*
X126587865Y-82754399D01*
X126587864Y-82754396D01*
X126510328Y-82638358D01*
X126510325Y-82638354D01*
X123954107Y-80082136D01*
X123920622Y-80020813D01*
X123920171Y-80018646D01*
X123893588Y-79885007D01*
X123893587Y-79885000D01*
X123825102Y-79719664D01*
X123825100Y-79719661D01*
X123825098Y-79719657D01*
X123725678Y-79570865D01*
X123725675Y-79570861D01*
X123649995Y-79495181D01*
X123616510Y-79433858D01*
X123621494Y-79364166D01*
X123663366Y-79308233D01*
X123728830Y-79283816D01*
X123737676Y-79283500D01*
X134437175Y-79283500D01*
X134504214Y-79303185D01*
X134549969Y-79355989D01*
X134559913Y-79425147D01*
X134554881Y-79446503D01*
X134512113Y-79575570D01*
X134512113Y-79575571D01*
X134501500Y-79679447D01*
X134501500Y-81280537D01*
X134501501Y-81280553D01*
X134512113Y-81384427D01*
X134567884Y-81552735D01*
X134567886Y-81552740D01*
X134595641Y-81597738D01*
X134660970Y-81703652D01*
X134786348Y-81829030D01*
X134937262Y-81922115D01*
X135105574Y-81977887D01*
X135209455Y-81988500D01*
X136510544Y-81988499D01*
X136614426Y-81977887D01*
X136782738Y-81922115D01*
X136933652Y-81829030D01*
X137039819Y-81722863D01*
X137101142Y-81689378D01*
X137170834Y-81694362D01*
X137226767Y-81736234D01*
X137251184Y-81801698D01*
X137251500Y-81810544D01*
X137251500Y-86249636D01*
X137231815Y-86316675D01*
X137179011Y-86362430D01*
X137109853Y-86372374D01*
X137046297Y-86343349D01*
X137039426Y-86336165D01*
X137039137Y-86336455D01*
X136908653Y-86205971D01*
X136908652Y-86205970D01*
X136779813Y-86126501D01*
X136757740Y-86112886D01*
X136757735Y-86112884D01*
X136589427Y-86057113D01*
X136485545Y-86046500D01*
X135184462Y-86046500D01*
X135184446Y-86046501D01*
X135080572Y-86057113D01*
X134912264Y-86112884D01*
X134912259Y-86112886D01*
X134761346Y-86205971D01*
X134635971Y-86331346D01*
X134542886Y-86482259D01*
X134542884Y-86482264D01*
X134487113Y-86650572D01*
X134476500Y-86754447D01*
X134476500Y-88355537D01*
X134476501Y-88355553D01*
X134487113Y-88459427D01*
X134533955Y-88600789D01*
X134542885Y-88627738D01*
X134635970Y-88778652D01*
X134761348Y-88904030D01*
X134912262Y-88997115D01*
X135080574Y-89052887D01*
X135184455Y-89063500D01*
X135207497Y-89063499D01*
X135274535Y-89083181D01*
X135320292Y-89135983D01*
X135331500Y-89187499D01*
X135331500Y-89515166D01*
X135311815Y-89582205D01*
X135295181Y-89602847D01*
X134272134Y-90625893D01*
X134210811Y-90659378D01*
X134208644Y-90659829D01*
X134075007Y-90686411D01*
X134074999Y-90686413D01*
X133909667Y-90754896D01*
X133909657Y-90754901D01*
X133760865Y-90854321D01*
X133760861Y-90854324D01*
X133634324Y-90980861D01*
X133634321Y-90980865D01*
X133534901Y-91129657D01*
X133534896Y-91129667D01*
X133466413Y-91294999D01*
X133466411Y-91295007D01*
X133431500Y-91470516D01*
X133431500Y-91649483D01*
X133466411Y-91824992D01*
X133466413Y-91825000D01*
X133534896Y-91990332D01*
X133534901Y-91990342D01*
X133634321Y-92139134D01*
X133634324Y-92139138D01*
X133760861Y-92265675D01*
X133760865Y-92265678D01*
X133909657Y-92365098D01*
X133909661Y-92365100D01*
X133909664Y-92365102D01*
X134075000Y-92433587D01*
X134250516Y-92468499D01*
X134250520Y-92468500D01*
X134250521Y-92468500D01*
X134429480Y-92468500D01*
X134429481Y-92468499D01*
X134605000Y-92433587D01*
X134770336Y-92365102D01*
X134919135Y-92265678D01*
X135045678Y-92139135D01*
X135145102Y-91990336D01*
X135213587Y-91825000D01*
X135240170Y-91691351D01*
X135272554Y-91629443D01*
X135274049Y-91627920D01*
X136590328Y-90311643D01*
X136667865Y-90195601D01*
X136716436Y-90078339D01*
X136721273Y-90066662D01*
X136748500Y-89929781D01*
X136748500Y-89072019D01*
X136768185Y-89004980D01*
X136807402Y-88966481D01*
X136908652Y-88904030D01*
X137014819Y-88797863D01*
X137076142Y-88764378D01*
X137145834Y-88769362D01*
X137201767Y-88811234D01*
X137226184Y-88876698D01*
X137226500Y-88885544D01*
X137226500Y-93499636D01*
X137206815Y-93566675D01*
X137154011Y-93612430D01*
X137084853Y-93622374D01*
X137021297Y-93593349D01*
X137014426Y-93586165D01*
X137014137Y-93586455D01*
X136883653Y-93455971D01*
X136883652Y-93455970D01*
X136754813Y-93376501D01*
X136732740Y-93362886D01*
X136732735Y-93362884D01*
X136564427Y-93307113D01*
X136460545Y-93296500D01*
X135159462Y-93296500D01*
X135159446Y-93296501D01*
X135055572Y-93307113D01*
X134887264Y-93362884D01*
X134887259Y-93362886D01*
X134736346Y-93455971D01*
X134610971Y-93581346D01*
X134517886Y-93732259D01*
X134517884Y-93732264D01*
X134462113Y-93900572D01*
X134451500Y-94004447D01*
X134451500Y-95605537D01*
X134451501Y-95605553D01*
X134462113Y-95709427D01*
X134502617Y-95831662D01*
X134517885Y-95877738D01*
X134610970Y-96028652D01*
X134736348Y-96154030D01*
X134887262Y-96247115D01*
X135055574Y-96302887D01*
X135159455Y-96313500D01*
X136460544Y-96313499D01*
X136564426Y-96302887D01*
X136732738Y-96247115D01*
X136883652Y-96154030D01*
X136989819Y-96047863D01*
X137051142Y-96014378D01*
X137120834Y-96019362D01*
X137176767Y-96061234D01*
X137201184Y-96126698D01*
X137201500Y-96135544D01*
X137201500Y-100699636D01*
X137181815Y-100766675D01*
X137129011Y-100812430D01*
X137059853Y-100822374D01*
X136996297Y-100793349D01*
X136989426Y-100786165D01*
X136989137Y-100786455D01*
X136858653Y-100655971D01*
X136858652Y-100655970D01*
X136743407Y-100584886D01*
X136707740Y-100562886D01*
X136707735Y-100562884D01*
X136539427Y-100507113D01*
X136435545Y-100496500D01*
X135134462Y-100496500D01*
X135134446Y-100496501D01*
X135030572Y-100507113D01*
X134862264Y-100562884D01*
X134862259Y-100562886D01*
X134711346Y-100655971D01*
X134585971Y-100781346D01*
X134492886Y-100932259D01*
X134492884Y-100932264D01*
X134437113Y-101100572D01*
X134426500Y-101204447D01*
X134426500Y-102805537D01*
X134426501Y-102805553D01*
X134437113Y-102909427D01*
X134492884Y-103077735D01*
X134492886Y-103077740D01*
X134520641Y-103122738D01*
X134585970Y-103228652D01*
X134711348Y-103354030D01*
X134862262Y-103447115D01*
X135030574Y-103502887D01*
X135134455Y-103513500D01*
X136435544Y-103513499D01*
X136539426Y-103502887D01*
X136707738Y-103447115D01*
X136858652Y-103354030D01*
X136964819Y-103247863D01*
X137026142Y-103214378D01*
X137095834Y-103219362D01*
X137151767Y-103261234D01*
X137176184Y-103326698D01*
X137176500Y-103335544D01*
X137176500Y-108024456D01*
X137156815Y-108091495D01*
X137104011Y-108137250D01*
X137034853Y-108147194D01*
X136971297Y-108118169D01*
X136964819Y-108112137D01*
X136883653Y-108030971D01*
X136883652Y-108030970D01*
X136755805Y-107952113D01*
X136732740Y-107937886D01*
X136732735Y-107937884D01*
X136564427Y-107882113D01*
X136460545Y-107871500D01*
X135159462Y-107871500D01*
X135159446Y-107871501D01*
X135055572Y-107882113D01*
X134887264Y-107937884D01*
X134887259Y-107937886D01*
X134736346Y-108030971D01*
X134610971Y-108156346D01*
X134517886Y-108307259D01*
X134517884Y-108307264D01*
X134462113Y-108475572D01*
X134451500Y-108579447D01*
X134451500Y-110180537D01*
X134451501Y-110180553D01*
X134462113Y-110284427D01*
X134507943Y-110422735D01*
X134517885Y-110452738D01*
X134610970Y-110603652D01*
X134736348Y-110729030D01*
X134887262Y-110822115D01*
X135055574Y-110877887D01*
X135159455Y-110888500D01*
X136460544Y-110888499D01*
X136564426Y-110877887D01*
X136732738Y-110822115D01*
X136883652Y-110729030D01*
X136989819Y-110622863D01*
X137051142Y-110589378D01*
X137120834Y-110594362D01*
X137176767Y-110636234D01*
X137201184Y-110701698D01*
X137201500Y-110710544D01*
X137201500Y-115224636D01*
X137181815Y-115291675D01*
X137129011Y-115337430D01*
X137059853Y-115347374D01*
X136996297Y-115318349D01*
X136989426Y-115311165D01*
X136989137Y-115311455D01*
X136858653Y-115180971D01*
X136858652Y-115180970D01*
X136707738Y-115087885D01*
X136707735Y-115087884D01*
X136539427Y-115032113D01*
X136435545Y-115021500D01*
X135134462Y-115021500D01*
X135134446Y-115021501D01*
X135030572Y-115032113D01*
X134862264Y-115087884D01*
X134862259Y-115087886D01*
X134711346Y-115180971D01*
X134585971Y-115306346D01*
X134492886Y-115457259D01*
X134492884Y-115457264D01*
X134437113Y-115625572D01*
X134426500Y-115729447D01*
X134426500Y-117330537D01*
X134426501Y-117330553D01*
X134437113Y-117434427D01*
X134470025Y-117533750D01*
X134492885Y-117602738D01*
X134585970Y-117753652D01*
X134711348Y-117879030D01*
X134862262Y-117972115D01*
X135030574Y-118027887D01*
X135134455Y-118038500D01*
X136435544Y-118038499D01*
X136539426Y-118027887D01*
X136707738Y-117972115D01*
X136858652Y-117879030D01*
X136964819Y-117772863D01*
X137026142Y-117739378D01*
X137095834Y-117744362D01*
X137151767Y-117786234D01*
X137176184Y-117851698D01*
X137176500Y-117860544D01*
X137176500Y-122499636D01*
X137156815Y-122566675D01*
X137104011Y-122612430D01*
X137034853Y-122622374D01*
X136971297Y-122593349D01*
X136964426Y-122586165D01*
X136964137Y-122586455D01*
X136833653Y-122455971D01*
X136833652Y-122455970D01*
X136731377Y-122392886D01*
X136682740Y-122362886D01*
X136682735Y-122362884D01*
X136514427Y-122307113D01*
X136410545Y-122296500D01*
X135109462Y-122296500D01*
X135109446Y-122296501D01*
X135005572Y-122307113D01*
X134837264Y-122362884D01*
X134837259Y-122362886D01*
X134686346Y-122455971D01*
X134560971Y-122581346D01*
X134467886Y-122732259D01*
X134467884Y-122732264D01*
X134412113Y-122900572D01*
X134401500Y-123004447D01*
X134401500Y-124605537D01*
X134401501Y-124605553D01*
X134412113Y-124709427D01*
X134445701Y-124810789D01*
X134467885Y-124877738D01*
X134560970Y-125028652D01*
X134686348Y-125154030D01*
X134837262Y-125247115D01*
X135005574Y-125302887D01*
X135109455Y-125313500D01*
X136410544Y-125313499D01*
X136514426Y-125302887D01*
X136682738Y-125247115D01*
X136833652Y-125154030D01*
X136939819Y-125047863D01*
X137001142Y-125014378D01*
X137070834Y-125019362D01*
X137126767Y-125061234D01*
X137151184Y-125126698D01*
X137151500Y-125135544D01*
X137151500Y-129799636D01*
X137131815Y-129866675D01*
X137079011Y-129912430D01*
X137009853Y-129922374D01*
X136946297Y-129893349D01*
X136939426Y-129886165D01*
X136939137Y-129886455D01*
X136808653Y-129755971D01*
X136808652Y-129755970D01*
X136690163Y-129682885D01*
X136657740Y-129662886D01*
X136657735Y-129662884D01*
X136489427Y-129607113D01*
X136385545Y-129596500D01*
X135084462Y-129596500D01*
X135084446Y-129596501D01*
X134980572Y-129607113D01*
X134812264Y-129662884D01*
X134812259Y-129662886D01*
X134661346Y-129755971D01*
X134535971Y-129881346D01*
X134442886Y-130032259D01*
X134442884Y-130032264D01*
X134387113Y-130200572D01*
X134376500Y-130304447D01*
X134376500Y-131905537D01*
X134376501Y-131905553D01*
X134387113Y-132009427D01*
X134442884Y-132177735D01*
X134442886Y-132177740D01*
X134452757Y-132193743D01*
X134535970Y-132328652D01*
X134661348Y-132454030D01*
X134812262Y-132547115D01*
X134980574Y-132602887D01*
X135084455Y-132613500D01*
X136385544Y-132613499D01*
X136489426Y-132602887D01*
X136657738Y-132547115D01*
X136808652Y-132454030D01*
X136934030Y-132328652D01*
X137024679Y-132181687D01*
X137076624Y-132134966D01*
X137145587Y-132123743D01*
X137209669Y-132151587D01*
X137217896Y-132159106D01*
X137349996Y-132291206D01*
X137522991Y-132416894D01*
X137616438Y-132464507D01*
X137713516Y-132513972D01*
X137713519Y-132513973D01*
X137815200Y-132547010D01*
X137916884Y-132580049D01*
X138128084Y-132613500D01*
X138128085Y-132613500D01*
X138341915Y-132613500D01*
X138341916Y-132613500D01*
X138553116Y-132580049D01*
X138756483Y-132513972D01*
X138947009Y-132416894D01*
X139120004Y-132291206D01*
X139271206Y-132140004D01*
X139396894Y-131967009D01*
X139493972Y-131776483D01*
X139560049Y-131573116D01*
X139593500Y-131361916D01*
X139593500Y-131361914D01*
X139594262Y-131357104D01*
X139594520Y-131357144D01*
X139595468Y-131351154D01*
X139595443Y-131351150D01*
X139623500Y-131174004D01*
X139623500Y-130999523D01*
X139596205Y-130827190D01*
X139587485Y-130800353D01*
X139582943Y-130781432D01*
X139560049Y-130636884D01*
X139500471Y-130453519D01*
X139493973Y-130433519D01*
X139493972Y-130433516D01*
X139463874Y-130374447D01*
X139396894Y-130242991D01*
X139392179Y-130236502D01*
X139368702Y-130170696D01*
X139368500Y-130163620D01*
X139368500Y-124780789D01*
X139388185Y-124713750D01*
X139392183Y-124707903D01*
X139421891Y-124667013D01*
X139421890Y-124667013D01*
X139421894Y-124667009D01*
X139518972Y-124476483D01*
X139585049Y-124273116D01*
X139618500Y-124061916D01*
X139618500Y-123548084D01*
X139585049Y-123336884D01*
X139546460Y-123218117D01*
X139518973Y-123133519D01*
X139518972Y-123133516D01*
X139488874Y-123074447D01*
X139421894Y-122942991D01*
X139417179Y-122936502D01*
X139393702Y-122870696D01*
X139393500Y-122863620D01*
X139393500Y-117505789D01*
X139413185Y-117438750D01*
X139417183Y-117432903D01*
X139446891Y-117392013D01*
X139446890Y-117392013D01*
X139446894Y-117392009D01*
X139543972Y-117201483D01*
X139610049Y-116998116D01*
X139643500Y-116786916D01*
X139643500Y-116273084D01*
X139610049Y-116061884D01*
X139574839Y-115953516D01*
X139543973Y-115858519D01*
X139543972Y-115858516D01*
X139504454Y-115780959D01*
X139446894Y-115667991D01*
X139442179Y-115661502D01*
X139418702Y-115595696D01*
X139418500Y-115588620D01*
X139418500Y-110355789D01*
X139438185Y-110288750D01*
X139442183Y-110282903D01*
X139471891Y-110242013D01*
X139471890Y-110242013D01*
X139471894Y-110242009D01*
X139568972Y-110051483D01*
X139635049Y-109848116D01*
X139668500Y-109636916D01*
X139668500Y-109123084D01*
X139635049Y-108911884D01*
X139568972Y-108708517D01*
X139568972Y-108708516D01*
X139535354Y-108642539D01*
X139471894Y-108517991D01*
X139426546Y-108455574D01*
X139417182Y-108442685D01*
X139393702Y-108376879D01*
X139393500Y-108369800D01*
X139393500Y-102980789D01*
X139413185Y-102913750D01*
X139417183Y-102907903D01*
X139446891Y-102867013D01*
X139446890Y-102867013D01*
X139446894Y-102867009D01*
X139543972Y-102676483D01*
X139610049Y-102473116D01*
X139643500Y-102261916D01*
X139643500Y-101748084D01*
X139610049Y-101536884D01*
X139568311Y-101408426D01*
X139543973Y-101333519D01*
X139543972Y-101333516D01*
X139512398Y-101271549D01*
X139446894Y-101142991D01*
X139442179Y-101136502D01*
X139418702Y-101070696D01*
X139418500Y-101063620D01*
X139418500Y-95780789D01*
X139438185Y-95713750D01*
X139442183Y-95707903D01*
X139471891Y-95667013D01*
X139471890Y-95667013D01*
X139471894Y-95667009D01*
X139568972Y-95476483D01*
X139635049Y-95273116D01*
X139668500Y-95061916D01*
X139668500Y-94548084D01*
X139635049Y-94336884D01*
X139591716Y-94203516D01*
X139568973Y-94133519D01*
X139568972Y-94133516D01*
X139543970Y-94084447D01*
X139471894Y-93942991D01*
X139467179Y-93936502D01*
X139443702Y-93870696D01*
X139443500Y-93863620D01*
X139443500Y-88530789D01*
X139463185Y-88463750D01*
X139467183Y-88457903D01*
X139496891Y-88417013D01*
X139496890Y-88417013D01*
X139496894Y-88417009D01*
X139593972Y-88226483D01*
X139660049Y-88023116D01*
X139693500Y-87811916D01*
X139693500Y-87298084D01*
X139660049Y-87086884D01*
X139593972Y-86883517D01*
X139593972Y-86883516D01*
X139541666Y-86780861D01*
X139496894Y-86692991D01*
X139492179Y-86686502D01*
X139468702Y-86620696D01*
X139468500Y-86613620D01*
X139468500Y-81455789D01*
X139488185Y-81388750D01*
X139492183Y-81382903D01*
X139521891Y-81342013D01*
X139521890Y-81342013D01*
X139521894Y-81342009D01*
X139618972Y-81151483D01*
X139685049Y-80948116D01*
X139718500Y-80736916D01*
X139718500Y-80223084D01*
X139685049Y-80011884D01*
X139643825Y-79885007D01*
X139618973Y-79808519D01*
X139618972Y-79808516D01*
X139576136Y-79724447D01*
X139521894Y-79617991D01*
X139509520Y-79600959D01*
X139492182Y-79577095D01*
X139468702Y-79511289D01*
X139468500Y-79504210D01*
X139468500Y-78742759D01*
X139441205Y-78570426D01*
X139410061Y-78474574D01*
X139387288Y-78404483D01*
X139387287Y-78404482D01*
X139387287Y-78404480D01*
X139387286Y-78404477D01*
X139308073Y-78249017D01*
X139205522Y-78107867D01*
X139205518Y-78107862D01*
X138427137Y-77329481D01*
X138427132Y-77329477D01*
X138285982Y-77226926D01*
X138130522Y-77147713D01*
X138130511Y-77147709D01*
X137964576Y-77093795D01*
X137964577Y-77093795D01*
X137835324Y-77073323D01*
X137792241Y-77066500D01*
X137792240Y-77066500D01*
X120194969Y-77066500D01*
X120175571Y-77064973D01*
X120169946Y-77064082D01*
X120090506Y-77051500D01*
X119916023Y-77051500D01*
X119801665Y-77069612D01*
X119799390Y-77069973D01*
X119779992Y-77071500D01*
X101067759Y-77071500D01*
X101010314Y-77080598D01*
X100895424Y-77098795D01*
X100890390Y-77100431D01*
X100852072Y-77106500D01*
X86584005Y-77106500D01*
X86409523Y-77106500D01*
X86375056Y-77111959D01*
X86237186Y-77133795D01*
X86071252Y-77187709D01*
X86071241Y-77187713D01*
X85915781Y-77266926D01*
X85774631Y-77369477D01*
X85774626Y-77369481D01*
X84121113Y-79022993D01*
X84071750Y-79053243D01*
X83878519Y-79116026D01*
X83878516Y-79116027D01*
X83687990Y-79213106D01*
X83514997Y-79338793D01*
X83382896Y-79470894D01*
X83321573Y-79504378D01*
X83251881Y-79499394D01*
X83195948Y-79457522D01*
X83189684Y-79448320D01*
X83099030Y-79301348D01*
X82973652Y-79175970D01*
X82822738Y-79082885D01*
X82716377Y-79047641D01*
X82654427Y-79027113D01*
X82550552Y-79016500D01*
X82550545Y-79016500D01*
X81920137Y-79016500D01*
X81900741Y-79014973D01*
X81882733Y-79012121D01*
X81847244Y-79006500D01*
X81847241Y-79006500D01*
X81672759Y-79006500D01*
X81672758Y-79006500D01*
X81619251Y-79014974D01*
X81599855Y-79016500D01*
X81249462Y-79016500D01*
X81249446Y-79016501D01*
X81145572Y-79027113D01*
X80977264Y-79082884D01*
X80977259Y-79082886D01*
X80826346Y-79175971D01*
X80700971Y-79301346D01*
X80607886Y-79452259D01*
X80607884Y-79452264D01*
X80552113Y-79620572D01*
X80541500Y-79724447D01*
X80541500Y-80560167D01*
X80521815Y-80627206D01*
X80469011Y-80672961D01*
X80399853Y-80682905D01*
X80336297Y-80653880D01*
X80329819Y-80647848D01*
X74693672Y-75011701D01*
X74660187Y-74950378D01*
X74660696Y-74903151D01*
X74659287Y-74902928D01*
X74693500Y-74686915D01*
X74693500Y-74473084D01*
X74660049Y-74261884D01*
X74593972Y-74058517D01*
X74593972Y-74058516D01*
X74496893Y-73867990D01*
X74371206Y-73694996D01*
X74220004Y-73543794D01*
X74220000Y-73543791D01*
X74063818Y-73430318D01*
X74021152Y-73374988D01*
X74015173Y-73305375D01*
X74047779Y-73243580D01*
X74063818Y-73229682D01*
X74114200Y-73193076D01*
X74220004Y-73116206D01*
X74371206Y-72965004D01*
X74496894Y-72792009D01*
X74593972Y-72601483D01*
X74660049Y-72398116D01*
X74693500Y-72186916D01*
X74693500Y-71973084D01*
X74660049Y-71761884D01*
X74593972Y-71558517D01*
X74593972Y-71558516D01*
X74496893Y-71367990D01*
X74371206Y-71194996D01*
X74220004Y-71043794D01*
X74047009Y-70918106D01*
X73856483Y-70821027D01*
X73856480Y-70821026D01*
X73653117Y-70754951D01*
X73547516Y-70738225D01*
X73441916Y-70721500D01*
X72978084Y-70721500D01*
X72907684Y-70732650D01*
X72766882Y-70754951D01*
X72563519Y-70821026D01*
X72563516Y-70821027D01*
X72372990Y-70918106D01*
X72199993Y-71043796D01*
X72048796Y-71194993D01*
X71923106Y-71367990D01*
X71826027Y-71558516D01*
X71826026Y-71558519D01*
X71759951Y-71761882D01*
X71726500Y-71973084D01*
X71726500Y-72186915D01*
X71759950Y-72398114D01*
X71768341Y-72423937D01*
X71770336Y-72493778D01*
X71738091Y-72549937D01*
X71119674Y-73168353D01*
X71119668Y-73168361D01*
X71042137Y-73284394D01*
X71042135Y-73284399D01*
X71004369Y-73375572D01*
X71004368Y-73375573D01*
X70988727Y-73413336D01*
X70988725Y-73413342D01*
X70961500Y-73550214D01*
X70200500Y-73550214D01*
X70200500Y-66645845D01*
X70220185Y-66578806D01*
X70272989Y-66533051D01*
X70342147Y-66523107D01*
X70405703Y-66552132D01*
X70427601Y-66576953D01*
X70473633Y-66645845D01*
X70517707Y-66711806D01*
X70517717Y-66711820D01*
X70748873Y-66993485D01*
X71006514Y-67251126D01*
X71006519Y-67251130D01*
X71006520Y-67251131D01*
X71288185Y-67482287D01*
X71591151Y-67684722D01*
X71591160Y-67684727D01*
X71591162Y-67684728D01*
X71912492Y-67856483D01*
X71912494Y-67856483D01*
X71912500Y-67856487D01*
X72117665Y-67941469D01*
X72249131Y-67995925D01*
X72249135Y-67995926D01*
X72249137Y-67995927D01*
X72597821Y-68101699D01*
X72597827Y-68101700D01*
X72597830Y-68101701D01*
X72597841Y-68101704D01*
X72821927Y-68146276D01*
X72955194Y-68172785D01*
X73317813Y-68208500D01*
X73317816Y-68208500D01*
X73682184Y-68208500D01*
X73682187Y-68208500D01*
X74044806Y-68172785D01*
X74221696Y-68137599D01*
X74402158Y-68101704D01*
X74402169Y-68101701D01*
X74402169Y-68101700D01*
X74402179Y-68101699D01*
X74750863Y-67995927D01*
X75087500Y-67856487D01*
X75408849Y-67684722D01*
X75711815Y-67482287D01*
X75993480Y-67251131D01*
X76251131Y-66993480D01*
X76482287Y-66711815D01*
X76684722Y-66408849D01*
X76856487Y-66087500D01*
X76995927Y-65750863D01*
X77101699Y-65402179D01*
X77101701Y-65402169D01*
X77101704Y-65402158D01*
X77159815Y-65110013D01*
X80640000Y-65110013D01*
X80640000Y-65660000D01*
X81556988Y-65660000D01*
X81524075Y-65717007D01*
X81490000Y-65844174D01*
X81490000Y-65975826D01*
X81524075Y-66102993D01*
X81556988Y-66160000D01*
X80640001Y-66160000D01*
X80640001Y-66709986D01*
X80650494Y-66812697D01*
X80705641Y-66979119D01*
X80705643Y-66979124D01*
X80797684Y-67128345D01*
X80921654Y-67252315D01*
X81070875Y-67344356D01*
X81070880Y-67344358D01*
X81237302Y-67399505D01*
X81237309Y-67399506D01*
X81340019Y-67409999D01*
X81739999Y-67409999D01*
X81740000Y-67409998D01*
X81740000Y-66343012D01*
X81797007Y-66375925D01*
X81924174Y-66410000D01*
X82055826Y-66410000D01*
X82182993Y-66375925D01*
X82240000Y-66343012D01*
X82240000Y-67409999D01*
X82639972Y-67409999D01*
X82639986Y-67409998D01*
X82742697Y-67399505D01*
X82909119Y-67344358D01*
X82909124Y-67344356D01*
X83058345Y-67252315D01*
X83182315Y-67128345D01*
X83273499Y-66980513D01*
X83325447Y-66933789D01*
X83394410Y-66922566D01*
X83458492Y-66950410D01*
X83466719Y-66957929D01*
X83604996Y-67096206D01*
X83777991Y-67221894D01*
X83871438Y-67269507D01*
X83968516Y-67318972D01*
X83968519Y-67318973D01*
X84033229Y-67339998D01*
X84171884Y-67385049D01*
X84383084Y-67418500D01*
X84383085Y-67418500D01*
X84596915Y-67418500D01*
X84596916Y-67418500D01*
X84808116Y-67385049D01*
X85011483Y-67318972D01*
X85202009Y-67221894D01*
X85375004Y-67096206D01*
X85526206Y-66945004D01*
X85651894Y-66772009D01*
X85748972Y-66581483D01*
X85815049Y-66378116D01*
X85848500Y-66166916D01*
X85848500Y-65653084D01*
X85815049Y-65441884D01*
X85748972Y-65238517D01*
X85673305Y-65090013D01*
X98810000Y-65090013D01*
X98810000Y-65640000D01*
X99726988Y-65640000D01*
X99694075Y-65697007D01*
X99660000Y-65824174D01*
X99660000Y-65955826D01*
X99694075Y-66082993D01*
X99726988Y-66140000D01*
X98810001Y-66140000D01*
X98810001Y-66689986D01*
X98820494Y-66792697D01*
X98875641Y-66959119D01*
X98875643Y-66959124D01*
X98967684Y-67108345D01*
X99091654Y-67232315D01*
X99240875Y-67324356D01*
X99240880Y-67324358D01*
X99407302Y-67379505D01*
X99407309Y-67379506D01*
X99510019Y-67389999D01*
X99909999Y-67389999D01*
X99910000Y-67389998D01*
X99910000Y-66323012D01*
X99967007Y-66355925D01*
X100094174Y-66390000D01*
X100225826Y-66390000D01*
X100352993Y-66355925D01*
X100410000Y-66323012D01*
X100410000Y-67389999D01*
X100809972Y-67389999D01*
X100809986Y-67389998D01*
X100912697Y-67379505D01*
X101079119Y-67324358D01*
X101079124Y-67324356D01*
X101228345Y-67232315D01*
X101352315Y-67108345D01*
X101443499Y-66960513D01*
X101495447Y-66913789D01*
X101564410Y-66902566D01*
X101628492Y-66930410D01*
X101636719Y-66937929D01*
X101774996Y-67076206D01*
X101947991Y-67201894D01*
X102040387Y-67248972D01*
X102138516Y-67298972D01*
X102138519Y-67298973D01*
X102216642Y-67324356D01*
X102341884Y-67365049D01*
X102553084Y-67398500D01*
X102553085Y-67398500D01*
X102766915Y-67398500D01*
X102766916Y-67398500D01*
X102978116Y-67365049D01*
X103181483Y-67298972D01*
X103372009Y-67201894D01*
X103545004Y-67076206D01*
X103696206Y-66925004D01*
X103821894Y-66752009D01*
X103918972Y-66561483D01*
X103985049Y-66358116D01*
X104018500Y-66146916D01*
X104018500Y-65633084D01*
X103985049Y-65421884D01*
X103925471Y-65238519D01*
X103918973Y-65218519D01*
X103918972Y-65218516D01*
X103855099Y-65093159D01*
X103843305Y-65070013D01*
X103828019Y-65040013D01*
X116120000Y-65040013D01*
X116120000Y-65590000D01*
X117036988Y-65590000D01*
X117004075Y-65647007D01*
X116970000Y-65774174D01*
X116970000Y-65905826D01*
X117004075Y-66032993D01*
X117036988Y-66090000D01*
X116120001Y-66090000D01*
X116120001Y-66639986D01*
X116130494Y-66742697D01*
X116185641Y-66909119D01*
X116185643Y-66909124D01*
X116277684Y-67058345D01*
X116401654Y-67182315D01*
X116550875Y-67274356D01*
X116550880Y-67274358D01*
X116717302Y-67329505D01*
X116717309Y-67329506D01*
X116820019Y-67339999D01*
X117219999Y-67339999D01*
X117220000Y-67339998D01*
X117220000Y-66273012D01*
X117277007Y-66305925D01*
X117404174Y-66340000D01*
X117535826Y-66340000D01*
X117662993Y-66305925D01*
X117720000Y-66273012D01*
X117720000Y-67339999D01*
X118119972Y-67339999D01*
X118119986Y-67339998D01*
X118222697Y-67329505D01*
X118389119Y-67274358D01*
X118389124Y-67274356D01*
X118538345Y-67182315D01*
X118662315Y-67058345D01*
X118753499Y-66910513D01*
X118805447Y-66863789D01*
X118874410Y-66852566D01*
X118938492Y-66880410D01*
X118946719Y-66887929D01*
X119084996Y-67026206D01*
X119257991Y-67151894D01*
X119351438Y-67199507D01*
X119448516Y-67248972D01*
X119448519Y-67248973D01*
X119526642Y-67274356D01*
X119651884Y-67315049D01*
X119863084Y-67348500D01*
X119863085Y-67348500D01*
X120076915Y-67348500D01*
X120076916Y-67348500D01*
X120288116Y-67315049D01*
X120491483Y-67248972D01*
X120682009Y-67151894D01*
X120855004Y-67026206D01*
X121006206Y-66875004D01*
X121131894Y-66702009D01*
X121228972Y-66511483D01*
X121295049Y-66308116D01*
X121328500Y-66096916D01*
X121328500Y-65583084D01*
X121295049Y-65371884D01*
X121251716Y-65238516D01*
X121228973Y-65168519D01*
X121228972Y-65168516D01*
X121205861Y-65123159D01*
X121178782Y-65070013D01*
X134490000Y-65070013D01*
X134490000Y-65620000D01*
X135406988Y-65620000D01*
X135374075Y-65677007D01*
X135340000Y-65804174D01*
X135340000Y-65935826D01*
X135374075Y-66062993D01*
X135406988Y-66120000D01*
X134490001Y-66120000D01*
X134490001Y-66669986D01*
X134500494Y-66772697D01*
X134555641Y-66939119D01*
X134555643Y-66939124D01*
X134647684Y-67088345D01*
X134771654Y-67212315D01*
X134920875Y-67304356D01*
X134920880Y-67304358D01*
X135087302Y-67359505D01*
X135087309Y-67359506D01*
X135190019Y-67369999D01*
X135589999Y-67369999D01*
X135590000Y-67369998D01*
X135590000Y-66303012D01*
X135647007Y-66335925D01*
X135774174Y-66370000D01*
X135905826Y-66370000D01*
X136032993Y-66335925D01*
X136090000Y-66303012D01*
X136090000Y-67369999D01*
X136489972Y-67369999D01*
X136489986Y-67369998D01*
X136592697Y-67359505D01*
X136759119Y-67304358D01*
X136759124Y-67304356D01*
X136908345Y-67212315D01*
X137032315Y-67088345D01*
X137123499Y-66940513D01*
X137175447Y-66893789D01*
X137244410Y-66882566D01*
X137308492Y-66910410D01*
X137316719Y-66917929D01*
X137454996Y-67056206D01*
X137627991Y-67181894D01*
X137706493Y-67221893D01*
X137818516Y-67278972D01*
X137818519Y-67278973D01*
X137896642Y-67304356D01*
X138021884Y-67345049D01*
X138233084Y-67378500D01*
X138233085Y-67378500D01*
X138446915Y-67378500D01*
X138446916Y-67378500D01*
X138658116Y-67345049D01*
X138861483Y-67278972D01*
X139052009Y-67181894D01*
X139225004Y-67056206D01*
X139376206Y-66905004D01*
X139501894Y-66732009D01*
X139598972Y-66541483D01*
X139665049Y-66338116D01*
X139698500Y-66126916D01*
X139698500Y-65613084D01*
X139665049Y-65401884D01*
X139605471Y-65218519D01*
X139598973Y-65198519D01*
X139598972Y-65198516D01*
X139522275Y-65047991D01*
X139501894Y-65007991D01*
X139376206Y-64834996D01*
X139225004Y-64683794D01*
X139052009Y-64558106D01*
X138992303Y-64527684D01*
X138861483Y-64461027D01*
X138861480Y-64461026D01*
X138658117Y-64394951D01*
X138552516Y-64378225D01*
X138446916Y-64361500D01*
X138233084Y-64361500D01*
X138179411Y-64370001D01*
X138021882Y-64394951D01*
X137818519Y-64461026D01*
X137818516Y-64461027D01*
X137627990Y-64558106D01*
X137454997Y-64683793D01*
X137316719Y-64822071D01*
X137255396Y-64855555D01*
X137185704Y-64850571D01*
X137129771Y-64808699D01*
X137123499Y-64799486D01*
X137032315Y-64651654D01*
X136908345Y-64527684D01*
X136759124Y-64435643D01*
X136759119Y-64435641D01*
X136592697Y-64380494D01*
X136592690Y-64380493D01*
X136489986Y-64370000D01*
X136090000Y-64370000D01*
X136090000Y-65436988D01*
X136032993Y-65404075D01*
X135905826Y-65370000D01*
X135774174Y-65370000D01*
X135647007Y-65404075D01*
X135590000Y-65436988D01*
X135590000Y-64370000D01*
X135190028Y-64370000D01*
X135190012Y-64370001D01*
X135087302Y-64380494D01*
X134920880Y-64435641D01*
X134920875Y-64435643D01*
X134771654Y-64527684D01*
X134647684Y-64651654D01*
X134555643Y-64800875D01*
X134555641Y-64800880D01*
X134500494Y-64967302D01*
X134500493Y-64967309D01*
X134490000Y-65070013D01*
X121178782Y-65070013D01*
X121157370Y-65027990D01*
X121131894Y-64977991D01*
X121006206Y-64804996D01*
X120855004Y-64653794D01*
X120682009Y-64528106D01*
X120622303Y-64497684D01*
X120491483Y-64431027D01*
X120491480Y-64431026D01*
X120288117Y-64364951D01*
X120182516Y-64348225D01*
X120076916Y-64331500D01*
X119863084Y-64331500D01*
X119809411Y-64340001D01*
X119651882Y-64364951D01*
X119448519Y-64431026D01*
X119448516Y-64431027D01*
X119257990Y-64528106D01*
X119084997Y-64653793D01*
X118946719Y-64792071D01*
X118885396Y-64825555D01*
X118815704Y-64820571D01*
X118759771Y-64778699D01*
X118753499Y-64769486D01*
X118662315Y-64621654D01*
X118538345Y-64497684D01*
X118389124Y-64405643D01*
X118389119Y-64405641D01*
X118222697Y-64350494D01*
X118222690Y-64350493D01*
X118119986Y-64340000D01*
X117720000Y-64340000D01*
X117720000Y-65406988D01*
X117662993Y-65374075D01*
X117535826Y-65340000D01*
X117404174Y-65340000D01*
X117277007Y-65374075D01*
X117220000Y-65406988D01*
X117220000Y-64340000D01*
X116820028Y-64340000D01*
X116820012Y-64340001D01*
X116717302Y-64350494D01*
X116550880Y-64405641D01*
X116550875Y-64405643D01*
X116401654Y-64497684D01*
X116277684Y-64621654D01*
X116185643Y-64770875D01*
X116185641Y-64770880D01*
X116130494Y-64937302D01*
X116130493Y-64937309D01*
X116120000Y-65040013D01*
X103828019Y-65040013D01*
X103821894Y-65027991D01*
X103696206Y-64854996D01*
X103545004Y-64703794D01*
X103372009Y-64578106D01*
X103312303Y-64547684D01*
X103181483Y-64481027D01*
X103181480Y-64481026D01*
X102978117Y-64414951D01*
X102851842Y-64394951D01*
X102766916Y-64381500D01*
X102553084Y-64381500D01*
X102499411Y-64390001D01*
X102341882Y-64414951D01*
X102138519Y-64481026D01*
X102138516Y-64481027D01*
X101947990Y-64578106D01*
X101774997Y-64703793D01*
X101636719Y-64842071D01*
X101575396Y-64875555D01*
X101505704Y-64870571D01*
X101449771Y-64828699D01*
X101443499Y-64819486D01*
X101352315Y-64671654D01*
X101228345Y-64547684D01*
X101079124Y-64455643D01*
X101079119Y-64455641D01*
X100912697Y-64400494D01*
X100912690Y-64400493D01*
X100809986Y-64390000D01*
X100410000Y-64390000D01*
X100410000Y-65456988D01*
X100352993Y-65424075D01*
X100225826Y-65390000D01*
X100094174Y-65390000D01*
X99967007Y-65424075D01*
X99910000Y-65456988D01*
X99910000Y-64390000D01*
X99510028Y-64390000D01*
X99510012Y-64390001D01*
X99407302Y-64400494D01*
X99240880Y-64455641D01*
X99240875Y-64455643D01*
X99091654Y-64547684D01*
X98967684Y-64671654D01*
X98875643Y-64820875D01*
X98875641Y-64820880D01*
X98820494Y-64987302D01*
X98820493Y-64987309D01*
X98810000Y-65090013D01*
X85673305Y-65090013D01*
X85651894Y-65047991D01*
X85526206Y-64874996D01*
X85375004Y-64723794D01*
X85202009Y-64598106D01*
X85142303Y-64567684D01*
X85011483Y-64501027D01*
X85011480Y-64501026D01*
X84808117Y-64434951D01*
X84681842Y-64414951D01*
X84596916Y-64401500D01*
X84383084Y-64401500D01*
X84329411Y-64410001D01*
X84171882Y-64434951D01*
X83968519Y-64501026D01*
X83968516Y-64501027D01*
X83777990Y-64598106D01*
X83604997Y-64723793D01*
X83466719Y-64862071D01*
X83405396Y-64895555D01*
X83335704Y-64890571D01*
X83279771Y-64848699D01*
X83273499Y-64839486D01*
X83182315Y-64691654D01*
X83058345Y-64567684D01*
X82909124Y-64475643D01*
X82909119Y-64475641D01*
X82742697Y-64420494D01*
X82742690Y-64420493D01*
X82639986Y-64410000D01*
X82240000Y-64410000D01*
X82240000Y-65476988D01*
X82182993Y-65444075D01*
X82055826Y-65410000D01*
X81924174Y-65410000D01*
X81797007Y-65444075D01*
X81740000Y-65476988D01*
X81740000Y-64410000D01*
X81340028Y-64410000D01*
X81340012Y-64410001D01*
X81237302Y-64420494D01*
X81070880Y-64475641D01*
X81070875Y-64475643D01*
X80921654Y-64567684D01*
X80797684Y-64691654D01*
X80705643Y-64840875D01*
X80705641Y-64840880D01*
X80650494Y-65007302D01*
X80650493Y-65007309D01*
X80640000Y-65110013D01*
X77159815Y-65110013D01*
X77165253Y-65082673D01*
X77172151Y-65047991D01*
X77172785Y-65044806D01*
X77208500Y-64682187D01*
X77208500Y-64317813D01*
X77172785Y-63955194D01*
X77146276Y-63821927D01*
X77101704Y-63597841D01*
X77101701Y-63597830D01*
X77101700Y-63597827D01*
X77101699Y-63597821D01*
X76995927Y-63249137D01*
X76856487Y-62912500D01*
X76684722Y-62591151D01*
X76482287Y-62288185D01*
X76251131Y-62006520D01*
X76251130Y-62006519D01*
X76251126Y-62006514D01*
X75993485Y-61748873D01*
X75711820Y-61517717D01*
X75711819Y-61517716D01*
X75711815Y-61517713D01*
X75576953Y-61427601D01*
X75532149Y-61373990D01*
X75523442Y-61304665D01*
X75553596Y-61241638D01*
X75613039Y-61204918D01*
X75645845Y-61200500D01*
X144354155Y-61200500D01*
X144386655Y-61210043D01*
G37*
%TD.AperFunction*%
%TD*%
M02*
