M48
; DRILL file {KiCad 9.0.3} date 2025-07-24T13:36:42+0200
; FORMAT={-:-/ absolute / inch / decimal}
; #@! TF.CreationDate,2025-07-24T13:36:42+02:00
; #@! TF.GenerationSoftware,Kicad,Pcbnew,9.0.3
; #@! TF.FileFunction,Plated,1,2,PTH
FMAT,2
INCH
; #@! TA.AperFunction,Plated,PTH,ViaDrill
T1C0.0157
; #@! TA.AperFunction,Plated,PTH,ComponentDrill
T2C0.0374
; #@! TA.AperFunction,Plated,PTH,ComponentDrill
T3C0.0394
; #@! TA.AperFunction,Plated,PTH,ComponentDrill
T4C0.1260
%
G90
G05
T1
X2.8299Y-3.8138
X2.8299Y-4.0598
X2.8299Y-4.2969
X2.8319Y-5.2248
X3.0752Y-2.874
X3.2669Y-3.5543
X3.3833Y-5.0414
X3.3839Y-4.0594
X3.3957Y-4.3717
X3.3965Y-4.8291
X3.3972Y-4.6528
X3.4154Y-4.0307
X3.4394Y-3.3697
X3.4437Y-5.0531
X3.4559Y-3.8906
X3.4679Y-3.1522
X3.5335Y-4.4146
X3.5447Y-5.388
X3.5744Y-4.0917
X3.5831Y-4.9238
X3.6087Y-5.0272
X3.6264Y-3.4866
X3.6315Y-4.4465
X3.6496Y-4.174
X3.6858Y-5.1228
X3.6992Y-3.1531
X3.7441Y-3.8941
X3.7697Y-3.3728
X3.7898Y-4.8672
X3.8039Y-3.6689
X3.8065Y-3.7343
X3.8104Y-4.9125
X3.8154Y-3.4626
X3.8331Y-3.8846
X3.8469Y-4.9465
X3.8681Y-3.2252
X3.8705Y-4.222
X3.8996Y-3.5354
X3.9443Y-4.1823
X3.9484Y-4.7098
X3.9642Y-5.2862
X3.9673Y-3.8661
X4.174Y-3.3803
X4.1748Y-3.6862
X4.1748Y-4.0642
X4.1778Y-4.4146
X4.1778Y-4.698
X4.1807Y-4.9825
X4.1852Y-3.1616
X4.2449Y-5.4795
X4.4366Y-4.0669
X4.4445Y-2.8297
X4.4504Y-3.6772
X4.4535Y-3.1591
X4.4563Y-4.4124
X4.4593Y-4.6919
X4.4593Y-4.9882
X4.478Y-3.363
X4.615Y-3.6169
X4.6177Y-3.8657
X4.6189Y-3.2902
X4.7941Y-3.85
X4.7969Y-2.8041
X4.8276Y-3.8169
X4.8287Y-5.1024
X4.8433Y-3.1555
X4.8457Y-4.9949
X4.8705Y-3.9106
X4.8732Y-4.4528
X4.8748Y-3.2343
X4.8748Y-3.4394
X4.8913Y-4.0886
X4.9134Y-4.1134
X4.9598Y-4.4409
X4.9996Y-5.3469
X5.0072Y-4.9194
X5.0461Y-2.6256
X5.0748Y-5.1205
X5.1047Y-4.0413
X5.1102Y-3.2374
X5.1181Y-5.3969
X5.1315Y-3.4109
X5.1787Y-3.1575
X5.1878Y-4.9077
X5.1913Y-3.8046
X5.2219Y-3.8295
X5.2248Y-4.8319
X5.2437Y-3.4778
X5.2691Y-3.836
X5.289Y-3.6047
X5.3217Y-4.1461
X5.3248Y-3.928
X5.3488Y-5.0012
X5.351Y-2.7898
X5.3575Y-4.7102
X5.3591Y-3.3154
X5.6988Y-3.8417
X5.7Y-4.5094
X5.7016Y-3.3594
X5.7031Y-5.2075
X5.7213Y-2.8276
T2
X2.8823Y-2.8378
X2.8823Y-2.9362
X2.8823Y-3.0346
X2.8823Y-3.1331
X2.8823Y-3.2315
T3
X2.8823Y-4.8386
X2.8823Y-4.937
X3.2244Y-3.1703
X3.2244Y-3.4508
X3.2244Y-3.7382
X3.2244Y-4.0246
X3.2244Y-4.3091
X3.2244Y-4.5935
X3.2244Y-4.878
X3.2244Y-5.1644
X3.228Y-2.5949
X3.3228Y-3.1703
X3.3228Y-3.4508
X3.3228Y-3.7382
X3.3228Y-4.0246
X3.3228Y-4.3091
X3.3228Y-4.5935
X3.3228Y-4.878
X3.3228Y-5.1644
X3.3264Y-2.5949
X3.9421Y-4.3051
X3.9421Y-4.5915
X3.9421Y-4.877
X3.9431Y-4.0177
X3.9431Y-5.1624
X3.9433Y-2.5941
X3.9441Y-3.1703
X3.9441Y-3.4498
X3.9441Y-3.7352
X4.0406Y-4.3051
X4.0406Y-4.5915
X4.0406Y-4.877
X4.0415Y-4.0177
X4.0415Y-5.1624
X4.0417Y-2.5941
X4.0425Y-3.1703
X4.0425Y-3.4498
X4.0425Y-3.7352
X4.6236Y-3.1687
X4.6236Y-3.4502
X4.6236Y-3.7356
X4.6236Y-4.0201
X4.6236Y-4.3055
X4.6236Y-4.5929
X4.6236Y-4.8754
X4.6236Y-5.1618
X4.6248Y-2.5921
X4.722Y-3.1687
X4.722Y-3.4502
X4.722Y-3.7356
X4.722Y-4.0201
X4.722Y-4.3055
X4.722Y-4.5929
X4.722Y-4.8754
X4.722Y-5.1618
X4.7232Y-2.5921
X5.3439Y-5.1616
X5.3449Y-4.8742
X5.3459Y-4.0159
X5.3459Y-4.5878
X5.3469Y-3.7325
X5.3469Y-4.3063
X5.3478Y-3.447
X5.348Y-2.5933
X5.3488Y-3.1685
X5.4423Y-5.1616
X5.4433Y-4.8742
X5.4443Y-4.0159
X5.4443Y-4.5878
X5.4453Y-3.7325
X5.4453Y-4.3063
X5.4463Y-3.447
X5.4465Y-2.5933
X5.4472Y-3.1685
T4
X2.9134Y-2.5591
X2.9134Y-5.3937
X5.748Y-2.5591
X5.748Y-5.3937
M30
