%TF.GenerationSoftware,KiCad,Pcbnew,9.0.3*%
%TF.CreationDate,2025-07-24T13:36:42+02:00*%
%TF.ProjectId,LED-driver-Board,4c45442d-6472-4697-9665-722d426f6172,rev?*%
%TF.SameCoordinates,Original*%
%TF.FileFunction,Legend,Bot*%
%TF.FilePolarity,Positive*%
%FSLAX46Y46*%
G04 Gerber Fmt 4.6, Leading zero omitted, Abs format (unit mm)*
G04 Created by KiCad (PCBNEW 9.0.3) date 2025-07-24 13:36:42*
%MOMM*%
%LPD*%
G01*
G04 APERTURE LIST*
G04 Aperture macros list*
%AMRoundRect*
0 Rectangle with rounded corners*
0 $1 Rounding radius*
0 $2 $3 $4 $5 $6 $7 $8 $9 X,Y pos of 4 corners*
0 Add a 4 corners polygon primitive as box body*
4,1,4,$2,$3,$4,$5,$6,$7,$8,$9,$2,$3,0*
0 Add four circle primitives for the rounded corners*
1,1,$1+$1,$2,$3*
1,1,$1+$1,$4,$5*
1,1,$1+$1,$6,$7*
1,1,$1+$1,$8,$9*
0 Add four rect primitives between the rounded corners*
20,1,$1+$1,$2,$3,$4,$5,0*
20,1,$1+$1,$4,$5,$6,$7,0*
20,1,$1+$1,$6,$7,$8,$9,0*
20,1,$1+$1,$8,$9,$2,$3,0*%
G04 Aperture macros list end*
%ADD10C,0.150000*%
%ADD11C,0.000000*%
%ADD12C,6.400000*%
%ADD13RoundRect,0.250000X-0.600000X-0.750000X0.600000X-0.750000X0.600000X0.750000X-0.600000X0.750000X0*%
%ADD14O,1.700000X2.000000*%
%ADD15RoundRect,0.250000X0.725000X-0.600000X0.725000X0.600000X-0.725000X0.600000X-0.725000X-0.600000X0*%
%ADD16O,1.950000X1.700000*%
%ADD17RoundRect,0.250000X0.750000X-0.600000X0.750000X0.600000X-0.750000X0.600000X-0.750000X-0.600000X0*%
%ADD18O,2.000000X1.700000*%
G04 APERTURE END LIST*
D10*
X78257030Y-79099819D02*
X78733220Y-79099819D01*
X78733220Y-79099819D02*
X78780839Y-79576009D01*
X78780839Y-79576009D02*
X78733220Y-79528390D01*
X78733220Y-79528390D02*
X78637982Y-79480771D01*
X78637982Y-79480771D02*
X78399887Y-79480771D01*
X78399887Y-79480771D02*
X78304649Y-79528390D01*
X78304649Y-79528390D02*
X78257030Y-79576009D01*
X78257030Y-79576009D02*
X78209411Y-79671247D01*
X78209411Y-79671247D02*
X78209411Y-79909342D01*
X78209411Y-79909342D02*
X78257030Y-80004580D01*
X78257030Y-80004580D02*
X78304649Y-80052200D01*
X78304649Y-80052200D02*
X78399887Y-80099819D01*
X78399887Y-80099819D02*
X78637982Y-80099819D01*
X78637982Y-80099819D02*
X78733220Y-80052200D01*
X78733220Y-80052200D02*
X78780839Y-80004580D01*
X77923696Y-79099819D02*
X77590363Y-80099819D01*
X77590363Y-80099819D02*
X77257030Y-79099819D01*
X113752381Y-127503180D02*
X113371429Y-127503180D01*
X113609524Y-127169847D02*
X113609524Y-128026989D01*
X113609524Y-128026989D02*
X113561905Y-128122228D01*
X113561905Y-128122228D02*
X113466667Y-128169847D01*
X113466667Y-128169847D02*
X113371429Y-128169847D01*
X112609524Y-128169847D02*
X112609524Y-127646037D01*
X112609524Y-127646037D02*
X112657143Y-127550799D01*
X112657143Y-127550799D02*
X112752381Y-127503180D01*
X112752381Y-127503180D02*
X112942857Y-127503180D01*
X112942857Y-127503180D02*
X113038095Y-127550799D01*
X112609524Y-128122228D02*
X112704762Y-128169847D01*
X112704762Y-128169847D02*
X112942857Y-128169847D01*
X112942857Y-128169847D02*
X113038095Y-128122228D01*
X113038095Y-128122228D02*
X113085714Y-128026989D01*
X113085714Y-128026989D02*
X113085714Y-127931751D01*
X113085714Y-127931751D02*
X113038095Y-127836513D01*
X113038095Y-127836513D02*
X112942857Y-127788894D01*
X112942857Y-127788894D02*
X112704762Y-127788894D01*
X112704762Y-127788894D02*
X112609524Y-127741275D01*
X112133333Y-128169847D02*
X112133333Y-127169847D01*
X112038095Y-127788894D02*
X111752381Y-128169847D01*
X111752381Y-127503180D02*
X112133333Y-127884132D01*
X110942857Y-128122228D02*
X111038095Y-128169847D01*
X111038095Y-128169847D02*
X111228571Y-128169847D01*
X111228571Y-128169847D02*
X111323809Y-128122228D01*
X111323809Y-128122228D02*
X111371428Y-128026989D01*
X111371428Y-128026989D02*
X111371428Y-127646037D01*
X111371428Y-127646037D02*
X111323809Y-127550799D01*
X111323809Y-127550799D02*
X111228571Y-127503180D01*
X111228571Y-127503180D02*
X111038095Y-127503180D01*
X111038095Y-127503180D02*
X110942857Y-127550799D01*
X110942857Y-127550799D02*
X110895238Y-127646037D01*
X110895238Y-127646037D02*
X110895238Y-127741275D01*
X110895238Y-127741275D02*
X111371428Y-127836513D01*
X109704761Y-128169847D02*
X109704761Y-127503180D01*
X109704761Y-127598418D02*
X109657142Y-127550799D01*
X109657142Y-127550799D02*
X109561904Y-127503180D01*
X109561904Y-127503180D02*
X109419047Y-127503180D01*
X109419047Y-127503180D02*
X109323809Y-127550799D01*
X109323809Y-127550799D02*
X109276190Y-127646037D01*
X109276190Y-127646037D02*
X109276190Y-128169847D01*
X109276190Y-127646037D02*
X109228571Y-127550799D01*
X109228571Y-127550799D02*
X109133333Y-127503180D01*
X109133333Y-127503180D02*
X108990476Y-127503180D01*
X108990476Y-127503180D02*
X108895237Y-127550799D01*
X108895237Y-127550799D02*
X108847618Y-127646037D01*
X108847618Y-127646037D02*
X108847618Y-128169847D01*
X107990476Y-128122228D02*
X108085714Y-128169847D01*
X108085714Y-128169847D02*
X108276190Y-128169847D01*
X108276190Y-128169847D02*
X108371428Y-128122228D01*
X108371428Y-128122228D02*
X108419047Y-128026989D01*
X108419047Y-128026989D02*
X108419047Y-127646037D01*
X108419047Y-127646037D02*
X108371428Y-127550799D01*
X108371428Y-127550799D02*
X108276190Y-127503180D01*
X108276190Y-127503180D02*
X108085714Y-127503180D01*
X108085714Y-127503180D02*
X107990476Y-127550799D01*
X107990476Y-127550799D02*
X107942857Y-127646037D01*
X107942857Y-127646037D02*
X107942857Y-127741275D01*
X107942857Y-127741275D02*
X108419047Y-127836513D01*
X106895237Y-127503180D02*
X106514285Y-127503180D01*
X106752380Y-127169847D02*
X106752380Y-128026989D01*
X106752380Y-128026989D02*
X106704761Y-128122228D01*
X106704761Y-128122228D02*
X106609523Y-128169847D01*
X106609523Y-128169847D02*
X106514285Y-128169847D01*
X106038094Y-128169847D02*
X106133332Y-128122228D01*
X106133332Y-128122228D02*
X106180951Y-128074608D01*
X106180951Y-128074608D02*
X106228570Y-127979370D01*
X106228570Y-127979370D02*
X106228570Y-127693656D01*
X106228570Y-127693656D02*
X106180951Y-127598418D01*
X106180951Y-127598418D02*
X106133332Y-127550799D01*
X106133332Y-127550799D02*
X106038094Y-127503180D01*
X106038094Y-127503180D02*
X105895237Y-127503180D01*
X105895237Y-127503180D02*
X105799999Y-127550799D01*
X105799999Y-127550799D02*
X105752380Y-127598418D01*
X105752380Y-127598418D02*
X105704761Y-127693656D01*
X105704761Y-127693656D02*
X105704761Y-127979370D01*
X105704761Y-127979370D02*
X105752380Y-128074608D01*
X105752380Y-128074608D02*
X105799999Y-128122228D01*
X105799999Y-128122228D02*
X105895237Y-128169847D01*
X105895237Y-128169847D02*
X106038094Y-128169847D01*
X112490476Y-129113124D02*
X112109524Y-129113124D01*
X112347619Y-128779791D02*
X112347619Y-129636933D01*
X112347619Y-129636933D02*
X112300000Y-129732172D01*
X112300000Y-129732172D02*
X112204762Y-129779791D01*
X112204762Y-129779791D02*
X112109524Y-129779791D01*
X111776190Y-129779791D02*
X111776190Y-128779791D01*
X111347619Y-129779791D02*
X111347619Y-129255981D01*
X111347619Y-129255981D02*
X111395238Y-129160743D01*
X111395238Y-129160743D02*
X111490476Y-129113124D01*
X111490476Y-129113124D02*
X111633333Y-129113124D01*
X111633333Y-129113124D02*
X111728571Y-129160743D01*
X111728571Y-129160743D02*
X111776190Y-129208362D01*
X110490476Y-129732172D02*
X110585714Y-129779791D01*
X110585714Y-129779791D02*
X110776190Y-129779791D01*
X110776190Y-129779791D02*
X110871428Y-129732172D01*
X110871428Y-129732172D02*
X110919047Y-129636933D01*
X110919047Y-129636933D02*
X110919047Y-129255981D01*
X110919047Y-129255981D02*
X110871428Y-129160743D01*
X110871428Y-129160743D02*
X110776190Y-129113124D01*
X110776190Y-129113124D02*
X110585714Y-129113124D01*
X110585714Y-129113124D02*
X110490476Y-129160743D01*
X110490476Y-129160743D02*
X110442857Y-129255981D01*
X110442857Y-129255981D02*
X110442857Y-129351219D01*
X110442857Y-129351219D02*
X110919047Y-129446457D01*
X108823809Y-129779791D02*
X108823809Y-128779791D01*
X108823809Y-129732172D02*
X108919047Y-129779791D01*
X108919047Y-129779791D02*
X109109523Y-129779791D01*
X109109523Y-129779791D02*
X109204761Y-129732172D01*
X109204761Y-129732172D02*
X109252380Y-129684552D01*
X109252380Y-129684552D02*
X109299999Y-129589314D01*
X109299999Y-129589314D02*
X109299999Y-129303600D01*
X109299999Y-129303600D02*
X109252380Y-129208362D01*
X109252380Y-129208362D02*
X109204761Y-129160743D01*
X109204761Y-129160743D02*
X109109523Y-129113124D01*
X109109523Y-129113124D02*
X108919047Y-129113124D01*
X108919047Y-129113124D02*
X108823809Y-129160743D01*
X108204761Y-129779791D02*
X108299999Y-129732172D01*
X108299999Y-129732172D02*
X108347618Y-129684552D01*
X108347618Y-129684552D02*
X108395237Y-129589314D01*
X108395237Y-129589314D02*
X108395237Y-129303600D01*
X108395237Y-129303600D02*
X108347618Y-129208362D01*
X108347618Y-129208362D02*
X108299999Y-129160743D01*
X108299999Y-129160743D02*
X108204761Y-129113124D01*
X108204761Y-129113124D02*
X108061904Y-129113124D01*
X108061904Y-129113124D02*
X107966666Y-129160743D01*
X107966666Y-129160743D02*
X107919047Y-129208362D01*
X107919047Y-129208362D02*
X107871428Y-129303600D01*
X107871428Y-129303600D02*
X107871428Y-129589314D01*
X107871428Y-129589314D02*
X107919047Y-129684552D01*
X107919047Y-129684552D02*
X107966666Y-129732172D01*
X107966666Y-129732172D02*
X108061904Y-129779791D01*
X108061904Y-129779791D02*
X108204761Y-129779791D01*
X107014285Y-129732172D02*
X107109523Y-129779791D01*
X107109523Y-129779791D02*
X107299999Y-129779791D01*
X107299999Y-129779791D02*
X107395237Y-129732172D01*
X107395237Y-129732172D02*
X107442856Y-129684552D01*
X107442856Y-129684552D02*
X107490475Y-129589314D01*
X107490475Y-129589314D02*
X107490475Y-129303600D01*
X107490475Y-129303600D02*
X107442856Y-129208362D01*
X107442856Y-129208362D02*
X107395237Y-129160743D01*
X107395237Y-129160743D02*
X107299999Y-129113124D01*
X107299999Y-129113124D02*
X107109523Y-129113124D01*
X107109523Y-129113124D02*
X107014285Y-129160743D01*
X106633332Y-129732172D02*
X106538094Y-129779791D01*
X106538094Y-129779791D02*
X106347618Y-129779791D01*
X106347618Y-129779791D02*
X106252380Y-129732172D01*
X106252380Y-129732172D02*
X106204761Y-129636933D01*
X106204761Y-129636933D02*
X106204761Y-129589314D01*
X106204761Y-129589314D02*
X106252380Y-129494076D01*
X106252380Y-129494076D02*
X106347618Y-129446457D01*
X106347618Y-129446457D02*
X106490475Y-129446457D01*
X106490475Y-129446457D02*
X106585713Y-129398838D01*
X106585713Y-129398838D02*
X106633332Y-129303600D01*
X106633332Y-129303600D02*
X106633332Y-129255981D01*
X106633332Y-129255981D02*
X106585713Y-129160743D01*
X106585713Y-129160743D02*
X106490475Y-129113124D01*
X106490475Y-129113124D02*
X106347618Y-129113124D01*
X106347618Y-129113124D02*
X106252380Y-129160743D01*
X78733220Y-72309819D02*
X78733220Y-71309819D01*
X78733220Y-71309819D02*
X78495125Y-71309819D01*
X78495125Y-71309819D02*
X78352268Y-71357438D01*
X78352268Y-71357438D02*
X78257030Y-71452676D01*
X78257030Y-71452676D02*
X78209411Y-71547914D01*
X78209411Y-71547914D02*
X78161792Y-71738390D01*
X78161792Y-71738390D02*
X78161792Y-71881247D01*
X78161792Y-71881247D02*
X78209411Y-72071723D01*
X78209411Y-72071723D02*
X78257030Y-72166961D01*
X78257030Y-72166961D02*
X78352268Y-72262200D01*
X78352268Y-72262200D02*
X78495125Y-72309819D01*
X78495125Y-72309819D02*
X78733220Y-72309819D01*
X77304649Y-72309819D02*
X77304649Y-71786009D01*
X77304649Y-71786009D02*
X77352268Y-71690771D01*
X77352268Y-71690771D02*
X77447506Y-71643152D01*
X77447506Y-71643152D02*
X77637982Y-71643152D01*
X77637982Y-71643152D02*
X77733220Y-71690771D01*
X77304649Y-72262200D02*
X77399887Y-72309819D01*
X77399887Y-72309819D02*
X77637982Y-72309819D01*
X77637982Y-72309819D02*
X77733220Y-72262200D01*
X77733220Y-72262200D02*
X77780839Y-72166961D01*
X77780839Y-72166961D02*
X77780839Y-72071723D01*
X77780839Y-72071723D02*
X77733220Y-71976485D01*
X77733220Y-71976485D02*
X77637982Y-71928866D01*
X77637982Y-71928866D02*
X77399887Y-71928866D01*
X77399887Y-71928866D02*
X77304649Y-71881247D01*
X76971315Y-71643152D02*
X76590363Y-71643152D01*
X76828458Y-71309819D02*
X76828458Y-72166961D01*
X76828458Y-72166961D02*
X76780839Y-72262200D01*
X76780839Y-72262200D02*
X76685601Y-72309819D01*
X76685601Y-72309819D02*
X76590363Y-72309819D01*
X75828458Y-72309819D02*
X75828458Y-71786009D01*
X75828458Y-71786009D02*
X75876077Y-71690771D01*
X75876077Y-71690771D02*
X75971315Y-71643152D01*
X75971315Y-71643152D02*
X76161791Y-71643152D01*
X76161791Y-71643152D02*
X76257029Y-71690771D01*
X75828458Y-72262200D02*
X75923696Y-72309819D01*
X75923696Y-72309819D02*
X76161791Y-72309819D01*
X76161791Y-72309819D02*
X76257029Y-72262200D01*
X76257029Y-72262200D02*
X76304648Y-72166961D01*
X76304648Y-72166961D02*
X76304648Y-72071723D01*
X76304648Y-72071723D02*
X76257029Y-71976485D01*
X76257029Y-71976485D02*
X76161791Y-71928866D01*
X76161791Y-71928866D02*
X75923696Y-71928866D01*
X75923696Y-71928866D02*
X75828458Y-71881247D01*
X78257030Y-77489819D02*
X78733220Y-77489819D01*
X78733220Y-77489819D02*
X78733220Y-76489819D01*
X77495125Y-77489819D02*
X77495125Y-76966009D01*
X77495125Y-76966009D02*
X77542744Y-76870771D01*
X77542744Y-76870771D02*
X77637982Y-76823152D01*
X77637982Y-76823152D02*
X77828458Y-76823152D01*
X77828458Y-76823152D02*
X77923696Y-76870771D01*
X77495125Y-77442200D02*
X77590363Y-77489819D01*
X77590363Y-77489819D02*
X77828458Y-77489819D01*
X77828458Y-77489819D02*
X77923696Y-77442200D01*
X77923696Y-77442200D02*
X77971315Y-77346961D01*
X77971315Y-77346961D02*
X77971315Y-77251723D01*
X77971315Y-77251723D02*
X77923696Y-77156485D01*
X77923696Y-77156485D02*
X77828458Y-77108866D01*
X77828458Y-77108866D02*
X77590363Y-77108866D01*
X77590363Y-77108866D02*
X77495125Y-77061247D01*
X77161791Y-76823152D02*
X76780839Y-76823152D01*
X77018934Y-76489819D02*
X77018934Y-77346961D01*
X77018934Y-77346961D02*
X76971315Y-77442200D01*
X76971315Y-77442200D02*
X76876077Y-77489819D01*
X76876077Y-77489819D02*
X76780839Y-77489819D01*
X76018934Y-77442200D02*
X76114172Y-77489819D01*
X76114172Y-77489819D02*
X76304648Y-77489819D01*
X76304648Y-77489819D02*
X76399886Y-77442200D01*
X76399886Y-77442200D02*
X76447505Y-77394580D01*
X76447505Y-77394580D02*
X76495124Y-77299342D01*
X76495124Y-77299342D02*
X76495124Y-77013628D01*
X76495124Y-77013628D02*
X76447505Y-76918390D01*
X76447505Y-76918390D02*
X76399886Y-76870771D01*
X76399886Y-76870771D02*
X76304648Y-76823152D01*
X76304648Y-76823152D02*
X76114172Y-76823152D01*
X76114172Y-76823152D02*
X76018934Y-76870771D01*
X75590362Y-77489819D02*
X75590362Y-76489819D01*
X75161791Y-77489819D02*
X75161791Y-76966009D01*
X75161791Y-76966009D02*
X75209410Y-76870771D01*
X75209410Y-76870771D02*
X75304648Y-76823152D01*
X75304648Y-76823152D02*
X75447505Y-76823152D01*
X75447505Y-76823152D02*
X75542743Y-76870771D01*
X75542743Y-76870771D02*
X75590362Y-76918390D01*
X115468096Y-90149847D02*
X115944286Y-90149847D01*
X115944286Y-90149847D02*
X115944286Y-89149847D01*
X115134762Y-89626037D02*
X114801429Y-89626037D01*
X114658572Y-90149847D02*
X115134762Y-90149847D01*
X115134762Y-90149847D02*
X115134762Y-89149847D01*
X115134762Y-89149847D02*
X114658572Y-89149847D01*
X114230000Y-90149847D02*
X114230000Y-89149847D01*
X114230000Y-89149847D02*
X113991905Y-89149847D01*
X113991905Y-89149847D02*
X113849048Y-89197466D01*
X113849048Y-89197466D02*
X113753810Y-89292704D01*
X113753810Y-89292704D02*
X113706191Y-89387942D01*
X113706191Y-89387942D02*
X113658572Y-89578418D01*
X113658572Y-89578418D02*
X113658572Y-89721275D01*
X113658572Y-89721275D02*
X113706191Y-89911751D01*
X113706191Y-89911751D02*
X113753810Y-90006989D01*
X113753810Y-90006989D02*
X113849048Y-90102228D01*
X113849048Y-90102228D02*
X113991905Y-90149847D01*
X113991905Y-90149847D02*
X114230000Y-90149847D01*
X112468095Y-90149847D02*
X112468095Y-89149847D01*
X112468095Y-89149847D02*
X112230000Y-89149847D01*
X112230000Y-89149847D02*
X112087143Y-89197466D01*
X112087143Y-89197466D02*
X111991905Y-89292704D01*
X111991905Y-89292704D02*
X111944286Y-89387942D01*
X111944286Y-89387942D02*
X111896667Y-89578418D01*
X111896667Y-89578418D02*
X111896667Y-89721275D01*
X111896667Y-89721275D02*
X111944286Y-89911751D01*
X111944286Y-89911751D02*
X111991905Y-90006989D01*
X111991905Y-90006989D02*
X112087143Y-90102228D01*
X112087143Y-90102228D02*
X112230000Y-90149847D01*
X112230000Y-90149847D02*
X112468095Y-90149847D01*
X111468095Y-90149847D02*
X111468095Y-89483180D01*
X111468095Y-89673656D02*
X111420476Y-89578418D01*
X111420476Y-89578418D02*
X111372857Y-89530799D01*
X111372857Y-89530799D02*
X111277619Y-89483180D01*
X111277619Y-89483180D02*
X111182381Y-89483180D01*
X110849047Y-90149847D02*
X110849047Y-89483180D01*
X110849047Y-89149847D02*
X110896666Y-89197466D01*
X110896666Y-89197466D02*
X110849047Y-89245085D01*
X110849047Y-89245085D02*
X110801428Y-89197466D01*
X110801428Y-89197466D02*
X110849047Y-89149847D01*
X110849047Y-89149847D02*
X110849047Y-89245085D01*
X110468095Y-89483180D02*
X110230000Y-90149847D01*
X110230000Y-90149847D02*
X109991905Y-89483180D01*
X109230000Y-90102228D02*
X109325238Y-90149847D01*
X109325238Y-90149847D02*
X109515714Y-90149847D01*
X109515714Y-90149847D02*
X109610952Y-90102228D01*
X109610952Y-90102228D02*
X109658571Y-90006989D01*
X109658571Y-90006989D02*
X109658571Y-89626037D01*
X109658571Y-89626037D02*
X109610952Y-89530799D01*
X109610952Y-89530799D02*
X109515714Y-89483180D01*
X109515714Y-89483180D02*
X109325238Y-89483180D01*
X109325238Y-89483180D02*
X109230000Y-89530799D01*
X109230000Y-89530799D02*
X109182381Y-89626037D01*
X109182381Y-89626037D02*
X109182381Y-89721275D01*
X109182381Y-89721275D02*
X109658571Y-89816513D01*
X108753809Y-90149847D02*
X108753809Y-89483180D01*
X108753809Y-89673656D02*
X108706190Y-89578418D01*
X108706190Y-89578418D02*
X108658571Y-89530799D01*
X108658571Y-89530799D02*
X108563333Y-89483180D01*
X108563333Y-89483180D02*
X108468095Y-89483180D01*
X107039523Y-89626037D02*
X106896666Y-89673656D01*
X106896666Y-89673656D02*
X106849047Y-89721275D01*
X106849047Y-89721275D02*
X106801428Y-89816513D01*
X106801428Y-89816513D02*
X106801428Y-89959370D01*
X106801428Y-89959370D02*
X106849047Y-90054608D01*
X106849047Y-90054608D02*
X106896666Y-90102228D01*
X106896666Y-90102228D02*
X106991904Y-90149847D01*
X106991904Y-90149847D02*
X107372856Y-90149847D01*
X107372856Y-90149847D02*
X107372856Y-89149847D01*
X107372856Y-89149847D02*
X107039523Y-89149847D01*
X107039523Y-89149847D02*
X106944285Y-89197466D01*
X106944285Y-89197466D02*
X106896666Y-89245085D01*
X106896666Y-89245085D02*
X106849047Y-89340323D01*
X106849047Y-89340323D02*
X106849047Y-89435561D01*
X106849047Y-89435561D02*
X106896666Y-89530799D01*
X106896666Y-89530799D02*
X106944285Y-89578418D01*
X106944285Y-89578418D02*
X107039523Y-89626037D01*
X107039523Y-89626037D02*
X107372856Y-89626037D01*
X106229999Y-90149847D02*
X106325237Y-90102228D01*
X106325237Y-90102228D02*
X106372856Y-90054608D01*
X106372856Y-90054608D02*
X106420475Y-89959370D01*
X106420475Y-89959370D02*
X106420475Y-89673656D01*
X106420475Y-89673656D02*
X106372856Y-89578418D01*
X106372856Y-89578418D02*
X106325237Y-89530799D01*
X106325237Y-89530799D02*
X106229999Y-89483180D01*
X106229999Y-89483180D02*
X106087142Y-89483180D01*
X106087142Y-89483180D02*
X105991904Y-89530799D01*
X105991904Y-89530799D02*
X105944285Y-89578418D01*
X105944285Y-89578418D02*
X105896666Y-89673656D01*
X105896666Y-89673656D02*
X105896666Y-89959370D01*
X105896666Y-89959370D02*
X105944285Y-90054608D01*
X105944285Y-90054608D02*
X105991904Y-90102228D01*
X105991904Y-90102228D02*
X106087142Y-90149847D01*
X106087142Y-90149847D02*
X106229999Y-90149847D01*
X105039523Y-90149847D02*
X105039523Y-89626037D01*
X105039523Y-89626037D02*
X105087142Y-89530799D01*
X105087142Y-89530799D02*
X105182380Y-89483180D01*
X105182380Y-89483180D02*
X105372856Y-89483180D01*
X105372856Y-89483180D02*
X105468094Y-89530799D01*
X105039523Y-90102228D02*
X105134761Y-90149847D01*
X105134761Y-90149847D02*
X105372856Y-90149847D01*
X105372856Y-90149847D02*
X105468094Y-90102228D01*
X105468094Y-90102228D02*
X105515713Y-90006989D01*
X105515713Y-90006989D02*
X105515713Y-89911751D01*
X105515713Y-89911751D02*
X105468094Y-89816513D01*
X105468094Y-89816513D02*
X105372856Y-89768894D01*
X105372856Y-89768894D02*
X105134761Y-89768894D01*
X105134761Y-89768894D02*
X105039523Y-89721275D01*
X104563332Y-90149847D02*
X104563332Y-89483180D01*
X104563332Y-89673656D02*
X104515713Y-89578418D01*
X104515713Y-89578418D02*
X104468094Y-89530799D01*
X104468094Y-89530799D02*
X104372856Y-89483180D01*
X104372856Y-89483180D02*
X104277618Y-89483180D01*
X103515713Y-90149847D02*
X103515713Y-89149847D01*
X103515713Y-90102228D02*
X103610951Y-90149847D01*
X103610951Y-90149847D02*
X103801427Y-90149847D01*
X103801427Y-90149847D02*
X103896665Y-90102228D01*
X103896665Y-90102228D02*
X103944284Y-90054608D01*
X103944284Y-90054608D02*
X103991903Y-89959370D01*
X103991903Y-89959370D02*
X103991903Y-89673656D01*
X103991903Y-89673656D02*
X103944284Y-89578418D01*
X103944284Y-89578418D02*
X103896665Y-89530799D01*
X103896665Y-89530799D02*
X103801427Y-89483180D01*
X103801427Y-89483180D02*
X103610951Y-89483180D01*
X103610951Y-89483180D02*
X103515713Y-89530799D01*
X111158570Y-91093124D02*
X110920475Y-91759791D01*
X110920475Y-91759791D02*
X110682380Y-91093124D01*
X109777618Y-91759791D02*
X110349046Y-91759791D01*
X110063332Y-91759791D02*
X110063332Y-90759791D01*
X110063332Y-90759791D02*
X110158570Y-90902648D01*
X110158570Y-90902648D02*
X110253808Y-90997886D01*
X110253808Y-90997886D02*
X110349046Y-91045505D01*
X109349046Y-91664552D02*
X109301427Y-91712172D01*
X109301427Y-91712172D02*
X109349046Y-91759791D01*
X109349046Y-91759791D02*
X109396665Y-91712172D01*
X109396665Y-91712172D02*
X109349046Y-91664552D01*
X109349046Y-91664552D02*
X109349046Y-91759791D01*
X108349047Y-91759791D02*
X108920475Y-91759791D01*
X108634761Y-91759791D02*
X108634761Y-90759791D01*
X108634761Y-90759791D02*
X108729999Y-90902648D01*
X108729999Y-90902648D02*
X108825237Y-90997886D01*
X108825237Y-90997886D02*
X108920475Y-91045505D01*
X78161792Y-74864580D02*
X78209411Y-74912200D01*
X78209411Y-74912200D02*
X78352268Y-74959819D01*
X78352268Y-74959819D02*
X78447506Y-74959819D01*
X78447506Y-74959819D02*
X78590363Y-74912200D01*
X78590363Y-74912200D02*
X78685601Y-74816961D01*
X78685601Y-74816961D02*
X78733220Y-74721723D01*
X78733220Y-74721723D02*
X78780839Y-74531247D01*
X78780839Y-74531247D02*
X78780839Y-74388390D01*
X78780839Y-74388390D02*
X78733220Y-74197914D01*
X78733220Y-74197914D02*
X78685601Y-74102676D01*
X78685601Y-74102676D02*
X78590363Y-74007438D01*
X78590363Y-74007438D02*
X78447506Y-73959819D01*
X78447506Y-73959819D02*
X78352268Y-73959819D01*
X78352268Y-73959819D02*
X78209411Y-74007438D01*
X78209411Y-74007438D02*
X78161792Y-74055057D01*
X77590363Y-74959819D02*
X77685601Y-74912200D01*
X77685601Y-74912200D02*
X77733220Y-74816961D01*
X77733220Y-74816961D02*
X77733220Y-73959819D01*
X77066553Y-74959819D02*
X77161791Y-74912200D01*
X77161791Y-74912200D02*
X77209410Y-74864580D01*
X77209410Y-74864580D02*
X77257029Y-74769342D01*
X77257029Y-74769342D02*
X77257029Y-74483628D01*
X77257029Y-74483628D02*
X77209410Y-74388390D01*
X77209410Y-74388390D02*
X77161791Y-74340771D01*
X77161791Y-74340771D02*
X77066553Y-74293152D01*
X77066553Y-74293152D02*
X76923696Y-74293152D01*
X76923696Y-74293152D02*
X76828458Y-74340771D01*
X76828458Y-74340771D02*
X76780839Y-74388390D01*
X76780839Y-74388390D02*
X76733220Y-74483628D01*
X76733220Y-74483628D02*
X76733220Y-74769342D01*
X76733220Y-74769342D02*
X76780839Y-74864580D01*
X76780839Y-74864580D02*
X76828458Y-74912200D01*
X76828458Y-74912200D02*
X76923696Y-74959819D01*
X76923696Y-74959819D02*
X77066553Y-74959819D01*
X75876077Y-74912200D02*
X75971315Y-74959819D01*
X75971315Y-74959819D02*
X76161791Y-74959819D01*
X76161791Y-74959819D02*
X76257029Y-74912200D01*
X76257029Y-74912200D02*
X76304648Y-74864580D01*
X76304648Y-74864580D02*
X76352267Y-74769342D01*
X76352267Y-74769342D02*
X76352267Y-74483628D01*
X76352267Y-74483628D02*
X76304648Y-74388390D01*
X76304648Y-74388390D02*
X76257029Y-74340771D01*
X76257029Y-74340771D02*
X76161791Y-74293152D01*
X76161791Y-74293152D02*
X75971315Y-74293152D01*
X75971315Y-74293152D02*
X75876077Y-74340771D01*
X75447505Y-74959819D02*
X75447505Y-73959819D01*
X75352267Y-74578866D02*
X75066553Y-74959819D01*
X75066553Y-74293152D02*
X75447505Y-74674104D01*
X78209411Y-81617438D02*
X78304649Y-81569819D01*
X78304649Y-81569819D02*
X78447506Y-81569819D01*
X78447506Y-81569819D02*
X78590363Y-81617438D01*
X78590363Y-81617438D02*
X78685601Y-81712676D01*
X78685601Y-81712676D02*
X78733220Y-81807914D01*
X78733220Y-81807914D02*
X78780839Y-81998390D01*
X78780839Y-81998390D02*
X78780839Y-82141247D01*
X78780839Y-82141247D02*
X78733220Y-82331723D01*
X78733220Y-82331723D02*
X78685601Y-82426961D01*
X78685601Y-82426961D02*
X78590363Y-82522200D01*
X78590363Y-82522200D02*
X78447506Y-82569819D01*
X78447506Y-82569819D02*
X78352268Y-82569819D01*
X78352268Y-82569819D02*
X78209411Y-82522200D01*
X78209411Y-82522200D02*
X78161792Y-82474580D01*
X78161792Y-82474580D02*
X78161792Y-82141247D01*
X78161792Y-82141247D02*
X78352268Y-82141247D01*
X77733220Y-82569819D02*
X77733220Y-81569819D01*
X77733220Y-81569819D02*
X77161792Y-82569819D01*
X77161792Y-82569819D02*
X77161792Y-81569819D01*
X76685601Y-82569819D02*
X76685601Y-81569819D01*
X76685601Y-81569819D02*
X76447506Y-81569819D01*
X76447506Y-81569819D02*
X76304649Y-81617438D01*
X76304649Y-81617438D02*
X76209411Y-81712676D01*
X76209411Y-81712676D02*
X76161792Y-81807914D01*
X76161792Y-81807914D02*
X76114173Y-81998390D01*
X76114173Y-81998390D02*
X76114173Y-82141247D01*
X76114173Y-82141247D02*
X76161792Y-82331723D01*
X76161792Y-82331723D02*
X76209411Y-82426961D01*
X76209411Y-82426961D02*
X76304649Y-82522200D01*
X76304649Y-82522200D02*
X76447506Y-82569819D01*
X76447506Y-82569819D02*
X76685601Y-82569819D01*
D11*
%TO.C,G2*%
G36*
X106879125Y-82554340D02*
G01*
X106974449Y-82937736D01*
X106292634Y-82937736D01*
X106292634Y-82170944D01*
X106783800Y-82170944D01*
X106879125Y-82554340D01*
G37*
G36*
X112803718Y-87634349D02*
G01*
X112850101Y-87636626D01*
X112876091Y-87648121D01*
X112889925Y-87676314D01*
X112899843Y-87728684D01*
X112910610Y-87796018D01*
X112834222Y-87791060D01*
X112757833Y-87786101D01*
X112738646Y-87710221D01*
X112719459Y-87634340D01*
X112795921Y-87634340D01*
X112803718Y-87634349D01*
G37*
G36*
X106396173Y-87635055D02*
G01*
X106424998Y-87641211D01*
X106440146Y-87658908D01*
X106451542Y-87694246D01*
X106454124Y-87703780D01*
X106464158Y-87746505D01*
X106468268Y-87774120D01*
X106467309Y-87778315D01*
X106444212Y-87790130D01*
X106390573Y-87794088D01*
X106355346Y-87793605D01*
X106325212Y-87788528D01*
X106311230Y-87773250D01*
X106304070Y-87742170D01*
X106294804Y-87697853D01*
X106284296Y-87662296D01*
X106281709Y-87654433D01*
X106284853Y-87641520D01*
X106306790Y-87635698D01*
X106354073Y-87634340D01*
X106396173Y-87635055D01*
G37*
G36*
X108398955Y-86851634D02*
G01*
X108452950Y-86853205D01*
X108484948Y-86858392D01*
X108502491Y-86869170D01*
X108513116Y-86887516D01*
X108516324Y-86897282D01*
X108526950Y-86935327D01*
X108543049Y-86996181D01*
X108563400Y-87074957D01*
X108586785Y-87166768D01*
X108611985Y-87266728D01*
X108637780Y-87369949D01*
X108662951Y-87471545D01*
X108686280Y-87566628D01*
X108706547Y-87650311D01*
X108722533Y-87717707D01*
X108733018Y-87763930D01*
X108736784Y-87784092D01*
X108735776Y-87785359D01*
X108714182Y-87789803D01*
X108670217Y-87792915D01*
X108611518Y-87794088D01*
X108486252Y-87794088D01*
X108378946Y-87358774D01*
X108376087Y-87347175D01*
X108347947Y-87233006D01*
X108322082Y-87128044D01*
X108299566Y-87036650D01*
X108281473Y-86963190D01*
X108268879Y-86912024D01*
X108262858Y-86887516D01*
X108260258Y-86874793D01*
X108262847Y-86861694D01*
X108278882Y-86854765D01*
X108314531Y-86852044D01*
X108375961Y-86851573D01*
X108398955Y-86851634D01*
G37*
G36*
X109916728Y-86851636D02*
G01*
X109970645Y-86853212D01*
X110002585Y-86858402D01*
X110020078Y-86869179D01*
X110030656Y-86887516D01*
X110033817Y-86897117D01*
X110044429Y-86935034D01*
X110060523Y-86995786D01*
X110080879Y-87074482D01*
X110104274Y-87166234D01*
X110129489Y-87266152D01*
X110155303Y-87369348D01*
X110180494Y-87470933D01*
X110203843Y-87566017D01*
X110224128Y-87649711D01*
X110240129Y-87717127D01*
X110250625Y-87763376D01*
X110254395Y-87783568D01*
X110253382Y-87784904D01*
X110231773Y-87789579D01*
X110187797Y-87792854D01*
X110129087Y-87794088D01*
X110003780Y-87794088D01*
X109894805Y-87350787D01*
X109889945Y-87331017D01*
X109861871Y-87216873D01*
X109836218Y-87112663D01*
X109814027Y-87022604D01*
X109796339Y-86950917D01*
X109784192Y-86901818D01*
X109778627Y-86879529D01*
X109777757Y-86875614D01*
X109779837Y-86862899D01*
X109795799Y-86855630D01*
X109831662Y-86852343D01*
X109893440Y-86851573D01*
X109916728Y-86851636D01*
G37*
G36*
X109410579Y-86855189D02*
G01*
X109685002Y-86859560D01*
X109770074Y-87203019D01*
X109776633Y-87229514D01*
X109803663Y-87338924D01*
X109829679Y-87444581D01*
X109853011Y-87539671D01*
X109871984Y-87617380D01*
X109884927Y-87670895D01*
X109914708Y-87795312D01*
X109785973Y-87790707D01*
X109657238Y-87786101D01*
X109622133Y-87642327D01*
X109615080Y-87613393D01*
X109598731Y-87545938D01*
X109585226Y-87489715D01*
X109576947Y-87454623D01*
X109576139Y-87451113D01*
X109570050Y-87431416D01*
X109558599Y-87419455D01*
X109535141Y-87413301D01*
X109493026Y-87411023D01*
X109425610Y-87410692D01*
X109284352Y-87410692D01*
X109237520Y-87218994D01*
X109507660Y-87218994D01*
X109497047Y-87152625D01*
X109494459Y-87137423D01*
X109485670Y-87095935D01*
X109478088Y-87072751D01*
X109471873Y-87069552D01*
X109439570Y-87064259D01*
X109386807Y-87060607D01*
X109321129Y-87059246D01*
X109172516Y-87059246D01*
X109154336Y-86968720D01*
X109146704Y-86929444D01*
X109139099Y-86886608D01*
X109136156Y-86864506D01*
X109146335Y-86860981D01*
X109183700Y-86857587D01*
X109243633Y-86855373D01*
X109320978Y-86854516D01*
X109410579Y-86855189D01*
G37*
G36*
X105822917Y-87723678D02*
G01*
X105796830Y-87769374D01*
X105749489Y-87799590D01*
X105735576Y-87802688D01*
X105694058Y-87805403D01*
X105641536Y-87804343D01*
X105620259Y-87802656D01*
X105560904Y-87789695D01*
X105519022Y-87763236D01*
X105490207Y-87728646D01*
X105452288Y-87659086D01*
X105422306Y-87575477D01*
X105404650Y-87488363D01*
X105403828Y-87480928D01*
X105404024Y-87442736D01*
X105559347Y-87442736D01*
X105564194Y-87479754D01*
X105568456Y-87500296D01*
X105582374Y-87557569D01*
X105598835Y-87617111D01*
X105607979Y-87643377D01*
X105628421Y-87681481D01*
X105648420Y-87699224D01*
X105663553Y-87693773D01*
X105669398Y-87662296D01*
X105668853Y-87649516D01*
X105660334Y-87596933D01*
X105644095Y-87539545D01*
X105623505Y-87486409D01*
X105601929Y-87446584D01*
X105582735Y-87429128D01*
X105565884Y-87428723D01*
X105559347Y-87442736D01*
X105404024Y-87442736D01*
X105404192Y-87410053D01*
X105424672Y-87362073D01*
X105468436Y-87332977D01*
X105538653Y-87318757D01*
X105612780Y-87318081D01*
X105677728Y-87335985D01*
X105728724Y-87376442D01*
X105769523Y-87442548D01*
X105803878Y-87537397D01*
X105813823Y-87573833D01*
X105828374Y-87659499D01*
X105828136Y-87662296D01*
X105822917Y-87723678D01*
G37*
G36*
X106498364Y-86851573D02*
G01*
X106799944Y-86851573D01*
X106825849Y-86954699D01*
X106838672Y-87006897D01*
X106848137Y-87047708D01*
X106851753Y-87066522D01*
X106843933Y-87070100D01*
X106812019Y-87073790D01*
X106763891Y-87075221D01*
X106727756Y-87076072D01*
X106690481Y-87079549D01*
X106676030Y-87084791D01*
X106679204Y-87100075D01*
X106688915Y-87141358D01*
X106703813Y-87202986D01*
X106722528Y-87279441D01*
X106743688Y-87365203D01*
X106765924Y-87454752D01*
X106787863Y-87542570D01*
X106808136Y-87623136D01*
X106825372Y-87690932D01*
X106838199Y-87740437D01*
X106845247Y-87766132D01*
X106846759Y-87772198D01*
X106843946Y-87783823D01*
X106826716Y-87790436D01*
X106789230Y-87793403D01*
X106725647Y-87794088D01*
X106597387Y-87794088D01*
X106581564Y-87734183D01*
X106572830Y-87700258D01*
X106557866Y-87641195D01*
X106538238Y-87563211D01*
X106515474Y-87472374D01*
X106491101Y-87374749D01*
X106416460Y-87075221D01*
X106246976Y-87075221D01*
X106221880Y-86988894D01*
X106217952Y-86975586D01*
X106204927Y-86931756D01*
X106198358Y-86899636D01*
X106201886Y-86877417D01*
X106219150Y-86863292D01*
X106253790Y-86855453D01*
X106309445Y-86852092D01*
X106389757Y-86851401D01*
X106498364Y-86851573D01*
G37*
G36*
X106035422Y-87322039D02*
G01*
X106101752Y-87350058D01*
X106153402Y-87402582D01*
X106195280Y-87483147D01*
X106196194Y-87485424D01*
X106225398Y-87577633D01*
X106235642Y-87657709D01*
X106226865Y-87721169D01*
X106199008Y-87763531D01*
X106190824Y-87769227D01*
X106141179Y-87787058D01*
X106077165Y-87794100D01*
X106011685Y-87789812D01*
X105957641Y-87773652D01*
X105922204Y-87746729D01*
X105885035Y-87703174D01*
X105856646Y-87655714D01*
X105845338Y-87616003D01*
X105849531Y-87598915D01*
X105869496Y-87589083D01*
X105913231Y-87586761D01*
X105918086Y-87586799D01*
X105960989Y-87590539D01*
X105985787Y-87605220D01*
X106005086Y-87637853D01*
X106008783Y-87645397D01*
X106034058Y-87683009D01*
X106056742Y-87694880D01*
X106073052Y-87678735D01*
X106073153Y-87678465D01*
X106073835Y-87649590D01*
X106066022Y-87602069D01*
X106052441Y-87545937D01*
X106035823Y-87491230D01*
X106018895Y-87447984D01*
X106004387Y-87426235D01*
X105980995Y-87418346D01*
X105962519Y-87431819D01*
X105961430Y-87468477D01*
X105963687Y-87483842D01*
X105958969Y-87499143D01*
X105937244Y-87505364D01*
X105891047Y-87506541D01*
X105813388Y-87506541D01*
X105813388Y-87427229D01*
X105814164Y-87400304D01*
X105823296Y-87356563D01*
X105847209Y-87330562D01*
X105891492Y-87318067D01*
X105961737Y-87314843D01*
X106035422Y-87322039D01*
G37*
G36*
X109102825Y-86911478D02*
G01*
X109106155Y-86924169D01*
X109122356Y-86987369D01*
X109142567Y-87067905D01*
X109165619Y-87160945D01*
X109190342Y-87261652D01*
X109215565Y-87365192D01*
X109240118Y-87466731D01*
X109262832Y-87561433D01*
X109282534Y-87644464D01*
X109298057Y-87710989D01*
X109308228Y-87756173D01*
X109311879Y-87775183D01*
X109304856Y-87781667D01*
X109277083Y-87787388D01*
X109225613Y-87791238D01*
X109147703Y-87793408D01*
X109040611Y-87794088D01*
X108769343Y-87794088D01*
X108759501Y-87750158D01*
X108759434Y-87749861D01*
X108748285Y-87702486D01*
X108735323Y-87650315D01*
X108733446Y-87642928D01*
X108724557Y-87605745D01*
X108720891Y-87586415D01*
X108724535Y-87584768D01*
X108752256Y-87582666D01*
X108801306Y-87582374D01*
X108864575Y-87584011D01*
X108868932Y-87584176D01*
X108945984Y-87585129D01*
X108992662Y-87581225D01*
X109008357Y-87572513D01*
X109006475Y-87561996D01*
X108998107Y-87524500D01*
X108984272Y-87465454D01*
X108966320Y-87390378D01*
X108945602Y-87304788D01*
X108923467Y-87214205D01*
X108901266Y-87124146D01*
X108880349Y-87040131D01*
X108862066Y-86967677D01*
X108847768Y-86912304D01*
X108838804Y-86879529D01*
X108837382Y-86873550D01*
X108840309Y-86861888D01*
X108857608Y-86855247D01*
X108895133Y-86852264D01*
X108958740Y-86851573D01*
X109087000Y-86851573D01*
X109102825Y-86911478D01*
G37*
G36*
X111636801Y-87605960D02*
G01*
X111630179Y-87668252D01*
X111610307Y-87715239D01*
X111576728Y-87750665D01*
X111528990Y-87778275D01*
X111506882Y-87787457D01*
X111404281Y-87810350D01*
X111300592Y-87804563D01*
X111201741Y-87771869D01*
X111113655Y-87714036D01*
X111042258Y-87632836D01*
X111030864Y-87614235D01*
X110996860Y-87542337D01*
X110965840Y-87454049D01*
X110939056Y-87355956D01*
X110917757Y-87254646D01*
X110903194Y-87156705D01*
X110896618Y-87068719D01*
X110896942Y-87060014D01*
X111147679Y-87060014D01*
X111149800Y-87096083D01*
X111158628Y-87152085D01*
X111174616Y-87233568D01*
X111181194Y-87265159D01*
X111210894Y-87395293D01*
X111238595Y-87494841D01*
X111264623Y-87564854D01*
X111289300Y-87606384D01*
X111293040Y-87610395D01*
X111327038Y-87630770D01*
X111360877Y-87631084D01*
X111382678Y-87610778D01*
X111383659Y-87603920D01*
X111380532Y-87568272D01*
X111370780Y-87511325D01*
X111355980Y-87439770D01*
X111337709Y-87360295D01*
X111317547Y-87279590D01*
X111297070Y-87204345D01*
X111277857Y-87141249D01*
X111261486Y-87096990D01*
X111251175Y-87075477D01*
X111219404Y-87029976D01*
X111187758Y-87014172D01*
X111157825Y-87029105D01*
X111151807Y-87038330D01*
X111147679Y-87060014D01*
X110896942Y-87060014D01*
X110899278Y-86997276D01*
X110912426Y-86948962D01*
X110913100Y-86947729D01*
X110948677Y-86898689D01*
X110995013Y-86867527D01*
X111058713Y-86851373D01*
X111146383Y-86847359D01*
X111239741Y-86854006D01*
X111325193Y-86875697D01*
X111395963Y-86915196D01*
X111454747Y-86975329D01*
X111504242Y-87058918D01*
X111547146Y-87168787D01*
X111586156Y-87307759D01*
X111612113Y-87420483D01*
X111630627Y-87524618D01*
X111636646Y-87603920D01*
X111636801Y-87605960D01*
G37*
G36*
X104904097Y-87339465D02*
G01*
X104934235Y-87353365D01*
X104956713Y-87354326D01*
X104977778Y-87338019D01*
X104978873Y-87336944D01*
X105011720Y-87319965D01*
X105061164Y-87321756D01*
X105091637Y-87325507D01*
X105152116Y-87329314D01*
X105216113Y-87330253D01*
X105313744Y-87328945D01*
X105364537Y-87533561D01*
X105367628Y-87546003D01*
X105387095Y-87623841D01*
X105404144Y-87691183D01*
X105417033Y-87741188D01*
X105424017Y-87767014D01*
X105426247Y-87777139D01*
X105420880Y-87788725D01*
X105397350Y-87792614D01*
X105348853Y-87790977D01*
X105265002Y-87786101D01*
X105226976Y-87634340D01*
X105221379Y-87612586D01*
X105196775Y-87530621D01*
X105173343Y-87474099D01*
X105152105Y-87445093D01*
X105134082Y-87445680D01*
X105133960Y-87462694D01*
X105140217Y-87503855D01*
X105151495Y-87561919D01*
X105166312Y-87629746D01*
X105183187Y-87700197D01*
X105200634Y-87766132D01*
X105202024Y-87772223D01*
X105198134Y-87786137D01*
X105175991Y-87792542D01*
X105128785Y-87794088D01*
X105122191Y-87794085D01*
X105086885Y-87792770D01*
X105061860Y-87785573D01*
X105043727Y-87767421D01*
X105029098Y-87733241D01*
X105014582Y-87677960D01*
X104996792Y-87596504D01*
X104990910Y-87572008D01*
X104971806Y-87514906D01*
X104949683Y-87470852D01*
X104927999Y-87445861D01*
X104910211Y-87445947D01*
X104908100Y-87453608D01*
X104911380Y-87487902D01*
X104923807Y-87549565D01*
X104945598Y-87639610D01*
X104976969Y-87759053D01*
X104980787Y-87777775D01*
X104974924Y-87789579D01*
X104951175Y-87792988D01*
X104902554Y-87791002D01*
X104818211Y-87786101D01*
X104773422Y-87610378D01*
X104758393Y-87549079D01*
X104742806Y-87479466D01*
X104732055Y-87424100D01*
X104727866Y-87391286D01*
X104729127Y-87375073D01*
X104749346Y-87337908D01*
X104789380Y-87318370D01*
X104843030Y-87318281D01*
X104904097Y-87339465D01*
G37*
G36*
X110848656Y-87282893D02*
G01*
X110848790Y-87283422D01*
X110877490Y-87397090D01*
X110904021Y-87502450D01*
X110925984Y-87589936D01*
X110927248Y-87594969D01*
X110946034Y-87670116D01*
X110959244Y-87723356D01*
X110965743Y-87750158D01*
X110975801Y-87794088D01*
X110762865Y-87793999D01*
X110667959Y-87792975D01*
X110578346Y-87788441D01*
X110509772Y-87779099D01*
X110456334Y-87763675D01*
X110412131Y-87740895D01*
X110371261Y-87709486D01*
X110341589Y-87679843D01*
X110293477Y-87609954D01*
X110263554Y-87533537D01*
X110253464Y-87459468D01*
X110513209Y-87459468D01*
X110515280Y-87502745D01*
X110542324Y-87559311D01*
X110574668Y-87589208D01*
X110624707Y-87602390D01*
X110641162Y-87602461D01*
X110657970Y-87600188D01*
X110665423Y-87589936D01*
X110663958Y-87565943D01*
X110654016Y-87522444D01*
X110636035Y-87453676D01*
X110634060Y-87446261D01*
X110621265Y-87410902D01*
X110602893Y-87397495D01*
X110569027Y-87397764D01*
X110536849Y-87403691D01*
X110519744Y-87420894D01*
X110513209Y-87459468D01*
X110253464Y-87459468D01*
X110253205Y-87457570D01*
X110263819Y-87389033D01*
X110296782Y-87334902D01*
X110304905Y-87326311D01*
X110323071Y-87300080D01*
X110321546Y-87286640D01*
X110319891Y-87286076D01*
X110263162Y-87250713D01*
X110216971Y-87191972D01*
X110185896Y-87117672D01*
X110181305Y-87084567D01*
X110435799Y-87084567D01*
X110437947Y-87120464D01*
X110450290Y-87153553D01*
X110473775Y-87191038D01*
X110496629Y-87207781D01*
X110537699Y-87218994D01*
X110561680Y-87216551D01*
X110570442Y-87202402D01*
X110565138Y-87167076D01*
X110556340Y-87129120D01*
X110539604Y-87076710D01*
X110520414Y-87050346D01*
X110495007Y-87046230D01*
X110459615Y-87060558D01*
X110455905Y-87062631D01*
X110435799Y-87084567D01*
X110181305Y-87084567D01*
X110174520Y-87035634D01*
X110176628Y-86994796D01*
X110189624Y-86953186D01*
X110219727Y-86915732D01*
X110224417Y-86911223D01*
X110262106Y-86885304D01*
X110312877Y-86867442D01*
X110381349Y-86856875D01*
X110472139Y-86852839D01*
X110589866Y-86854572D01*
X110741627Y-86859560D01*
X110828306Y-87202402D01*
X110848656Y-87282893D01*
G37*
G36*
X107444430Y-86852117D02*
G01*
X107458797Y-86855572D01*
X107459011Y-86856676D01*
X107464416Y-86879324D01*
X107476380Y-86928135D01*
X107493936Y-86999203D01*
X107516116Y-87088619D01*
X107541955Y-87192474D01*
X107570483Y-87306861D01*
X107576748Y-87331979D01*
X107604891Y-87445607D01*
X107630120Y-87548716D01*
X107651455Y-87637214D01*
X107667918Y-87707009D01*
X107678528Y-87754008D01*
X107682307Y-87774120D01*
X107681924Y-87776634D01*
X107666490Y-87786690D01*
X107626037Y-87792329D01*
X107557188Y-87794088D01*
X107431932Y-87794088D01*
X107411867Y-87702233D01*
X107404172Y-87668195D01*
X107385361Y-87590256D01*
X107366769Y-87518522D01*
X107363193Y-87505437D01*
X107349329Y-87460030D01*
X107335489Y-87436630D01*
X107314817Y-87427942D01*
X107280455Y-87426667D01*
X107268463Y-87426744D01*
X107233438Y-87428116D01*
X107219524Y-87430661D01*
X107223058Y-87445500D01*
X107233007Y-87485357D01*
X107247803Y-87543938D01*
X107265873Y-87614992D01*
X107311873Y-87795330D01*
X107182512Y-87790715D01*
X107053151Y-87786101D01*
X106944847Y-87346793D01*
X106940730Y-87330076D01*
X106912968Y-87216312D01*
X106888026Y-87112371D01*
X106866889Y-87022487D01*
X106850543Y-86950896D01*
X106839971Y-86901831D01*
X106836160Y-86879529D01*
X106836155Y-86878803D01*
X106840384Y-86864629D01*
X106857324Y-86856371D01*
X106893378Y-86852521D01*
X106954948Y-86851573D01*
X107074118Y-86851573D01*
X107090934Y-86911478D01*
X107102534Y-86954268D01*
X107118975Y-87017076D01*
X107135842Y-87083208D01*
X107146220Y-87123880D01*
X107159058Y-87165214D01*
X107172737Y-87187040D01*
X107192478Y-87196313D01*
X107223504Y-87199990D01*
X107227917Y-87200360D01*
X107255661Y-87201827D01*
X107272629Y-87197290D01*
X107279391Y-87181759D01*
X107276517Y-87150244D01*
X107264577Y-87097757D01*
X107244140Y-87019309D01*
X107235433Y-86985088D01*
X107222023Y-86926318D01*
X107214285Y-86883305D01*
X107213685Y-86863554D01*
X107222859Y-86860350D01*
X107255887Y-86856320D01*
X107303934Y-86853177D01*
X107357623Y-86851225D01*
X107407581Y-86850770D01*
X107444430Y-86852117D01*
G37*
G36*
X107853780Y-86851610D02*
G01*
X107961549Y-86859868D01*
X108049266Y-86884695D01*
X108120580Y-86929156D01*
X108179140Y-86996318D01*
X108228595Y-87089246D01*
X108272592Y-87211007D01*
X108291828Y-87277877D01*
X108315963Y-87376356D01*
X108335509Y-87473065D01*
X108348605Y-87558499D01*
X108353385Y-87623152D01*
X108353138Y-87633382D01*
X108340907Y-87698903D01*
X108313973Y-87755900D01*
X108277508Y-87792809D01*
X108263549Y-87799103D01*
X108209527Y-87808899D01*
X108142335Y-87808142D01*
X108074183Y-87797537D01*
X108017280Y-87777789D01*
X108013829Y-87776034D01*
X107976056Y-87758706D01*
X107958391Y-87756915D01*
X107954017Y-87769802D01*
X107946824Y-87784171D01*
X107920255Y-87791900D01*
X107868133Y-87794088D01*
X107782248Y-87794088D01*
X107724359Y-87556147D01*
X107713766Y-87512298D01*
X107695059Y-87433188D01*
X107680058Y-87367527D01*
X107670088Y-87321170D01*
X107666470Y-87299971D01*
X107668439Y-87295831D01*
X107691266Y-87288535D01*
X107741424Y-87285426D01*
X107821110Y-87286309D01*
X107838820Y-87286841D01*
X107904120Y-87289416D01*
X107945172Y-87293393D01*
X107968318Y-87300479D01*
X107979899Y-87312385D01*
X107986254Y-87330818D01*
X107989251Y-87342204D01*
X108004333Y-87400692D01*
X108011110Y-87435360D01*
X108009141Y-87452425D01*
X107997987Y-87458105D01*
X107977207Y-87458617D01*
X107961231Y-87459214D01*
X107943400Y-87468145D01*
X107946683Y-87494560D01*
X107962641Y-87539997D01*
X107995200Y-87598850D01*
X108032072Y-87629225D01*
X108071657Y-87629396D01*
X108085033Y-87620502D01*
X108094158Y-87600204D01*
X108095422Y-87565563D01*
X108088511Y-87512511D01*
X108073109Y-87436978D01*
X108048904Y-87334894D01*
X108034548Y-87277772D01*
X108007979Y-87181127D01*
X107984431Y-87110720D01*
X107962406Y-87062990D01*
X107940405Y-87034378D01*
X107916930Y-87021324D01*
X107900581Y-87017978D01*
X107872489Y-87022710D01*
X107861165Y-87049407D01*
X107864059Y-87101957D01*
X107873715Y-87172406D01*
X107626985Y-87163082D01*
X107615956Y-87099183D01*
X107613476Y-87081599D01*
X107615522Y-87002991D01*
X107637575Y-86934154D01*
X107676997Y-86884379D01*
X107696305Y-86871401D01*
X107729022Y-86859210D01*
X107775532Y-86853188D01*
X107844861Y-86851573D01*
X107853780Y-86851610D01*
G37*
G36*
X112320045Y-86851933D02*
G01*
X112374856Y-86853959D01*
X112408072Y-86858608D01*
X112425522Y-86866819D01*
X112433035Y-86879529D01*
X112435592Y-86888658D01*
X112446340Y-86929806D01*
X112462292Y-86993011D01*
X112482278Y-87073447D01*
X112505128Y-87166290D01*
X112529672Y-87266715D01*
X112554740Y-87369898D01*
X112579161Y-87471012D01*
X112601766Y-87565235D01*
X112621385Y-87647740D01*
X112636847Y-87713704D01*
X112646982Y-87758301D01*
X112650621Y-87776706D01*
X112640617Y-87784943D01*
X112602486Y-87791703D01*
X112539413Y-87794088D01*
X112428205Y-87794088D01*
X112412181Y-87734183D01*
X112411430Y-87731354D01*
X112400906Y-87690198D01*
X112385149Y-87626958D01*
X112366164Y-87549729D01*
X112345953Y-87466604D01*
X112341505Y-87448305D01*
X112322737Y-87373287D01*
X112306412Y-87311392D01*
X112294151Y-87268613D01*
X112287578Y-87250944D01*
X112286737Y-87251167D01*
X112285092Y-87270311D01*
X112285566Y-87313919D01*
X112287868Y-87376165D01*
X112291711Y-87451227D01*
X112296807Y-87533279D01*
X112302865Y-87616498D01*
X112309597Y-87695059D01*
X112319045Y-87795714D01*
X112217255Y-87790908D01*
X112115464Y-87786101D01*
X111995849Y-87511670D01*
X111994505Y-87508587D01*
X111956925Y-87423198D01*
X111923797Y-87349395D01*
X111897164Y-87291619D01*
X111879072Y-87254309D01*
X111871568Y-87241905D01*
X111872205Y-87249582D01*
X111879120Y-87283442D01*
X111892094Y-87339430D01*
X111909891Y-87412274D01*
X111931277Y-87496704D01*
X111945237Y-87551509D01*
X111965245Y-87632269D01*
X111981227Y-87699553D01*
X111991819Y-87747554D01*
X111995652Y-87770463D01*
X111994267Y-87777251D01*
X111979889Y-87787423D01*
X111945205Y-87792626D01*
X111884444Y-87794088D01*
X111773236Y-87794088D01*
X111757589Y-87734183D01*
X111757541Y-87733998D01*
X111740531Y-87667764D01*
X111719647Y-87584725D01*
X111696045Y-87489662D01*
X111670885Y-87387357D01*
X111645324Y-87282590D01*
X111620519Y-87180142D01*
X111597628Y-87084796D01*
X111577808Y-87001333D01*
X111562218Y-86934533D01*
X111552015Y-86889177D01*
X111548357Y-86870048D01*
X111556241Y-86861510D01*
X111584698Y-86855978D01*
X111637507Y-86853927D01*
X111718405Y-86855026D01*
X111888453Y-86859560D01*
X111993971Y-87104224D01*
X112025508Y-87176765D01*
X112058446Y-87248969D01*
X112081837Y-87292337D01*
X112096791Y-87306374D01*
X112104421Y-87290580D01*
X112105838Y-87244459D01*
X112102154Y-87167514D01*
X112094481Y-87059246D01*
X112089888Y-86991222D01*
X112086707Y-86928213D01*
X112085675Y-86883380D01*
X112087052Y-86863554D01*
X112097076Y-86859867D01*
X112133521Y-86855583D01*
X112189857Y-86852656D01*
X112259104Y-86851573D01*
X112320045Y-86851933D01*
G37*
G36*
X113252764Y-87410663D02*
G01*
X113279008Y-87471724D01*
X113299596Y-87518704D01*
X113311671Y-87543466D01*
X113317503Y-87549817D01*
X113319365Y-87541564D01*
X113319531Y-87522516D01*
X113319117Y-87509205D01*
X113314763Y-87461340D01*
X113307170Y-87406699D01*
X113294680Y-87330818D01*
X113606816Y-87330818D01*
X113640243Y-87422673D01*
X113666543Y-87493133D01*
X113685402Y-87538535D01*
X113696246Y-87556288D01*
X113699959Y-87547812D01*
X113697426Y-87514529D01*
X113697053Y-87511359D01*
X113690614Y-87448745D01*
X113685526Y-87387270D01*
X113681204Y-87323911D01*
X113760976Y-87328598D01*
X113788936Y-87330858D01*
X113830328Y-87336953D01*
X113851070Y-87344033D01*
X113851899Y-87345065D01*
X113863330Y-87367778D01*
X113881546Y-87411076D01*
X113903007Y-87466604D01*
X113944620Y-87578428D01*
X113934782Y-87466604D01*
X113934581Y-87464325D01*
X113929408Y-87407088D01*
X113925176Y-87362872D01*
X113922782Y-87341084D01*
X113927345Y-87336559D01*
X113955616Y-87331474D01*
X114002685Y-87329276D01*
X114060428Y-87329686D01*
X114120715Y-87332426D01*
X114175421Y-87337216D01*
X114216419Y-87343777D01*
X114235581Y-87351829D01*
X114245604Y-87373536D01*
X114262323Y-87417026D01*
X114281452Y-87471618D01*
X114281678Y-87472292D01*
X114299573Y-87521830D01*
X114314109Y-87555345D01*
X114322158Y-87565612D01*
X114322499Y-87565096D01*
X114323709Y-87544356D01*
X114321180Y-87501338D01*
X114315392Y-87444580D01*
X114314627Y-87438120D01*
X114308699Y-87383025D01*
X114305441Y-87343107D01*
X114305542Y-87326623D01*
X114312291Y-87325629D01*
X114343135Y-87325865D01*
X114389711Y-87328310D01*
X114470096Y-87333790D01*
X114513705Y-87444942D01*
X114536244Y-87500146D01*
X114557390Y-87544907D01*
X114569636Y-87560402D01*
X114572643Y-87546261D01*
X114566074Y-87502116D01*
X114564269Y-87492289D01*
X114556030Y-87432370D01*
X114552313Y-87378743D01*
X114551607Y-87322831D01*
X114631492Y-87328366D01*
X114711376Y-87333902D01*
X114711376Y-87417767D01*
X114711481Y-87431205D01*
X114713309Y-87493612D01*
X114716938Y-87570357D01*
X114721755Y-87647861D01*
X114732134Y-87794088D01*
X114549869Y-87794088D01*
X114510357Y-87702233D01*
X114485603Y-87645038D01*
X114463363Y-87596546D01*
X114450403Y-87575772D01*
X114444905Y-87581768D01*
X114445050Y-87613588D01*
X114449017Y-87670283D01*
X114458504Y-87794088D01*
X114278592Y-87794088D01*
X114214816Y-87654309D01*
X114201813Y-87625929D01*
X114169518Y-87556318D01*
X114140236Y-87494296D01*
X114119031Y-87450629D01*
X114087021Y-87386730D01*
X114103667Y-87794088D01*
X114018094Y-87794088D01*
X113988244Y-87793024D01*
X113941592Y-87785997D01*
X113916418Y-87774120D01*
X113915467Y-87772850D01*
X113901325Y-87746129D01*
X113880931Y-87699537D01*
X113858361Y-87642327D01*
X113816406Y-87530504D01*
X113826245Y-87662296D01*
X113836085Y-87794088D01*
X113655487Y-87794088D01*
X113579825Y-87630346D01*
X113553801Y-87574133D01*
X113523521Y-87508993D01*
X113499322Y-87457231D01*
X113484848Y-87426667D01*
X113483928Y-87424803D01*
X113476280Y-87414447D01*
X113471346Y-87421903D01*
X113468787Y-87450699D01*
X113468261Y-87504360D01*
X113469429Y-87586415D01*
X113473325Y-87786101D01*
X113385464Y-87790625D01*
X113297602Y-87795148D01*
X113249678Y-87673400D01*
X113242501Y-87655356D01*
X113220077Y-87601439D01*
X113202386Y-87562497D01*
X113192751Y-87545969D01*
X113190159Y-87550540D01*
X113190539Y-87578196D01*
X113195579Y-87623257D01*
X113199365Y-87651686D01*
X113205596Y-87708514D01*
X113208574Y-87750955D01*
X113208650Y-87753947D01*
X113207448Y-87777847D01*
X113197246Y-87789694D01*
X113170412Y-87792904D01*
X113119312Y-87790892D01*
X113028883Y-87786101D01*
X112928211Y-87570441D01*
X112911627Y-87534715D01*
X112878352Y-87461702D01*
X112851539Y-87401042D01*
X112833595Y-87358241D01*
X112826929Y-87338805D01*
X112831076Y-87333593D01*
X112858146Y-87326613D01*
X112902212Y-87324688D01*
X112978105Y-87326545D01*
X113018997Y-87432142D01*
X113036987Y-87477506D01*
X113058506Y-87526373D01*
X113071330Y-87546000D01*
X113076053Y-87537137D01*
X113073271Y-87500533D01*
X113066227Y-87444425D01*
X113059220Y-87388188D01*
X113052474Y-87333734D01*
X113133740Y-87328253D01*
X113215005Y-87322773D01*
X113252764Y-87410663D01*
G37*
G36*
X112553979Y-81192485D02*
G01*
X112553185Y-82115032D01*
X112340151Y-81260378D01*
X110745272Y-81260378D01*
X110755891Y-81448082D01*
X110757031Y-81468029D01*
X110761811Y-81549355D01*
X110767997Y-81652207D01*
X110775110Y-81768713D01*
X110782672Y-81891000D01*
X110790201Y-82011195D01*
X110803881Y-82228496D01*
X110815965Y-82421628D01*
X110826651Y-82593908D01*
X110836280Y-82750879D01*
X110845191Y-82898081D01*
X110853725Y-83041056D01*
X110862220Y-83185346D01*
X110867172Y-83268750D01*
X110873931Y-83379437D01*
X110880558Y-83484843D01*
X110886493Y-83576095D01*
X110891176Y-83644322D01*
X110893945Y-83688316D01*
X110895961Y-83743157D01*
X110895331Y-83778467D01*
X110892019Y-83788095D01*
X110891636Y-83787612D01*
X110880702Y-83767090D01*
X110860173Y-83723742D01*
X110832846Y-83663602D01*
X110801514Y-83592705D01*
X110776565Y-83535530D01*
X110727358Y-83422797D01*
X110671944Y-83295879D01*
X110611785Y-83158118D01*
X110548341Y-83012858D01*
X110483072Y-82863443D01*
X110417441Y-82713215D01*
X110352908Y-82565520D01*
X110290934Y-82423700D01*
X110232979Y-82291099D01*
X110180506Y-82171060D01*
X110134974Y-82066926D01*
X110097845Y-81982042D01*
X110070579Y-81919751D01*
X110054638Y-81883397D01*
X110050544Y-81874086D01*
X110022114Y-81809460D01*
X109985829Y-81727015D01*
X109945923Y-81636373D01*
X109906631Y-81547156D01*
X109892700Y-81515425D01*
X109859306Y-81438490D01*
X109830987Y-81372043D01*
X109810385Y-81322320D01*
X109800135Y-81295552D01*
X109788971Y-81260378D01*
X108991305Y-81260378D01*
X108957754Y-81260383D01*
X108803382Y-81260551D01*
X108659774Y-81260936D01*
X108529955Y-81261515D01*
X108416953Y-81262266D01*
X108323793Y-81263164D01*
X108253504Y-81264186D01*
X108209110Y-81265310D01*
X108193640Y-81266511D01*
X108195758Y-81276307D01*
X108204594Y-81313359D01*
X108219340Y-81373918D01*
X108238949Y-81453710D01*
X108262373Y-81548462D01*
X108288566Y-81653901D01*
X108316775Y-81767315D01*
X108357197Y-81930099D01*
X108404542Y-82121008D01*
X108458421Y-82338462D01*
X108518442Y-82580883D01*
X108584215Y-82846693D01*
X108655349Y-83134312D01*
X108731454Y-83442163D01*
X108812140Y-83768667D01*
X108897015Y-84112246D01*
X108985689Y-84471321D01*
X109023867Y-84625904D01*
X109064700Y-84791155D01*
X109103254Y-84947102D01*
X109138763Y-85090643D01*
X109170457Y-85218676D01*
X109197569Y-85328098D01*
X109219332Y-85415807D01*
X109234976Y-85478702D01*
X109243734Y-85513680D01*
X109271031Y-85621510D01*
X109794161Y-85621510D01*
X109874988Y-85621447D01*
X110008065Y-85620929D01*
X110113171Y-85619804D01*
X110192923Y-85617972D01*
X110249938Y-85615331D01*
X110286836Y-85611779D01*
X110306234Y-85607217D01*
X110310751Y-85601541D01*
X110310550Y-85600894D01*
X110304493Y-85577960D01*
X110291981Y-85528573D01*
X110274058Y-85456922D01*
X110251768Y-85367194D01*
X110226155Y-85263574D01*
X110198262Y-85150252D01*
X110187317Y-85105736D01*
X110161988Y-85002937D01*
X110131879Y-84880964D01*
X110097683Y-84742606D01*
X110060090Y-84590651D01*
X110019794Y-84427888D01*
X109977486Y-84257104D01*
X109933859Y-84081087D01*
X109889604Y-83902627D01*
X109845413Y-83724510D01*
X109801978Y-83549526D01*
X109759992Y-83380462D01*
X109720146Y-83220106D01*
X109683132Y-83071247D01*
X109649642Y-82936673D01*
X109620369Y-82819172D01*
X109596003Y-82721532D01*
X109577238Y-82646541D01*
X109564765Y-82596988D01*
X109559277Y-82575660D01*
X109557695Y-82567962D01*
X109564092Y-82575656D01*
X109582559Y-82611997D01*
X109612858Y-82676473D01*
X109654750Y-82768571D01*
X109707998Y-82887779D01*
X109772362Y-83033585D01*
X109807287Y-83113036D01*
X109847115Y-83203577D01*
X109889793Y-83300529D01*
X109936438Y-83406425D01*
X109988167Y-83523801D01*
X110046099Y-83655192D01*
X110111352Y-83803133D01*
X110185043Y-83970160D01*
X110268290Y-84158806D01*
X110362211Y-84371609D01*
X110467924Y-84611101D01*
X110503525Y-84691767D01*
X110562946Y-84826458D01*
X110624113Y-84965160D01*
X110683362Y-85099562D01*
X110737030Y-85221357D01*
X110781452Y-85322235D01*
X110913401Y-85622016D01*
X111777907Y-85613522D01*
X111774568Y-85509686D01*
X111773845Y-85489886D01*
X111770977Y-85425544D01*
X111766782Y-85341731D01*
X111761702Y-85247087D01*
X111756180Y-85150252D01*
X111753035Y-85096506D01*
X111746179Y-84977715D01*
X111738682Y-84846207D01*
X111731258Y-84714504D01*
X111724617Y-84595126D01*
X111721808Y-84544181D01*
X111710720Y-84343344D01*
X111701056Y-84168841D01*
X111692561Y-84016154D01*
X111684980Y-83880765D01*
X111678060Y-83758156D01*
X111671544Y-83643809D01*
X111665179Y-83533205D01*
X111658710Y-83421828D01*
X111651881Y-83305158D01*
X111648653Y-83249848D01*
X111641636Y-83127565D01*
X111634920Y-83007934D01*
X111628906Y-82898265D01*
X111623998Y-82805867D01*
X111620601Y-82738051D01*
X111612297Y-82562327D01*
X111818386Y-83385032D01*
X111847158Y-83499959D01*
X111897255Y-83700337D01*
X111950392Y-83913163D01*
X112004766Y-84131196D01*
X112058572Y-84347199D01*
X112110006Y-84553931D01*
X112157265Y-84744154D01*
X112198545Y-84910629D01*
X112372616Y-85613522D01*
X112554772Y-85623104D01*
X112554772Y-86564026D01*
X106292634Y-86564026D01*
X106292634Y-83815855D01*
X106742673Y-83820098D01*
X107192712Y-83824340D01*
X107235928Y-83992076D01*
X107245186Y-84028387D01*
X107263235Y-84099987D01*
X107287165Y-84195485D01*
X107315974Y-84310860D01*
X107348658Y-84442087D01*
X107384215Y-84585145D01*
X107421641Y-84736011D01*
X107459935Y-84890661D01*
X107640727Y-85621510D01*
X108212718Y-85621510D01*
X108355133Y-85621270D01*
X108493324Y-85620350D01*
X108602659Y-85618692D01*
X108684801Y-85616244D01*
X108741415Y-85612954D01*
X108774163Y-85608770D01*
X108784709Y-85603640D01*
X108784360Y-85599776D01*
X108782697Y-85590236D01*
X108779300Y-85574006D01*
X108773774Y-85549467D01*
X108765719Y-85514996D01*
X108754739Y-85468972D01*
X108740438Y-85409773D01*
X108722417Y-85335779D01*
X108700279Y-85245367D01*
X108673628Y-85136916D01*
X108642066Y-85008806D01*
X108605195Y-84859413D01*
X108562620Y-84687118D01*
X108513942Y-84490298D01*
X108458764Y-84267333D01*
X108396689Y-84016600D01*
X108327321Y-83736478D01*
X108316865Y-83694256D01*
X108267309Y-83494087D01*
X108214680Y-83281423D01*
X108160516Y-83062477D01*
X108106353Y-82843465D01*
X108053729Y-82630603D01*
X108004180Y-82430106D01*
X107959243Y-82248190D01*
X107920455Y-82091070D01*
X107891431Y-81973517D01*
X107856352Y-81831613D01*
X107823821Y-81700201D01*
X107794685Y-81582704D01*
X107769796Y-81482541D01*
X107750002Y-81403136D01*
X107736153Y-81347910D01*
X107729098Y-81320283D01*
X107713163Y-81260378D01*
X106292634Y-81260378D01*
X106292634Y-80269938D01*
X112554772Y-80269938D01*
X112553979Y-81192485D01*
G37*
%TO.C,G\u002A\u002A\u002A*%
G36*
X104574779Y-118331083D02*
G01*
X104574779Y-118518768D01*
X104224434Y-118518768D01*
X103874089Y-118518768D01*
X103874089Y-118331083D01*
X103874089Y-118143399D01*
X104224434Y-118143399D01*
X104574779Y-118143399D01*
X104574779Y-118331083D01*
G37*
G36*
X104043005Y-125430679D02*
G01*
X104211922Y-125438078D01*
X104219321Y-125606995D01*
X104226721Y-125775911D01*
X104050405Y-125775911D01*
X103874089Y-125775911D01*
X103874089Y-125599595D01*
X103874089Y-125423279D01*
X104043005Y-125430679D01*
G37*
G36*
X104950148Y-121972167D02*
G01*
X104950148Y-122147340D01*
X104587291Y-122147340D01*
X104224434Y-122147340D01*
X104224434Y-121972167D01*
X104224434Y-121796995D01*
X104587291Y-121796995D01*
X104950148Y-121796995D01*
X104950148Y-121972167D01*
G37*
G36*
X105675862Y-115052857D02*
G01*
X105675862Y-115590886D01*
X105137833Y-115590886D01*
X104599803Y-115590886D01*
X104599803Y-115052857D01*
X104599803Y-114514827D01*
X105137833Y-114514827D01*
X105675862Y-114514827D01*
X105675862Y-115052857D01*
G37*
G36*
X106046119Y-125606995D02*
G01*
X106053519Y-125775911D01*
X105863547Y-125775911D01*
X105673576Y-125775911D01*
X105680975Y-125606995D01*
X105688375Y-125438078D01*
X105863547Y-125438078D01*
X106038720Y-125438078D01*
X106046119Y-125606995D01*
G37*
G36*
X106401577Y-121247549D02*
G01*
X106401577Y-121421625D01*
X106225308Y-121421625D01*
X106051232Y-121421625D01*
X106051232Y-121246453D01*
X106051232Y-121071280D01*
X106226404Y-121071280D01*
X106401577Y-121071280D01*
X106401577Y-121247549D01*
G37*
G36*
X106401577Y-123423596D02*
G01*
X106401577Y-123598768D01*
X106226404Y-123598768D01*
X106051232Y-123598768D01*
X106051232Y-123423596D01*
X106051232Y-123248423D01*
X106226404Y-123248423D01*
X106401577Y-123248423D01*
X106401577Y-123423596D01*
G37*
G36*
X107127291Y-114690000D02*
G01*
X107127291Y-114865172D01*
X106952119Y-114865172D01*
X106776946Y-114865172D01*
X106776946Y-114690000D01*
X106776946Y-114514827D01*
X106952119Y-114514827D01*
X107127291Y-114514827D01*
X107127291Y-114690000D01*
G37*
G36*
X107122131Y-119788768D02*
G01*
X107129484Y-119970197D01*
X106952119Y-119970197D01*
X106774754Y-119970197D01*
X106782106Y-119788768D01*
X106789458Y-119607340D01*
X106952119Y-119607340D01*
X107114779Y-119607340D01*
X107122131Y-119788768D01*
G37*
G36*
X108046946Y-114144571D02*
G01*
X108215862Y-114151970D01*
X108222806Y-114508571D01*
X108229749Y-114865172D01*
X108053889Y-114865172D01*
X107878030Y-114865172D01*
X107878030Y-114501172D01*
X107878030Y-114137171D01*
X108046946Y-114144571D01*
G37*
G36*
X112050887Y-115971369D02*
G01*
X112219803Y-115978768D01*
X112227203Y-116147684D01*
X112234602Y-116316601D01*
X112058287Y-116316601D01*
X111881971Y-116316601D01*
X111881971Y-116140285D01*
X111881971Y-115963969D01*
X112050887Y-115971369D01*
G37*
G36*
X112050887Y-123979250D02*
G01*
X112219803Y-123986650D01*
X112227203Y-124155566D01*
X112234602Y-124324482D01*
X112058287Y-124324482D01*
X111881971Y-124324482D01*
X111881971Y-124148167D01*
X111881971Y-123971851D01*
X112050887Y-123979250D01*
G37*
G36*
X112582660Y-116516798D02*
G01*
X112582660Y-116691970D01*
X112407488Y-116691970D01*
X112232316Y-116691970D01*
X112232316Y-116516798D01*
X112232316Y-116341625D01*
X112407488Y-116341625D01*
X112582660Y-116341625D01*
X112582660Y-116516798D01*
G37*
G36*
X112582660Y-120145369D02*
G01*
X112582660Y-120320542D01*
X112407488Y-120320542D01*
X112232316Y-120320542D01*
X112232316Y-120145369D01*
X112232316Y-119970197D01*
X112407488Y-119970197D01*
X112582660Y-119970197D01*
X112582660Y-120145369D01*
G37*
G36*
X112952461Y-115960000D02*
G01*
X112959404Y-116316601D01*
X112782857Y-116316601D01*
X112606311Y-116316601D01*
X112613254Y-115960000D01*
X112620197Y-115603399D01*
X112782857Y-115603399D01*
X112945518Y-115603399D01*
X112952461Y-115960000D01*
G37*
G36*
X112952461Y-123967881D02*
G01*
X112959404Y-124324482D01*
X112782857Y-124324482D01*
X112606311Y-124324482D01*
X112613254Y-123967881D01*
X112620197Y-123611280D01*
X112782857Y-123611280D01*
X112945518Y-123611280D01*
X112952461Y-123967881D01*
G37*
G36*
X114409458Y-116867143D02*
G01*
X114409458Y-117042315D01*
X113871429Y-117042315D01*
X113333399Y-117042315D01*
X113333399Y-116867143D01*
X113333399Y-116691970D01*
X113871429Y-116691970D01*
X114409458Y-116691970D01*
X114409458Y-116867143D01*
G37*
G36*
X113502316Y-117422797D02*
G01*
X113671232Y-117430197D01*
X113678631Y-117599113D01*
X113686031Y-117768029D01*
X113509715Y-117768029D01*
X113333399Y-117768029D01*
X113333399Y-117591713D01*
X113333399Y-117415398D01*
X113502316Y-117422797D01*
G37*
G36*
X115135173Y-115052857D02*
G01*
X115135173Y-115590886D01*
X114597143Y-115590886D01*
X114059114Y-115590886D01*
X114059114Y-115052857D01*
X114059114Y-114514827D01*
X114597143Y-114514827D01*
X115135173Y-114514827D01*
X115135173Y-115052857D01*
G37*
G36*
X114409458Y-122697881D02*
G01*
X114409458Y-122873054D01*
X114234286Y-122873054D01*
X114059114Y-122873054D01*
X114059114Y-122697881D01*
X114059114Y-122522709D01*
X114234286Y-122522709D01*
X114409458Y-122522709D01*
X114409458Y-122697881D01*
G37*
G36*
X115135173Y-124512167D02*
G01*
X115135173Y-125050197D01*
X114597143Y-125050197D01*
X114059114Y-125050197D01*
X114059114Y-124512167D01*
X114059114Y-123974138D01*
X114597143Y-123974138D01*
X115135173Y-123974138D01*
X115135173Y-124512167D01*
G37*
G36*
X115860887Y-122697881D02*
G01*
X115860887Y-122873054D01*
X115322857Y-122873054D01*
X114784828Y-122873054D01*
X114784828Y-122697881D01*
X114784828Y-122522709D01*
X115322857Y-122522709D01*
X115860887Y-122522709D01*
X115860887Y-122697881D01*
G37*
G36*
X114952624Y-118874200D02*
G01*
X115122660Y-118881625D01*
X115130037Y-119064223D01*
X115137413Y-119246820D01*
X114967376Y-119239395D01*
X114797340Y-119231970D01*
X114789964Y-119049373D01*
X114782588Y-118866775D01*
X114952624Y-118874200D01*
G37*
G36*
X104224434Y-121229770D02*
G01*
X104222468Y-121306142D01*
X104216434Y-121372940D01*
X104207751Y-121404942D01*
X104181245Y-121412774D01*
X104117528Y-121419171D01*
X104032578Y-121421625D01*
X103874089Y-121421625D01*
X103874089Y-121246453D01*
X103874089Y-121071280D01*
X104049261Y-121071280D01*
X104224434Y-121071280D01*
X104224434Y-121229770D01*
G37*
G36*
X104219530Y-119754685D02*
G01*
X104221509Y-119819827D01*
X104219937Y-119893763D01*
X104214059Y-119936114D01*
X104195945Y-119952949D01*
X104138121Y-119966063D01*
X104036438Y-119970197D01*
X103871896Y-119970197D01*
X103879249Y-119788768D01*
X103886601Y-119607340D01*
X104049261Y-119607340D01*
X104211922Y-119607340D01*
X104219530Y-119754685D01*
G37*
G36*
X105320683Y-125572731D02*
G01*
X105322585Y-125625004D01*
X105321298Y-125698429D01*
X105315212Y-125741647D01*
X105290806Y-125761098D01*
X105229450Y-125772402D01*
X105124963Y-125775911D01*
X104947861Y-125775911D01*
X104955261Y-125606995D01*
X104962660Y-125438078D01*
X105137833Y-125438078D01*
X105313005Y-125438078D01*
X105320683Y-125572731D01*
G37*
G36*
X106776946Y-120333054D02*
G01*
X106776946Y-120695911D01*
X106414776Y-120695911D01*
X106051232Y-120695911D01*
X106051232Y-120521882D01*
X106051232Y-120347853D01*
X106220148Y-120340453D01*
X106389064Y-120333054D01*
X106396417Y-120151625D01*
X106403769Y-119970197D01*
X106589261Y-119970197D01*
X106776946Y-119970197D01*
X106776946Y-120333054D01*
G37*
G36*
X107502660Y-113946506D02*
G01*
X107500549Y-114023962D01*
X107494147Y-114091251D01*
X107484952Y-114123800D01*
X107455649Y-114131473D01*
X107390004Y-114135438D01*
X107303524Y-114134227D01*
X107139803Y-114126945D01*
X107139803Y-113964285D01*
X107139803Y-113801625D01*
X107321232Y-113794273D01*
X107502660Y-113786920D01*
X107502660Y-113946506D01*
G37*
G36*
X112582660Y-121421625D02*
G01*
X112582660Y-121771970D01*
X112408631Y-121771970D01*
X112234602Y-121771970D01*
X112227203Y-121603054D01*
X112219803Y-121434138D01*
X112050887Y-121426738D01*
X111881971Y-121419339D01*
X111881971Y-121245309D01*
X111881971Y-121071280D01*
X112232316Y-121071280D01*
X112582660Y-121071280D01*
X112582660Y-121421625D01*
G37*
G36*
X111501514Y-121239077D02*
G01*
X111494089Y-121409113D01*
X111312660Y-121416465D01*
X111131232Y-121423818D01*
X111131232Y-121597894D01*
X111131232Y-121771970D01*
X110956059Y-121771970D01*
X110780887Y-121771970D01*
X110780887Y-121596798D01*
X110780887Y-121421625D01*
X110954916Y-121421625D01*
X111128945Y-121421625D01*
X111136345Y-121252709D01*
X111143744Y-121083793D01*
X111326342Y-121076417D01*
X111508939Y-121069041D01*
X111501514Y-121239077D01*
G37*
G36*
X113683744Y-120520739D02*
G01*
X113683744Y-120695911D01*
X113508572Y-120695911D01*
X113333399Y-120695911D01*
X113333399Y-120871083D01*
X113333399Y-121046256D01*
X113144571Y-121046256D01*
X112955743Y-121046256D01*
X112963143Y-120877340D01*
X112970542Y-120708423D01*
X113151971Y-120701071D01*
X113333399Y-120693718D01*
X113333399Y-120519642D01*
X113333399Y-120345566D01*
X113508572Y-120345566D01*
X113683744Y-120345566D01*
X113683744Y-120520739D01*
G37*
G36*
X115860887Y-117054140D02*
G01*
X115860887Y-117417684D01*
X115322857Y-117417684D01*
X114784828Y-117417684D01*
X114784828Y-117592857D01*
X114784828Y-117768029D01*
X114597143Y-117768029D01*
X114409458Y-117768029D01*
X114409458Y-117418371D01*
X114409458Y-117068714D01*
X114766059Y-117061770D01*
X115122660Y-117054827D01*
X115135173Y-116879655D01*
X115147685Y-116704482D01*
X115504286Y-116697539D01*
X115860887Y-116690596D01*
X115860887Y-117054140D01*
G37*
G36*
X111506601Y-125249297D02*
G01*
X111506601Y-125425566D01*
X111869458Y-125425566D01*
X112232316Y-125425566D01*
X112232316Y-125250394D01*
X112232316Y-125075221D01*
X112595173Y-125075221D01*
X112958030Y-125075221D01*
X112958030Y-125425566D01*
X112958030Y-125775911D01*
X111680630Y-125775911D01*
X110403231Y-125775911D01*
X110410630Y-125606995D01*
X110418030Y-125438078D01*
X110773503Y-125431142D01*
X111128976Y-125424206D01*
X111136360Y-125255970D01*
X111143744Y-125087734D01*
X111325173Y-125080381D01*
X111506601Y-125073029D01*
X111506601Y-125249297D01*
G37*
G36*
X104950148Y-120520739D02*
G01*
X104950148Y-120695911D01*
X105137833Y-120695911D01*
X105325518Y-120695911D01*
X105325518Y-120520739D01*
X105325518Y-120345566D01*
X105500690Y-120345566D01*
X105675862Y-120345566D01*
X105675862Y-120520739D01*
X105675862Y-120695911D01*
X105500690Y-120695911D01*
X105325518Y-120695911D01*
X105325518Y-120871083D01*
X105325518Y-121046256D01*
X105137833Y-121046256D01*
X104950148Y-121046256D01*
X104950148Y-120871083D01*
X104950148Y-120695911D01*
X104587291Y-120695911D01*
X104224434Y-120695911D01*
X104224434Y-120520739D01*
X104224434Y-120345566D01*
X104587291Y-120345566D01*
X104950148Y-120345566D01*
X104950148Y-120520739D01*
G37*
G36*
X107133547Y-115246111D02*
G01*
X107490148Y-115253054D01*
X107497572Y-115423043D01*
X107504996Y-115593032D01*
X107685257Y-115585703D01*
X107865518Y-115578374D01*
X107872917Y-115409458D01*
X107880317Y-115240542D01*
X108054346Y-115240542D01*
X108228375Y-115240542D01*
X108228375Y-115603399D01*
X108228375Y-115964063D01*
X108046946Y-115971416D01*
X107865518Y-115978768D01*
X107858118Y-116147684D01*
X107850719Y-116316601D01*
X107676689Y-116316601D01*
X107502660Y-116316601D01*
X107502660Y-115953744D01*
X107502660Y-115590886D01*
X107139803Y-115590886D01*
X106776946Y-115590886D01*
X106776946Y-115415027D01*
X106776946Y-115239167D01*
X107133547Y-115246111D01*
G37*
G36*
X106401577Y-116316601D02*
G01*
X105137833Y-116316601D01*
X103874089Y-116316601D01*
X103874089Y-115052857D01*
X103874089Y-114151970D01*
X104236946Y-114151970D01*
X104236946Y-115052857D01*
X104236946Y-115953744D01*
X105132241Y-115960316D01*
X105340467Y-115961601D01*
X105547426Y-115962103D01*
X105711865Y-115961368D01*
X105837883Y-115959281D01*
X105929578Y-115955730D01*
X105991049Y-115950600D01*
X106026395Y-115943778D01*
X106039715Y-115935150D01*
X106042002Y-115911379D01*
X106044183Y-115842004D01*
X106045760Y-115733547D01*
X106046698Y-115591947D01*
X106046959Y-115423144D01*
X106046508Y-115233079D01*
X106045307Y-115027690D01*
X106038720Y-114151970D01*
X105137833Y-114151970D01*
X104236946Y-114151970D01*
X103874089Y-114151970D01*
X103874089Y-113789113D01*
X105137833Y-113789113D01*
X106401577Y-113789113D01*
X106401577Y-115052857D01*
X106401577Y-115423144D01*
X106401577Y-116316601D01*
G37*
G36*
X115860887Y-116316601D02*
G01*
X114597143Y-116316601D01*
X113333399Y-116316601D01*
X113333399Y-115052857D01*
X113333399Y-114151970D01*
X113696256Y-114151970D01*
X113696256Y-115052857D01*
X113696256Y-115953744D01*
X114591551Y-115960316D01*
X114799777Y-115961601D01*
X115006736Y-115962103D01*
X115171175Y-115961368D01*
X115297193Y-115959281D01*
X115388888Y-115955730D01*
X115450360Y-115950600D01*
X115485706Y-115943778D01*
X115499025Y-115935150D01*
X115501313Y-115911379D01*
X115503493Y-115842004D01*
X115505070Y-115733547D01*
X115506008Y-115591947D01*
X115506269Y-115423144D01*
X115505818Y-115233079D01*
X115504617Y-115027690D01*
X115498030Y-114151970D01*
X114597143Y-114151970D01*
X113696256Y-114151970D01*
X113333399Y-114151970D01*
X113333399Y-113789113D01*
X114597143Y-113789113D01*
X115860887Y-113789113D01*
X115860887Y-115052857D01*
X115860887Y-115423144D01*
X115860887Y-116316601D01*
G37*
G36*
X115860887Y-125775911D02*
G01*
X114597143Y-125775911D01*
X113333399Y-125775911D01*
X113333399Y-124512167D01*
X113333399Y-123611280D01*
X113696256Y-123611280D01*
X113696256Y-124512167D01*
X113696256Y-125413054D01*
X114591551Y-125419627D01*
X114799777Y-125420911D01*
X115006736Y-125421414D01*
X115171175Y-125420678D01*
X115297193Y-125418592D01*
X115388888Y-125415040D01*
X115450360Y-125409910D01*
X115485706Y-125403088D01*
X115499025Y-125394460D01*
X115501313Y-125370689D01*
X115503493Y-125301315D01*
X115505070Y-125192857D01*
X115506008Y-125051257D01*
X115506269Y-124882455D01*
X115505818Y-124692389D01*
X115504617Y-124487000D01*
X115498030Y-123611280D01*
X114597143Y-123611280D01*
X113696256Y-123611280D01*
X113333399Y-123611280D01*
X113333399Y-123248423D01*
X114597143Y-123248423D01*
X115860887Y-123248423D01*
X115860887Y-124512167D01*
X115860887Y-124882455D01*
X115860887Y-125775911D01*
G37*
G36*
X115510542Y-117967130D02*
G01*
X115510542Y-118143399D01*
X115685715Y-118143399D01*
X115860887Y-118143399D01*
X115860887Y-118693941D01*
X115860887Y-119244482D01*
X115685715Y-119244482D01*
X115510542Y-119244482D01*
X115510542Y-118881625D01*
X115510542Y-118518768D01*
X115147685Y-118518768D01*
X114784828Y-118518768D01*
X114784828Y-118693941D01*
X114784828Y-118869113D01*
X114597143Y-118869113D01*
X114409458Y-118869113D01*
X114409458Y-119231970D01*
X114409458Y-119594827D01*
X114234268Y-119594827D01*
X114057739Y-119594827D01*
X114064683Y-119238226D01*
X114071626Y-118881625D01*
X114239862Y-118874241D01*
X114408098Y-118866857D01*
X114415034Y-118511384D01*
X114421971Y-118155911D01*
X114777444Y-118148975D01*
X115132917Y-118142038D01*
X115140301Y-117973802D01*
X115147685Y-117805566D01*
X115329114Y-117798214D01*
X115510542Y-117790861D01*
X115510542Y-117967130D01*
G37*
G36*
X104593547Y-116697843D02*
G01*
X105313005Y-116704482D01*
X105313005Y-116867143D01*
X105313005Y-117029803D01*
X105187882Y-117036342D01*
X105172068Y-117037135D01*
X105084479Y-117041466D01*
X105023495Y-117049688D01*
X104984329Y-117069486D01*
X104962197Y-117108547D01*
X104952313Y-117174556D01*
X104949892Y-117275199D01*
X104950148Y-117418161D01*
X104950148Y-117768029D01*
X104586148Y-117768029D01*
X104222147Y-117768029D01*
X104229547Y-117599113D01*
X104236946Y-117430197D01*
X104398957Y-117422601D01*
X104477406Y-117415587D01*
X104546368Y-117401905D01*
X104580003Y-117385064D01*
X104592998Y-117342269D01*
X104598927Y-117268555D01*
X104596608Y-117185998D01*
X104586677Y-117114096D01*
X104569774Y-117072344D01*
X104550993Y-117062899D01*
X104483646Y-117051380D01*
X104369455Y-117044561D01*
X104206917Y-117042315D01*
X103874089Y-117042315D01*
X103874089Y-116866759D01*
X103874089Y-116691203D01*
X104593547Y-116697843D01*
G37*
G36*
X112955399Y-114874916D02*
G01*
X112952672Y-115014639D01*
X112949204Y-115123817D01*
X112945153Y-115195949D01*
X112940672Y-115224533D01*
X112937362Y-115226195D01*
X112896053Y-115231619D01*
X112816919Y-115235077D01*
X112709684Y-115236286D01*
X112584071Y-115234960D01*
X112244828Y-115228029D01*
X112237475Y-115046601D01*
X112230123Y-114865172D01*
X112058724Y-114865172D01*
X112042279Y-114865186D01*
X111953041Y-114868131D01*
X111898333Y-114882884D01*
X111869711Y-114919005D01*
X111858730Y-114986052D01*
X111856946Y-115093584D01*
X111856946Y-115242828D01*
X111688030Y-115235429D01*
X111519114Y-115228029D01*
X111512170Y-114871428D01*
X111505227Y-114514827D01*
X111678409Y-114514827D01*
X111717563Y-114514527D01*
X111749888Y-114512635D01*
X112232316Y-114512635D01*
X112232316Y-114688903D01*
X112232316Y-114865172D01*
X112408273Y-114865172D01*
X112498459Y-114863681D01*
X112563582Y-114852513D01*
X112596372Y-114821771D01*
X112606303Y-114761561D01*
X112602850Y-114661992D01*
X112595173Y-114527340D01*
X112413744Y-114519987D01*
X112232316Y-114512635D01*
X111749888Y-114512635D01*
X111800136Y-114509694D01*
X111846506Y-114497308D01*
X111866781Y-114475244D01*
X111867501Y-114473006D01*
X111873147Y-114428714D01*
X111877745Y-114346578D01*
X111880838Y-114237501D01*
X111881971Y-114112386D01*
X111881971Y-113789113D01*
X112420000Y-113789113D01*
X112958030Y-113789113D01*
X112958030Y-114498144D01*
X112958013Y-114529838D01*
X112957231Y-114711148D01*
X112956667Y-114761561D01*
X112955399Y-114874916D01*
G37*
G36*
X111501441Y-122341280D02*
G01*
X111508794Y-122522709D01*
X111682870Y-122522709D01*
X111856946Y-122522709D01*
X111856946Y-122697881D01*
X111856946Y-122873054D01*
X111680677Y-122873054D01*
X111504409Y-122873054D01*
X111511761Y-123054482D01*
X111519114Y-123235911D01*
X111679495Y-123243465D01*
X111749788Y-123244990D01*
X111825488Y-123237885D01*
X111860540Y-123218440D01*
X111869918Y-123186741D01*
X111878236Y-123117152D01*
X111881588Y-123029458D01*
X111881971Y-122873054D01*
X112057143Y-122873054D01*
X112232316Y-122873054D01*
X112232316Y-123235911D01*
X112232316Y-123598768D01*
X112074660Y-123598768D01*
X112002518Y-123601654D01*
X111927658Y-123612424D01*
X111886976Y-123628798D01*
X111873784Y-123657142D01*
X111861576Y-123725890D01*
X111856946Y-123816482D01*
X111856946Y-123974138D01*
X111681774Y-123974138D01*
X111506601Y-123974138D01*
X111506601Y-124150406D01*
X111506601Y-124326675D01*
X111325173Y-124319323D01*
X111143744Y-124311970D01*
X111143744Y-124149310D01*
X111143744Y-123986650D01*
X111326247Y-123979276D01*
X111508749Y-123971902D01*
X111501419Y-123791591D01*
X111494089Y-123611280D01*
X111318917Y-123598768D01*
X111143744Y-123586256D01*
X111143744Y-123235911D01*
X111143744Y-122885566D01*
X111325173Y-122878214D01*
X111506601Y-122870861D01*
X111506601Y-122697881D01*
X111506601Y-122524902D01*
X111325173Y-122517549D01*
X111143744Y-122510197D01*
X111143744Y-122335024D01*
X111143744Y-122159852D01*
X111318917Y-122159852D01*
X111494089Y-122159852D01*
X111501441Y-122341280D01*
G37*
G36*
X112232316Y-122159852D02*
G01*
X112232316Y-122522709D01*
X112595173Y-122522709D01*
X112958030Y-122522709D01*
X112958030Y-122335024D01*
X112958030Y-122147340D01*
X112782857Y-122147340D01*
X112607685Y-122147340D01*
X112607685Y-121972167D01*
X112607685Y-121796995D01*
X112782857Y-121796995D01*
X112958030Y-121796995D01*
X112958030Y-121972167D01*
X112958030Y-122147340D01*
X113145715Y-122147340D01*
X113333399Y-122147340D01*
X113333399Y-121972167D01*
X113333399Y-121796995D01*
X113697400Y-121796995D01*
X114061400Y-121796995D01*
X114054001Y-121965911D01*
X114046601Y-122134827D01*
X113690000Y-122141770D01*
X113333399Y-122148714D01*
X113333399Y-122335711D01*
X113333399Y-122522709D01*
X113146402Y-122522709D01*
X112959404Y-122522709D01*
X112952461Y-122879310D01*
X112945518Y-123235911D01*
X112776601Y-123243311D01*
X112607685Y-123250710D01*
X112607685Y-123101466D01*
X112607672Y-123082362D01*
X112605055Y-122981520D01*
X112591950Y-122919727D01*
X112559869Y-122887425D01*
X112500319Y-122875053D01*
X112404811Y-122873054D01*
X112232316Y-122873054D01*
X112232316Y-122697881D01*
X112232316Y-122522709D01*
X112057143Y-122522709D01*
X111881971Y-122522709D01*
X111881971Y-122159852D01*
X111881971Y-121796995D01*
X112057143Y-121796995D01*
X112232316Y-121796995D01*
X112232316Y-122159852D01*
G37*
G36*
X113508572Y-122522709D02*
G01*
X113683744Y-122522709D01*
X113683744Y-122697881D01*
X113683744Y-122873054D01*
X113508572Y-122873054D01*
X113333399Y-122873054D01*
X113333399Y-122697881D01*
X113333399Y-122522709D01*
X113508572Y-122522709D01*
G37*
G36*
X112958030Y-117793054D02*
G01*
X112958030Y-118518768D01*
X113145715Y-118518768D01*
X113333399Y-118518768D01*
X113333399Y-118331083D01*
X113333399Y-118143399D01*
X113508572Y-118143399D01*
X113683744Y-118143399D01*
X113683744Y-117967130D01*
X113683744Y-117790861D01*
X113865173Y-117798214D01*
X114046601Y-117805566D01*
X114046601Y-118155911D01*
X114046601Y-118506256D01*
X113690000Y-118513199D01*
X113333399Y-118520142D01*
X113333399Y-118693484D01*
X113333399Y-118866826D01*
X113502316Y-118874226D01*
X113671232Y-118881625D01*
X113671232Y-119056798D01*
X113671232Y-119231970D01*
X113314631Y-119238913D01*
X112958030Y-119245857D01*
X112958030Y-119608027D01*
X112958030Y-119970197D01*
X113144618Y-119970197D01*
X113331207Y-119970197D01*
X113338559Y-119788768D01*
X113345912Y-119607340D01*
X113508572Y-119607340D01*
X113671232Y-119607340D01*
X113671232Y-119782512D01*
X113671232Y-119957684D01*
X113502316Y-119965084D01*
X113333399Y-119972483D01*
X113333399Y-120146512D01*
X113333399Y-120320542D01*
X113145715Y-120320542D01*
X112958030Y-120320542D01*
X112958030Y-120145369D01*
X112958030Y-119970197D01*
X112782857Y-119970197D01*
X112607685Y-119970197D01*
X112607685Y-119607340D01*
X112607685Y-119244482D01*
X112782857Y-119244482D01*
X112958030Y-119244482D01*
X112958030Y-118881625D01*
X112958030Y-118518768D01*
X112782857Y-118518768D01*
X112607685Y-118518768D01*
X112607685Y-118007810D01*
X112607654Y-117974792D01*
X112606652Y-117820387D01*
X112604409Y-117683233D01*
X112601152Y-117571529D01*
X112597105Y-117493474D01*
X112592495Y-117457268D01*
X112589457Y-117451188D01*
X112571567Y-117436897D01*
X112534305Y-117427237D01*
X112470007Y-117421373D01*
X112371006Y-117418467D01*
X112229638Y-117417684D01*
X111881971Y-117417684D01*
X111881971Y-117242512D01*
X111881971Y-117067340D01*
X112420000Y-117067340D01*
X112958030Y-117067340D01*
X112958030Y-117793054D01*
G37*
G36*
X115510542Y-119418511D02*
G01*
X115510542Y-119592541D01*
X115679458Y-119599940D01*
X115848375Y-119607340D01*
X115855118Y-120151241D01*
X115861861Y-120695142D01*
X115141916Y-120701783D01*
X114421971Y-120708423D01*
X114414417Y-120868805D01*
X114412892Y-120939098D01*
X114419996Y-121014798D01*
X114439442Y-121049850D01*
X114471141Y-121059228D01*
X114540730Y-121067546D01*
X114628424Y-121070897D01*
X114784828Y-121071280D01*
X114784828Y-121246453D01*
X114784828Y-121421625D01*
X114958857Y-121421625D01*
X115132886Y-121421625D01*
X115140286Y-121252709D01*
X115147685Y-121083793D01*
X115329114Y-121076440D01*
X115510542Y-121069088D01*
X115510542Y-121245357D01*
X115510542Y-121421625D01*
X115685715Y-121421625D01*
X115860887Y-121421625D01*
X115860887Y-121596798D01*
X115860887Y-121771970D01*
X115528059Y-121771970D01*
X115422526Y-121772812D01*
X115289827Y-121777849D01*
X115204554Y-121787537D01*
X115165202Y-121802000D01*
X115152011Y-121830344D01*
X115139803Y-121899092D01*
X115135173Y-121989684D01*
X115135173Y-122147340D01*
X114960000Y-122147340D01*
X114784828Y-122147340D01*
X114784828Y-121974845D01*
X114784543Y-121936820D01*
X114779739Y-121854014D01*
X114767350Y-121807498D01*
X114745244Y-121787160D01*
X114743165Y-121786484D01*
X114699175Y-121780822D01*
X114617287Y-121776210D01*
X114508429Y-121773107D01*
X114383531Y-121771970D01*
X114061400Y-121771970D01*
X114054001Y-121603054D01*
X114046601Y-121434138D01*
X113690000Y-121427194D01*
X113333399Y-121420251D01*
X113333399Y-121596111D01*
X113333399Y-121771970D01*
X113144571Y-121771970D01*
X112955743Y-121771970D01*
X112963143Y-121603054D01*
X112970542Y-121434138D01*
X113151971Y-121426785D01*
X113333399Y-121419433D01*
X113333399Y-121245357D01*
X113333399Y-121071280D01*
X113656673Y-121071280D01*
X113672042Y-121071263D01*
X113795819Y-121069874D01*
X113902263Y-121066577D01*
X113980468Y-121061831D01*
X114019530Y-121056091D01*
X114025441Y-121053161D01*
X114039803Y-121035404D01*
X114049512Y-120998325D01*
X114055406Y-120934246D01*
X114058327Y-120835489D01*
X114059114Y-120694377D01*
X114059114Y-120347853D01*
X114228030Y-120340453D01*
X114396946Y-120333054D01*
X114403871Y-119963941D01*
X114410796Y-119594827D01*
X114772316Y-119594827D01*
X115135173Y-119594827D01*
X115135173Y-119782512D01*
X115135173Y-119970197D01*
X114958904Y-119970197D01*
X114782635Y-119970197D01*
X114789988Y-120151625D01*
X114797340Y-120333054D01*
X115122660Y-120337694D01*
X115141346Y-120337938D01*
X115264070Y-120338427D01*
X115368308Y-120336994D01*
X115443544Y-120333888D01*
X115479261Y-120329352D01*
X115485924Y-120323436D01*
X115497340Y-120288449D01*
X115504962Y-120218911D01*
X115509219Y-120109676D01*
X115510542Y-119955599D01*
X115510542Y-119594827D01*
X115322857Y-119594827D01*
X115135173Y-119594827D01*
X115135173Y-119419655D01*
X115135173Y-119244482D01*
X115322857Y-119244482D01*
X115510542Y-119244482D01*
X115510542Y-119418511D01*
G37*
G36*
X110042660Y-116329113D02*
G01*
X110042660Y-116679458D01*
X109867488Y-116691970D01*
X109692316Y-116704482D01*
X109684762Y-116864864D01*
X109683237Y-116935157D01*
X109690341Y-117010857D01*
X109709787Y-117045909D01*
X109734887Y-117050121D01*
X109805473Y-117054621D01*
X109915031Y-117058624D01*
X110057634Y-117061996D01*
X110227360Y-117064600D01*
X110418284Y-117066298D01*
X110624483Y-117066956D01*
X111506601Y-117067340D01*
X111506601Y-117242512D01*
X111506601Y-117417684D01*
X111681774Y-117417684D01*
X111856946Y-117417684D01*
X111856946Y-117575340D01*
X111859832Y-117647482D01*
X111870602Y-117722342D01*
X111886976Y-117763024D01*
X111915320Y-117776216D01*
X111984068Y-117788424D01*
X112074660Y-117793054D01*
X112232316Y-117793054D01*
X112232316Y-118155911D01*
X112232316Y-118518768D01*
X112057143Y-118518768D01*
X111881971Y-118518768D01*
X111881971Y-118370667D01*
X111881961Y-118354112D01*
X111879423Y-118252703D01*
X111866484Y-118190509D01*
X111834638Y-118157948D01*
X111775377Y-118145439D01*
X111680193Y-118143399D01*
X111508794Y-118143399D01*
X111501441Y-118324827D01*
X111494089Y-118506256D01*
X111318917Y-118506256D01*
X111143744Y-118506256D01*
X111143744Y-118331083D01*
X111143744Y-118155911D01*
X111325173Y-118148559D01*
X111506601Y-118141206D01*
X111506601Y-117969807D01*
X111506590Y-117955109D01*
X111503731Y-117865074D01*
X111489158Y-117809855D01*
X111453289Y-117780947D01*
X111386541Y-117769841D01*
X111279333Y-117768029D01*
X111131232Y-117768029D01*
X111131232Y-117592857D01*
X111131232Y-117417684D01*
X110956059Y-117417684D01*
X110780887Y-117417684D01*
X110780887Y-117592857D01*
X110780887Y-117768029D01*
X110624483Y-117768412D01*
X110550284Y-117770829D01*
X110476565Y-117778471D01*
X110435501Y-117789460D01*
X110421848Y-117806909D01*
X110410208Y-117866818D01*
X110410476Y-117970505D01*
X110418030Y-118130886D01*
X110593202Y-118143399D01*
X110768375Y-118155911D01*
X110774419Y-118465672D01*
X110775311Y-118511384D01*
X110782247Y-118866857D01*
X110950484Y-118874241D01*
X111118720Y-118881625D01*
X111126050Y-119061979D01*
X111133381Y-119242333D01*
X111313735Y-119249664D01*
X111494089Y-119256995D01*
X111501489Y-119425911D01*
X111508888Y-119594827D01*
X111682917Y-119594827D01*
X111856946Y-119594827D01*
X111856946Y-119782512D01*
X111856946Y-119970197D01*
X111680677Y-119970197D01*
X111504409Y-119970197D01*
X111511761Y-120151625D01*
X111519114Y-120333054D01*
X111876842Y-120340004D01*
X112234571Y-120346954D01*
X112227187Y-120515176D01*
X112219803Y-120683399D01*
X112057792Y-120690994D01*
X111979344Y-120698008D01*
X111910382Y-120711690D01*
X111876747Y-120728531D01*
X111868912Y-120753516D01*
X111860678Y-120818514D01*
X111857329Y-120902364D01*
X111856946Y-121046256D01*
X111682917Y-121046256D01*
X111508888Y-121046256D01*
X111501489Y-120877340D01*
X111494089Y-120708423D01*
X111318917Y-120695911D01*
X111143744Y-120683399D01*
X111143744Y-120333054D01*
X111143744Y-119982709D01*
X111325173Y-119975357D01*
X111506601Y-119968004D01*
X111506601Y-119782512D01*
X111506601Y-119597020D01*
X111325173Y-119589667D01*
X111143744Y-119582315D01*
X111136345Y-119413399D01*
X111128945Y-119244482D01*
X110592059Y-119244482D01*
X110055173Y-119244482D01*
X110055173Y-119606652D01*
X110055173Y-119968823D01*
X110411774Y-119975766D01*
X110768375Y-119982709D01*
X110775774Y-120151625D01*
X110783174Y-120320542D01*
X110633929Y-120320542D01*
X110627973Y-120320538D01*
X110542103Y-120320743D01*
X110481722Y-120326538D01*
X110442355Y-120345328D01*
X110419526Y-120384521D01*
X110408760Y-120451525D01*
X110405582Y-120553745D01*
X110405518Y-120698588D01*
X110405518Y-121046256D01*
X110230345Y-121046256D01*
X110055173Y-121046256D01*
X110055173Y-120698588D01*
X110055175Y-120689241D01*
X110055048Y-120546978D01*
X110051563Y-120446925D01*
X110040267Y-120381673D01*
X110016706Y-120343817D01*
X109976427Y-120325948D01*
X109914978Y-120320659D01*
X109827904Y-120320542D01*
X109679803Y-120320542D01*
X109679803Y-120145369D01*
X109679803Y-119970197D01*
X109503535Y-119970197D01*
X109327266Y-119970197D01*
X109334618Y-120151625D01*
X109341971Y-120333054D01*
X109510887Y-120340453D01*
X109679803Y-120347853D01*
X109679803Y-120884739D01*
X109679803Y-121421625D01*
X109504631Y-121421625D01*
X109329458Y-121421625D01*
X109329458Y-121263970D01*
X109326572Y-121191828D01*
X109315803Y-121116967D01*
X109299429Y-121076285D01*
X109279420Y-121065326D01*
X109217131Y-121052085D01*
X109135864Y-121046400D01*
X109054938Y-121049207D01*
X108993673Y-121061445D01*
X108984972Y-121066024D01*
X108966393Y-121094089D01*
X108956810Y-121151753D01*
X108954089Y-121249130D01*
X108954089Y-121421625D01*
X108778917Y-121421625D01*
X108603744Y-121421625D01*
X108603744Y-121058768D01*
X108603744Y-120695911D01*
X108778230Y-120695911D01*
X108952715Y-120695911D01*
X108959658Y-120339310D01*
X108966601Y-119982709D01*
X109148710Y-119975343D01*
X109330819Y-119967977D01*
X109323883Y-119612486D01*
X109316946Y-119256995D01*
X109135518Y-119249642D01*
X108954089Y-119242290D01*
X108954089Y-118881625D01*
X108954089Y-118518768D01*
X108591232Y-118518768D01*
X108228375Y-118518768D01*
X108228375Y-118692797D01*
X108228375Y-118866826D01*
X108397291Y-118874226D01*
X108566207Y-118881625D01*
X108572746Y-119006748D01*
X108575279Y-119046667D01*
X108583112Y-119129721D01*
X108591992Y-119188177D01*
X108593537Y-119194631D01*
X108605894Y-119221712D01*
X108633193Y-119236704D01*
X108687128Y-119243124D01*
X108779393Y-119244482D01*
X108954089Y-119244482D01*
X108954089Y-119418559D01*
X108954089Y-119594827D01*
X108796434Y-119594827D01*
X108724291Y-119597713D01*
X108649431Y-119608483D01*
X108608749Y-119624857D01*
X108595593Y-119653066D01*
X108583364Y-119721631D01*
X108578720Y-119811854D01*
X108578720Y-119968823D01*
X108222119Y-119975766D01*
X107865518Y-119982709D01*
X107858144Y-120150507D01*
X107850769Y-120318306D01*
X107682971Y-120325680D01*
X107515173Y-120333054D01*
X107502660Y-120508226D01*
X107490148Y-120683399D01*
X107308720Y-120690751D01*
X107127291Y-120698104D01*
X107127291Y-120869502D01*
X107127552Y-120905715D01*
X107132309Y-120988900D01*
X107144700Y-121035650D01*
X107166875Y-121056091D01*
X107168711Y-121056755D01*
X107220469Y-121065521D01*
X107305495Y-121070710D01*
X107411892Y-121072582D01*
X107527762Y-121071395D01*
X107641205Y-121067410D01*
X107740325Y-121060884D01*
X107813223Y-121052078D01*
X107848000Y-121041251D01*
X107857446Y-121022470D01*
X107868965Y-120955124D01*
X107875784Y-120840933D01*
X107878030Y-120678394D01*
X107878030Y-120345566D01*
X108053202Y-120345566D01*
X108228375Y-120345566D01*
X108228375Y-121058768D01*
X108228375Y-121771970D01*
X108053202Y-121771970D01*
X107878030Y-121771970D01*
X107877647Y-121628078D01*
X107875924Y-121546976D01*
X107864257Y-121475979D01*
X107833250Y-121438506D01*
X107773488Y-121425170D01*
X107675554Y-121426584D01*
X107515173Y-121434138D01*
X107508234Y-121790047D01*
X107501295Y-122145957D01*
X107858579Y-122152904D01*
X108215862Y-122159852D01*
X108228375Y-122697881D01*
X108240887Y-123235911D01*
X108409803Y-123243311D01*
X108578720Y-123250710D01*
X108578720Y-124150453D01*
X108578720Y-124456665D01*
X108578720Y-125050197D01*
X108443131Y-125050197D01*
X108441208Y-125050196D01*
X108359475Y-125050465D01*
X108301870Y-125056291D01*
X108264182Y-125075088D01*
X108242200Y-125114268D01*
X108231712Y-125181246D01*
X108228507Y-125283433D01*
X108228375Y-125428244D01*
X108228375Y-125775911D01*
X107503804Y-125775911D01*
X106779233Y-125775911D01*
X106771833Y-125606995D01*
X106764434Y-125438078D01*
X106589261Y-125425566D01*
X106414089Y-125413054D01*
X106406689Y-125244138D01*
X106399290Y-125075221D01*
X106548534Y-125075221D01*
X106551626Y-125075222D01*
X106638546Y-125075051D01*
X106699683Y-125069451D01*
X106739560Y-125050990D01*
X106762702Y-125012233D01*
X106773631Y-124945747D01*
X106776871Y-124844098D01*
X106776946Y-124699852D01*
X106776770Y-124568290D01*
X106773922Y-124462745D01*
X106764680Y-124393100D01*
X106745319Y-124351903D01*
X106712112Y-124331701D01*
X106661335Y-124325045D01*
X106589261Y-124324482D01*
X106521892Y-124324873D01*
X106469771Y-124330764D01*
X106435391Y-124349576D01*
X106415068Y-124388734D01*
X106405116Y-124455662D01*
X106403355Y-124510674D01*
X106401847Y-124557786D01*
X106401577Y-124702529D01*
X106401577Y-125050197D01*
X105864691Y-125050197D01*
X105327804Y-125050197D01*
X105320405Y-124881280D01*
X105313005Y-124712364D01*
X105137833Y-124712364D01*
X104962660Y-124712364D01*
X104955261Y-124881280D01*
X104947861Y-125050197D01*
X104587291Y-125050197D01*
X104226721Y-125050197D01*
X104219321Y-124881280D01*
X104211922Y-124712364D01*
X104042520Y-124704954D01*
X103873119Y-124697543D01*
X103876474Y-124427196D01*
X105679677Y-124427196D01*
X105680821Y-124526958D01*
X105688375Y-124687340D01*
X105852095Y-124694621D01*
X105933791Y-124695914D01*
X106001121Y-124692237D01*
X106033524Y-124684194D01*
X106041678Y-124658424D01*
X106048579Y-124595100D01*
X106051232Y-124510674D01*
X106050359Y-124449667D01*
X106040647Y-124380187D01*
X106011726Y-124342707D01*
X105953343Y-124327507D01*
X105855244Y-124324866D01*
X105800865Y-124325966D01*
X105731089Y-124336675D01*
X105693563Y-124367093D01*
X105679677Y-124427196D01*
X103876474Y-124427196D01*
X103879860Y-124154412D01*
X103881916Y-123988736D01*
X104573631Y-123988736D01*
X104575920Y-124103928D01*
X104581879Y-124205519D01*
X104591509Y-124281403D01*
X104604808Y-124319477D01*
X104640949Y-124335055D01*
X104710808Y-124345680D01*
X104793189Y-124348756D01*
X104868594Y-124343644D01*
X104917528Y-124329706D01*
X104932494Y-124302143D01*
X104946706Y-124236570D01*
X104955065Y-124148661D01*
X104962660Y-123986650D01*
X105137833Y-123974138D01*
X107139803Y-123974138D01*
X107139803Y-124687340D01*
X107320157Y-124694670D01*
X107500511Y-124702001D01*
X107507842Y-124882355D01*
X107515173Y-125062709D01*
X107665534Y-125070002D01*
X107710422Y-125071216D01*
X107799216Y-125064978D01*
X107846963Y-125046229D01*
X107859736Y-125021275D01*
X107873056Y-124952644D01*
X107878030Y-124858650D01*
X107878030Y-124702139D01*
X108046946Y-124694739D01*
X108215862Y-124687340D01*
X108223416Y-124526958D01*
X108224941Y-124456665D01*
X108217837Y-124380965D01*
X108198391Y-124345913D01*
X108155297Y-124332339D01*
X108080947Y-124325652D01*
X107997821Y-124327472D01*
X107925367Y-124337269D01*
X107883035Y-124354512D01*
X107869843Y-124382856D01*
X107857635Y-124451605D01*
X107853005Y-124542197D01*
X107853005Y-124699852D01*
X107677833Y-124699852D01*
X107502660Y-124699852D01*
X107502660Y-124336995D01*
X107502660Y-123974138D01*
X107675155Y-123974138D01*
X107713180Y-123973853D01*
X107795986Y-123969049D01*
X107842502Y-123956660D01*
X107862840Y-123934554D01*
X107871246Y-123901936D01*
X107877814Y-123826749D01*
X107875504Y-123743284D01*
X107865254Y-123670860D01*
X107848000Y-123628798D01*
X107819656Y-123615606D01*
X107750908Y-123603398D01*
X107660316Y-123598768D01*
X107502660Y-123598768D01*
X107502660Y-123423596D01*
X107502660Y-123248423D01*
X107675155Y-123248423D01*
X107713180Y-123248139D01*
X107795986Y-123243335D01*
X107842502Y-123230946D01*
X107862840Y-123208840D01*
X107871246Y-123176222D01*
X107877814Y-123101034D01*
X107875504Y-123017569D01*
X107865254Y-122945146D01*
X107848000Y-122903083D01*
X107819656Y-122889892D01*
X107750908Y-122877684D01*
X107660316Y-122873054D01*
X107502660Y-122873054D01*
X107502660Y-122696785D01*
X107502660Y-122520516D01*
X107321232Y-122527869D01*
X107139803Y-122535221D01*
X107139803Y-122697881D01*
X107139803Y-122860542D01*
X107321232Y-122867894D01*
X107502660Y-122875246D01*
X107502660Y-123060739D01*
X107502660Y-123246231D01*
X107321232Y-123253583D01*
X107139803Y-123260936D01*
X107139803Y-123694898D01*
X107139803Y-123974138D01*
X105137833Y-123974138D01*
X105313005Y-123961625D01*
X105313005Y-123611280D01*
X105313005Y-123423596D01*
X105688375Y-123423596D01*
X105688375Y-123961625D01*
X106220742Y-123968381D01*
X106222449Y-123968402D01*
X106406653Y-123970093D01*
X106546239Y-123969730D01*
X106646567Y-123967060D01*
X106712992Y-123961830D01*
X106750872Y-123953788D01*
X106765564Y-123942681D01*
X106766409Y-123939215D01*
X106769637Y-123895322D01*
X106771817Y-123811203D01*
X106772864Y-123694898D01*
X106772695Y-123554449D01*
X106771226Y-123397895D01*
X106764434Y-122885566D01*
X106226404Y-122885566D01*
X105688375Y-122885566D01*
X105688375Y-123260936D01*
X105688375Y-123423596D01*
X105313005Y-123423596D01*
X105313005Y-123260936D01*
X105131577Y-123253583D01*
X104950148Y-123246231D01*
X104950148Y-123422499D01*
X104950148Y-123598768D01*
X104792493Y-123598768D01*
X104720350Y-123601654D01*
X104645490Y-123612424D01*
X104604808Y-123628798D01*
X104601176Y-123634039D01*
X104588785Y-123682594D01*
X104580064Y-123765965D01*
X104575012Y-123872047D01*
X104573631Y-123988736D01*
X103881916Y-123988736D01*
X103886601Y-123611280D01*
X104055518Y-123603881D01*
X104224434Y-123596481D01*
X104224434Y-123059595D01*
X104224434Y-122522709D01*
X104398463Y-122522709D01*
X104572492Y-122522709D01*
X104579891Y-122691625D01*
X104587291Y-122860542D01*
X104768720Y-122867894D01*
X104950148Y-122875246D01*
X104950148Y-122699362D01*
X104950148Y-122523477D01*
X105669606Y-122516837D01*
X106389064Y-122510197D01*
X106396403Y-122329462D01*
X106403741Y-122148727D01*
X106046058Y-122141777D01*
X105688375Y-122134827D01*
X105681431Y-121778226D01*
X105674488Y-121421625D01*
X105501146Y-121421625D01*
X105327804Y-121421625D01*
X105320405Y-121590542D01*
X105313005Y-121759458D01*
X105130408Y-121766834D01*
X104947810Y-121774210D01*
X104955235Y-121604174D01*
X104962660Y-121434138D01*
X105144089Y-121426785D01*
X105325518Y-121419433D01*
X105325518Y-121245357D01*
X105325518Y-121071280D01*
X105500690Y-121071280D01*
X105675862Y-121071280D01*
X105675862Y-121246453D01*
X105675862Y-121421625D01*
X105863547Y-121421625D01*
X106049039Y-121421625D01*
X106056392Y-121603054D01*
X106063744Y-121784482D01*
X106232660Y-121791882D01*
X106401577Y-121799281D01*
X106401577Y-121973311D01*
X106401577Y-122147340D01*
X106764434Y-122147340D01*
X107127291Y-122147340D01*
X107127291Y-121974845D01*
X107127006Y-121936820D01*
X107122202Y-121854014D01*
X107109814Y-121807498D01*
X107087707Y-121787160D01*
X107085469Y-121786440D01*
X107041178Y-121780794D01*
X106959042Y-121776196D01*
X106849965Y-121773103D01*
X106724850Y-121771970D01*
X106401577Y-121771970D01*
X106401577Y-121596798D01*
X106401577Y-121423818D01*
X106583005Y-121416465D01*
X106764434Y-121409113D01*
X106771377Y-121052512D01*
X106778320Y-120695911D01*
X106952119Y-120695911D01*
X107127291Y-120695911D01*
X107127291Y-120334150D01*
X107127291Y-119972389D01*
X107308720Y-119965037D01*
X107490148Y-119957684D01*
X107502660Y-119782512D01*
X107515173Y-119607340D01*
X107690345Y-119594827D01*
X107865518Y-119582315D01*
X107872624Y-119106847D01*
X107874154Y-118954320D01*
X107874136Y-118815756D01*
X107872677Y-118700398D01*
X107869891Y-118617189D01*
X107865891Y-118575074D01*
X107864417Y-118569362D01*
X107851570Y-118541923D01*
X107824090Y-118526702D01*
X107770180Y-118520162D01*
X107678043Y-118518768D01*
X107504035Y-118518768D01*
X107497091Y-118875369D01*
X107490148Y-119231970D01*
X106945862Y-119238714D01*
X106401577Y-119245458D01*
X106401577Y-119607828D01*
X106401577Y-119970197D01*
X106227501Y-119970197D01*
X106051232Y-119970197D01*
X106051232Y-120145369D01*
X106051232Y-120320542D01*
X105863547Y-120320542D01*
X105675862Y-120320542D01*
X105675862Y-120145369D01*
X105675862Y-119970197D01*
X105500690Y-119970197D01*
X105325518Y-119970197D01*
X105325518Y-120145369D01*
X105325518Y-120320542D01*
X105136689Y-120320542D01*
X104947861Y-120320542D01*
X104955261Y-120151625D01*
X104962660Y-119982709D01*
X105144089Y-119975357D01*
X105325518Y-119968004D01*
X105325518Y-119781416D01*
X105325518Y-119594827D01*
X105137833Y-119594827D01*
X104950148Y-119594827D01*
X104950148Y-119420342D01*
X104950148Y-119245857D01*
X104593547Y-119238913D01*
X104236946Y-119231970D01*
X104236946Y-119056798D01*
X104236946Y-118881625D01*
X104760664Y-118874848D01*
X104905234Y-118873384D01*
X105056416Y-118873373D01*
X105166733Y-118875777D01*
X105241392Y-118880836D01*
X105285601Y-118888787D01*
X105304567Y-118899872D01*
X105305966Y-118902867D01*
X105313350Y-118946476D01*
X105319401Y-119027846D01*
X105323526Y-119136536D01*
X105325134Y-119262108D01*
X105325518Y-119592541D01*
X105494434Y-119599940D01*
X105663350Y-119607340D01*
X105670703Y-119788768D01*
X105678055Y-119970197D01*
X105864643Y-119970197D01*
X106051232Y-119970197D01*
X106051232Y-119607340D01*
X106051232Y-119244482D01*
X106226404Y-119244482D01*
X106401577Y-119244482D01*
X106401577Y-118881625D01*
X106401577Y-118518768D01*
X106589261Y-118518768D01*
X106776946Y-118518768D01*
X106776946Y-118693941D01*
X106776946Y-118869113D01*
X106952119Y-118869113D01*
X107127291Y-118869113D01*
X107127291Y-118693941D01*
X107127291Y-118518768D01*
X106953215Y-118518768D01*
X106779139Y-118518768D01*
X106771786Y-118337340D01*
X106764434Y-118155911D01*
X106583005Y-118148559D01*
X106401577Y-118141206D01*
X106401577Y-117967130D01*
X106401577Y-117881415D01*
X107131797Y-117881415D01*
X107132235Y-117984883D01*
X107139803Y-118130886D01*
X107493470Y-118137812D01*
X107576479Y-118139256D01*
X107694327Y-118139949D01*
X107774124Y-118137518D01*
X107823606Y-118131262D01*
X107850513Y-118120484D01*
X107862583Y-118104484D01*
X107865333Y-118094500D01*
X107872173Y-118035983D01*
X107876752Y-117942598D01*
X107879204Y-117823779D01*
X107879661Y-117688959D01*
X107878259Y-117547574D01*
X107875128Y-117409056D01*
X107870404Y-117282840D01*
X107864219Y-117178360D01*
X107856707Y-117105050D01*
X107848000Y-117072344D01*
X107827991Y-117061385D01*
X107765702Y-117048144D01*
X107684435Y-117042459D01*
X107603509Y-117045266D01*
X107542244Y-117057505D01*
X107536164Y-117060543D01*
X107521873Y-117078433D01*
X107512213Y-117115695D01*
X107506349Y-117179993D01*
X107503443Y-117278994D01*
X107502660Y-117420362D01*
X107502660Y-117768029D01*
X107343064Y-117768029D01*
X107273682Y-117769576D01*
X107193761Y-117782771D01*
X107149386Y-117817048D01*
X107131797Y-117881415D01*
X106401577Y-117881415D01*
X106401577Y-117793054D01*
X106549678Y-117793054D01*
X106566721Y-117793044D01*
X106667956Y-117790490D01*
X106730014Y-117777480D01*
X106762476Y-117745462D01*
X106774926Y-117685880D01*
X106776946Y-117590179D01*
X106776946Y-117417684D01*
X106589261Y-117417684D01*
X106401577Y-117417684D01*
X106401577Y-117592857D01*
X106401577Y-117768029D01*
X106265988Y-117768029D01*
X106166620Y-117769892D01*
X106101363Y-117781746D01*
X106066946Y-117812846D01*
X106053519Y-117872449D01*
X106051232Y-117969807D01*
X106051232Y-118141206D01*
X105869803Y-118148559D01*
X105688375Y-118155911D01*
X105681022Y-118337340D01*
X105673670Y-118518768D01*
X105862451Y-118518768D01*
X106051232Y-118518768D01*
X106051232Y-118331083D01*
X106051232Y-118143399D01*
X106226404Y-118143399D01*
X106401577Y-118143399D01*
X106401577Y-118331083D01*
X106401577Y-118518768D01*
X106227548Y-118518768D01*
X106053519Y-118518768D01*
X106046119Y-118687684D01*
X106038720Y-118856601D01*
X105857291Y-118863953D01*
X105675862Y-118871306D01*
X105675862Y-118695724D01*
X105675862Y-118520142D01*
X105319261Y-118513199D01*
X104962660Y-118506256D01*
X104955721Y-118150346D01*
X104948782Y-117794436D01*
X105306066Y-117787489D01*
X105663350Y-117780542D01*
X105675862Y-117242512D01*
X105688375Y-116704482D01*
X105863547Y-116704482D01*
X106038720Y-116704482D01*
X106045663Y-117061083D01*
X106052606Y-117417684D01*
X106227091Y-117417684D01*
X106401577Y-117417684D01*
X106401577Y-117242512D01*
X106401577Y-117067340D01*
X106589261Y-117067340D01*
X106776946Y-117067340D01*
X106776946Y-117242512D01*
X106776946Y-117417684D01*
X106953215Y-117417684D01*
X107129484Y-117417684D01*
X107122131Y-117236256D01*
X107114779Y-117054827D01*
X106945862Y-117047428D01*
X106776946Y-117040028D01*
X106776946Y-116503142D01*
X106776946Y-115966256D01*
X106952119Y-115966256D01*
X107127291Y-115966256D01*
X107127291Y-116123911D01*
X107130177Y-116196054D01*
X107140947Y-116270914D01*
X107157321Y-116311596D01*
X107185665Y-116324787D01*
X107254413Y-116336995D01*
X107345005Y-116341625D01*
X107502660Y-116341625D01*
X107502660Y-116516798D01*
X107502660Y-116691970D01*
X107675155Y-116691970D01*
X107769338Y-116689984D01*
X107830849Y-116677367D01*
X107863264Y-116644267D01*
X107875889Y-116580833D01*
X107878030Y-116477214D01*
X107878030Y-116341625D01*
X108013619Y-116341625D01*
X108113642Y-116339736D01*
X108178615Y-116327752D01*
X108212827Y-116296315D01*
X108226130Y-116236068D01*
X108228375Y-116137655D01*
X108228375Y-115966256D01*
X108403547Y-115966256D01*
X108578720Y-115966256D01*
X108578720Y-116329113D01*
X108578720Y-116691970D01*
X108403059Y-116691970D01*
X108227399Y-116691970D01*
X108234143Y-117236256D01*
X108239752Y-117688959D01*
X108240887Y-117780542D01*
X108408685Y-117787916D01*
X108576484Y-117795290D01*
X108583858Y-117963088D01*
X108591232Y-118130886D01*
X108772660Y-118138239D01*
X108954089Y-118145591D01*
X108954089Y-118329987D01*
X108954089Y-118518768D01*
X109128785Y-118518768D01*
X109138960Y-118518756D01*
X109232724Y-118515088D01*
X109290649Y-118498523D01*
X109320272Y-118459854D01*
X109329131Y-118389874D01*
X109324761Y-118279376D01*
X109316946Y-118155911D01*
X109135518Y-118148559D01*
X108954089Y-118141206D01*
X108954089Y-117609143D01*
X108954271Y-117458002D01*
X108954125Y-117416297D01*
X109327238Y-117416297D01*
X109334604Y-117598419D01*
X109341971Y-117780542D01*
X109510887Y-117787941D01*
X109679803Y-117795341D01*
X109679803Y-118332227D01*
X109679803Y-118869113D01*
X109855761Y-118869113D01*
X109932630Y-118867255D01*
X110011658Y-118856974D01*
X110043859Y-118837477D01*
X110044058Y-118836864D01*
X110046966Y-118801549D01*
X110049132Y-118723387D01*
X110050503Y-118609166D01*
X110051027Y-118465672D01*
X110050653Y-118299694D01*
X110049330Y-118118019D01*
X110042660Y-117430197D01*
X109684949Y-117423247D01*
X109327238Y-117416297D01*
X108954125Y-117416297D01*
X108953756Y-117311309D01*
X108950283Y-117203748D01*
X108941566Y-117129285D01*
X108925320Y-117081889D01*
X108899260Y-117055527D01*
X108861099Y-117044165D01*
X108808552Y-117041772D01*
X108739333Y-117042315D01*
X108603744Y-117042315D01*
X108603744Y-116867143D01*
X108603744Y-116691970D01*
X108778917Y-116691970D01*
X108954089Y-116691970D01*
X108954089Y-116329113D01*
X108954089Y-115966256D01*
X109327266Y-115966256D01*
X109334618Y-116147684D01*
X109341971Y-116329113D01*
X109493146Y-116336428D01*
X109562548Y-116337815D01*
X109629368Y-116334302D01*
X109662062Y-116326001D01*
X109662086Y-116325976D01*
X109671011Y-116293544D01*
X109677376Y-116225757D01*
X109679803Y-116137257D01*
X109679803Y-115966256D01*
X109503535Y-115966256D01*
X109327266Y-115966256D01*
X108954089Y-115966256D01*
X108777820Y-115966256D01*
X108601552Y-115966256D01*
X108608904Y-115784827D01*
X108616256Y-115603399D01*
X109148030Y-115596645D01*
X109679803Y-115589891D01*
X109679803Y-115227532D01*
X109679803Y-114865172D01*
X109505727Y-114865172D01*
X109331651Y-114865172D01*
X109324299Y-115046601D01*
X109316946Y-115228029D01*
X109141774Y-115228029D01*
X108966601Y-115228029D01*
X108959249Y-115046601D01*
X108951896Y-114865172D01*
X108777820Y-114865172D01*
X108603744Y-114865172D01*
X108603744Y-114501172D01*
X108603744Y-114137171D01*
X108772660Y-114144571D01*
X108941577Y-114151970D01*
X108948520Y-114508571D01*
X108955463Y-114865172D01*
X109142461Y-114865172D01*
X109329458Y-114865172D01*
X109329458Y-114690000D01*
X109329458Y-114514827D01*
X109504631Y-114514827D01*
X109679803Y-114514827D01*
X109679803Y-114151970D01*
X109679803Y-113789113D01*
X110594346Y-113789113D01*
X111508888Y-113789113D01*
X111501489Y-113958029D01*
X111494089Y-114126945D01*
X111318917Y-114139458D01*
X111143744Y-114151970D01*
X111131232Y-114327143D01*
X111118720Y-114502315D01*
X110949803Y-114509714D01*
X110780887Y-114517114D01*
X110780887Y-114690000D01*
X110780887Y-114862885D01*
X110949803Y-114870285D01*
X111118720Y-114877684D01*
X111125659Y-115233602D01*
X111132598Y-115589521D01*
X111488516Y-115596460D01*
X111844434Y-115603399D01*
X111851786Y-115784827D01*
X111859139Y-115966256D01*
X111682870Y-115966256D01*
X111506601Y-115966256D01*
X111506601Y-116329113D01*
X111506601Y-116691970D01*
X111681774Y-116691970D01*
X111856946Y-116691970D01*
X111856946Y-116867143D01*
X111856946Y-117042315D01*
X111681774Y-117042315D01*
X111506601Y-117042315D01*
X111506601Y-116868239D01*
X111506601Y-116694163D01*
X111325173Y-116686810D01*
X111143744Y-116679458D01*
X111137000Y-116135172D01*
X111130256Y-115590886D01*
X110955571Y-115590886D01*
X110783174Y-115590886D01*
X110775774Y-115421970D01*
X110768375Y-115253054D01*
X110586946Y-115245701D01*
X110405518Y-115238349D01*
X110405518Y-114688903D01*
X110405518Y-114139458D01*
X110231441Y-114139458D01*
X110057365Y-114139458D01*
X110050013Y-114320886D01*
X110042660Y-114502315D01*
X109861232Y-114509667D01*
X109679803Y-114517020D01*
X109679803Y-114690000D01*
X109679803Y-114862979D01*
X109861232Y-114870332D01*
X110042660Y-114877684D01*
X110050013Y-115059113D01*
X110057365Y-115240542D01*
X110231441Y-115240542D01*
X110405518Y-115240542D01*
X110405518Y-115415714D01*
X110405518Y-115590886D01*
X110042660Y-115590886D01*
X109679803Y-115590886D01*
X109679803Y-115777475D01*
X109679803Y-115964063D01*
X109861232Y-115971416D01*
X110042660Y-115978768D01*
X110042660Y-116137257D01*
X110042660Y-116329113D01*
G37*
G36*
X110768375Y-123961625D02*
G01*
X110593202Y-123974138D01*
X110418030Y-123986650D01*
X110410476Y-124147031D01*
X110408951Y-124217325D01*
X110416055Y-124293025D01*
X110435501Y-124328077D01*
X110467200Y-124337454D01*
X110536789Y-124345772D01*
X110624483Y-124349124D01*
X110780887Y-124349507D01*
X110780887Y-124699165D01*
X110780887Y-125048823D01*
X110424286Y-125055766D01*
X110067685Y-125062709D01*
X110060742Y-125419310D01*
X110053799Y-125775911D01*
X109691629Y-125775911D01*
X109329458Y-125775911D01*
X109329458Y-125443083D01*
X109328616Y-125337549D01*
X109323579Y-125204851D01*
X109313891Y-125119578D01*
X109299429Y-125080226D01*
X109271085Y-125067035D01*
X109202336Y-125054827D01*
X109111744Y-125050197D01*
X108954089Y-125050197D01*
X108954089Y-124699852D01*
X108954089Y-124349507D01*
X109141774Y-124349507D01*
X109329458Y-124349507D01*
X109329458Y-124524679D01*
X109329458Y-124699852D01*
X109504631Y-124699852D01*
X109679803Y-124699852D01*
X109679803Y-124524679D01*
X109679803Y-124349507D01*
X109839399Y-124349507D01*
X109908782Y-124347960D01*
X109988703Y-124334765D01*
X110033078Y-124300488D01*
X110050667Y-124236121D01*
X110050228Y-124132653D01*
X110042660Y-123986650D01*
X109867488Y-123986650D01*
X109692316Y-123986650D01*
X109684916Y-124155566D01*
X109677517Y-124324482D01*
X109504631Y-124324482D01*
X109331745Y-124324482D01*
X109324346Y-124155566D01*
X109316946Y-123986650D01*
X109141774Y-123974138D01*
X108966601Y-123961625D01*
X108954089Y-123423596D01*
X108949964Y-123246231D01*
X109679803Y-123246231D01*
X109679803Y-123422499D01*
X109679803Y-123598768D01*
X109855761Y-123598768D01*
X109945947Y-123597277D01*
X110011069Y-123586109D01*
X110043859Y-123555367D01*
X110053791Y-123495158D01*
X110050338Y-123395588D01*
X110042660Y-123260936D01*
X109861232Y-123253583D01*
X109679803Y-123246231D01*
X108949964Y-123246231D01*
X108941577Y-122885566D01*
X108772660Y-122878167D01*
X108603744Y-122870767D01*
X108603744Y-122696738D01*
X108603744Y-122522709D01*
X108953612Y-122522709D01*
X108958536Y-122522709D01*
X109103827Y-122522405D01*
X109206350Y-122518398D01*
X109273171Y-122506132D01*
X109311357Y-122481048D01*
X109327973Y-122438590D01*
X109330085Y-122374199D01*
X109324761Y-122283317D01*
X109316946Y-122159852D01*
X109135518Y-122152499D01*
X108954089Y-122145147D01*
X108954089Y-121783386D01*
X108954089Y-121421625D01*
X109140677Y-121421625D01*
X109327266Y-121421625D01*
X109334618Y-121603054D01*
X109341971Y-121784482D01*
X109493146Y-121791797D01*
X109562548Y-121793184D01*
X109629368Y-121789672D01*
X109662062Y-121781370D01*
X109662086Y-121781346D01*
X109671011Y-121748914D01*
X109677376Y-121681126D01*
X109679803Y-121592627D01*
X109679803Y-121421625D01*
X110042660Y-121421625D01*
X110405518Y-121421625D01*
X110405518Y-121594120D01*
X110405532Y-121611088D01*
X110408479Y-121700656D01*
X110423233Y-121755540D01*
X110459353Y-121784231D01*
X110526399Y-121795219D01*
X110633929Y-121796995D01*
X110783174Y-121796995D01*
X110775774Y-121965911D01*
X110768375Y-122134827D01*
X110230345Y-122147340D01*
X109692316Y-122159852D01*
X109692316Y-122335024D01*
X109692316Y-122510197D01*
X109867488Y-122522709D01*
X110042660Y-122535221D01*
X110050044Y-122703457D01*
X110057428Y-122871693D01*
X110412902Y-122878630D01*
X110768375Y-122885566D01*
X110768375Y-123423596D01*
X110768375Y-123495158D01*
X110768375Y-123961625D01*
G37*
G36*
X112407488Y-118518768D02*
G01*
X112582660Y-118518768D01*
X112582660Y-118881625D01*
X112582660Y-119244482D01*
X112407488Y-119244482D01*
X112232316Y-119244482D01*
X112232316Y-119419655D01*
X112232316Y-119594827D01*
X112057143Y-119594827D01*
X111881971Y-119594827D01*
X111881971Y-119231970D01*
X111881971Y-118869113D01*
X112057143Y-118869113D01*
X112232316Y-118869113D01*
X112232316Y-118693941D01*
X112232316Y-118518768D01*
X112407488Y-118518768D01*
G37*
G36*
X110594346Y-115590886D02*
G01*
X110780887Y-115590886D01*
X110780887Y-115953744D01*
X110780887Y-116316601D01*
X110593202Y-116316601D01*
X110405518Y-116316601D01*
X110405518Y-115953744D01*
X110405518Y-115590886D01*
X110594346Y-115590886D01*
G37*
%TD*%
%LPC*%
D12*
%TO.C,H1*%
X74000000Y-65000000D03*
%TD*%
D13*
%TO.C,J27*%
X135810000Y-94805000D03*
D14*
X138310000Y-94805000D03*
%TD*%
D13*
%TO.C,J36*%
X135840000Y-65870000D03*
D14*
X138340000Y-65870000D03*
%TD*%
D13*
%TO.C,J32*%
X135735000Y-131105000D03*
D14*
X138235000Y-131105000D03*
%TD*%
D13*
%TO.C,J15*%
X100130000Y-123875000D03*
D14*
X102630000Y-123875000D03*
%TD*%
D13*
%TO.C,J3*%
X81900000Y-94950000D03*
D14*
X84400000Y-94950000D03*
%TD*%
D13*
%TO.C,J25*%
X135860000Y-80480000D03*
D14*
X138360000Y-80480000D03*
%TD*%
D12*
%TO.C,H3*%
X74000000Y-137000000D03*
%TD*%
D13*
%TO.C,J7*%
X81900000Y-123900000D03*
D14*
X84400000Y-123900000D03*
%TD*%
D13*
%TO.C,J5*%
X81900000Y-109450000D03*
D14*
X84400000Y-109450000D03*
%TD*%
D13*
%TO.C,J30*%
X135785000Y-116530000D03*
D14*
X138285000Y-116530000D03*
%TD*%
D13*
%TO.C,J29*%
X135810000Y-109380000D03*
D14*
X138310000Y-109380000D03*
%TD*%
D13*
%TO.C,J31*%
X135760000Y-123805000D03*
D14*
X138260000Y-123805000D03*
%TD*%
D13*
%TO.C,J24*%
X117440000Y-131110000D03*
D14*
X119940000Y-131110000D03*
%TD*%
D13*
%TO.C,J35*%
X117470000Y-65840000D03*
D14*
X119970000Y-65840000D03*
%TD*%
D13*
%TO.C,J12*%
X100155000Y-102050000D03*
D14*
X102655000Y-102050000D03*
%TD*%
D13*
%TO.C,J26*%
X135835000Y-87555000D03*
D14*
X138335000Y-87555000D03*
%TD*%
D13*
%TO.C,J8*%
X81900000Y-131175000D03*
D14*
X84400000Y-131175000D03*
%TD*%
D12*
%TO.C,H4*%
X146000000Y-137000000D03*
%TD*%
D13*
%TO.C,J20*%
X117440000Y-102110000D03*
D14*
X119940000Y-102110000D03*
%TD*%
D12*
%TO.C,H2*%
X146000000Y-65000000D03*
%TD*%
D13*
%TO.C,J18*%
X117440000Y-87635000D03*
D14*
X119940000Y-87635000D03*
%TD*%
D13*
%TO.C,J1*%
X81900000Y-80525000D03*
D14*
X84400000Y-80525000D03*
%TD*%
D15*
%TO.C,J103*%
X73210000Y-82080000D03*
D16*
X73210000Y-79580000D03*
X73210000Y-77080000D03*
X73210000Y-74580000D03*
X73210000Y-72080000D03*
%TD*%
D13*
%TO.C,J10*%
X100180000Y-87625000D03*
D14*
X102680000Y-87625000D03*
%TD*%
D13*
%TO.C,J17*%
X117440000Y-80485000D03*
D14*
X119940000Y-80485000D03*
%TD*%
D13*
%TO.C,J21*%
X117440000Y-109360000D03*
D14*
X119940000Y-109360000D03*
%TD*%
D13*
%TO.C,J19*%
X117440000Y-94885000D03*
D14*
X119940000Y-94885000D03*
%TD*%
D13*
%TO.C,J6*%
X81900000Y-116675000D03*
D14*
X84400000Y-116675000D03*
%TD*%
D13*
%TO.C,J22*%
X117440000Y-116660000D03*
D14*
X119940000Y-116660000D03*
%TD*%
D13*
%TO.C,J28*%
X135785000Y-102005000D03*
D14*
X138285000Y-102005000D03*
%TD*%
D13*
%TO.C,J13*%
X100130000Y-109350000D03*
D14*
X102630000Y-109350000D03*
%TD*%
D13*
%TO.C,J33*%
X81990000Y-65910000D03*
D14*
X84490000Y-65910000D03*
%TD*%
D13*
%TO.C,J2*%
X81900000Y-87650000D03*
D14*
X84400000Y-87650000D03*
%TD*%
D13*
%TO.C,J34*%
X100160000Y-65890000D03*
D14*
X102660000Y-65890000D03*
%TD*%
D13*
%TO.C,J23*%
X117440000Y-123835000D03*
D14*
X119940000Y-123835000D03*
%TD*%
D13*
%TO.C,J14*%
X100130000Y-116625000D03*
D14*
X102630000Y-116625000D03*
%TD*%
D17*
%TO.C,J102*%
X73210000Y-125400000D03*
D18*
X73210000Y-122900000D03*
%TD*%
D13*
%TO.C,J11*%
X100180000Y-94875000D03*
D14*
X102680000Y-94875000D03*
%TD*%
D13*
%TO.C,J9*%
X100180000Y-80525000D03*
D14*
X102680000Y-80525000D03*
%TD*%
D13*
%TO.C,J4*%
X81900000Y-102225000D03*
D14*
X84400000Y-102225000D03*
%TD*%
D13*
%TO.C,J16*%
X100155000Y-131125000D03*
D14*
X102655000Y-131125000D03*
%TD*%
%LPD*%
M02*
