%TF.GenerationSoftware,KiCad,Pcbnew,9.0.3*%
%TF.CreationDate,2025-07-25T06:36:40+02:00*%
%TF.ProjectId,input-shifter-board,696e7075-742d-4736-9869-667465722d62,rev?*%
%TF.SameCoordinates,Original*%
%TF.FileFunction,Copper,L2,Bot*%
%TF.FilePolarity,Positive*%
%FSLAX46Y46*%
G04 Gerber Fmt 4.6, Leading zero omitted, Abs format (unit mm)*
G04 Created by KiCad (PCBNEW 9.0.3) date 2025-07-25 06:36:40*
%MOMM*%
%LPD*%
G01*
G04 APERTURE LIST*
G04 Aperture macros list*
%AMRoundRect*
0 Rectangle with rounded corners*
0 $1 Rounding radius*
0 $2 $3 $4 $5 $6 $7 $8 $9 X,Y pos of 4 corners*
0 Add a 4 corners polygon primitive as box body*
4,1,4,$2,$3,$4,$5,$6,$7,$8,$9,$2,$3,0*
0 Add four circle primitives for the rounded corners*
1,1,$1+$1,$2,$3*
1,1,$1+$1,$4,$5*
1,1,$1+$1,$6,$7*
1,1,$1+$1,$8,$9*
0 Add four rect primitives between the rounded corners*
20,1,$1+$1,$2,$3,$4,$5,0*
20,1,$1+$1,$4,$5,$6,$7,0*
20,1,$1+$1,$6,$7,$8,$9,0*
20,1,$1+$1,$8,$9,$2,$3,0*%
G04 Aperture macros list end*
%TA.AperFunction,ComponentPad*%
%ADD10RoundRect,0.250000X-0.600000X-0.750000X0.600000X-0.750000X0.600000X0.750000X-0.600000X0.750000X0*%
%TD*%
%TA.AperFunction,ComponentPad*%
%ADD11O,1.700000X2.000000*%
%TD*%
%TA.AperFunction,ComponentPad*%
%ADD12C,6.400000*%
%TD*%
%TA.AperFunction,ComponentPad*%
%ADD13RoundRect,0.250000X-0.600000X-0.725000X0.600000X-0.725000X0.600000X0.725000X-0.600000X0.725000X0*%
%TD*%
%TA.AperFunction,ComponentPad*%
%ADD14O,1.700000X1.950000*%
%TD*%
%TA.AperFunction,ViaPad*%
%ADD15C,0.800000*%
%TD*%
%TA.AperFunction,Conductor*%
%ADD16C,0.600000*%
%TD*%
%TA.AperFunction,Conductor*%
%ADD17C,0.400000*%
%TD*%
G04 APERTURE END LIST*
D10*
%TO.P,J3,1,Pin_1*%
%TO.N,GND*%
X77350000Y-72550000D03*
D11*
%TO.P,J3,2,Pin_2*%
%TO.N,BUTTON3*%
X79850000Y-72550000D03*
%TD*%
D10*
%TO.P,J8,1,Pin_1*%
%TO.N,GND*%
X77350000Y-108825000D03*
D11*
%TO.P,J8,2,Pin_2*%
%TO.N,BUTTON8*%
X79850000Y-108825000D03*
%TD*%
D10*
%TO.P,J23,1,Pin_1*%
%TO.N,GND*%
X115575000Y-101550000D03*
D11*
%TO.P,J23,2,Pin_2*%
%TO.N,BUTTON23*%
X118075000Y-101550000D03*
%TD*%
D10*
%TO.P,J27,1,Pin_1*%
%TO.N,GND*%
X134025000Y-72550000D03*
D11*
%TO.P,J27,2,Pin_2*%
%TO.N,BUTTON27*%
X136525000Y-72550000D03*
%TD*%
D10*
%TO.P,J1,1,Pin_1*%
%TO.N,GND*%
X77350000Y-58050000D03*
D11*
%TO.P,J1,2,Pin_2*%
%TO.N,BUTTON1*%
X79850000Y-58050000D03*
%TD*%
D12*
%TO.P,H1,1*%
%TO.N,N/C*%
X71000000Y-44000000D03*
%TD*%
%TO.P,H3,1*%
%TO.N,N/C*%
X71000000Y-116000000D03*
%TD*%
D10*
%TO.P,J31,1,Pin_1*%
%TO.N,GND*%
X134025000Y-101550000D03*
D11*
%TO.P,J31,2,Pin_2*%
%TO.N,BUTTON31*%
X136525000Y-101550000D03*
%TD*%
D10*
%TO.P,J29,1,Pin_1*%
%TO.N,GND*%
X134025000Y-87100000D03*
D11*
%TO.P,J29,2,Pin_2*%
%TO.N,BUTTON29*%
X136525000Y-87100000D03*
%TD*%
D10*
%TO.P,J6,1,Pin_1*%
%TO.N,GND*%
X77350000Y-94300000D03*
D11*
%TO.P,J6,2,Pin_2*%
%TO.N,BUTTON6*%
X79850000Y-94300000D03*
%TD*%
D10*
%TO.P,J5,1,Pin_1*%
%TO.N,GND*%
X77350000Y-87100000D03*
D11*
%TO.P,J5,2,Pin_2*%
%TO.N,BUTTON5*%
X79850000Y-87100000D03*
%TD*%
D10*
%TO.P,J7,1,Pin_1*%
%TO.N,GND*%
X77350000Y-101550000D03*
D11*
%TO.P,J7,2,Pin_2*%
%TO.N,BUTTON7*%
X79850000Y-101550000D03*
%TD*%
D10*
%TO.P,J16,1,Pin_1*%
%TO.N,GND*%
X95700000Y-108825000D03*
D11*
%TO.P,J16,2,Pin_2*%
%TO.N,BUTTON16*%
X98200000Y-108825000D03*
%TD*%
D10*
%TO.P,J20,1,Pin_1*%
%TO.N,GND*%
X115575000Y-79900000D03*
D11*
%TO.P,J20,2,Pin_2*%
%TO.N,BUTTON20*%
X118075000Y-79900000D03*
%TD*%
D10*
%TO.P,J2,1,Pin_1*%
%TO.N,GND*%
X77350000Y-65450000D03*
D11*
%TO.P,J2,2,Pin_2*%
%TO.N,BUTTON2*%
X79850000Y-65450000D03*
%TD*%
D10*
%TO.P,J32,1,Pin_1*%
%TO.N,GND*%
X134025000Y-108825000D03*
D11*
%TO.P,J32,2,Pin_2*%
%TO.N,BUTTON32*%
X136525000Y-108825000D03*
%TD*%
D12*
%TO.P,H4,1*%
%TO.N,N/C*%
X143000000Y-116000000D03*
%TD*%
D10*
%TO.P,J12,1,Pin_1*%
%TO.N,GND*%
X95700000Y-79900000D03*
D11*
%TO.P,J12,2,Pin_2*%
%TO.N,BUTTON12*%
X98200000Y-79900000D03*
%TD*%
D12*
%TO.P,H2,1*%
%TO.N,N/C*%
X143000000Y-44000000D03*
%TD*%
D10*
%TO.P,J10,1,Pin_1*%
%TO.N,GND*%
X95700000Y-65450000D03*
D11*
%TO.P,J10,2,Pin_2*%
%TO.N,BUTTON10*%
X98200000Y-65450000D03*
%TD*%
D10*
%TO.P,J25,1,Pin_1*%
%TO.N,GND*%
X134025000Y-58050000D03*
D11*
%TO.P,J25,2,Pin_2*%
%TO.N,BUTTON25*%
X136525000Y-58050000D03*
%TD*%
D13*
%TO.P,J33,1,Pin_1*%
%TO.N,GND*%
X78900000Y-43880000D03*
D14*
%TO.P,J33,2,Pin_2*%
%TO.N,VDC*%
X81400000Y-43880000D03*
%TO.P,J33,3,Pin_3*%
%TO.N,LATCH*%
X83900000Y-43880000D03*
%TO.P,J33,4,Pin_4*%
%TO.N,CLK*%
X86400000Y-43880000D03*
%TO.P,J33,5,Pin_5*%
%TO.N,SDI*%
X88900000Y-43880000D03*
%TD*%
D10*
%TO.P,J18,1,Pin_1*%
%TO.N,GND*%
X115575000Y-65450000D03*
D11*
%TO.P,J18,2,Pin_2*%
%TO.N,BUTTON18*%
X118075000Y-65450000D03*
%TD*%
D10*
%TO.P,J9,1,Pin_1*%
%TO.N,GND*%
X95700000Y-58050000D03*
D11*
%TO.P,J9,2,Pin_2*%
%TO.N,BUTTON9*%
X98200000Y-58050000D03*
%TD*%
D10*
%TO.P,J13,1,Pin_1*%
%TO.N,GND*%
X95700000Y-87100000D03*
D11*
%TO.P,J13,2,Pin_2*%
%TO.N,BUTTON13*%
X98200000Y-87100000D03*
%TD*%
D10*
%TO.P,J11,1,Pin_1*%
%TO.N,GND*%
X95700000Y-72550000D03*
D11*
%TO.P,J11,2,Pin_2*%
%TO.N,BUTTON11*%
X98200000Y-72550000D03*
%TD*%
D10*
%TO.P,J30,1,Pin_1*%
%TO.N,GND*%
X134025000Y-94300000D03*
D11*
%TO.P,J30,2,Pin_2*%
%TO.N,BUTTON30*%
X136525000Y-94300000D03*
%TD*%
D10*
%TO.P,J14,1,Pin_1*%
%TO.N,GND*%
X95700000Y-94300000D03*
D11*
%TO.P,J14,2,Pin_2*%
%TO.N,BUTTON14*%
X98200000Y-94300000D03*
%TD*%
D10*
%TO.P,J4,1,Pin_1*%
%TO.N,GND*%
X77350000Y-79900000D03*
D11*
%TO.P,J4,2,Pin_2*%
%TO.N,BUTTON4*%
X79850000Y-79900000D03*
%TD*%
D10*
%TO.P,J21,1,Pin_1*%
%TO.N,GND*%
X115575000Y-87100000D03*
D11*
%TO.P,J21,2,Pin_2*%
%TO.N,BUTTON21*%
X118075000Y-87100000D03*
%TD*%
D10*
%TO.P,J26,1,Pin_1*%
%TO.N,GND*%
X134025000Y-65450000D03*
D11*
%TO.P,J26,2,Pin_2*%
%TO.N,BUTTON26*%
X136525000Y-65450000D03*
%TD*%
D10*
%TO.P,J15,1,Pin_1*%
%TO.N,GND*%
X95700000Y-101550000D03*
D11*
%TO.P,J15,2,Pin_2*%
%TO.N,BUTTON15*%
X98200000Y-101550000D03*
%TD*%
D10*
%TO.P,J22,1,Pin_1*%
%TO.N,GND*%
X115575000Y-94300000D03*
D11*
%TO.P,J22,2,Pin_2*%
%TO.N,BUTTON22*%
X118075000Y-94300000D03*
%TD*%
D10*
%TO.P,J19,1,Pin_1*%
%TO.N,GND*%
X115575000Y-72550000D03*
D11*
%TO.P,J19,2,Pin_2*%
%TO.N,BUTTON19*%
X118075000Y-72550000D03*
%TD*%
D10*
%TO.P,J17,1,Pin_1*%
%TO.N,GND*%
X115575000Y-58050000D03*
D11*
%TO.P,J17,2,Pin_2*%
%TO.N,BUTTON17*%
X118075000Y-58050000D03*
%TD*%
D10*
%TO.P,J28,1,Pin_1*%
%TO.N,GND*%
X134025000Y-79900000D03*
D11*
%TO.P,J28,2,Pin_2*%
%TO.N,BUTTON28*%
X136525000Y-79900000D03*
%TD*%
D10*
%TO.P,J24,1,Pin_1*%
%TO.N,GND*%
X115575000Y-108825000D03*
D11*
%TO.P,J24,2,Pin_2*%
%TO.N,BUTTON24*%
X118075000Y-108825000D03*
%TD*%
D15*
%TO.N,VDC*%
X101664600Y-68519000D03*
X108233000Y-85714800D03*
X89294800Y-69433400D03*
X89371000Y-83149400D03*
X89421800Y-85435400D03*
X89167800Y-97043200D03*
X98235600Y-83149400D03*
X103239400Y-98160800D03*
%TO.N,GND*%
X110834000Y-69433400D03*
X68625000Y-87025000D03*
X68475000Y-65450000D03*
X145525000Y-94800000D03*
X145300000Y-80375000D03*
X68550000Y-72825000D03*
X140650000Y-98550000D03*
X117550000Y-116550000D03*
X121625000Y-98425000D03*
X121800000Y-69250000D03*
X111240400Y-71897200D03*
X68600000Y-94175000D03*
X128600000Y-73550000D03*
X128225000Y-66225000D03*
X145525000Y-65725000D03*
X128300000Y-80075000D03*
X85875000Y-70900000D03*
X118150000Y-69825000D03*
X121825000Y-62550000D03*
X145800000Y-58675000D03*
X128375000Y-101425000D03*
X145650000Y-101775000D03*
X85200000Y-56410000D03*
X140350000Y-59475000D03*
X85750000Y-109325000D03*
X85450000Y-95150000D03*
X101842400Y-66360000D03*
X92469800Y-76291400D03*
X140625000Y-84225000D03*
X135425000Y-116150000D03*
X102045600Y-72557600D03*
X85425000Y-80325000D03*
X98790000Y-46060000D03*
X140625000Y-76550000D03*
X109741800Y-85943400D03*
X100648600Y-79542600D03*
X115025000Y-82209600D03*
X116800000Y-46110000D03*
X128450000Y-94375000D03*
X102071000Y-64192200D03*
X121800000Y-90200000D03*
X101969400Y-83505000D03*
X68325000Y-58000000D03*
X140625000Y-91275000D03*
X140675000Y-69450000D03*
X118300000Y-76450000D03*
X90650000Y-49540000D03*
X103700000Y-45680000D03*
X140700000Y-105875000D03*
X85350000Y-87700000D03*
X128100000Y-58475000D03*
X70600000Y-49960000D03*
X68625000Y-101450000D03*
X109665600Y-97805200D03*
X145525000Y-87550000D03*
X137600000Y-46025000D03*
X104382400Y-97602000D03*
X135446600Y-99100600D03*
X121800000Y-77150000D03*
X145725000Y-72475000D03*
X101994800Y-70881200D03*
X128130000Y-46060000D03*
X121750000Y-83850000D03*
X128450000Y-87700000D03*
X112190000Y-54510000D03*
X68850000Y-110850000D03*
X102274200Y-79568000D03*
X118950000Y-61450000D03*
X68475000Y-80025000D03*
X97475000Y-116825000D03*
X106592200Y-97881400D03*
X85775000Y-102725000D03*
X78850000Y-116500000D03*
X84550000Y-64050000D03*
%TO.N,BUTTON1*%
X102248800Y-59197200D03*
%TO.N,BUTTON2*%
X102198000Y-60365600D03*
%TO.N,BUTTON3*%
X102147200Y-61635600D03*
%TO.N,BUTTON4*%
X102198000Y-62829400D03*
%TO.N,BUTTON5*%
X113983600Y-83530400D03*
%TO.N,BUTTON6*%
X115736200Y-91734600D03*
%TO.N,BUTTON7*%
X118530200Y-99100600D03*
%TO.N,BUTTON8*%
X119925000Y-99525000D03*
%TO.N,BUTTON13*%
X111183600Y-86248200D03*
X93104800Y-87543600D03*
%TO.N,BUTTON14*%
X111783600Y-95112800D03*
X93054000Y-95417600D03*
%TO.N,BUTTON15*%
X112383600Y-102076000D03*
X93104800Y-103037600D03*
%TO.N,BUTTON16*%
X112891200Y-108825000D03*
%TO.N,BUTTON17*%
X111183600Y-92953800D03*
X120725000Y-92979200D03*
%TO.N,BUTTON18*%
X118047600Y-67452200D03*
X121730600Y-66106000D03*
X108090800Y-68011000D03*
%TO.N,BUTTON19*%
X94501800Y-77993200D03*
X94146200Y-90515400D03*
X110884800Y-91277400D03*
X121654400Y-72583000D03*
%TO.N,BUTTON20*%
X121933800Y-80025200D03*
X111164200Y-89982000D03*
X116853800Y-89626400D03*
%TO.N,BUTTON21*%
X121806800Y-86959400D03*
X102172600Y-89982000D03*
%TO.N,BUTTON22*%
X121375000Y-94325400D03*
X100620200Y-98300600D03*
%TO.N,BUTTON23*%
X101220200Y-99900600D03*
%TO.N,BUTTON24*%
X101232800Y-102643800D03*
X120858700Y-103625000D03*
%TO.N,BUTTON25*%
X111862700Y-110425000D03*
X139688400Y-107930200D03*
%TO.N,BUTTON26*%
X138888400Y-107330200D03*
X111291200Y-107990600D03*
X140755200Y-65496400D03*
%TO.N,BUTTON27*%
X138088400Y-106625000D03*
X140729800Y-72684600D03*
X111240400Y-106822200D03*
%TO.N,BUTTON28*%
X140602800Y-80279200D03*
X111189600Y-105476000D03*
X137384274Y-105914921D03*
%TO.N,BUTTON29*%
X140602800Y-87340400D03*
X106262000Y-105425200D03*
X131852600Y-103333786D03*
%TO.N,BUTTON30*%
X140552000Y-94477800D03*
X132483874Y-104282200D03*
X105779400Y-106695200D03*
%TO.N,BUTTON31*%
X140602800Y-101742200D03*
X106211200Y-108025000D03*
%TO.N,BUTTON32*%
X106541400Y-109625000D03*
%TO.N,LATCH*%
X107544600Y-81625400D03*
X99810400Y-83949600D03*
X93460000Y-54570000D03*
%TO.N,CLK*%
X110453000Y-82463600D03*
X93040000Y-53600000D03*
X96950000Y-90477400D03*
X100724800Y-90477400D03*
X98743600Y-84470200D03*
%TO.N,SDI*%
X91820000Y-53290000D03*
%TD*%
D16*
%TO.N,VDC*%
X98664607Y-85664000D02*
X108182200Y-85664000D01*
X90742600Y-84114600D02*
X97115207Y-84114600D01*
X102147200Y-97068600D02*
X103239400Y-98160800D01*
X108182200Y-85664000D02*
X108233000Y-85714800D01*
X89294800Y-69433400D02*
X89117000Y-69433400D01*
X89371000Y-83149400D02*
X98235600Y-83149400D01*
X97115207Y-84114600D02*
X98664607Y-85664000D01*
X89167800Y-97043200D02*
X89193200Y-97068600D01*
X89421800Y-85435400D02*
X90742600Y-84114600D01*
X89294800Y-69433400D02*
X100750200Y-69433400D01*
X89193200Y-97068600D02*
X102147200Y-97068600D01*
X100750200Y-69433400D02*
X101664600Y-68519000D01*
D17*
%TO.N,BUTTON1*%
X102223400Y-59197200D02*
X102248800Y-59197200D01*
X100696000Y-60724600D02*
X102223400Y-59197200D01*
X82524600Y-60724600D02*
X100696000Y-60724600D01*
X79850000Y-58050000D02*
X82524600Y-60724600D01*
%TO.N,BUTTON2*%
X82079344Y-61324600D02*
X101239000Y-61324600D01*
X101239000Y-61324600D02*
X102198000Y-60365600D01*
X79850000Y-63553944D02*
X82079344Y-61324600D01*
X79850000Y-65450000D02*
X79850000Y-63553944D01*
%TO.N,BUTTON3*%
X90475400Y-61924600D02*
X79850000Y-72550000D01*
X101858200Y-61924600D02*
X90475400Y-61924600D01*
X102147200Y-61635600D02*
X101858200Y-61924600D01*
%TO.N,BUTTON4*%
X81700200Y-71770200D02*
X81700200Y-78049800D01*
X81700200Y-78049800D02*
X79850000Y-79900000D01*
X90945800Y-62524600D02*
X81700200Y-71770200D01*
X101893200Y-62524600D02*
X90945800Y-62524600D01*
X102198000Y-62829400D02*
X101893200Y-62524600D01*
%TO.N,BUTTON5*%
X110151200Y-88582000D02*
X102441229Y-88582000D01*
X113983600Y-83530400D02*
X113983600Y-84749600D01*
X113983600Y-84749600D02*
X110151200Y-88582000D01*
X101422229Y-89601000D02*
X82351000Y-89601000D01*
X102441229Y-88582000D02*
X101422229Y-89601000D01*
X82351000Y-89601000D02*
X79850000Y-87100000D01*
%TO.N,BUTTON6*%
X96536072Y-92077400D02*
X115393400Y-92077400D01*
X82694800Y-91455200D02*
X95913872Y-91455200D01*
X79850000Y-94300000D02*
X82694800Y-91455200D01*
X95913872Y-91455200D02*
X96536072Y-92077400D01*
X115393400Y-92077400D02*
X115736200Y-91734600D01*
%TO.N,BUTTON7*%
X118530200Y-99100600D02*
X118080800Y-99550000D01*
X101551571Y-99100600D02*
X82299400Y-99100600D01*
X118080800Y-99550000D02*
X114450306Y-99550000D01*
X113991506Y-100008800D02*
X102459771Y-100008800D01*
X102459771Y-100008800D02*
X101551571Y-99100600D01*
X82299400Y-99100600D02*
X79850000Y-101550000D01*
X114450306Y-99550000D02*
X113991506Y-100008800D01*
%TO.N,BUTTON8*%
X114973834Y-103225000D02*
X112957634Y-101208800D01*
X79850000Y-105446600D02*
X79850000Y-108825000D01*
X118317767Y-103225000D02*
X114973834Y-103225000D01*
X98556200Y-99700600D02*
X85596000Y-99700600D01*
X100064400Y-101208800D02*
X98556200Y-99700600D01*
X85596000Y-99700600D02*
X79850000Y-105446600D01*
X112957634Y-101208800D02*
X100064400Y-101208800D01*
X119925000Y-99525000D02*
X119925000Y-101617767D01*
X119925000Y-101617767D02*
X118317767Y-103225000D01*
%TO.N,BUTTON13*%
X110650200Y-86781600D02*
X98518400Y-86781600D01*
X93104800Y-87543600D02*
X93104800Y-86349800D01*
X93104800Y-86349800D02*
X93907400Y-85547200D01*
X98200000Y-86517400D02*
X98200000Y-87100000D01*
X93907400Y-85547200D02*
X97229800Y-85547200D01*
X98518400Y-86781600D02*
X98200000Y-87100000D01*
X97229800Y-85547200D02*
X98200000Y-86517400D01*
X111183600Y-86248200D02*
X110650200Y-86781600D01*
%TO.N,BUTTON14*%
X98987400Y-95087400D02*
X98200000Y-94300000D01*
X97670600Y-96368600D02*
X98200000Y-95839200D01*
X111758200Y-95087400D02*
X98987400Y-95087400D01*
X93054000Y-95417600D02*
X94005000Y-96368600D01*
X94005000Y-96368600D02*
X97670600Y-96368600D01*
X111783600Y-95112800D02*
X111758200Y-95087400D01*
X98200000Y-95839200D02*
X98200000Y-94300000D01*
%TO.N,BUTTON15*%
X112383600Y-102076000D02*
X112151400Y-101843800D01*
X97499000Y-104333000D02*
X98200000Y-103632000D01*
X112151400Y-101843800D02*
X98493800Y-101843800D01*
X98493800Y-101843800D02*
X98200000Y-101550000D01*
X93104800Y-103037600D02*
X94400200Y-104333000D01*
X98200000Y-103632000D02*
X98200000Y-101550000D01*
X94400200Y-104333000D02*
X97499000Y-104333000D01*
%TO.N,BUTTON16*%
X112891200Y-108825000D02*
X98200000Y-108825000D01*
%TO.N,BUTTON17*%
X114110600Y-92953800D02*
X114164400Y-92900000D01*
X114164400Y-92900000D02*
X120645800Y-92900000D01*
X120645800Y-92900000D02*
X120725000Y-92979200D01*
X111183600Y-92953800D02*
X114110600Y-92953800D01*
%TO.N,BUTTON18*%
X108192400Y-67909400D02*
X117590400Y-67909400D01*
X120384400Y-67452200D02*
X118047600Y-67452200D01*
X121730600Y-66106000D02*
X120384400Y-67452200D01*
X108090800Y-68011000D02*
X108192400Y-67909400D01*
X117590400Y-67909400D02*
X118047600Y-67452200D01*
%TO.N,BUTTON19*%
X95822600Y-90515400D02*
X96584600Y-91277400D01*
X121654400Y-72583000D02*
X118108000Y-72583000D01*
X118108000Y-72583000D02*
X118075000Y-72550000D01*
X94501800Y-77993200D02*
X96533800Y-75961200D01*
X96584600Y-91277400D02*
X110884800Y-91277400D01*
X96533800Y-75961200D02*
X114663800Y-75961200D01*
X94146200Y-90515400D02*
X95822600Y-90515400D01*
X114663800Y-75961200D02*
X118075000Y-72550000D01*
%TO.N,BUTTON20*%
X121933800Y-80025200D02*
X118200200Y-80025200D01*
X111189600Y-90007400D02*
X111164200Y-89982000D01*
X116853800Y-89626400D02*
X116472800Y-90007400D01*
X116472800Y-90007400D02*
X111189600Y-90007400D01*
X118200200Y-80025200D02*
X118075000Y-79900000D01*
%TO.N,BUTTON21*%
X102998000Y-89182000D02*
X111495571Y-89182000D01*
X102198000Y-89982000D02*
X102998000Y-89182000D01*
X111495571Y-89182000D02*
X111660571Y-89347000D01*
X118215600Y-86959400D02*
X118075000Y-87100000D01*
X115828000Y-89347000D02*
X118075000Y-87100000D01*
X111660571Y-89347000D02*
X115828000Y-89347000D01*
X102172600Y-89982000D02*
X102198000Y-89982000D01*
X121806800Y-86959400D02*
X118215600Y-86959400D01*
%TO.N,BUTTON22*%
X101800099Y-98500600D02*
X102708299Y-99408800D01*
X116090000Y-98950000D02*
X118075000Y-96965000D01*
X100620200Y-98300600D02*
X100820200Y-98500600D01*
X121375000Y-94325400D02*
X118100400Y-94325400D01*
X118100400Y-94325400D02*
X118075000Y-94300000D01*
X118075000Y-96965000D02*
X118075000Y-94300000D01*
X114201778Y-98950000D02*
X116090000Y-98950000D01*
X102708299Y-99408800D02*
X113742978Y-99408800D01*
X113742978Y-99408800D02*
X114201778Y-98950000D01*
X100820200Y-98500600D02*
X101800099Y-98500600D01*
%TO.N,BUTTON23*%
X114698834Y-100150000D02*
X116675000Y-100150000D01*
X101220200Y-99900600D02*
X101928400Y-100608800D01*
X116675000Y-100150000D02*
X118075000Y-101550000D01*
X114240034Y-100608800D02*
X114698834Y-100150000D01*
X101928400Y-100608800D02*
X114240034Y-100608800D01*
%TO.N,BUTTON24*%
X120658700Y-103825000D02*
X113343856Y-103825000D01*
X120858700Y-103625000D02*
X120658700Y-103825000D01*
X101490000Y-102901000D02*
X101232800Y-102643800D01*
X112394856Y-102876000D02*
X102500400Y-102876000D01*
X102475400Y-102901000D02*
X101490000Y-102901000D01*
X102500400Y-102876000D02*
X102475400Y-102901000D01*
X113343856Y-103825000D02*
X112394856Y-102876000D01*
%TO.N,BUTTON25*%
X139688400Y-107930200D02*
X135640200Y-111978400D01*
X113416100Y-111978400D02*
X111862700Y-110425000D01*
X135640200Y-111978400D02*
X113416100Y-111978400D01*
%TO.N,BUTTON26*%
X140708800Y-65450000D02*
X136525000Y-65450000D01*
X111291200Y-107990600D02*
X111856800Y-107425000D01*
X140755200Y-65496400D02*
X140708800Y-65450000D01*
X111856800Y-107425000D02*
X138793600Y-107425000D01*
X138793600Y-107425000D02*
X138888400Y-107330200D01*
%TO.N,BUTTON27*%
X111240400Y-106822200D02*
X111243200Y-106825000D01*
X137888400Y-106825000D02*
X138088400Y-106625000D01*
X140729800Y-72684600D02*
X140595200Y-72550000D01*
X111243200Y-106825000D02*
X137888400Y-106825000D01*
X140595200Y-72550000D02*
X136525000Y-72550000D01*
%TO.N,BUTTON28*%
X111938600Y-106225000D02*
X111189600Y-105476000D01*
X137074195Y-106225000D02*
X111938600Y-106225000D01*
X140223600Y-79900000D02*
X136525000Y-79900000D01*
X140602800Y-80279200D02*
X140223600Y-79900000D01*
X137384274Y-105914921D02*
X137074195Y-106225000D01*
%TO.N,BUTTON29*%
X140120200Y-87340400D02*
X139879800Y-87100000D01*
X131852600Y-103333786D02*
X130761386Y-104425000D01*
X108211200Y-103476000D02*
X106262000Y-105425200D01*
X130761386Y-104425000D02*
X113095328Y-104425000D01*
X139879800Y-87100000D02*
X136525000Y-87100000D01*
X112146328Y-103476000D02*
X108211200Y-103476000D01*
X140602800Y-87340400D02*
X140120200Y-87340400D01*
X113095328Y-104425000D02*
X112146328Y-103476000D01*
%TO.N,BUTTON30*%
X140552000Y-94477800D02*
X140374200Y-94300000D01*
X140374200Y-94300000D02*
X136525000Y-94300000D01*
X106236600Y-106695200D02*
X105779400Y-106695200D01*
X112846800Y-105025000D02*
X111897800Y-104076000D01*
X131741074Y-105025000D02*
X112846800Y-105025000D01*
X132483874Y-104282200D02*
X131741074Y-105025000D01*
X111897800Y-104076000D02*
X108855800Y-104076000D01*
X108855800Y-104076000D02*
X106236600Y-106695200D01*
%TO.N,BUTTON31*%
X112557800Y-105625000D02*
X132450000Y-105625000D01*
X132450000Y-105625000D02*
X136525000Y-101550000D01*
X106211200Y-108025000D02*
X109560200Y-104676000D01*
X140602800Y-101742200D02*
X140410600Y-101550000D01*
X111608800Y-104676000D02*
X112557800Y-105625000D01*
X140410600Y-101550000D02*
X136525000Y-101550000D01*
X109560200Y-104676000D02*
X111608800Y-104676000D01*
%TO.N,BUTTON32*%
X106541400Y-109625000D02*
X112392200Y-109625000D01*
X134818600Y-111378400D02*
X136525000Y-109672000D01*
X114145600Y-111378400D02*
X134818600Y-111378400D01*
X112392200Y-109625000D02*
X114145600Y-111378400D01*
X136525000Y-109672000D02*
X136525000Y-108825000D01*
%TO.N,LATCH*%
X93039000Y-54991000D02*
X91418214Y-54991000D01*
X91418214Y-54991000D02*
X83900000Y-47472786D01*
X102134600Y-81625400D02*
X99810400Y-83949600D01*
X83900000Y-47472786D02*
X83900000Y-43880000D01*
X107544600Y-81625400D02*
X102134600Y-81625400D01*
X93460000Y-54570000D02*
X93039000Y-54991000D01*
%TO.N,CLK*%
X108167000Y-84749600D02*
X110453000Y-82463600D01*
X100724800Y-90477400D02*
X96950000Y-90477400D01*
X99023000Y-84749600D02*
X108167000Y-84749600D01*
X86400000Y-49002786D02*
X86400000Y-43880000D01*
X92549000Y-54091000D02*
X91488214Y-54091000D01*
X98743600Y-84470200D02*
X99023000Y-84749600D01*
X91488214Y-54091000D02*
X86400000Y-49002786D01*
X93040000Y-53600000D02*
X92549000Y-54091000D01*
%TO.N,SDI*%
X91820000Y-53290000D02*
X91820000Y-53250000D01*
X88900000Y-50330000D02*
X88900000Y-43880000D01*
X91820000Y-53250000D02*
X88900000Y-50330000D01*
%TD*%
%TA.AperFunction,Conductor*%
%TO.N,GND*%
G36*
X114168039Y-108153185D02*
G01*
X114213794Y-108205989D01*
X114225000Y-108257500D01*
X114225000Y-108575000D01*
X115141988Y-108575000D01*
X115109075Y-108632007D01*
X115075000Y-108759174D01*
X115075000Y-108890826D01*
X115109075Y-109017993D01*
X115141988Y-109075000D01*
X114225001Y-109075000D01*
X114225001Y-109624986D01*
X114235494Y-109727697D01*
X114290641Y-109894119D01*
X114290643Y-109894124D01*
X114382684Y-110043345D01*
X114506654Y-110167315D01*
X114655875Y-110259356D01*
X114655880Y-110259358D01*
X114822302Y-110314505D01*
X114822309Y-110314506D01*
X114925019Y-110324999D01*
X115324999Y-110324999D01*
X115325000Y-110324998D01*
X115325000Y-109258012D01*
X115382007Y-109290925D01*
X115509174Y-109325000D01*
X115640826Y-109325000D01*
X115767993Y-109290925D01*
X115825000Y-109258012D01*
X115825000Y-110324999D01*
X116224972Y-110324999D01*
X116224986Y-110324998D01*
X116327697Y-110314505D01*
X116494119Y-110259358D01*
X116494124Y-110259356D01*
X116643345Y-110167315D01*
X116767315Y-110043345D01*
X116858499Y-109895513D01*
X116910447Y-109848789D01*
X116979410Y-109837566D01*
X117043492Y-109865410D01*
X117051719Y-109872929D01*
X117189996Y-110011206D01*
X117362991Y-110136894D01*
X117456438Y-110184507D01*
X117553516Y-110233972D01*
X117553519Y-110233973D01*
X117631642Y-110259356D01*
X117756884Y-110300049D01*
X117968084Y-110333500D01*
X117968085Y-110333500D01*
X118181915Y-110333500D01*
X118181916Y-110333500D01*
X118393116Y-110300049D01*
X118596483Y-110233972D01*
X118787009Y-110136894D01*
X118960004Y-110011206D01*
X119111206Y-109860004D01*
X119236894Y-109687009D01*
X119333972Y-109496483D01*
X119400049Y-109293116D01*
X119433500Y-109081916D01*
X119433500Y-108568084D01*
X119400049Y-108356884D01*
X119380208Y-108295818D01*
X119378213Y-108225977D01*
X119414294Y-108166144D01*
X119476995Y-108135316D01*
X119498139Y-108133500D01*
X132551000Y-108133500D01*
X132618039Y-108153185D01*
X132663794Y-108205989D01*
X132675000Y-108257500D01*
X132675000Y-108575000D01*
X133591988Y-108575000D01*
X133559075Y-108632007D01*
X133525000Y-108759174D01*
X133525000Y-108890826D01*
X133559075Y-109017993D01*
X133591988Y-109075000D01*
X132675001Y-109075000D01*
X132675001Y-109624986D01*
X132685494Y-109727697D01*
X132740641Y-109894119D01*
X132740643Y-109894124D01*
X132832684Y-110043345D01*
X132956654Y-110167315D01*
X133105875Y-110259356D01*
X133105880Y-110259358D01*
X133272302Y-110314505D01*
X133272309Y-110314506D01*
X133375019Y-110324999D01*
X133774999Y-110324999D01*
X133775000Y-110324998D01*
X133775000Y-109258012D01*
X133832007Y-109290925D01*
X133959174Y-109325000D01*
X134090826Y-109325000D01*
X134217993Y-109290925D01*
X134275000Y-109258012D01*
X134275000Y-110324999D01*
X134570668Y-110324999D01*
X134591913Y-110331237D01*
X134614002Y-110332817D01*
X134624785Y-110340889D01*
X134637707Y-110344684D01*
X134652206Y-110361417D01*
X134669935Y-110374689D01*
X134674642Y-110387309D01*
X134683462Y-110397488D01*
X134686613Y-110419405D01*
X134694352Y-110440153D01*
X134691489Y-110453313D01*
X134693406Y-110466646D01*
X134684206Y-110486789D01*
X134679500Y-110508426D01*
X134666231Y-110526151D01*
X134664381Y-110530202D01*
X134658349Y-110536680D01*
X134561448Y-110633581D01*
X134500125Y-110667066D01*
X134473767Y-110669900D01*
X114490433Y-110669900D01*
X114423394Y-110650215D01*
X114402752Y-110633581D01*
X113472773Y-109703602D01*
X113439288Y-109642279D01*
X113444272Y-109572587D01*
X113472771Y-109528241D01*
X113596878Y-109404135D01*
X113696302Y-109255336D01*
X113764787Y-109090000D01*
X113799700Y-108914479D01*
X113799700Y-108735521D01*
X113764787Y-108560000D01*
X113696302Y-108394664D01*
X113696300Y-108394661D01*
X113696298Y-108394657D01*
X113650684Y-108326391D01*
X113629806Y-108259713D01*
X113648291Y-108192333D01*
X113700269Y-108145643D01*
X113753786Y-108133500D01*
X114101000Y-108133500D01*
X114168039Y-108153185D01*
G37*
%TD.AperFunction*%
%TA.AperFunction,Conductor*%
G36*
X110159785Y-92788450D02*
G01*
X110168747Y-92787162D01*
X110192787Y-92798140D01*
X110218139Y-92805585D01*
X110224066Y-92812425D01*
X110232303Y-92816187D01*
X110246592Y-92838421D01*
X110263894Y-92858389D01*
X110266181Y-92868903D01*
X110270077Y-92874965D01*
X110275100Y-92909900D01*
X110275100Y-93043283D01*
X110310011Y-93218792D01*
X110310013Y-93218800D01*
X110378496Y-93384132D01*
X110378501Y-93384142D01*
X110477921Y-93532934D01*
X110477924Y-93532938D01*
X110604461Y-93659475D01*
X110604465Y-93659478D01*
X110753257Y-93758898D01*
X110753261Y-93758900D01*
X110753264Y-93758902D01*
X110918600Y-93827387D01*
X111094116Y-93862299D01*
X111094120Y-93862300D01*
X111094121Y-93862300D01*
X111273080Y-93862300D01*
X111273081Y-93862299D01*
X111448600Y-93827387D01*
X111613936Y-93758902D01*
X111727236Y-93683197D01*
X111793913Y-93662320D01*
X111796126Y-93662300D01*
X114101000Y-93662300D01*
X114168039Y-93681985D01*
X114213794Y-93734789D01*
X114225000Y-93786300D01*
X114225000Y-94050000D01*
X115141988Y-94050000D01*
X115109075Y-94107007D01*
X115075000Y-94234174D01*
X115075000Y-94365826D01*
X115109075Y-94492993D01*
X115141988Y-94550000D01*
X114225001Y-94550000D01*
X114225001Y-95099986D01*
X114235494Y-95202697D01*
X114290641Y-95369119D01*
X114290643Y-95369124D01*
X114382684Y-95518345D01*
X114506654Y-95642315D01*
X114655875Y-95734356D01*
X114655880Y-95734358D01*
X114822302Y-95789505D01*
X114822309Y-95789506D01*
X114925019Y-95799999D01*
X115324999Y-95799999D01*
X115325000Y-95799998D01*
X115325000Y-94733012D01*
X115382007Y-94765925D01*
X115509174Y-94800000D01*
X115640826Y-94800000D01*
X115767993Y-94765925D01*
X115825000Y-94733012D01*
X115825000Y-95799999D01*
X116224972Y-95799999D01*
X116224986Y-95799998D01*
X116327697Y-95789505D01*
X116494119Y-95734358D01*
X116494124Y-95734356D01*
X116643345Y-95642315D01*
X116767315Y-95518345D01*
X116858499Y-95370513D01*
X116910447Y-95323789D01*
X116979410Y-95312566D01*
X117043492Y-95340410D01*
X117051719Y-95347929D01*
X117189996Y-95486206D01*
X117315386Y-95577307D01*
X117358051Y-95632637D01*
X117366500Y-95677625D01*
X117366500Y-96620167D01*
X117346815Y-96687206D01*
X117330181Y-96707848D01*
X115832848Y-98205181D01*
X115771525Y-98238666D01*
X115745167Y-98241500D01*
X114131995Y-98241500D01*
X114117284Y-98244426D01*
X114087861Y-98250279D01*
X113995120Y-98268725D01*
X113995114Y-98268727D01*
X113957351Y-98284368D01*
X113957350Y-98284369D01*
X113873380Y-98319151D01*
X113866172Y-98322137D01*
X113750139Y-98399668D01*
X113750131Y-98399674D01*
X113485826Y-98663981D01*
X113424503Y-98697466D01*
X113398145Y-98700300D01*
X104184864Y-98700300D01*
X104117825Y-98680615D01*
X104072070Y-98627811D01*
X104062126Y-98558653D01*
X104070303Y-98528847D01*
X104073361Y-98521465D01*
X104112987Y-98425800D01*
X104147900Y-98250279D01*
X104147900Y-98071321D01*
X104112987Y-97895800D01*
X104044502Y-97730464D01*
X104044500Y-97730461D01*
X104044498Y-97730457D01*
X103945078Y-97581665D01*
X103945075Y-97581661D01*
X103818538Y-97455124D01*
X103818534Y-97455121D01*
X103669742Y-97355701D01*
X103669732Y-97355696D01*
X103535388Y-97300048D01*
X103495160Y-97273168D01*
X102662592Y-96440599D01*
X102662588Y-96440596D01*
X102530174Y-96352119D01*
X102530170Y-96352117D01*
X102530168Y-96352116D01*
X102456599Y-96321643D01*
X102456597Y-96321642D01*
X102456596Y-96321641D01*
X102383031Y-96291170D01*
X102383023Y-96291168D01*
X102226834Y-96260100D01*
X102226830Y-96260100D01*
X98978112Y-96260100D01*
X98911073Y-96240415D01*
X98865318Y-96187611D01*
X98855374Y-96118453D01*
X98857796Y-96106097D01*
X98860024Y-96097158D01*
X98881273Y-96045861D01*
X98883832Y-96032999D01*
X98908500Y-95908981D01*
X98908500Y-95902765D01*
X98911709Y-95889897D01*
X98924967Y-95867268D01*
X98934786Y-95842955D01*
X98942347Y-95837604D01*
X98947030Y-95829613D01*
X98970412Y-95817746D01*
X98991822Y-95802598D01*
X99004388Y-95800504D01*
X99009335Y-95797994D01*
X99015614Y-95798634D01*
X99032025Y-95795900D01*
X111133059Y-95795900D01*
X111200098Y-95815585D01*
X111201950Y-95816798D01*
X111353257Y-95917898D01*
X111353261Y-95917900D01*
X111353264Y-95917902D01*
X111518600Y-95986387D01*
X111694116Y-96021299D01*
X111694120Y-96021300D01*
X111694121Y-96021300D01*
X111873080Y-96021300D01*
X111873081Y-96021299D01*
X112048600Y-95986387D01*
X112213936Y-95917902D01*
X112362735Y-95818478D01*
X112489278Y-95691935D01*
X112588702Y-95543136D01*
X112657187Y-95377800D01*
X112692100Y-95202279D01*
X112692100Y-95023321D01*
X112657187Y-94847800D01*
X112588702Y-94682464D01*
X112588699Y-94682459D01*
X112588695Y-94682452D01*
X112511909Y-94567533D01*
X112511906Y-94567530D01*
X112489275Y-94533661D01*
X112362738Y-94407124D01*
X112362734Y-94407121D01*
X112213942Y-94307701D01*
X112213932Y-94307696D01*
X112048600Y-94239213D01*
X112048592Y-94239211D01*
X111873083Y-94204300D01*
X111873079Y-94204300D01*
X111694121Y-94204300D01*
X111694116Y-94204300D01*
X111518607Y-94239211D01*
X111518599Y-94239213D01*
X111353264Y-94307697D01*
X111302757Y-94341445D01*
X111277977Y-94358002D01*
X111211301Y-94378880D01*
X111209088Y-94378900D01*
X99682500Y-94378900D01*
X99615461Y-94359215D01*
X99569706Y-94306411D01*
X99558500Y-94254900D01*
X99558500Y-94043084D01*
X99544880Y-93957090D01*
X99525049Y-93831884D01*
X99473327Y-93672698D01*
X99458973Y-93628519D01*
X99458972Y-93628516D01*
X99393496Y-93500013D01*
X99361894Y-93437991D01*
X99236206Y-93264996D01*
X99085004Y-93113794D01*
X99022910Y-93068680D01*
X98942444Y-93010218D01*
X98899778Y-92954888D01*
X98893799Y-92885275D01*
X98926405Y-92823480D01*
X98987243Y-92789123D01*
X99015329Y-92785900D01*
X110151100Y-92785900D01*
X110159785Y-92788450D01*
G37*
%TD.AperFunction*%
%TA.AperFunction,Conductor*%
G36*
X143303032Y-39925648D02*
G01*
X143624069Y-39941420D01*
X143630883Y-39941945D01*
X143705508Y-39949788D01*
X143710686Y-39950444D01*
X143990600Y-39991966D01*
X143998127Y-39993322D01*
X144065954Y-40007739D01*
X144070122Y-40008704D01*
X144351116Y-40079090D01*
X144359271Y-40081433D01*
X144414479Y-40099371D01*
X144417876Y-40100531D01*
X144701743Y-40202101D01*
X144710388Y-40205566D01*
X144744750Y-40220865D01*
X144747221Y-40221998D01*
X145038431Y-40359730D01*
X145049157Y-40365464D01*
X145350102Y-40545843D01*
X145360220Y-40552603D01*
X145642049Y-40761622D01*
X145651455Y-40769342D01*
X145911436Y-41004974D01*
X145920025Y-41013563D01*
X146031810Y-41136899D01*
X146155657Y-41273544D01*
X146163377Y-41282950D01*
X146372396Y-41564779D01*
X146379156Y-41574897D01*
X146559534Y-41875841D01*
X146565271Y-41886573D01*
X146702974Y-42177722D01*
X146704159Y-42180305D01*
X146719429Y-42214603D01*
X146722900Y-42223262D01*
X146824457Y-42507093D01*
X146825637Y-42510550D01*
X146843560Y-42565711D01*
X146845913Y-42573899D01*
X146916277Y-42854806D01*
X146917277Y-42859126D01*
X146922898Y-42885571D01*
X146931668Y-42926831D01*
X146933035Y-42934416D01*
X146974550Y-43214287D01*
X146975213Y-43219520D01*
X146983050Y-43294081D01*
X146983580Y-43300958D01*
X146999351Y-43621967D01*
X146999500Y-43628052D01*
X146999500Y-116321947D01*
X146999351Y-116328032D01*
X146984003Y-116640430D01*
X146983473Y-116647306D01*
X146983473Y-116647307D01*
X146975923Y-116719139D01*
X146975260Y-116724371D01*
X146934819Y-116997010D01*
X146933451Y-117004598D01*
X146919604Y-117069741D01*
X146918598Y-117074089D01*
X146850046Y-117347763D01*
X146847693Y-117355952D01*
X146830500Y-117408866D01*
X146829320Y-117412322D01*
X146730364Y-117688884D01*
X146726893Y-117697544D01*
X146712397Y-117730103D01*
X146711212Y-117732685D01*
X146577076Y-118016293D01*
X146571339Y-118027025D01*
X146396009Y-118319545D01*
X146389249Y-118329663D01*
X146186076Y-118603610D01*
X146178356Y-118613016D01*
X145949322Y-118865717D01*
X145940717Y-118874322D01*
X145688016Y-119103356D01*
X145678610Y-119111076D01*
X145404663Y-119314249D01*
X145394545Y-119321009D01*
X145102025Y-119496339D01*
X145091293Y-119502076D01*
X144807685Y-119636212D01*
X144805103Y-119637397D01*
X144772544Y-119651893D01*
X144763884Y-119655364D01*
X144487322Y-119754320D01*
X144483866Y-119755500D01*
X144430952Y-119772693D01*
X144422763Y-119775046D01*
X144149089Y-119843598D01*
X144144741Y-119844604D01*
X144079598Y-119858451D01*
X144072010Y-119859819D01*
X143799371Y-119900260D01*
X143794139Y-119900923D01*
X143722307Y-119908473D01*
X143715429Y-119909003D01*
X143590803Y-119915125D01*
X143522878Y-119898753D01*
X143474588Y-119848258D01*
X143461263Y-119779670D01*
X143487135Y-119714767D01*
X143543989Y-119674154D01*
X143560518Y-119669659D01*
X143728671Y-119636212D01*
X143902158Y-119601704D01*
X143902169Y-119601701D01*
X143902169Y-119601700D01*
X143902179Y-119601699D01*
X144250863Y-119495927D01*
X144587500Y-119356487D01*
X144908849Y-119184722D01*
X145211815Y-118982287D01*
X145493480Y-118751131D01*
X145751131Y-118493480D01*
X145982287Y-118211815D01*
X146184722Y-117908849D01*
X146356487Y-117587500D01*
X146495927Y-117250863D01*
X146601699Y-116902179D01*
X146601701Y-116902169D01*
X146601704Y-116902158D01*
X146653764Y-116640430D01*
X146672785Y-116544806D01*
X146708500Y-116182187D01*
X146708500Y-115817813D01*
X146672785Y-115455194D01*
X146646276Y-115321927D01*
X146601704Y-115097841D01*
X146601701Y-115097830D01*
X146601700Y-115097827D01*
X146601699Y-115097821D01*
X146495927Y-114749137D01*
X146356487Y-114412500D01*
X146184722Y-114091151D01*
X145982287Y-113788185D01*
X145751131Y-113506520D01*
X145751130Y-113506519D01*
X145751126Y-113506514D01*
X145493485Y-113248873D01*
X145211820Y-113017717D01*
X145211819Y-113017716D01*
X145211815Y-113017713D01*
X144908849Y-112815278D01*
X144908844Y-112815275D01*
X144908837Y-112815271D01*
X144587507Y-112643516D01*
X144587502Y-112643514D01*
X144580725Y-112640707D01*
X144497576Y-112606265D01*
X144250868Y-112504074D01*
X143902169Y-112398298D01*
X143902158Y-112398295D01*
X143544812Y-112327216D01*
X143544795Y-112327213D01*
X143270580Y-112300206D01*
X143182187Y-112291500D01*
X142817813Y-112291500D01*
X142736062Y-112299551D01*
X142455204Y-112327213D01*
X142455187Y-112327216D01*
X142097841Y-112398295D01*
X142097830Y-112398298D01*
X141749131Y-112504074D01*
X141412497Y-112643514D01*
X141412492Y-112643516D01*
X141091162Y-112815271D01*
X141091144Y-112815282D01*
X140788193Y-113017707D01*
X140788179Y-113017717D01*
X140506514Y-113248873D01*
X140248873Y-113506514D01*
X140017717Y-113788179D01*
X140017707Y-113788193D01*
X139815282Y-114091144D01*
X139815271Y-114091162D01*
X139643516Y-114412492D01*
X139643514Y-114412497D01*
X139504074Y-114749131D01*
X139398298Y-115097830D01*
X139398295Y-115097841D01*
X139327216Y-115455187D01*
X139327213Y-115455204D01*
X139291500Y-115817816D01*
X139291500Y-116182183D01*
X139327213Y-116544795D01*
X139327216Y-116544812D01*
X139398295Y-116902158D01*
X139398298Y-116902169D01*
X139504074Y-117250868D01*
X139643514Y-117587502D01*
X139643516Y-117587507D01*
X139815271Y-117908837D01*
X139815282Y-117908855D01*
X140017707Y-118211806D01*
X140017717Y-118211820D01*
X140248873Y-118493485D01*
X140506514Y-118751126D01*
X140506519Y-118751130D01*
X140506520Y-118751131D01*
X140788185Y-118982287D01*
X141091151Y-119184722D01*
X141091160Y-119184727D01*
X141091162Y-119184728D01*
X141412492Y-119356483D01*
X141412494Y-119356483D01*
X141412500Y-119356487D01*
X141558533Y-119416976D01*
X141749131Y-119495925D01*
X141749135Y-119495926D01*
X141749137Y-119495927D01*
X142097821Y-119601699D01*
X142097827Y-119601700D01*
X142097830Y-119601701D01*
X142097841Y-119601704D01*
X142321927Y-119646276D01*
X142455194Y-119672785D01*
X142455203Y-119672785D01*
X142455204Y-119672786D01*
X142498971Y-119677097D01*
X142563758Y-119703258D01*
X142604117Y-119760292D01*
X142607234Y-119830092D01*
X142572120Y-119890497D01*
X142509922Y-119922328D01*
X142486817Y-119924500D01*
X71513183Y-119924500D01*
X71446144Y-119904815D01*
X71400389Y-119852011D01*
X71390445Y-119782853D01*
X71419470Y-119719297D01*
X71478248Y-119681523D01*
X71501029Y-119677097D01*
X71535839Y-119673668D01*
X71544806Y-119672785D01*
X71728671Y-119636212D01*
X71902158Y-119601704D01*
X71902169Y-119601701D01*
X71902169Y-119601700D01*
X71902179Y-119601699D01*
X72250863Y-119495927D01*
X72587500Y-119356487D01*
X72908849Y-119184722D01*
X73211815Y-118982287D01*
X73493480Y-118751131D01*
X73751131Y-118493480D01*
X73982287Y-118211815D01*
X74184722Y-117908849D01*
X74356487Y-117587500D01*
X74495927Y-117250863D01*
X74601699Y-116902179D01*
X74601701Y-116902169D01*
X74601704Y-116902158D01*
X74653764Y-116640430D01*
X74672785Y-116544806D01*
X74708500Y-116182187D01*
X74708500Y-115817813D01*
X74672785Y-115455194D01*
X74646276Y-115321927D01*
X74601704Y-115097841D01*
X74601701Y-115097830D01*
X74601700Y-115097827D01*
X74601699Y-115097821D01*
X74495927Y-114749137D01*
X74356487Y-114412500D01*
X74184722Y-114091151D01*
X73982287Y-113788185D01*
X73751131Y-113506520D01*
X73751130Y-113506519D01*
X73751126Y-113506514D01*
X73493485Y-113248873D01*
X73211820Y-113017717D01*
X73211819Y-113017716D01*
X73211815Y-113017713D01*
X72908849Y-112815278D01*
X72908844Y-112815275D01*
X72908837Y-112815271D01*
X72587507Y-112643516D01*
X72587502Y-112643514D01*
X72580725Y-112640707D01*
X72497576Y-112606265D01*
X72250868Y-112504074D01*
X71902169Y-112398298D01*
X71902158Y-112398295D01*
X71544812Y-112327216D01*
X71544795Y-112327213D01*
X71270580Y-112300206D01*
X71182187Y-112291500D01*
X70817813Y-112291500D01*
X70736062Y-112299551D01*
X70455204Y-112327213D01*
X70455187Y-112327216D01*
X70097841Y-112398295D01*
X70097830Y-112398298D01*
X69749131Y-112504074D01*
X69412497Y-112643514D01*
X69412492Y-112643516D01*
X69091162Y-112815271D01*
X69091144Y-112815282D01*
X68788193Y-113017707D01*
X68788179Y-113017717D01*
X68506514Y-113248873D01*
X68248873Y-113506514D01*
X68017717Y-113788179D01*
X68017707Y-113788193D01*
X67815282Y-114091144D01*
X67815271Y-114091162D01*
X67643516Y-114412492D01*
X67643514Y-114412497D01*
X67504074Y-114749131D01*
X67398298Y-115097830D01*
X67398295Y-115097841D01*
X67327216Y-115455187D01*
X67327213Y-115455204D01*
X67291500Y-115817816D01*
X67291500Y-116182183D01*
X67327213Y-116544795D01*
X67327216Y-116544812D01*
X67398295Y-116902158D01*
X67398298Y-116902169D01*
X67504074Y-117250868D01*
X67643514Y-117587502D01*
X67643516Y-117587507D01*
X67815271Y-117908837D01*
X67815282Y-117908855D01*
X68017707Y-118211806D01*
X68017717Y-118211820D01*
X68248873Y-118493485D01*
X68506514Y-118751126D01*
X68506519Y-118751130D01*
X68506520Y-118751131D01*
X68788185Y-118982287D01*
X69091151Y-119184722D01*
X69091160Y-119184727D01*
X69091162Y-119184728D01*
X69412492Y-119356483D01*
X69412494Y-119356483D01*
X69412500Y-119356487D01*
X69558533Y-119416976D01*
X69749131Y-119495925D01*
X69749135Y-119495926D01*
X69749137Y-119495927D01*
X70097821Y-119601699D01*
X70097827Y-119601700D01*
X70097830Y-119601701D01*
X70097841Y-119601704D01*
X70327695Y-119647423D01*
X70439472Y-119669657D01*
X70462646Y-119681779D01*
X70487357Y-119690373D01*
X70493114Y-119697716D01*
X70501382Y-119702041D01*
X70514326Y-119724772D01*
X70530466Y-119745359D01*
X70531339Y-119754649D01*
X70535956Y-119762757D01*
X70534556Y-119788877D01*
X70537004Y-119814922D01*
X70532716Y-119823208D01*
X70532217Y-119832526D01*
X70516917Y-119853744D01*
X70504896Y-119876977D01*
X70496808Y-119881630D01*
X70491351Y-119889199D01*
X70467008Y-119898776D01*
X70444335Y-119911822D01*
X70430560Y-119913116D01*
X70426333Y-119914780D01*
X70409196Y-119915125D01*
X70284569Y-119909003D01*
X70277691Y-119908473D01*
X70205859Y-119900923D01*
X70200627Y-119900260D01*
X69927988Y-119859819D01*
X69920406Y-119858452D01*
X69872447Y-119848258D01*
X69855257Y-119844604D01*
X69850909Y-119843598D01*
X69577235Y-119775046D01*
X69569051Y-119772694D01*
X69516125Y-119755497D01*
X69512676Y-119754320D01*
X69236114Y-119655364D01*
X69227454Y-119651893D01*
X69194869Y-119637385D01*
X69192313Y-119636212D01*
X68908706Y-119502076D01*
X68897974Y-119496339D01*
X68605454Y-119321009D01*
X68595336Y-119314249D01*
X68321389Y-119111076D01*
X68311983Y-119103356D01*
X68178409Y-118982292D01*
X68059274Y-118874314D01*
X68050685Y-118865725D01*
X67821643Y-118613016D01*
X67813923Y-118603610D01*
X67732245Y-118493480D01*
X67610748Y-118329660D01*
X67603990Y-118319545D01*
X67539419Y-118211815D01*
X67428656Y-118027018D01*
X67422922Y-118016292D01*
X67288752Y-117732611D01*
X67287649Y-117730209D01*
X67273093Y-117697515D01*
X67269644Y-117688911D01*
X67170655Y-117412255D01*
X67169528Y-117408954D01*
X67152293Y-117355910D01*
X67149959Y-117347789D01*
X67081386Y-117074031D01*
X67080410Y-117069813D01*
X67066537Y-117004542D01*
X67065188Y-116997061D01*
X67024731Y-116724319D01*
X67024082Y-116719198D01*
X67016521Y-116647256D01*
X67015998Y-116640476D01*
X67000648Y-116328032D01*
X67000500Y-116321949D01*
X67000500Y-86300013D01*
X76000000Y-86300013D01*
X76000000Y-86850000D01*
X76916988Y-86850000D01*
X76884075Y-86907007D01*
X76850000Y-87034174D01*
X76850000Y-87165826D01*
X76884075Y-87292993D01*
X76916988Y-87350000D01*
X76000001Y-87350000D01*
X76000001Y-87899986D01*
X76010494Y-88002697D01*
X76065641Y-88169119D01*
X76065643Y-88169124D01*
X76157684Y-88318345D01*
X76281654Y-88442315D01*
X76430875Y-88534356D01*
X76430880Y-88534358D01*
X76597302Y-88589505D01*
X76597309Y-88589506D01*
X76700019Y-88599999D01*
X77099999Y-88599999D01*
X77100000Y-88599998D01*
X77100000Y-87533012D01*
X77157007Y-87565925D01*
X77284174Y-87600000D01*
X77415826Y-87600000D01*
X77542993Y-87565925D01*
X77600000Y-87533012D01*
X77600000Y-88599999D01*
X77999972Y-88599999D01*
X77999986Y-88599998D01*
X78102697Y-88589505D01*
X78269119Y-88534358D01*
X78269124Y-88534356D01*
X78418345Y-88442315D01*
X78542315Y-88318345D01*
X78633499Y-88170513D01*
X78685447Y-88123789D01*
X78754410Y-88112566D01*
X78818492Y-88140410D01*
X78826719Y-88147929D01*
X78964996Y-88286206D01*
X79137991Y-88411894D01*
X79231438Y-88459507D01*
X79328516Y-88508972D01*
X79328519Y-88508973D01*
X79406642Y-88534356D01*
X79531884Y-88575049D01*
X79743084Y-88608500D01*
X79743085Y-88608500D01*
X79956915Y-88608500D01*
X79956916Y-88608500D01*
X80168116Y-88575049D01*
X80212809Y-88560526D01*
X80282647Y-88558531D01*
X80338806Y-88590777D01*
X81899353Y-90151325D01*
X81899357Y-90151328D01*
X82015392Y-90228861D01*
X82015405Y-90228868D01*
X82106572Y-90266630D01*
X82144338Y-90282273D01*
X82179854Y-90289337D01*
X82212730Y-90295877D01*
X82212754Y-90295881D01*
X82212778Y-90295886D01*
X82264108Y-90306096D01*
X82281217Y-90309500D01*
X82281218Y-90309500D01*
X82281219Y-90309500D01*
X93113700Y-90309500D01*
X93122021Y-90311943D01*
X93130597Y-90310657D01*
X93155034Y-90321637D01*
X93180739Y-90329185D01*
X93186417Y-90335738D01*
X93194329Y-90339293D01*
X93208952Y-90361745D01*
X93226494Y-90381989D01*
X93228727Y-90392106D01*
X93232462Y-90397840D01*
X93237371Y-90431264D01*
X93237698Y-90432743D01*
X93237700Y-90433070D01*
X93237700Y-90604879D01*
X93238782Y-90610318D01*
X93238853Y-90621943D01*
X93230726Y-90650258D01*
X93225238Y-90679194D01*
X93221198Y-90683455D01*
X93219578Y-90689101D01*
X93197433Y-90708527D01*
X93177172Y-90729903D01*
X93171246Y-90731500D01*
X93167054Y-90735178D01*
X93145739Y-90738375D01*
X93114855Y-90746700D01*
X82625014Y-90746700D01*
X82488145Y-90773924D01*
X82488141Y-90773926D01*
X82488139Y-90773926D01*
X82488138Y-90773927D01*
X82434730Y-90796049D01*
X82434728Y-90796050D01*
X82359201Y-90827334D01*
X82359197Y-90827336D01*
X82243162Y-90904868D01*
X82243154Y-90904874D01*
X80338807Y-92809221D01*
X80277484Y-92842706D01*
X80212810Y-92839472D01*
X80168115Y-92824950D01*
X79990366Y-92796797D01*
X79956916Y-92791500D01*
X79743084Y-92791500D01*
X79689411Y-92800001D01*
X79531882Y-92824951D01*
X79328519Y-92891026D01*
X79328516Y-92891027D01*
X79137990Y-92988106D01*
X78964997Y-93113793D01*
X78826719Y-93252071D01*
X78765396Y-93285555D01*
X78695704Y-93280571D01*
X78639771Y-93238699D01*
X78633499Y-93229486D01*
X78542315Y-93081654D01*
X78418345Y-92957684D01*
X78269124Y-92865643D01*
X78269119Y-92865641D01*
X78102697Y-92810494D01*
X78102690Y-92810493D01*
X77999986Y-92800000D01*
X77600000Y-92800000D01*
X77600000Y-93866988D01*
X77542993Y-93834075D01*
X77415826Y-93800000D01*
X77284174Y-93800000D01*
X77157007Y-93834075D01*
X77100000Y-93866988D01*
X77100000Y-92800000D01*
X76700028Y-92800000D01*
X76700012Y-92800001D01*
X76597302Y-92810494D01*
X76430880Y-92865641D01*
X76430875Y-92865643D01*
X76281654Y-92957684D01*
X76157684Y-93081654D01*
X76065643Y-93230875D01*
X76065641Y-93230880D01*
X76010494Y-93397302D01*
X76010493Y-93397309D01*
X76000000Y-93500013D01*
X76000000Y-94050000D01*
X76916988Y-94050000D01*
X76884075Y-94107007D01*
X76850000Y-94234174D01*
X76850000Y-94365826D01*
X76884075Y-94492993D01*
X76916988Y-94550000D01*
X76000001Y-94550000D01*
X76000001Y-95099986D01*
X76010494Y-95202697D01*
X76065641Y-95369119D01*
X76065643Y-95369124D01*
X76157684Y-95518345D01*
X76281654Y-95642315D01*
X76430875Y-95734356D01*
X76430880Y-95734358D01*
X76597302Y-95789505D01*
X76597309Y-95789506D01*
X76700019Y-95799999D01*
X77099999Y-95799999D01*
X77100000Y-95799998D01*
X77100000Y-94733012D01*
X77157007Y-94765925D01*
X77284174Y-94800000D01*
X77415826Y-94800000D01*
X77542993Y-94765925D01*
X77600000Y-94733012D01*
X77600000Y-95799999D01*
X77999972Y-95799999D01*
X77999986Y-95799998D01*
X78102697Y-95789505D01*
X78269119Y-95734358D01*
X78269124Y-95734356D01*
X78418345Y-95642315D01*
X78542315Y-95518345D01*
X78633499Y-95370513D01*
X78685447Y-95323789D01*
X78754410Y-95312566D01*
X78818492Y-95340410D01*
X78826719Y-95347929D01*
X78964996Y-95486206D01*
X79137991Y-95611894D01*
X79212443Y-95649829D01*
X79328516Y-95708972D01*
X79328519Y-95708973D01*
X79406642Y-95734356D01*
X79531884Y-95775049D01*
X79743084Y-95808500D01*
X79743085Y-95808500D01*
X79956915Y-95808500D01*
X79956916Y-95808500D01*
X80168116Y-95775049D01*
X80371483Y-95708972D01*
X80562009Y-95611894D01*
X80735004Y-95486206D01*
X80886206Y-95335004D01*
X81011894Y-95162009D01*
X81108972Y-94971483D01*
X81175049Y-94768116D01*
X81208500Y-94556916D01*
X81208500Y-94043084D01*
X81204763Y-94019492D01*
X81213717Y-93950200D01*
X81239552Y-93912416D01*
X82951951Y-92200019D01*
X83013274Y-92166534D01*
X83039632Y-92163700D01*
X95569039Y-92163700D01*
X95636078Y-92183385D01*
X95656720Y-92200019D01*
X96045020Y-92588319D01*
X96078505Y-92649642D01*
X96073521Y-92719334D01*
X96031649Y-92775267D01*
X95966185Y-92799684D01*
X95957339Y-92800000D01*
X95950000Y-92800000D01*
X95950000Y-93866988D01*
X95892993Y-93834075D01*
X95765826Y-93800000D01*
X95634174Y-93800000D01*
X95507007Y-93834075D01*
X95450000Y-93866988D01*
X95450000Y-92800000D01*
X95050028Y-92800000D01*
X95050012Y-92800001D01*
X94947302Y-92810494D01*
X94780880Y-92865641D01*
X94780875Y-92865643D01*
X94631654Y-92957684D01*
X94507684Y-93081654D01*
X94415643Y-93230875D01*
X94415641Y-93230880D01*
X94360494Y-93397302D01*
X94360493Y-93397309D01*
X94350000Y-93500013D01*
X94350000Y-94050000D01*
X95266988Y-94050000D01*
X95234075Y-94107007D01*
X95200000Y-94234174D01*
X95200000Y-94365826D01*
X95234075Y-94492993D01*
X95266988Y-94550000D01*
X94350001Y-94550000D01*
X94350001Y-95099986D01*
X94360494Y-95202697D01*
X94415641Y-95369119D01*
X94415643Y-95369124D01*
X94478483Y-95471003D01*
X94480567Y-95478622D01*
X94485738Y-95484589D01*
X94489655Y-95511836D01*
X94496923Y-95538396D01*
X94494558Y-95545930D01*
X94495682Y-95553747D01*
X94484243Y-95578792D01*
X94476000Y-95605059D01*
X94469938Y-95610118D01*
X94466657Y-95617303D01*
X94443493Y-95632189D01*
X94422358Y-95649829D01*
X94413027Y-95651768D01*
X94407879Y-95655077D01*
X94372944Y-95660100D01*
X94349833Y-95660100D01*
X94282794Y-95640415D01*
X94262152Y-95623781D01*
X93988107Y-95349736D01*
X93954622Y-95288413D01*
X93954171Y-95286246D01*
X93933728Y-95183475D01*
X93927587Y-95152600D01*
X93859102Y-94987264D01*
X93859100Y-94987261D01*
X93859098Y-94987257D01*
X93759678Y-94838465D01*
X93759675Y-94838461D01*
X93633138Y-94711924D01*
X93633134Y-94711921D01*
X93484342Y-94612501D01*
X93484332Y-94612496D01*
X93319000Y-94544013D01*
X93318992Y-94544011D01*
X93143483Y-94509100D01*
X93143479Y-94509100D01*
X92964521Y-94509100D01*
X92964516Y-94509100D01*
X92789007Y-94544011D01*
X92788999Y-94544013D01*
X92623667Y-94612496D01*
X92623657Y-94612501D01*
X92474865Y-94711921D01*
X92474861Y-94711924D01*
X92348324Y-94838461D01*
X92348321Y-94838465D01*
X92248901Y-94987257D01*
X92248896Y-94987267D01*
X92180413Y-95152599D01*
X92180411Y-95152607D01*
X92145500Y-95328116D01*
X92145500Y-95507083D01*
X92180411Y-95682592D01*
X92180413Y-95682600D01*
X92248896Y-95847932D01*
X92248901Y-95847942D01*
X92348321Y-95996734D01*
X92348324Y-95996738D01*
X92400005Y-96048419D01*
X92433490Y-96109742D01*
X92428506Y-96179434D01*
X92386634Y-96235367D01*
X92321170Y-96259784D01*
X92312324Y-96260100D01*
X89668679Y-96260100D01*
X89603505Y-96240962D01*
X89603503Y-96240967D01*
X89603482Y-96240955D01*
X89601640Y-96240415D01*
X89599790Y-96239203D01*
X89598136Y-96238098D01*
X89598134Y-96238097D01*
X89432800Y-96169613D01*
X89432792Y-96169611D01*
X89257283Y-96134700D01*
X89257279Y-96134700D01*
X89078321Y-96134700D01*
X89078316Y-96134700D01*
X88902807Y-96169611D01*
X88902799Y-96169613D01*
X88737467Y-96238096D01*
X88737457Y-96238101D01*
X88588665Y-96337521D01*
X88588661Y-96337524D01*
X88462124Y-96464061D01*
X88462121Y-96464065D01*
X88362701Y-96612857D01*
X88362696Y-96612867D01*
X88294213Y-96778199D01*
X88294211Y-96778207D01*
X88259300Y-96953716D01*
X88259300Y-97132683D01*
X88294211Y-97308192D01*
X88294213Y-97308200D01*
X88362696Y-97473532D01*
X88362701Y-97473542D01*
X88462121Y-97622334D01*
X88462124Y-97622338D01*
X88588661Y-97748875D01*
X88588665Y-97748878D01*
X88737457Y-97848298D01*
X88737461Y-97848300D01*
X88737464Y-97848302D01*
X88902800Y-97916787D01*
X89067708Y-97949589D01*
X89078316Y-97951699D01*
X89078320Y-97951700D01*
X89078321Y-97951700D01*
X89257280Y-97951700D01*
X89257281Y-97951699D01*
X89432800Y-97916787D01*
X89505824Y-97886538D01*
X89553277Y-97877100D01*
X99627499Y-97877100D01*
X99694538Y-97896785D01*
X99740293Y-97949589D01*
X99750237Y-98018747D01*
X99747646Y-98030401D01*
X99711700Y-98211116D01*
X99711700Y-98268100D01*
X99692015Y-98335139D01*
X99639211Y-98380894D01*
X99587700Y-98392100D01*
X82229614Y-98392100D01*
X82092745Y-98419324D01*
X82092741Y-98419326D01*
X82092739Y-98419326D01*
X82092738Y-98419327D01*
X82077130Y-98425792D01*
X82039328Y-98441450D01*
X81963801Y-98472734D01*
X81963797Y-98472736D01*
X81847762Y-98550268D01*
X81847754Y-98550274D01*
X80338807Y-100059221D01*
X80277484Y-100092706D01*
X80212810Y-100089472D01*
X80168115Y-100074950D01*
X79990366Y-100046797D01*
X79956916Y-100041500D01*
X79743084Y-100041500D01*
X79689411Y-100050001D01*
X79531882Y-100074951D01*
X79328519Y-100141026D01*
X79328516Y-100141027D01*
X79137990Y-100238106D01*
X78964997Y-100363793D01*
X78826719Y-100502071D01*
X78765396Y-100535555D01*
X78695704Y-100530571D01*
X78639771Y-100488699D01*
X78633499Y-100479486D01*
X78542315Y-100331654D01*
X78418345Y-100207684D01*
X78269124Y-100115643D01*
X78269119Y-100115641D01*
X78102697Y-100060494D01*
X78102690Y-100060493D01*
X77999986Y-100050000D01*
X77600000Y-100050000D01*
X77600000Y-101116988D01*
X77542993Y-101084075D01*
X77415826Y-101050000D01*
X77284174Y-101050000D01*
X77157007Y-101084075D01*
X77100000Y-101116988D01*
X77100000Y-100050000D01*
X76700028Y-100050000D01*
X76700012Y-100050001D01*
X76597302Y-100060494D01*
X76430880Y-100115641D01*
X76430875Y-100115643D01*
X76281654Y-100207684D01*
X76157684Y-100331654D01*
X76065643Y-100480875D01*
X76065641Y-100480880D01*
X76010494Y-100647302D01*
X76010493Y-100647309D01*
X76000000Y-100750013D01*
X76000000Y-101300000D01*
X76916988Y-101300000D01*
X76884075Y-101357007D01*
X76850000Y-101484174D01*
X76850000Y-101615826D01*
X76884075Y-101742993D01*
X76916988Y-101800000D01*
X76000001Y-101800000D01*
X76000001Y-102349986D01*
X76010494Y-102452697D01*
X76065641Y-102619119D01*
X76065643Y-102619124D01*
X76157684Y-102768345D01*
X76281654Y-102892315D01*
X76430875Y-102984356D01*
X76430880Y-102984358D01*
X76597302Y-103039505D01*
X76597309Y-103039506D01*
X76700019Y-103049999D01*
X77099999Y-103049999D01*
X77100000Y-103049998D01*
X77100000Y-101983012D01*
X77157007Y-102015925D01*
X77284174Y-102050000D01*
X77415826Y-102050000D01*
X77542993Y-102015925D01*
X77600000Y-101983012D01*
X77600000Y-103049999D01*
X77999972Y-103049999D01*
X77999986Y-103049998D01*
X78102697Y-103039505D01*
X78269119Y-102984358D01*
X78269124Y-102984356D01*
X78418345Y-102892315D01*
X78542315Y-102768345D01*
X78633499Y-102620513D01*
X78685447Y-102573789D01*
X78754410Y-102562566D01*
X78818492Y-102590410D01*
X78826719Y-102597929D01*
X78964996Y-102736206D01*
X79137991Y-102861894D01*
X79219535Y-102903443D01*
X79328516Y-102958972D01*
X79328519Y-102958973D01*
X79377394Y-102974853D01*
X79531884Y-103025049D01*
X79743084Y-103058500D01*
X79743085Y-103058500D01*
X79956915Y-103058500D01*
X79956916Y-103058500D01*
X80168116Y-103025049D01*
X80371483Y-102958972D01*
X80562009Y-102861894D01*
X80735004Y-102736206D01*
X80886206Y-102585004D01*
X81011894Y-102412009D01*
X81108972Y-102221483D01*
X81175049Y-102018116D01*
X81208500Y-101806916D01*
X81208500Y-101293084D01*
X81204763Y-101269492D01*
X81213717Y-101200200D01*
X81239552Y-101162416D01*
X82556551Y-99845419D01*
X82617874Y-99811934D01*
X82644232Y-99809100D01*
X84186167Y-99809100D01*
X84253206Y-99828785D01*
X84298961Y-99881589D01*
X84308905Y-99950747D01*
X84279880Y-100014303D01*
X84273848Y-100020781D01*
X79299674Y-104994953D01*
X79299672Y-104994956D01*
X79222138Y-105110992D01*
X79222131Y-105111005D01*
X79189122Y-105190699D01*
X79168728Y-105239933D01*
X79168725Y-105239945D01*
X79141500Y-105376814D01*
X79141500Y-107447375D01*
X79121815Y-107514414D01*
X79090386Y-107547693D01*
X78964997Y-107638793D01*
X78826719Y-107777071D01*
X78765396Y-107810555D01*
X78695704Y-107805571D01*
X78639771Y-107763699D01*
X78633499Y-107754486D01*
X78542315Y-107606654D01*
X78418345Y-107482684D01*
X78269124Y-107390643D01*
X78269119Y-107390641D01*
X78102697Y-107335494D01*
X78102690Y-107335493D01*
X77999986Y-107325000D01*
X77600000Y-107325000D01*
X77600000Y-108391988D01*
X77542993Y-108359075D01*
X77415826Y-108325000D01*
X77284174Y-108325000D01*
X77157007Y-108359075D01*
X77100000Y-108391988D01*
X77100000Y-107325000D01*
X76700028Y-107325000D01*
X76700012Y-107325001D01*
X76597302Y-107335494D01*
X76430880Y-107390641D01*
X76430875Y-107390643D01*
X76281654Y-107482684D01*
X76157684Y-107606654D01*
X76065643Y-107755875D01*
X76065641Y-107755880D01*
X76010494Y-107922302D01*
X76010493Y-107922309D01*
X76000000Y-108025013D01*
X76000000Y-108575000D01*
X76916988Y-108575000D01*
X76884075Y-108632007D01*
X76850000Y-108759174D01*
X76850000Y-108890826D01*
X76884075Y-109017993D01*
X76916988Y-109075000D01*
X76000001Y-109075000D01*
X76000001Y-109624986D01*
X76010494Y-109727697D01*
X76065641Y-109894119D01*
X76065643Y-109894124D01*
X76157684Y-110043345D01*
X76281654Y-110167315D01*
X76430875Y-110259356D01*
X76430880Y-110259358D01*
X76597302Y-110314505D01*
X76597309Y-110314506D01*
X76700019Y-110324999D01*
X77099999Y-110324999D01*
X77100000Y-110324998D01*
X77100000Y-109258012D01*
X77157007Y-109290925D01*
X77284174Y-109325000D01*
X77415826Y-109325000D01*
X77542993Y-109290925D01*
X77600000Y-109258012D01*
X77600000Y-110324999D01*
X77999972Y-110324999D01*
X77999986Y-110324998D01*
X78102697Y-110314505D01*
X78269119Y-110259358D01*
X78269124Y-110259356D01*
X78418345Y-110167315D01*
X78542315Y-110043345D01*
X78633499Y-109895513D01*
X78685447Y-109848789D01*
X78754410Y-109837566D01*
X78818492Y-109865410D01*
X78826719Y-109872929D01*
X78964996Y-110011206D01*
X79137991Y-110136894D01*
X79231438Y-110184507D01*
X79328516Y-110233972D01*
X79328519Y-110233973D01*
X79406642Y-110259356D01*
X79531884Y-110300049D01*
X79743084Y-110333500D01*
X79743085Y-110333500D01*
X79956915Y-110333500D01*
X79956916Y-110333500D01*
X80168116Y-110300049D01*
X80371483Y-110233972D01*
X80562009Y-110136894D01*
X80735004Y-110011206D01*
X80886206Y-109860004D01*
X81011894Y-109687009D01*
X81108972Y-109496483D01*
X81175049Y-109293116D01*
X81208500Y-109081916D01*
X81208500Y-108568084D01*
X81175049Y-108356884D01*
X81126021Y-108205989D01*
X81108973Y-108153519D01*
X81108972Y-108153516D01*
X81070575Y-108078159D01*
X81040780Y-108019683D01*
X81011894Y-107962991D01*
X80886206Y-107789996D01*
X80735004Y-107638794D01*
X80609613Y-107547692D01*
X80566949Y-107492363D01*
X80558500Y-107447375D01*
X80558500Y-105791433D01*
X80578185Y-105724394D01*
X80594819Y-105703752D01*
X85853152Y-100445419D01*
X85914475Y-100411934D01*
X85940833Y-100409100D01*
X94267707Y-100409100D01*
X94334746Y-100428785D01*
X94380501Y-100481589D01*
X94390445Y-100550747D01*
X94385413Y-100572104D01*
X94360494Y-100647302D01*
X94360493Y-100647309D01*
X94350000Y-100750013D01*
X94350000Y-101300000D01*
X95266988Y-101300000D01*
X95234075Y-101357007D01*
X95200000Y-101484174D01*
X95200000Y-101615826D01*
X95234075Y-101742993D01*
X95266988Y-101800000D01*
X94350001Y-101800000D01*
X94350001Y-102349986D01*
X94360494Y-102452697D01*
X94415641Y-102619119D01*
X94415643Y-102619124D01*
X94507684Y-102768345D01*
X94631654Y-102892315D01*
X94780875Y-102984356D01*
X94780880Y-102984358D01*
X94947302Y-103039505D01*
X94947309Y-103039506D01*
X95050019Y-103049999D01*
X95449999Y-103049999D01*
X95450000Y-103049998D01*
X95450000Y-101983012D01*
X95507007Y-102015925D01*
X95634174Y-102050000D01*
X95765826Y-102050000D01*
X95892993Y-102015925D01*
X95950000Y-101983012D01*
X95950000Y-103049999D01*
X96349972Y-103049999D01*
X96349986Y-103049998D01*
X96452697Y-103039505D01*
X96619119Y-102984358D01*
X96619124Y-102984356D01*
X96768345Y-102892315D01*
X96892315Y-102768345D01*
X96983499Y-102620513D01*
X97035447Y-102573789D01*
X97104410Y-102562566D01*
X97168492Y-102590410D01*
X97176719Y-102597929D01*
X97314996Y-102736206D01*
X97440386Y-102827307D01*
X97483051Y-102882637D01*
X97491500Y-102927625D01*
X97491500Y-103287167D01*
X97471815Y-103354206D01*
X97455181Y-103374848D01*
X97241848Y-103588181D01*
X97180525Y-103621666D01*
X97154167Y-103624500D01*
X94745033Y-103624500D01*
X94677994Y-103604815D01*
X94657352Y-103588181D01*
X94038907Y-102969736D01*
X94005422Y-102908413D01*
X94004971Y-102906246D01*
X93980343Y-102782434D01*
X93978387Y-102772600D01*
X93909902Y-102607264D01*
X93909900Y-102607261D01*
X93909898Y-102607257D01*
X93810478Y-102458465D01*
X93810475Y-102458461D01*
X93683938Y-102331924D01*
X93683934Y-102331921D01*
X93535142Y-102232501D01*
X93535132Y-102232496D01*
X93369800Y-102164013D01*
X93369792Y-102164011D01*
X93194283Y-102129100D01*
X93194279Y-102129100D01*
X93015321Y-102129100D01*
X93015316Y-102129100D01*
X92839807Y-102164011D01*
X92839799Y-102164013D01*
X92674467Y-102232496D01*
X92674457Y-102232501D01*
X92525665Y-102331921D01*
X92525661Y-102331924D01*
X92399124Y-102458461D01*
X92399121Y-102458465D01*
X92299701Y-102607257D01*
X92299696Y-102607267D01*
X92231213Y-102772599D01*
X92231211Y-102772607D01*
X92196300Y-102948116D01*
X92196300Y-103127083D01*
X92231211Y-103302592D01*
X92231213Y-103302600D01*
X92299696Y-103467932D01*
X92299701Y-103467942D01*
X92399121Y-103616734D01*
X92399124Y-103616738D01*
X92525661Y-103743275D01*
X92525665Y-103743278D01*
X92674457Y-103842698D01*
X92674461Y-103842700D01*
X92674464Y-103842702D01*
X92839800Y-103911187D01*
X92875506Y-103918289D01*
X92973445Y-103937771D01*
X93035356Y-103970156D01*
X93036935Y-103971707D01*
X93948556Y-104883328D01*
X94064598Y-104960864D01*
X94064599Y-104960865D01*
X94118004Y-104982985D01*
X94118006Y-104982986D01*
X94118007Y-104982986D01*
X94193538Y-105014273D01*
X94216377Y-105018816D01*
X94310941Y-105037626D01*
X94322059Y-105039837D01*
X94330418Y-105041500D01*
X97568782Y-105041500D01*
X97637221Y-105027886D01*
X97705662Y-105014273D01*
X97752292Y-104994958D01*
X97834601Y-104960865D01*
X97950643Y-104883328D01*
X98750328Y-104083642D01*
X98827865Y-103967600D01*
X98827868Y-103967593D01*
X98862446Y-103884115D01*
X98862446Y-103884114D01*
X98881273Y-103838662D01*
X98908500Y-103701781D01*
X98908500Y-102927625D01*
X98928185Y-102860586D01*
X98959614Y-102827307D01*
X99085004Y-102736206D01*
X99232591Y-102588619D01*
X99293914Y-102555134D01*
X99320272Y-102552300D01*
X100200300Y-102552300D01*
X100267339Y-102571985D01*
X100313094Y-102624789D01*
X100324300Y-102676300D01*
X100324300Y-102733283D01*
X100359211Y-102908792D01*
X100359213Y-102908800D01*
X100427696Y-103074132D01*
X100427701Y-103074142D01*
X100527121Y-103222934D01*
X100527124Y-103222938D01*
X100653661Y-103349475D01*
X100653665Y-103349478D01*
X100802457Y-103448898D01*
X100802461Y-103448900D01*
X100802464Y-103448902D01*
X100967800Y-103517387D01*
X101143316Y-103552299D01*
X101143320Y-103552300D01*
X101143321Y-103552300D01*
X101186312Y-103552300D01*
X101233764Y-103561738D01*
X101283338Y-103582273D01*
X101396666Y-103604815D01*
X101420214Y-103609499D01*
X101420218Y-103609500D01*
X101420219Y-103609500D01*
X102545182Y-103609500D01*
X102613621Y-103595886D01*
X102658890Y-103586881D01*
X102683080Y-103584500D01*
X106801367Y-103584500D01*
X106868406Y-103604185D01*
X106914161Y-103656989D01*
X106924105Y-103726147D01*
X106895080Y-103789703D01*
X106889048Y-103796181D01*
X106194134Y-104491093D01*
X106132811Y-104524578D01*
X106130644Y-104525029D01*
X105997007Y-104551611D01*
X105996999Y-104551613D01*
X105831667Y-104620096D01*
X105831657Y-104620101D01*
X105682865Y-104719521D01*
X105682861Y-104719524D01*
X105556324Y-104846061D01*
X105556321Y-104846065D01*
X105456901Y-104994857D01*
X105456896Y-104994867D01*
X105388413Y-105160199D01*
X105388411Y-105160207D01*
X105353500Y-105335716D01*
X105353500Y-105514683D01*
X105388411Y-105690192D01*
X105388413Y-105690200D01*
X105396265Y-105709157D01*
X105406063Y-105732812D01*
X105413530Y-105802281D01*
X105382255Y-105864760D01*
X105353994Y-105886512D01*
X105354129Y-105886713D01*
X105351137Y-105888711D01*
X105349959Y-105889619D01*
X105349063Y-105890097D01*
X105200265Y-105989521D01*
X105200261Y-105989524D01*
X105073724Y-106116061D01*
X105073721Y-106116065D01*
X104974301Y-106264857D01*
X104974296Y-106264867D01*
X104905813Y-106430199D01*
X104905811Y-106430207D01*
X104870900Y-106605716D01*
X104870900Y-106784683D01*
X104905811Y-106960192D01*
X104905813Y-106960200D01*
X104974296Y-107125532D01*
X104974301Y-107125542D01*
X105073721Y-107274334D01*
X105073724Y-107274338D01*
X105200262Y-107400876D01*
X105200265Y-107400878D01*
X105339735Y-107494068D01*
X105384538Y-107547678D01*
X105393246Y-107617003D01*
X105385404Y-107644621D01*
X105337614Y-107759995D01*
X105337611Y-107760007D01*
X105302700Y-107935516D01*
X105302700Y-107992500D01*
X105283015Y-108059539D01*
X105230211Y-108105294D01*
X105178700Y-108116500D01*
X99516098Y-108116500D01*
X99449059Y-108096815D01*
X99405613Y-108048795D01*
X99361894Y-107962991D01*
X99236206Y-107789996D01*
X99085004Y-107638794D01*
X98912009Y-107513106D01*
X98886020Y-107499864D01*
X98721483Y-107416027D01*
X98721480Y-107416026D01*
X98518117Y-107349951D01*
X98412516Y-107333225D01*
X98306916Y-107316500D01*
X98093084Y-107316500D01*
X98039411Y-107325001D01*
X97881882Y-107349951D01*
X97678519Y-107416026D01*
X97678516Y-107416027D01*
X97487990Y-107513106D01*
X97314997Y-107638793D01*
X97176719Y-107777071D01*
X97115396Y-107810555D01*
X97045704Y-107805571D01*
X96989771Y-107763699D01*
X96983499Y-107754486D01*
X96892315Y-107606654D01*
X96768345Y-107482684D01*
X96619124Y-107390643D01*
X96619119Y-107390641D01*
X96452697Y-107335494D01*
X96452690Y-107335493D01*
X96349986Y-107325000D01*
X95950000Y-107325000D01*
X95950000Y-108391988D01*
X95892993Y-108359075D01*
X95765826Y-108325000D01*
X95634174Y-108325000D01*
X95507007Y-108359075D01*
X95450000Y-108391988D01*
X95450000Y-107325000D01*
X95050028Y-107325000D01*
X95050012Y-107325001D01*
X94947302Y-107335494D01*
X94780880Y-107390641D01*
X94780875Y-107390643D01*
X94631654Y-107482684D01*
X94507684Y-107606654D01*
X94415643Y-107755875D01*
X94415641Y-107755880D01*
X94360494Y-107922302D01*
X94360493Y-107922309D01*
X94350000Y-108025013D01*
X94350000Y-108575000D01*
X95266988Y-108575000D01*
X95234075Y-108632007D01*
X95200000Y-108759174D01*
X95200000Y-108890826D01*
X95234075Y-109017993D01*
X95266988Y-109075000D01*
X94350001Y-109075000D01*
X94350001Y-109624986D01*
X94360494Y-109727697D01*
X94415641Y-109894119D01*
X94415643Y-109894124D01*
X94507684Y-110043345D01*
X94631654Y-110167315D01*
X94780875Y-110259356D01*
X94780880Y-110259358D01*
X94947302Y-110314505D01*
X94947309Y-110314506D01*
X95050019Y-110324999D01*
X95449999Y-110324999D01*
X95450000Y-110324998D01*
X95450000Y-109258012D01*
X95507007Y-109290925D01*
X95634174Y-109325000D01*
X95765826Y-109325000D01*
X95892993Y-109290925D01*
X95950000Y-109258012D01*
X95950000Y-110324999D01*
X96349972Y-110324999D01*
X96349986Y-110324998D01*
X96452697Y-110314505D01*
X96619119Y-110259358D01*
X96619124Y-110259356D01*
X96768345Y-110167315D01*
X96892315Y-110043345D01*
X96983499Y-109895513D01*
X97035447Y-109848789D01*
X97104410Y-109837566D01*
X97168492Y-109865410D01*
X97176719Y-109872929D01*
X97314996Y-110011206D01*
X97487991Y-110136894D01*
X97581438Y-110184507D01*
X97678516Y-110233972D01*
X97678519Y-110233973D01*
X97756642Y-110259356D01*
X97881884Y-110300049D01*
X98093084Y-110333500D01*
X98093085Y-110333500D01*
X98306915Y-110333500D01*
X98306916Y-110333500D01*
X98518116Y-110300049D01*
X98721483Y-110233972D01*
X98912009Y-110136894D01*
X99085004Y-110011206D01*
X99236206Y-109860004D01*
X99361894Y-109687009D01*
X99405614Y-109601203D01*
X99453587Y-109550409D01*
X99516098Y-109533500D01*
X105508900Y-109533500D01*
X105575939Y-109553185D01*
X105621694Y-109605989D01*
X105632900Y-109657500D01*
X105632900Y-109714483D01*
X105667811Y-109889992D01*
X105667813Y-109890000D01*
X105736296Y-110055332D01*
X105736301Y-110055342D01*
X105835721Y-110204134D01*
X105835724Y-110204138D01*
X105962261Y-110330675D01*
X105962265Y-110330678D01*
X106111057Y-110430098D01*
X106111061Y-110430100D01*
X106111064Y-110430102D01*
X106276400Y-110498587D01*
X106414975Y-110526151D01*
X106451916Y-110533499D01*
X106451920Y-110533500D01*
X106451921Y-110533500D01*
X106630880Y-110533500D01*
X106630881Y-110533499D01*
X106806400Y-110498587D01*
X106971736Y-110430102D01*
X107085036Y-110354397D01*
X107151713Y-110333520D01*
X107153926Y-110333500D01*
X110830200Y-110333500D01*
X110897239Y-110353185D01*
X110942994Y-110405989D01*
X110954200Y-110457500D01*
X110954200Y-110514483D01*
X110989111Y-110689992D01*
X110989113Y-110690000D01*
X111057596Y-110855332D01*
X111057601Y-110855342D01*
X111157021Y-111004134D01*
X111157024Y-111004138D01*
X111283561Y-111130675D01*
X111283565Y-111130678D01*
X111432357Y-111230098D01*
X111432361Y-111230100D01*
X111432364Y-111230102D01*
X111597700Y-111298587D01*
X111633406Y-111305689D01*
X111731345Y-111325171D01*
X111793256Y-111357556D01*
X111794835Y-111359107D01*
X112964456Y-112528728D01*
X113080498Y-112606264D01*
X113080499Y-112606265D01*
X113133904Y-112628385D01*
X113133906Y-112628386D01*
X113133907Y-112628386D01*
X113209438Y-112659673D01*
X113232277Y-112664216D01*
X113326841Y-112683026D01*
X113337959Y-112685237D01*
X113346318Y-112686900D01*
X135709982Y-112686900D01*
X135778421Y-112673286D01*
X135846862Y-112659673D01*
X135885875Y-112643513D01*
X135975801Y-112606265D01*
X136091843Y-112528728D01*
X139756265Y-108864304D01*
X139817586Y-108830821D01*
X139819653Y-108830390D01*
X139953400Y-108803787D01*
X140118736Y-108735302D01*
X140267535Y-108635878D01*
X140394078Y-108509335D01*
X140493502Y-108360536D01*
X140561987Y-108195200D01*
X140596900Y-108019679D01*
X140596900Y-107840721D01*
X140561987Y-107665200D01*
X140493502Y-107499864D01*
X140493500Y-107499861D01*
X140493498Y-107499857D01*
X140394078Y-107351065D01*
X140394075Y-107351061D01*
X140267538Y-107224524D01*
X140267534Y-107224521D01*
X140118742Y-107125101D01*
X140118732Y-107125096D01*
X139953400Y-107056613D01*
X139953392Y-107056611D01*
X139805929Y-107027279D01*
X139744018Y-106994894D01*
X139715559Y-106953114D01*
X139693505Y-106899870D01*
X139693498Y-106899857D01*
X139594078Y-106751065D01*
X139594075Y-106751061D01*
X139467538Y-106624524D01*
X139467534Y-106624521D01*
X139318742Y-106525101D01*
X139318732Y-106525096D01*
X139153400Y-106456613D01*
X139153394Y-106456611D01*
X139053416Y-106436724D01*
X138991505Y-106404339D01*
X138963047Y-106362560D01*
X138893503Y-106194666D01*
X138893498Y-106194657D01*
X138794078Y-106045865D01*
X138794075Y-106045861D01*
X138667538Y-105919324D01*
X138667534Y-105919321D01*
X138518742Y-105819901D01*
X138518732Y-105819896D01*
X138353400Y-105751413D01*
X138347568Y-105749644D01*
X138348140Y-105747757D01*
X138294273Y-105719563D01*
X138259714Y-105658839D01*
X138258781Y-105654546D01*
X138258703Y-105654159D01*
X138257861Y-105649921D01*
X138189376Y-105484585D01*
X138189374Y-105484582D01*
X138189372Y-105484578D01*
X138089952Y-105335786D01*
X138089949Y-105335782D01*
X137963412Y-105209245D01*
X137963408Y-105209242D01*
X137814616Y-105109822D01*
X137814606Y-105109817D01*
X137649274Y-105041334D01*
X137649266Y-105041332D01*
X137473757Y-105006421D01*
X137473753Y-105006421D01*
X137294795Y-105006421D01*
X137294790Y-105006421D01*
X137119281Y-105041332D01*
X137119273Y-105041334D01*
X136953941Y-105109817D01*
X136953931Y-105109822D01*
X136805139Y-105209242D01*
X136805135Y-105209245D01*
X136678598Y-105335782D01*
X136678595Y-105335786D01*
X136594669Y-105461391D01*
X136541057Y-105506196D01*
X136491567Y-105516500D01*
X133859833Y-105516500D01*
X133792794Y-105496815D01*
X133747039Y-105444011D01*
X133737095Y-105374853D01*
X133766120Y-105311297D01*
X133772152Y-105304819D01*
X134230910Y-104846061D01*
X136036194Y-103040775D01*
X136097515Y-103007292D01*
X136162190Y-103010526D01*
X136206884Y-103025049D01*
X136418084Y-103058500D01*
X136418085Y-103058500D01*
X136631915Y-103058500D01*
X136631916Y-103058500D01*
X136843116Y-103025049D01*
X137046483Y-102958972D01*
X137237009Y-102861894D01*
X137410004Y-102736206D01*
X137561206Y-102585004D01*
X137686894Y-102412009D01*
X137730614Y-102326203D01*
X137778587Y-102275409D01*
X137841098Y-102258500D01*
X139788857Y-102258500D01*
X139855896Y-102278185D01*
X139891958Y-102313607D01*
X139897122Y-102321336D01*
X140023661Y-102447875D01*
X140023665Y-102447878D01*
X140172457Y-102547298D01*
X140172461Y-102547300D01*
X140172464Y-102547302D01*
X140337800Y-102615787D01*
X140513316Y-102650699D01*
X140513320Y-102650700D01*
X140513321Y-102650700D01*
X140692280Y-102650700D01*
X140692281Y-102650699D01*
X140867800Y-102615787D01*
X141033136Y-102547302D01*
X141181935Y-102447878D01*
X141308478Y-102321335D01*
X141407902Y-102172536D01*
X141476387Y-102007200D01*
X141511300Y-101831679D01*
X141511300Y-101652721D01*
X141476387Y-101477200D01*
X141407902Y-101311864D01*
X141407900Y-101311861D01*
X141407898Y-101311857D01*
X141308478Y-101163065D01*
X141308475Y-101163061D01*
X141181938Y-101036524D01*
X141181934Y-101036521D01*
X141033142Y-100937101D01*
X141033132Y-100937096D01*
X140867800Y-100868613D01*
X140867792Y-100868611D01*
X140692283Y-100833700D01*
X140692279Y-100833700D01*
X140513321Y-100833700D01*
X140513320Y-100833700D01*
X140496512Y-100837043D01*
X140486086Y-100839117D01*
X140461896Y-100841500D01*
X137841098Y-100841500D01*
X137774059Y-100821815D01*
X137730613Y-100773795D01*
X137686894Y-100687991D01*
X137561206Y-100514996D01*
X137410004Y-100363794D01*
X137237009Y-100238106D01*
X137177303Y-100207684D01*
X137046483Y-100141027D01*
X137046480Y-100141026D01*
X136843117Y-100074951D01*
X136737516Y-100058225D01*
X136631916Y-100041500D01*
X136418084Y-100041500D01*
X136364411Y-100050001D01*
X136206882Y-100074951D01*
X136003519Y-100141026D01*
X136003516Y-100141027D01*
X135812990Y-100238106D01*
X135639997Y-100363793D01*
X135501719Y-100502071D01*
X135440396Y-100535555D01*
X135370704Y-100530571D01*
X135314771Y-100488699D01*
X135308499Y-100479486D01*
X135217315Y-100331654D01*
X135093345Y-100207684D01*
X134944124Y-100115643D01*
X134944119Y-100115641D01*
X134777697Y-100060494D01*
X134777690Y-100060493D01*
X134674986Y-100050000D01*
X134275000Y-100050000D01*
X134275000Y-101116988D01*
X134217993Y-101084075D01*
X134090826Y-101050000D01*
X133959174Y-101050000D01*
X133832007Y-101084075D01*
X133775000Y-101116988D01*
X133775000Y-100050000D01*
X133375028Y-100050000D01*
X133375012Y-100050001D01*
X133272302Y-100060494D01*
X133105880Y-100115641D01*
X133105875Y-100115643D01*
X132956654Y-100207684D01*
X132832684Y-100331654D01*
X132740643Y-100480875D01*
X132740641Y-100480880D01*
X132685494Y-100647302D01*
X132685493Y-100647309D01*
X132675000Y-100750013D01*
X132675000Y-101300000D01*
X133591988Y-101300000D01*
X133559075Y-101357007D01*
X133525000Y-101484174D01*
X133525000Y-101615826D01*
X133559075Y-101742993D01*
X133591988Y-101800000D01*
X132675001Y-101800000D01*
X132675001Y-102349986D01*
X132685494Y-102452697D01*
X132733615Y-102597915D01*
X132736017Y-102667743D01*
X132700285Y-102727785D01*
X132637765Y-102758978D01*
X132568305Y-102751417D01*
X132528228Y-102724600D01*
X132431738Y-102628110D01*
X132431734Y-102628107D01*
X132282942Y-102528687D01*
X132282932Y-102528682D01*
X132117600Y-102460199D01*
X132117592Y-102460197D01*
X131942083Y-102425286D01*
X131942079Y-102425286D01*
X131763121Y-102425286D01*
X131763116Y-102425286D01*
X131587607Y-102460197D01*
X131587599Y-102460199D01*
X131422267Y-102528682D01*
X131422257Y-102528687D01*
X131273465Y-102628107D01*
X131273461Y-102628110D01*
X131146924Y-102754647D01*
X131146921Y-102754651D01*
X131047501Y-102903443D01*
X131047496Y-102903453D01*
X130979013Y-103068785D01*
X130979011Y-103068793D01*
X130952429Y-103202431D01*
X130920044Y-103264342D01*
X130918493Y-103265921D01*
X130504234Y-103680181D01*
X130442911Y-103713666D01*
X130416553Y-103716500D01*
X121891200Y-103716500D01*
X121824161Y-103696815D01*
X121778406Y-103644011D01*
X121767200Y-103592500D01*
X121767200Y-103535520D01*
X121767199Y-103535516D01*
X121753758Y-103467942D01*
X121732287Y-103360000D01*
X121663802Y-103194664D01*
X121663800Y-103194661D01*
X121663798Y-103194657D01*
X121564378Y-103045865D01*
X121564375Y-103045861D01*
X121437838Y-102919324D01*
X121437834Y-102919321D01*
X121289042Y-102819901D01*
X121289032Y-102819896D01*
X121123700Y-102751413D01*
X121123692Y-102751411D01*
X120948183Y-102716500D01*
X120948179Y-102716500D01*
X120769221Y-102716500D01*
X120769216Y-102716500D01*
X120593707Y-102751411D01*
X120593699Y-102751413D01*
X120428367Y-102819896D01*
X120428357Y-102819901D01*
X120279565Y-102919321D01*
X120279561Y-102919324D01*
X120153024Y-103045861D01*
X120153020Y-103045866D01*
X120142649Y-103061389D01*
X120089038Y-103106195D01*
X120039546Y-103116500D01*
X119727600Y-103116500D01*
X119660561Y-103096815D01*
X119614806Y-103044011D01*
X119604862Y-102974853D01*
X119633887Y-102911297D01*
X119639919Y-102904819D01*
X120475325Y-102069412D01*
X120475324Y-102069412D01*
X120475328Y-102069409D01*
X120552865Y-101953367D01*
X120577908Y-101892908D01*
X120598095Y-101844172D01*
X120598096Y-101844168D01*
X120606273Y-101824429D01*
X120633500Y-101687548D01*
X120633500Y-100137525D01*
X120653185Y-100070487D01*
X120654398Y-100068635D01*
X120730098Y-99955342D01*
X120730098Y-99955341D01*
X120730102Y-99955336D01*
X120798587Y-99790000D01*
X120833500Y-99614479D01*
X120833500Y-99435521D01*
X120798587Y-99260000D01*
X120730102Y-99094664D01*
X120730100Y-99094661D01*
X120730098Y-99094657D01*
X120630678Y-98945865D01*
X120630675Y-98945861D01*
X120504138Y-98819324D01*
X120504134Y-98819321D01*
X120355342Y-98719901D01*
X120355332Y-98719896D01*
X120190000Y-98651413D01*
X120189992Y-98651411D01*
X120014483Y-98616500D01*
X120014479Y-98616500D01*
X119835521Y-98616500D01*
X119835516Y-98616500D01*
X119660007Y-98651411D01*
X119659999Y-98651413D01*
X119489742Y-98721936D01*
X119420272Y-98729405D01*
X119357793Y-98698130D01*
X119339723Y-98674636D01*
X119338687Y-98675329D01*
X119235878Y-98521465D01*
X119235875Y-98521461D01*
X119109338Y-98394924D01*
X119109334Y-98394921D01*
X118960542Y-98295501D01*
X118960532Y-98295496D01*
X118795200Y-98227013D01*
X118795192Y-98227011D01*
X118619683Y-98192100D01*
X118619679Y-98192100D01*
X118440721Y-98192100D01*
X118440716Y-98192100D01*
X118265207Y-98227011D01*
X118265199Y-98227013D01*
X118099867Y-98295496D01*
X118099856Y-98295502D01*
X118081672Y-98307652D01*
X118014994Y-98328528D01*
X117947615Y-98310042D01*
X117900926Y-98258062D01*
X117889751Y-98189091D01*
X117917639Y-98125029D01*
X117925103Y-98116867D01*
X118625325Y-97416645D01*
X118625324Y-97416645D01*
X118625328Y-97416642D01*
X118702865Y-97300601D01*
X118756273Y-97171661D01*
X118783500Y-97034781D01*
X118783500Y-96895218D01*
X118783500Y-95677625D01*
X118803185Y-95610586D01*
X118834614Y-95577307D01*
X118960004Y-95486206D01*
X119111206Y-95335004D01*
X119236894Y-95162009D01*
X119267672Y-95101603D01*
X119315645Y-95050809D01*
X119378156Y-95033900D01*
X120762474Y-95033900D01*
X120829513Y-95053585D01*
X120831327Y-95054773D01*
X120944664Y-95130502D01*
X121110000Y-95198987D01*
X121285516Y-95233899D01*
X121285520Y-95233900D01*
X121285521Y-95233900D01*
X121464480Y-95233900D01*
X121464481Y-95233899D01*
X121640000Y-95198987D01*
X121805336Y-95130502D01*
X121954135Y-95031078D01*
X122080678Y-94904535D01*
X122180102Y-94755736D01*
X122248587Y-94590400D01*
X122259873Y-94533661D01*
X122271652Y-94474447D01*
X122283499Y-94414883D01*
X122283500Y-94414880D01*
X122283500Y-94235920D01*
X122283499Y-94235916D01*
X122248587Y-94060400D01*
X122180102Y-93895064D01*
X122180100Y-93895061D01*
X122180098Y-93895057D01*
X122080678Y-93746265D01*
X122080675Y-93746261D01*
X121954138Y-93619724D01*
X121954134Y-93619721D01*
X121924569Y-93599966D01*
X121805342Y-93520301D01*
X121805332Y-93520296D01*
X121756365Y-93500013D01*
X132675000Y-93500013D01*
X132675000Y-94050000D01*
X133591988Y-94050000D01*
X133559075Y-94107007D01*
X133525000Y-94234174D01*
X133525000Y-94365826D01*
X133559075Y-94492993D01*
X133591988Y-94550000D01*
X132675001Y-94550000D01*
X132675001Y-95099986D01*
X132685494Y-95202697D01*
X132740641Y-95369119D01*
X132740643Y-95369124D01*
X132832684Y-95518345D01*
X132956654Y-95642315D01*
X133105875Y-95734356D01*
X133105880Y-95734358D01*
X133272302Y-95789505D01*
X133272309Y-95789506D01*
X133375019Y-95799999D01*
X133774999Y-95799999D01*
X133775000Y-95799998D01*
X133775000Y-94733012D01*
X133832007Y-94765925D01*
X133959174Y-94800000D01*
X134090826Y-94800000D01*
X134217993Y-94765925D01*
X134275000Y-94733012D01*
X134275000Y-95799999D01*
X134674972Y-95799999D01*
X134674986Y-95799998D01*
X134777697Y-95789505D01*
X134944119Y-95734358D01*
X134944124Y-95734356D01*
X135093345Y-95642315D01*
X135217315Y-95518345D01*
X135308499Y-95370513D01*
X135360447Y-95323789D01*
X135429410Y-95312566D01*
X135493492Y-95340410D01*
X135501719Y-95347929D01*
X135639996Y-95486206D01*
X135812991Y-95611894D01*
X135887443Y-95649829D01*
X136003516Y-95708972D01*
X136003519Y-95708973D01*
X136081642Y-95734356D01*
X136206884Y-95775049D01*
X136418084Y-95808500D01*
X136418085Y-95808500D01*
X136631915Y-95808500D01*
X136631916Y-95808500D01*
X136843116Y-95775049D01*
X137046483Y-95708972D01*
X137237009Y-95611894D01*
X137410004Y-95486206D01*
X137561206Y-95335004D01*
X137686894Y-95162009D01*
X137730614Y-95076203D01*
X137778587Y-95025409D01*
X137841098Y-95008500D01*
X139747924Y-95008500D01*
X139814963Y-95028185D01*
X139843775Y-95053833D01*
X139846320Y-95056934D01*
X139972861Y-95183475D01*
X139972865Y-95183478D01*
X140121657Y-95282898D01*
X140121661Y-95282900D01*
X140121664Y-95282902D01*
X140287000Y-95351387D01*
X140462516Y-95386299D01*
X140462520Y-95386300D01*
X140462521Y-95386300D01*
X140641480Y-95386300D01*
X140641481Y-95386299D01*
X140817000Y-95351387D01*
X140982336Y-95282902D01*
X141131135Y-95183478D01*
X141257678Y-95056935D01*
X141357102Y-94908136D01*
X141425587Y-94742800D01*
X141460500Y-94567279D01*
X141460500Y-94388321D01*
X141425587Y-94212800D01*
X141357102Y-94047464D01*
X141357100Y-94047461D01*
X141357098Y-94047457D01*
X141257678Y-93898665D01*
X141257675Y-93898661D01*
X141131138Y-93772124D01*
X141131134Y-93772121D01*
X140982342Y-93672701D01*
X140982332Y-93672696D01*
X140817000Y-93604213D01*
X140816992Y-93604211D01*
X140641483Y-93569300D01*
X140641479Y-93569300D01*
X140462521Y-93569300D01*
X140462517Y-93569300D01*
X140362893Y-93589117D01*
X140338702Y-93591500D01*
X137841098Y-93591500D01*
X137774059Y-93571815D01*
X137730613Y-93523795D01*
X137728833Y-93520301D01*
X137686894Y-93437991D01*
X137561206Y-93264996D01*
X137410004Y-93113794D01*
X137237009Y-92988106D01*
X137177303Y-92957684D01*
X137046483Y-92891027D01*
X137046480Y-92891026D01*
X136843117Y-92824951D01*
X136737516Y-92808225D01*
X136631916Y-92791500D01*
X136418084Y-92791500D01*
X136364411Y-92800001D01*
X136206882Y-92824951D01*
X136003519Y-92891026D01*
X136003516Y-92891027D01*
X135812990Y-92988106D01*
X135639997Y-93113793D01*
X135501719Y-93252071D01*
X135440396Y-93285555D01*
X135370704Y-93280571D01*
X135314771Y-93238699D01*
X135308499Y-93229486D01*
X135217315Y-93081654D01*
X135093345Y-92957684D01*
X134944124Y-92865643D01*
X134944119Y-92865641D01*
X134777697Y-92810494D01*
X134777690Y-92810493D01*
X134674986Y-92800000D01*
X134275000Y-92800000D01*
X134275000Y-93866988D01*
X134217993Y-93834075D01*
X134090826Y-93800000D01*
X133959174Y-93800000D01*
X133832007Y-93834075D01*
X133775000Y-93866988D01*
X133775000Y-92800000D01*
X133375028Y-92800000D01*
X133375012Y-92800001D01*
X133272302Y-92810494D01*
X133105880Y-92865641D01*
X133105875Y-92865643D01*
X132956654Y-92957684D01*
X132832684Y-93081654D01*
X132740643Y-93230875D01*
X132740641Y-93230880D01*
X132685494Y-93397302D01*
X132685493Y-93397309D01*
X132675000Y-93500013D01*
X121756365Y-93500013D01*
X121645809Y-93454219D01*
X121591406Y-93410378D01*
X121569341Y-93344083D01*
X121578700Y-93292208D01*
X121598587Y-93244200D01*
X121633500Y-93068679D01*
X121633500Y-92889721D01*
X121598587Y-92714200D01*
X121530102Y-92548864D01*
X121530100Y-92548861D01*
X121530098Y-92548857D01*
X121430678Y-92400065D01*
X121430675Y-92400061D01*
X121304138Y-92273524D01*
X121304134Y-92273521D01*
X121155342Y-92174101D01*
X121155332Y-92174096D01*
X120990000Y-92105613D01*
X120989992Y-92105611D01*
X120814483Y-92070700D01*
X120814479Y-92070700D01*
X120635521Y-92070700D01*
X120635516Y-92070700D01*
X120460007Y-92105611D01*
X120459999Y-92105613D01*
X120294663Y-92174097D01*
X120289498Y-92176859D01*
X120231046Y-92191500D01*
X116715878Y-92191500D01*
X116648839Y-92171815D01*
X116603084Y-92119011D01*
X116593140Y-92049853D01*
X116601318Y-92020046D01*
X116609785Y-91999605D01*
X116609785Y-91999604D01*
X116609787Y-91999600D01*
X116644700Y-91824079D01*
X116644700Y-91645121D01*
X116609787Y-91469600D01*
X116541302Y-91304264D01*
X116541300Y-91304261D01*
X116541298Y-91304257D01*
X116441878Y-91155465D01*
X116441875Y-91155461D01*
X116315338Y-91028924D01*
X116315334Y-91028921D01*
X116186747Y-90943002D01*
X116141942Y-90889390D01*
X116133235Y-90820065D01*
X116163389Y-90757038D01*
X116222832Y-90720318D01*
X116255638Y-90715900D01*
X116542584Y-90715900D01*
X116576645Y-90709124D01*
X116631239Y-90698265D01*
X116679462Y-90688673D01*
X116717227Y-90673030D01*
X116808401Y-90635265D01*
X116924443Y-90557728D01*
X116924452Y-90557718D01*
X116929153Y-90553862D01*
X116930605Y-90555631D01*
X116982947Y-90527029D01*
X116985073Y-90526585D01*
X117118800Y-90499987D01*
X117284136Y-90431502D01*
X117432935Y-90332078D01*
X117559478Y-90205535D01*
X117658902Y-90056736D01*
X117727387Y-89891400D01*
X117762300Y-89715879D01*
X117762300Y-89536921D01*
X117727387Y-89361400D01*
X117658902Y-89196064D01*
X117658900Y-89196061D01*
X117658898Y-89196057D01*
X117559478Y-89047265D01*
X117559475Y-89047261D01*
X117432272Y-88920058D01*
X117427933Y-88912112D01*
X117420686Y-88906687D01*
X117411451Y-88881927D01*
X117398787Y-88858735D01*
X117399432Y-88849705D01*
X117396269Y-88841223D01*
X117401885Y-88815402D01*
X117403771Y-88789043D01*
X117409589Y-88779989D01*
X117411121Y-88772950D01*
X117432267Y-88744702D01*
X117586193Y-88590775D01*
X117647514Y-88557292D01*
X117712189Y-88560526D01*
X117756884Y-88575049D01*
X117968084Y-88608500D01*
X117968085Y-88608500D01*
X118181915Y-88608500D01*
X118181916Y-88608500D01*
X118393116Y-88575049D01*
X118589146Y-88511355D01*
X118596480Y-88508973D01*
X118596483Y-88508972D01*
X118612665Y-88500727D01*
X118787009Y-88411894D01*
X118960004Y-88286206D01*
X119111206Y-88135004D01*
X119236894Y-87962009D01*
X119333972Y-87771483D01*
X119336240Y-87764503D01*
X119339789Y-87753582D01*
X119379226Y-87695907D01*
X119443585Y-87668708D01*
X119457720Y-87667900D01*
X121194274Y-87667900D01*
X121261313Y-87687585D01*
X121263127Y-87688773D01*
X121376464Y-87764502D01*
X121541800Y-87832987D01*
X121717316Y-87867899D01*
X121717320Y-87867900D01*
X121717321Y-87867900D01*
X121896280Y-87867900D01*
X121896281Y-87867899D01*
X122071800Y-87832987D01*
X122237136Y-87764502D01*
X122385935Y-87665078D01*
X122512478Y-87538535D01*
X122611902Y-87389736D01*
X122680387Y-87224400D01*
X122715300Y-87048879D01*
X122715300Y-86869921D01*
X122680387Y-86694400D01*
X122611902Y-86529064D01*
X122611900Y-86529061D01*
X122611898Y-86529057D01*
X122512478Y-86380265D01*
X122512475Y-86380261D01*
X122432227Y-86300013D01*
X132675000Y-86300013D01*
X132675000Y-86850000D01*
X133591988Y-86850000D01*
X133559075Y-86907007D01*
X133525000Y-87034174D01*
X133525000Y-87165826D01*
X133559075Y-87292993D01*
X133591988Y-87350000D01*
X132675001Y-87350000D01*
X132675001Y-87899986D01*
X132685494Y-88002697D01*
X132740641Y-88169119D01*
X132740643Y-88169124D01*
X132832684Y-88318345D01*
X132956654Y-88442315D01*
X133105875Y-88534356D01*
X133105880Y-88534358D01*
X133272302Y-88589505D01*
X133272309Y-88589506D01*
X133375019Y-88599999D01*
X133774999Y-88599999D01*
X133775000Y-88599998D01*
X133775000Y-87533012D01*
X133832007Y-87565925D01*
X133959174Y-87600000D01*
X134090826Y-87600000D01*
X134217993Y-87565925D01*
X134275000Y-87533012D01*
X134275000Y-88599999D01*
X134674972Y-88599999D01*
X134674986Y-88599998D01*
X134777697Y-88589505D01*
X134944119Y-88534358D01*
X134944124Y-88534356D01*
X135093345Y-88442315D01*
X135217315Y-88318345D01*
X135308499Y-88170513D01*
X135360447Y-88123789D01*
X135429410Y-88112566D01*
X135493492Y-88140410D01*
X135501719Y-88147929D01*
X135639996Y-88286206D01*
X135812991Y-88411894D01*
X135906438Y-88459507D01*
X136003516Y-88508972D01*
X136003519Y-88508973D01*
X136081642Y-88534356D01*
X136206884Y-88575049D01*
X136418084Y-88608500D01*
X136418085Y-88608500D01*
X136631915Y-88608500D01*
X136631916Y-88608500D01*
X136843116Y-88575049D01*
X137039146Y-88511355D01*
X137046480Y-88508973D01*
X137046483Y-88508972D01*
X137062665Y-88500727D01*
X137237009Y-88411894D01*
X137410004Y-88286206D01*
X137561206Y-88135004D01*
X137686894Y-87962009D01*
X137730614Y-87876203D01*
X137778587Y-87825409D01*
X137841098Y-87808500D01*
X139534968Y-87808500D01*
X139602007Y-87828185D01*
X139622650Y-87844820D01*
X139668554Y-87890725D01*
X139668558Y-87890728D01*
X139784599Y-87968265D01*
X139784600Y-87968265D01*
X139784601Y-87968266D01*
X139784603Y-87968267D01*
X139867725Y-88002697D01*
X139875772Y-88006030D01*
X139913538Y-88021673D01*
X139950821Y-88029088D01*
X139994146Y-88037707D01*
X140038846Y-88056222D01*
X140172457Y-88145498D01*
X140172461Y-88145500D01*
X140172464Y-88145502D01*
X140337800Y-88213987D01*
X140513316Y-88248899D01*
X140513320Y-88248900D01*
X140513321Y-88248900D01*
X140692280Y-88248900D01*
X140692281Y-88248899D01*
X140867800Y-88213987D01*
X141033136Y-88145502D01*
X141181935Y-88046078D01*
X141308478Y-87919535D01*
X141407902Y-87770736D01*
X141476387Y-87605400D01*
X141511300Y-87429879D01*
X141511300Y-87250921D01*
X141476387Y-87075400D01*
X141407902Y-86910064D01*
X141407900Y-86910061D01*
X141407898Y-86910057D01*
X141308478Y-86761265D01*
X141308475Y-86761261D01*
X141181938Y-86634724D01*
X141181934Y-86634721D01*
X141033142Y-86535301D01*
X141033132Y-86535296D01*
X140867800Y-86466813D01*
X140867792Y-86466811D01*
X140692283Y-86431900D01*
X140692279Y-86431900D01*
X140513321Y-86431900D01*
X140513316Y-86431900D01*
X140337807Y-86466810D01*
X140337798Y-86466813D01*
X140317411Y-86475258D01*
X140286817Y-86478546D01*
X140256530Y-86483966D01*
X140251333Y-86482360D01*
X140247941Y-86482725D01*
X140222344Y-86475189D01*
X140216060Y-86472575D01*
X140215401Y-86472135D01*
X140116777Y-86431284D01*
X140116611Y-86431215D01*
X140086462Y-86418727D01*
X140086454Y-86418725D01*
X140018021Y-86405113D01*
X139949585Y-86391500D01*
X139949582Y-86391500D01*
X139949581Y-86391500D01*
X137841098Y-86391500D01*
X137774059Y-86371815D01*
X137730613Y-86323795D01*
X137686894Y-86237991D01*
X137561206Y-86064996D01*
X137410004Y-85913794D01*
X137237009Y-85788106D01*
X137177303Y-85757684D01*
X137046483Y-85691027D01*
X137046480Y-85691026D01*
X136843117Y-85624951D01*
X136737516Y-85608225D01*
X136631916Y-85591500D01*
X136418084Y-85591500D01*
X136364411Y-85600001D01*
X136206882Y-85624951D01*
X136003519Y-85691026D01*
X136003516Y-85691027D01*
X135812990Y-85788106D01*
X135639997Y-85913793D01*
X135501719Y-86052071D01*
X135440396Y-86085555D01*
X135370704Y-86080571D01*
X135314771Y-86038699D01*
X135308499Y-86029486D01*
X135217315Y-85881654D01*
X135093345Y-85757684D01*
X134944124Y-85665643D01*
X134944119Y-85665641D01*
X134777697Y-85610494D01*
X134777690Y-85610493D01*
X134674986Y-85600000D01*
X134275000Y-85600000D01*
X134275000Y-86666988D01*
X134217993Y-86634075D01*
X134090826Y-86600000D01*
X133959174Y-86600000D01*
X133832007Y-86634075D01*
X133775000Y-86666988D01*
X133775000Y-85600000D01*
X133375028Y-85600000D01*
X133375012Y-85600001D01*
X133272302Y-85610494D01*
X133105880Y-85665641D01*
X133105875Y-85665643D01*
X132956654Y-85757684D01*
X132832684Y-85881654D01*
X132740643Y-86030875D01*
X132740641Y-86030880D01*
X132685494Y-86197302D01*
X132685493Y-86197309D01*
X132675000Y-86300013D01*
X122432227Y-86300013D01*
X122385938Y-86253724D01*
X122385934Y-86253721D01*
X122237142Y-86154301D01*
X122237132Y-86154296D01*
X122071800Y-86085813D01*
X122071792Y-86085811D01*
X121896283Y-86050900D01*
X121896279Y-86050900D01*
X121717321Y-86050900D01*
X121717316Y-86050900D01*
X121541807Y-86085811D01*
X121541799Y-86085813D01*
X121376464Y-86154297D01*
X121312093Y-86197309D01*
X121263163Y-86230002D01*
X121196487Y-86250880D01*
X121194274Y-86250900D01*
X119309454Y-86250900D01*
X119242415Y-86231215D01*
X119209136Y-86199785D01*
X119111208Y-86064999D01*
X119111203Y-86064993D01*
X118960006Y-85913796D01*
X118960004Y-85913794D01*
X118787009Y-85788106D01*
X118727303Y-85757684D01*
X118596483Y-85691027D01*
X118596480Y-85691026D01*
X118393117Y-85624951D01*
X118287516Y-85608225D01*
X118181916Y-85591500D01*
X117968084Y-85591500D01*
X117914411Y-85600001D01*
X117756882Y-85624951D01*
X117553519Y-85691026D01*
X117553516Y-85691027D01*
X117362990Y-85788106D01*
X117189997Y-85913793D01*
X117051719Y-86052071D01*
X116990396Y-86085555D01*
X116920704Y-86080571D01*
X116864771Y-86038699D01*
X116858499Y-86029486D01*
X116767315Y-85881654D01*
X116643345Y-85757684D01*
X116494124Y-85665643D01*
X116494119Y-85665641D01*
X116327697Y-85610494D01*
X116327690Y-85610493D01*
X116224986Y-85600000D01*
X115825000Y-85600000D01*
X115825000Y-86666988D01*
X115767993Y-86634075D01*
X115640826Y-86600000D01*
X115509174Y-86600000D01*
X115382007Y-86634075D01*
X115325000Y-86666988D01*
X115325000Y-85600000D01*
X114925028Y-85600000D01*
X114925012Y-85600001D01*
X114822302Y-85610494D01*
X114655880Y-85665641D01*
X114655875Y-85665643D01*
X114506654Y-85757684D01*
X114382684Y-85881654D01*
X114290643Y-86030875D01*
X114290641Y-86030880D01*
X114235494Y-86197302D01*
X114235493Y-86197309D01*
X114225000Y-86300013D01*
X114225000Y-86850000D01*
X115141988Y-86850000D01*
X115109075Y-86907007D01*
X115075000Y-87034174D01*
X115075000Y-87165826D01*
X115109075Y-87292993D01*
X115141988Y-87350000D01*
X114225001Y-87350000D01*
X114225001Y-87899986D01*
X114235494Y-88002697D01*
X114290641Y-88169119D01*
X114290643Y-88169124D01*
X114382684Y-88318345D01*
X114491158Y-88426819D01*
X114524643Y-88488142D01*
X114519659Y-88557834D01*
X114477787Y-88613767D01*
X114412323Y-88638184D01*
X114403477Y-88638500D01*
X111995048Y-88638500D01*
X111980943Y-88634952D01*
X111969546Y-88635849D01*
X111947292Y-88626490D01*
X111936391Y-88623749D01*
X111931124Y-88620921D01*
X111831172Y-88554135D01*
X111729974Y-88512218D01*
X111724236Y-88509841D01*
X111702236Y-88500728D01*
X111702226Y-88500725D01*
X111650926Y-88490521D01*
X111633792Y-88487113D01*
X111565353Y-88473500D01*
X111565352Y-88473500D01*
X111550872Y-88473500D01*
X111540847Y-88471846D01*
X111518157Y-88460910D01*
X111493994Y-88453815D01*
X111487222Y-88446000D01*
X111477906Y-88441510D01*
X111464730Y-88420043D01*
X111448239Y-88401011D01*
X111446767Y-88390775D01*
X111441358Y-88381962D01*
X111441879Y-88356782D01*
X111438295Y-88331853D01*
X111442590Y-88322446D01*
X111442805Y-88312108D01*
X111456857Y-88291207D01*
X111467320Y-88268297D01*
X111473352Y-88261819D01*
X113525989Y-86209183D01*
X114533925Y-85201246D01*
X114533928Y-85201243D01*
X114611465Y-85085201D01*
X114664873Y-84956261D01*
X114666613Y-84947516D01*
X114684916Y-84855500D01*
X114692100Y-84819382D01*
X114692100Y-84679819D01*
X114692100Y-84679818D01*
X114692100Y-84142926D01*
X114711785Y-84075887D01*
X114712998Y-84074035D01*
X114788698Y-83960742D01*
X114788698Y-83960741D01*
X114788702Y-83960736D01*
X114857187Y-83795400D01*
X114892100Y-83619879D01*
X114892100Y-83440921D01*
X114857187Y-83265400D01*
X114788702Y-83100064D01*
X114788700Y-83100061D01*
X114788698Y-83100057D01*
X114689278Y-82951265D01*
X114689275Y-82951261D01*
X114562738Y-82824724D01*
X114562734Y-82824721D01*
X114413942Y-82725301D01*
X114413932Y-82725296D01*
X114248600Y-82656813D01*
X114248592Y-82656811D01*
X114073083Y-82621900D01*
X114073079Y-82621900D01*
X113894121Y-82621900D01*
X113894116Y-82621900D01*
X113718607Y-82656811D01*
X113718599Y-82656813D01*
X113553267Y-82725296D01*
X113553257Y-82725301D01*
X113404465Y-82824721D01*
X113404461Y-82824724D01*
X113277924Y-82951261D01*
X113277921Y-82951265D01*
X113178501Y-83100057D01*
X113178496Y-83100067D01*
X113110013Y-83265399D01*
X113110011Y-83265407D01*
X113075100Y-83440916D01*
X113075100Y-83619883D01*
X113110011Y-83795392D01*
X113110013Y-83795400D01*
X113178496Y-83960732D01*
X113178501Y-83960742D01*
X113254202Y-84074035D01*
X113275080Y-84140712D01*
X113275100Y-84142926D01*
X113275100Y-84404766D01*
X113255415Y-84471805D01*
X113238781Y-84492447D01*
X112063402Y-85667826D01*
X112002079Y-85701311D01*
X111932387Y-85696327D01*
X111888040Y-85667826D01*
X111762738Y-85542524D01*
X111762734Y-85542521D01*
X111613942Y-85443101D01*
X111613932Y-85443096D01*
X111448600Y-85374613D01*
X111448592Y-85374611D01*
X111273083Y-85339700D01*
X111273079Y-85339700D01*
X111094121Y-85339700D01*
X111094116Y-85339700D01*
X110918607Y-85374611D01*
X110918599Y-85374613D01*
X110753267Y-85443096D01*
X110753257Y-85443101D01*
X110604465Y-85542521D01*
X110604461Y-85542524D01*
X110477924Y-85669061D01*
X110477921Y-85669065D01*
X110378501Y-85817857D01*
X110378496Y-85817867D01*
X110310011Y-85983204D01*
X110309435Y-85985104D01*
X110308863Y-85985976D01*
X110307682Y-85988828D01*
X110307140Y-85988603D01*
X110271133Y-86043540D01*
X110207318Y-86071992D01*
X110190777Y-86073100D01*
X109239123Y-86073100D01*
X109172084Y-86053415D01*
X109126329Y-86000611D01*
X109116385Y-85931453D01*
X109117506Y-85924909D01*
X109141499Y-85804283D01*
X109141500Y-85804280D01*
X109141500Y-85625320D01*
X109141499Y-85625316D01*
X109106588Y-85449807D01*
X109106587Y-85449800D01*
X109038102Y-85284464D01*
X109038100Y-85284461D01*
X109038098Y-85284457D01*
X108935294Y-85130600D01*
X108936661Y-85129686D01*
X108912447Y-85072675D01*
X108924237Y-85003807D01*
X108947927Y-84970643D01*
X110520865Y-83397704D01*
X110582186Y-83364221D01*
X110584253Y-83363790D01*
X110718000Y-83337187D01*
X110883336Y-83268702D01*
X111032135Y-83169278D01*
X111158678Y-83042735D01*
X111258102Y-82893936D01*
X111326587Y-82728600D01*
X111361500Y-82553079D01*
X111361500Y-82374121D01*
X111326587Y-82198600D01*
X111258102Y-82033264D01*
X111258100Y-82033261D01*
X111258098Y-82033257D01*
X111158678Y-81884465D01*
X111158675Y-81884461D01*
X111032138Y-81757924D01*
X111032134Y-81757921D01*
X110883342Y-81658501D01*
X110883332Y-81658496D01*
X110718000Y-81590013D01*
X110717992Y-81590011D01*
X110542483Y-81555100D01*
X110542479Y-81555100D01*
X110363521Y-81555100D01*
X110363516Y-81555100D01*
X110188007Y-81590011D01*
X110187999Y-81590013D01*
X110022667Y-81658496D01*
X110022657Y-81658501D01*
X109873865Y-81757921D01*
X109873861Y-81757924D01*
X109747324Y-81884461D01*
X109747321Y-81884465D01*
X109647901Y-82033257D01*
X109647896Y-82033267D01*
X109579413Y-82198599D01*
X109579411Y-82198607D01*
X109552829Y-82332244D01*
X109520444Y-82394155D01*
X109518893Y-82395734D01*
X107909848Y-84004781D01*
X107848525Y-84038266D01*
X107822167Y-84041100D01*
X101020233Y-84041100D01*
X100953194Y-84021415D01*
X100907439Y-83968611D01*
X100897495Y-83899453D01*
X100926520Y-83835897D01*
X100932552Y-83829419D01*
X102391752Y-82370219D01*
X102453075Y-82336734D01*
X102479433Y-82333900D01*
X106932074Y-82333900D01*
X106999113Y-82353585D01*
X107000927Y-82354773D01*
X107114264Y-82430502D01*
X107279600Y-82498987D01*
X107455116Y-82533899D01*
X107455120Y-82533900D01*
X107455121Y-82533900D01*
X107634080Y-82533900D01*
X107634081Y-82533899D01*
X107809600Y-82498987D01*
X107974936Y-82430502D01*
X108123735Y-82331078D01*
X108250278Y-82204535D01*
X108349702Y-82055736D01*
X108418187Y-81890400D01*
X108453100Y-81714879D01*
X108453100Y-81535921D01*
X108418187Y-81360400D01*
X108349702Y-81195064D01*
X108349700Y-81195061D01*
X108349698Y-81195057D01*
X108250278Y-81046265D01*
X108250275Y-81046261D01*
X108123738Y-80919724D01*
X108123734Y-80919721D01*
X107974942Y-80820301D01*
X107974932Y-80820296D01*
X107809600Y-80751813D01*
X107809592Y-80751811D01*
X107634083Y-80716900D01*
X107634079Y-80716900D01*
X107455121Y-80716900D01*
X107455116Y-80716900D01*
X107279607Y-80751811D01*
X107279599Y-80751813D01*
X107114264Y-80820297D01*
X107038457Y-80870949D01*
X107000963Y-80896002D01*
X106934287Y-80916880D01*
X106932074Y-80916900D01*
X102064814Y-80916900D01*
X101927941Y-80944125D01*
X101927940Y-80944126D01*
X101890173Y-80959768D01*
X101890172Y-80959769D01*
X101806202Y-80994551D01*
X101798994Y-80997537D01*
X101682961Y-81075068D01*
X101682953Y-81075074D01*
X99742534Y-83015493D01*
X99681211Y-83048978D01*
X99679044Y-83049429D01*
X99545407Y-83076011D01*
X99545399Y-83076013D01*
X99380067Y-83144496D01*
X99380059Y-83144500D01*
X99336990Y-83173278D01*
X99270312Y-83194155D01*
X99202932Y-83175670D01*
X99156242Y-83123690D01*
X99144100Y-83070175D01*
X99144100Y-83059920D01*
X99144099Y-83059916D01*
X99140682Y-83042738D01*
X99109187Y-82884400D01*
X99040702Y-82719064D01*
X99040700Y-82719061D01*
X99040698Y-82719057D01*
X98941278Y-82570265D01*
X98941275Y-82570261D01*
X98814738Y-82443724D01*
X98814734Y-82443721D01*
X98665942Y-82344301D01*
X98665932Y-82344296D01*
X98500600Y-82275813D01*
X98500592Y-82275811D01*
X98325083Y-82240900D01*
X98325079Y-82240900D01*
X98146121Y-82240900D01*
X98146116Y-82240900D01*
X97970607Y-82275811D01*
X97970599Y-82275813D01*
X97872633Y-82316392D01*
X97837180Y-82331078D01*
X97836255Y-82331461D01*
X97788802Y-82340900D01*
X89817798Y-82340900D01*
X89770345Y-82331461D01*
X89769420Y-82331078D01*
X89636000Y-82275813D01*
X89635992Y-82275811D01*
X89460483Y-82240900D01*
X89460479Y-82240900D01*
X89281521Y-82240900D01*
X89281516Y-82240900D01*
X89106007Y-82275811D01*
X89105999Y-82275813D01*
X88940667Y-82344296D01*
X88940657Y-82344301D01*
X88791865Y-82443721D01*
X88791861Y-82443724D01*
X88665324Y-82570261D01*
X88665321Y-82570265D01*
X88565901Y-82719057D01*
X88565896Y-82719067D01*
X88497413Y-82884399D01*
X88497411Y-82884407D01*
X88462500Y-83059916D01*
X88462500Y-83238883D01*
X88497411Y-83414392D01*
X88497413Y-83414400D01*
X88565896Y-83579732D01*
X88565901Y-83579742D01*
X88665321Y-83728534D01*
X88665324Y-83728538D01*
X88791861Y-83855075D01*
X88791865Y-83855078D01*
X88940657Y-83954498D01*
X88940661Y-83954500D01*
X88940664Y-83954502D01*
X89106000Y-84022987D01*
X89281516Y-84057899D01*
X89281520Y-84057900D01*
X89356545Y-84057900D01*
X89423584Y-84077585D01*
X89469339Y-84130389D01*
X89479283Y-84199547D01*
X89450258Y-84263103D01*
X89444226Y-84269581D01*
X89166038Y-84547768D01*
X89125811Y-84574648D01*
X88991464Y-84630298D01*
X88991457Y-84630301D01*
X88842665Y-84729721D01*
X88842661Y-84729724D01*
X88716124Y-84856261D01*
X88716121Y-84856265D01*
X88616701Y-85005057D01*
X88616696Y-85005067D01*
X88548213Y-85170399D01*
X88548211Y-85170407D01*
X88513300Y-85345916D01*
X88513300Y-85524883D01*
X88548211Y-85700392D01*
X88548213Y-85700400D01*
X88616696Y-85865732D01*
X88616701Y-85865742D01*
X88716121Y-86014534D01*
X88716124Y-86014538D01*
X88842661Y-86141075D01*
X88842665Y-86141078D01*
X88991457Y-86240498D01*
X88991461Y-86240500D01*
X88991464Y-86240502D01*
X89156800Y-86308987D01*
X89332316Y-86343899D01*
X89332320Y-86343900D01*
X89332321Y-86343900D01*
X89511280Y-86343900D01*
X89511281Y-86343899D01*
X89686800Y-86308987D01*
X89852136Y-86240502D01*
X90000935Y-86141078D01*
X90127478Y-86014535D01*
X90226902Y-85865736D01*
X90282550Y-85731387D01*
X90309427Y-85691163D01*
X91041173Y-84959419D01*
X91102496Y-84925934D01*
X91128854Y-84923100D01*
X93230167Y-84923100D01*
X93297206Y-84942785D01*
X93342961Y-84995589D01*
X93352905Y-85064747D01*
X93323880Y-85128303D01*
X93317848Y-85134781D01*
X92554474Y-85898153D01*
X92554471Y-85898157D01*
X92476936Y-86014195D01*
X92442320Y-86097768D01*
X92423527Y-86143137D01*
X92423525Y-86143145D01*
X92396300Y-86280014D01*
X92396300Y-86931074D01*
X92376615Y-86998113D01*
X92375402Y-86999965D01*
X92299697Y-87113264D01*
X92231213Y-87278599D01*
X92231211Y-87278607D01*
X92196300Y-87454116D01*
X92196300Y-87633083D01*
X92231211Y-87808592D01*
X92231213Y-87808600D01*
X92299696Y-87973932D01*
X92299701Y-87973942D01*
X92399121Y-88122734D01*
X92399124Y-88122738D01*
X92525661Y-88249275D01*
X92525665Y-88249278D01*
X92674457Y-88348698D01*
X92674461Y-88348700D01*
X92674464Y-88348702D01*
X92839800Y-88417187D01*
X92984654Y-88446000D01*
X93015316Y-88452099D01*
X93015320Y-88452100D01*
X93015321Y-88452100D01*
X93194280Y-88452100D01*
X93194281Y-88452099D01*
X93369800Y-88417187D01*
X93535136Y-88348702D01*
X93683935Y-88249278D01*
X93810478Y-88122735D01*
X93909902Y-87973936D01*
X93978387Y-87808600D01*
X94013300Y-87633079D01*
X94013300Y-87454121D01*
X94003929Y-87407007D01*
X93987185Y-87322829D01*
X93978388Y-87278607D01*
X93978387Y-87278600D01*
X93909902Y-87113264D01*
X93834197Y-86999963D01*
X93828547Y-86981918D01*
X93818323Y-86966009D01*
X93813871Y-86935047D01*
X93813320Y-86933287D01*
X93813300Y-86931074D01*
X93813300Y-86694632D01*
X93832985Y-86627593D01*
X93849619Y-86606951D01*
X94138319Y-86318251D01*
X94199642Y-86284766D01*
X94269334Y-86289750D01*
X94325267Y-86331622D01*
X94349684Y-86397086D01*
X94350000Y-86405932D01*
X94350000Y-86850000D01*
X95266988Y-86850000D01*
X95234075Y-86907007D01*
X95200000Y-87034174D01*
X95200000Y-87165826D01*
X95234075Y-87292993D01*
X95266988Y-87350000D01*
X94350001Y-87350000D01*
X94350001Y-87899986D01*
X94360494Y-88002697D01*
X94415641Y-88169119D01*
X94415643Y-88169124D01*
X94507684Y-88318345D01*
X94631654Y-88442315D01*
X94780875Y-88534356D01*
X94780880Y-88534358D01*
X94947302Y-88589505D01*
X94947309Y-88589506D01*
X95050019Y-88599999D01*
X95449999Y-88599999D01*
X95450000Y-88599998D01*
X95450000Y-87533012D01*
X95507007Y-87565925D01*
X95634174Y-87600000D01*
X95765826Y-87600000D01*
X95892993Y-87565925D01*
X95950000Y-87533012D01*
X95950000Y-88599999D01*
X96349972Y-88599999D01*
X96349986Y-88599998D01*
X96452697Y-88589505D01*
X96619119Y-88534358D01*
X96619124Y-88534356D01*
X96768345Y-88442315D01*
X96892315Y-88318345D01*
X96983499Y-88170513D01*
X97035447Y-88123789D01*
X97104410Y-88112566D01*
X97168492Y-88140410D01*
X97176719Y-88147929D01*
X97314996Y-88286206D01*
X97487991Y-88411894D01*
X97581438Y-88459507D01*
X97678516Y-88508972D01*
X97678519Y-88508973D01*
X97756642Y-88534356D01*
X97881884Y-88575049D01*
X98093084Y-88608500D01*
X98093085Y-88608500D01*
X98306915Y-88608500D01*
X98306916Y-88608500D01*
X98518116Y-88575049D01*
X98714146Y-88511355D01*
X98721480Y-88508973D01*
X98721483Y-88508972D01*
X98737665Y-88500727D01*
X98912009Y-88411894D01*
X99085004Y-88286206D01*
X99236206Y-88135004D01*
X99361894Y-87962009D01*
X99458972Y-87771483D01*
X99464788Y-87753582D01*
X99522559Y-87575782D01*
X99561996Y-87518107D01*
X99626355Y-87490908D01*
X99640490Y-87490100D01*
X109941767Y-87490100D01*
X109963012Y-87496338D01*
X109985101Y-87497918D01*
X109995884Y-87505990D01*
X110008806Y-87509785D01*
X110023305Y-87526518D01*
X110041034Y-87539790D01*
X110045741Y-87552410D01*
X110054561Y-87562589D01*
X110057712Y-87584506D01*
X110065451Y-87605254D01*
X110062588Y-87618414D01*
X110064505Y-87631747D01*
X110055305Y-87651890D01*
X110050599Y-87673527D01*
X110037330Y-87691252D01*
X110035480Y-87695303D01*
X110029448Y-87701781D01*
X109894048Y-87837181D01*
X109832725Y-87870666D01*
X109806367Y-87873500D01*
X102371443Y-87873500D01*
X102234574Y-87900725D01*
X102234566Y-87900727D01*
X102189161Y-87919535D01*
X102189160Y-87919535D01*
X102105635Y-87954131D01*
X102105622Y-87954138D01*
X101989587Y-88031671D01*
X101989583Y-88031674D01*
X101165077Y-88856181D01*
X101103754Y-88889666D01*
X101077396Y-88892500D01*
X82695833Y-88892500D01*
X82628794Y-88872815D01*
X82608152Y-88856181D01*
X81239555Y-87487584D01*
X81206070Y-87426261D01*
X81204763Y-87380507D01*
X81208500Y-87356916D01*
X81208500Y-86843084D01*
X81175049Y-86631884D01*
X81126585Y-86482725D01*
X81108973Y-86428519D01*
X81108972Y-86428516D01*
X81043496Y-86300013D01*
X81011894Y-86237991D01*
X80886206Y-86064996D01*
X80735004Y-85913794D01*
X80562009Y-85788106D01*
X80502303Y-85757684D01*
X80371483Y-85691027D01*
X80371480Y-85691026D01*
X80168117Y-85624951D01*
X80062516Y-85608225D01*
X79956916Y-85591500D01*
X79743084Y-85591500D01*
X79689411Y-85600001D01*
X79531882Y-85624951D01*
X79328519Y-85691026D01*
X79328516Y-85691027D01*
X79137990Y-85788106D01*
X78964997Y-85913793D01*
X78826719Y-86052071D01*
X78765396Y-86085555D01*
X78695704Y-86080571D01*
X78639771Y-86038699D01*
X78633499Y-86029486D01*
X78542315Y-85881654D01*
X78418345Y-85757684D01*
X78269124Y-85665643D01*
X78269119Y-85665641D01*
X78102697Y-85610494D01*
X78102690Y-85610493D01*
X77999986Y-85600000D01*
X77600000Y-85600000D01*
X77600000Y-86666988D01*
X77542993Y-86634075D01*
X77415826Y-86600000D01*
X77284174Y-86600000D01*
X77157007Y-86634075D01*
X77100000Y-86666988D01*
X77100000Y-85600000D01*
X76700028Y-85600000D01*
X76700012Y-85600001D01*
X76597302Y-85610494D01*
X76430880Y-85665641D01*
X76430875Y-85665643D01*
X76281654Y-85757684D01*
X76157684Y-85881654D01*
X76065643Y-86030875D01*
X76065641Y-86030880D01*
X76010494Y-86197302D01*
X76010493Y-86197309D01*
X76000000Y-86300013D01*
X67000500Y-86300013D01*
X67000500Y-57250013D01*
X76000000Y-57250013D01*
X76000000Y-57800000D01*
X76916988Y-57800000D01*
X76884075Y-57857007D01*
X76850000Y-57984174D01*
X76850000Y-58115826D01*
X76884075Y-58242993D01*
X76916988Y-58300000D01*
X76000001Y-58300000D01*
X76000001Y-58849986D01*
X76010494Y-58952697D01*
X76065641Y-59119119D01*
X76065643Y-59119124D01*
X76157684Y-59268345D01*
X76281654Y-59392315D01*
X76430875Y-59484356D01*
X76430880Y-59484358D01*
X76597302Y-59539505D01*
X76597309Y-59539506D01*
X76700019Y-59549999D01*
X77099999Y-59549999D01*
X77100000Y-59549998D01*
X77100000Y-58483012D01*
X77157007Y-58515925D01*
X77284174Y-58550000D01*
X77415826Y-58550000D01*
X77542993Y-58515925D01*
X77600000Y-58483012D01*
X77600000Y-59549999D01*
X77999972Y-59549999D01*
X77999986Y-59549998D01*
X78102697Y-59539505D01*
X78269119Y-59484358D01*
X78269124Y-59484356D01*
X78418345Y-59392315D01*
X78542315Y-59268345D01*
X78633499Y-59120513D01*
X78685447Y-59073789D01*
X78754410Y-59062566D01*
X78818492Y-59090410D01*
X78826719Y-59097929D01*
X78964996Y-59236206D01*
X79137991Y-59361894D01*
X79231438Y-59409507D01*
X79328516Y-59458972D01*
X79328519Y-59458973D01*
X79406642Y-59484356D01*
X79531884Y-59525049D01*
X79743084Y-59558500D01*
X79743085Y-59558500D01*
X79956915Y-59558500D01*
X79956916Y-59558500D01*
X80168116Y-59525049D01*
X80212809Y-59510526D01*
X80282648Y-59508532D01*
X80338806Y-59540776D01*
X81512321Y-60714292D01*
X81545805Y-60775613D01*
X81540821Y-60845305D01*
X81512320Y-60889652D01*
X79299674Y-63102297D01*
X79299671Y-63102300D01*
X79222136Y-63218341D01*
X79222134Y-63218345D01*
X79216024Y-63233097D01*
X79216023Y-63233100D01*
X79168727Y-63347281D01*
X79168725Y-63347289D01*
X79141500Y-63484158D01*
X79141500Y-64072375D01*
X79121815Y-64139414D01*
X79090386Y-64172693D01*
X78964997Y-64263793D01*
X78826719Y-64402071D01*
X78765396Y-64435555D01*
X78695704Y-64430571D01*
X78639771Y-64388699D01*
X78633499Y-64379486D01*
X78542315Y-64231654D01*
X78418345Y-64107684D01*
X78269124Y-64015643D01*
X78269119Y-64015641D01*
X78102697Y-63960494D01*
X78102690Y-63960493D01*
X77999986Y-63950000D01*
X77600000Y-63950000D01*
X77600000Y-65016988D01*
X77542993Y-64984075D01*
X77415826Y-64950000D01*
X77284174Y-64950000D01*
X77157007Y-64984075D01*
X77100000Y-65016988D01*
X77100000Y-63950000D01*
X76700028Y-63950000D01*
X76700012Y-63950001D01*
X76597302Y-63960494D01*
X76430880Y-64015641D01*
X76430875Y-64015643D01*
X76281654Y-64107684D01*
X76157684Y-64231654D01*
X76065643Y-64380875D01*
X76065641Y-64380880D01*
X76010494Y-64547302D01*
X76010493Y-64547309D01*
X76000000Y-64650013D01*
X76000000Y-65200000D01*
X76916988Y-65200000D01*
X76884075Y-65257007D01*
X76850000Y-65384174D01*
X76850000Y-65515826D01*
X76884075Y-65642993D01*
X76916988Y-65700000D01*
X76000001Y-65700000D01*
X76000001Y-66249986D01*
X76010494Y-66352697D01*
X76065641Y-66519119D01*
X76065643Y-66519124D01*
X76157684Y-66668345D01*
X76281654Y-66792315D01*
X76430875Y-66884356D01*
X76430880Y-66884358D01*
X76597302Y-66939505D01*
X76597309Y-66939506D01*
X76700019Y-66949999D01*
X77099999Y-66949999D01*
X77100000Y-66949998D01*
X77100000Y-65883012D01*
X77157007Y-65915925D01*
X77284174Y-65950000D01*
X77415826Y-65950000D01*
X77542993Y-65915925D01*
X77600000Y-65883012D01*
X77600000Y-66949999D01*
X77999972Y-66949999D01*
X77999986Y-66949998D01*
X78102697Y-66939505D01*
X78269119Y-66884358D01*
X78269124Y-66884356D01*
X78418345Y-66792315D01*
X78542315Y-66668345D01*
X78633499Y-66520513D01*
X78685447Y-66473789D01*
X78754410Y-66462566D01*
X78818492Y-66490410D01*
X78826719Y-66497929D01*
X78964996Y-66636206D01*
X79137991Y-66761894D01*
X79231438Y-66809507D01*
X79328516Y-66858972D01*
X79328519Y-66858973D01*
X79371891Y-66873065D01*
X79531884Y-66925049D01*
X79743084Y-66958500D01*
X79743085Y-66958500D01*
X79956915Y-66958500D01*
X79956916Y-66958500D01*
X80168116Y-66925049D01*
X80371483Y-66858972D01*
X80562009Y-66761894D01*
X80735004Y-66636206D01*
X80886206Y-66485004D01*
X81011894Y-66312009D01*
X81108972Y-66121483D01*
X81175049Y-65918116D01*
X81208500Y-65706916D01*
X81208500Y-65193084D01*
X81175049Y-64981884D01*
X81142010Y-64880200D01*
X81108973Y-64778519D01*
X81108972Y-64778516D01*
X81043496Y-64650013D01*
X81011894Y-64587991D01*
X80886206Y-64414996D01*
X80735004Y-64263794D01*
X80609613Y-64172692D01*
X80606273Y-64168360D01*
X80601297Y-64166088D01*
X80585166Y-64140988D01*
X80566949Y-64117363D01*
X80565696Y-64110691D01*
X80563523Y-64107310D01*
X80558500Y-64072375D01*
X80558500Y-63898776D01*
X80578185Y-63831737D01*
X80594819Y-63811095D01*
X82336495Y-62069419D01*
X82397818Y-62035934D01*
X82424176Y-62033100D01*
X89065568Y-62033100D01*
X89132607Y-62052785D01*
X89178362Y-62105589D01*
X89188306Y-62174747D01*
X89159281Y-62238303D01*
X89153249Y-62244781D01*
X80338807Y-71059221D01*
X80277484Y-71092706D01*
X80212810Y-71089472D01*
X80168115Y-71074950D01*
X79990366Y-71046797D01*
X79956916Y-71041500D01*
X79743084Y-71041500D01*
X79689411Y-71050001D01*
X79531882Y-71074951D01*
X79328519Y-71141026D01*
X79328516Y-71141027D01*
X79137990Y-71238106D01*
X78964997Y-71363793D01*
X78826719Y-71502071D01*
X78765396Y-71535555D01*
X78695704Y-71530571D01*
X78639771Y-71488699D01*
X78633499Y-71479486D01*
X78542315Y-71331654D01*
X78418345Y-71207684D01*
X78269124Y-71115643D01*
X78269119Y-71115641D01*
X78102697Y-71060494D01*
X78102690Y-71060493D01*
X77999986Y-71050000D01*
X77600000Y-71050000D01*
X77600000Y-72116988D01*
X77542993Y-72084075D01*
X77415826Y-72050000D01*
X77284174Y-72050000D01*
X77157007Y-72084075D01*
X77100000Y-72116988D01*
X77100000Y-71050000D01*
X76700028Y-71050000D01*
X76700012Y-71050001D01*
X76597302Y-71060494D01*
X76430880Y-71115641D01*
X76430875Y-71115643D01*
X76281654Y-71207684D01*
X76157684Y-71331654D01*
X76065643Y-71480875D01*
X76065641Y-71480880D01*
X76010494Y-71647302D01*
X76010493Y-71647309D01*
X76000000Y-71750013D01*
X76000000Y-72300000D01*
X76916988Y-72300000D01*
X76884075Y-72357007D01*
X76850000Y-72484174D01*
X76850000Y-72615826D01*
X76884075Y-72742993D01*
X76916988Y-72800000D01*
X76000001Y-72800000D01*
X76000001Y-73349986D01*
X76010494Y-73452697D01*
X76065641Y-73619119D01*
X76065643Y-73619124D01*
X76157684Y-73768345D01*
X76281654Y-73892315D01*
X76430875Y-73984356D01*
X76430880Y-73984358D01*
X76597302Y-74039505D01*
X76597309Y-74039506D01*
X76700019Y-74049999D01*
X77099999Y-74049999D01*
X77100000Y-74049998D01*
X77100000Y-72983012D01*
X77157007Y-73015925D01*
X77284174Y-73050000D01*
X77415826Y-73050000D01*
X77542993Y-73015925D01*
X77600000Y-72983012D01*
X77600000Y-74049999D01*
X77999972Y-74049999D01*
X77999986Y-74049998D01*
X78102697Y-74039505D01*
X78269119Y-73984358D01*
X78269124Y-73984356D01*
X78418345Y-73892315D01*
X78542315Y-73768345D01*
X78633499Y-73620513D01*
X78685447Y-73573789D01*
X78754410Y-73562566D01*
X78818492Y-73590410D01*
X78826719Y-73597929D01*
X78964996Y-73736206D01*
X79137991Y-73861894D01*
X79231438Y-73909507D01*
X79328516Y-73958972D01*
X79328519Y-73958973D01*
X79406642Y-73984356D01*
X79531884Y-74025049D01*
X79743084Y-74058500D01*
X79743085Y-74058500D01*
X79956915Y-74058500D01*
X79956916Y-74058500D01*
X80168116Y-74025049D01*
X80371483Y-73958972D01*
X80562009Y-73861894D01*
X80735004Y-73736206D01*
X80780019Y-73691191D01*
X80841342Y-73657706D01*
X80911034Y-73662690D01*
X80966967Y-73704562D01*
X80991384Y-73770026D01*
X80991700Y-73778872D01*
X80991700Y-77704967D01*
X80972015Y-77772006D01*
X80955381Y-77792648D01*
X80338807Y-78409221D01*
X80277484Y-78442706D01*
X80212810Y-78439472D01*
X80168115Y-78424950D01*
X79990366Y-78396797D01*
X79956916Y-78391500D01*
X79743084Y-78391500D01*
X79689411Y-78400001D01*
X79531882Y-78424951D01*
X79328519Y-78491026D01*
X79328516Y-78491027D01*
X79137990Y-78588106D01*
X78964997Y-78713793D01*
X78826719Y-78852071D01*
X78765396Y-78885555D01*
X78695704Y-78880571D01*
X78639771Y-78838699D01*
X78633499Y-78829486D01*
X78542315Y-78681654D01*
X78418345Y-78557684D01*
X78269124Y-78465643D01*
X78269119Y-78465641D01*
X78102697Y-78410494D01*
X78102690Y-78410493D01*
X77999986Y-78400000D01*
X77600000Y-78400000D01*
X77600000Y-79466988D01*
X77542993Y-79434075D01*
X77415826Y-79400000D01*
X77284174Y-79400000D01*
X77157007Y-79434075D01*
X77100000Y-79466988D01*
X77100000Y-78400000D01*
X76700028Y-78400000D01*
X76700012Y-78400001D01*
X76597302Y-78410494D01*
X76430880Y-78465641D01*
X76430875Y-78465643D01*
X76281654Y-78557684D01*
X76157684Y-78681654D01*
X76065643Y-78830875D01*
X76065641Y-78830880D01*
X76010494Y-78997302D01*
X76010493Y-78997309D01*
X76000000Y-79100013D01*
X76000000Y-79650000D01*
X76916988Y-79650000D01*
X76884075Y-79707007D01*
X76850000Y-79834174D01*
X76850000Y-79965826D01*
X76884075Y-80092993D01*
X76916988Y-80150000D01*
X76000001Y-80150000D01*
X76000001Y-80699986D01*
X76010494Y-80802697D01*
X76065641Y-80969119D01*
X76065643Y-80969124D01*
X76157684Y-81118345D01*
X76281654Y-81242315D01*
X76430875Y-81334356D01*
X76430880Y-81334358D01*
X76597302Y-81389505D01*
X76597309Y-81389506D01*
X76700019Y-81399999D01*
X77099999Y-81399999D01*
X77100000Y-81399998D01*
X77100000Y-80333012D01*
X77157007Y-80365925D01*
X77284174Y-80400000D01*
X77415826Y-80400000D01*
X77542993Y-80365925D01*
X77600000Y-80333012D01*
X77600000Y-81399999D01*
X77999972Y-81399999D01*
X77999986Y-81399998D01*
X78102697Y-81389505D01*
X78269119Y-81334358D01*
X78269124Y-81334356D01*
X78418345Y-81242315D01*
X78542315Y-81118345D01*
X78633499Y-80970513D01*
X78685447Y-80923789D01*
X78754410Y-80912566D01*
X78818492Y-80940410D01*
X78826719Y-80947929D01*
X78964996Y-81086206D01*
X79137991Y-81211894D01*
X79231438Y-81259507D01*
X79328516Y-81308972D01*
X79328519Y-81308973D01*
X79406642Y-81334356D01*
X79531884Y-81375049D01*
X79743084Y-81408500D01*
X79743085Y-81408500D01*
X79956915Y-81408500D01*
X79956916Y-81408500D01*
X80168116Y-81375049D01*
X80371483Y-81308972D01*
X80562009Y-81211894D01*
X80735004Y-81086206D01*
X80886206Y-80935004D01*
X81011894Y-80762009D01*
X81108972Y-80571483D01*
X81175049Y-80368116D01*
X81208500Y-80156916D01*
X81208500Y-79643084D01*
X81204763Y-79619492D01*
X81213717Y-79550200D01*
X81239552Y-79512416D01*
X82250528Y-78501442D01*
X82328065Y-78385401D01*
X82381473Y-78256461D01*
X82381473Y-78256458D01*
X82381475Y-78256454D01*
X82392732Y-78199861D01*
X82408700Y-78119581D01*
X82408700Y-77903716D01*
X93593300Y-77903716D01*
X93593300Y-78082683D01*
X93628211Y-78258192D01*
X93628213Y-78258200D01*
X93696696Y-78423532D01*
X93696701Y-78423542D01*
X93796121Y-78572334D01*
X93796124Y-78572338D01*
X93922661Y-78698875D01*
X93922665Y-78698878D01*
X94071457Y-78798298D01*
X94071461Y-78798300D01*
X94071464Y-78798302D01*
X94236800Y-78866787D01*
X94260468Y-78871494D01*
X94322378Y-78903879D01*
X94356952Y-78964595D01*
X94359634Y-79005714D01*
X94350000Y-79100011D01*
X94350000Y-79650000D01*
X95266988Y-79650000D01*
X95234075Y-79707007D01*
X95200000Y-79834174D01*
X95200000Y-79965826D01*
X95234075Y-80092993D01*
X95266988Y-80150000D01*
X94350001Y-80150000D01*
X94350001Y-80699986D01*
X94360494Y-80802697D01*
X94415641Y-80969119D01*
X94415643Y-80969124D01*
X94507684Y-81118345D01*
X94631654Y-81242315D01*
X94780875Y-81334356D01*
X94780880Y-81334358D01*
X94947302Y-81389505D01*
X94947309Y-81389506D01*
X95050019Y-81399999D01*
X95449999Y-81399999D01*
X95450000Y-81399998D01*
X95450000Y-80333012D01*
X95507007Y-80365925D01*
X95634174Y-80400000D01*
X95765826Y-80400000D01*
X95892993Y-80365925D01*
X95950000Y-80333012D01*
X95950000Y-81399999D01*
X96349972Y-81399999D01*
X96349986Y-81399998D01*
X96452697Y-81389505D01*
X96619119Y-81334358D01*
X96619124Y-81334356D01*
X96768345Y-81242315D01*
X96892315Y-81118345D01*
X96983499Y-80970513D01*
X97035447Y-80923789D01*
X97104410Y-80912566D01*
X97168492Y-80940410D01*
X97176719Y-80947929D01*
X97314996Y-81086206D01*
X97487991Y-81211894D01*
X97581438Y-81259507D01*
X97678516Y-81308972D01*
X97678519Y-81308973D01*
X97756642Y-81334356D01*
X97881884Y-81375049D01*
X98093084Y-81408500D01*
X98093085Y-81408500D01*
X98306915Y-81408500D01*
X98306916Y-81408500D01*
X98518116Y-81375049D01*
X98721483Y-81308972D01*
X98912009Y-81211894D01*
X99085004Y-81086206D01*
X99236206Y-80935004D01*
X99361894Y-80762009D01*
X99458972Y-80571483D01*
X99525049Y-80368116D01*
X99558500Y-80156916D01*
X99558500Y-79643084D01*
X99525049Y-79431884D01*
X99487624Y-79316700D01*
X99458973Y-79228519D01*
X99458972Y-79228516D01*
X99420575Y-79153159D01*
X99393496Y-79100013D01*
X114225000Y-79100013D01*
X114225000Y-79650000D01*
X115141988Y-79650000D01*
X115109075Y-79707007D01*
X115075000Y-79834174D01*
X115075000Y-79965826D01*
X115109075Y-80092993D01*
X115141988Y-80150000D01*
X114225001Y-80150000D01*
X114225001Y-80699986D01*
X114235494Y-80802697D01*
X114290641Y-80969119D01*
X114290643Y-80969124D01*
X114382684Y-81118345D01*
X114506654Y-81242315D01*
X114655875Y-81334356D01*
X114655880Y-81334358D01*
X114822302Y-81389505D01*
X114822309Y-81389506D01*
X114925019Y-81399999D01*
X115324999Y-81399999D01*
X115325000Y-81399998D01*
X115325000Y-80333012D01*
X115382007Y-80365925D01*
X115509174Y-80400000D01*
X115640826Y-80400000D01*
X115767993Y-80365925D01*
X115825000Y-80333012D01*
X115825000Y-81399999D01*
X116224972Y-81399999D01*
X116224986Y-81399998D01*
X116327697Y-81389505D01*
X116494119Y-81334358D01*
X116494124Y-81334356D01*
X116643345Y-81242315D01*
X116767315Y-81118345D01*
X116858499Y-80970513D01*
X116910447Y-80923789D01*
X116979410Y-80912566D01*
X117043492Y-80940410D01*
X117051719Y-80947929D01*
X117189996Y-81086206D01*
X117362991Y-81211894D01*
X117456438Y-81259507D01*
X117553516Y-81308972D01*
X117553519Y-81308973D01*
X117631642Y-81334356D01*
X117756884Y-81375049D01*
X117968084Y-81408500D01*
X117968085Y-81408500D01*
X118181915Y-81408500D01*
X118181916Y-81408500D01*
X118393116Y-81375049D01*
X118596483Y-81308972D01*
X118787009Y-81211894D01*
X118960004Y-81086206D01*
X119111206Y-80935004D01*
X119187279Y-80830298D01*
X119220325Y-80784815D01*
X119275655Y-80742149D01*
X119320643Y-80733700D01*
X121321274Y-80733700D01*
X121388313Y-80753385D01*
X121390127Y-80754573D01*
X121503464Y-80830302D01*
X121668800Y-80898787D01*
X121794495Y-80923789D01*
X121844316Y-80933699D01*
X121844320Y-80933700D01*
X121844321Y-80933700D01*
X122023280Y-80933700D01*
X122023281Y-80933699D01*
X122198800Y-80898787D01*
X122364136Y-80830302D01*
X122512935Y-80730878D01*
X122639478Y-80604335D01*
X122738902Y-80455536D01*
X122807387Y-80290200D01*
X122842300Y-80114679D01*
X122842300Y-79935721D01*
X122807387Y-79760200D01*
X122738902Y-79594864D01*
X122738900Y-79594861D01*
X122738898Y-79594857D01*
X122639478Y-79446065D01*
X122639475Y-79446061D01*
X122512938Y-79319524D01*
X122512934Y-79319521D01*
X122364142Y-79220101D01*
X122364133Y-79220096D01*
X122343198Y-79211425D01*
X122198800Y-79151613D01*
X122198792Y-79151611D01*
X122023283Y-79116700D01*
X122023279Y-79116700D01*
X121844321Y-79116700D01*
X121844316Y-79116700D01*
X121668807Y-79151611D01*
X121668799Y-79151613D01*
X121503464Y-79220097D01*
X121427657Y-79270749D01*
X121390163Y-79295802D01*
X121323487Y-79316680D01*
X121321274Y-79316700D01*
X119452716Y-79316700D01*
X119385677Y-79297015D01*
X119339922Y-79244211D01*
X119334785Y-79231018D01*
X119333973Y-79228519D01*
X119333972Y-79228516D01*
X119268496Y-79100013D01*
X132675000Y-79100013D01*
X132675000Y-79650000D01*
X133591988Y-79650000D01*
X133559075Y-79707007D01*
X133525000Y-79834174D01*
X133525000Y-79965826D01*
X133559075Y-80092993D01*
X133591988Y-80150000D01*
X132675001Y-80150000D01*
X132675001Y-80699986D01*
X132685494Y-80802697D01*
X132740641Y-80969119D01*
X132740643Y-80969124D01*
X132832684Y-81118345D01*
X132956654Y-81242315D01*
X133105875Y-81334356D01*
X133105880Y-81334358D01*
X133272302Y-81389505D01*
X133272309Y-81389506D01*
X133375019Y-81399999D01*
X133774999Y-81399999D01*
X133775000Y-81399998D01*
X133775000Y-80333012D01*
X133832007Y-80365925D01*
X133959174Y-80400000D01*
X134090826Y-80400000D01*
X134217993Y-80365925D01*
X134275000Y-80333012D01*
X134275000Y-81399999D01*
X134674972Y-81399999D01*
X134674986Y-81399998D01*
X134777697Y-81389505D01*
X134944119Y-81334358D01*
X134944124Y-81334356D01*
X135093345Y-81242315D01*
X135217315Y-81118345D01*
X135308499Y-80970513D01*
X135360447Y-80923789D01*
X135429410Y-80912566D01*
X135493492Y-80940410D01*
X135501719Y-80947929D01*
X135639996Y-81086206D01*
X135812991Y-81211894D01*
X135906438Y-81259507D01*
X136003516Y-81308972D01*
X136003519Y-81308973D01*
X136081642Y-81334356D01*
X136206884Y-81375049D01*
X136418084Y-81408500D01*
X136418085Y-81408500D01*
X136631915Y-81408500D01*
X136631916Y-81408500D01*
X136843116Y-81375049D01*
X137046483Y-81308972D01*
X137237009Y-81211894D01*
X137410004Y-81086206D01*
X137561206Y-80935004D01*
X137686894Y-80762009D01*
X137730614Y-80676203D01*
X137778587Y-80625409D01*
X137841098Y-80608500D01*
X139672993Y-80608500D01*
X139740032Y-80628185D01*
X139785787Y-80680989D01*
X139787554Y-80685047D01*
X139797696Y-80709532D01*
X139797701Y-80709542D01*
X139897121Y-80858334D01*
X139897124Y-80858338D01*
X140023661Y-80984875D01*
X140023665Y-80984878D01*
X140172457Y-81084298D01*
X140172461Y-81084300D01*
X140172464Y-81084302D01*
X140337800Y-81152787D01*
X140513316Y-81187699D01*
X140513320Y-81187700D01*
X140513321Y-81187700D01*
X140692280Y-81187700D01*
X140692281Y-81187699D01*
X140867800Y-81152787D01*
X141033136Y-81084302D01*
X141181935Y-80984878D01*
X141308478Y-80858335D01*
X141407902Y-80709536D01*
X141476387Y-80544200D01*
X141511300Y-80368679D01*
X141511300Y-80189721D01*
X141476387Y-80014200D01*
X141407902Y-79848864D01*
X141407900Y-79848861D01*
X141407898Y-79848857D01*
X141308478Y-79700065D01*
X141308475Y-79700061D01*
X141181938Y-79573524D01*
X141181934Y-79573521D01*
X141033142Y-79474101D01*
X141033132Y-79474096D01*
X140867800Y-79405613D01*
X140867792Y-79405611D01*
X140734077Y-79379013D01*
X140679608Y-79353253D01*
X140675242Y-79349670D01*
X140559203Y-79272136D01*
X140559199Y-79272134D01*
X140491787Y-79244211D01*
X140468027Y-79234369D01*
X140468026Y-79234368D01*
X140430264Y-79218727D01*
X140430258Y-79218725D01*
X140361821Y-79205113D01*
X140293385Y-79191500D01*
X140293382Y-79191500D01*
X140293381Y-79191500D01*
X137841098Y-79191500D01*
X137774059Y-79171815D01*
X137730613Y-79123795D01*
X137726998Y-79116700D01*
X137686894Y-79037991D01*
X137561206Y-78864996D01*
X137410004Y-78713794D01*
X137237009Y-78588106D01*
X137177303Y-78557684D01*
X137046483Y-78491027D01*
X137046480Y-78491026D01*
X136843117Y-78424951D01*
X136737516Y-78408225D01*
X136631916Y-78391500D01*
X136418084Y-78391500D01*
X136364411Y-78400001D01*
X136206882Y-78424951D01*
X136003519Y-78491026D01*
X136003516Y-78491027D01*
X135812990Y-78588106D01*
X135639997Y-78713793D01*
X135501719Y-78852071D01*
X135440396Y-78885555D01*
X135370704Y-78880571D01*
X135314771Y-78838699D01*
X135308499Y-78829486D01*
X135217315Y-78681654D01*
X135093345Y-78557684D01*
X134944124Y-78465643D01*
X134944119Y-78465641D01*
X134777697Y-78410494D01*
X134777690Y-78410493D01*
X134674986Y-78400000D01*
X134275000Y-78400000D01*
X134275000Y-79466988D01*
X134217993Y-79434075D01*
X134090826Y-79400000D01*
X133959174Y-79400000D01*
X133832007Y-79434075D01*
X133775000Y-79466988D01*
X133775000Y-78400000D01*
X133375028Y-78400000D01*
X133375012Y-78400001D01*
X133272302Y-78410494D01*
X133105880Y-78465641D01*
X133105875Y-78465643D01*
X132956654Y-78557684D01*
X132832684Y-78681654D01*
X132740643Y-78830875D01*
X132740641Y-78830880D01*
X132685494Y-78997302D01*
X132685493Y-78997309D01*
X132675000Y-79100013D01*
X119268496Y-79100013D01*
X119236893Y-79037990D01*
X119213443Y-79005714D01*
X119111206Y-78864996D01*
X118960004Y-78713794D01*
X118787009Y-78588106D01*
X118727303Y-78557684D01*
X118596483Y-78491027D01*
X118596480Y-78491026D01*
X118393117Y-78424951D01*
X118287516Y-78408225D01*
X118181916Y-78391500D01*
X117968084Y-78391500D01*
X117914411Y-78400001D01*
X117756882Y-78424951D01*
X117553519Y-78491026D01*
X117553516Y-78491027D01*
X117362990Y-78588106D01*
X117189997Y-78713793D01*
X117051719Y-78852071D01*
X116990396Y-78885555D01*
X116920704Y-78880571D01*
X116864771Y-78838699D01*
X116858499Y-78829486D01*
X116767315Y-78681654D01*
X116643345Y-78557684D01*
X116494124Y-78465643D01*
X116494119Y-78465641D01*
X116327697Y-78410494D01*
X116327690Y-78410493D01*
X116224986Y-78400000D01*
X115825000Y-78400000D01*
X115825000Y-79466988D01*
X115767993Y-79434075D01*
X115640826Y-79400000D01*
X115509174Y-79400000D01*
X115382007Y-79434075D01*
X115325000Y-79466988D01*
X115325000Y-78400000D01*
X114925028Y-78400000D01*
X114925012Y-78400001D01*
X114822302Y-78410494D01*
X114655880Y-78465641D01*
X114655875Y-78465643D01*
X114506654Y-78557684D01*
X114382684Y-78681654D01*
X114290643Y-78830875D01*
X114290641Y-78830880D01*
X114235494Y-78997302D01*
X114235493Y-78997309D01*
X114225000Y-79100013D01*
X99393496Y-79100013D01*
X99361893Y-79037990D01*
X99338443Y-79005714D01*
X99236206Y-78864996D01*
X99085004Y-78713794D01*
X98912009Y-78588106D01*
X98852303Y-78557684D01*
X98721483Y-78491027D01*
X98721480Y-78491026D01*
X98518117Y-78424951D01*
X98412516Y-78408225D01*
X98306916Y-78391500D01*
X98093084Y-78391500D01*
X98039411Y-78400001D01*
X97881882Y-78424951D01*
X97678519Y-78491026D01*
X97678516Y-78491027D01*
X97487990Y-78588106D01*
X97314997Y-78713793D01*
X97176719Y-78852071D01*
X97115396Y-78885555D01*
X97045704Y-78880571D01*
X96989771Y-78838699D01*
X96983499Y-78829486D01*
X96892315Y-78681654D01*
X96768345Y-78557684D01*
X96619124Y-78465643D01*
X96619119Y-78465641D01*
X96452697Y-78410494D01*
X96452690Y-78410493D01*
X96349986Y-78400000D01*
X95950000Y-78400000D01*
X95950000Y-79466988D01*
X95892993Y-79434075D01*
X95765826Y-79400000D01*
X95634174Y-79400000D01*
X95507007Y-79434075D01*
X95450000Y-79466988D01*
X95450000Y-78401518D01*
X95412437Y-78365486D01*
X95400799Y-78345187D01*
X95385482Y-78327511D01*
X95383747Y-78315447D01*
X95377684Y-78304872D01*
X95378867Y-78281507D01*
X95375538Y-78258353D01*
X95376658Y-78251810D01*
X95386991Y-78199861D01*
X95401970Y-78124551D01*
X95434354Y-78062643D01*
X95435849Y-78061120D01*
X96790952Y-76706019D01*
X96852275Y-76672534D01*
X96878633Y-76669700D01*
X114733582Y-76669700D01*
X114802021Y-76656086D01*
X114870462Y-76642473D01*
X114908227Y-76626830D01*
X114999401Y-76589065D01*
X115115443Y-76511528D01*
X117586194Y-74040775D01*
X117647515Y-74007292D01*
X117712190Y-74010526D01*
X117756884Y-74025049D01*
X117968084Y-74058500D01*
X117968085Y-74058500D01*
X118181915Y-74058500D01*
X118181916Y-74058500D01*
X118393116Y-74025049D01*
X118596483Y-73958972D01*
X118787009Y-73861894D01*
X118960004Y-73736206D01*
X119111206Y-73585004D01*
X119236894Y-73412009D01*
X119263799Y-73359205D01*
X119311774Y-73308409D01*
X119374284Y-73291500D01*
X121041874Y-73291500D01*
X121108913Y-73311185D01*
X121110727Y-73312373D01*
X121224064Y-73388102D01*
X121389400Y-73456587D01*
X121555862Y-73489698D01*
X121564916Y-73491499D01*
X121564920Y-73491500D01*
X121564921Y-73491500D01*
X121743880Y-73491500D01*
X121743881Y-73491499D01*
X121919400Y-73456587D01*
X122084736Y-73388102D01*
X122233535Y-73288678D01*
X122360078Y-73162135D01*
X122459502Y-73013336D01*
X122527987Y-72848000D01*
X122542690Y-72774083D01*
X122552558Y-72724476D01*
X122552563Y-72724448D01*
X122555888Y-72707727D01*
X122562900Y-72672479D01*
X122562900Y-72493521D01*
X122527987Y-72318000D01*
X122459502Y-72152664D01*
X122459500Y-72152661D01*
X122459498Y-72152657D01*
X122360078Y-72003865D01*
X122360075Y-72003861D01*
X122233538Y-71877324D01*
X122233530Y-71877318D01*
X122192644Y-71849999D01*
X122192594Y-71849966D01*
X122084742Y-71777901D01*
X122084732Y-71777896D01*
X122017417Y-71750013D01*
X132675000Y-71750013D01*
X132675000Y-72300000D01*
X133591988Y-72300000D01*
X133559075Y-72357007D01*
X133525000Y-72484174D01*
X133525000Y-72615826D01*
X133559075Y-72742993D01*
X133591988Y-72800000D01*
X132675001Y-72800000D01*
X132675001Y-73349986D01*
X132685494Y-73452697D01*
X132740641Y-73619119D01*
X132740643Y-73619124D01*
X132832684Y-73768345D01*
X132956654Y-73892315D01*
X133105875Y-73984356D01*
X133105880Y-73984358D01*
X133272302Y-74039505D01*
X133272309Y-74039506D01*
X133375019Y-74049999D01*
X133774999Y-74049999D01*
X133775000Y-74049998D01*
X133775000Y-72983012D01*
X133832007Y-73015925D01*
X133959174Y-73050000D01*
X134090826Y-73050000D01*
X134217993Y-73015925D01*
X134275000Y-72983012D01*
X134275000Y-74049999D01*
X134674972Y-74049999D01*
X134674986Y-74049998D01*
X134777697Y-74039505D01*
X134944119Y-73984358D01*
X134944124Y-73984356D01*
X135093345Y-73892315D01*
X135217315Y-73768345D01*
X135308499Y-73620513D01*
X135360447Y-73573789D01*
X135429410Y-73562566D01*
X135493492Y-73590410D01*
X135501719Y-73597929D01*
X135639996Y-73736206D01*
X135812991Y-73861894D01*
X135906438Y-73909507D01*
X136003516Y-73958972D01*
X136003519Y-73958973D01*
X136081642Y-73984356D01*
X136206884Y-74025049D01*
X136418084Y-74058500D01*
X136418085Y-74058500D01*
X136631915Y-74058500D01*
X136631916Y-74058500D01*
X136843116Y-74025049D01*
X137046483Y-73958972D01*
X137237009Y-73861894D01*
X137410004Y-73736206D01*
X137561206Y-73585004D01*
X137686894Y-73412009D01*
X137730614Y-73326203D01*
X137778587Y-73275409D01*
X137841098Y-73258500D01*
X139967525Y-73258500D01*
X140034564Y-73278185D01*
X140055201Y-73294814D01*
X140110373Y-73349986D01*
X140150666Y-73390279D01*
X140299457Y-73489698D01*
X140299461Y-73489700D01*
X140299464Y-73489702D01*
X140464800Y-73558187D01*
X140640316Y-73593099D01*
X140640320Y-73593100D01*
X140640321Y-73593100D01*
X140819280Y-73593100D01*
X140819281Y-73593099D01*
X140994800Y-73558187D01*
X141160136Y-73489702D01*
X141308935Y-73390278D01*
X141435478Y-73263735D01*
X141534902Y-73114936D01*
X141603387Y-72949600D01*
X141638300Y-72774079D01*
X141638300Y-72595121D01*
X141603387Y-72419600D01*
X141534902Y-72254264D01*
X141534900Y-72254261D01*
X141534898Y-72254257D01*
X141435478Y-72105465D01*
X141435475Y-72105461D01*
X141308938Y-71978924D01*
X141308934Y-71978921D01*
X141160142Y-71879501D01*
X141160132Y-71879496D01*
X140994800Y-71811013D01*
X140994792Y-71811011D01*
X140819283Y-71776100D01*
X140819279Y-71776100D01*
X140640321Y-71776100D01*
X140640316Y-71776100D01*
X140464807Y-71811011D01*
X140464799Y-71811013D01*
X140438722Y-71821815D01*
X140413985Y-71832061D01*
X140366534Y-71841500D01*
X137841098Y-71841500D01*
X137774059Y-71821815D01*
X137730613Y-71773795D01*
X137686894Y-71687991D01*
X137561206Y-71514996D01*
X137410004Y-71363794D01*
X137237009Y-71238106D01*
X137177303Y-71207684D01*
X137046483Y-71141027D01*
X137046480Y-71141026D01*
X136843117Y-71074951D01*
X136737516Y-71058225D01*
X136631916Y-71041500D01*
X136418084Y-71041500D01*
X136364411Y-71050001D01*
X136206882Y-71074951D01*
X136003519Y-71141026D01*
X136003516Y-71141027D01*
X135812990Y-71238106D01*
X135639997Y-71363793D01*
X135501719Y-71502071D01*
X135440396Y-71535555D01*
X135370704Y-71530571D01*
X135314771Y-71488699D01*
X135308499Y-71479486D01*
X135217315Y-71331654D01*
X135093345Y-71207684D01*
X134944124Y-71115643D01*
X134944119Y-71115641D01*
X134777697Y-71060494D01*
X134777690Y-71060493D01*
X134674986Y-71050000D01*
X134275000Y-71050000D01*
X134275000Y-72116988D01*
X134217993Y-72084075D01*
X134090826Y-72050000D01*
X133959174Y-72050000D01*
X133832007Y-72084075D01*
X133775000Y-72116988D01*
X133775000Y-71050000D01*
X133375028Y-71050000D01*
X133375012Y-71050001D01*
X133272302Y-71060494D01*
X133105880Y-71115641D01*
X133105875Y-71115643D01*
X132956654Y-71207684D01*
X132832684Y-71331654D01*
X132740643Y-71480875D01*
X132740641Y-71480880D01*
X132685494Y-71647302D01*
X132685493Y-71647309D01*
X132675000Y-71750013D01*
X122017417Y-71750013D01*
X121919400Y-71709413D01*
X121919392Y-71709411D01*
X121743883Y-71674500D01*
X121743879Y-71674500D01*
X121564921Y-71674500D01*
X121564916Y-71674500D01*
X121389407Y-71709411D01*
X121389399Y-71709413D01*
X121224064Y-71777897D01*
X121158337Y-71821815D01*
X121110763Y-71853602D01*
X121044087Y-71874480D01*
X121041874Y-71874500D01*
X119407913Y-71874500D01*
X119340874Y-71854815D01*
X119297428Y-71806795D01*
X119236893Y-71687990D01*
X119227092Y-71674500D01*
X119111206Y-71514996D01*
X118960004Y-71363794D01*
X118787009Y-71238106D01*
X118727303Y-71207684D01*
X118596483Y-71141027D01*
X118596480Y-71141026D01*
X118393117Y-71074951D01*
X118287516Y-71058225D01*
X118181916Y-71041500D01*
X117968084Y-71041500D01*
X117914411Y-71050001D01*
X117756882Y-71074951D01*
X117553519Y-71141026D01*
X117553516Y-71141027D01*
X117362990Y-71238106D01*
X117189997Y-71363793D01*
X117051719Y-71502071D01*
X116990396Y-71535555D01*
X116920704Y-71530571D01*
X116864771Y-71488699D01*
X116858499Y-71479486D01*
X116767315Y-71331654D01*
X116643345Y-71207684D01*
X116494124Y-71115643D01*
X116494119Y-71115641D01*
X116327697Y-71060494D01*
X116327690Y-71060493D01*
X116224986Y-71050000D01*
X115825000Y-71050000D01*
X115825000Y-72116988D01*
X115767993Y-72084075D01*
X115640826Y-72050000D01*
X115509174Y-72050000D01*
X115382007Y-72084075D01*
X115325000Y-72116988D01*
X115325000Y-71050000D01*
X114925028Y-71050000D01*
X114925012Y-71050001D01*
X114822302Y-71060494D01*
X114655880Y-71115641D01*
X114655875Y-71115643D01*
X114506654Y-71207684D01*
X114382684Y-71331654D01*
X114290643Y-71480875D01*
X114290641Y-71480880D01*
X114235494Y-71647302D01*
X114235493Y-71647309D01*
X114225000Y-71750013D01*
X114225000Y-72300000D01*
X115141988Y-72300000D01*
X115109075Y-72357007D01*
X115075000Y-72484174D01*
X115075000Y-72615826D01*
X115109075Y-72742993D01*
X115141988Y-72800000D01*
X114225001Y-72800000D01*
X114225001Y-73349986D01*
X114235494Y-73452697D01*
X114290641Y-73619119D01*
X114290643Y-73619124D01*
X114382684Y-73768345D01*
X114506654Y-73892315D01*
X114655875Y-73984356D01*
X114655880Y-73984358D01*
X114822302Y-74039505D01*
X114822309Y-74039506D01*
X114925019Y-74049999D01*
X115273665Y-74049999D01*
X115340704Y-74069683D01*
X115386459Y-74122487D01*
X115396403Y-74191646D01*
X115367378Y-74255201D01*
X115361346Y-74261680D01*
X114406648Y-75216381D01*
X114345325Y-75249866D01*
X114318967Y-75252700D01*
X96464014Y-75252700D01*
X96327141Y-75279925D01*
X96327140Y-75279926D01*
X96289373Y-75295568D01*
X96289372Y-75295569D01*
X96205402Y-75330351D01*
X96198194Y-75333337D01*
X96082161Y-75410868D01*
X96082153Y-75410874D01*
X94433934Y-77059093D01*
X94372611Y-77092578D01*
X94370444Y-77093029D01*
X94236807Y-77119611D01*
X94236799Y-77119613D01*
X94071467Y-77188096D01*
X94071457Y-77188101D01*
X93922665Y-77287521D01*
X93922661Y-77287524D01*
X93796124Y-77414061D01*
X93796121Y-77414065D01*
X93696701Y-77562857D01*
X93696696Y-77562867D01*
X93628213Y-77728199D01*
X93628211Y-77728207D01*
X93593300Y-77903716D01*
X82408700Y-77903716D01*
X82408700Y-72115032D01*
X82428385Y-72047993D01*
X82445019Y-72027351D01*
X82722357Y-71750013D01*
X94350000Y-71750013D01*
X94350000Y-72300000D01*
X95266988Y-72300000D01*
X95234075Y-72357007D01*
X95200000Y-72484174D01*
X95200000Y-72615826D01*
X95234075Y-72742993D01*
X95266988Y-72800000D01*
X94350001Y-72800000D01*
X94350001Y-73349986D01*
X94360494Y-73452697D01*
X94415641Y-73619119D01*
X94415643Y-73619124D01*
X94507684Y-73768345D01*
X94631654Y-73892315D01*
X94780875Y-73984356D01*
X94780880Y-73984358D01*
X94947302Y-74039505D01*
X94947309Y-74039506D01*
X95050019Y-74049999D01*
X95449999Y-74049999D01*
X95450000Y-74049998D01*
X95450000Y-72983012D01*
X95507007Y-73015925D01*
X95634174Y-73050000D01*
X95765826Y-73050000D01*
X95892993Y-73015925D01*
X95950000Y-72983012D01*
X95950000Y-74049999D01*
X96349972Y-74049999D01*
X96349986Y-74049998D01*
X96452697Y-74039505D01*
X96619119Y-73984358D01*
X96619124Y-73984356D01*
X96768345Y-73892315D01*
X96892315Y-73768345D01*
X96983499Y-73620513D01*
X97035447Y-73573789D01*
X97104410Y-73562566D01*
X97168492Y-73590410D01*
X97176719Y-73597929D01*
X97314996Y-73736206D01*
X97487991Y-73861894D01*
X97581438Y-73909507D01*
X97678516Y-73958972D01*
X97678519Y-73958973D01*
X97756642Y-73984356D01*
X97881884Y-74025049D01*
X98093084Y-74058500D01*
X98093085Y-74058500D01*
X98306915Y-74058500D01*
X98306916Y-74058500D01*
X98518116Y-74025049D01*
X98721483Y-73958972D01*
X98912009Y-73861894D01*
X99085004Y-73736206D01*
X99236206Y-73585004D01*
X99361894Y-73412009D01*
X99458972Y-73221483D01*
X99525049Y-73018116D01*
X99558500Y-72806916D01*
X99558500Y-72293084D01*
X99525049Y-72081884D01*
X99458972Y-71878517D01*
X99458972Y-71878516D01*
X99420575Y-71803159D01*
X99361894Y-71687991D01*
X99236206Y-71514996D01*
X99085004Y-71363794D01*
X98912009Y-71238106D01*
X98852303Y-71207684D01*
X98721483Y-71141027D01*
X98721480Y-71141026D01*
X98518117Y-71074951D01*
X98412516Y-71058225D01*
X98306916Y-71041500D01*
X98093084Y-71041500D01*
X98039411Y-71050001D01*
X97881882Y-71074951D01*
X97678519Y-71141026D01*
X97678516Y-71141027D01*
X97487990Y-71238106D01*
X97314997Y-71363793D01*
X97176719Y-71502071D01*
X97115396Y-71535555D01*
X97045704Y-71530571D01*
X96989771Y-71488699D01*
X96983499Y-71479486D01*
X96892315Y-71331654D01*
X96768345Y-71207684D01*
X96619124Y-71115643D01*
X96619119Y-71115641D01*
X96452697Y-71060494D01*
X96452690Y-71060493D01*
X96349986Y-71050000D01*
X95950000Y-71050000D01*
X95950000Y-72116988D01*
X95892993Y-72084075D01*
X95765826Y-72050000D01*
X95634174Y-72050000D01*
X95507007Y-72084075D01*
X95450000Y-72116988D01*
X95450000Y-71050000D01*
X95050028Y-71050000D01*
X95050012Y-71050001D01*
X94947302Y-71060494D01*
X94780880Y-71115641D01*
X94780875Y-71115643D01*
X94631654Y-71207684D01*
X94507684Y-71331654D01*
X94415643Y-71480875D01*
X94415641Y-71480880D01*
X94360494Y-71647302D01*
X94360493Y-71647309D01*
X94350000Y-71750013D01*
X82722357Y-71750013D01*
X85118605Y-69353765D01*
X88308500Y-69353765D01*
X88308500Y-69513034D01*
X88339568Y-69669223D01*
X88339570Y-69669231D01*
X88400517Y-69816369D01*
X88488995Y-69948787D01*
X88489001Y-69948794D01*
X88601605Y-70061398D01*
X88601612Y-70061404D01*
X88701086Y-70127870D01*
X88710584Y-70135664D01*
X88710955Y-70135213D01*
X88715665Y-70139078D01*
X88864457Y-70238498D01*
X88864461Y-70238500D01*
X88864464Y-70238502D01*
X89029800Y-70306987D01*
X89205316Y-70341899D01*
X89205320Y-70341900D01*
X89205321Y-70341900D01*
X89384280Y-70341900D01*
X89384281Y-70341899D01*
X89559800Y-70306987D01*
X89694145Y-70251338D01*
X89741598Y-70241900D01*
X100829831Y-70241900D01*
X100829832Y-70241899D01*
X100986031Y-70210830D01*
X101059599Y-70180356D01*
X101133168Y-70149884D01*
X101265589Y-70061403D01*
X101920363Y-69406627D01*
X101960587Y-69379750D01*
X102094936Y-69324102D01*
X102243735Y-69224678D01*
X102370278Y-69098135D01*
X102469702Y-68949336D01*
X102538187Y-68784000D01*
X102573100Y-68608479D01*
X102573100Y-68429521D01*
X102538187Y-68254000D01*
X102469702Y-68088664D01*
X102469700Y-68088661D01*
X102469698Y-68088657D01*
X102399982Y-67984320D01*
X102399981Y-67984318D01*
X102370281Y-67939869D01*
X102370275Y-67939861D01*
X102351930Y-67921516D01*
X107182300Y-67921516D01*
X107182300Y-68100483D01*
X107217211Y-68275992D01*
X107217213Y-68276000D01*
X107285696Y-68441332D01*
X107285701Y-68441342D01*
X107385121Y-68590134D01*
X107385124Y-68590138D01*
X107511661Y-68716675D01*
X107511665Y-68716678D01*
X107660457Y-68816098D01*
X107660461Y-68816100D01*
X107660464Y-68816102D01*
X107825800Y-68884587D01*
X107993805Y-68918005D01*
X108001316Y-68919499D01*
X108001320Y-68919500D01*
X108001321Y-68919500D01*
X108180280Y-68919500D01*
X108180281Y-68919499D01*
X108355800Y-68884587D01*
X108521136Y-68816102D01*
X108669935Y-68716678D01*
X108732395Y-68654217D01*
X108793716Y-68620734D01*
X108820075Y-68617900D01*
X117660183Y-68617900D01*
X117660183Y-68617899D01*
X117757059Y-68598630D01*
X117797062Y-68590673D01*
X117834827Y-68575030D01*
X117926001Y-68537265D01*
X118042043Y-68459728D01*
X118115465Y-68386303D01*
X118176783Y-68352821D01*
X118178845Y-68352391D01*
X118312600Y-68325787D01*
X118477936Y-68257302D01*
X118591236Y-68181597D01*
X118657913Y-68160720D01*
X118660126Y-68160700D01*
X120454182Y-68160700D01*
X120522621Y-68147086D01*
X120591062Y-68133473D01*
X120633098Y-68116061D01*
X120720001Y-68080065D01*
X120836043Y-68002528D01*
X121798465Y-67040104D01*
X121859786Y-67006621D01*
X121861853Y-67006190D01*
X121995600Y-66979587D01*
X122160936Y-66911102D01*
X122309735Y-66811678D01*
X122436278Y-66685135D01*
X122535702Y-66536336D01*
X122604187Y-66371000D01*
X122639100Y-66195479D01*
X122639100Y-66016521D01*
X122604187Y-65841000D01*
X122535702Y-65675664D01*
X122535698Y-65675657D01*
X122436278Y-65526865D01*
X122436275Y-65526861D01*
X122309738Y-65400324D01*
X122309734Y-65400321D01*
X122160942Y-65300901D01*
X122160932Y-65300896D01*
X121995600Y-65232413D01*
X121995592Y-65232411D01*
X121820083Y-65197500D01*
X121820079Y-65197500D01*
X121641121Y-65197500D01*
X121641116Y-65197500D01*
X121465607Y-65232411D01*
X121465599Y-65232413D01*
X121300267Y-65300896D01*
X121300257Y-65300901D01*
X121151465Y-65400321D01*
X121151461Y-65400324D01*
X121024924Y-65526861D01*
X121024921Y-65526865D01*
X120925501Y-65675657D01*
X120925496Y-65675667D01*
X120857013Y-65840999D01*
X120857011Y-65841007D01*
X120830429Y-65974644D01*
X120798044Y-66036555D01*
X120796493Y-66038134D01*
X120127248Y-66707381D01*
X120065925Y-66740866D01*
X120039567Y-66743700D01*
X119151872Y-66743700D01*
X119084833Y-66724015D01*
X119039078Y-66671211D01*
X119029134Y-66602053D01*
X119058159Y-66538497D01*
X119064191Y-66532019D01*
X119077091Y-66519119D01*
X119111206Y-66485004D01*
X119236894Y-66312009D01*
X119333972Y-66121483D01*
X119400049Y-65918116D01*
X119433500Y-65706916D01*
X119433500Y-65193084D01*
X119400049Y-64981884D01*
X119367010Y-64880200D01*
X119333973Y-64778519D01*
X119333972Y-64778516D01*
X119295575Y-64703159D01*
X119289533Y-64691301D01*
X119268496Y-64650013D01*
X132675000Y-64650013D01*
X132675000Y-65200000D01*
X133591988Y-65200000D01*
X133559075Y-65257007D01*
X133525000Y-65384174D01*
X133525000Y-65515826D01*
X133559075Y-65642993D01*
X133591988Y-65700000D01*
X132675001Y-65700000D01*
X132675001Y-66249986D01*
X132685494Y-66352697D01*
X132740641Y-66519119D01*
X132740643Y-66519124D01*
X132832684Y-66668345D01*
X132956654Y-66792315D01*
X133105875Y-66884356D01*
X133105880Y-66884358D01*
X133272302Y-66939505D01*
X133272309Y-66939506D01*
X133375019Y-66949999D01*
X133774999Y-66949999D01*
X133775000Y-66949998D01*
X133775000Y-65883012D01*
X133832007Y-65915925D01*
X133959174Y-65950000D01*
X134090826Y-65950000D01*
X134217993Y-65915925D01*
X134275000Y-65883012D01*
X134275000Y-66949999D01*
X134674972Y-66949999D01*
X134674986Y-66949998D01*
X134777697Y-66939505D01*
X134944119Y-66884358D01*
X134944124Y-66884356D01*
X135093345Y-66792315D01*
X135217315Y-66668345D01*
X135308499Y-66520513D01*
X135360447Y-66473789D01*
X135429410Y-66462566D01*
X135493492Y-66490410D01*
X135501719Y-66497929D01*
X135639996Y-66636206D01*
X135812991Y-66761894D01*
X135906438Y-66809507D01*
X136003516Y-66858972D01*
X136003519Y-66858973D01*
X136046891Y-66873065D01*
X136206884Y-66925049D01*
X136418084Y-66958500D01*
X136418085Y-66958500D01*
X136631915Y-66958500D01*
X136631916Y-66958500D01*
X136843116Y-66925049D01*
X137046483Y-66858972D01*
X137237009Y-66761894D01*
X137410004Y-66636206D01*
X137561206Y-66485004D01*
X137686894Y-66312009D01*
X137730614Y-66226203D01*
X137778587Y-66175409D01*
X137841098Y-66158500D01*
X140081124Y-66158500D01*
X140148163Y-66178185D01*
X140168805Y-66194819D01*
X140176061Y-66202075D01*
X140176065Y-66202078D01*
X140324857Y-66301498D01*
X140324861Y-66301500D01*
X140324864Y-66301502D01*
X140490200Y-66369987D01*
X140665716Y-66404899D01*
X140665720Y-66404900D01*
X140665721Y-66404900D01*
X140844680Y-66404900D01*
X140844681Y-66404899D01*
X141020200Y-66369987D01*
X141185536Y-66301502D01*
X141334335Y-66202078D01*
X141460878Y-66075535D01*
X141560302Y-65926736D01*
X141628787Y-65761400D01*
X141663700Y-65585879D01*
X141663700Y-65406921D01*
X141628787Y-65231400D01*
X141560302Y-65066064D01*
X141560300Y-65066061D01*
X141560298Y-65066057D01*
X141460878Y-64917265D01*
X141460875Y-64917261D01*
X141334338Y-64790724D01*
X141334334Y-64790721D01*
X141185542Y-64691301D01*
X141185532Y-64691296D01*
X141020200Y-64622813D01*
X141020192Y-64622811D01*
X140844683Y-64587900D01*
X140844679Y-64587900D01*
X140665721Y-64587900D01*
X140665716Y-64587900D01*
X140490207Y-64622811D01*
X140490199Y-64622813D01*
X140324867Y-64691296D01*
X140324858Y-64691301D01*
X140281007Y-64720602D01*
X140214330Y-64741480D01*
X140212116Y-64741500D01*
X137841098Y-64741500D01*
X137774059Y-64721815D01*
X137730613Y-64673795D01*
X137686894Y-64587991D01*
X137561206Y-64414996D01*
X137410004Y-64263794D01*
X137237009Y-64138106D01*
X137196299Y-64117363D01*
X137046483Y-64041027D01*
X137046480Y-64041026D01*
X136843117Y-63974951D01*
X136737516Y-63958225D01*
X136631916Y-63941500D01*
X136418084Y-63941500D01*
X136364411Y-63950001D01*
X136206882Y-63974951D01*
X136003519Y-64041026D01*
X136003516Y-64041027D01*
X135812990Y-64138106D01*
X135639997Y-64263793D01*
X135501719Y-64402071D01*
X135440396Y-64435555D01*
X135370704Y-64430571D01*
X135314771Y-64388699D01*
X135308499Y-64379486D01*
X135217315Y-64231654D01*
X135093345Y-64107684D01*
X134944124Y-64015643D01*
X134944119Y-64015641D01*
X134777697Y-63960494D01*
X134777690Y-63960493D01*
X134674986Y-63950000D01*
X134275000Y-63950000D01*
X134275000Y-65016988D01*
X134217993Y-64984075D01*
X134090826Y-64950000D01*
X133959174Y-64950000D01*
X133832007Y-64984075D01*
X133775000Y-65016988D01*
X133775000Y-63950000D01*
X133375028Y-63950000D01*
X133375012Y-63950001D01*
X133272302Y-63960494D01*
X133105880Y-64015641D01*
X133105875Y-64015643D01*
X132956654Y-64107684D01*
X132832684Y-64231654D01*
X132740643Y-64380875D01*
X132740641Y-64380880D01*
X132685494Y-64547302D01*
X132685493Y-64547309D01*
X132675000Y-64650013D01*
X119268496Y-64650013D01*
X119236894Y-64587991D01*
X119111206Y-64414996D01*
X118960004Y-64263794D01*
X118787009Y-64138106D01*
X118746299Y-64117363D01*
X118596483Y-64041027D01*
X118596480Y-64041026D01*
X118393117Y-63974951D01*
X118287516Y-63958225D01*
X118181916Y-63941500D01*
X117968084Y-63941500D01*
X117914411Y-63950001D01*
X117756882Y-63974951D01*
X117553519Y-64041026D01*
X117553516Y-64041027D01*
X117362990Y-64138106D01*
X117189997Y-64263793D01*
X117051719Y-64402071D01*
X116990396Y-64435555D01*
X116920704Y-64430571D01*
X116864771Y-64388699D01*
X116858499Y-64379486D01*
X116767315Y-64231654D01*
X116643345Y-64107684D01*
X116494124Y-64015643D01*
X116494119Y-64015641D01*
X116327697Y-63960494D01*
X116327690Y-63960493D01*
X116224986Y-63950000D01*
X115825000Y-63950000D01*
X115825000Y-65016988D01*
X115767993Y-64984075D01*
X115640826Y-64950000D01*
X115509174Y-64950000D01*
X115382007Y-64984075D01*
X115325000Y-65016988D01*
X115325000Y-63950000D01*
X114925028Y-63950000D01*
X114925012Y-63950001D01*
X114822302Y-63960494D01*
X114655880Y-64015641D01*
X114655875Y-64015643D01*
X114506654Y-64107684D01*
X114382684Y-64231654D01*
X114290643Y-64380875D01*
X114290641Y-64380880D01*
X114235494Y-64547302D01*
X114235493Y-64547309D01*
X114225000Y-64650013D01*
X114225000Y-65200000D01*
X115141988Y-65200000D01*
X115109075Y-65257007D01*
X115075000Y-65384174D01*
X115075000Y-65515826D01*
X115109075Y-65642993D01*
X115141988Y-65700000D01*
X114225001Y-65700000D01*
X114225001Y-66249986D01*
X114235494Y-66352697D01*
X114290641Y-66519119D01*
X114290643Y-66519124D01*
X114382684Y-66668345D01*
X114506654Y-66792315D01*
X114655875Y-66884356D01*
X114655880Y-66884358D01*
X114822302Y-66939505D01*
X114822309Y-66939506D01*
X114925019Y-66949999D01*
X115324999Y-66949999D01*
X115325000Y-66949998D01*
X115325000Y-65883012D01*
X115382007Y-65915925D01*
X115509174Y-65950000D01*
X115640826Y-65950000D01*
X115767993Y-65915925D01*
X115825000Y-65883012D01*
X115825000Y-66949999D01*
X116224972Y-66949999D01*
X116224986Y-66949998D01*
X116327697Y-66939505D01*
X116494119Y-66884358D01*
X116494124Y-66884356D01*
X116643345Y-66792315D01*
X116767315Y-66668345D01*
X116858499Y-66520513D01*
X116910447Y-66473789D01*
X116979410Y-66462566D01*
X117043492Y-66490410D01*
X117051719Y-66497929D01*
X117189996Y-66636206D01*
X117189999Y-66636208D01*
X117302358Y-66717842D01*
X117345024Y-66773172D01*
X117351003Y-66842785D01*
X117332576Y-66887050D01*
X117242500Y-67021859D01*
X117242496Y-67021867D01*
X117200045Y-67124353D01*
X117156204Y-67178756D01*
X117089909Y-67200821D01*
X117085484Y-67200900D01*
X108533735Y-67200900D01*
X108486282Y-67191461D01*
X108475995Y-67187200D01*
X108355800Y-67137413D01*
X108355792Y-67137411D01*
X108180283Y-67102500D01*
X108180279Y-67102500D01*
X108001321Y-67102500D01*
X108001316Y-67102500D01*
X107825807Y-67137411D01*
X107825799Y-67137413D01*
X107660467Y-67205896D01*
X107660457Y-67205901D01*
X107511665Y-67305321D01*
X107511661Y-67305324D01*
X107385124Y-67431861D01*
X107385121Y-67431865D01*
X107285701Y-67580657D01*
X107285696Y-67580667D01*
X107217213Y-67745999D01*
X107217211Y-67746007D01*
X107182300Y-67921516D01*
X102351930Y-67921516D01*
X102243738Y-67813324D01*
X102243734Y-67813321D01*
X102094942Y-67713901D01*
X102094932Y-67713896D01*
X101929600Y-67645413D01*
X101929592Y-67645411D01*
X101754083Y-67610500D01*
X101754079Y-67610500D01*
X101575121Y-67610500D01*
X101575116Y-67610500D01*
X101399607Y-67645411D01*
X101399599Y-67645413D01*
X101234267Y-67713896D01*
X101234257Y-67713901D01*
X101085465Y-67813321D01*
X101085461Y-67813324D01*
X100958924Y-67939861D01*
X100958921Y-67939865D01*
X100859501Y-68088657D01*
X100859498Y-68088664D01*
X100803848Y-68223011D01*
X100776968Y-68263238D01*
X100451625Y-68588582D01*
X100390304Y-68622066D01*
X100363946Y-68624900D01*
X89741598Y-68624900D01*
X89694145Y-68615461D01*
X89633010Y-68590138D01*
X89559800Y-68559813D01*
X89559792Y-68559811D01*
X89384283Y-68524900D01*
X89384279Y-68524900D01*
X89205321Y-68524900D01*
X89205316Y-68524900D01*
X89029807Y-68559811D01*
X89029799Y-68559813D01*
X88864467Y-68628296D01*
X88864457Y-68628301D01*
X88715665Y-68727721D01*
X88710957Y-68731585D01*
X88710606Y-68731157D01*
X88701092Y-68738925D01*
X88601611Y-68805396D01*
X88601607Y-68805399D01*
X88489001Y-68918005D01*
X88488995Y-68918012D01*
X88400517Y-69050430D01*
X88339570Y-69197568D01*
X88339568Y-69197576D01*
X88308500Y-69353765D01*
X85118605Y-69353765D01*
X89822357Y-64650013D01*
X94350000Y-64650013D01*
X94350000Y-65200000D01*
X95266988Y-65200000D01*
X95234075Y-65257007D01*
X95200000Y-65384174D01*
X95200000Y-65515826D01*
X95234075Y-65642993D01*
X95266988Y-65700000D01*
X94350001Y-65700000D01*
X94350001Y-66249986D01*
X94360494Y-66352697D01*
X94415641Y-66519119D01*
X94415643Y-66519124D01*
X94507684Y-66668345D01*
X94631654Y-66792315D01*
X94780875Y-66884356D01*
X94780880Y-66884358D01*
X94947302Y-66939505D01*
X94947309Y-66939506D01*
X95050019Y-66949999D01*
X95449999Y-66949999D01*
X95450000Y-66949998D01*
X95450000Y-65883012D01*
X95507007Y-65915925D01*
X95634174Y-65950000D01*
X95765826Y-65950000D01*
X95892993Y-65915925D01*
X95950000Y-65883012D01*
X95950000Y-66949999D01*
X96349972Y-66949999D01*
X96349986Y-66949998D01*
X96452697Y-66939505D01*
X96619119Y-66884358D01*
X96619124Y-66884356D01*
X96768345Y-66792315D01*
X96892315Y-66668345D01*
X96983499Y-66520513D01*
X97035447Y-66473789D01*
X97104410Y-66462566D01*
X97168492Y-66490410D01*
X97176719Y-66497929D01*
X97314996Y-66636206D01*
X97487991Y-66761894D01*
X97581438Y-66809507D01*
X97678516Y-66858972D01*
X97678519Y-66858973D01*
X97721891Y-66873065D01*
X97881884Y-66925049D01*
X98093084Y-66958500D01*
X98093085Y-66958500D01*
X98306915Y-66958500D01*
X98306916Y-66958500D01*
X98518116Y-66925049D01*
X98721483Y-66858972D01*
X98912009Y-66761894D01*
X99085004Y-66636206D01*
X99236206Y-66485004D01*
X99361894Y-66312009D01*
X99458972Y-66121483D01*
X99525049Y-65918116D01*
X99558500Y-65706916D01*
X99558500Y-65193084D01*
X99525049Y-64981884D01*
X99492010Y-64880200D01*
X99458973Y-64778519D01*
X99458972Y-64778516D01*
X99420575Y-64703159D01*
X99414533Y-64691301D01*
X99361894Y-64587991D01*
X99236206Y-64414996D01*
X99085004Y-64263794D01*
X98912009Y-64138106D01*
X98871299Y-64117363D01*
X98721483Y-64041027D01*
X98721480Y-64041026D01*
X98518117Y-63974951D01*
X98412516Y-63958225D01*
X98306916Y-63941500D01*
X98093084Y-63941500D01*
X98039411Y-63950001D01*
X97881882Y-63974951D01*
X97678519Y-64041026D01*
X97678516Y-64041027D01*
X97487990Y-64138106D01*
X97314997Y-64263793D01*
X97176719Y-64402071D01*
X97115396Y-64435555D01*
X97045704Y-64430571D01*
X96989771Y-64388699D01*
X96983499Y-64379486D01*
X96892315Y-64231654D01*
X96768345Y-64107684D01*
X96619124Y-64015643D01*
X96619119Y-64015641D01*
X96452697Y-63960494D01*
X96452690Y-63960493D01*
X96349986Y-63950000D01*
X95950000Y-63950000D01*
X95950000Y-65016988D01*
X95892993Y-64984075D01*
X95765826Y-64950000D01*
X95634174Y-64950000D01*
X95507007Y-64984075D01*
X95450000Y-65016988D01*
X95450000Y-63950000D01*
X95050028Y-63950000D01*
X95050012Y-63950001D01*
X94947302Y-63960494D01*
X94780880Y-64015641D01*
X94780875Y-64015643D01*
X94631654Y-64107684D01*
X94507684Y-64231654D01*
X94415643Y-64380875D01*
X94415641Y-64380880D01*
X94360494Y-64547302D01*
X94360493Y-64547309D01*
X94350000Y-64650013D01*
X89822357Y-64650013D01*
X91202951Y-63269419D01*
X91264274Y-63235934D01*
X91290632Y-63233100D01*
X101308820Y-63233100D01*
X101375859Y-63252785D01*
X101411922Y-63288209D01*
X101492321Y-63408534D01*
X101492324Y-63408538D01*
X101618861Y-63535075D01*
X101618865Y-63535078D01*
X101767657Y-63634498D01*
X101767661Y-63634500D01*
X101767664Y-63634502D01*
X101933000Y-63702987D01*
X102108516Y-63737899D01*
X102108520Y-63737900D01*
X102108521Y-63737900D01*
X102287480Y-63737900D01*
X102287481Y-63737899D01*
X102463000Y-63702987D01*
X102628336Y-63634502D01*
X102777135Y-63535078D01*
X102903678Y-63408535D01*
X103003102Y-63259736D01*
X103071587Y-63094400D01*
X103106500Y-62918879D01*
X103106500Y-62739921D01*
X103071587Y-62564400D01*
X103003102Y-62399064D01*
X103003100Y-62399061D01*
X103003098Y-62399057D01*
X102912439Y-62263376D01*
X102891561Y-62196698D01*
X102910046Y-62129318D01*
X102912440Y-62125593D01*
X102925807Y-62105589D01*
X102952302Y-62065936D01*
X103020787Y-61900600D01*
X103055700Y-61725079D01*
X103055700Y-61546121D01*
X103020787Y-61370600D01*
X102952302Y-61205264D01*
X102952300Y-61205261D01*
X102952298Y-61205257D01*
X102885010Y-61104554D01*
X102864132Y-61037877D01*
X102882616Y-60970496D01*
X102900437Y-60947976D01*
X102903678Y-60944735D01*
X103003102Y-60795936D01*
X103071587Y-60630600D01*
X103106500Y-60455079D01*
X103106500Y-60276121D01*
X103071587Y-60100600D01*
X103003102Y-59935264D01*
X102971724Y-59888303D01*
X102950847Y-59821625D01*
X102969332Y-59754245D01*
X102971708Y-59750547D01*
X103053902Y-59627536D01*
X103122387Y-59462200D01*
X103157300Y-59286679D01*
X103157300Y-59107721D01*
X103122387Y-58932200D01*
X103053902Y-58766864D01*
X103053900Y-58766861D01*
X103053898Y-58766857D01*
X102954478Y-58618065D01*
X102954475Y-58618061D01*
X102827938Y-58491524D01*
X102827934Y-58491521D01*
X102679142Y-58392101D01*
X102679133Y-58392096D01*
X102609368Y-58363199D01*
X102594419Y-58357007D01*
X102513800Y-58323613D01*
X102513792Y-58323611D01*
X102338283Y-58288700D01*
X102338279Y-58288700D01*
X102159321Y-58288700D01*
X102159316Y-58288700D01*
X101983807Y-58323611D01*
X101983799Y-58323613D01*
X101818467Y-58392096D01*
X101818457Y-58392101D01*
X101669665Y-58491521D01*
X101669661Y-58491524D01*
X101543124Y-58618061D01*
X101543121Y-58618065D01*
X101443701Y-58766857D01*
X101443696Y-58766867D01*
X101375213Y-58932199D01*
X101375211Y-58932205D01*
X101354935Y-59034139D01*
X101322550Y-59096050D01*
X101320999Y-59097628D01*
X100438848Y-59979781D01*
X100377525Y-60013266D01*
X100351167Y-60016100D01*
X82869432Y-60016100D01*
X82802393Y-59996415D01*
X82781751Y-59979781D01*
X81239555Y-58437585D01*
X81223367Y-58407939D01*
X81206606Y-58378615D01*
X81206549Y-58377140D01*
X81206070Y-58376262D01*
X81203403Y-58343467D01*
X81203741Y-58336958D01*
X81208500Y-58306916D01*
X81208500Y-57793084D01*
X81175049Y-57581884D01*
X81108972Y-57378517D01*
X81108972Y-57378516D01*
X81070575Y-57303159D01*
X81043496Y-57250013D01*
X94350000Y-57250013D01*
X94350000Y-57800000D01*
X95266988Y-57800000D01*
X95234075Y-57857007D01*
X95200000Y-57984174D01*
X95200000Y-58115826D01*
X95234075Y-58242993D01*
X95266988Y-58300000D01*
X94350001Y-58300000D01*
X94350001Y-58849986D01*
X94360494Y-58952697D01*
X94415641Y-59119119D01*
X94415643Y-59119124D01*
X94507684Y-59268345D01*
X94631654Y-59392315D01*
X94780875Y-59484356D01*
X94780880Y-59484358D01*
X94947302Y-59539505D01*
X94947309Y-59539506D01*
X95050019Y-59549999D01*
X95449999Y-59549999D01*
X95450000Y-59549998D01*
X95450000Y-58483012D01*
X95507007Y-58515925D01*
X95634174Y-58550000D01*
X95765826Y-58550000D01*
X95892993Y-58515925D01*
X95950000Y-58483012D01*
X95950000Y-59549999D01*
X96349972Y-59549999D01*
X96349986Y-59549998D01*
X96452697Y-59539505D01*
X96619119Y-59484358D01*
X96619124Y-59484356D01*
X96768345Y-59392315D01*
X96892315Y-59268345D01*
X96983499Y-59120513D01*
X97035447Y-59073789D01*
X97104410Y-59062566D01*
X97168492Y-59090410D01*
X97176719Y-59097929D01*
X97314996Y-59236206D01*
X97487991Y-59361894D01*
X97581438Y-59409507D01*
X97678516Y-59458972D01*
X97678519Y-59458973D01*
X97756642Y-59484356D01*
X97881884Y-59525049D01*
X98093084Y-59558500D01*
X98093085Y-59558500D01*
X98306915Y-59558500D01*
X98306916Y-59558500D01*
X98518116Y-59525049D01*
X98721483Y-59458972D01*
X98912009Y-59361894D01*
X99085004Y-59236206D01*
X99236206Y-59085004D01*
X99361894Y-58912009D01*
X99458972Y-58721483D01*
X99525049Y-58518116D01*
X99558500Y-58306916D01*
X99558500Y-57793084D01*
X99525049Y-57581884D01*
X99458972Y-57378517D01*
X99458972Y-57378516D01*
X99420575Y-57303159D01*
X99393496Y-57250013D01*
X114225000Y-57250013D01*
X114225000Y-57800000D01*
X115141988Y-57800000D01*
X115109075Y-57857007D01*
X115075000Y-57984174D01*
X115075000Y-58115826D01*
X115109075Y-58242993D01*
X115141988Y-58300000D01*
X114225001Y-58300000D01*
X114225001Y-58849986D01*
X114235494Y-58952697D01*
X114290641Y-59119119D01*
X114290643Y-59119124D01*
X114382684Y-59268345D01*
X114506654Y-59392315D01*
X114655875Y-59484356D01*
X114655880Y-59484358D01*
X114822302Y-59539505D01*
X114822309Y-59539506D01*
X114925019Y-59549999D01*
X115324999Y-59549999D01*
X115325000Y-59549998D01*
X115325000Y-58483012D01*
X115382007Y-58515925D01*
X115509174Y-58550000D01*
X115640826Y-58550000D01*
X115767993Y-58515925D01*
X115825000Y-58483012D01*
X115825000Y-59549999D01*
X116224972Y-59549999D01*
X116224986Y-59549998D01*
X116327697Y-59539505D01*
X116494119Y-59484358D01*
X116494124Y-59484356D01*
X116643345Y-59392315D01*
X116767315Y-59268345D01*
X116858499Y-59120513D01*
X116910447Y-59073789D01*
X116979410Y-59062566D01*
X117043492Y-59090410D01*
X117051719Y-59097929D01*
X117189996Y-59236206D01*
X117362991Y-59361894D01*
X117456438Y-59409507D01*
X117553516Y-59458972D01*
X117553519Y-59458973D01*
X117631642Y-59484356D01*
X117756884Y-59525049D01*
X117968084Y-59558500D01*
X117968085Y-59558500D01*
X118181915Y-59558500D01*
X118181916Y-59558500D01*
X118393116Y-59525049D01*
X118596483Y-59458972D01*
X118787009Y-59361894D01*
X118960004Y-59236206D01*
X119111206Y-59085004D01*
X119236894Y-58912009D01*
X119333972Y-58721483D01*
X119400049Y-58518116D01*
X119433500Y-58306916D01*
X119433500Y-57793084D01*
X119400049Y-57581884D01*
X119333972Y-57378517D01*
X119333972Y-57378516D01*
X119295575Y-57303159D01*
X119268496Y-57250013D01*
X132675000Y-57250013D01*
X132675000Y-57800000D01*
X133591988Y-57800000D01*
X133559075Y-57857007D01*
X133525000Y-57984174D01*
X133525000Y-58115826D01*
X133559075Y-58242993D01*
X133591988Y-58300000D01*
X132675001Y-58300000D01*
X132675001Y-58849986D01*
X132685494Y-58952697D01*
X132740641Y-59119119D01*
X132740643Y-59119124D01*
X132832684Y-59268345D01*
X132956654Y-59392315D01*
X133105875Y-59484356D01*
X133105880Y-59484358D01*
X133272302Y-59539505D01*
X133272309Y-59539506D01*
X133375019Y-59549999D01*
X133774999Y-59549999D01*
X133775000Y-59549998D01*
X133775000Y-58483012D01*
X133832007Y-58515925D01*
X133959174Y-58550000D01*
X134090826Y-58550000D01*
X134217993Y-58515925D01*
X134275000Y-58483012D01*
X134275000Y-59549999D01*
X134674972Y-59549999D01*
X134674986Y-59549998D01*
X134777697Y-59539505D01*
X134944119Y-59484358D01*
X134944124Y-59484356D01*
X135093345Y-59392315D01*
X135217315Y-59268345D01*
X135308499Y-59120513D01*
X135360447Y-59073789D01*
X135429410Y-59062566D01*
X135493492Y-59090410D01*
X135501719Y-59097929D01*
X135639996Y-59236206D01*
X135812991Y-59361894D01*
X135906438Y-59409507D01*
X136003516Y-59458972D01*
X136003519Y-59458973D01*
X136081642Y-59484356D01*
X136206884Y-59525049D01*
X136418084Y-59558500D01*
X136418085Y-59558500D01*
X136631915Y-59558500D01*
X136631916Y-59558500D01*
X136843116Y-59525049D01*
X137046483Y-59458972D01*
X137237009Y-59361894D01*
X137410004Y-59236206D01*
X137561206Y-59085004D01*
X137686894Y-58912009D01*
X137783972Y-58721483D01*
X137850049Y-58518116D01*
X137883500Y-58306916D01*
X137883500Y-57793084D01*
X137850049Y-57581884D01*
X137783972Y-57378517D01*
X137783972Y-57378516D01*
X137686893Y-57187990D01*
X137561206Y-57014996D01*
X137410004Y-56863794D01*
X137237009Y-56738106D01*
X137177303Y-56707684D01*
X137046483Y-56641027D01*
X137046480Y-56641026D01*
X136843117Y-56574951D01*
X136737516Y-56558225D01*
X136631916Y-56541500D01*
X136418084Y-56541500D01*
X136364411Y-56550001D01*
X136206882Y-56574951D01*
X136003519Y-56641026D01*
X136003516Y-56641027D01*
X135812990Y-56738106D01*
X135639997Y-56863793D01*
X135501719Y-57002071D01*
X135440396Y-57035555D01*
X135370704Y-57030571D01*
X135314771Y-56988699D01*
X135308499Y-56979486D01*
X135217315Y-56831654D01*
X135093345Y-56707684D01*
X134944124Y-56615643D01*
X134944119Y-56615641D01*
X134777697Y-56560494D01*
X134777690Y-56560493D01*
X134674986Y-56550000D01*
X134275000Y-56550000D01*
X134275000Y-57616988D01*
X134217993Y-57584075D01*
X134090826Y-57550000D01*
X133959174Y-57550000D01*
X133832007Y-57584075D01*
X133775000Y-57616988D01*
X133775000Y-56550000D01*
X133375028Y-56550000D01*
X133375012Y-56550001D01*
X133272302Y-56560494D01*
X133105880Y-56615641D01*
X133105875Y-56615643D01*
X132956654Y-56707684D01*
X132832684Y-56831654D01*
X132740643Y-56980875D01*
X132740641Y-56980880D01*
X132685494Y-57147302D01*
X132685493Y-57147309D01*
X132675000Y-57250013D01*
X119268496Y-57250013D01*
X119236893Y-57187990D01*
X119111206Y-57014996D01*
X118960004Y-56863794D01*
X118787009Y-56738106D01*
X118727303Y-56707684D01*
X118596483Y-56641027D01*
X118596480Y-56641026D01*
X118393117Y-56574951D01*
X118287516Y-56558225D01*
X118181916Y-56541500D01*
X117968084Y-56541500D01*
X117914411Y-56550001D01*
X117756882Y-56574951D01*
X117553519Y-56641026D01*
X117553516Y-56641027D01*
X117362990Y-56738106D01*
X117189997Y-56863793D01*
X117051719Y-57002071D01*
X116990396Y-57035555D01*
X116920704Y-57030571D01*
X116864771Y-56988699D01*
X116858499Y-56979486D01*
X116767315Y-56831654D01*
X116643345Y-56707684D01*
X116494124Y-56615643D01*
X116494119Y-56615641D01*
X116327697Y-56560494D01*
X116327690Y-56560493D01*
X116224986Y-56550000D01*
X115825000Y-56550000D01*
X115825000Y-57616988D01*
X115767993Y-57584075D01*
X115640826Y-57550000D01*
X115509174Y-57550000D01*
X115382007Y-57584075D01*
X115325000Y-57616988D01*
X115325000Y-56550000D01*
X114925028Y-56550000D01*
X114925012Y-56550001D01*
X114822302Y-56560494D01*
X114655880Y-56615641D01*
X114655875Y-56615643D01*
X114506654Y-56707684D01*
X114382684Y-56831654D01*
X114290643Y-56980875D01*
X114290641Y-56980880D01*
X114235494Y-57147302D01*
X114235493Y-57147309D01*
X114225000Y-57250013D01*
X99393496Y-57250013D01*
X99361893Y-57187990D01*
X99236206Y-57014996D01*
X99085004Y-56863794D01*
X98912009Y-56738106D01*
X98852303Y-56707684D01*
X98721483Y-56641027D01*
X98721480Y-56641026D01*
X98518117Y-56574951D01*
X98412516Y-56558225D01*
X98306916Y-56541500D01*
X98093084Y-56541500D01*
X98039411Y-56550001D01*
X97881882Y-56574951D01*
X97678519Y-56641026D01*
X97678516Y-56641027D01*
X97487990Y-56738106D01*
X97314997Y-56863793D01*
X97176719Y-57002071D01*
X97115396Y-57035555D01*
X97045704Y-57030571D01*
X96989771Y-56988699D01*
X96983499Y-56979486D01*
X96892315Y-56831654D01*
X96768345Y-56707684D01*
X96619124Y-56615643D01*
X96619119Y-56615641D01*
X96452697Y-56560494D01*
X96452690Y-56560493D01*
X96349986Y-56550000D01*
X95950000Y-56550000D01*
X95950000Y-57616988D01*
X95892993Y-57584075D01*
X95765826Y-57550000D01*
X95634174Y-57550000D01*
X95507007Y-57584075D01*
X95450000Y-57616988D01*
X95450000Y-56550000D01*
X95050028Y-56550000D01*
X95050012Y-56550001D01*
X94947302Y-56560494D01*
X94780880Y-56615641D01*
X94780875Y-56615643D01*
X94631654Y-56707684D01*
X94507684Y-56831654D01*
X94415643Y-56980875D01*
X94415641Y-56980880D01*
X94360494Y-57147302D01*
X94360493Y-57147309D01*
X94350000Y-57250013D01*
X81043496Y-57250013D01*
X81011893Y-57187990D01*
X80886206Y-57014996D01*
X80735004Y-56863794D01*
X80562009Y-56738106D01*
X80502303Y-56707684D01*
X80371483Y-56641027D01*
X80371480Y-56641026D01*
X80168117Y-56574951D01*
X80062516Y-56558225D01*
X79956916Y-56541500D01*
X79743084Y-56541500D01*
X79689411Y-56550001D01*
X79531882Y-56574951D01*
X79328519Y-56641026D01*
X79328516Y-56641027D01*
X79137990Y-56738106D01*
X78964997Y-56863793D01*
X78826719Y-57002071D01*
X78765396Y-57035555D01*
X78695704Y-57030571D01*
X78639771Y-56988699D01*
X78633499Y-56979486D01*
X78542315Y-56831654D01*
X78418345Y-56707684D01*
X78269124Y-56615643D01*
X78269119Y-56615641D01*
X78102697Y-56560494D01*
X78102690Y-56560493D01*
X77999986Y-56550000D01*
X77600000Y-56550000D01*
X77600000Y-57616988D01*
X77542993Y-57584075D01*
X77415826Y-57550000D01*
X77284174Y-57550000D01*
X77157007Y-57584075D01*
X77100000Y-57616988D01*
X77100000Y-56550000D01*
X76700028Y-56550000D01*
X76700012Y-56550001D01*
X76597302Y-56560494D01*
X76430880Y-56615641D01*
X76430875Y-56615643D01*
X76281654Y-56707684D01*
X76157684Y-56831654D01*
X76065643Y-56980875D01*
X76065641Y-56980880D01*
X76010494Y-57147302D01*
X76010493Y-57147309D01*
X76000000Y-57250013D01*
X67000500Y-57250013D01*
X67000500Y-43817816D01*
X67291500Y-43817816D01*
X67291500Y-44182183D01*
X67327213Y-44544795D01*
X67327216Y-44544812D01*
X67398295Y-44902158D01*
X67398298Y-44902169D01*
X67504074Y-45250868D01*
X67643514Y-45587502D01*
X67643516Y-45587507D01*
X67815271Y-45908837D01*
X67815282Y-45908855D01*
X68017707Y-46211806D01*
X68017717Y-46211820D01*
X68248873Y-46493485D01*
X68506514Y-46751126D01*
X68506519Y-46751130D01*
X68506520Y-46751131D01*
X68788185Y-46982287D01*
X69091151Y-47184722D01*
X69091160Y-47184727D01*
X69091162Y-47184728D01*
X69412492Y-47356483D01*
X69412494Y-47356483D01*
X69412500Y-47356487D01*
X69524802Y-47403004D01*
X69749131Y-47495925D01*
X69749135Y-47495926D01*
X69749137Y-47495927D01*
X70097821Y-47601699D01*
X70097827Y-47601700D01*
X70097830Y-47601701D01*
X70097841Y-47601704D01*
X70321927Y-47646276D01*
X70455194Y-47672785D01*
X70817813Y-47708500D01*
X70817816Y-47708500D01*
X71182184Y-47708500D01*
X71182187Y-47708500D01*
X71544806Y-47672785D01*
X71721696Y-47637599D01*
X71902158Y-47601704D01*
X71902169Y-47601701D01*
X71902169Y-47601700D01*
X71902179Y-47601699D01*
X72250863Y-47495927D01*
X72587500Y-47356487D01*
X72908849Y-47184722D01*
X73211815Y-46982287D01*
X73493480Y-46751131D01*
X73751131Y-46493480D01*
X73982287Y-46211815D01*
X74184722Y-45908849D01*
X74356487Y-45587500D01*
X74495927Y-45250863D01*
X74601699Y-44902179D01*
X74601701Y-44902169D01*
X74601704Y-44902158D01*
X74650869Y-44654986D01*
X74672785Y-44544806D01*
X74708500Y-44182187D01*
X74708500Y-43817813D01*
X74672785Y-43455194D01*
X74628691Y-43233517D01*
X74607316Y-43126055D01*
X74603131Y-43105013D01*
X77550000Y-43105013D01*
X77550000Y-43630000D01*
X78495854Y-43630000D01*
X78457370Y-43696657D01*
X78425000Y-43817465D01*
X78425000Y-43942535D01*
X78457370Y-44063343D01*
X78495854Y-44130000D01*
X77550001Y-44130000D01*
X77550001Y-44654986D01*
X77560494Y-44757697D01*
X77615641Y-44924119D01*
X77615643Y-44924124D01*
X77707684Y-45073345D01*
X77831654Y-45197315D01*
X77980875Y-45289356D01*
X77980880Y-45289358D01*
X78147302Y-45344505D01*
X78147309Y-45344506D01*
X78250019Y-45354999D01*
X78649999Y-45354999D01*
X78650000Y-45354998D01*
X78650000Y-44284145D01*
X78716657Y-44322630D01*
X78837465Y-44355000D01*
X78962535Y-44355000D01*
X79083343Y-44322630D01*
X79150000Y-44284145D01*
X79150000Y-45354999D01*
X79549972Y-45354999D01*
X79549986Y-45354998D01*
X79652697Y-45344505D01*
X79819119Y-45289358D01*
X79819124Y-45289356D01*
X79968345Y-45197315D01*
X80092315Y-45073345D01*
X80183499Y-44925513D01*
X80235447Y-44878789D01*
X80304410Y-44867566D01*
X80368492Y-44895410D01*
X80376719Y-44902929D01*
X80514996Y-45041206D01*
X80687991Y-45166894D01*
X80781438Y-45214507D01*
X80878516Y-45263972D01*
X80878519Y-45263973D01*
X80956642Y-45289356D01*
X81081884Y-45330049D01*
X81293084Y-45363500D01*
X81293085Y-45363500D01*
X81506915Y-45363500D01*
X81506916Y-45363500D01*
X81718116Y-45330049D01*
X81921483Y-45263972D01*
X82112009Y-45166894D01*
X82285004Y-45041206D01*
X82436206Y-44890004D01*
X82513076Y-44784200D01*
X82549682Y-44733818D01*
X82605012Y-44691152D01*
X82674625Y-44685173D01*
X82736420Y-44717779D01*
X82750318Y-44733818D01*
X82847492Y-44867566D01*
X82863794Y-44890004D01*
X83014996Y-45041206D01*
X83059232Y-45073345D01*
X83140386Y-45132307D01*
X83183051Y-45187637D01*
X83191500Y-45232625D01*
X83191500Y-47542572D01*
X83218724Y-47679439D01*
X83218727Y-47679448D01*
X83272135Y-47808387D01*
X83272136Y-47808390D01*
X83349671Y-47924428D01*
X83349674Y-47924432D01*
X90966570Y-55541328D01*
X91082612Y-55618864D01*
X91082613Y-55618865D01*
X91136018Y-55640985D01*
X91136020Y-55640986D01*
X91136021Y-55640986D01*
X91211552Y-55672273D01*
X91234391Y-55676816D01*
X91328955Y-55695626D01*
X91340073Y-55697837D01*
X91348432Y-55699500D01*
X93108782Y-55699500D01*
X93177221Y-55685886D01*
X93245662Y-55672273D01*
X93283427Y-55656630D01*
X93374601Y-55618865D01*
X93490643Y-55541328D01*
X93527863Y-55504106D01*
X93589185Y-55470621D01*
X93591273Y-55470186D01*
X93725000Y-55443587D01*
X93890336Y-55375102D01*
X94039135Y-55275678D01*
X94165678Y-55149135D01*
X94265102Y-55000336D01*
X94333587Y-54835000D01*
X94368500Y-54659479D01*
X94368500Y-54480521D01*
X94333587Y-54305000D01*
X94265102Y-54139664D01*
X94265100Y-54139661D01*
X94265098Y-54139657D01*
X94165678Y-53990865D01*
X94165675Y-53990861D01*
X94039138Y-53864324D01*
X94039134Y-53864321D01*
X93997325Y-53836385D01*
X93952520Y-53782773D01*
X93943813Y-53713448D01*
X93944599Y-53709090D01*
X93948500Y-53689480D01*
X93948500Y-53510520D01*
X93948499Y-53510516D01*
X93913588Y-53335007D01*
X93913587Y-53335000D01*
X93845102Y-53169664D01*
X93845100Y-53169661D01*
X93845098Y-53169657D01*
X93745678Y-53020865D01*
X93745675Y-53020861D01*
X93619138Y-52894324D01*
X93619134Y-52894321D01*
X93470342Y-52794901D01*
X93470332Y-52794896D01*
X93305000Y-52726413D01*
X93304992Y-52726411D01*
X93129483Y-52691500D01*
X93129479Y-52691500D01*
X92950521Y-52691500D01*
X92950516Y-52691500D01*
X92775007Y-52726411D01*
X92774999Y-52726413D01*
X92681879Y-52764985D01*
X92612409Y-52772454D01*
X92549930Y-52741179D01*
X92531325Y-52719316D01*
X92525678Y-52710865D01*
X92525673Y-52710859D01*
X92399138Y-52584324D01*
X92399134Y-52584321D01*
X92250342Y-52484901D01*
X92250332Y-52484896D01*
X92085000Y-52416413D01*
X92084993Y-52416411D01*
X92001285Y-52399761D01*
X91939374Y-52367377D01*
X91937795Y-52365825D01*
X89644819Y-50072848D01*
X89611334Y-50011525D01*
X89608500Y-49985167D01*
X89608500Y-45232625D01*
X89628185Y-45165586D01*
X89659614Y-45132307D01*
X89785004Y-45041206D01*
X89936206Y-44890004D01*
X90061894Y-44717009D01*
X90158972Y-44526483D01*
X90225049Y-44323116D01*
X90258500Y-44111916D01*
X90258500Y-43817816D01*
X139291500Y-43817816D01*
X139291500Y-44182183D01*
X139327213Y-44544795D01*
X139327216Y-44544812D01*
X139398295Y-44902158D01*
X139398298Y-44902169D01*
X139504074Y-45250868D01*
X139643514Y-45587502D01*
X139643516Y-45587507D01*
X139815271Y-45908837D01*
X139815282Y-45908855D01*
X140017707Y-46211806D01*
X140017717Y-46211820D01*
X140248873Y-46493485D01*
X140506514Y-46751126D01*
X140506519Y-46751130D01*
X140506520Y-46751131D01*
X140788185Y-46982287D01*
X141091151Y-47184722D01*
X141091160Y-47184727D01*
X141091162Y-47184728D01*
X141412492Y-47356483D01*
X141412494Y-47356483D01*
X141412500Y-47356487D01*
X141524802Y-47403004D01*
X141749131Y-47495925D01*
X141749135Y-47495926D01*
X141749137Y-47495927D01*
X142097821Y-47601699D01*
X142097827Y-47601700D01*
X142097830Y-47601701D01*
X142097841Y-47601704D01*
X142321927Y-47646276D01*
X142455194Y-47672785D01*
X142817813Y-47708500D01*
X142817816Y-47708500D01*
X143182184Y-47708500D01*
X143182187Y-47708500D01*
X143544806Y-47672785D01*
X143721696Y-47637599D01*
X143902158Y-47601704D01*
X143902169Y-47601701D01*
X143902169Y-47601700D01*
X143902179Y-47601699D01*
X144250863Y-47495927D01*
X144587500Y-47356487D01*
X144908849Y-47184722D01*
X145211815Y-46982287D01*
X145493480Y-46751131D01*
X145751131Y-46493480D01*
X145982287Y-46211815D01*
X146184722Y-45908849D01*
X146356487Y-45587500D01*
X146495927Y-45250863D01*
X146601699Y-44902179D01*
X146601701Y-44902169D01*
X146601704Y-44902158D01*
X146650869Y-44654986D01*
X146672785Y-44544806D01*
X146708500Y-44182187D01*
X146708500Y-43817813D01*
X146672785Y-43455194D01*
X146628691Y-43233517D01*
X146601704Y-43097841D01*
X146601701Y-43097830D01*
X146601700Y-43097827D01*
X146601699Y-43097821D01*
X146495927Y-42749137D01*
X146483359Y-42718796D01*
X146413894Y-42551092D01*
X146356487Y-42412500D01*
X146184722Y-42091151D01*
X145982287Y-41788185D01*
X145751131Y-41506520D01*
X145751130Y-41506519D01*
X145751126Y-41506514D01*
X145493485Y-41248873D01*
X145211820Y-41017717D01*
X145211819Y-41017716D01*
X145211815Y-41017713D01*
X144908849Y-40815278D01*
X144908844Y-40815275D01*
X144908837Y-40815271D01*
X144587507Y-40643516D01*
X144587502Y-40643514D01*
X144250868Y-40504074D01*
X143902169Y-40398298D01*
X143902158Y-40398295D01*
X143544812Y-40327216D01*
X143544795Y-40327213D01*
X143270580Y-40300206D01*
X143182187Y-40291500D01*
X142817813Y-40291500D01*
X142736062Y-40299551D01*
X142455204Y-40327213D01*
X142455187Y-40327216D01*
X142097841Y-40398295D01*
X142097830Y-40398298D01*
X141749131Y-40504074D01*
X141412497Y-40643514D01*
X141412492Y-40643516D01*
X141091162Y-40815271D01*
X141091144Y-40815282D01*
X140788193Y-41017707D01*
X140788179Y-41017717D01*
X140506514Y-41248873D01*
X140248873Y-41506514D01*
X140017717Y-41788179D01*
X140017707Y-41788193D01*
X139815282Y-42091144D01*
X139815271Y-42091162D01*
X139643516Y-42412492D01*
X139643514Y-42412497D01*
X139504074Y-42749131D01*
X139398298Y-43097830D01*
X139398295Y-43097841D01*
X139327216Y-43455187D01*
X139327213Y-43455204D01*
X139310441Y-43625500D01*
X139291535Y-43817465D01*
X139291500Y-43817816D01*
X90258500Y-43817816D01*
X90258500Y-43648084D01*
X90225049Y-43436884D01*
X90180885Y-43300958D01*
X90158973Y-43233519D01*
X90158972Y-43233516D01*
X90093496Y-43105013D01*
X90061894Y-43042991D01*
X89936206Y-42869996D01*
X89785004Y-42718794D01*
X89612009Y-42593106D01*
X89421483Y-42496027D01*
X89421480Y-42496026D01*
X89218117Y-42429951D01*
X89107885Y-42412492D01*
X89006916Y-42396500D01*
X88793084Y-42396500D01*
X88739411Y-42405001D01*
X88581882Y-42429951D01*
X88378519Y-42496026D01*
X88378516Y-42496027D01*
X88187990Y-42593106D01*
X88014993Y-42718796D01*
X87863796Y-42869993D01*
X87863796Y-42869994D01*
X87863794Y-42869996D01*
X87848857Y-42890555D01*
X87750318Y-43026182D01*
X87694988Y-43068847D01*
X87625374Y-43074826D01*
X87563579Y-43042220D01*
X87549682Y-43026182D01*
X87524930Y-42992115D01*
X87436206Y-42869996D01*
X87285004Y-42718794D01*
X87112009Y-42593106D01*
X86921483Y-42496027D01*
X86921480Y-42496026D01*
X86718117Y-42429951D01*
X86607885Y-42412492D01*
X86506916Y-42396500D01*
X86293084Y-42396500D01*
X86239411Y-42405001D01*
X86081882Y-42429951D01*
X85878519Y-42496026D01*
X85878516Y-42496027D01*
X85687990Y-42593106D01*
X85514993Y-42718796D01*
X85363796Y-42869993D01*
X85363796Y-42869994D01*
X85363794Y-42869996D01*
X85348857Y-42890555D01*
X85250318Y-43026182D01*
X85194988Y-43068847D01*
X85125374Y-43074826D01*
X85063579Y-43042220D01*
X85049682Y-43026182D01*
X85024930Y-42992115D01*
X84936206Y-42869996D01*
X84785004Y-42718794D01*
X84612009Y-42593106D01*
X84421483Y-42496027D01*
X84421480Y-42496026D01*
X84218117Y-42429951D01*
X84107885Y-42412492D01*
X84006916Y-42396500D01*
X83793084Y-42396500D01*
X83739411Y-42405001D01*
X83581882Y-42429951D01*
X83378519Y-42496026D01*
X83378516Y-42496027D01*
X83187990Y-42593106D01*
X83014993Y-42718796D01*
X82863796Y-42869993D01*
X82863796Y-42869994D01*
X82863794Y-42869996D01*
X82848857Y-42890555D01*
X82750318Y-43026182D01*
X82694988Y-43068847D01*
X82625374Y-43074826D01*
X82563579Y-43042220D01*
X82549682Y-43026182D01*
X82524930Y-42992115D01*
X82436206Y-42869996D01*
X82285004Y-42718794D01*
X82112009Y-42593106D01*
X81921483Y-42496027D01*
X81921480Y-42496026D01*
X81718117Y-42429951D01*
X81607885Y-42412492D01*
X81506916Y-42396500D01*
X81293084Y-42396500D01*
X81239411Y-42405001D01*
X81081882Y-42429951D01*
X80878519Y-42496026D01*
X80878516Y-42496027D01*
X80687990Y-42593106D01*
X80514997Y-42718793D01*
X80376719Y-42857071D01*
X80315396Y-42890555D01*
X80245704Y-42885571D01*
X80189771Y-42843699D01*
X80183499Y-42834486D01*
X80092315Y-42686654D01*
X79968345Y-42562684D01*
X79819124Y-42470643D01*
X79819119Y-42470641D01*
X79652697Y-42415494D01*
X79652690Y-42415493D01*
X79549986Y-42405000D01*
X79150000Y-42405000D01*
X79150000Y-43475854D01*
X79083343Y-43437370D01*
X78962535Y-43405000D01*
X78837465Y-43405000D01*
X78716657Y-43437370D01*
X78650000Y-43475854D01*
X78650000Y-42405000D01*
X78250028Y-42405000D01*
X78250012Y-42405001D01*
X78147302Y-42415494D01*
X77980880Y-42470641D01*
X77980875Y-42470643D01*
X77831654Y-42562684D01*
X77707684Y-42686654D01*
X77615643Y-42835875D01*
X77615641Y-42835880D01*
X77560494Y-43002302D01*
X77560493Y-43002309D01*
X77550000Y-43105013D01*
X74603131Y-43105013D01*
X74601704Y-43097841D01*
X74601701Y-43097830D01*
X74601700Y-43097827D01*
X74601699Y-43097821D01*
X74495927Y-42749137D01*
X74483359Y-42718796D01*
X74413894Y-42551092D01*
X74356487Y-42412500D01*
X74184722Y-42091151D01*
X73982287Y-41788185D01*
X73751131Y-41506520D01*
X73751130Y-41506519D01*
X73751126Y-41506514D01*
X73493485Y-41248873D01*
X73211820Y-41017717D01*
X73211819Y-41017716D01*
X73211815Y-41017713D01*
X72908849Y-40815278D01*
X72908844Y-40815275D01*
X72908837Y-40815271D01*
X72587507Y-40643516D01*
X72587502Y-40643514D01*
X72250868Y-40504074D01*
X71902169Y-40398298D01*
X71902158Y-40398295D01*
X71544812Y-40327216D01*
X71544795Y-40327213D01*
X71270580Y-40300206D01*
X71182187Y-40291500D01*
X70817813Y-40291500D01*
X70736062Y-40299551D01*
X70455204Y-40327213D01*
X70455187Y-40327216D01*
X70097841Y-40398295D01*
X70097830Y-40398298D01*
X69749131Y-40504074D01*
X69412497Y-40643514D01*
X69412492Y-40643516D01*
X69091162Y-40815271D01*
X69091144Y-40815282D01*
X68788193Y-41017707D01*
X68788179Y-41017717D01*
X68506514Y-41248873D01*
X68248873Y-41506514D01*
X68017717Y-41788179D01*
X68017707Y-41788193D01*
X67815282Y-42091144D01*
X67815271Y-42091162D01*
X67643516Y-42412492D01*
X67643514Y-42412497D01*
X67504074Y-42749131D01*
X67398298Y-43097830D01*
X67398295Y-43097841D01*
X67327216Y-43455187D01*
X67327213Y-43455204D01*
X67310441Y-43625500D01*
X67291535Y-43817465D01*
X67291500Y-43817816D01*
X67000500Y-43817816D01*
X67000500Y-43628050D01*
X67000649Y-43621966D01*
X67006645Y-43499905D01*
X67016420Y-43300924D01*
X67016944Y-43294122D01*
X67024790Y-43219479D01*
X67025443Y-43214325D01*
X67066967Y-42934388D01*
X67068320Y-42926883D01*
X67082745Y-42859021D01*
X67083698Y-42854901D01*
X67154094Y-42573867D01*
X67156428Y-42565744D01*
X67174385Y-42510479D01*
X67175516Y-42507164D01*
X67277107Y-42223237D01*
X67280558Y-42214630D01*
X67295895Y-42180182D01*
X67296967Y-42177844D01*
X67434738Y-41886551D01*
X67440456Y-41875855D01*
X67620851Y-41574884D01*
X67627594Y-41564791D01*
X67836630Y-41282939D01*
X67844333Y-41273554D01*
X68079983Y-41013553D01*
X68088553Y-41004983D01*
X68348554Y-40769333D01*
X68357939Y-40761630D01*
X68639791Y-40552594D01*
X68649884Y-40545851D01*
X68950855Y-40365456D01*
X68961551Y-40359738D01*
X69252844Y-40221967D01*
X69255182Y-40220895D01*
X69289630Y-40205558D01*
X69298237Y-40202107D01*
X69582164Y-40100516D01*
X69585479Y-40099385D01*
X69640744Y-40081428D01*
X69648867Y-40079094D01*
X69929901Y-40008698D01*
X69934021Y-40007745D01*
X70001883Y-39993320D01*
X70009388Y-39991967D01*
X70289325Y-39950443D01*
X70294479Y-39949790D01*
X70369122Y-39941944D01*
X70375924Y-39941420D01*
X70696967Y-39925648D01*
X70703051Y-39925500D01*
X143296949Y-39925500D01*
X143303032Y-39925648D01*
G37*
%TD.AperFunction*%
%TD*%
M02*
