M48
; DRILL file {KiCad 9.0.3} date 2025-07-25T06:36:41+0200
; FORMAT={-:-/ absolute / inch / decimal}
; #@! TF.CreationDate,2025-07-25T06:36:41+02:00
; #@! TF.GenerationSoftware,Kicad,Pcbnew,9.0.3
; #@! TF.FileFunction,Plated,1,2,PTH
FMAT,2
INCH
; #@! TA.AperFunction,Plated,PTH,ViaDrill
T1C0.0157
; #@! TA.AperFunction,Plated,PTH,ComponentDrill
T2C0.0374
; #@! TA.AperFunction,Plated,PTH,ComponentDrill
T3C0.0394
; #@! TA.AperFunction,Plated,PTH,ComponentDrill
T4C0.1260
%
G90
G05
T1
X2.69Y-2.2835
X2.6959Y-2.5768
X2.6959Y-3.1506
X2.6988Y-2.8671
X2.7008Y-3.7077
X2.7018Y-3.4262
X2.7018Y-3.9941
X2.7106Y-4.3642
X2.7795Y-1.9669
X3.1043Y-4.5866
X3.3287Y-2.5217
X3.3543Y-2.2209
X3.3602Y-3.4528
X3.3632Y-3.1624
X3.3642Y-3.7461
X3.376Y-4.3041
X3.377Y-4.0443
X3.3809Y-2.7913
X3.5105Y-3.8206
X3.5155Y-2.7336
X3.5185Y-3.2736
X3.5205Y-3.3636
X3.5689Y-1.9504
X3.615Y-2.098
X3.6405Y-3.0036
X3.663Y-2.1102
X3.6635Y-3.7566
X3.6655Y-3.4466
X3.6655Y-4.0566
X3.6795Y-2.1484
X3.7065Y-3.5636
X3.7205Y-3.0706
X3.8169Y-3.5621
X3.8376Y-4.5994
X3.8675Y-3.2736
X3.8875Y-3.3256
X3.8894Y-1.8134
X3.9295Y-3.3051
X3.9614Y-3.8701
X3.9625Y-3.1316
X3.9655Y-3.5621
X3.985Y-3.9331
X3.9855Y-4.0411
X4.0025Y-2.6976
X4.0095Y-2.6126
X4.0145Y-3.2876
X4.0155Y-2.7906
X4.0175Y-2.8566
X4.0185Y-2.5273
X4.0215Y-2.4266
X4.0225Y-3.5426
X4.0235Y-2.3766
X4.0235Y-2.4736
X4.0255Y-2.3306
X4.0265Y-3.1326
X4.0645Y-3.8646
X4.0827Y-1.7984
X4.1095Y-3.8426
X4.1645Y-4.2006
X4.1815Y-4.253
X4.1835Y-4.1506
X4.1945Y-4.3159
X4.1965Y-3.8536
X4.234Y-3.2136
X4.2555Y-2.6776
X4.2611Y-3.3746
X4.3175Y-3.8506
X4.3205Y-3.3836
X4.3485Y-3.2466
X4.3635Y-2.7336
X4.3655Y-3.5936
X4.3765Y-3.5426
X4.3773Y-3.3956
X4.3773Y-3.6596
X4.3775Y-4.1526
X4.3795Y-2.8306
X4.3795Y-4.2056
X4.3815Y-4.2516
X4.4009Y-3.7446
X4.404Y-4.3474
X4.4169Y-2.1461
X4.4246Y-4.0187
X4.4445Y-4.2844
X4.4875Y-3.2886
X4.5285Y-3.2366
X4.5565Y-3.6116
X4.5984Y-1.8154
X4.6005Y-3.5286
X4.628Y-4.5886
X4.6475Y-2.6556
X4.6516Y-2.749
X4.6575Y-3.0098
X4.6665Y-3.9016
X4.6831Y-2.4193
X4.7215Y-3.9183
X4.753Y-3.6606
X4.7582Y-4.0797
X4.7785Y-3.7136
X4.7884Y-3.875
X4.7895Y-2.8576
X4.7925Y-2.6026
X4.7933Y-3.3012
X4.7953Y-2.7264
X4.7953Y-3.0374
X4.7953Y-3.5512
X4.7955Y-3.4236
X4.7963Y-2.4626
X4.8005Y-3.1506
X5.0433Y-2.3022
X5.0445Y-1.8134
X5.0482Y-2.6073
X5.0512Y-3.1526
X5.0541Y-3.9931
X5.0571Y-3.4528
X5.0571Y-3.7156
X5.063Y-2.8957
X5.191Y-4.0683
X5.2159Y-4.1056
X5.3317Y-4.5728
X5.3325Y-3.9016
X5.4088Y-4.1699
X5.4173Y-1.812
X5.4366Y-4.1978
X5.468Y-4.2256
X5.4995Y-4.2492
X5.5256Y-2.3415
X5.5335Y-3.7196
X5.5355Y-3.1606
X5.5355Y-3.4386
X5.5355Y-4.0056
X5.5364Y-3.0138
X5.5364Y-3.3159
X5.5364Y-3.5935
X5.5374Y-3.8799
X5.5384Y-2.7343
X5.5394Y-4.1683
X5.5405Y-2.8616
X5.5415Y-2.5786
X5.7205Y-3.1644
X5.7293Y-2.5876
X5.7293Y-3.4469
X5.7293Y-3.7323
X5.7343Y-4.0069
X5.7372Y-2.8533
X5.7402Y-2.31
T2
X3.1063Y-1.7276
X3.2047Y-1.7276
X3.3031Y-1.7276
X3.4016Y-1.7276
X3.5Y-1.7276
T3
X3.0453Y-2.2854
X3.0453Y-2.5768
X3.0453Y-2.8563
X3.0453Y-3.1457
X3.0453Y-3.4291
X3.0453Y-3.7126
X3.0453Y-3.998
X3.0453Y-4.2844
X3.1437Y-2.2854
X3.1437Y-2.5768
X3.1437Y-2.8563
X3.1437Y-3.1457
X3.1437Y-3.4291
X3.1437Y-3.7126
X3.1437Y-3.998
X3.1437Y-4.2844
X3.7677Y-2.2854
X3.7677Y-2.5768
X3.7677Y-2.8563
X3.7677Y-3.1457
X3.7677Y-3.4291
X3.7677Y-3.7126
X3.7677Y-3.998
X3.7677Y-4.2844
X3.8661Y-2.2854
X3.8661Y-2.5768
X3.8661Y-2.8563
X3.8661Y-3.1457
X3.8661Y-3.4291
X3.8661Y-3.7126
X3.8661Y-3.998
X3.8661Y-4.2844
X4.5502Y-2.2854
X4.5502Y-2.5768
X4.5502Y-2.8563
X4.5502Y-3.1457
X4.5502Y-3.4291
X4.5502Y-3.7126
X4.5502Y-3.998
X4.5502Y-4.2844
X4.6486Y-2.2854
X4.6486Y-2.5768
X4.6486Y-2.8563
X4.6486Y-3.1457
X4.6486Y-3.4291
X4.6486Y-3.7126
X4.6486Y-3.998
X4.6486Y-4.2844
X5.2766Y-2.2854
X5.2766Y-2.5768
X5.2766Y-2.8563
X5.2766Y-3.1457
X5.2766Y-3.4291
X5.2766Y-3.7126
X5.2766Y-3.998
X5.2766Y-4.2844
X5.375Y-2.2854
X5.375Y-2.5768
X5.375Y-2.8563
X5.375Y-3.1457
X5.375Y-3.4291
X5.375Y-3.7126
X5.375Y-3.998
X5.375Y-4.2844
T4
X2.7953Y-1.7323
X2.7953Y-4.5669
X5.6299Y-1.7323
X5.6299Y-4.5669
M30
