%TF.GenerationSoftware,KiCad,Pcbnew,9.0.3*%
%TF.CreationDate,2025-07-25T06:36:41+02:00*%
%TF.ProjectId,input-shifter-board,696e7075-742d-4736-9869-667465722d62,rev?*%
%TF.SameCoordinates,Original*%
%TF.FileFunction,Legend,Bot*%
%TF.FilePolarity,Positive*%
%FSLAX46Y46*%
G04 Gerber Fmt 4.6, Leading zero omitted, Abs format (unit mm)*
G04 Created by KiCad (PCBNEW 9.0.3) date 2025-07-25 06:36:41*
%MOMM*%
%LPD*%
G01*
G04 APERTURE LIST*
G04 Aperture macros list*
%AMRoundRect*
0 Rectangle with rounded corners*
0 $1 Rounding radius*
0 $2 $3 $4 $5 $6 $7 $8 $9 X,Y pos of 4 corners*
0 Add a 4 corners polygon primitive as box body*
4,1,4,$2,$3,$4,$5,$6,$7,$8,$9,$2,$3,0*
0 Add four circle primitives for the rounded corners*
1,1,$1+$1,$2,$3*
1,1,$1+$1,$4,$5*
1,1,$1+$1,$6,$7*
1,1,$1+$1,$8,$9*
0 Add four rect primitives between the rounded corners*
20,1,$1+$1,$2,$3,$4,$5,0*
20,1,$1+$1,$4,$5,$6,$7,0*
20,1,$1+$1,$6,$7,$8,$9,0*
20,1,$1+$1,$8,$9,$2,$3,0*%
G04 Aperture macros list end*
%ADD10C,0.150000*%
%ADD11C,0.000000*%
%ADD12RoundRect,0.250000X-0.600000X-0.750000X0.600000X-0.750000X0.600000X0.750000X-0.600000X0.750000X0*%
%ADD13O,1.700000X2.000000*%
%ADD14C,6.400000*%
%ADD15RoundRect,0.250000X-0.600000X-0.725000X0.600000X-0.725000X0.600000X0.725000X-0.600000X0.725000X0*%
%ADD16O,1.700000X1.950000*%
G04 APERTURE END LIST*
D10*
X111233981Y-87984780D02*
X110853029Y-87984780D01*
X111091124Y-87651447D02*
X111091124Y-88508589D01*
X111091124Y-88508589D02*
X111043505Y-88603828D01*
X111043505Y-88603828D02*
X110948267Y-88651447D01*
X110948267Y-88651447D02*
X110853029Y-88651447D01*
X110091124Y-88651447D02*
X110091124Y-88127637D01*
X110091124Y-88127637D02*
X110138743Y-88032399D01*
X110138743Y-88032399D02*
X110233981Y-87984780D01*
X110233981Y-87984780D02*
X110424457Y-87984780D01*
X110424457Y-87984780D02*
X110519695Y-88032399D01*
X110091124Y-88603828D02*
X110186362Y-88651447D01*
X110186362Y-88651447D02*
X110424457Y-88651447D01*
X110424457Y-88651447D02*
X110519695Y-88603828D01*
X110519695Y-88603828D02*
X110567314Y-88508589D01*
X110567314Y-88508589D02*
X110567314Y-88413351D01*
X110567314Y-88413351D02*
X110519695Y-88318113D01*
X110519695Y-88318113D02*
X110424457Y-88270494D01*
X110424457Y-88270494D02*
X110186362Y-88270494D01*
X110186362Y-88270494D02*
X110091124Y-88222875D01*
X109614933Y-88651447D02*
X109614933Y-87651447D01*
X109519695Y-88270494D02*
X109233981Y-88651447D01*
X109233981Y-87984780D02*
X109614933Y-88365732D01*
X108424457Y-88603828D02*
X108519695Y-88651447D01*
X108519695Y-88651447D02*
X108710171Y-88651447D01*
X108710171Y-88651447D02*
X108805409Y-88603828D01*
X108805409Y-88603828D02*
X108853028Y-88508589D01*
X108853028Y-88508589D02*
X108853028Y-88127637D01*
X108853028Y-88127637D02*
X108805409Y-88032399D01*
X108805409Y-88032399D02*
X108710171Y-87984780D01*
X108710171Y-87984780D02*
X108519695Y-87984780D01*
X108519695Y-87984780D02*
X108424457Y-88032399D01*
X108424457Y-88032399D02*
X108376838Y-88127637D01*
X108376838Y-88127637D02*
X108376838Y-88222875D01*
X108376838Y-88222875D02*
X108853028Y-88318113D01*
X107186361Y-88651447D02*
X107186361Y-87984780D01*
X107186361Y-88080018D02*
X107138742Y-88032399D01*
X107138742Y-88032399D02*
X107043504Y-87984780D01*
X107043504Y-87984780D02*
X106900647Y-87984780D01*
X106900647Y-87984780D02*
X106805409Y-88032399D01*
X106805409Y-88032399D02*
X106757790Y-88127637D01*
X106757790Y-88127637D02*
X106757790Y-88651447D01*
X106757790Y-88127637D02*
X106710171Y-88032399D01*
X106710171Y-88032399D02*
X106614933Y-87984780D01*
X106614933Y-87984780D02*
X106472076Y-87984780D01*
X106472076Y-87984780D02*
X106376837Y-88032399D01*
X106376837Y-88032399D02*
X106329218Y-88127637D01*
X106329218Y-88127637D02*
X106329218Y-88651447D01*
X105472076Y-88603828D02*
X105567314Y-88651447D01*
X105567314Y-88651447D02*
X105757790Y-88651447D01*
X105757790Y-88651447D02*
X105853028Y-88603828D01*
X105853028Y-88603828D02*
X105900647Y-88508589D01*
X105900647Y-88508589D02*
X105900647Y-88127637D01*
X105900647Y-88127637D02*
X105853028Y-88032399D01*
X105853028Y-88032399D02*
X105757790Y-87984780D01*
X105757790Y-87984780D02*
X105567314Y-87984780D01*
X105567314Y-87984780D02*
X105472076Y-88032399D01*
X105472076Y-88032399D02*
X105424457Y-88127637D01*
X105424457Y-88127637D02*
X105424457Y-88222875D01*
X105424457Y-88222875D02*
X105900647Y-88318113D01*
X104376837Y-87984780D02*
X103995885Y-87984780D01*
X104233980Y-87651447D02*
X104233980Y-88508589D01*
X104233980Y-88508589D02*
X104186361Y-88603828D01*
X104186361Y-88603828D02*
X104091123Y-88651447D01*
X104091123Y-88651447D02*
X103995885Y-88651447D01*
X103519694Y-88651447D02*
X103614932Y-88603828D01*
X103614932Y-88603828D02*
X103662551Y-88556208D01*
X103662551Y-88556208D02*
X103710170Y-88460970D01*
X103710170Y-88460970D02*
X103710170Y-88175256D01*
X103710170Y-88175256D02*
X103662551Y-88080018D01*
X103662551Y-88080018D02*
X103614932Y-88032399D01*
X103614932Y-88032399D02*
X103519694Y-87984780D01*
X103519694Y-87984780D02*
X103376837Y-87984780D01*
X103376837Y-87984780D02*
X103281599Y-88032399D01*
X103281599Y-88032399D02*
X103233980Y-88080018D01*
X103233980Y-88080018D02*
X103186361Y-88175256D01*
X103186361Y-88175256D02*
X103186361Y-88460970D01*
X103186361Y-88460970D02*
X103233980Y-88556208D01*
X103233980Y-88556208D02*
X103281599Y-88603828D01*
X103281599Y-88603828D02*
X103376837Y-88651447D01*
X103376837Y-88651447D02*
X103519694Y-88651447D01*
X109972076Y-89594724D02*
X109591124Y-89594724D01*
X109829219Y-89261391D02*
X109829219Y-90118533D01*
X109829219Y-90118533D02*
X109781600Y-90213772D01*
X109781600Y-90213772D02*
X109686362Y-90261391D01*
X109686362Y-90261391D02*
X109591124Y-90261391D01*
X109257790Y-90261391D02*
X109257790Y-89261391D01*
X108829219Y-90261391D02*
X108829219Y-89737581D01*
X108829219Y-89737581D02*
X108876838Y-89642343D01*
X108876838Y-89642343D02*
X108972076Y-89594724D01*
X108972076Y-89594724D02*
X109114933Y-89594724D01*
X109114933Y-89594724D02*
X109210171Y-89642343D01*
X109210171Y-89642343D02*
X109257790Y-89689962D01*
X107972076Y-90213772D02*
X108067314Y-90261391D01*
X108067314Y-90261391D02*
X108257790Y-90261391D01*
X108257790Y-90261391D02*
X108353028Y-90213772D01*
X108353028Y-90213772D02*
X108400647Y-90118533D01*
X108400647Y-90118533D02*
X108400647Y-89737581D01*
X108400647Y-89737581D02*
X108353028Y-89642343D01*
X108353028Y-89642343D02*
X108257790Y-89594724D01*
X108257790Y-89594724D02*
X108067314Y-89594724D01*
X108067314Y-89594724D02*
X107972076Y-89642343D01*
X107972076Y-89642343D02*
X107924457Y-89737581D01*
X107924457Y-89737581D02*
X107924457Y-89832819D01*
X107924457Y-89832819D02*
X108400647Y-89928057D01*
X106305409Y-90261391D02*
X106305409Y-89261391D01*
X106305409Y-90213772D02*
X106400647Y-90261391D01*
X106400647Y-90261391D02*
X106591123Y-90261391D01*
X106591123Y-90261391D02*
X106686361Y-90213772D01*
X106686361Y-90213772D02*
X106733980Y-90166152D01*
X106733980Y-90166152D02*
X106781599Y-90070914D01*
X106781599Y-90070914D02*
X106781599Y-89785200D01*
X106781599Y-89785200D02*
X106733980Y-89689962D01*
X106733980Y-89689962D02*
X106686361Y-89642343D01*
X106686361Y-89642343D02*
X106591123Y-89594724D01*
X106591123Y-89594724D02*
X106400647Y-89594724D01*
X106400647Y-89594724D02*
X106305409Y-89642343D01*
X105686361Y-90261391D02*
X105781599Y-90213772D01*
X105781599Y-90213772D02*
X105829218Y-90166152D01*
X105829218Y-90166152D02*
X105876837Y-90070914D01*
X105876837Y-90070914D02*
X105876837Y-89785200D01*
X105876837Y-89785200D02*
X105829218Y-89689962D01*
X105829218Y-89689962D02*
X105781599Y-89642343D01*
X105781599Y-89642343D02*
X105686361Y-89594724D01*
X105686361Y-89594724D02*
X105543504Y-89594724D01*
X105543504Y-89594724D02*
X105448266Y-89642343D01*
X105448266Y-89642343D02*
X105400647Y-89689962D01*
X105400647Y-89689962D02*
X105353028Y-89785200D01*
X105353028Y-89785200D02*
X105353028Y-90070914D01*
X105353028Y-90070914D02*
X105400647Y-90166152D01*
X105400647Y-90166152D02*
X105448266Y-90213772D01*
X105448266Y-90213772D02*
X105543504Y-90261391D01*
X105543504Y-90261391D02*
X105686361Y-90261391D01*
X104495885Y-90213772D02*
X104591123Y-90261391D01*
X104591123Y-90261391D02*
X104781599Y-90261391D01*
X104781599Y-90261391D02*
X104876837Y-90213772D01*
X104876837Y-90213772D02*
X104924456Y-90166152D01*
X104924456Y-90166152D02*
X104972075Y-90070914D01*
X104972075Y-90070914D02*
X104972075Y-89785200D01*
X104972075Y-89785200D02*
X104924456Y-89689962D01*
X104924456Y-89689962D02*
X104876837Y-89642343D01*
X104876837Y-89642343D02*
X104781599Y-89594724D01*
X104781599Y-89594724D02*
X104591123Y-89594724D01*
X104591123Y-89594724D02*
X104495885Y-89642343D01*
X104114932Y-90213772D02*
X104019694Y-90261391D01*
X104019694Y-90261391D02*
X103829218Y-90261391D01*
X103829218Y-90261391D02*
X103733980Y-90213772D01*
X103733980Y-90213772D02*
X103686361Y-90118533D01*
X103686361Y-90118533D02*
X103686361Y-90070914D01*
X103686361Y-90070914D02*
X103733980Y-89975676D01*
X103733980Y-89975676D02*
X103829218Y-89928057D01*
X103829218Y-89928057D02*
X103972075Y-89928057D01*
X103972075Y-89928057D02*
X104067313Y-89880438D01*
X104067313Y-89880438D02*
X104114932Y-89785200D01*
X104114932Y-89785200D02*
X104114932Y-89737581D01*
X104114932Y-89737581D02*
X104067313Y-89642343D01*
X104067313Y-89642343D02*
X103972075Y-89594724D01*
X103972075Y-89594724D02*
X103829218Y-89594724D01*
X103829218Y-89594724D02*
X103733980Y-89642343D01*
X113907619Y-54169875D02*
X113907619Y-53169875D01*
X113431429Y-53503208D02*
X113431429Y-54169875D01*
X113431429Y-53598446D02*
X113383810Y-53550827D01*
X113383810Y-53550827D02*
X113288572Y-53503208D01*
X113288572Y-53503208D02*
X113145715Y-53503208D01*
X113145715Y-53503208D02*
X113050477Y-53550827D01*
X113050477Y-53550827D02*
X113002858Y-53646065D01*
X113002858Y-53646065D02*
X113002858Y-54169875D01*
X112526667Y-53503208D02*
X112526667Y-54503208D01*
X112526667Y-53550827D02*
X112431429Y-53503208D01*
X112431429Y-53503208D02*
X112240953Y-53503208D01*
X112240953Y-53503208D02*
X112145715Y-53550827D01*
X112145715Y-53550827D02*
X112098096Y-53598446D01*
X112098096Y-53598446D02*
X112050477Y-53693684D01*
X112050477Y-53693684D02*
X112050477Y-53979398D01*
X112050477Y-53979398D02*
X112098096Y-54074636D01*
X112098096Y-54074636D02*
X112145715Y-54122256D01*
X112145715Y-54122256D02*
X112240953Y-54169875D01*
X112240953Y-54169875D02*
X112431429Y-54169875D01*
X112431429Y-54169875D02*
X112526667Y-54122256D01*
X111193334Y-53503208D02*
X111193334Y-54169875D01*
X111621905Y-53503208D02*
X111621905Y-54027017D01*
X111621905Y-54027017D02*
X111574286Y-54122256D01*
X111574286Y-54122256D02*
X111479048Y-54169875D01*
X111479048Y-54169875D02*
X111336191Y-54169875D01*
X111336191Y-54169875D02*
X111240953Y-54122256D01*
X111240953Y-54122256D02*
X111193334Y-54074636D01*
X110860000Y-53503208D02*
X110479048Y-53503208D01*
X110717143Y-53169875D02*
X110717143Y-54027017D01*
X110717143Y-54027017D02*
X110669524Y-54122256D01*
X110669524Y-54122256D02*
X110574286Y-54169875D01*
X110574286Y-54169875D02*
X110479048Y-54169875D01*
X109431428Y-54122256D02*
X109288571Y-54169875D01*
X109288571Y-54169875D02*
X109050476Y-54169875D01*
X109050476Y-54169875D02*
X108955238Y-54122256D01*
X108955238Y-54122256D02*
X108907619Y-54074636D01*
X108907619Y-54074636D02*
X108860000Y-53979398D01*
X108860000Y-53979398D02*
X108860000Y-53884160D01*
X108860000Y-53884160D02*
X108907619Y-53788922D01*
X108907619Y-53788922D02*
X108955238Y-53741303D01*
X108955238Y-53741303D02*
X109050476Y-53693684D01*
X109050476Y-53693684D02*
X109240952Y-53646065D01*
X109240952Y-53646065D02*
X109336190Y-53598446D01*
X109336190Y-53598446D02*
X109383809Y-53550827D01*
X109383809Y-53550827D02*
X109431428Y-53455589D01*
X109431428Y-53455589D02*
X109431428Y-53360351D01*
X109431428Y-53360351D02*
X109383809Y-53265113D01*
X109383809Y-53265113D02*
X109336190Y-53217494D01*
X109336190Y-53217494D02*
X109240952Y-53169875D01*
X109240952Y-53169875D02*
X109002857Y-53169875D01*
X109002857Y-53169875D02*
X108860000Y-53217494D01*
X108431428Y-54169875D02*
X108431428Y-53169875D01*
X108002857Y-54169875D02*
X108002857Y-53646065D01*
X108002857Y-53646065D02*
X108050476Y-53550827D01*
X108050476Y-53550827D02*
X108145714Y-53503208D01*
X108145714Y-53503208D02*
X108288571Y-53503208D01*
X108288571Y-53503208D02*
X108383809Y-53550827D01*
X108383809Y-53550827D02*
X108431428Y-53598446D01*
X107526666Y-54169875D02*
X107526666Y-53503208D01*
X107526666Y-53169875D02*
X107574285Y-53217494D01*
X107574285Y-53217494D02*
X107526666Y-53265113D01*
X107526666Y-53265113D02*
X107479047Y-53217494D01*
X107479047Y-53217494D02*
X107526666Y-53169875D01*
X107526666Y-53169875D02*
X107526666Y-53265113D01*
X107193333Y-53503208D02*
X106812381Y-53503208D01*
X107050476Y-54169875D02*
X107050476Y-53312732D01*
X107050476Y-53312732D02*
X107002857Y-53217494D01*
X107002857Y-53217494D02*
X106907619Y-53169875D01*
X106907619Y-53169875D02*
X106812381Y-53169875D01*
X106621904Y-53503208D02*
X106240952Y-53503208D01*
X106479047Y-53169875D02*
X106479047Y-54027017D01*
X106479047Y-54027017D02*
X106431428Y-54122256D01*
X106431428Y-54122256D02*
X106336190Y-54169875D01*
X106336190Y-54169875D02*
X106240952Y-54169875D01*
X105526666Y-54122256D02*
X105621904Y-54169875D01*
X105621904Y-54169875D02*
X105812380Y-54169875D01*
X105812380Y-54169875D02*
X105907618Y-54122256D01*
X105907618Y-54122256D02*
X105955237Y-54027017D01*
X105955237Y-54027017D02*
X105955237Y-53646065D01*
X105955237Y-53646065D02*
X105907618Y-53550827D01*
X105907618Y-53550827D02*
X105812380Y-53503208D01*
X105812380Y-53503208D02*
X105621904Y-53503208D01*
X105621904Y-53503208D02*
X105526666Y-53550827D01*
X105526666Y-53550827D02*
X105479047Y-53646065D01*
X105479047Y-53646065D02*
X105479047Y-53741303D01*
X105479047Y-53741303D02*
X105955237Y-53836541D01*
X105050475Y-54169875D02*
X105050475Y-53503208D01*
X105050475Y-53693684D02*
X105002856Y-53598446D01*
X105002856Y-53598446D02*
X104955237Y-53550827D01*
X104955237Y-53550827D02*
X104859999Y-53503208D01*
X104859999Y-53503208D02*
X104764761Y-53503208D01*
X103336189Y-53646065D02*
X103193332Y-53693684D01*
X103193332Y-53693684D02*
X103145713Y-53741303D01*
X103145713Y-53741303D02*
X103098094Y-53836541D01*
X103098094Y-53836541D02*
X103098094Y-53979398D01*
X103098094Y-53979398D02*
X103145713Y-54074636D01*
X103145713Y-54074636D02*
X103193332Y-54122256D01*
X103193332Y-54122256D02*
X103288570Y-54169875D01*
X103288570Y-54169875D02*
X103669522Y-54169875D01*
X103669522Y-54169875D02*
X103669522Y-53169875D01*
X103669522Y-53169875D02*
X103336189Y-53169875D01*
X103336189Y-53169875D02*
X103240951Y-53217494D01*
X103240951Y-53217494D02*
X103193332Y-53265113D01*
X103193332Y-53265113D02*
X103145713Y-53360351D01*
X103145713Y-53360351D02*
X103145713Y-53455589D01*
X103145713Y-53455589D02*
X103193332Y-53550827D01*
X103193332Y-53550827D02*
X103240951Y-53598446D01*
X103240951Y-53598446D02*
X103336189Y-53646065D01*
X103336189Y-53646065D02*
X103669522Y-53646065D01*
X102526665Y-54169875D02*
X102621903Y-54122256D01*
X102621903Y-54122256D02*
X102669522Y-54074636D01*
X102669522Y-54074636D02*
X102717141Y-53979398D01*
X102717141Y-53979398D02*
X102717141Y-53693684D01*
X102717141Y-53693684D02*
X102669522Y-53598446D01*
X102669522Y-53598446D02*
X102621903Y-53550827D01*
X102621903Y-53550827D02*
X102526665Y-53503208D01*
X102526665Y-53503208D02*
X102383808Y-53503208D01*
X102383808Y-53503208D02*
X102288570Y-53550827D01*
X102288570Y-53550827D02*
X102240951Y-53598446D01*
X102240951Y-53598446D02*
X102193332Y-53693684D01*
X102193332Y-53693684D02*
X102193332Y-53979398D01*
X102193332Y-53979398D02*
X102240951Y-54074636D01*
X102240951Y-54074636D02*
X102288570Y-54122256D01*
X102288570Y-54122256D02*
X102383808Y-54169875D01*
X102383808Y-54169875D02*
X102526665Y-54169875D01*
X101336189Y-54169875D02*
X101336189Y-53646065D01*
X101336189Y-53646065D02*
X101383808Y-53550827D01*
X101383808Y-53550827D02*
X101479046Y-53503208D01*
X101479046Y-53503208D02*
X101669522Y-53503208D01*
X101669522Y-53503208D02*
X101764760Y-53550827D01*
X101336189Y-54122256D02*
X101431427Y-54169875D01*
X101431427Y-54169875D02*
X101669522Y-54169875D01*
X101669522Y-54169875D02*
X101764760Y-54122256D01*
X101764760Y-54122256D02*
X101812379Y-54027017D01*
X101812379Y-54027017D02*
X101812379Y-53931779D01*
X101812379Y-53931779D02*
X101764760Y-53836541D01*
X101764760Y-53836541D02*
X101669522Y-53788922D01*
X101669522Y-53788922D02*
X101431427Y-53788922D01*
X101431427Y-53788922D02*
X101336189Y-53741303D01*
X100859998Y-54169875D02*
X100859998Y-53503208D01*
X100859998Y-53693684D02*
X100812379Y-53598446D01*
X100812379Y-53598446D02*
X100764760Y-53550827D01*
X100764760Y-53550827D02*
X100669522Y-53503208D01*
X100669522Y-53503208D02*
X100574284Y-53503208D01*
X99812379Y-54169875D02*
X99812379Y-53169875D01*
X99812379Y-54122256D02*
X99907617Y-54169875D01*
X99907617Y-54169875D02*
X100098093Y-54169875D01*
X100098093Y-54169875D02*
X100193331Y-54122256D01*
X100193331Y-54122256D02*
X100240950Y-54074636D01*
X100240950Y-54074636D02*
X100288569Y-53979398D01*
X100288569Y-53979398D02*
X100288569Y-53693684D01*
X100288569Y-53693684D02*
X100240950Y-53598446D01*
X100240950Y-53598446D02*
X100193331Y-53550827D01*
X100193331Y-53550827D02*
X100098093Y-53503208D01*
X100098093Y-53503208D02*
X99907617Y-53503208D01*
X99907617Y-53503208D02*
X99812379Y-53550827D01*
X108288570Y-55113152D02*
X108050475Y-55779819D01*
X108050475Y-55779819D02*
X107812380Y-55113152D01*
X106907618Y-55779819D02*
X107479046Y-55779819D01*
X107193332Y-55779819D02*
X107193332Y-54779819D01*
X107193332Y-54779819D02*
X107288570Y-54922676D01*
X107288570Y-54922676D02*
X107383808Y-55017914D01*
X107383808Y-55017914D02*
X107479046Y-55065533D01*
X106479046Y-55684580D02*
X106431427Y-55732200D01*
X106431427Y-55732200D02*
X106479046Y-55779819D01*
X106479046Y-55779819D02*
X106526665Y-55732200D01*
X106526665Y-55732200D02*
X106479046Y-55684580D01*
X106479046Y-55684580D02*
X106479046Y-55779819D01*
X105479047Y-55779819D02*
X106050475Y-55779819D01*
X105764761Y-55779819D02*
X105764761Y-54779819D01*
X105764761Y-54779819D02*
X105859999Y-54922676D01*
X105859999Y-54922676D02*
X105955237Y-55017914D01*
X105955237Y-55017914D02*
X106050475Y-55065533D01*
D11*
%TO.C,G2*%
G36*
X104009125Y-46540140D02*
G01*
X104104449Y-46923536D01*
X103422634Y-46923536D01*
X103422634Y-46156744D01*
X103913800Y-46156744D01*
X104009125Y-46540140D01*
G37*
G36*
X109933718Y-51620149D02*
G01*
X109980101Y-51622426D01*
X110006091Y-51633921D01*
X110019925Y-51662114D01*
X110029843Y-51714484D01*
X110040610Y-51781818D01*
X109964222Y-51776860D01*
X109887833Y-51771901D01*
X109868646Y-51696021D01*
X109849459Y-51620140D01*
X109925921Y-51620140D01*
X109933718Y-51620149D01*
G37*
G36*
X103526173Y-51620855D02*
G01*
X103554998Y-51627011D01*
X103570146Y-51644708D01*
X103581542Y-51680046D01*
X103584124Y-51689580D01*
X103594158Y-51732305D01*
X103598268Y-51759920D01*
X103597309Y-51764115D01*
X103574212Y-51775930D01*
X103520573Y-51779888D01*
X103485346Y-51779405D01*
X103455212Y-51774328D01*
X103441230Y-51759050D01*
X103434070Y-51727970D01*
X103424804Y-51683653D01*
X103414296Y-51648096D01*
X103411709Y-51640233D01*
X103414853Y-51627320D01*
X103436790Y-51621498D01*
X103484073Y-51620140D01*
X103526173Y-51620855D01*
G37*
G36*
X105528955Y-50837434D02*
G01*
X105582950Y-50839005D01*
X105614948Y-50844192D01*
X105632491Y-50854970D01*
X105643116Y-50873316D01*
X105646324Y-50883082D01*
X105656950Y-50921127D01*
X105673049Y-50981981D01*
X105693400Y-51060757D01*
X105716785Y-51152568D01*
X105741985Y-51252528D01*
X105767780Y-51355749D01*
X105792951Y-51457345D01*
X105816280Y-51552428D01*
X105836547Y-51636111D01*
X105852533Y-51703507D01*
X105863018Y-51749730D01*
X105866784Y-51769892D01*
X105865776Y-51771159D01*
X105844182Y-51775603D01*
X105800217Y-51778715D01*
X105741518Y-51779888D01*
X105616252Y-51779888D01*
X105508946Y-51344574D01*
X105506087Y-51332975D01*
X105477947Y-51218806D01*
X105452082Y-51113844D01*
X105429566Y-51022450D01*
X105411473Y-50948990D01*
X105398879Y-50897824D01*
X105392858Y-50873316D01*
X105390258Y-50860593D01*
X105392847Y-50847494D01*
X105408882Y-50840565D01*
X105444531Y-50837844D01*
X105505961Y-50837373D01*
X105528955Y-50837434D01*
G37*
G36*
X107046728Y-50837436D02*
G01*
X107100645Y-50839012D01*
X107132585Y-50844202D01*
X107150078Y-50854979D01*
X107160656Y-50873316D01*
X107163817Y-50882917D01*
X107174429Y-50920834D01*
X107190523Y-50981586D01*
X107210879Y-51060282D01*
X107234274Y-51152034D01*
X107259489Y-51251952D01*
X107285303Y-51355148D01*
X107310494Y-51456733D01*
X107333843Y-51551817D01*
X107354128Y-51635511D01*
X107370129Y-51702927D01*
X107380625Y-51749176D01*
X107384395Y-51769368D01*
X107383382Y-51770704D01*
X107361773Y-51775379D01*
X107317797Y-51778654D01*
X107259087Y-51779888D01*
X107133780Y-51779888D01*
X107024805Y-51336587D01*
X107019945Y-51316817D01*
X106991871Y-51202673D01*
X106966218Y-51098463D01*
X106944027Y-51008404D01*
X106926339Y-50936717D01*
X106914192Y-50887618D01*
X106908627Y-50865329D01*
X106907757Y-50861414D01*
X106909837Y-50848699D01*
X106925799Y-50841430D01*
X106961662Y-50838143D01*
X107023440Y-50837373D01*
X107046728Y-50837436D01*
G37*
G36*
X106540579Y-50840989D02*
G01*
X106815002Y-50845360D01*
X106900074Y-51188819D01*
X106906633Y-51215314D01*
X106933663Y-51324724D01*
X106959679Y-51430381D01*
X106983011Y-51525471D01*
X107001984Y-51603180D01*
X107014927Y-51656695D01*
X107044708Y-51781112D01*
X106915973Y-51776507D01*
X106787238Y-51771901D01*
X106752133Y-51628127D01*
X106745080Y-51599193D01*
X106728731Y-51531738D01*
X106715226Y-51475515D01*
X106706947Y-51440423D01*
X106706139Y-51436913D01*
X106700050Y-51417216D01*
X106688599Y-51405255D01*
X106665141Y-51399101D01*
X106623026Y-51396823D01*
X106555610Y-51396492D01*
X106414352Y-51396492D01*
X106367520Y-51204794D01*
X106637660Y-51204794D01*
X106627047Y-51138425D01*
X106624459Y-51123223D01*
X106615670Y-51081735D01*
X106608088Y-51058551D01*
X106601873Y-51055352D01*
X106569570Y-51050059D01*
X106516807Y-51046407D01*
X106451129Y-51045046D01*
X106302516Y-51045046D01*
X106284336Y-50954520D01*
X106276704Y-50915244D01*
X106269099Y-50872408D01*
X106266156Y-50850306D01*
X106276335Y-50846781D01*
X106313700Y-50843387D01*
X106373633Y-50841173D01*
X106450978Y-50840316D01*
X106540579Y-50840989D01*
G37*
G36*
X102952917Y-51709478D02*
G01*
X102926830Y-51755174D01*
X102879489Y-51785390D01*
X102865576Y-51788488D01*
X102824058Y-51791203D01*
X102771536Y-51790143D01*
X102750259Y-51788456D01*
X102690904Y-51775495D01*
X102649022Y-51749036D01*
X102620207Y-51714446D01*
X102582288Y-51644886D01*
X102552306Y-51561277D01*
X102534650Y-51474163D01*
X102533828Y-51466728D01*
X102534024Y-51428536D01*
X102689347Y-51428536D01*
X102694194Y-51465554D01*
X102698456Y-51486096D01*
X102712374Y-51543369D01*
X102728835Y-51602911D01*
X102737979Y-51629177D01*
X102758421Y-51667281D01*
X102778420Y-51685024D01*
X102793553Y-51679573D01*
X102799398Y-51648096D01*
X102798853Y-51635316D01*
X102790334Y-51582733D01*
X102774095Y-51525345D01*
X102753505Y-51472209D01*
X102731929Y-51432384D01*
X102712735Y-51414928D01*
X102695884Y-51414523D01*
X102689347Y-51428536D01*
X102534024Y-51428536D01*
X102534192Y-51395853D01*
X102554672Y-51347873D01*
X102598436Y-51318777D01*
X102668653Y-51304557D01*
X102742780Y-51303881D01*
X102807728Y-51321785D01*
X102858724Y-51362242D01*
X102899523Y-51428348D01*
X102933878Y-51523197D01*
X102943823Y-51559633D01*
X102958374Y-51645299D01*
X102958136Y-51648096D01*
X102952917Y-51709478D01*
G37*
G36*
X103628364Y-50837373D02*
G01*
X103929944Y-50837373D01*
X103955849Y-50940499D01*
X103968672Y-50992697D01*
X103978137Y-51033508D01*
X103981753Y-51052322D01*
X103973933Y-51055900D01*
X103942019Y-51059590D01*
X103893891Y-51061021D01*
X103857756Y-51061872D01*
X103820481Y-51065349D01*
X103806030Y-51070591D01*
X103809204Y-51085875D01*
X103818915Y-51127158D01*
X103833813Y-51188786D01*
X103852528Y-51265241D01*
X103873688Y-51351003D01*
X103895924Y-51440552D01*
X103917863Y-51528370D01*
X103938136Y-51608936D01*
X103955372Y-51676732D01*
X103968199Y-51726237D01*
X103975247Y-51751932D01*
X103976759Y-51757998D01*
X103973946Y-51769623D01*
X103956716Y-51776236D01*
X103919230Y-51779203D01*
X103855647Y-51779888D01*
X103727387Y-51779888D01*
X103711564Y-51719983D01*
X103702830Y-51686058D01*
X103687866Y-51626995D01*
X103668238Y-51549011D01*
X103645474Y-51458174D01*
X103621101Y-51360549D01*
X103546460Y-51061021D01*
X103376976Y-51061021D01*
X103351880Y-50974694D01*
X103347952Y-50961386D01*
X103334927Y-50917556D01*
X103328358Y-50885436D01*
X103331886Y-50863217D01*
X103349150Y-50849092D01*
X103383790Y-50841253D01*
X103439445Y-50837892D01*
X103519757Y-50837201D01*
X103628364Y-50837373D01*
G37*
G36*
X103165422Y-51307839D02*
G01*
X103231752Y-51335858D01*
X103283402Y-51388382D01*
X103325280Y-51468947D01*
X103326194Y-51471224D01*
X103355398Y-51563433D01*
X103365642Y-51643509D01*
X103356865Y-51706969D01*
X103329008Y-51749331D01*
X103320824Y-51755027D01*
X103271179Y-51772858D01*
X103207165Y-51779900D01*
X103141685Y-51775612D01*
X103087641Y-51759452D01*
X103052204Y-51732529D01*
X103015035Y-51688974D01*
X102986646Y-51641514D01*
X102975338Y-51601803D01*
X102979531Y-51584715D01*
X102999496Y-51574883D01*
X103043231Y-51572561D01*
X103048086Y-51572599D01*
X103090989Y-51576339D01*
X103115787Y-51591020D01*
X103135086Y-51623653D01*
X103138783Y-51631197D01*
X103164058Y-51668809D01*
X103186742Y-51680680D01*
X103203052Y-51664535D01*
X103203153Y-51664265D01*
X103203835Y-51635390D01*
X103196022Y-51587869D01*
X103182441Y-51531737D01*
X103165823Y-51477030D01*
X103148895Y-51433784D01*
X103134387Y-51412035D01*
X103110995Y-51404146D01*
X103092519Y-51417619D01*
X103091430Y-51454277D01*
X103093687Y-51469642D01*
X103088969Y-51484943D01*
X103067244Y-51491164D01*
X103021047Y-51492341D01*
X102943388Y-51492341D01*
X102943388Y-51413029D01*
X102944164Y-51386104D01*
X102953296Y-51342363D01*
X102977209Y-51316362D01*
X103021492Y-51303867D01*
X103091737Y-51300643D01*
X103165422Y-51307839D01*
G37*
G36*
X106232825Y-50897278D02*
G01*
X106236155Y-50909969D01*
X106252356Y-50973169D01*
X106272567Y-51053705D01*
X106295619Y-51146745D01*
X106320342Y-51247452D01*
X106345565Y-51350992D01*
X106370118Y-51452531D01*
X106392832Y-51547233D01*
X106412534Y-51630264D01*
X106428057Y-51696789D01*
X106438228Y-51741973D01*
X106441879Y-51760983D01*
X106434856Y-51767467D01*
X106407083Y-51773188D01*
X106355613Y-51777038D01*
X106277703Y-51779208D01*
X106170611Y-51779888D01*
X105899343Y-51779888D01*
X105889501Y-51735958D01*
X105889434Y-51735661D01*
X105878285Y-51688286D01*
X105865323Y-51636115D01*
X105863446Y-51628728D01*
X105854557Y-51591545D01*
X105850891Y-51572215D01*
X105854535Y-51570568D01*
X105882256Y-51568466D01*
X105931306Y-51568174D01*
X105994575Y-51569811D01*
X105998932Y-51569976D01*
X106075984Y-51570929D01*
X106122662Y-51567025D01*
X106138357Y-51558313D01*
X106136475Y-51547796D01*
X106128107Y-51510300D01*
X106114272Y-51451254D01*
X106096320Y-51376178D01*
X106075602Y-51290588D01*
X106053467Y-51200005D01*
X106031266Y-51109946D01*
X106010349Y-51025931D01*
X105992066Y-50953477D01*
X105977768Y-50898104D01*
X105968804Y-50865329D01*
X105967382Y-50859350D01*
X105970309Y-50847688D01*
X105987608Y-50841047D01*
X106025133Y-50838064D01*
X106088740Y-50837373D01*
X106217000Y-50837373D01*
X106232825Y-50897278D01*
G37*
G36*
X108766801Y-51591760D02*
G01*
X108760179Y-51654052D01*
X108740307Y-51701039D01*
X108706728Y-51736465D01*
X108658990Y-51764075D01*
X108636882Y-51773257D01*
X108534281Y-51796150D01*
X108430592Y-51790363D01*
X108331741Y-51757669D01*
X108243655Y-51699836D01*
X108172258Y-51618636D01*
X108160864Y-51600035D01*
X108126860Y-51528137D01*
X108095840Y-51439849D01*
X108069056Y-51341756D01*
X108047757Y-51240446D01*
X108033194Y-51142505D01*
X108026618Y-51054519D01*
X108026942Y-51045814D01*
X108277679Y-51045814D01*
X108279800Y-51081883D01*
X108288628Y-51137885D01*
X108304616Y-51219368D01*
X108311194Y-51250959D01*
X108340894Y-51381093D01*
X108368595Y-51480641D01*
X108394623Y-51550654D01*
X108419300Y-51592184D01*
X108423040Y-51596195D01*
X108457038Y-51616570D01*
X108490877Y-51616884D01*
X108512678Y-51596578D01*
X108513659Y-51589720D01*
X108510532Y-51554072D01*
X108500780Y-51497125D01*
X108485980Y-51425570D01*
X108467709Y-51346095D01*
X108447547Y-51265390D01*
X108427070Y-51190145D01*
X108407857Y-51127049D01*
X108391486Y-51082790D01*
X108381175Y-51061277D01*
X108349404Y-51015776D01*
X108317758Y-50999972D01*
X108287825Y-51014905D01*
X108281807Y-51024130D01*
X108277679Y-51045814D01*
X108026942Y-51045814D01*
X108029278Y-50983076D01*
X108042426Y-50934762D01*
X108043100Y-50933529D01*
X108078677Y-50884489D01*
X108125013Y-50853327D01*
X108188713Y-50837173D01*
X108276383Y-50833159D01*
X108369741Y-50839806D01*
X108455193Y-50861497D01*
X108525963Y-50900996D01*
X108584747Y-50961129D01*
X108634242Y-51044718D01*
X108677146Y-51154587D01*
X108716156Y-51293559D01*
X108742113Y-51406283D01*
X108760627Y-51510418D01*
X108766646Y-51589720D01*
X108766801Y-51591760D01*
G37*
G36*
X102034097Y-51325265D02*
G01*
X102064235Y-51339165D01*
X102086713Y-51340126D01*
X102107778Y-51323819D01*
X102108873Y-51322744D01*
X102141720Y-51305765D01*
X102191164Y-51307556D01*
X102221637Y-51311307D01*
X102282116Y-51315114D01*
X102346113Y-51316053D01*
X102443744Y-51314745D01*
X102494537Y-51519361D01*
X102497628Y-51531803D01*
X102517095Y-51609641D01*
X102534144Y-51676983D01*
X102547033Y-51726988D01*
X102554017Y-51752814D01*
X102556247Y-51762939D01*
X102550880Y-51774525D01*
X102527350Y-51778414D01*
X102478853Y-51776777D01*
X102395002Y-51771901D01*
X102356976Y-51620140D01*
X102351379Y-51598386D01*
X102326775Y-51516421D01*
X102303343Y-51459899D01*
X102282105Y-51430893D01*
X102264082Y-51431480D01*
X102263960Y-51448494D01*
X102270217Y-51489655D01*
X102281495Y-51547719D01*
X102296312Y-51615546D01*
X102313187Y-51685997D01*
X102330634Y-51751932D01*
X102332024Y-51758023D01*
X102328134Y-51771937D01*
X102305991Y-51778342D01*
X102258785Y-51779888D01*
X102252191Y-51779885D01*
X102216885Y-51778570D01*
X102191860Y-51771373D01*
X102173727Y-51753221D01*
X102159098Y-51719041D01*
X102144582Y-51663760D01*
X102126792Y-51582304D01*
X102120910Y-51557808D01*
X102101806Y-51500706D01*
X102079683Y-51456652D01*
X102057999Y-51431661D01*
X102040211Y-51431747D01*
X102038100Y-51439408D01*
X102041380Y-51473702D01*
X102053807Y-51535365D01*
X102075598Y-51625410D01*
X102106969Y-51744853D01*
X102110787Y-51763575D01*
X102104924Y-51775379D01*
X102081175Y-51778788D01*
X102032554Y-51776802D01*
X101948211Y-51771901D01*
X101903422Y-51596178D01*
X101888393Y-51534879D01*
X101872806Y-51465266D01*
X101862055Y-51409900D01*
X101857866Y-51377086D01*
X101859127Y-51360873D01*
X101879346Y-51323708D01*
X101919380Y-51304170D01*
X101973030Y-51304081D01*
X102034097Y-51325265D01*
G37*
G36*
X107978656Y-51268693D02*
G01*
X107978790Y-51269222D01*
X108007490Y-51382890D01*
X108034021Y-51488250D01*
X108055984Y-51575736D01*
X108057248Y-51580769D01*
X108076034Y-51655916D01*
X108089244Y-51709156D01*
X108095743Y-51735958D01*
X108105801Y-51779888D01*
X107892865Y-51779799D01*
X107797959Y-51778775D01*
X107708346Y-51774241D01*
X107639772Y-51764899D01*
X107586334Y-51749475D01*
X107542131Y-51726695D01*
X107501261Y-51695286D01*
X107471589Y-51665643D01*
X107423477Y-51595754D01*
X107393554Y-51519337D01*
X107383464Y-51445268D01*
X107643209Y-51445268D01*
X107645280Y-51488545D01*
X107672324Y-51545111D01*
X107704668Y-51575008D01*
X107754707Y-51588190D01*
X107771162Y-51588261D01*
X107787970Y-51585988D01*
X107795423Y-51575736D01*
X107793958Y-51551743D01*
X107784016Y-51508244D01*
X107766035Y-51439476D01*
X107764060Y-51432061D01*
X107751265Y-51396702D01*
X107732893Y-51383295D01*
X107699027Y-51383564D01*
X107666849Y-51389491D01*
X107649744Y-51406694D01*
X107643209Y-51445268D01*
X107383464Y-51445268D01*
X107383205Y-51443370D01*
X107393819Y-51374833D01*
X107426782Y-51320702D01*
X107434905Y-51312111D01*
X107453071Y-51285880D01*
X107451546Y-51272440D01*
X107449891Y-51271876D01*
X107393162Y-51236513D01*
X107346971Y-51177772D01*
X107315896Y-51103472D01*
X107311305Y-51070367D01*
X107565799Y-51070367D01*
X107567947Y-51106264D01*
X107580290Y-51139353D01*
X107603775Y-51176838D01*
X107626629Y-51193581D01*
X107667699Y-51204794D01*
X107691680Y-51202351D01*
X107700442Y-51188202D01*
X107695138Y-51152876D01*
X107686340Y-51114920D01*
X107669604Y-51062510D01*
X107650414Y-51036146D01*
X107625007Y-51032030D01*
X107589615Y-51046358D01*
X107585905Y-51048431D01*
X107565799Y-51070367D01*
X107311305Y-51070367D01*
X107304520Y-51021434D01*
X107306628Y-50980596D01*
X107319624Y-50938986D01*
X107349727Y-50901532D01*
X107354417Y-50897023D01*
X107392106Y-50871104D01*
X107442877Y-50853242D01*
X107511349Y-50842675D01*
X107602139Y-50838639D01*
X107719866Y-50840372D01*
X107871627Y-50845360D01*
X107958306Y-51188202D01*
X107978656Y-51268693D01*
G37*
G36*
X104574430Y-50837917D02*
G01*
X104588797Y-50841372D01*
X104589011Y-50842476D01*
X104594416Y-50865124D01*
X104606380Y-50913935D01*
X104623936Y-50985003D01*
X104646116Y-51074419D01*
X104671955Y-51178274D01*
X104700483Y-51292661D01*
X104706748Y-51317779D01*
X104734891Y-51431407D01*
X104760120Y-51534516D01*
X104781455Y-51623014D01*
X104797918Y-51692809D01*
X104808528Y-51739808D01*
X104812307Y-51759920D01*
X104811924Y-51762434D01*
X104796490Y-51772490D01*
X104756037Y-51778129D01*
X104687188Y-51779888D01*
X104561932Y-51779888D01*
X104541867Y-51688033D01*
X104534172Y-51653995D01*
X104515361Y-51576056D01*
X104496769Y-51504322D01*
X104493193Y-51491237D01*
X104479329Y-51445830D01*
X104465489Y-51422430D01*
X104444817Y-51413742D01*
X104410455Y-51412467D01*
X104398463Y-51412544D01*
X104363438Y-51413916D01*
X104349524Y-51416461D01*
X104353058Y-51431300D01*
X104363007Y-51471157D01*
X104377803Y-51529738D01*
X104395873Y-51600792D01*
X104441873Y-51781130D01*
X104312512Y-51776515D01*
X104183151Y-51771901D01*
X104074847Y-51332593D01*
X104070730Y-51315876D01*
X104042968Y-51202112D01*
X104018026Y-51098171D01*
X103996889Y-51008287D01*
X103980543Y-50936696D01*
X103969971Y-50887631D01*
X103966160Y-50865329D01*
X103966155Y-50864603D01*
X103970384Y-50850429D01*
X103987324Y-50842171D01*
X104023378Y-50838321D01*
X104084948Y-50837373D01*
X104204118Y-50837373D01*
X104220934Y-50897278D01*
X104232534Y-50940068D01*
X104248975Y-51002876D01*
X104265842Y-51069008D01*
X104276220Y-51109680D01*
X104289058Y-51151014D01*
X104302737Y-51172840D01*
X104322478Y-51182113D01*
X104353504Y-51185790D01*
X104357917Y-51186160D01*
X104385661Y-51187627D01*
X104402629Y-51183090D01*
X104409391Y-51167559D01*
X104406517Y-51136044D01*
X104394577Y-51083557D01*
X104374140Y-51005109D01*
X104365433Y-50970888D01*
X104352023Y-50912118D01*
X104344285Y-50869105D01*
X104343685Y-50849354D01*
X104352859Y-50846150D01*
X104385887Y-50842120D01*
X104433934Y-50838977D01*
X104487623Y-50837025D01*
X104537581Y-50836570D01*
X104574430Y-50837917D01*
G37*
G36*
X104983780Y-50837410D02*
G01*
X105091549Y-50845668D01*
X105179266Y-50870495D01*
X105250580Y-50914956D01*
X105309140Y-50982118D01*
X105358595Y-51075046D01*
X105402592Y-51196807D01*
X105421828Y-51263677D01*
X105445963Y-51362156D01*
X105465509Y-51458865D01*
X105478605Y-51544299D01*
X105483385Y-51608952D01*
X105483138Y-51619182D01*
X105470907Y-51684703D01*
X105443973Y-51741700D01*
X105407508Y-51778609D01*
X105393549Y-51784903D01*
X105339527Y-51794699D01*
X105272335Y-51793942D01*
X105204183Y-51783337D01*
X105147280Y-51763589D01*
X105143829Y-51761834D01*
X105106056Y-51744506D01*
X105088391Y-51742715D01*
X105084017Y-51755602D01*
X105076824Y-51769971D01*
X105050255Y-51777700D01*
X104998133Y-51779888D01*
X104912248Y-51779888D01*
X104854359Y-51541947D01*
X104843766Y-51498098D01*
X104825059Y-51418988D01*
X104810058Y-51353327D01*
X104800088Y-51306970D01*
X104796470Y-51285771D01*
X104798439Y-51281631D01*
X104821266Y-51274335D01*
X104871424Y-51271226D01*
X104951110Y-51272109D01*
X104968820Y-51272641D01*
X105034120Y-51275216D01*
X105075172Y-51279193D01*
X105098318Y-51286279D01*
X105109899Y-51298185D01*
X105116254Y-51316618D01*
X105119251Y-51328004D01*
X105134333Y-51386492D01*
X105141110Y-51421160D01*
X105139141Y-51438225D01*
X105127987Y-51443905D01*
X105107207Y-51444417D01*
X105091231Y-51445014D01*
X105073400Y-51453945D01*
X105076683Y-51480360D01*
X105092641Y-51525797D01*
X105125200Y-51584650D01*
X105162072Y-51615025D01*
X105201657Y-51615196D01*
X105215033Y-51606302D01*
X105224158Y-51586004D01*
X105225422Y-51551363D01*
X105218511Y-51498311D01*
X105203109Y-51422778D01*
X105178904Y-51320694D01*
X105164548Y-51263572D01*
X105137979Y-51166927D01*
X105114431Y-51096520D01*
X105092406Y-51048790D01*
X105070405Y-51020178D01*
X105046930Y-51007124D01*
X105030581Y-51003778D01*
X105002489Y-51008510D01*
X104991165Y-51035207D01*
X104994059Y-51087757D01*
X105003715Y-51158206D01*
X104756985Y-51148882D01*
X104745956Y-51084983D01*
X104743476Y-51067399D01*
X104745522Y-50988791D01*
X104767575Y-50919954D01*
X104806997Y-50870179D01*
X104826305Y-50857201D01*
X104859022Y-50845010D01*
X104905532Y-50838988D01*
X104974861Y-50837373D01*
X104983780Y-50837410D01*
G37*
G36*
X109450045Y-50837733D02*
G01*
X109504856Y-50839759D01*
X109538072Y-50844408D01*
X109555522Y-50852619D01*
X109563035Y-50865329D01*
X109565592Y-50874458D01*
X109576340Y-50915606D01*
X109592292Y-50978811D01*
X109612278Y-51059247D01*
X109635128Y-51152090D01*
X109659672Y-51252515D01*
X109684740Y-51355698D01*
X109709161Y-51456812D01*
X109731766Y-51551035D01*
X109751385Y-51633540D01*
X109766847Y-51699504D01*
X109776982Y-51744101D01*
X109780621Y-51762506D01*
X109770617Y-51770743D01*
X109732486Y-51777503D01*
X109669413Y-51779888D01*
X109558205Y-51779888D01*
X109542181Y-51719983D01*
X109541430Y-51717154D01*
X109530906Y-51675998D01*
X109515149Y-51612758D01*
X109496164Y-51535529D01*
X109475953Y-51452404D01*
X109471505Y-51434105D01*
X109452737Y-51359087D01*
X109436412Y-51297192D01*
X109424151Y-51254413D01*
X109417578Y-51236744D01*
X109416737Y-51236967D01*
X109415092Y-51256111D01*
X109415566Y-51299719D01*
X109417868Y-51361965D01*
X109421711Y-51437027D01*
X109426807Y-51519079D01*
X109432865Y-51602298D01*
X109439597Y-51680859D01*
X109449045Y-51781514D01*
X109347255Y-51776708D01*
X109245464Y-51771901D01*
X109125849Y-51497470D01*
X109124505Y-51494387D01*
X109086925Y-51408998D01*
X109053797Y-51335195D01*
X109027164Y-51277419D01*
X109009072Y-51240109D01*
X109001568Y-51227705D01*
X109002205Y-51235382D01*
X109009120Y-51269242D01*
X109022094Y-51325230D01*
X109039891Y-51398074D01*
X109061277Y-51482504D01*
X109075237Y-51537309D01*
X109095245Y-51618069D01*
X109111227Y-51685353D01*
X109121819Y-51733354D01*
X109125652Y-51756263D01*
X109124267Y-51763051D01*
X109109889Y-51773223D01*
X109075205Y-51778426D01*
X109014444Y-51779888D01*
X108903236Y-51779888D01*
X108887589Y-51719983D01*
X108887541Y-51719798D01*
X108870531Y-51653564D01*
X108849647Y-51570525D01*
X108826045Y-51475462D01*
X108800885Y-51373157D01*
X108775324Y-51268390D01*
X108750519Y-51165942D01*
X108727628Y-51070596D01*
X108707808Y-50987133D01*
X108692218Y-50920333D01*
X108682015Y-50874977D01*
X108678357Y-50855848D01*
X108686241Y-50847310D01*
X108714698Y-50841778D01*
X108767507Y-50839727D01*
X108848405Y-50840826D01*
X109018453Y-50845360D01*
X109123971Y-51090024D01*
X109155508Y-51162565D01*
X109188446Y-51234769D01*
X109211837Y-51278137D01*
X109226791Y-51292174D01*
X109234421Y-51276380D01*
X109235838Y-51230259D01*
X109232154Y-51153314D01*
X109224481Y-51045046D01*
X109219888Y-50977022D01*
X109216707Y-50914013D01*
X109215675Y-50869180D01*
X109217052Y-50849354D01*
X109227076Y-50845667D01*
X109263521Y-50841383D01*
X109319857Y-50838456D01*
X109389104Y-50837373D01*
X109450045Y-50837733D01*
G37*
G36*
X110382764Y-51396463D02*
G01*
X110409008Y-51457524D01*
X110429596Y-51504504D01*
X110441671Y-51529266D01*
X110447503Y-51535617D01*
X110449365Y-51527364D01*
X110449531Y-51508316D01*
X110449117Y-51495005D01*
X110444763Y-51447140D01*
X110437170Y-51392499D01*
X110424680Y-51316618D01*
X110736816Y-51316618D01*
X110770243Y-51408473D01*
X110796543Y-51478933D01*
X110815402Y-51524335D01*
X110826246Y-51542088D01*
X110829959Y-51533612D01*
X110827426Y-51500329D01*
X110827053Y-51497159D01*
X110820614Y-51434545D01*
X110815526Y-51373070D01*
X110811204Y-51309711D01*
X110890976Y-51314398D01*
X110918936Y-51316658D01*
X110960328Y-51322753D01*
X110981070Y-51329833D01*
X110981899Y-51330865D01*
X110993330Y-51353578D01*
X111011546Y-51396876D01*
X111033007Y-51452404D01*
X111074620Y-51564228D01*
X111064782Y-51452404D01*
X111064581Y-51450125D01*
X111059408Y-51392888D01*
X111055176Y-51348672D01*
X111052782Y-51326884D01*
X111057345Y-51322359D01*
X111085616Y-51317274D01*
X111132685Y-51315076D01*
X111190428Y-51315486D01*
X111250715Y-51318226D01*
X111305421Y-51323016D01*
X111346419Y-51329577D01*
X111365581Y-51337629D01*
X111375604Y-51359336D01*
X111392323Y-51402826D01*
X111411452Y-51457418D01*
X111411678Y-51458092D01*
X111429573Y-51507630D01*
X111444109Y-51541145D01*
X111452158Y-51551412D01*
X111452499Y-51550896D01*
X111453709Y-51530156D01*
X111451180Y-51487138D01*
X111445392Y-51430380D01*
X111444627Y-51423920D01*
X111438699Y-51368825D01*
X111435441Y-51328907D01*
X111435542Y-51312423D01*
X111442291Y-51311429D01*
X111473135Y-51311665D01*
X111519711Y-51314110D01*
X111600096Y-51319590D01*
X111643705Y-51430742D01*
X111666244Y-51485946D01*
X111687390Y-51530707D01*
X111699636Y-51546202D01*
X111702643Y-51532061D01*
X111696074Y-51487916D01*
X111694269Y-51478089D01*
X111686030Y-51418170D01*
X111682313Y-51364543D01*
X111681607Y-51308631D01*
X111761492Y-51314166D01*
X111841376Y-51319702D01*
X111841376Y-51403567D01*
X111841481Y-51417005D01*
X111843309Y-51479412D01*
X111846938Y-51556157D01*
X111851755Y-51633661D01*
X111862134Y-51779888D01*
X111679869Y-51779888D01*
X111640357Y-51688033D01*
X111615603Y-51630838D01*
X111593363Y-51582346D01*
X111580403Y-51561572D01*
X111574905Y-51567568D01*
X111575050Y-51599388D01*
X111579017Y-51656083D01*
X111588504Y-51779888D01*
X111408592Y-51779888D01*
X111344816Y-51640109D01*
X111331813Y-51611729D01*
X111299518Y-51542118D01*
X111270236Y-51480096D01*
X111249031Y-51436429D01*
X111217021Y-51372530D01*
X111233667Y-51779888D01*
X111148094Y-51779888D01*
X111118244Y-51778824D01*
X111071592Y-51771797D01*
X111046418Y-51759920D01*
X111045467Y-51758650D01*
X111031325Y-51731929D01*
X111010931Y-51685337D01*
X110988361Y-51628127D01*
X110946406Y-51516304D01*
X110956245Y-51648096D01*
X110966085Y-51779888D01*
X110785487Y-51779888D01*
X110709825Y-51616146D01*
X110683801Y-51559933D01*
X110653521Y-51494793D01*
X110629322Y-51443031D01*
X110614848Y-51412467D01*
X110613928Y-51410603D01*
X110606280Y-51400247D01*
X110601346Y-51407703D01*
X110598787Y-51436499D01*
X110598261Y-51490160D01*
X110599429Y-51572215D01*
X110603325Y-51771901D01*
X110515464Y-51776425D01*
X110427602Y-51780948D01*
X110379678Y-51659200D01*
X110372501Y-51641156D01*
X110350077Y-51587239D01*
X110332386Y-51548297D01*
X110322751Y-51531769D01*
X110320159Y-51536340D01*
X110320539Y-51563996D01*
X110325579Y-51609057D01*
X110329365Y-51637486D01*
X110335596Y-51694314D01*
X110338574Y-51736755D01*
X110338650Y-51739747D01*
X110337448Y-51763647D01*
X110327246Y-51775494D01*
X110300412Y-51778704D01*
X110249312Y-51776692D01*
X110158883Y-51771901D01*
X110058211Y-51556241D01*
X110041627Y-51520515D01*
X110008352Y-51447502D01*
X109981539Y-51386842D01*
X109963595Y-51344041D01*
X109956929Y-51324605D01*
X109961076Y-51319393D01*
X109988146Y-51312413D01*
X110032212Y-51310488D01*
X110108105Y-51312345D01*
X110148997Y-51417942D01*
X110166987Y-51463306D01*
X110188506Y-51512173D01*
X110201330Y-51531800D01*
X110206053Y-51522937D01*
X110203271Y-51486333D01*
X110196227Y-51430225D01*
X110189220Y-51373988D01*
X110182474Y-51319534D01*
X110263740Y-51314053D01*
X110345005Y-51308573D01*
X110382764Y-51396463D01*
G37*
G36*
X109683979Y-45178285D02*
G01*
X109683185Y-46100832D01*
X109470151Y-45246178D01*
X107875272Y-45246178D01*
X107885891Y-45433882D01*
X107887031Y-45453829D01*
X107891811Y-45535155D01*
X107897997Y-45638007D01*
X107905110Y-45754513D01*
X107912672Y-45876800D01*
X107920201Y-45996995D01*
X107933881Y-46214296D01*
X107945965Y-46407428D01*
X107956651Y-46579708D01*
X107966280Y-46736679D01*
X107975191Y-46883881D01*
X107983725Y-47026856D01*
X107992220Y-47171146D01*
X107997172Y-47254550D01*
X108003931Y-47365237D01*
X108010558Y-47470643D01*
X108016493Y-47561895D01*
X108021176Y-47630122D01*
X108023945Y-47674116D01*
X108025961Y-47728957D01*
X108025331Y-47764267D01*
X108022019Y-47773895D01*
X108021636Y-47773412D01*
X108010702Y-47752890D01*
X107990173Y-47709542D01*
X107962846Y-47649402D01*
X107931514Y-47578505D01*
X107906565Y-47521330D01*
X107857358Y-47408597D01*
X107801944Y-47281679D01*
X107741785Y-47143918D01*
X107678341Y-46998658D01*
X107613072Y-46849243D01*
X107547441Y-46699015D01*
X107482908Y-46551320D01*
X107420934Y-46409500D01*
X107362979Y-46276899D01*
X107310506Y-46156860D01*
X107264974Y-46052726D01*
X107227845Y-45967842D01*
X107200579Y-45905551D01*
X107184638Y-45869197D01*
X107180544Y-45859886D01*
X107152114Y-45795260D01*
X107115829Y-45712815D01*
X107075923Y-45622173D01*
X107036631Y-45532956D01*
X107022700Y-45501225D01*
X106989306Y-45424290D01*
X106960987Y-45357843D01*
X106940385Y-45308120D01*
X106930135Y-45281352D01*
X106918971Y-45246178D01*
X106121305Y-45246178D01*
X106087754Y-45246183D01*
X105933382Y-45246351D01*
X105789774Y-45246736D01*
X105659955Y-45247315D01*
X105546953Y-45248066D01*
X105453793Y-45248964D01*
X105383504Y-45249986D01*
X105339110Y-45251110D01*
X105323640Y-45252311D01*
X105325758Y-45262107D01*
X105334594Y-45299159D01*
X105349340Y-45359718D01*
X105368949Y-45439510D01*
X105392373Y-45534262D01*
X105418566Y-45639701D01*
X105446775Y-45753115D01*
X105487197Y-45915899D01*
X105534542Y-46106808D01*
X105588421Y-46324262D01*
X105648442Y-46566683D01*
X105714215Y-46832493D01*
X105785349Y-47120112D01*
X105861454Y-47427963D01*
X105942140Y-47754467D01*
X106027015Y-48098046D01*
X106115689Y-48457121D01*
X106153867Y-48611704D01*
X106194700Y-48776955D01*
X106233254Y-48932902D01*
X106268763Y-49076443D01*
X106300457Y-49204476D01*
X106327569Y-49313898D01*
X106349332Y-49401607D01*
X106364976Y-49464502D01*
X106373734Y-49499480D01*
X106401031Y-49607310D01*
X106924161Y-49607310D01*
X107004988Y-49607247D01*
X107138065Y-49606729D01*
X107243171Y-49605604D01*
X107322923Y-49603772D01*
X107379938Y-49601131D01*
X107416836Y-49597579D01*
X107436234Y-49593017D01*
X107440751Y-49587341D01*
X107440550Y-49586694D01*
X107434493Y-49563760D01*
X107421981Y-49514373D01*
X107404058Y-49442722D01*
X107381768Y-49352994D01*
X107356155Y-49249374D01*
X107328262Y-49136052D01*
X107317317Y-49091536D01*
X107291988Y-48988737D01*
X107261879Y-48866764D01*
X107227683Y-48728406D01*
X107190090Y-48576451D01*
X107149794Y-48413688D01*
X107107486Y-48242904D01*
X107063859Y-48066887D01*
X107019604Y-47888427D01*
X106975413Y-47710310D01*
X106931978Y-47535326D01*
X106889992Y-47366262D01*
X106850146Y-47205906D01*
X106813132Y-47057047D01*
X106779642Y-46922473D01*
X106750369Y-46804972D01*
X106726003Y-46707332D01*
X106707238Y-46632341D01*
X106694765Y-46582788D01*
X106689277Y-46561460D01*
X106687695Y-46553762D01*
X106694092Y-46561456D01*
X106712559Y-46597797D01*
X106742858Y-46662273D01*
X106784750Y-46754371D01*
X106837998Y-46873579D01*
X106902362Y-47019385D01*
X106937287Y-47098836D01*
X106977115Y-47189377D01*
X107019793Y-47286329D01*
X107066438Y-47392225D01*
X107118167Y-47509601D01*
X107176099Y-47640992D01*
X107241352Y-47788933D01*
X107315043Y-47955960D01*
X107398290Y-48144606D01*
X107492211Y-48357409D01*
X107597924Y-48596901D01*
X107633525Y-48677567D01*
X107692946Y-48812258D01*
X107754113Y-48950960D01*
X107813362Y-49085362D01*
X107867030Y-49207157D01*
X107911452Y-49308035D01*
X108043401Y-49607816D01*
X108907907Y-49599322D01*
X108904568Y-49495486D01*
X108903845Y-49475686D01*
X108900977Y-49411344D01*
X108896782Y-49327531D01*
X108891702Y-49232887D01*
X108886180Y-49136052D01*
X108883035Y-49082306D01*
X108876179Y-48963515D01*
X108868682Y-48832007D01*
X108861258Y-48700304D01*
X108854617Y-48580926D01*
X108851808Y-48529981D01*
X108840720Y-48329144D01*
X108831056Y-48154641D01*
X108822561Y-48001954D01*
X108814980Y-47866565D01*
X108808060Y-47743956D01*
X108801544Y-47629609D01*
X108795179Y-47519005D01*
X108788710Y-47407628D01*
X108781881Y-47290958D01*
X108778653Y-47235648D01*
X108771636Y-47113365D01*
X108764920Y-46993734D01*
X108758906Y-46884065D01*
X108753998Y-46791667D01*
X108750601Y-46723851D01*
X108742297Y-46548127D01*
X108948386Y-47370832D01*
X108977158Y-47485759D01*
X109027255Y-47686137D01*
X109080392Y-47898963D01*
X109134766Y-48116996D01*
X109188572Y-48332999D01*
X109240006Y-48539731D01*
X109287265Y-48729954D01*
X109328545Y-48896429D01*
X109502616Y-49599322D01*
X109684772Y-49608904D01*
X109684772Y-50549826D01*
X103422634Y-50549826D01*
X103422634Y-47801655D01*
X103872673Y-47805898D01*
X104322712Y-47810140D01*
X104365928Y-47977876D01*
X104375186Y-48014187D01*
X104393235Y-48085787D01*
X104417165Y-48181285D01*
X104445974Y-48296660D01*
X104478658Y-48427887D01*
X104514215Y-48570945D01*
X104551641Y-48721811D01*
X104589935Y-48876461D01*
X104770727Y-49607310D01*
X105342718Y-49607310D01*
X105485133Y-49607070D01*
X105623324Y-49606150D01*
X105732659Y-49604492D01*
X105814801Y-49602044D01*
X105871415Y-49598754D01*
X105904163Y-49594570D01*
X105914709Y-49589440D01*
X105914360Y-49585576D01*
X105912697Y-49576036D01*
X105909300Y-49559806D01*
X105903774Y-49535267D01*
X105895719Y-49500796D01*
X105884739Y-49454772D01*
X105870438Y-49395573D01*
X105852417Y-49321579D01*
X105830279Y-49231167D01*
X105803628Y-49122716D01*
X105772066Y-48994606D01*
X105735195Y-48845213D01*
X105692620Y-48672918D01*
X105643942Y-48476098D01*
X105588764Y-48253133D01*
X105526689Y-48002400D01*
X105457321Y-47722278D01*
X105446865Y-47680056D01*
X105397309Y-47479887D01*
X105344680Y-47267223D01*
X105290516Y-47048277D01*
X105236353Y-46829265D01*
X105183729Y-46616403D01*
X105134180Y-46415906D01*
X105089243Y-46233990D01*
X105050455Y-46076870D01*
X105021431Y-45959317D01*
X104986352Y-45817413D01*
X104953821Y-45686001D01*
X104924685Y-45568504D01*
X104899796Y-45468341D01*
X104880002Y-45388936D01*
X104866153Y-45333710D01*
X104859098Y-45306083D01*
X104843163Y-45246178D01*
X103422634Y-45246178D01*
X103422634Y-44255738D01*
X109684772Y-44255738D01*
X109683979Y-45178285D01*
G37*
%TO.C,G\u002A\u002A\u002A*%
G36*
X100942520Y-82469170D02*
G01*
X100942520Y-82636001D01*
X100775689Y-82636001D01*
X100608858Y-82636001D01*
X100608858Y-82469170D01*
X100608858Y-82302339D01*
X100775689Y-82302339D01*
X100942520Y-82302339D01*
X100942520Y-82469170D01*
G37*
G36*
X101276182Y-83136494D02*
G01*
X101276182Y-83303324D01*
X100942520Y-83303324D01*
X100608858Y-83303324D01*
X100608858Y-83136494D01*
X100608858Y-82969663D01*
X100942520Y-82969663D01*
X101276182Y-82969663D01*
X101276182Y-83136494D01*
G37*
G36*
X102277167Y-75462274D02*
G01*
X102277167Y-75962766D01*
X101776674Y-75962766D01*
X101276182Y-75962766D01*
X101276182Y-75462274D01*
X101276182Y-74961781D01*
X101776674Y-74961781D01*
X102277167Y-74961781D01*
X102277167Y-75462274D01*
G37*
G36*
X102944490Y-84471141D02*
G01*
X102944490Y-84637971D01*
X102777659Y-84637971D01*
X102610829Y-84637971D01*
X102610829Y-84471141D01*
X102610829Y-84304310D01*
X102777659Y-84304310D01*
X102944490Y-84304310D01*
X102944490Y-84471141D01*
G37*
G36*
X102944490Y-86473111D02*
G01*
X102944490Y-86639942D01*
X102777659Y-86639942D01*
X102610829Y-86639942D01*
X102610829Y-86473111D01*
X102610829Y-86306280D01*
X102777659Y-86306280D01*
X102944490Y-86306280D01*
X102944490Y-86473111D01*
G37*
G36*
X103611814Y-76463259D02*
G01*
X103611814Y-76630090D01*
X103444983Y-76630090D01*
X103278152Y-76630090D01*
X103278152Y-76463259D01*
X103278152Y-76296428D01*
X103444983Y-76296428D01*
X103611814Y-76296428D01*
X103611814Y-76463259D01*
G37*
G36*
X103945476Y-77130582D02*
G01*
X103945476Y-77297413D01*
X103778645Y-77297413D01*
X103611814Y-77297413D01*
X103611814Y-77130582D01*
X103611814Y-76963751D01*
X103778645Y-76963751D01*
X103945476Y-76963751D01*
X103945476Y-77130582D01*
G37*
G36*
X104279137Y-80467200D02*
G01*
X104279137Y-80634031D01*
X103945476Y-80634031D01*
X103611814Y-80634031D01*
X103611814Y-80467200D01*
X103611814Y-80300369D01*
X103945476Y-80300369D01*
X104279137Y-80300369D01*
X104279137Y-80467200D01*
G37*
G36*
X104946461Y-79132553D02*
G01*
X104946461Y-79299384D01*
X104779630Y-79299384D01*
X104612799Y-79299384D01*
X104612799Y-79132553D01*
X104612799Y-78965722D01*
X104779630Y-78965722D01*
X104946461Y-78965722D01*
X104946461Y-79132553D01*
G37*
G36*
X105613784Y-77130582D02*
G01*
X105613784Y-77297413D01*
X105446953Y-77297413D01*
X105280123Y-77297413D01*
X105280123Y-77130582D01*
X105280123Y-76963751D01*
X105446953Y-76963751D01*
X105613784Y-76963751D01*
X105613784Y-77130582D01*
G37*
G36*
X106281108Y-77464244D02*
G01*
X106281108Y-77631075D01*
X106114277Y-77631075D01*
X105947446Y-77631075D01*
X105947446Y-77464244D01*
X105947446Y-77297413D01*
X106114277Y-77297413D01*
X106281108Y-77297413D01*
X106281108Y-77464244D01*
G37*
G36*
X106948431Y-74794950D02*
G01*
X106948431Y-74961781D01*
X106781600Y-74961781D01*
X106614769Y-74961781D01*
X106614769Y-74794950D01*
X106614769Y-74628119D01*
X106781600Y-74628119D01*
X106948431Y-74628119D01*
X106948431Y-74794950D01*
G37*
G36*
X106948431Y-77464244D02*
G01*
X106948431Y-77631075D01*
X106781600Y-77631075D01*
X106614769Y-77631075D01*
X106614769Y-77464244D01*
X106614769Y-77297413D01*
X106781600Y-77297413D01*
X106948431Y-77297413D01*
X106948431Y-77464244D01*
G37*
G36*
X106948431Y-79132553D02*
G01*
X106948431Y-79299384D01*
X106781600Y-79299384D01*
X106614769Y-79299384D01*
X106614769Y-79132553D01*
X106614769Y-78965722D01*
X106781600Y-78965722D01*
X106948431Y-78965722D01*
X106948431Y-79132553D01*
G37*
G36*
X106948431Y-80467200D02*
G01*
X106948431Y-80634031D01*
X106781600Y-80634031D01*
X106614769Y-80634031D01*
X106614769Y-80467200D01*
X106614769Y-80300369D01*
X106781600Y-80300369D01*
X106948431Y-80300369D01*
X106948431Y-80467200D01*
G37*
G36*
X107615755Y-75128612D02*
G01*
X107615755Y-75295443D01*
X107448924Y-75295443D01*
X107282093Y-75295443D01*
X107282093Y-75128612D01*
X107282093Y-74961781D01*
X107448924Y-74961781D01*
X107615755Y-74961781D01*
X107615755Y-75128612D01*
G37*
G36*
X107615755Y-80800861D02*
G01*
X107615755Y-80967692D01*
X107448924Y-80967692D01*
X107282093Y-80967692D01*
X107282093Y-80800861D01*
X107282093Y-80634031D01*
X107448924Y-80634031D01*
X107615755Y-80634031D01*
X107615755Y-80800861D01*
G37*
G36*
X108950402Y-80800861D02*
G01*
X108950402Y-80967692D01*
X108449909Y-80967692D01*
X107949416Y-80967692D01*
X107949416Y-80800861D01*
X107949416Y-80634031D01*
X108449909Y-80634031D01*
X108950402Y-80634031D01*
X108950402Y-80800861D01*
G37*
G36*
X108283078Y-86473111D02*
G01*
X108283078Y-86639942D01*
X108116247Y-86639942D01*
X107949416Y-86639942D01*
X107949416Y-86473111D01*
X107949416Y-86306280D01*
X108116247Y-86306280D01*
X108283078Y-86306280D01*
X108283078Y-86473111D01*
G37*
G36*
X108616740Y-86139449D02*
G01*
X108616740Y-86306280D01*
X108449909Y-86306280D01*
X108283078Y-86306280D01*
X108283078Y-86139449D01*
X108283078Y-85972618D01*
X108449909Y-85972618D01*
X108616740Y-85972618D01*
X108616740Y-86139449D01*
G37*
G36*
X108950402Y-82135508D02*
G01*
X108950402Y-82302339D01*
X108783571Y-82302339D01*
X108616740Y-82302339D01*
X108616740Y-82135508D01*
X108616740Y-81968677D01*
X108783571Y-81968677D01*
X108950402Y-81968677D01*
X108950402Y-82135508D01*
G37*
G36*
X109284063Y-81801847D02*
G01*
X109284063Y-81968677D01*
X109117233Y-81968677D01*
X108950402Y-81968677D01*
X108950402Y-81801847D01*
X108950402Y-81635016D01*
X109117233Y-81635016D01*
X109284063Y-81635016D01*
X109284063Y-81801847D01*
G37*
G36*
X109284063Y-83136494D02*
G01*
X109284063Y-83303324D01*
X109117233Y-83303324D01*
X108950402Y-83303324D01*
X108950402Y-83136494D01*
X108950402Y-82969663D01*
X109117233Y-82969663D01*
X109284063Y-82969663D01*
X109284063Y-83136494D01*
G37*
G36*
X109617725Y-81468185D02*
G01*
X109617725Y-81635016D01*
X109450894Y-81635016D01*
X109284063Y-81635016D01*
X109284063Y-81468185D01*
X109284063Y-81301354D01*
X109450894Y-81301354D01*
X109617725Y-81301354D01*
X109617725Y-81468185D01*
G37*
G36*
X109951387Y-78465229D02*
G01*
X109951387Y-78632060D01*
X109784556Y-78632060D01*
X109617725Y-78632060D01*
X109617725Y-78465229D01*
X109617725Y-78298398D01*
X109784556Y-78298398D01*
X109951387Y-78298398D01*
X109951387Y-78465229D01*
G37*
G36*
X109951387Y-81134523D02*
G01*
X109951387Y-81301354D01*
X109784556Y-81301354D01*
X109617725Y-81301354D01*
X109617725Y-81134523D01*
X109617725Y-80967692D01*
X109784556Y-80967692D01*
X109951387Y-80967692D01*
X109951387Y-81134523D01*
G37*
G36*
X110285049Y-80467200D02*
G01*
X110285049Y-80634031D01*
X110118218Y-80634031D01*
X109951387Y-80634031D01*
X109951387Y-80467200D01*
X109951387Y-80300369D01*
X110118218Y-80300369D01*
X110285049Y-80300369D01*
X110285049Y-80467200D01*
G37*
G36*
X112287019Y-75462274D02*
G01*
X112287019Y-75962766D01*
X111786526Y-75962766D01*
X111286034Y-75962766D01*
X111286034Y-75462274D01*
X111286034Y-74961781D01*
X111786526Y-74961781D01*
X112287019Y-74961781D01*
X112287019Y-75462274D01*
G37*
G36*
X112287019Y-85472126D02*
G01*
X112287019Y-85972618D01*
X111786526Y-85972618D01*
X111286034Y-85972618D01*
X111286034Y-85472126D01*
X111286034Y-84971633D01*
X111786526Y-84971633D01*
X112287019Y-84971633D01*
X112287019Y-85472126D01*
G37*
G36*
X112954343Y-77130582D02*
G01*
X112954343Y-77297413D01*
X112787512Y-77297413D01*
X112620681Y-77297413D01*
X112620681Y-77130582D01*
X112620681Y-76963751D01*
X112787512Y-76963751D01*
X112954343Y-76963751D01*
X112954343Y-77130582D01*
G37*
G36*
X112954343Y-80634031D02*
G01*
X112954343Y-80967692D01*
X112453850Y-80967692D01*
X111953357Y-80967692D01*
X111953357Y-80800861D01*
X111953357Y-80634031D01*
X112120188Y-80634031D01*
X112287019Y-80634031D01*
X112287019Y-80467200D01*
X112287019Y-80300369D01*
X112620681Y-80300369D01*
X112954343Y-80300369D01*
X112954343Y-80634031D01*
G37*
G36*
X105446953Y-84304310D02*
G01*
X105613784Y-84304310D01*
X105613784Y-84471141D01*
X105613784Y-84637971D01*
X105446953Y-84637971D01*
X105280123Y-84637971D01*
X105280123Y-84471141D01*
X105280123Y-84304310D01*
X105446953Y-84304310D01*
G37*
G36*
X105280123Y-84137479D02*
G01*
X105280123Y-84304310D01*
X105113292Y-84304310D01*
X104946461Y-84304310D01*
X104946461Y-84137479D01*
X104946461Y-83970648D01*
X105113292Y-83970648D01*
X105280123Y-83970648D01*
X105280123Y-84137479D01*
G37*
G36*
X108783571Y-83636986D02*
G01*
X108950402Y-83636986D01*
X108950402Y-83803817D01*
X108950402Y-83970648D01*
X108783571Y-83970648D01*
X108616740Y-83970648D01*
X108616740Y-83803817D01*
X108616740Y-83636986D01*
X108783571Y-83636986D01*
G37*
G36*
X108616740Y-83470155D02*
G01*
X108616740Y-83636986D01*
X108449909Y-83636986D01*
X108283078Y-83636986D01*
X108283078Y-83470155D01*
X108283078Y-83303324D01*
X108449909Y-83303324D01*
X108616740Y-83303324D01*
X108616740Y-83470155D01*
G37*
G36*
X102944490Y-76630090D02*
G01*
X101776674Y-76630090D01*
X100608858Y-76630090D01*
X100608858Y-75462274D01*
X100608858Y-74628119D01*
X100942520Y-74628119D01*
X100942520Y-75462274D01*
X100942520Y-76296428D01*
X101776674Y-76296428D01*
X102610829Y-76296428D01*
X102610829Y-75462274D01*
X102610829Y-74628119D01*
X101776674Y-74628119D01*
X100942520Y-74628119D01*
X100608858Y-74628119D01*
X100608858Y-74294457D01*
X101776674Y-74294457D01*
X102944490Y-74294457D01*
X102944490Y-75462274D01*
X102944490Y-76630090D01*
G37*
G36*
X112954343Y-76630090D02*
G01*
X111786526Y-76630090D01*
X110618710Y-76630090D01*
X110618710Y-75462274D01*
X110618710Y-74628119D01*
X110952372Y-74628119D01*
X110952372Y-75462274D01*
X110952372Y-76296428D01*
X111786526Y-76296428D01*
X112620681Y-76296428D01*
X112620681Y-75462274D01*
X112620681Y-74628119D01*
X111786526Y-74628119D01*
X110952372Y-74628119D01*
X110618710Y-74628119D01*
X110618710Y-74294457D01*
X111786526Y-74294457D01*
X112954343Y-74294457D01*
X112954343Y-75462274D01*
X112954343Y-76630090D01*
G37*
G36*
X112954343Y-86639942D02*
G01*
X111786526Y-86639942D01*
X110618710Y-86639942D01*
X110618710Y-85472126D01*
X110618710Y-84637971D01*
X110952372Y-84637971D01*
X110952372Y-85472126D01*
X110952372Y-86306280D01*
X111786526Y-86306280D01*
X112620681Y-86306280D01*
X112620681Y-85472126D01*
X112620681Y-84637971D01*
X111786526Y-84637971D01*
X110952372Y-84637971D01*
X110618710Y-84637971D01*
X110618710Y-84304310D01*
X111786526Y-84304310D01*
X112954343Y-84304310D01*
X112954343Y-85472126D01*
X112954343Y-86639942D01*
G37*
G36*
X106948431Y-85972618D02*
G01*
X106948431Y-86306280D01*
X107115262Y-86306280D01*
X107282093Y-86306280D01*
X107282093Y-86139449D01*
X107282093Y-85972618D01*
X107448924Y-85972618D01*
X107615755Y-85972618D01*
X107615755Y-86306280D01*
X107615755Y-86639942D01*
X107282093Y-86639942D01*
X106948431Y-86639942D01*
X106948431Y-86473111D01*
X106948431Y-86306280D01*
X106781600Y-86306280D01*
X106614769Y-86306280D01*
X106614769Y-85972618D01*
X106614769Y-85638957D01*
X106781600Y-85638957D01*
X106948431Y-85638957D01*
X106948431Y-85972618D01*
G37*
G36*
X104946461Y-82469170D02*
G01*
X104946461Y-82636001D01*
X104779630Y-82636001D01*
X104612799Y-82636001D01*
X104612799Y-82802832D01*
X104612799Y-82969663D01*
X104445968Y-82969663D01*
X104279137Y-82969663D01*
X104279137Y-82802832D01*
X104279137Y-82636001D01*
X104112306Y-82636001D01*
X103945476Y-82636001D01*
X103945476Y-82469170D01*
X103945476Y-82302339D01*
X104445968Y-82302339D01*
X104946461Y-82302339D01*
X104946461Y-82469170D01*
G37*
G36*
X105113292Y-82636001D02*
G01*
X105280123Y-82636001D01*
X105280123Y-82802832D01*
X105280123Y-82969663D01*
X105113292Y-82969663D01*
X104946461Y-82969663D01*
X104946461Y-82802832D01*
X104946461Y-82636001D01*
X105113292Y-82636001D01*
G37*
G36*
X107282093Y-75629104D02*
G01*
X107282093Y-75962766D01*
X107782586Y-75962766D01*
X108283078Y-75962766D01*
X108283078Y-75795935D01*
X108283078Y-75629104D01*
X108449909Y-75629104D01*
X108616740Y-75629104D01*
X108616740Y-75795935D01*
X108616740Y-75962766D01*
X108783571Y-75962766D01*
X108950402Y-75962766D01*
X108950402Y-76296428D01*
X108950402Y-76630090D01*
X108783571Y-76630090D01*
X108616740Y-76630090D01*
X108616740Y-76463259D01*
X108616740Y-76296428D01*
X108449909Y-76296428D01*
X108283078Y-76296428D01*
X108283078Y-76463259D01*
X108283078Y-76630090D01*
X108116247Y-76630090D01*
X107949416Y-76630090D01*
X107949416Y-76463259D01*
X107949416Y-76296428D01*
X107782586Y-76296428D01*
X107615755Y-76296428D01*
X107615755Y-76463259D01*
X107615755Y-76630090D01*
X107448924Y-76630090D01*
X107282093Y-76630090D01*
X107282093Y-76463259D01*
X107282093Y-76296428D01*
X107115262Y-76296428D01*
X106948431Y-76296428D01*
X106948431Y-75795935D01*
X106948431Y-75295443D01*
X107115262Y-75295443D01*
X107282093Y-75295443D01*
X107282093Y-75629104D01*
G37*
G36*
X107282093Y-82802832D02*
G01*
X107282093Y-82969663D01*
X107448924Y-82969663D01*
X107615755Y-82969663D01*
X107615755Y-82802832D01*
X107615755Y-82636001D01*
X107782586Y-82636001D01*
X107949416Y-82636001D01*
X107949416Y-82802832D01*
X107949416Y-82969663D01*
X108116247Y-82969663D01*
X108283078Y-82969663D01*
X108283078Y-83136494D01*
X108283078Y-83303324D01*
X108116247Y-83303324D01*
X107949416Y-83303324D01*
X107949416Y-83636986D01*
X107949416Y-83970648D01*
X107782586Y-83970648D01*
X107615755Y-83970648D01*
X107615755Y-84137479D01*
X107615755Y-84304310D01*
X107782586Y-84304310D01*
X107949416Y-84304310D01*
X107949416Y-84137479D01*
X107949416Y-83970648D01*
X108283078Y-83970648D01*
X108616740Y-83970648D01*
X108616740Y-84137479D01*
X108616740Y-84304310D01*
X108449909Y-84304310D01*
X108283078Y-84304310D01*
X108283078Y-84637971D01*
X108283078Y-84971633D01*
X108116247Y-84971633D01*
X107949416Y-84971633D01*
X107949416Y-84804802D01*
X107949416Y-84637971D01*
X107782586Y-84637971D01*
X107615755Y-84637971D01*
X107615755Y-84471141D01*
X107615755Y-84304310D01*
X107448924Y-84304310D01*
X107282093Y-84304310D01*
X107282093Y-84137479D01*
X107282093Y-83970648D01*
X107115262Y-83970648D01*
X106948431Y-83970648D01*
X106948431Y-83803817D01*
X106948431Y-83636986D01*
X107115262Y-83636986D01*
X107282093Y-83636986D01*
X107282093Y-83803817D01*
X107282093Y-83970648D01*
X107448924Y-83970648D01*
X107615755Y-83970648D01*
X107615755Y-83636986D01*
X107615755Y-83303324D01*
X107448924Y-83303324D01*
X107282093Y-83303324D01*
X107282093Y-83136494D01*
X107282093Y-82969663D01*
X106948431Y-82969663D01*
X106614769Y-82969663D01*
X106614769Y-82802832D01*
X106614769Y-82636001D01*
X106948431Y-82636001D01*
X107282093Y-82636001D01*
X107282093Y-82802832D01*
G37*
G36*
X107782586Y-78965722D02*
G01*
X107949416Y-78965722D01*
X107949416Y-79299384D01*
X107949416Y-79633045D01*
X108116247Y-79633045D01*
X108283078Y-79633045D01*
X108283078Y-79966707D01*
X108283078Y-80300369D01*
X107615755Y-80300369D01*
X106948431Y-80300369D01*
X106948431Y-80133538D01*
X106948431Y-79966707D01*
X106781600Y-79966707D01*
X106614769Y-79966707D01*
X106614769Y-79799876D01*
X106614769Y-79633045D01*
X106781600Y-79633045D01*
X106948431Y-79633045D01*
X106948431Y-79799876D01*
X106948431Y-79966707D01*
X107282093Y-79966707D01*
X107615755Y-79966707D01*
X107615755Y-79799876D01*
X107615755Y-79633045D01*
X107448924Y-79633045D01*
X107282093Y-79633045D01*
X107282093Y-79466214D01*
X107282093Y-79299384D01*
X107448924Y-79299384D01*
X107615755Y-79299384D01*
X107615755Y-79132553D01*
X107615755Y-78965722D01*
X107782586Y-78965722D01*
G37*
G36*
X107949416Y-76963751D02*
G01*
X107949416Y-77297413D01*
X108116247Y-77297413D01*
X108283078Y-77297413D01*
X108283078Y-77464244D01*
X108283078Y-77631075D01*
X108116247Y-77631075D01*
X107949416Y-77631075D01*
X107949416Y-77797906D01*
X107949416Y-77964737D01*
X108116247Y-77964737D01*
X108283078Y-77964737D01*
X108283078Y-78298398D01*
X108283078Y-78632060D01*
X107949416Y-78632060D01*
X107615755Y-78632060D01*
X107615755Y-78798891D01*
X107615755Y-78965722D01*
X107448924Y-78965722D01*
X107282093Y-78965722D01*
X107282093Y-78798891D01*
X107282093Y-78632060D01*
X107115262Y-78632060D01*
X106948431Y-78632060D01*
X106948431Y-78465229D01*
X106948431Y-78298398D01*
X107282093Y-78298398D01*
X107615755Y-78298398D01*
X107615755Y-78131567D01*
X107615755Y-77964737D01*
X107448924Y-77964737D01*
X107282093Y-77964737D01*
X107282093Y-77797906D01*
X107282093Y-77631075D01*
X107448924Y-77631075D01*
X107615755Y-77631075D01*
X107615755Y-77464244D01*
X107615755Y-77297413D01*
X107448924Y-77297413D01*
X107282093Y-77297413D01*
X107282093Y-77130582D01*
X107282093Y-76963751D01*
X107448924Y-76963751D01*
X107615755Y-76963751D01*
X107615755Y-76796921D01*
X107615755Y-76630090D01*
X107782586Y-76630090D01*
X107949416Y-76630090D01*
X107949416Y-76963751D01*
G37*
G36*
X112954343Y-81635016D02*
G01*
X112954343Y-81968677D01*
X112787512Y-81968677D01*
X112620681Y-81968677D01*
X112620681Y-82302339D01*
X112620681Y-82636001D01*
X112787512Y-82636001D01*
X112954343Y-82636001D01*
X112954343Y-83303324D01*
X112954343Y-83970648D01*
X112787512Y-83970648D01*
X112620681Y-83970648D01*
X112620681Y-83470155D01*
X112620681Y-82969663D01*
X112453850Y-82969663D01*
X112287019Y-82969663D01*
X112287019Y-82302339D01*
X112287019Y-81635016D01*
X111953357Y-81635016D01*
X111619696Y-81635016D01*
X111619696Y-81801847D01*
X111619696Y-81968677D01*
X111452865Y-81968677D01*
X111286034Y-81968677D01*
X111286034Y-81801847D01*
X111286034Y-81635016D01*
X111119203Y-81635016D01*
X110952372Y-81635016D01*
X110952372Y-81801847D01*
X110952372Y-81968677D01*
X110785541Y-81968677D01*
X110618710Y-81968677D01*
X110618710Y-82135508D01*
X110618710Y-82302339D01*
X111286034Y-82302339D01*
X111953357Y-82302339D01*
X111953357Y-82636001D01*
X111953357Y-82969663D01*
X111786526Y-82969663D01*
X111619696Y-82969663D01*
X111619696Y-82802832D01*
X111619696Y-82636001D01*
X111452865Y-82636001D01*
X111286034Y-82636001D01*
X111286034Y-82802832D01*
X111286034Y-82969663D01*
X111119203Y-82969663D01*
X110952372Y-82969663D01*
X110952372Y-82802832D01*
X110952372Y-82636001D01*
X110618710Y-82636001D01*
X110285049Y-82636001D01*
X110285049Y-82302339D01*
X110285049Y-81968677D01*
X110118218Y-81968677D01*
X109951387Y-81968677D01*
X109951387Y-81801847D01*
X109951387Y-81635016D01*
X110118218Y-81635016D01*
X110285049Y-81635016D01*
X110285049Y-81301354D01*
X110618710Y-81301354D01*
X110618710Y-81468185D01*
X110618710Y-81635016D01*
X110785541Y-81635016D01*
X110952372Y-81635016D01*
X110952372Y-81468185D01*
X110952372Y-81301354D01*
X110785541Y-81301354D01*
X110618710Y-81301354D01*
X110285049Y-81301354D01*
X110285049Y-81134523D01*
X110285049Y-80634031D01*
X110451879Y-80634031D01*
X110618710Y-80634031D01*
X110618710Y-80800861D01*
X110618710Y-80967692D01*
X110785541Y-80967692D01*
X110952372Y-80967692D01*
X110952372Y-80800861D01*
X110952372Y-80634031D01*
X110785541Y-80634031D01*
X110618710Y-80634031D01*
X110618710Y-80467200D01*
X110618710Y-80300369D01*
X110952372Y-80300369D01*
X111286034Y-80300369D01*
X111286034Y-80634031D01*
X111286034Y-80967692D01*
X111119203Y-80967692D01*
X110952372Y-80967692D01*
X110952372Y-81134523D01*
X110952372Y-81301354D01*
X111119203Y-81301354D01*
X111286034Y-81301354D01*
X111286034Y-81134523D01*
X111286034Y-80967692D01*
X111452865Y-80967692D01*
X111619696Y-80967692D01*
X111619696Y-81134523D01*
X111619696Y-81301354D01*
X112287019Y-81301354D01*
X112954343Y-81301354D01*
X112954343Y-81468185D01*
X112954343Y-81635016D01*
G37*
G36*
X108283078Y-81968677D02*
G01*
X108283078Y-82302339D01*
X108116247Y-82302339D01*
X107949416Y-82302339D01*
X107949416Y-82135508D01*
X107949416Y-81968677D01*
X107782586Y-81968677D01*
X107615755Y-81968677D01*
X107615755Y-82302339D01*
X107615755Y-82636001D01*
X107448924Y-82636001D01*
X107282093Y-82636001D01*
X107282093Y-82469170D01*
X107282093Y-82302339D01*
X106948431Y-82302339D01*
X106614769Y-82302339D01*
X106614769Y-82469170D01*
X106614769Y-82636001D01*
X106447939Y-82636001D01*
X106281108Y-82636001D01*
X106281108Y-82802832D01*
X106281108Y-82969663D01*
X105947446Y-82969663D01*
X105613784Y-82969663D01*
X105613784Y-82469170D01*
X105613784Y-82302339D01*
X105947446Y-82302339D01*
X105947446Y-82469170D01*
X105947446Y-82636001D01*
X106114277Y-82636001D01*
X106281108Y-82636001D01*
X106281108Y-82469170D01*
X106281108Y-82302339D01*
X106114277Y-82302339D01*
X105947446Y-82302339D01*
X105613784Y-82302339D01*
X105613784Y-81968677D01*
X105446953Y-81968677D01*
X105280123Y-81968677D01*
X105280123Y-81801847D01*
X105280123Y-81635016D01*
X105113292Y-81635016D01*
X104946461Y-81635016D01*
X104946461Y-81801847D01*
X104946461Y-81968677D01*
X104612799Y-81968677D01*
X104279137Y-81968677D01*
X104279137Y-81801847D01*
X104279137Y-81635016D01*
X104445968Y-81635016D01*
X104612799Y-81635016D01*
X104612799Y-81468185D01*
X104612799Y-81301354D01*
X104112306Y-81301354D01*
X103611814Y-81301354D01*
X103611814Y-81134523D01*
X103611814Y-80967692D01*
X104279137Y-80967692D01*
X104946461Y-80967692D01*
X104946461Y-81134523D01*
X104946461Y-81301354D01*
X105113292Y-81301354D01*
X105280123Y-81301354D01*
X105280123Y-80800861D01*
X105280123Y-80300369D01*
X105446953Y-80300369D01*
X105613784Y-80300369D01*
X105613784Y-80467200D01*
X105613784Y-80634031D01*
X105780615Y-80634031D01*
X105947446Y-80634031D01*
X105947446Y-80467200D01*
X105947446Y-80300369D01*
X106114277Y-80300369D01*
X106281108Y-80300369D01*
X106281108Y-80467200D01*
X106281108Y-80634031D01*
X106114277Y-80634031D01*
X105947446Y-80634031D01*
X105947446Y-80800861D01*
X105947446Y-80967692D01*
X105780615Y-80967692D01*
X105613784Y-80967692D01*
X105613784Y-81134523D01*
X105613784Y-81301354D01*
X105446953Y-81301354D01*
X105280123Y-81301354D01*
X105280123Y-81468185D01*
X105280123Y-81635016D01*
X105613784Y-81635016D01*
X105947446Y-81635016D01*
X106281108Y-81635016D01*
X106281108Y-81968677D01*
X106281108Y-82302339D01*
X106447939Y-82302339D01*
X106614769Y-82302339D01*
X106614769Y-82135508D01*
X106614769Y-81968677D01*
X106781600Y-81968677D01*
X106948431Y-81968677D01*
X106948431Y-81801847D01*
X106948431Y-81635016D01*
X106614769Y-81635016D01*
X106281108Y-81635016D01*
X105947446Y-81635016D01*
X105947446Y-81301354D01*
X105947446Y-80967692D01*
X106114277Y-80967692D01*
X106281108Y-80967692D01*
X106281108Y-81134523D01*
X106281108Y-81301354D01*
X106447939Y-81301354D01*
X106614769Y-81301354D01*
X106614769Y-81134523D01*
X106614769Y-80967692D01*
X106948431Y-80967692D01*
X107282093Y-80967692D01*
X107282093Y-81134523D01*
X107282093Y-81301354D01*
X107448924Y-81301354D01*
X107615755Y-81301354D01*
X107615755Y-81468185D01*
X107615755Y-81635016D01*
X107949416Y-81635016D01*
X108283078Y-81635016D01*
X108283078Y-81801847D01*
X108283078Y-81968677D01*
G37*
G36*
X106114277Y-76296428D02*
G01*
X106281108Y-76296428D01*
X106281108Y-76463259D01*
X106281108Y-76630090D01*
X106447939Y-76630090D01*
X106614769Y-76630090D01*
X106614769Y-76463259D01*
X106614769Y-76296428D01*
X106781600Y-76296428D01*
X106948431Y-76296428D01*
X106948431Y-76463259D01*
X106948431Y-76630090D01*
X107115262Y-76630090D01*
X107282093Y-76630090D01*
X107282093Y-76796921D01*
X107282093Y-76963751D01*
X106948431Y-76963751D01*
X106614769Y-76963751D01*
X106614769Y-77130582D01*
X106614769Y-77297413D01*
X106447939Y-77297413D01*
X106281108Y-77297413D01*
X106281108Y-77130582D01*
X106281108Y-76963751D01*
X105947446Y-76963751D01*
X105613784Y-76963751D01*
X105613784Y-76796921D01*
X105613784Y-76630090D01*
X105780615Y-76630090D01*
X105947446Y-76630090D01*
X105947446Y-76463259D01*
X105947446Y-76296428D01*
X106114277Y-76296428D01*
G37*
G36*
X106114277Y-75629104D02*
G01*
X106614769Y-75629104D01*
X106614769Y-75795935D01*
X106614769Y-75962766D01*
X106281108Y-75962766D01*
X105947446Y-75962766D01*
X105947446Y-76129597D01*
X105947446Y-76296428D01*
X105780615Y-76296428D01*
X105613784Y-76296428D01*
X105613784Y-76463259D01*
X105613784Y-76630090D01*
X105446953Y-76630090D01*
X105280123Y-76630090D01*
X105280123Y-76296428D01*
X105280123Y-75962766D01*
X105446953Y-75962766D01*
X105613784Y-75962766D01*
X105613784Y-75795935D01*
X105613784Y-75629104D01*
X106114277Y-75629104D01*
G37*
G36*
X105780615Y-74961781D02*
G01*
X105947446Y-74961781D01*
X105947446Y-74794950D01*
X105947446Y-74628119D01*
X106114277Y-74628119D01*
X106281108Y-74628119D01*
X106281108Y-74794950D01*
X106281108Y-74961781D01*
X106114277Y-74961781D01*
X105947446Y-74961781D01*
X105947446Y-75128612D01*
X105947446Y-75295443D01*
X105780615Y-75295443D01*
X105613784Y-75295443D01*
X105613784Y-75462274D01*
X105613784Y-75629104D01*
X105446953Y-75629104D01*
X105280123Y-75629104D01*
X105280123Y-75795935D01*
X105280123Y-75962766D01*
X105113292Y-75962766D01*
X104946461Y-75962766D01*
X104946461Y-75795935D01*
X104946461Y-75629104D01*
X104279137Y-75629104D01*
X103611814Y-75629104D01*
X103611814Y-75462274D01*
X103611814Y-75295443D01*
X103444983Y-75295443D01*
X103278152Y-75295443D01*
X103278152Y-74794950D01*
X103278152Y-74294457D01*
X103444983Y-74294457D01*
X103611814Y-74294457D01*
X103611814Y-74461288D01*
X103611814Y-74628119D01*
X103778645Y-74628119D01*
X103945476Y-74628119D01*
X103945476Y-74794950D01*
X103945476Y-74961781D01*
X104112306Y-74961781D01*
X104279137Y-74961781D01*
X104279137Y-75128612D01*
X104279137Y-75295443D01*
X104445968Y-75295443D01*
X104612799Y-75295443D01*
X104946461Y-75295443D01*
X105113292Y-75295443D01*
X105280123Y-75295443D01*
X105280123Y-74961781D01*
X105280123Y-74628119D01*
X105113292Y-74628119D01*
X104946461Y-74628119D01*
X104946461Y-74961781D01*
X104946461Y-75295443D01*
X104612799Y-75295443D01*
X104612799Y-74961781D01*
X104612799Y-74628119D01*
X104279137Y-74628119D01*
X103945476Y-74628119D01*
X103945476Y-74461288D01*
X103945476Y-74294457D01*
X104279137Y-74294457D01*
X104612799Y-74294457D01*
X104612799Y-74461288D01*
X104612799Y-74628119D01*
X104779630Y-74628119D01*
X104946461Y-74628119D01*
X104946461Y-74461288D01*
X104946461Y-74294457D01*
X105280123Y-74294457D01*
X105613784Y-74294457D01*
X105613784Y-74628119D01*
X105613784Y-74961781D01*
X105780615Y-74961781D01*
G37*
G36*
X110285049Y-85972618D02*
G01*
X109951387Y-85972618D01*
X109617725Y-85972618D01*
X109617725Y-86139449D01*
X109617725Y-86306280D01*
X109951387Y-86306280D01*
X110285049Y-86306280D01*
X110285049Y-86473111D01*
X110285049Y-86639942D01*
X109784556Y-86639942D01*
X109284063Y-86639942D01*
X109284063Y-86306280D01*
X109284063Y-85972618D01*
X109117233Y-85972618D01*
X108950402Y-85972618D01*
X108950402Y-85638957D01*
X109284063Y-85638957D01*
X109284063Y-85805788D01*
X109284063Y-85972618D01*
X109450894Y-85972618D01*
X109617725Y-85972618D01*
X109617725Y-85805788D01*
X109617725Y-85638957D01*
X109450894Y-85638957D01*
X109284063Y-85638957D01*
X108950402Y-85638957D01*
X108950402Y-85472126D01*
X109617725Y-85472126D01*
X109617725Y-85638957D01*
X109784556Y-85638957D01*
X109951387Y-85638957D01*
X109951387Y-85472126D01*
X109951387Y-85305295D01*
X109784556Y-85305295D01*
X109617725Y-85305295D01*
X109617725Y-85472126D01*
X108950402Y-85472126D01*
X108950402Y-85305295D01*
X109284063Y-85305295D01*
X109617725Y-85305295D01*
X109617725Y-85138464D01*
X109617725Y-84971633D01*
X109450894Y-84971633D01*
X109284063Y-84971633D01*
X109284063Y-84804802D01*
X109284063Y-84637971D01*
X109117233Y-84637971D01*
X108950402Y-84637971D01*
X108950402Y-84304310D01*
X108950402Y-83970648D01*
X109284063Y-83970648D01*
X109617725Y-83970648D01*
X109617725Y-83470155D01*
X109617725Y-82969663D01*
X109450894Y-82969663D01*
X109284063Y-82969663D01*
X109284063Y-82802832D01*
X109284063Y-82636001D01*
X109117233Y-82636001D01*
X108950402Y-82636001D01*
X108950402Y-82469170D01*
X108950402Y-82302339D01*
X109284063Y-82302339D01*
X109617725Y-82302339D01*
X109617725Y-82469170D01*
X109617725Y-82636001D01*
X109784556Y-82636001D01*
X109951387Y-82636001D01*
X109951387Y-82802832D01*
X109951387Y-82969663D01*
X110118218Y-82969663D01*
X110285049Y-82969663D01*
X110285049Y-83303324D01*
X110285049Y-83636986D01*
X110618710Y-83636986D01*
X110952372Y-83636986D01*
X110952372Y-83470155D01*
X110952372Y-83303324D01*
X111286034Y-83303324D01*
X111619696Y-83303324D01*
X111619696Y-83470155D01*
X111619696Y-83636986D01*
X111786526Y-83636986D01*
X111953357Y-83636986D01*
X111953357Y-83470155D01*
X111953357Y-83303324D01*
X112120188Y-83303324D01*
X112287019Y-83303324D01*
X112287019Y-83636986D01*
X112287019Y-83970648D01*
X111953357Y-83970648D01*
X111619696Y-83970648D01*
X111619696Y-83803817D01*
X111619696Y-83636986D01*
X111452865Y-83636986D01*
X111286034Y-83636986D01*
X111286034Y-83803817D01*
X111286034Y-83970648D01*
X110785541Y-83970648D01*
X110285049Y-83970648D01*
X110285049Y-84137479D01*
X110285049Y-84304310D01*
X109951387Y-84304310D01*
X109617725Y-84304310D01*
X109617725Y-84637971D01*
X109617725Y-84971633D01*
X109784556Y-84971633D01*
X109951387Y-84971633D01*
X109951387Y-84804802D01*
X109951387Y-84637971D01*
X110118218Y-84637971D01*
X110285049Y-84637971D01*
X110285049Y-85305295D01*
X110285049Y-85805788D01*
X110285049Y-85972618D01*
G37*
G36*
X107949416Y-85138464D02*
G01*
X107949416Y-85305295D01*
X108283078Y-85305295D01*
X108616740Y-85305295D01*
X108616740Y-85138464D01*
X108616740Y-84971633D01*
X108783571Y-84971633D01*
X108950402Y-84971633D01*
X108950402Y-85138464D01*
X108950402Y-85305295D01*
X108783571Y-85305295D01*
X108616740Y-85305295D01*
X108616740Y-85472126D01*
X108616740Y-85638957D01*
X107949416Y-85638957D01*
X107282093Y-85638957D01*
X107282093Y-85472126D01*
X107282093Y-85305295D01*
X107448924Y-85305295D01*
X107615755Y-85305295D01*
X107615755Y-85138464D01*
X107615755Y-84971633D01*
X107782586Y-84971633D01*
X107949416Y-84971633D01*
X107949416Y-85138464D01*
G37*
G36*
X110952372Y-83136494D02*
G01*
X110952372Y-83303324D01*
X110785541Y-83303324D01*
X110618710Y-83303324D01*
X110618710Y-83136494D01*
X110618710Y-82969663D01*
X110785541Y-82969663D01*
X110952372Y-82969663D01*
X110952372Y-83136494D01*
G37*
G36*
X112120188Y-78632060D02*
G01*
X112287019Y-78632060D01*
X112287019Y-78465229D01*
X112287019Y-78298398D01*
X112620681Y-78298398D01*
X112954343Y-78298398D01*
X112954343Y-78465229D01*
X112954343Y-78632060D01*
X112954343Y-78965722D01*
X112787512Y-78965722D01*
X112620681Y-78965722D01*
X112620681Y-78798891D01*
X112620681Y-78632060D01*
X112453850Y-78632060D01*
X112287019Y-78632060D01*
X112287019Y-78965722D01*
X112287019Y-79299384D01*
X112120188Y-79299384D01*
X111953357Y-79299384D01*
X111953357Y-79466214D01*
X111953357Y-79633045D01*
X112120188Y-79633045D01*
X112287019Y-79633045D01*
X112287019Y-79466214D01*
X112287019Y-79299384D01*
X112453850Y-79299384D01*
X112620681Y-79299384D01*
X112620681Y-79466214D01*
X112620681Y-79633045D01*
X112620681Y-79966707D01*
X112120188Y-79966707D01*
X111619696Y-79966707D01*
X111619696Y-80133538D01*
X111619696Y-80300369D01*
X111452865Y-80300369D01*
X111286034Y-80300369D01*
X111286034Y-79966707D01*
X111286034Y-79633045D01*
X111119203Y-79633045D01*
X110952372Y-79633045D01*
X110952372Y-79799876D01*
X110952372Y-79966707D01*
X110785541Y-79966707D01*
X110618710Y-79966707D01*
X110618710Y-80133538D01*
X110618710Y-80300369D01*
X110451879Y-80300369D01*
X110285049Y-80300369D01*
X110285049Y-80133538D01*
X110285049Y-79966707D01*
X109951387Y-79966707D01*
X109617725Y-79966707D01*
X109617725Y-80133538D01*
X109617725Y-80300369D01*
X109284063Y-80300369D01*
X108950402Y-80300369D01*
X108950402Y-80133538D01*
X108950402Y-79966707D01*
X109117233Y-79966707D01*
X109284063Y-79966707D01*
X109284063Y-79799876D01*
X109284063Y-79633045D01*
X109117233Y-79633045D01*
X108950402Y-79633045D01*
X108950402Y-79466214D01*
X110618710Y-79466214D01*
X110618710Y-79633045D01*
X110785541Y-79633045D01*
X110952372Y-79633045D01*
X110952372Y-79466214D01*
X110952372Y-79299384D01*
X110785541Y-79299384D01*
X110618710Y-79299384D01*
X110618710Y-79466214D01*
X108950402Y-79466214D01*
X108950402Y-79299384D01*
X108616740Y-79299384D01*
X108283078Y-79299384D01*
X108283078Y-79132553D01*
X108283078Y-78965722D01*
X108616740Y-78965722D01*
X108950402Y-78965722D01*
X109284063Y-78965722D01*
X109284063Y-79132553D01*
X109284063Y-79299384D01*
X109450894Y-79299384D01*
X109617725Y-79299384D01*
X109617725Y-79132553D01*
X109617725Y-78965722D01*
X109450894Y-78965722D01*
X109284063Y-78965722D01*
X108950402Y-78965722D01*
X108950402Y-78798891D01*
X108950402Y-78632060D01*
X108783571Y-78632060D01*
X108616740Y-78632060D01*
X108616740Y-78298398D01*
X108616740Y-77964737D01*
X108783571Y-77964737D01*
X108950402Y-77964737D01*
X109284063Y-77964737D01*
X109284063Y-78298398D01*
X109284063Y-78632060D01*
X109450894Y-78632060D01*
X109617725Y-78632060D01*
X109617725Y-78798891D01*
X109617725Y-78965722D01*
X109951387Y-78965722D01*
X110285049Y-78965722D01*
X110285049Y-78632060D01*
X110618710Y-78632060D01*
X110618710Y-78798891D01*
X110618710Y-78965722D01*
X110785541Y-78965722D01*
X110952372Y-78965722D01*
X110952372Y-78798891D01*
X110952372Y-78632060D01*
X111119203Y-78632060D01*
X111286034Y-78632060D01*
X111286034Y-78798891D01*
X111286034Y-78965722D01*
X111286034Y-79132553D01*
X111286034Y-79299384D01*
X111452865Y-79299384D01*
X111619696Y-79299384D01*
X111619696Y-78965722D01*
X111619696Y-78632060D01*
X111452865Y-78632060D01*
X111286034Y-78632060D01*
X111286034Y-78465229D01*
X111286034Y-78298398D01*
X111119203Y-78298398D01*
X110952372Y-78298398D01*
X110952372Y-78465229D01*
X110952372Y-78632060D01*
X110785541Y-78632060D01*
X110618710Y-78632060D01*
X110285049Y-78632060D01*
X110285049Y-78465229D01*
X110285049Y-78131567D01*
X110618710Y-78131567D01*
X110618710Y-78298398D01*
X110785541Y-78298398D01*
X110952372Y-78298398D01*
X110952372Y-78131567D01*
X110952372Y-77964737D01*
X110785541Y-77964737D01*
X110618710Y-77964737D01*
X110618710Y-78131567D01*
X110285049Y-78131567D01*
X110285049Y-77964737D01*
X109784556Y-77964737D01*
X109284063Y-77964737D01*
X108950402Y-77964737D01*
X108950402Y-77797906D01*
X108950402Y-77631075D01*
X109450894Y-77631075D01*
X109951387Y-77631075D01*
X109951387Y-77464244D01*
X109951387Y-77297413D01*
X110118218Y-77297413D01*
X110285049Y-77297413D01*
X110285049Y-77464244D01*
X110285049Y-77631075D01*
X110618710Y-77631075D01*
X110952372Y-77631075D01*
X110952372Y-77464244D01*
X110952372Y-77297413D01*
X110785541Y-77297413D01*
X110618710Y-77297413D01*
X110618710Y-77130582D01*
X110618710Y-76963751D01*
X111452865Y-76963751D01*
X112287019Y-76963751D01*
X112287019Y-77130582D01*
X112287019Y-77297413D01*
X111953357Y-77297413D01*
X111619696Y-77297413D01*
X111619696Y-77464244D01*
X111619696Y-77631075D01*
X111452865Y-77631075D01*
X111286034Y-77631075D01*
X111286034Y-77797906D01*
X111286034Y-77964737D01*
X111452865Y-77964737D01*
X111619696Y-77964737D01*
X111619696Y-78131567D01*
X111619696Y-78298398D01*
X111786526Y-78298398D01*
X111953357Y-78298398D01*
X111953357Y-77964737D01*
X111953357Y-77631075D01*
X112287019Y-77631075D01*
X112620681Y-77631075D01*
X112620681Y-77797906D01*
X112620681Y-77964737D01*
X112453850Y-77964737D01*
X112287019Y-77964737D01*
X112287019Y-78131567D01*
X112287019Y-78298398D01*
X112120188Y-78298398D01*
X111953357Y-78298398D01*
X111953357Y-78465229D01*
X111953357Y-78632060D01*
X112120188Y-78632060D01*
G37*
G36*
X110285049Y-76963751D02*
G01*
X110118218Y-76963751D01*
X109951387Y-76963751D01*
X109951387Y-77130582D01*
X109951387Y-77297413D01*
X109450894Y-77297413D01*
X108950402Y-77297413D01*
X108950402Y-77464244D01*
X108950402Y-77631075D01*
X108783571Y-77631075D01*
X108616740Y-77631075D01*
X108616740Y-77464244D01*
X108616740Y-77297413D01*
X108449909Y-77297413D01*
X108283078Y-77297413D01*
X108283078Y-76963751D01*
X108283078Y-76630090D01*
X108449909Y-76630090D01*
X108616740Y-76630090D01*
X108616740Y-76796921D01*
X108616740Y-76963751D01*
X108783571Y-76963751D01*
X108950402Y-76963751D01*
X108950402Y-76796921D01*
X108950402Y-76630090D01*
X109117233Y-76630090D01*
X109284063Y-76630090D01*
X109284063Y-76296428D01*
X109617725Y-76296428D01*
X109617725Y-76463259D01*
X109617725Y-76630090D01*
X109784556Y-76630090D01*
X109951387Y-76630090D01*
X109951387Y-76463259D01*
X109951387Y-76296428D01*
X109784556Y-76296428D01*
X109617725Y-76296428D01*
X109284063Y-76296428D01*
X109284063Y-75962766D01*
X109117233Y-75962766D01*
X108950402Y-75962766D01*
X108950402Y-75795935D01*
X108950402Y-75629104D01*
X109117233Y-75629104D01*
X109284063Y-75629104D01*
X109284063Y-75795935D01*
X109284063Y-75962766D01*
X109450894Y-75962766D01*
X109617725Y-75962766D01*
X109617725Y-75795935D01*
X109617725Y-75629104D01*
X109784556Y-75629104D01*
X109951387Y-75629104D01*
X109951387Y-75295443D01*
X109951387Y-74961781D01*
X110118218Y-74961781D01*
X110285049Y-74961781D01*
X110285049Y-75962766D01*
X110285049Y-76463259D01*
X110285049Y-76963751D01*
G37*
G36*
X107949416Y-74461288D02*
G01*
X107949416Y-74628119D01*
X108116247Y-74628119D01*
X108283078Y-74628119D01*
X108283078Y-74461288D01*
X108283078Y-74294457D01*
X108449909Y-74294457D01*
X108616740Y-74294457D01*
X108616740Y-74628119D01*
X108616740Y-74961781D01*
X108950402Y-74961781D01*
X109284063Y-74961781D01*
X109284063Y-74794950D01*
X109284063Y-74628119D01*
X109117233Y-74628119D01*
X108950402Y-74628119D01*
X108950402Y-74461288D01*
X108950402Y-74294457D01*
X109284063Y-74294457D01*
X109617725Y-74294457D01*
X109617725Y-74628119D01*
X109617725Y-74961781D01*
X109450894Y-74961781D01*
X109284063Y-74961781D01*
X109284063Y-75128612D01*
X109284063Y-75295443D01*
X109117233Y-75295443D01*
X108950402Y-75295443D01*
X108950402Y-75462274D01*
X108950402Y-75629104D01*
X108783571Y-75629104D01*
X108616740Y-75629104D01*
X108616740Y-75295443D01*
X108616740Y-74961781D01*
X108449909Y-74961781D01*
X108283078Y-74961781D01*
X108283078Y-75295443D01*
X108283078Y-75629104D01*
X108116247Y-75629104D01*
X107949416Y-75629104D01*
X107949416Y-75295443D01*
X107949416Y-74961781D01*
X107782586Y-74961781D01*
X107615755Y-74961781D01*
X107615755Y-74794950D01*
X107615755Y-74628119D01*
X107282093Y-74628119D01*
X106948431Y-74628119D01*
X106948431Y-74461288D01*
X106948431Y-74294457D01*
X107448924Y-74294457D01*
X107949416Y-74294457D01*
X107949416Y-74461288D01*
G37*
G36*
X106948431Y-78298398D02*
G01*
X106781600Y-78298398D01*
X106614769Y-78298398D01*
X106614769Y-78465229D01*
X106614769Y-78632060D01*
X106614769Y-78965722D01*
X106447939Y-78965722D01*
X106281108Y-78965722D01*
X106281108Y-79466214D01*
X106281108Y-79966707D01*
X106114277Y-79966707D01*
X105947446Y-79966707D01*
X105947446Y-79799876D01*
X105947446Y-79633045D01*
X105780615Y-79633045D01*
X105613784Y-79633045D01*
X105613784Y-79799876D01*
X105613784Y-79966707D01*
X105446953Y-79966707D01*
X105280123Y-79966707D01*
X105280123Y-80133538D01*
X105280123Y-80300369D01*
X105113292Y-80300369D01*
X104946461Y-80300369D01*
X104946461Y-80467200D01*
X104946461Y-80634031D01*
X104779630Y-80634031D01*
X104612799Y-80634031D01*
X104612799Y-80467200D01*
X104612799Y-80300369D01*
X104445968Y-80300369D01*
X104279137Y-80300369D01*
X104279137Y-80133538D01*
X104279137Y-79966707D01*
X104112306Y-79966707D01*
X103945476Y-79966707D01*
X103945476Y-79633045D01*
X103945476Y-79299384D01*
X103778645Y-79299384D01*
X103611814Y-79299384D01*
X103611814Y-79799876D01*
X103611814Y-80133538D01*
X103611814Y-80300369D01*
X103444983Y-80300369D01*
X103278152Y-80300369D01*
X103278152Y-80467200D01*
X103278152Y-80634031D01*
X103444983Y-80634031D01*
X103611814Y-80634031D01*
X103611814Y-80800861D01*
X103611814Y-80967692D01*
X103444983Y-80967692D01*
X103278152Y-80967692D01*
X103278152Y-81134523D01*
X103278152Y-81301354D01*
X103444983Y-81301354D01*
X103611814Y-81301354D01*
X103611814Y-81468185D01*
X103611814Y-81635016D01*
X103778645Y-81635016D01*
X103945476Y-81635016D01*
X103945476Y-81968677D01*
X103945476Y-82135508D01*
X103945476Y-82302339D01*
X103611814Y-82302339D01*
X103278152Y-82302339D01*
X103278152Y-82469170D01*
X103278152Y-82636001D01*
X102944490Y-82636001D01*
X102610829Y-82636001D01*
X102610829Y-82802832D01*
X102610829Y-82969663D01*
X102944490Y-82969663D01*
X103278152Y-82969663D01*
X103278152Y-82802832D01*
X103278152Y-82636001D01*
X103444983Y-82636001D01*
X103611814Y-82636001D01*
X103611814Y-82802832D01*
X103611814Y-82969663D01*
X103778645Y-82969663D01*
X103945476Y-82969663D01*
X103945476Y-83136494D01*
X103945476Y-83303324D01*
X104112306Y-83303324D01*
X104279137Y-83303324D01*
X104279137Y-83470155D01*
X104279137Y-83636986D01*
X104445968Y-83636986D01*
X104612799Y-83636986D01*
X104612799Y-83303324D01*
X104612799Y-82969663D01*
X104779630Y-82969663D01*
X104946461Y-82969663D01*
X104946461Y-83136494D01*
X104946461Y-83303324D01*
X105613784Y-83303324D01*
X106281108Y-83303324D01*
X106281108Y-83136494D01*
X106281108Y-82969663D01*
X106447939Y-82969663D01*
X106614769Y-82969663D01*
X106614769Y-83636986D01*
X106614769Y-84304310D01*
X106447939Y-84304310D01*
X106281108Y-84304310D01*
X106281108Y-84637971D01*
X106281108Y-84971633D01*
X106614769Y-84971633D01*
X106948431Y-84971633D01*
X106948431Y-85138464D01*
X106948431Y-85305295D01*
X106114277Y-85305295D01*
X105280123Y-85305295D01*
X105280123Y-85472126D01*
X105280123Y-85638957D01*
X105113292Y-85638957D01*
X104946461Y-85638957D01*
X104946461Y-85305295D01*
X104946461Y-84971633D01*
X104779630Y-84971633D01*
X104612799Y-84971633D01*
X104612799Y-85138464D01*
X104612799Y-85305295D01*
X104279137Y-85305295D01*
X103945476Y-85305295D01*
X103945476Y-85472126D01*
X103945476Y-85638957D01*
X103778645Y-85638957D01*
X103611814Y-85638957D01*
X103611814Y-85805788D01*
X103611814Y-85972618D01*
X103778645Y-85972618D01*
X103945476Y-85972618D01*
X103945476Y-85805788D01*
X103945476Y-85638957D01*
X104279137Y-85638957D01*
X104612799Y-85638957D01*
X104612799Y-85805788D01*
X104612799Y-85972618D01*
X104445968Y-85972618D01*
X104279137Y-85972618D01*
X104279137Y-86139449D01*
X104279137Y-86306280D01*
X104445968Y-86306280D01*
X104612799Y-86306280D01*
X104612799Y-86139449D01*
X104612799Y-85972618D01*
X104779630Y-85972618D01*
X104946461Y-85972618D01*
X104946461Y-86139449D01*
X104946461Y-86306280D01*
X104946461Y-86639942D01*
X104445968Y-86639942D01*
X103945476Y-86639942D01*
X103945476Y-86473111D01*
X103945476Y-86306280D01*
X103611814Y-86306280D01*
X103278152Y-86306280D01*
X103278152Y-85805788D01*
X103278152Y-85305295D01*
X103111321Y-85305295D01*
X102944490Y-85305295D01*
X102944490Y-85472126D01*
X102944490Y-85638957D01*
X102777659Y-85638957D01*
X102610829Y-85638957D01*
X102610829Y-85472126D01*
X102610829Y-85305295D01*
X102443998Y-85305295D01*
X102277167Y-85305295D01*
X102277167Y-85472126D01*
X102277167Y-85638957D01*
X102110336Y-85638957D01*
X101943505Y-85638957D01*
X101943505Y-85805788D01*
X101943505Y-85972618D01*
X101443012Y-85972618D01*
X100942520Y-85972618D01*
X100942520Y-86139449D01*
X100942520Y-86306280D01*
X101276182Y-86306280D01*
X101609843Y-86306280D01*
X101609843Y-86473111D01*
X101609843Y-86639942D01*
X101109351Y-86639942D01*
X100608858Y-86639942D01*
X100608858Y-85472126D01*
X100608858Y-85305295D01*
X100942520Y-85305295D01*
X100942520Y-85472126D01*
X100942520Y-85638957D01*
X101109351Y-85638957D01*
X101276182Y-85638957D01*
X101276182Y-85472126D01*
X101276182Y-85305295D01*
X101109351Y-85305295D01*
X100942520Y-85305295D01*
X100608858Y-85305295D01*
X100608858Y-84637971D01*
X101276182Y-84637971D01*
X101276182Y-84804802D01*
X101276182Y-84971633D01*
X101443012Y-84971633D01*
X101609843Y-84971633D01*
X101609843Y-85305295D01*
X101609843Y-85472126D01*
X101609843Y-85638957D01*
X101776674Y-85638957D01*
X101943505Y-85638957D01*
X101943505Y-85305295D01*
X101943505Y-84971633D01*
X101776674Y-84971633D01*
X101609843Y-84971633D01*
X101609843Y-84804802D01*
X101609843Y-84637971D01*
X101443012Y-84637971D01*
X101276182Y-84637971D01*
X100608858Y-84637971D01*
X100608858Y-84304310D01*
X101109351Y-84304310D01*
X101609843Y-84304310D01*
X101609843Y-84471141D01*
X101609843Y-84637971D01*
X101776674Y-84637971D01*
X101943505Y-84637971D01*
X101943505Y-84471141D01*
X101943505Y-84304310D01*
X101776674Y-84304310D01*
X101609843Y-84304310D01*
X101609843Y-84137479D01*
X101609843Y-83970648D01*
X102277167Y-83970648D01*
X102277167Y-84471141D01*
X102277167Y-84971633D01*
X102777659Y-84971633D01*
X103278152Y-84971633D01*
X103278152Y-84637971D01*
X103611814Y-84637971D01*
X103611814Y-84971633D01*
X103778645Y-84971633D01*
X103945476Y-84971633D01*
X103945476Y-84637971D01*
X104279137Y-84637971D01*
X104279137Y-84804802D01*
X104279137Y-84971633D01*
X104445968Y-84971633D01*
X104612799Y-84971633D01*
X104612799Y-84804802D01*
X104612799Y-84637971D01*
X104445968Y-84637971D01*
X104279137Y-84637971D01*
X103945476Y-84637971D01*
X103945476Y-84304310D01*
X103778645Y-84304310D01*
X103611814Y-84304310D01*
X103611814Y-84471141D01*
X103611814Y-84637971D01*
X103278152Y-84637971D01*
X103278152Y-84471141D01*
X103278152Y-83970648D01*
X102777659Y-83970648D01*
X102277167Y-83970648D01*
X101609843Y-83970648D01*
X101109351Y-83970648D01*
X100608858Y-83970648D01*
X100608858Y-83803817D01*
X100608858Y-83636986D01*
X101776674Y-83636986D01*
X102944490Y-83636986D01*
X102944490Y-83470155D01*
X103278152Y-83470155D01*
X103278152Y-83636986D01*
X103444983Y-83636986D01*
X103611814Y-83636986D01*
X103611814Y-83803817D01*
X103611814Y-83970648D01*
X103778645Y-83970648D01*
X103945476Y-83970648D01*
X103945476Y-84137479D01*
X103945476Y-84304310D01*
X104112306Y-84304310D01*
X104279137Y-84304310D01*
X104612799Y-84304310D01*
X104779630Y-84304310D01*
X104946461Y-84304310D01*
X104946461Y-84637971D01*
X104946461Y-84804802D01*
X104946461Y-84971633D01*
X105446953Y-84971633D01*
X105947446Y-84971633D01*
X105947446Y-84471141D01*
X105947446Y-83970648D01*
X106114277Y-83970648D01*
X106281108Y-83970648D01*
X106281108Y-83803817D01*
X106281108Y-83636986D01*
X105947446Y-83636986D01*
X105613784Y-83636986D01*
X105613784Y-83803817D01*
X105613784Y-83970648D01*
X105446953Y-83970648D01*
X105280123Y-83970648D01*
X105280123Y-83803817D01*
X105280123Y-83636986D01*
X104946461Y-83636986D01*
X104612799Y-83636986D01*
X104612799Y-83970648D01*
X104612799Y-84304310D01*
X104279137Y-84304310D01*
X104279137Y-84137479D01*
X104279137Y-83970648D01*
X104112306Y-83970648D01*
X103945476Y-83970648D01*
X103945476Y-83803817D01*
X103945476Y-83636986D01*
X103778645Y-83636986D01*
X103611814Y-83636986D01*
X103611814Y-83470155D01*
X103611814Y-83303324D01*
X103444983Y-83303324D01*
X103278152Y-83303324D01*
X103278152Y-83470155D01*
X102944490Y-83470155D01*
X102944490Y-83303324D01*
X102777659Y-83303324D01*
X102610829Y-83303324D01*
X102610829Y-83136494D01*
X102610829Y-82969663D01*
X102443998Y-82969663D01*
X102277167Y-82969663D01*
X102277167Y-82802832D01*
X102277167Y-82636001D01*
X102110336Y-82636001D01*
X101943505Y-82636001D01*
X101943505Y-82802832D01*
X101943505Y-82969663D01*
X101609843Y-82969663D01*
X101276182Y-82969663D01*
X101276182Y-82636001D01*
X101276182Y-82302339D01*
X101443012Y-82302339D01*
X101609843Y-82302339D01*
X101609843Y-82469170D01*
X101609843Y-82636001D01*
X101776674Y-82636001D01*
X101943505Y-82636001D01*
X101943505Y-82302339D01*
X101943505Y-81968677D01*
X102610829Y-81968677D01*
X102610829Y-82135508D01*
X102610829Y-82302339D01*
X102777659Y-82302339D01*
X102944490Y-82302339D01*
X102944490Y-82135508D01*
X102944490Y-81968677D01*
X102777659Y-81968677D01*
X102610829Y-81968677D01*
X101943505Y-81968677D01*
X101776674Y-81968677D01*
X101609843Y-81968677D01*
X101609843Y-81801847D01*
X102944490Y-81801847D01*
X102944490Y-81968677D01*
X103111321Y-81968677D01*
X103278152Y-81968677D01*
X103278152Y-81801847D01*
X103278152Y-81635016D01*
X103111321Y-81635016D01*
X102944490Y-81635016D01*
X102944490Y-81801847D01*
X101609843Y-81801847D01*
X101609843Y-81635016D01*
X101609843Y-81301354D01*
X101443012Y-81301354D01*
X101276182Y-81301354D01*
X101276182Y-81134523D01*
X101276182Y-80967692D01*
X101776674Y-80967692D01*
X102277167Y-80967692D01*
X102277167Y-81134523D01*
X102277167Y-81301354D01*
X102110336Y-81301354D01*
X101943505Y-81301354D01*
X101943505Y-81468185D01*
X101943505Y-81635016D01*
X102443998Y-81635016D01*
X102944490Y-81635016D01*
X102944490Y-81468185D01*
X102944490Y-81301354D01*
X102777659Y-81301354D01*
X102610829Y-81301354D01*
X102610829Y-81134523D01*
X102610829Y-80967692D01*
X102443998Y-80967692D01*
X102277167Y-80967692D01*
X102277167Y-80634031D01*
X102610829Y-80634031D01*
X102610829Y-80800861D01*
X102610829Y-80967692D01*
X102777659Y-80967692D01*
X102944490Y-80967692D01*
X102944490Y-80800861D01*
X102944490Y-80634031D01*
X102777659Y-80634031D01*
X102610829Y-80634031D01*
X102277167Y-80634031D01*
X102277167Y-80467200D01*
X102277167Y-79966707D01*
X102610829Y-79966707D01*
X102610829Y-80133538D01*
X102610829Y-80300369D01*
X102777659Y-80300369D01*
X102944490Y-80300369D01*
X102944490Y-80133538D01*
X102944490Y-79966707D01*
X102777659Y-79966707D01*
X102610829Y-79966707D01*
X102277167Y-79966707D01*
X102110336Y-79966707D01*
X101943505Y-79966707D01*
X101943505Y-79633045D01*
X101943505Y-79299384D01*
X101776674Y-79299384D01*
X101609843Y-79299384D01*
X101609843Y-79132553D01*
X101609843Y-78965722D01*
X101943505Y-78965722D01*
X102277167Y-78965722D01*
X102277167Y-78798891D01*
X102277167Y-78632060D01*
X102610829Y-78632060D01*
X102610829Y-78965722D01*
X102610829Y-79299384D01*
X102777659Y-79299384D01*
X102944490Y-79299384D01*
X102944490Y-78965722D01*
X102944490Y-78632060D01*
X102777659Y-78632060D01*
X102610829Y-78632060D01*
X102277167Y-78632060D01*
X101776674Y-78632060D01*
X101276182Y-78632060D01*
X101276182Y-78965722D01*
X101276182Y-79299384D01*
X101109351Y-79299384D01*
X100942520Y-79299384D01*
X100942520Y-79466214D01*
X100942520Y-79633045D01*
X101276182Y-79633045D01*
X101609843Y-79633045D01*
X101609843Y-80133538D01*
X101609843Y-80634031D01*
X101276182Y-80634031D01*
X100942520Y-80634031D01*
X100942520Y-80800861D01*
X100942520Y-80967692D01*
X100775689Y-80967692D01*
X100608858Y-80967692D01*
X100608858Y-80634031D01*
X100608858Y-80300369D01*
X100775689Y-80300369D01*
X100942520Y-80300369D01*
X100942520Y-80133538D01*
X100942520Y-79966707D01*
X100775689Y-79966707D01*
X100608858Y-79966707D01*
X100608858Y-79466214D01*
X100608858Y-78965722D01*
X100775689Y-78965722D01*
X100942520Y-78965722D01*
X100942520Y-78798891D01*
X100942520Y-78632060D01*
X100775689Y-78632060D01*
X100608858Y-78632060D01*
X100608858Y-78465229D01*
X103278152Y-78465229D01*
X103278152Y-78632060D01*
X103444983Y-78632060D01*
X103611814Y-78632060D01*
X103611814Y-78798891D01*
X103611814Y-78965722D01*
X103945476Y-78965722D01*
X104279137Y-78965722D01*
X104279137Y-79299384D01*
X104279137Y-79633045D01*
X104612799Y-79633045D01*
X104946461Y-79633045D01*
X104946461Y-79466214D01*
X104946461Y-79299384D01*
X105113292Y-79299384D01*
X105280123Y-79299384D01*
X105280123Y-79132553D01*
X105280123Y-78965722D01*
X105613784Y-78965722D01*
X105947446Y-78965722D01*
X105947446Y-78798891D01*
X105947446Y-78632060D01*
X106114277Y-78632060D01*
X106281108Y-78632060D01*
X106281108Y-78465229D01*
X106281108Y-78298398D01*
X105780615Y-78298398D01*
X105280123Y-78298398D01*
X105280123Y-78632060D01*
X105280123Y-78965722D01*
X105113292Y-78965722D01*
X104946461Y-78965722D01*
X104946461Y-78798891D01*
X104946461Y-78632060D01*
X104779630Y-78632060D01*
X104612799Y-78632060D01*
X104612799Y-78798891D01*
X104612799Y-78965722D01*
X104445968Y-78965722D01*
X104279137Y-78965722D01*
X104279137Y-78798891D01*
X104279137Y-78632060D01*
X103945476Y-78632060D01*
X103611814Y-78632060D01*
X103611814Y-78465229D01*
X103611814Y-78298398D01*
X103444983Y-78298398D01*
X103278152Y-78298398D01*
X103278152Y-78465229D01*
X100608858Y-78465229D01*
X100608858Y-78131567D01*
X100608858Y-77631075D01*
X100775689Y-77631075D01*
X100942520Y-77631075D01*
X100942520Y-77464244D01*
X100942520Y-77297413D01*
X101109351Y-77297413D01*
X101276182Y-77297413D01*
X101276182Y-77464244D01*
X101276182Y-77631075D01*
X101443012Y-77631075D01*
X101609843Y-77631075D01*
X101609843Y-77464244D01*
X101609843Y-77297413D01*
X101443012Y-77297413D01*
X101276182Y-77297413D01*
X101276182Y-77130582D01*
X101276182Y-76963751D01*
X102110336Y-76963751D01*
X102944490Y-76963751D01*
X102944490Y-77130582D01*
X102944490Y-77297413D01*
X102443998Y-77297413D01*
X101943505Y-77297413D01*
X101943505Y-77464244D01*
X101943505Y-77631075D01*
X101776674Y-77631075D01*
X101609843Y-77631075D01*
X101609843Y-77797906D01*
X101609843Y-77964737D01*
X101276182Y-77964737D01*
X100942520Y-77964737D01*
X100942520Y-78131567D01*
X100942520Y-78298398D01*
X101276182Y-78298398D01*
X101609843Y-78298398D01*
X101609843Y-78131567D01*
X101609843Y-77964737D01*
X101776674Y-77964737D01*
X101943505Y-77964737D01*
X101943505Y-78131567D01*
X101943505Y-78298398D01*
X102110336Y-78298398D01*
X102277167Y-78298398D01*
X102277167Y-78131567D01*
X102277167Y-77964737D01*
X102443998Y-77964737D01*
X102610829Y-77964737D01*
X102610829Y-78131567D01*
X102610829Y-78298398D01*
X102777659Y-78298398D01*
X102944490Y-78298398D01*
X102944490Y-78131567D01*
X102944490Y-77964737D01*
X102777659Y-77964737D01*
X102610829Y-77964737D01*
X102610829Y-77797906D01*
X102610829Y-77631075D01*
X102944490Y-77631075D01*
X103278152Y-77631075D01*
X103278152Y-77797906D01*
X103278152Y-77964737D01*
X103444983Y-77964737D01*
X103611814Y-77964737D01*
X103945476Y-77964737D01*
X103945476Y-78131567D01*
X103945476Y-78298398D01*
X104445968Y-78298398D01*
X104946461Y-78298398D01*
X104946461Y-78131567D01*
X104946461Y-77964737D01*
X104445968Y-77964737D01*
X103945476Y-77964737D01*
X103611814Y-77964737D01*
X103611814Y-77797906D01*
X103611814Y-77631075D01*
X103444983Y-77631075D01*
X103278152Y-77631075D01*
X103278152Y-77464244D01*
X103278152Y-77297413D01*
X103444983Y-77297413D01*
X103611814Y-77297413D01*
X103611814Y-77464244D01*
X103611814Y-77631075D01*
X104279137Y-77631075D01*
X104946461Y-77631075D01*
X104946461Y-77464244D01*
X104946461Y-77297413D01*
X105113292Y-77297413D01*
X105280123Y-77297413D01*
X105280123Y-77464244D01*
X105280123Y-77631075D01*
X105113292Y-77631075D01*
X104946461Y-77631075D01*
X104946461Y-77797906D01*
X104946461Y-77964737D01*
X105113292Y-77964737D01*
X105280123Y-77964737D01*
X105280123Y-77797906D01*
X105280123Y-77631075D01*
X105613784Y-77631075D01*
X105947446Y-77631075D01*
X105947446Y-77797906D01*
X105947446Y-77964737D01*
X106114277Y-77964737D01*
X106281108Y-77964737D01*
X106281108Y-77797906D01*
X106281108Y-77631075D01*
X106447939Y-77631075D01*
X106614769Y-77631075D01*
X106614769Y-77797906D01*
X106614769Y-77964737D01*
X106781600Y-77964737D01*
X106948431Y-77964737D01*
X106948431Y-78131567D01*
X106948431Y-78298398D01*
G37*
G36*
X102110336Y-85972618D02*
G01*
X102277167Y-85972618D01*
X102277167Y-86306280D01*
X102277167Y-86639942D01*
X102110336Y-86639942D01*
X101943505Y-86639942D01*
X101943505Y-86306280D01*
X101943505Y-85972618D01*
X102110336Y-85972618D01*
G37*
G36*
X105446953Y-85638957D02*
G01*
X105613784Y-85638957D01*
X105613784Y-85805788D01*
X105613784Y-85972618D01*
X105780615Y-85972618D01*
X105947446Y-85972618D01*
X105947446Y-85805788D01*
X105947446Y-85638957D01*
X106114277Y-85638957D01*
X106281108Y-85638957D01*
X106281108Y-85805788D01*
X106281108Y-85972618D01*
X106114277Y-85972618D01*
X105947446Y-85972618D01*
X105947446Y-86139449D01*
X105947446Y-86306280D01*
X105780615Y-86306280D01*
X105613784Y-86306280D01*
X105613784Y-86473111D01*
X105613784Y-86639942D01*
X105446953Y-86639942D01*
X105280123Y-86639942D01*
X105280123Y-86139449D01*
X105280123Y-85638957D01*
X105446953Y-85638957D01*
G37*
G36*
X106781600Y-84304310D02*
G01*
X106948431Y-84304310D01*
X106948431Y-84471141D01*
X106948431Y-84637971D01*
X106781600Y-84637971D01*
X106614769Y-84637971D01*
X106614769Y-84471141D01*
X106614769Y-84304310D01*
X106781600Y-84304310D01*
G37*
G36*
X101276182Y-81801847D02*
G01*
X101276182Y-82302339D01*
X101109351Y-82302339D01*
X100942520Y-82302339D01*
X100942520Y-82135508D01*
X100942520Y-81968677D01*
X100775689Y-81968677D01*
X100608858Y-81968677D01*
X100608858Y-81801847D01*
X100608858Y-81635016D01*
X100775689Y-81635016D01*
X100942520Y-81635016D01*
X100942520Y-81468185D01*
X100942520Y-81301354D01*
X101109351Y-81301354D01*
X101276182Y-81301354D01*
X101276182Y-81801847D01*
G37*
G36*
X104779630Y-76296428D02*
G01*
X104946461Y-76296428D01*
X104946461Y-76463259D01*
X104946461Y-76630090D01*
X105113292Y-76630090D01*
X105280123Y-76630090D01*
X105280123Y-76796921D01*
X105280123Y-76963751D01*
X105113292Y-76963751D01*
X104946461Y-76963751D01*
X104946461Y-77130582D01*
X104946461Y-77297413D01*
X104612799Y-77297413D01*
X104279137Y-77297413D01*
X104279137Y-77130582D01*
X104279137Y-76963751D01*
X104445968Y-76963751D01*
X104612799Y-76963751D01*
X104612799Y-76630090D01*
X104612799Y-76296428D01*
X104779630Y-76296428D01*
G37*
G36*
X103778645Y-75962766D02*
G01*
X103945476Y-75962766D01*
X103945476Y-76129597D01*
X103945476Y-76296428D01*
X104112306Y-76296428D01*
X104279137Y-76296428D01*
X104279137Y-76129597D01*
X104279137Y-75962766D01*
X104445968Y-75962766D01*
X104612799Y-75962766D01*
X104612799Y-76129597D01*
X104612799Y-76296428D01*
X104445968Y-76296428D01*
X104279137Y-76296428D01*
X104279137Y-76463259D01*
X104279137Y-76630090D01*
X104112306Y-76630090D01*
X103945476Y-76630090D01*
X103945476Y-76463259D01*
X103945476Y-76296428D01*
X103778645Y-76296428D01*
X103611814Y-76296428D01*
X103611814Y-76129597D01*
X103611814Y-75962766D01*
X103778645Y-75962766D01*
G37*
G36*
X103611814Y-75795935D02*
G01*
X103611814Y-75962766D01*
X103444983Y-75962766D01*
X103278152Y-75962766D01*
X103278152Y-75795935D01*
X103278152Y-75629104D01*
X103444983Y-75629104D01*
X103611814Y-75629104D01*
X103611814Y-75795935D01*
G37*
%TD*%
%LPC*%
D12*
%TO.C,J3*%
X77350000Y-72550000D03*
D13*
X79850000Y-72550000D03*
%TD*%
D12*
%TO.C,J8*%
X77350000Y-108825000D03*
D13*
X79850000Y-108825000D03*
%TD*%
D12*
%TO.C,J23*%
X115575000Y-101550000D03*
D13*
X118075000Y-101550000D03*
%TD*%
D12*
%TO.C,J27*%
X134025000Y-72550000D03*
D13*
X136525000Y-72550000D03*
%TD*%
D12*
%TO.C,J1*%
X77350000Y-58050000D03*
D13*
X79850000Y-58050000D03*
%TD*%
D14*
%TO.C,H1*%
X71000000Y-44000000D03*
%TD*%
%TO.C,H3*%
X71000000Y-116000000D03*
%TD*%
D12*
%TO.C,J31*%
X134025000Y-101550000D03*
D13*
X136525000Y-101550000D03*
%TD*%
D12*
%TO.C,J29*%
X134025000Y-87100000D03*
D13*
X136525000Y-87100000D03*
%TD*%
D12*
%TO.C,J6*%
X77350000Y-94300000D03*
D13*
X79850000Y-94300000D03*
%TD*%
D12*
%TO.C,J5*%
X77350000Y-87100000D03*
D13*
X79850000Y-87100000D03*
%TD*%
D12*
%TO.C,J7*%
X77350000Y-101550000D03*
D13*
X79850000Y-101550000D03*
%TD*%
D12*
%TO.C,J16*%
X95700000Y-108825000D03*
D13*
X98200000Y-108825000D03*
%TD*%
D12*
%TO.C,J20*%
X115575000Y-79900000D03*
D13*
X118075000Y-79900000D03*
%TD*%
D12*
%TO.C,J2*%
X77350000Y-65450000D03*
D13*
X79850000Y-65450000D03*
%TD*%
D12*
%TO.C,J32*%
X134025000Y-108825000D03*
D13*
X136525000Y-108825000D03*
%TD*%
D14*
%TO.C,H4*%
X143000000Y-116000000D03*
%TD*%
D12*
%TO.C,J12*%
X95700000Y-79900000D03*
D13*
X98200000Y-79900000D03*
%TD*%
D14*
%TO.C,H2*%
X143000000Y-44000000D03*
%TD*%
D12*
%TO.C,J10*%
X95700000Y-65450000D03*
D13*
X98200000Y-65450000D03*
%TD*%
D12*
%TO.C,J25*%
X134025000Y-58050000D03*
D13*
X136525000Y-58050000D03*
%TD*%
D15*
%TO.C,J33*%
X78900000Y-43880000D03*
D16*
X81400000Y-43880000D03*
X83900000Y-43880000D03*
X86400000Y-43880000D03*
X88900000Y-43880000D03*
%TD*%
D12*
%TO.C,J18*%
X115575000Y-65450000D03*
D13*
X118075000Y-65450000D03*
%TD*%
D12*
%TO.C,J9*%
X95700000Y-58050000D03*
D13*
X98200000Y-58050000D03*
%TD*%
D12*
%TO.C,J13*%
X95700000Y-87100000D03*
D13*
X98200000Y-87100000D03*
%TD*%
D12*
%TO.C,J11*%
X95700000Y-72550000D03*
D13*
X98200000Y-72550000D03*
%TD*%
D12*
%TO.C,J30*%
X134025000Y-94300000D03*
D13*
X136525000Y-94300000D03*
%TD*%
D12*
%TO.C,J14*%
X95700000Y-94300000D03*
D13*
X98200000Y-94300000D03*
%TD*%
D12*
%TO.C,J4*%
X77350000Y-79900000D03*
D13*
X79850000Y-79900000D03*
%TD*%
D12*
%TO.C,J21*%
X115575000Y-87100000D03*
D13*
X118075000Y-87100000D03*
%TD*%
D12*
%TO.C,J26*%
X134025000Y-65450000D03*
D13*
X136525000Y-65450000D03*
%TD*%
D12*
%TO.C,J15*%
X95700000Y-101550000D03*
D13*
X98200000Y-101550000D03*
%TD*%
D12*
%TO.C,J22*%
X115575000Y-94300000D03*
D13*
X118075000Y-94300000D03*
%TD*%
D12*
%TO.C,J19*%
X115575000Y-72550000D03*
D13*
X118075000Y-72550000D03*
%TD*%
D12*
%TO.C,J17*%
X115575000Y-58050000D03*
D13*
X118075000Y-58050000D03*
%TD*%
D12*
%TO.C,J28*%
X134025000Y-79900000D03*
D13*
X136525000Y-79900000D03*
%TD*%
D12*
%TO.C,J24*%
X115575000Y-108825000D03*
D13*
X118075000Y-108825000D03*
%TD*%
%LPD*%
M02*
